<?xml version="1.0" encoding="iso-8859-1"?>
<!-- Uploaded to: SVG Repo, www.svgrepo.com, Generator: SVG Repo Mixer Tools -->
<!DOCTYPE svg PUBLIC "-//W3C//DTD SVG 1.1//EN" "http://www.w3.org/Graphics/SVG/1.1/DTD/svg11.dtd">
<svg fill="#000000" height="800px" width="800px" version="1.1" id="Capa_1" xmlns="http://www.w3.org/2000/svg" xmlns:xlink="http://www.w3.org/1999/xlink" 
	 viewBox="0 0 466.107 466.107" xml:space="preserve">
<g>
	<path d="M382.473,54.908c-5.485-16.043-19.845-27.067-36.581-28.084c-17.335-1.054-26.124-5.653-29.533-7.984
		c0.125-0.868,0.24-1.739,0.333-2.614c0.214-2.001-0.794-3.936-2.557-4.908L294.802,0.652c-1.013-0.559-3.246-0.553-3.246-0.553
		c-38.559,6.5-77.658,6.535-116.226,0.123c-1.309-0.4-2.776-0.26-4.025,0.43l-19.333,10.667c-1.763,0.972-2.771,2.907-2.557,4.908
		c0.093,0.875,0.208,1.746,0.333,2.614c-3.41,2.332-12.199,6.93-29.532,7.983C103.48,27.841,89.12,38.865,83.635,54.908
		c-6.986,20.43-10.658,47.823-10.915,81.417c-0.013,1.65,0.79,3.2,2.145,4.143c0.653,0.454,15.889,10.8,49.188,12.725
		c1.137,0.066,3.735,0.173,3.863,0.167c2.399,11.814,5.936,29.093,9.687,46.945c7.054,33.57,6.166,68.722-2.568,101.655
		c-10.917,41.167-23.766,99.882-22.979,145.822c0.039,2.288,1.626,4.256,3.853,4.781c38.318,9.029,77.732,13.544,117.146,13.544
		c39.413,0,78.827-4.515,117.146-13.544c2.228-0.525,3.813-2.494,3.853-4.781c0.785-45.941-12.063-104.656-22.98-145.822
		c-8.733-32.934-9.621-68.086-2.567-101.655c3.751-17.852,7.287-35.131,9.686-46.944c0.129,0.005,2.535-0.093,3.581-0.151
		c33.497-1.882,48.817-12.285,49.471-12.741c1.354-0.942,2.157-2.493,2.145-4.143C393.13,102.733,389.458,75.34,382.473,54.908z
		 M295.022,20.197c1.333-2.335,2.127-4.559,2.568-6.587l8.727,4.814c-2.838,17.87-13.154,33.619-30.706,46.853
		c-8.618,6.499-17.101,10.869-22.476,13.313c-2.592-16.502-7.009-26.656-10.729-32.653C270.427,40.954,288.109,32.31,295.022,20.197
		z M287.925,10.796c-0.195,1.276-0.645,2.792-1.588,4.445c-3.35,5.868-14.738,16.504-53.292,22.068
		C216.35,34.894,188,28.916,179.959,15.564c-1.075-1.785-1.577-3.413-1.783-4.769c18.222,2.797,36.55,4.212,54.878,4.212
		C251.38,15.007,269.705,13.592,287.925,10.796z M168.517,13.611c0.441,2.027,1.236,4.252,2.568,6.586
		c6.912,12.113,24.596,20.757,52.616,25.741c-3.721,5.998-8.138,16.154-10.729,32.66c-5.315-2.415-13.677-6.72-22.252-13.151
		c-17.688-13.266-28.08-29.071-30.93-47.021L168.517,13.611z M144.7,304.523c9.132-34.436,10.062-71.185,2.689-106.275
		c-6.695-31.859-12.707-61.899-12.767-62.198c-0.469-2.339-2.522-4.02-4.902-4.02c-0.02,0-0.039,0-0.058,0
		c-2.405,0.027-4.449,1.762-4.867,4.13l-1.232,6.983c-22.743-1.468-35.937-7.12-40.813-9.649
		c0.429-31.182,3.907-56.521,10.347-75.351c4.168-12.192,15.051-20.568,27.726-21.338c15.62-0.949,25.442-4.52,31.202-7.632
		c4.998,16.716,16.116,31.838,32.695,44.272c15.443,11.583,30.072,16.756,30.688,16.971c0.535,0.187,1.092,0.279,1.646,0.279
		c0.929,0,1.851-0.259,2.656-0.764c1.287-0.807,2.137-2.154,2.311-3.663c1.361-11.792,3.673-20.34,6.033-26.433v396.239
		c-35.665-0.353-71.291-4.466-106.034-12.362C122.014,399.51,134.255,343.91,144.7,304.523z M342.543,143.143l-1.232-6.983
		c-0.418-2.368-2.463-4.103-4.867-4.13c-0.02,0-0.038,0-0.058,0c-2.38,0-4.435,1.68-4.902,4.02c-0.06,0.3-6.07,30.337-12.766,62.199
		c-7.372,35.089-6.442,71.839,2.688,106.275c10.445,39.387,22.687,94.987,22.682,139.19c-34.745,7.896-70.37,12.009-106.034,12.362
		V59.853c2.359,6.097,4.675,14.65,6.033,26.417c0.174,1.508,1.023,2.856,2.311,3.663c0.806,0.505,1.728,0.764,2.656,0.764
		c0.555,0,1.111-0.092,1.646-0.279c0.615-0.215,15.244-5.389,30.687-16.971c16.579-12.435,27.697-27.557,32.695-44.273
		c5.759,3.112,15.582,6.683,31.203,7.632c12.675,0.771,23.558,9.146,27.726,21.338c6.438,18.831,9.917,44.168,10.346,75.349
		C378.46,136.031,365.27,141.676,342.543,143.143z"/>
	<path d="M216.387,103.693c-1.32,0-2.61,0.54-3.54,1.47c-0.931,0.93-1.46,2.21-1.46,3.53s0.529,2.61,1.46,3.54
		c0.93,0.93,2.22,1.46,3.54,1.46c1.319,0,2.609-0.53,3.529-1.46c0.94-0.93,1.471-2.22,1.471-3.54c0-1.31-0.53-2.6-1.471-3.53
		C218.996,104.233,217.706,103.693,216.387,103.693z"/>
	<circle cx="216.387" cy="371.193" r="5"/>
	<circle cx="216.387" cy="161.193" r="5"/>
	<circle cx="216.387" cy="318.693" r="5"/>
	<circle cx="216.387" cy="213.693" r="5"/>
	<circle cx="216.387" cy="266.193" r="5"/>
	<path d="M216.387,418.693c-1.32,0-2.601,0.54-3.54,1.47c-0.931,0.93-1.46,2.22-1.46,3.53c0,1.32,0.529,2.61,1.46,3.54
		c0.93,0.93,2.22,1.46,3.54,1.46c1.319,0,2.609-0.53,3.529-1.46c0.94-0.93,1.471-2.22,1.471-3.54c0-1.31-0.53-2.6-1.471-3.53
		C218.996,419.233,217.706,418.693,216.387,418.693z"/>
	<path d="M309.387,134.696h-41c-2.762,0-5,2.239-5,5s2.238,5,5,5h41c2.762,0,5-2.239,5-5S312.149,134.696,309.387,134.696z"/>
</g>
</svg>