<?xml version="1.0" encoding="iso-8859-1"?>
<!-- Uploaded to: SVG Repo, www.svgrepo.com, Generator: SVG Repo Mixer Tools -->
<svg fill="#000000" height="800px" width="800px" version="1.1" id="Layer_1" xmlns="http://www.w3.org/2000/svg" xmlns:xlink="http://www.w3.org/1999/xlink" 
	 viewBox="0 0 512 512" xml:space="preserve">
<g>
	<g>
		<path d="M493.867,206.933l-128-170.667C363.84,33.6,360.64,32,357.333,32h-26.24L312.96,4.8c-2.027-2.987-5.333-4.693-8.96-4.693
			V0h-96v0.107c-3.52,0-6.827,1.707-8.853,4.587l-18.133,27.2h-26.347c-3.307,0-6.507,1.6-8.533,4.267l-128,170.773
			c-3.413,4.587-2.667,10.987,1.707,14.613l64,53.333c4.48,3.733,11.2,3.2,15.04-1.387c0.107-0.107,0.213-0.32,0.32-0.427
			l44.8-59.733v288C144,507.2,148.8,512,154.667,512h202.667C363.2,512,368,507.2,368,501.333v-288l44.8,59.733
			c3.52,4.693,10.24,5.653,14.933,2.133c0.107-0.107,0.32-0.213,0.427-0.32l64-53.333C496.533,217.92,497.28,211.52,493.867,206.933
			z M306.133,33.28l10.347,15.253c1.173,1.707,2.773,2.987,4.587,3.84C310.72,79.253,283.733,143.36,240,203.52v-30.293
			l19.947-39.893C273.813,109.013,294.933,60.053,306.133,33.28z M288.107,21.333c-8.32,19.52-23.253,54.507-36.053,80.853
			c-10.24-27.093-22.4-61.76-29.013-80.853H288.107z M154.667,170.667c-3.307,0-6.507,1.6-8.533,4.267l-57.28,76.373l-47.573-39.68
			L160,53.333h7.787c5.653,20.373,22.613,75.093,50.88,120.32v61.014h-53.333v-53.333
			C165.334,175.467,160.534,170.667,154.667,170.667z M218.667,490.667L218.667,490.667h-53.333V256h53.333V490.667z
			 M228.48,148.267c-19.84-35.947-32.853-75.733-38.72-95.573c2.453-0.64,4.373-2.133,5.76-4.16l9.387-14.08
			c8.747,25.067,23.573,67.2,34.027,93.013L228.48,148.267z M346.667,490.667H240V256h106.667V490.667z M423.147,251.307
			l-57.28-76.373c-3.52-4.693-10.24-5.653-14.933-2.133c-2.667,2.027-4.267,5.227-4.267,8.533v53.333h-103.68
			c58.667-73.493,91.627-156.587,100.587-181.333H352l118.72,158.293L423.147,251.307z"/>
	</g>
</g>
</svg>