<?xml version="1.0" encoding="iso-8859-1"?>
<!-- Uploaded to: SVG Repo, www.svgrepo.com, Generator: SVG Repo Mixer Tools -->
<svg fill="#000000" height="800px" width="800px" version="1.1" id="Layer_1" xmlns="http://www.w3.org/2000/svg" xmlns:xlink="http://www.w3.org/1999/xlink" 
	 viewBox="0 0 511.999 511.999" xml:space="preserve">
<g>
	<g>
		<path d="M392.578,82.105l8.194-64.528c0.53-4.172-2.255-8.046-6.381-8.871l-42.756-8.551c-2.185-0.436-4.453,0.055-6.259,1.359
			c-1.808,1.303-2.991,3.299-3.268,5.508l-8.366,66.934c-18.69,9.58-44.178,24.724-72.127,47.24c-3.253,2.622-7.975,2.62-11.229,0
			c-27.948-22.516-53.437-37.659-72.127-47.239l-8.367-66.934c-0.276-2.209-1.46-4.206-3.268-5.508
			c-1.807-1.302-4.076-1.794-6.259-1.359l-42.756,8.551c-4.125,0.824-6.91,4.699-6.381,8.871l8.194,64.528
			c-15.896,18.161-33.911,44.704-33.911,71.75c0,23.923,9.887,45.681,25.966,61.198l15.331,154.875
			c1.131,11.433,6.992,22.058,16.078,29.151c17.669,13.792,60.494,50.783,76.499,96.28c3.502,9.954,12.976,16.639,23.577,16.639
			h26.075c10.6,0,20.075-6.687,23.577-16.639c16.005-45.496,58.83-82.488,76.499-96.28c9.087-7.094,14.947-17.718,16.078-29.15
			l15.331-154.876c16.08-15.517,25.968-37.274,25.968-61.198C426.488,126.811,408.473,100.267,392.578,82.105z M356.947,17.57
			l26.977,5.396l-5.654,44.53c-7.108-5.232-16.425-6.414-24.656-2.906c-0.85,0.362-1.755,0.756-2.689,1.166L356.947,17.57z
			 M155.052,17.57l6.023,48.188c-0.934-0.41-1.84-0.804-2.689-1.166c-8.232-3.512-17.548-2.327-24.656,2.905l-5.654-44.53
			L155.052,17.57z M349.18,222.378c-4.401,0.486-7.573,4.448-7.087,8.848c0.453,4.101,3.925,7.137,7.958,7.137
			c0.294,0,0.591-0.017,0.89-0.05c11.653-1.288,22.519-4.902,32.188-10.324l-13.893,140.362c-0.702,7.089-4.343,13.683-9.989,18.091
			c-54.352,42.425-74.554,83.118-81.759,103.597c-1.247,3.545-4.643,5.928-8.452,5.928h-26.075c-3.808,0-7.204-2.383-8.452-5.928
			c-7.204-20.479-27.406-61.172-81.759-103.597c-5.646-4.408-9.287-11.002-9.989-18.092l-13.895-140.36
			c9.668,5.423,20.536,9.036,32.188,10.324c4.402,0.486,8.362-2.686,8.849-7.087c0.486-4.401-2.687-8.362-7.087-8.848
			c-34.931-3.862-61.274-33.321-61.274-68.524c0-29.198,28.402-60.449,40.612-72.529c2.672-2.643,6.574-3.426,9.941-1.988
			c16.483,7.028,49.864,23.434,88.23,54.344c9.081,7.315,22.264,7.317,31.345,0c38.367-30.909,71.747-47.316,88.23-54.345
			c3.367-1.433,7.268-0.654,9.94,1.989c12.212,12.081,40.614,43.331,40.614,72.529C410.455,189.059,384.112,218.516,349.18,222.378z
			"/>
	</g>
</g>
</svg>