<svg id="svg" version="1.1" xmlns="http://www.w3.org/2000/
svg" xmlns:xlink="http://www.w3.org/1999/xlink" width="600" height="400" viewBox="0, 0, 400,200" ><g id="svgg"><path id="path0" d="M101.397 13.794 C 67.758 14.257,48.960 15.139,43.680 16.500 C 39.669 17.534,37.928 22.322,37.406 33.751 C 37.198 38.306,37.423 47.959,37.794 50.372 C 37.888 50.987,38.061 52.366,38.178 53.437 C 38.763 58.767,40.083 62.453,41.877 63.759 C 43.996 65.302,46.099 66.183,52.980 68.414 C 60.821 70.956,60.756 70.756,59.137 87.151 C 58.980 88.738,58.766 90.708,58.661 91.527 C 58.556 92.346,58.384 93.813,58.279 94.786 C 58.174 95.759,57.922 97.938,57.718 99.628 C 57.514 101.318,57.265 103.412,57.163 104.283 C 57.061 105.154,56.812 107.123,56.610 108.659 C 56.407 110.196,55.990 113.547,55.682 116.108 C 55.374 118.669,55.040 121.350,54.939 122.067 C 54.839 122.784,54.668 124.125,54.561 125.047 C 54.453 125.968,54.284 127.351,54.184 128.119 C 53.970 129.774,53.188 136.780,52.792 140.596 C 52.638 142.081,52.432 144.008,52.334 144.879 C 50.758 158.934,51.807 160.954,61.381 162.298 C 63.014 162.527,63.943 162.767,64.084 162.995 C 64.098 163.017,64.161 164.969,64.224 167.333 C 64.415 174.463,62.884 173.836,80.088 173.836 L 93.603 173.836 94.375 173.325 C 95.725 172.431,95.798 172.153,95.903 167.441 C 96.013 162.530,95.934 162.703,98.170 162.508 C 106.911 161.746,109.148 159.977,109.114 153.855 C 109.099 151.175,108.561 143.715,108.212 141.341 C 107.948 139.548,107.651 137.181,107.453 135.289 C 107.357 134.367,107.183 132.900,107.067 132.030 C 106.950 131.159,106.833 129.899,106.806 129.230 C 106.779 128.561,106.666 127.723,106.554 127.368 C 106.442 127.013,106.259 126.010,106.147 125.140 C 106.035 124.269,105.728 121.923,105.465 119.926 C 105.202 117.928,104.958 115.869,104.923 115.350 C 104.887 114.830,104.773 114.034,104.668 113.581 C 104.564 113.127,104.476 112.421,104.474 112.011 C 104.471 111.601,104.350 110.680,104.205 109.963 C 103.699 107.470,103.442 103.972,103.738 103.615 C 104.018 103.278,103.993 103.278,111.963 103.658 C 115.602 103.832,121.195 103.269,122.533 102.596 C 125.022 101.342,125.905 98.140,124.973 93.749 C 124.348 90.806,124.111 88.703,124.368 88.394 C 124.623 88.086,128.406 87.990,130.451 88.239 C 132.469 88.485,136.815 88.179,138.071 87.703 C 140.849 86.650,142.366 83.023,142.014 78.274 C 141.951 77.421,141.847 76.011,141.783 75.140 C 141.700 74.013,141.732 73.479,141.895 73.282 C 142.180 72.939,171.711 73.037,174.566 73.391 C 175.778 73.541,176.682 73.541,177.918 73.390 C 178.848 73.277,181.830 73.147,184.544 73.102 C 192.669 72.966,194.613 72.418,197.239 69.526 C 198.932 67.661,201.291 64.439,201.632 63.524 C 201.829 62.999,205.191 57.412,205.644 56.860 C 205.882 56.569,206.267 56.016,206.500 55.631 C 207.587 53.832,209.986 53.178,213.780 53.646 C 214.856 53.779,216.071 53.871,216.480 53.850 C 216.890 53.830,217.980 53.939,218.901 54.094 C 219.823 54.248,221.038 54.361,221.601 54.343 C 222.873 54.304,227.851 54.692,229.248 54.938 C 230.570 55.172,231.631 55.170,232.632 54.933 C 233.069 54.830,233.955 54.621,234.601 54.469 C 236.539 54.012,237.565 52.858,238.447 50.139 C 238.833 48.947,238.494 49.029,243.651 48.884 C 248.011 48.761,248.288 48.704,249.187 47.735 C 250.046 46.811,250.236 46.198,250.363 43.947 C 250.493 41.653,250.798 39.472,251.045 39.073 C 251.164 38.880,252.766 38.798,258.513 38.693 C 262.536 38.619,269.977 38.467,275.047 38.355 C 290.341 38.017,300.733 37.846,314.432 37.707 C 321.601 37.634,327.520 37.543,327.583 37.506 C 327.647 37.468,332.424 37.428,338.198 37.417 C 343.972 37.406,349.074 37.327,349.534 37.241 C 349.995 37.155,355.023 37.027,360.708 36.955 C 371.857 36.815,371.886 36.813,372.263 35.823 C 372.913 34.112,371.823 33.520,368.021 33.520 C 366.461 33.520,363.947 33.440,362.434 33.342 C 360.921 33.245,355.954 33.074,351.397 32.962 C 337.565 32.622,330.496 32.417,325.419 32.209 C 322.756 32.099,315.968 31.886,310.335 31.734 C 304.702 31.582,297.537 31.379,294.413 31.281 C 291.290 31.184,284.460 30.977,279.236 30.823 C 268.851 30.515,262.024 30.263,256.425 29.980 C 254.427 29.879,252.481 29.849,252.099 29.913 C 250.947 30.106,250.545 29.700,250.405 28.202 C 249.835 22.089,249.063 21.355,243.110 21.259 C 238.734 21.189,238.910 21.243,238.206 19.745 C 237.523 18.294,236.264 17.116,234.953 16.703 C 230.677 15.355,217.624 14.726,176.443 13.884 C 167.506 13.701,112.878 13.635,101.397 13.794 M163.408 16.996 C 172.648 17.029,175.556 17.095,176.350 17.290 C 177.056 17.463,177.663 17.492,178.305 17.383 C 179.152 17.240,181.951 17.270,195.438 17.567 C 197.896 17.622,201.457 17.663,203.352 17.660 C 206.443 17.655,206.900 17.696,207.801 18.053 C 208.643 18.387,209.200 18.452,211.246 18.458 C 214.671 18.467,217.185 18.626,217.458 18.850 C 217.790 19.121,217.800 49.724,217.468 50.055 C 217.302 50.221,216.297 50.247,213.503 50.157 C 209.689 50.034,207.779 50.202,206.704 50.755 C 206.151 51.039,203.911 53.197,203.911 53.444 C 203.911 53.539,203.550 54.060,203.109 54.602 C 202.411 55.459,201.665 56.694,200.601 58.752 C 200.442 59.060,200.088 59.604,199.815 59.963 C 199.541 60.321,198.953 61.285,198.508 62.104 C 196.783 65.281,193.941 68.493,192.517 68.876 C 189.614 69.656,181.670 69.809,159.497 69.510 C 142.204 69.277,128.211 69.261,122.283 69.466 C 119.092 69.577,116.061 69.660,115.549 69.651 C 115.037 69.642,114.031 69.723,113.314 69.832 C 112.598 69.940,111.131 70.063,110.056 70.104 C 107.961 70.185,105.300 70.469,103.864 70.767 C 101.413 71.274,100.932 71.406,99.793 71.884 C 98.701 72.342,98.475 72.378,97.805 72.200 C 97.264 72.055,96.848 72.055,96.337 72.199 C 95.945 72.310,94.786 72.591,93.762 72.825 C 92.737 73.059,91.313 73.523,90.596 73.856 C 89.879 74.189,88.819 74.657,88.240 74.897 C 86.231 75.726,82.435 79.363,81.450 81.401 C 81.234 81.849,80.800 82.761,80.486 83.426 C 78.707 87.205,78.383 92.700,79.690 96.931 C 79.901 97.616,80.074 98.357,80.074 98.578 C 80.074 98.798,80.284 99.373,80.540 99.854 C 80.797 100.335,81.131 101.206,81.283 101.790 C 81.435 102.374,81.678 102.985,81.824 103.148 C 81.969 103.311,82.189 103.822,82.311 104.283 C 82.434 104.744,82.735 105.464,82.980 105.882 C 83.226 106.301,83.426 106.743,83.426 106.864 C 83.426 106.985,83.773 107.815,84.196 108.710 C 85.047 110.508,85.602 111.997,85.846 113.128 C 85.934 113.538,86.126 114.250,86.273 114.711 C 87.125 117.386,87.571 120.090,87.531 122.346 C 87.491 124.597,87.168 127.594,86.877 128.399 C 86.729 128.808,86.605 129.395,86.601 129.702 C 86.572 131.695,83.068 136.737,79.593 139.786 C 78.910 140.385,78.175 141.085,77.959 141.341 C 77.743 141.597,77.093 142.267,76.515 142.831 C 75.358 143.958,74.099 145.863,73.747 147.020 C 73.622 147.430,73.361 148.106,73.166 148.522 C 72.361 150.244,73.058 157.529,74.143 158.743 C 74.942 159.636,70.828 160.074,67.778 159.420 C 67.307 159.319,66.640 159.305,66.270 159.389 C 64.431 159.803,56.378 158.476,55.688 157.645 C 55.029 156.851,54.682 152.727,55.111 150.794 C 55.208 150.357,55.423 147.875,55.589 145.279 C 55.754 142.682,55.968 140.351,56.064 140.099 C 56.160 139.847,56.241 139.248,56.243 138.768 C 56.246 138.288,56.413 136.513,56.613 134.823 C 56.813 133.133,57.144 130.242,57.349 128.399 C 57.553 126.555,57.807 124.544,57.913 123.929 C 58.020 123.315,58.227 121.764,58.374 120.484 C 58.520 119.204,58.858 116.439,59.124 114.339 C 60.221 105.678,60.535 103.093,60.885 99.814 C 61.087 97.919,61.343 95.950,61.452 95.438 C 61.682 94.364,62.234 89.050,62.216 88.082 C 62.210 87.723,62.288 87.011,62.390 86.499 C 63.104 82.925,63.386 71.266,62.788 70.021 C 62.056 68.496,60.090 67.564,51.583 64.705 C 44.390 62.288,43.277 61.613,42.484 59.178 C 40.266 52.371,39.879 31.073,41.837 23.557 C 42.783 19.926,43.138 19.602,46.634 19.178 C 47.549 19.067,48.361 18.936,48.440 18.887 C 48.657 18.753,60.443 17.997,63.408 17.928 C 64.842 17.894,67.481 17.818,69.274 17.759 C 75.122 17.567,80.423 17.462,87.151 17.405 C 91.177 17.371,94.235 17.263,94.972 17.129 C 95.859 16.967,98.946 16.938,106.518 17.018 C 112.430 17.081,117.132 17.056,117.505 16.960 C 117.878 16.865,125.278 16.827,134.823 16.873 C 143.990 16.916,156.853 16.972,163.408 16.996 M227.561 18.810 C 228.124 18.905,229.255 19.035,230.074 19.098 C 234.840 19.466,235.372 19.857,236.217 23.606 C 237.902 31.086,236.780 49.232,234.522 51.008 C 233.383 51.904,221.504 51.532,221.387 50.596 C 221.178 48.926,221.494 18.866,221.722 18.687 C 222.034 18.442,225.862 18.523,227.561 18.810 M245.379 24.405 C 246.551 24.368,246.615 24.458,247.070 26.763 C 247.592 29.408,247.553 43.722,247.020 44.786 L 246.648 45.531 243.297 45.582 C 239.103 45.646,239.220 45.746,239.863 42.644 C 240.367 40.211,240.383 28.343,239.885 26.131 C 239.533 24.565,240.364 24.117,243.203 24.340 C 243.869 24.392,244.848 24.422,245.379 24.405 M55.450 26.070 C 54.639 26.314,53.757 26.927,53.256 27.595 L 52.793 28.212 52.793 42.301 L 52.793 56.390 53.372 57.106 C 54.607 58.634,51.450 58.494,84.672 58.489 C 100.937 58.487,114.394 58.482,114.576 58.479 C 114.987 58.472,116.510 57.087,116.867 56.397 C 117.089 55.968,117.132 53.707,117.132 42.461 L 117.132 29.038 116.669 28.125 C 115.793 26.395,115.302 26.183,111.840 26.041 C 107.473 25.863,56.051 25.889,55.450 26.070 M113.420 29.429 C 113.940 29.707,113.990 54.529,113.472 54.959 C 113.026 55.329,56.571 55.342,56.201 54.972 C 55.833 54.604,55.846 29.988,56.215 29.544 C 56.524 29.172,112.728 29.059,113.420 29.429 M131.477 31.151 C 130.378 31.706,130.286 32.991,131.291 33.739 C 131.968 34.243,184.455 34.301,185.222 33.799 C 186.171 33.177,186.157 32.180,185.187 31.209 C 184.788 30.811,132.262 30.754,131.477 31.151 M304.401 34.915 L 304.935 35.193 304.446 35.194 C 304.176 35.195,303.852 35.070,303.724 34.916 C 303.427 34.558,303.716 34.558,304.401 34.915 M131.896 40.726 C 130.831 40.933,130.317 42.183,130.903 43.145 C 131.529 44.170,131.345 44.155,140.169 43.940 C 144.654 43.831,156.568 43.763,166.643 43.790 L 184.962 43.837 185.498 43.238 C 186.169 42.487,186.174 42.011,185.520 41.357 L 185.007 40.844 177.839 40.720 C 170.177 40.588,132.586 40.593,131.896 40.726 M131.492 50.710 C 130.471 51.311,130.342 52.090,131.118 52.973 L 131.696 53.631 158.320 53.631 L 184.945 53.631 185.489 53.087 C 186.567 52.009,185.989 51.028,184.149 50.807 C 181.693 50.513,131.981 50.421,131.492 50.710 M138.036 73.072 C 138.795 73.831,138.974 82.086,138.263 83.508 C 137.453 85.124,135.363 85.425,128.399 84.925 C 120.617 84.366,120.306 84.728,121.610 92.831 C 122.360 97.488,122.172 99.335,120.893 99.844 C 119.496 100.401,103.586 100.326,103.043 99.760 C 102.924 99.636,102.732 98.613,102.617 97.486 C 102.502 96.359,102.326 94.977,102.226 94.413 C 102.067 93.520,101.591 88.875,101.109 83.520 C 101.026 82.598,100.898 80.357,100.823 78.540 L 100.688 75.237 101.508 74.881 C 102.741 74.346,106.565 73.780,110.428 73.562 C 112.323 73.455,114.418 73.315,115.084 73.251 C 119.199 72.856,137.676 72.712,138.036 73.072 M97.132 75.748 C 97.508 76.000,97.855 84.204,97.500 84.463 C 97.306 84.605,95.660 84.709,92.639 84.769 C 87.206 84.877,86.575 85.124,87.353 86.832 C 87.804 87.823,88.210 87.896,93.255 87.896 C 98.667 87.896,98.200 87.688,98.493 90.223 C 98.612 91.248,98.786 92.706,98.881 93.464 C 99.151 95.637,99.533 95.485,93.616 95.560 C 88.093 95.629,87.783 95.687,87.305 96.737 C 86.563 98.366,87.251 98.585,93.482 98.708 C 100.218 98.840,99.603 98.452,100.020 102.831 C 100.300 105.763,100.295 105.772,98.441 105.774 C 93.747 105.779,92.020 106.730,93.626 108.426 L 94.111 108.939 97.228 108.939 C 100.935 108.939,100.832 108.885,101.016 110.931 C 101.087 111.730,101.257 112.970,101.394 113.687 C 102.087 117.328,102.167 117.202,99.127 117.234 C 94.974 117.279,93.499 118.331,95.316 119.955 L 95.909 120.484 98.872 120.484 C 101.795 120.484,102.408 120.607,102.424 121.196 C 102.426 121.265,102.545 122.202,102.688 123.277 C 102.830 124.353,103.007 125.922,103.080 126.765 L 103.213 128.297 102.712 128.487 C 102.421 128.598,100.369 128.678,97.838 128.678 L 93.465 128.678 92.997 129.146 C 92.365 129.778,92.431 130.810,93.137 131.335 C 93.599 131.678,93.925 131.700,98.258 131.677 C 104.015 131.647,103.732 131.543,104.031 133.802 C 104.541 137.660,104.726 140.041,104.531 140.236 C 104.406 140.361,102.211 140.443,98.365 140.466 C 92.618 140.501,92.372 140.518,91.866 140.894 C 91.057 141.496,91.031 142.615,91.811 143.272 L 92.394 143.762 98.627 143.762 L 104.861 143.762 105.110 144.367 C 105.468 145.235,105.696 149.445,105.396 149.630 C 105.270 149.708,100.882 149.782,95.646 149.793 C 85.305 149.816,85.466 149.800,84.682 150.860 C 84.349 151.311,84.343 151.388,84.610 151.903 C 85.237 153.116,84.831 153.073,95.580 153.073 C 102.912 153.073,105.381 153.128,105.549 153.296 C 106.025 153.771,105.765 156.908,105.200 157.515 C 103.925 158.883,97.248 159.695,85.563 159.904 C 77.509 160.048,78.028 160.264,77.010 156.344 C 75.270 149.650,76.596 146.347,83.025 141.352 C 85.272 139.606,88.274 135.009,89.670 131.177 C 91.945 124.930,91.323 116.636,88.001 108.962 C 87.752 108.386,87.053 106.783,86.448 105.400 C 85.844 104.018,85.177 102.426,84.968 101.862 C 84.758 101.299,84.332 100.168,84.021 99.348 C 79.679 87.887,84.124 78.485,95.065 75.990 C 96.872 75.578,96.877 75.577,97.132 75.748 M80.931 163.227 C 87.190 163.244,92.406 163.318,92.524 163.391 C 92.831 163.581,92.822 170.232,92.514 170.540 C 92.191 170.863,67.958 170.863,67.635 170.540 C 67.312 170.217,67.321 163.482,67.644 163.150 C 67.810 162.980,68.118 162.952,68.715 163.053 C 69.176 163.131,74.673 163.209,80.931 163.227 " stroke="none" fill="#0b0b0c" fill-rule="evenodd"></path><path id="path2" d="M104.190 13.226 C 62.660 13.834,45.512 14.741,42.024 16.517 C 38.136 18.495,36.210 28.449,36.847 43.271 C 37.319 54.274,38.408 60.317,40.428 63.154 C 40.805 63.684,43.965 65.922,44.335 65.922 C 44.423 65.922,44.938 66.122,45.479 66.367 C 46.019 66.613,48.599 67.527,51.210 68.399 C 57.160 70.386,57.255 70.427,57.799 71.278 C 58.044 71.661,58.505 72.220,58.824 72.521 L 59.404 73.068 59.399 75.780 C 59.394 78.133,59.064 83.066,58.757 85.382 C 58.702 85.791,58.528 87.426,58.369 89.013 C 58.043 92.261,57.907 93.487,57.351 98.138 C 57.137 99.930,56.802 102.737,56.608 104.376 C 56.413 106.015,56.166 107.984,56.058 108.752 C 55.950 109.520,55.779 110.861,55.679 111.732 C 55.578 112.602,55.416 113.943,55.318 114.711 C 55.221 115.480,54.963 117.533,54.745 119.274 C 54.528 121.015,54.274 123.026,54.182 123.743 C 54.090 124.460,53.928 125.801,53.824 126.723 C 53.719 127.644,53.551 129.069,53.449 129.888 C 53.348 130.708,53.090 132.928,52.878 134.823 C 52.665 136.718,52.413 138.939,52.317 139.758 C 51.963 142.802,51.518 148.373,51.284 152.700 C 50.916 159.492,53.093 161.793,60.801 162.757 C 63.995 163.157,63.663 162.587,63.730 167.784 C 63.788 172.199,64.002 172.885,65.617 173.831 L 66.420 174.302 80.150 174.302 L 93.881 174.302 94.724 173.721 C 96.244 172.675,96.457 171.918,96.466 167.505 C 96.475 163.176,96.453 163.238,98.045 163.070 C 98.659 163.005,99.749 162.863,100.466 162.755 C 101.182 162.647,102.272 162.487,102.886 162.400 C 104.617 162.154,107.179 160.963,108.014 160.017 C 108.845 159.075,109.754 156.646,109.706 155.493 C 109.453 149.391,109.035 143.117,108.769 141.434 C 108.561 140.119,108.250 137.636,108.000 135.289 C 107.901 134.367,107.738 133.026,107.638 132.309 C 107.537 131.592,107.404 130.253,107.342 129.333 C 107.280 128.413,107.153 127.517,107.060 127.343 C 106.966 127.169,106.890 126.795,106.890 126.513 C 106.890 126.231,106.805 125.534,106.702 124.965 C 106.598 124.395,106.383 122.882,106.223 121.601 C 106.064 120.321,105.852 118.645,105.752 117.877 C 105.544 116.282,105.259 113.952,105.021 111.918 C 104.813 110.134,104.163 105.573,104.020 104.895 C 103.810 103.892,104.022 103.812,106.744 103.869 C 108.105 103.898,109.721 104.002,110.335 104.101 C 111.767 104.331,115.349 104.335,116.513 104.108 C 117.007 104.011,118.414 103.836,119.639 103.718 C 124.893 103.214,126.827 99.949,125.535 93.762 C 125.148 91.908,124.949 90.762,124.834 89.711 L 124.715 88.641 127.302 88.652 C 128.724 88.658,130.268 88.726,130.732 88.802 C 135.385 89.571,140.236 88.023,141.440 85.387 C 142.240 83.634,142.749 80.290,142.552 78.073 C 142.473 77.177,142.398 75.815,142.387 75.047 L 142.365 73.650 158.194 73.742 C 195.081 73.955,194.638 74.012,198.844 68.529 C 199.119 68.170,199.483 67.749,199.652 67.593 C 199.822 67.437,200.190 66.892,200.469 66.382 C 200.749 65.873,201.123 65.289,201.301 65.084 C 201.478 64.879,201.916 64.167,202.272 63.501 C 203.262 61.654,205.368 58.173,206.025 57.299 C 206.347 56.869,206.735 56.278,206.886 55.985 C 207.610 54.583,209.608 53.897,212.455 54.073 C 216.555 54.327,218.564 54.505,218.771 54.633 C 218.892 54.708,220.019 54.800,221.274 54.839 C 224.615 54.941,228.674 55.264,229.421 55.486 C 230.669 55.857,232.200 55.684,235.324 54.818 C 236.634 54.455,237.770 53.340,238.336 51.862 C 238.571 51.248,238.875 50.486,239.011 50.169 L 239.259 49.592 243.481 49.460 C 248.148 49.313,248.250 49.293,249.368 48.286 C 250.498 47.268,250.786 46.464,250.923 43.948 C 251.074 41.173,251.357 39.534,251.708 39.399 C 251.859 39.341,256.690 39.246,262.444 39.189 C 268.198 39.131,273.450 39.007,274.115 38.913 C 274.781 38.819,282.533 38.653,291.341 38.545 C 300.149 38.436,309.157 38.315,311.359 38.276 C 313.561 38.237,321.606 38.120,329.236 38.015 C 336.867 37.910,345.414 37.777,348.231 37.719 C 351.047 37.661,357.123 37.569,361.732 37.515 C 372.856 37.385,372.812 37.393,372.812 35.297 C 372.812 33.187,372.305 33.025,365.177 32.859 C 362.258 32.791,357.565 32.667,354.749 32.583 C 351.932 32.498,346.569 32.340,342.831 32.230 C 339.092 32.121,333.478 31.945,330.354 31.840 C 321.736 31.549,314.305 31.323,305.773 31.092 C 290.146 30.668,287.954 30.601,269.460 29.970 C 266.234 29.860,261.792 29.689,259.590 29.590 C 257.388 29.491,254.623 29.379,253.445 29.341 C 252.267 29.302,251.241 29.263,251.164 29.254 C 251.087 29.244,251.024 28.980,251.024 28.667 C 251.024 28.354,250.948 27.747,250.855 27.317 C 250.762 26.888,250.581 25.950,250.453 25.233 C 249.773 21.413,248.859 20.847,243.111 20.687 L 239.201 20.577 238.612 19.395 C 237.403 16.967,236.001 16.095,232.588 15.646 C 231.718 15.532,230.461 15.360,229.795 15.265 C 229.129 15.170,227.076 15.006,225.233 14.901 C 223.389 14.797,220.582 14.627,218.994 14.525 C 215.294 14.286,206.211 14.018,193.855 13.782 C 188.478 13.680,182.360 13.544,180.261 13.480 C 174.245 13.297,174.473 13.299,142.924 13.196 C 126.434 13.142,109.004 13.155,104.190 13.226 M176.443 13.884 C 217.624 14.726,230.677 15.355,234.953 16.703 C 236.264 17.116,237.523 18.294,238.206 19.745 C 238.910 21.243,238.734 21.189,243.110 21.259 C 249.063 21.355,249.835 22.089,250.405 28.202 C 250.545 29.700,250.947 30.106,252.099 29.913 C 252.481 29.849,254.427 29.879,256.425 29.980 C 262.024 30.263,268.851 30.515,279.236 30.823 C 284.460 30.977,291.290 31.184,294.413 31.281 C 297.537 31.379,304.702 31.582,310.335 31.734 C 315.968 31.886,322.756 32.099,325.419 32.209 C 330.496 32.417,337.565 32.622,351.397 32.962 C 355.954 33.074,360.921 33.245,362.434 33.342 C 363.947 33.440,366.461 33.520,368.021 33.520 C 371.823 33.520,372.913 34.112,372.263 35.823 C 371.886 36.813,371.857 36.815,360.708 36.955 C 355.023 37.027,349.995 37.155,349.534 37.241 C 349.074 37.327,343.972 37.406,338.198 37.417 C 332.424 37.428,327.647 37.468,327.583 37.506 C 327.520 37.543,321.601 37.634,314.432 37.707 C 300.733 37.846,290.341 38.017,275.047 38.355 C 269.977 38.467,262.536 38.619,258.513 38.693 C 252.766 38.798,251.164 38.880,251.045 39.073 C 250.798 39.472,250.493 41.653,250.363 43.947 C 250.236 46.198,250.046 46.811,249.187 47.735 C 248.288 48.704,248.011 48.761,243.651 48.884 C 238.494 49.029,238.833 48.947,238.447 50.139 C 237.565 52.858,236.539 54.012,234.601 54.469 C 233.955 54.621,233.069 54.830,232.632 54.933 C 231.631 55.170,230.570 55.172,229.248 54.938 C 227.851 54.692,222.873 54.304,221.601 54.343 C 221.038 54.361,219.823 54.248,218.901 54.094 C 217.980 53.939,216.890 53.830,216.480 53.850 C 216.071 53.871,214.856 53.779,213.780 53.646 C 209.986 53.178,207.587 53.832,206.500 55.631 C 206.267 56.016,205.882 56.569,205.644 56.860 C 205.191 57.412,201.829 62.999,201.632 63.524 C 201.291 64.439,198.932 67.661,197.239 69.526 C 194.613 72.418,192.669 72.966,184.544 73.102 C 181.830 73.147,178.848 73.277,177.918 73.390 C 176.682 73.541,175.778 73.541,174.566 73.391 C 171.711 73.037,142.180 72.939,141.895 73.282 C 141.732 73.479,141.700 74.013,141.783 75.140 C 141.847 76.011,141.951 77.421,142.014 78.274 C 142.366 83.023,140.849 86.650,138.071 87.703 C 136.815 88.179,132.469 88.485,130.451 88.239 C 128.406 87.990,124.623 88.086,124.368 88.394 C 124.111 88.703,124.348 90.806,124.973 93.749 C 125.905 98.140,125.022 101.342,122.533 102.596 C 121.195 103.269,115.602 103.832,111.963 103.658 C 103.993 103.278,104.018 103.278,103.738 103.615 C 103.442 103.972,103.699 107.470,104.205 109.963 C 104.350 110.680,104.471 111.601,104.474 112.011 C 104.476 112.421,104.564 113.127,104.668 113.581 C 104.773 114.034,104.887 114.830,104.923 115.350 C 104.958 115.869,105.202 117.928,105.465 119.926 C 105.728 121.923,106.035 124.269,106.147 125.140 C 106.259 126.010,106.442 127.013,106.554 127.368 C 106.666 127.723,106.779 128.561,106.806 129.230 C 106.833 129.899,106.950 131.159,107.067 132.030 C 107.183 132.900,107.357 134.367,107.453 135.289 C 107.651 137.181,107.948 139.548,108.212 141.341 C 108.561 143.715,109.099 151.175,109.114 153.855 C 109.148 159.977,106.911 161.746,98.170 162.508 C 95.934 162.703,96.013 162.530,95.903 167.441 C 95.798 172.153,95.725 172.431,94.375 173.325 L 93.603 173.836 80.088 173.836 C 62.884 173.836,64.415 174.463,64.224 167.333 C 64.161 164.969,64.098 163.017,64.084 162.995 C 63.943 162.767,63.014 162.527,61.381 162.298 C 51.807 160.954,50.758 158.934,52.334 144.879 C 52.432 144.008,52.638 142.081,52.792 140.596 C 53.188 136.780,53.970 129.774,54.184 128.119 C 54.284 127.351,54.453 125.968,54.561 125.047 C 54.668 124.125,54.839 122.784,54.939 122.067 C 55.040 121.350,55.374 118.669,55.682 116.108 C 55.990 113.547,56.407 110.196,56.610 108.659 C 56.812 107.123,57.061 105.154,57.163 104.283 C 57.265 103.412,57.514 101.318,57.718 99.628 C 57.922 97.938,58.174 95.759,58.279 94.786 C 58.384 93.813,58.556 92.346,58.661 91.527 C 58.766 90.708,58.980 88.738,59.137 87.151 C 60.756 70.756,60.821 70.956,52.980 68.414 C 46.099 66.183,43.996 65.302,41.877 63.759 C 40.083 62.453,38.763 58.767,38.178 53.437 C 38.061 52.366,37.888 50.987,37.794 50.372 C 36.868 44.345,37.313 28.817,38.563 23.517 C 40.091 17.033,41.390 16.269,52.421 15.363 C 69.242 13.980,139.943 13.137,176.443 13.884 M117.505 16.960 C 117.132 17.056,112.430 17.081,106.518 17.018 C 98.946 16.938,95.859 16.967,94.972 17.129 C 94.235 17.263,91.177 17.371,87.151 17.405 C 80.423 17.462,75.122 17.567,69.274 17.759 C 67.481 17.818,64.842 17.894,63.408 17.928 C 60.443 17.997,48.657 18.753,48.440 18.887 C 48.361 18.936,47.549 19.067,46.634 19.178 C 43.138 19.602,42.783 19.926,41.837 23.557 C 39.879 31.073,40.266 52.371,42.484 59.178 C 43.277 61.613,44.390 62.288,51.583 64.705 C 60.090 67.564,62.056 68.496,62.788 70.021 C 63.386 71.266,63.104 82.925,62.390 86.499 C 62.288 87.011,62.210 87.723,62.216 88.082 C 62.234 89.050,61.682 94.364,61.452 95.438 C 61.343 95.950,61.087 97.919,60.885 99.814 C 60.535 103.093,60.221 105.678,59.124 114.339 C 58.858 116.439,58.520 119.204,58.374 120.484 C 58.227 121.764,58.020 123.315,57.913 123.929 C 57.807 124.544,57.553 126.555,57.349 128.399 C 57.144 130.242,56.813 133.133,56.613 134.823 C 56.413 136.513,56.246 138.288,56.243 138.768 C 56.241 139.248,56.160 139.847,56.064 140.099 C 55.968 140.351,55.754 142.682,55.589 145.279 C 55.423 147.875,55.208 150.357,55.111 150.794 C 54.682 152.727,55.029 156.851,55.688 157.645 C 56.378 158.476,64.431 159.803,66.270 159.389 C 66.640 159.305,67.307 159.319,67.778 159.420 C 70.828 160.074,74.942 159.636,74.143 158.743 C 73.058 157.529,72.361 150.244,73.166 148.522 C 73.361 148.106,73.622 147.430,73.747 147.020 C 74.099 145.863,75.358 143.958,76.515 142.831 C 77.093 142.267,77.743 141.597,77.959 141.341 C 78.175 141.085,78.910 140.385,79.593 139.786 C 83.068 136.737,86.572 131.695,86.601 129.702 C 86.605 129.395,86.729 128.808,86.877 128.399 C 87.168 127.594,87.491 124.597,87.531 122.346 C 87.571 120.090,87.125 117.386,86.273 114.711 C 86.126 114.250,85.934 113.538,85.846 113.128 C 85.602 111.997,85.047 110.508,84.196 108.710 C 83.773 107.815,83.426 106.985,83.426 106.864 C 83.426 106.743,83.226 106.301,82.980 105.882 C 82.735 105.464,82.434 104.744,82.311 104.283 C 82.189 103.822,81.969 103.311,81.824 103.148 C 81.678 102.985,81.435 102.374,81.283 101.790 C 81.131 101.206,80.797 100.335,80.540 99.854 C 80.284 99.373,80.074 98.798,80.074 98.578 C 80.074 98.357,79.901 97.616,79.690 96.931 C 78.383 92.700,78.707 87.205,80.486 83.426 C 80.800 82.761,81.234 81.849,81.450 81.401 C 82.435 79.363,86.231 75.726,88.240 74.897 C 88.819 74.657,89.879 74.189,90.596 73.856 C 91.313 73.523,92.737 73.059,93.762 72.825 C 94.786 72.591,95.945 72.310,96.337 72.199 C 96.848 72.055,97.264 72.055,97.805 72.200 C 98.475 72.378,98.701 72.342,99.793 71.884 C 100.932 71.406,101.413 71.274,103.864 70.767 C 105.300 70.469,107.961 70.185,110.056 70.104 C 111.131 70.063,112.598 69.940,113.314 69.832 C 114.031 69.723,115.037 69.642,115.549 69.651 C 116.061 69.660,119.092 69.577,122.283 69.466 C 128.211 69.261,142.204 69.277,159.497 69.510 C 181.670 69.809,189.614 69.656,192.517 68.876 C 193.941 68.493,196.783 65.281,198.508 62.104 C 198.953 61.285,199.541 60.321,199.815 59.963 C 200.088 59.604,200.442 59.060,200.601 58.752 C 201.665 56.694,202.411 55.459,203.109 54.602 C 203.550 54.060,203.911 53.539,203.911 53.444 C 203.911 53.197,206.151 51.039,206.704 50.755 C 207.779 50.202,209.689 50.034,213.503 50.157 C 216.297 50.247,217.302 50.221,217.468 50.055 C 217.800 49.724,217.790 19.121,217.458 18.850 C 217.185 18.626,214.671 18.467,211.246 18.458 C 209.200 18.452,208.643 18.387,207.801 18.053 C 206.900 17.696,206.443 17.655,203.352 17.660 C 201.457 17.663,197.896 17.622,195.438 17.567 C 181.951 17.270,179.152 17.240,178.305 17.383 C 177.663 17.492,177.056 17.463,176.350 17.290 C 175.556 17.095,172.648 17.029,163.408 16.996 C 156.853 16.972,143.990 16.916,134.823 16.873 C 125.278 16.827,117.878 16.865,117.505 16.960 M225.326 18.751 C 225.787 18.795,226.243 18.909,226.341 19.006 C 226.438 19.102,226.895 19.181,227.356 19.181 C 229.001 19.181,227.853 18.739,226.119 18.705 C 225.222 18.687,224.865 18.708,225.326 18.751 M229.325 19.192 C 229.668 19.294,229.949 19.288,230.061 19.176 C 230.178 19.058,229.984 19.000,229.507 19.010 C 228.780 19.026,228.777 19.028,229.325 19.192 M231.985 19.499 C 232.217 19.543,232.552 19.541,232.730 19.495 C 232.908 19.448,232.719 19.412,232.309 19.414 C 231.899 19.416,231.754 19.454,231.985 19.499 M233.179 19.636 C 233.248 19.711,233.580 19.911,233.918 20.081 C 234.498 20.374,235.739 22.380,235.750 23.045 C 235.752 23.173,235.845 23.277,235.955 23.277 C 236.440 23.277,235.530 20.838,234.793 20.161 C 234.390 19.792,232.867 19.296,233.179 19.636 M236.155 24.488 C 236.147 25.000,236.260 25.628,236.406 25.885 L 236.672 26.350 236.661 25.885 C 236.655 25.628,236.542 25.000,236.410 24.488 L 236.171 23.557 236.155 24.488 M241.066 24.366 C 239.914 24.517,239.621 24.956,239.885 26.131 C 240.383 28.343,240.367 40.211,239.863 42.644 C 239.220 45.746,239.103 45.646,243.297 45.582 L 246.648 45.531 247.020 44.786 C 247.553 43.722,247.592 29.408,247.070 26.763 C 246.615 24.458,246.551 24.368,245.379 24.405 C 244.848 24.422,243.869 24.392,243.203 24.340 C 242.537 24.288,241.576 24.299,241.066 24.366 M246.114 25.167 C 246.323 25.334,246.576 26.769,246.929 29.790 C 247.328 33.203,247.048 43.328,246.517 44.739 L 246.324 45.251 243.495 45.251 C 239.991 45.251,240.014 45.264,240.247 43.482 C 240.836 38.979,240.923 28.483,240.395 25.581 C 240.312 25.123,240.472 24.969,241.108 24.897 C 242.168 24.776,245.875 24.976,246.114 25.167 M111.840 26.041 C 115.302 26.183,115.793 26.395,116.669 28.125 L 117.132 29.038 117.132 42.461 C 117.132 53.707,117.089 55.968,116.867 56.397 C 116.510 57.087,114.987 58.472,114.576 58.479 C 114.394 58.482,100.937 58.487,84.672 58.489 C 51.450 58.494,54.607 58.634,53.372 57.106 L 52.793 56.390 52.793 42.301 L 52.793 28.212 53.256 27.595 C 53.757 26.927,54.639 26.314,55.450 26.070 C 56.051 25.889,107.473 25.863,111.840 26.041 M236.502 27.607 C 236.500 27.991,236.583 28.305,236.685 28.305 C 236.922 28.305,236.922 27.555,236.685 27.188 C 236.551 26.980,236.504 27.088,236.502 27.607 M56.215 29.544 C 55.917 29.902,55.719 53.292,56.004 54.392 C 56.454 56.127,56.516 54.571,56.470 42.691 C 56.444 35.854,56.492 30.155,56.575 30.026 C 56.736 29.779,112.662 29.658,113.060 29.904 C 113.162 29.966,113.340 30.240,113.457 30.512 L 113.670 31.006 113.740 30.362 C 113.870 29.158,115.876 29.236,84.810 29.236 C 58.682 29.236,56.450 29.261,56.215 29.544 M185.187 31.209 C 186.157 32.180,186.171 33.177,185.222 33.799 C 184.455 34.301,131.968 34.243,131.291 33.739 C 130.286 32.991,130.378 31.706,131.477 31.151 C 132.262 30.754,184.788 30.811,185.187 31.209 M236.731 31.538 C 236.429 32.202,236.447 34.574,236.761 35.289 C 236.998 35.831,237.009 35.806,237.136 34.451 C 237.313 32.557,237.068 30.798,236.731 31.538 M303.724 34.916 C 303.852 35.070,304.176 35.195,304.446 35.194 L 304.935 35.193 304.401 34.915 C 303.716 34.558,303.427 34.558,303.724 34.916 M177.839 40.720 L 185.007 40.844 185.520 41.357 C 186.174 42.011,186.169 42.487,185.498 43.238 L 184.962 43.837 166.643 43.790 C 156.568 43.763,144.654 43.831,140.169 43.940 C 131.345 44.155,131.529 44.170,130.903 43.145 C 130.317 42.183,130.831 40.933,131.896 40.726 C 132.586 40.593,170.177 40.588,177.839 40.720 M236.357 42.788 C 236.228 43.062,236.197 43.348,236.287 43.438 C 236.377 43.528,236.501 43.335,236.568 42.999 C 236.720 42.236,236.651 42.167,236.357 42.788 M236.177 44.693 C 236.177 45.154,236.214 45.342,236.258 45.112 C 236.302 44.881,236.302 44.504,236.258 44.274 C 236.214 44.043,236.177 44.232,236.177 44.693 M235.754 46.865 C 235.754 47.899,235.844 47.872,236.010 46.788 C 236.085 46.298,236.059 45.996,235.943 45.996 C 235.839 45.996,235.754 46.387,235.754 46.865 M235.388 48.510 C 235.264 48.818,235.117 49.343,235.061 49.679 C 235.001 50.038,234.734 50.478,234.411 50.749 C 234.065 51.041,233.966 51.210,234.144 51.210 C 234.548 51.210,235.126 50.400,235.479 49.337 C 235.818 48.315,235.743 47.628,235.388 48.510 M221.238 50.186 C 221.229 50.750,222.191 51.212,223.369 51.209 L 223.929 51.208 223.396 50.930 C 223.102 50.777,222.583 50.652,222.241 50.652 C 221.846 50.652,221.551 50.533,221.430 50.326 C 221.326 50.147,221.239 50.084,221.238 50.186 M184.149 50.807 C 185.989 51.028,186.567 52.009,185.489 53.087 L 184.945 53.631 158.320 53.631 L 131.696 53.631 131.118 52.973 C 130.342 52.090,130.471 51.311,131.492 50.710 C 131.981 50.421,181.693 50.513,184.149 50.807 M224.488 51.210 C 225.320 51.422,226.257 51.422,226.257 51.210 C 226.257 51.104,225.760 51.034,225.093 51.046 C 224.167 51.064,224.043 51.097,224.488 51.210 M232.030 51.397 C 231.644 51.520,231.708 51.548,232.402 51.561 C 233.007 51.573,233.163 51.527,232.961 51.397 C 232.646 51.193,232.665 51.193,232.030 51.397 M229.099 51.530 C 229.382 51.573,229.801 51.572,230.030 51.528 C 230.260 51.484,230.028 51.449,229.516 51.450 C 229.004 51.451,228.816 51.487,229.099 51.530 M75.480 55.261 C 80.583 55.288,88.879 55.288,93.915 55.261 C 98.952 55.233,94.777 55.211,84.637 55.211 C 74.497 55.211,70.376 55.233,75.480 55.261 M121.229 73.011 C 118.515 73.079,115.750 73.187,115.084 73.251 C 114.418 73.315,112.323 73.455,110.428 73.562 C 106.565 73.780,102.741 74.346,101.508 74.881 L 100.688 75.237 100.823 78.540 C 100.898 80.357,101.026 82.598,101.109 83.520 C 101.591 88.875,102.067 93.520,102.226 94.413 C 102.326 94.977,102.502 96.359,102.617 97.486 C 102.732 98.613,102.924 99.636,103.043 99.760 C 103.586 100.326,119.496 100.401,120.893 99.844 C 122.172 99.335,122.360 97.488,121.610 92.831 C 120.306 84.728,120.617 84.366,128.399 84.925 C 135.363 85.425,137.453 85.124,138.263 83.508 C 138.974 82.086,138.795 73.831,138.036 73.072 C 137.751 72.787,131.139 72.763,121.229 73.011 M137.745 73.606 C 138.152 74.013,138.238 82.406,137.844 83.338 C 137.368 84.464,137.465 84.451,129.609 84.451 C 121.632 84.451,121.370 84.488,120.733 85.720 C 120.408 86.349,120.473 89.376,120.859 91.527 C 121.908 97.382,121.845 98.827,120.516 99.389 C 119.654 99.754,112.811 99.928,107.393 99.725 C 102.968 99.558,103.317 99.827,102.912 96.276 C 102.755 94.893,102.496 92.630,102.338 91.248 C 101.910 87.505,101.492 82.795,101.275 79.277 C 101.010 74.989,100.822 75.201,105.508 74.507 C 109.091 73.976,119.857 73.326,123.878 73.399 C 125.182 73.422,126.313 73.374,126.392 73.293 C 126.701 72.973,137.408 73.269,137.745 73.606 M95.624 75.889 L 94.693 76.128 95.635 76.146 C 96.585 76.164,97.080 76.396,97.264 76.909 C 97.319 77.062,97.370 76.883,97.378 76.510 C 97.388 76.053,97.297 75.794,97.098 75.718 C 96.757 75.587,96.829 75.579,95.624 75.889 M91.975 76.903 C 89.033 77.974,87.240 79.325,85.163 82.039 C 84.108 83.417,82.594 86.778,83.028 86.778 C 83.095 86.778,83.266 86.506,83.410 86.173 C 84.159 84.432,84.503 83.779,85.300 82.585 C 86.917 80.164,89.488 78.199,92.502 77.082 C 92.936 76.921,93.348 76.732,93.418 76.663 C 93.488 76.593,93.735 76.536,93.968 76.536 C 94.201 76.536,94.443 76.453,94.507 76.350 C 94.714 76.014,93.977 76.175,91.975 76.903 M97.573 83.054 L 97.486 84.078 92.822 84.171 C 88.803 84.252,88.089 84.309,87.663 84.589 C 86.515 85.342,86.905 88.095,88.157 88.076 C 88.525 88.071,88.520 88.046,88.056 87.637 C 87.050 86.751,86.900 85.961,87.612 85.293 C 88.062 84.870,88.177 84.858,92.639 84.769 C 97.952 84.663,97.812 84.708,97.724 83.142 L 97.661 82.030 97.573 83.054 M82.636 87.803 C 82.587 88.059,82.619 88.268,82.707 88.268 C 82.796 88.268,82.868 88.059,82.868 87.803 C 82.868 87.547,82.836 87.337,82.796 87.337 C 82.757 87.337,82.685 87.547,82.636 87.803 M94.879 88.115 C 95.289 88.212,96.085 88.357,96.648 88.437 C 97.211 88.517,97.819 88.646,97.998 88.725 C 98.221 88.822,98.324 88.784,98.324 88.605 C 98.324 88.025,97.886 87.896,96.006 87.917 C 94.400 87.936,94.240 87.964,94.879 88.115 M98.156 89.980 C 98.197 90.923,98.472 91.399,98.492 90.560 C 98.502 90.131,98.426 89.728,98.324 89.665 C 98.219 89.600,98.146 89.737,98.156 89.980 M98.400 92.272 C 98.461 92.784,98.507 93.635,98.501 94.164 C 98.491 95.105,98.741 95.610,98.949 95.069 C 99.106 94.658,98.736 91.770,98.497 91.541 C 98.343 91.394,98.318 91.587,98.400 92.272 M82.696 94.569 C 82.669 95.024,83.450 97.840,84.021 99.348 C 84.332 100.168,84.758 101.299,84.968 101.862 C 85.177 102.426,85.844 104.018,86.448 105.400 C 87.053 106.783,87.751 108.385,88.000 108.961 C 88.847 110.916,90.088 114.855,90.408 116.602 C 90.583 117.559,90.795 118.552,90.879 118.808 L 91.032 119.274 91.047 118.771 C 91.062 118.261,90.816 116.831,90.508 115.642 C 90.416 115.284,90.245 114.572,90.129 114.060 C 89.684 112.095,89.509 111.446,89.378 111.266 C 89.303 111.164,88.970 110.284,88.638 109.311 C 88.306 108.338,87.842 107.165,87.607 106.704 C 87.371 106.243,86.957 105.321,86.687 104.655 C 86.417 103.990,86.045 103.110,85.861 102.700 C 85.676 102.291,85.413 101.641,85.276 101.257 C 85.140 100.873,84.970 100.559,84.901 100.559 C 84.831 100.559,84.731 100.370,84.680 100.140 C 84.628 99.909,84.316 99.008,83.985 98.138 C 83.655 97.267,83.345 96.345,83.298 96.089 C 83.251 95.833,83.141 95.456,83.054 95.251 C 82.966 95.047,82.854 94.753,82.803 94.600 C 82.739 94.404,82.707 94.395,82.696 94.569 M87.560 95.670 C 87.193 95.988,86.825 96.834,87.054 96.834 C 87.117 96.834,87.361 96.611,87.596 96.337 C 87.937 95.941,88.301 95.795,89.403 95.613 L 90.782 95.385 89.360 95.365 C 88.252 95.349,87.854 95.417,87.560 95.670 M87.151 98.134 C 87.151 99.032,87.792 99.154,93.194 99.279 C 99.753 99.432,99.308 99.146,99.749 103.492 C 99.804 104.029,99.932 104.469,100.035 104.469 C 100.148 104.469,100.179 104.122,100.115 103.585 C 100.056 103.098,99.957 102.197,99.894 101.583 C 99.595 98.645,99.981 98.823,93.762 98.748 C 88.231 98.682,88.050 98.664,87.519 98.133 C 87.152 97.767,87.151 97.767,87.151 98.134 M93.371 105.729 C 92.696 106.180,92.489 108.109,93.063 108.602 C 93.842 109.271,94.398 109.131,93.647 108.455 C 92.360 107.298,93.125 106.182,95.334 105.992 C 96.522 105.889,96.535 105.883,95.810 105.747 C 94.838 105.566,93.629 105.557,93.371 105.729 M99.628 109.093 C 99.628 109.178,99.837 109.360,100.093 109.497 C 100.349 109.634,100.559 109.821,100.559 109.912 C 100.559 110.003,100.642 110.026,100.745 109.963 C 101.010 109.799,100.976 109.569,100.638 109.231 C 100.331 108.924,99.628 108.828,99.628 109.093 M101.227 114.084 C 101.159 114.260,101.159 114.766,101.225 115.210 C 101.378 116.230,100.974 116.940,100.228 116.959 C 99.548 116.977,100.211 117.286,100.971 117.305 C 101.714 117.325,101.866 116.879,101.664 115.277 C 101.477 113.780,101.412 113.603,101.227 114.084 M95.218 117.060 C 94.008 117.657,93.805 119.705,94.887 120.413 C 95.679 120.933,96.016 120.579,95.320 119.958 C 94.131 118.896,94.675 117.640,96.423 117.410 C 98.319 117.160,98.518 117.083,97.672 116.922 C 96.524 116.705,95.864 116.742,95.218 117.060 M90.885 120.205 C 90.880 120.843,91.139 121.369,91.317 121.082 C 91.380 120.979,91.310 120.614,91.161 120.271 L 90.890 119.646 90.885 120.205 M100.372 120.638 C 100.372 120.722,100.686 120.869,101.070 120.963 C 102.013 121.197,102.412 122.049,102.440 123.887 C 102.451 124.649,102.572 125.452,102.713 125.707 C 103.055 126.325,103.054 125.997,102.702 123.371 C 102.551 122.244,102.426 121.265,102.424 121.196 C 102.409 120.673,100.372 120.119,100.372 120.638 M91.009 124.457 C 90.936 124.644,90.881 124.979,90.887 125.201 C 90.898 125.585,90.908 125.582,91.080 125.151 C 91.180 124.902,91.235 124.566,91.203 124.406 C 91.154 124.167,91.120 124.176,91.009 124.457 M90.805 126.783 C 90.722 127.021,90.705 127.266,90.765 127.326 C 90.958 127.519,91.094 127.235,91.023 126.785 L 90.955 126.350 90.805 126.783 M102.793 126.980 C 102.793 127.287,102.877 127.590,102.980 127.654 C 103.088 127.721,103.166 127.535,103.166 127.210 C 103.166 126.903,103.082 126.600,102.980 126.536 C 102.871 126.469,102.793 126.655,102.793 126.980 M92.805 128.709 C 91.565 129.310,92.061 131.850,93.417 131.842 C 93.685 131.840,93.627 131.734,93.156 131.362 C 92.440 130.798,92.338 129.914,92.907 129.211 C 93.253 128.783,93.361 128.768,96.864 128.670 L 100.466 128.569 96.834 128.543 C 94.658 128.527,93.044 128.594,92.805 128.709 M89.775 130.878 C 88.420 134.767,85.332 139.559,83.025 141.352 C 79.632 143.988,77.371 146.640,76.720 148.749 C 76.128 150.667,76.397 150.648,77.068 148.725 C 77.557 147.326,78.406 146.346,83.006 141.877 C 84.703 140.228,86.154 138.635,86.717 137.803 C 87.842 136.139,88.755 134.522,89.189 133.426 C 89.433 132.812,89.693 132.225,89.768 132.123 C 89.947 131.875,90.577 129.248,90.479 129.151 C 90.438 129.109,90.121 129.887,89.775 130.878 M100.931 131.834 L 100.093 131.974 101.248 132.002 C 102.559 132.034,103.295 132.301,103.454 132.803 C 103.610 133.294,103.911 133.229,103.911 132.704 C 103.911 131.850,102.794 131.524,100.931 131.834 M103.878 133.985 C 103.814 134.088,103.843 134.758,103.942 135.475 C 104.041 136.192,104.166 137.302,104.219 137.942 C 104.272 138.582,104.398 139.106,104.499 139.106 C 104.689 139.106,104.617 138.088,104.257 135.661 C 104.150 134.944,104.048 134.232,104.029 134.078 C 104.010 133.923,103.943 133.882,103.878 133.985 M91.047 140.954 C 90.238 141.764,90.448 143.234,91.450 143.770 C 92.187 144.164,92.453 143.812,91.821 143.280 C 91.056 142.637,91.027 141.685,91.748 140.932 C 92.460 140.188,91.792 140.209,91.047 140.954 M100.652 143.882 C 100.959 143.917,101.958 144.048,102.871 144.174 L 104.531 144.402 104.808 145.106 C 104.960 145.493,105.156 145.810,105.242 145.810 C 105.485 145.810,105.430 145.125,105.131 144.407 L 104.861 143.762 102.477 143.790 C 101.166 143.805,100.345 143.846,100.652 143.882 M105.102 147.190 C 105.029 147.380,105.066 147.691,105.185 147.881 C 105.586 148.523,105.453 149.143,104.888 149.272 C 104.607 149.336,103.999 149.499,103.538 149.635 L 102.700 149.881 103.920 149.894 C 105.413 149.910,105.587 149.756,105.584 148.426 C 105.581 147.260,105.326 146.606,105.102 147.190 M85.289 149.670 C 83.602 149.977,83.785 153.273,85.487 153.254 C 85.936 153.249,85.934 153.244,85.354 152.742 C 83.865 151.454,84.521 149.947,86.592 149.897 C 87.127 149.884,87.177 149.852,86.872 149.721 C 86.472 149.549,86.031 149.535,85.289 149.670 M76.265 151.361 C 76.202 151.649,76.231 152.089,76.331 152.339 C 76.485 152.724,76.515 152.643,76.525 151.816 C 76.538 150.733,76.440 150.563,76.265 151.361 M76.350 153.341 C 76.350 153.591,76.419 153.838,76.503 153.890 C 76.587 153.942,76.619 153.737,76.575 153.435 C 76.477 152.770,76.350 152.716,76.350 153.341 M99.255 153.286 C 100.023 153.373,101.657 153.514,102.886 153.598 C 104.115 153.682,105.268 153.817,105.447 153.897 C 105.672 153.998,105.773 153.963,105.773 153.782 C 105.773 153.136,105.384 153.072,101.592 153.100 C 98.467 153.123,98.086 153.153,99.255 153.286 M76.751 155.354 C 77.098 156.920,77.656 158.578,78.052 159.218 C 78.721 160.298,78.656 159.521,77.932 157.780 C 76.911 155.324,76.909 155.317,76.909 154.926 C 76.909 154.726,76.834 154.562,76.742 154.562 C 76.646 154.562,76.650 154.895,76.751 155.354 M105.396 156.274 C 105.386 157.340,103.497 158.269,100.652 158.609 C 99.802 158.710,99.300 159.035,100.009 159.025 C 101.942 158.998,105.020 158.003,105.360 157.297 C 105.662 156.670,105.756 156.063,105.569 155.948 C 105.476 155.891,105.399 156.037,105.396 156.274 M97.953 159.012 C 97.292 159.196,97.724 159.369,98.577 159.262 C 99.074 159.200,99.218 159.123,99.043 159.012 C 98.756 158.830,98.607 158.830,97.953 159.012 M92.489 159.602 C 92.623 159.737,92.888 159.742,93.317 159.619 L 93.948 159.438 93.119 159.421 C 92.534 159.409,92.349 159.462,92.489 159.602 M87.058 159.777 C 86.784 159.894,86.932 159.937,87.616 159.937 C 88.300 159.937,88.449 159.894,88.175 159.777 C 87.970 159.689,87.719 159.616,87.616 159.616 C 87.514 159.616,87.263 159.689,87.058 159.777 M67.644 163.150 C 67.321 163.482,67.312 170.217,67.635 170.540 C 67.958 170.863,92.191 170.863,92.514 170.540 C 92.822 170.232,92.831 163.581,92.524 163.391 C 92.406 163.318,87.190 163.244,80.931 163.227 C 74.673 163.209,69.176 163.131,68.715 163.053 C 68.118 162.952,67.810 162.980,67.644 163.150 M79.981 163.798 C 85.746 163.877,88.126 163.846,89.033 163.678 C 89.857 163.526,90.565 163.506,91.175 163.617 L 92.086 163.784 92.086 167.041 L 92.086 170.298 80.178 170.346 C 73.629 170.372,68.208 170.330,68.131 170.253 C 68.055 170.175,67.933 168.752,67.861 167.091 C 67.695 163.262,67.575 163.443,70.191 163.585 C 71.274 163.643,75.680 163.739,79.981 163.798 " stroke="none" fill="#a2a2a2" fill-rule="evenodd"></path><path id="path3" d="M221.746 18.669 C 221.416 18.925,221.150 49.920,221.473 50.419 C 221.556 50.547,221.937 50.652,222.320 50.652 C 222.703 50.652,223.112 50.747,223.229 50.864 C 223.357 50.992,223.983 51.063,224.787 51.043 C 225.527 51.024,226.183 51.091,226.244 51.190 C 226.307 51.291,227.542 51.383,229.053 51.398 C 232.933 51.437,234.152 51.408,234.025 51.281 C 233.963 51.219,234.148 50.971,234.437 50.728 C 234.769 50.448,235.003 50.031,235.076 49.585 C 235.140 49.199,235.319 48.643,235.473 48.349 C 235.628 48.056,235.754 47.406,235.754 46.906 C 235.754 46.406,235.838 45.996,235.940 45.996 C 236.043 45.996,236.127 45.530,236.127 44.961 C 236.127 44.318,236.197 43.970,236.313 44.041 C 236.557 44.192,236.554 43.705,236.310 43.461 C 236.182 43.333,236.221 43.071,236.430 42.651 C 236.742 42.028,236.764 41.242,236.688 33.426 C 236.679 32.505,236.723 30.975,236.785 30.028 C 236.869 28.742,236.841 28.305,236.673 28.305 C 236.511 28.305,236.479 28.036,236.560 27.353 C 236.639 26.690,236.590 26.240,236.400 25.872 C 236.250 25.582,236.127 24.879,236.127 24.311 C 236.127 23.743,236.043 23.277,235.940 23.277 C 235.838 23.277,235.752 23.173,235.750 23.045 C 235.725 21.574,233.790 19.599,232.345 19.568 C 231.913 19.559,231.681 19.479,231.753 19.363 C 231.867 19.178,230.630 19.121,227.779 19.178 C 227.130 19.191,226.494 19.114,226.364 19.006 C 226.234 18.898,225.444 18.788,224.609 18.762 C 223.774 18.736,223.091 18.652,223.091 18.575 C 223.091 18.346,222.069 18.417,221.746 18.669 M94.507 76.350 C 94.443 76.453,94.201 76.536,93.968 76.536 C 93.735 76.536,93.488 76.593,93.418 76.663 C 93.348 76.732,92.936 76.921,92.502 77.082 C 89.488 78.199,86.917 80.164,85.300 82.585 C 84.503 83.779,84.159 84.432,83.410 86.173 C 83.266 86.506,83.086 86.778,83.009 86.778 C 82.931 86.778,82.868 87.114,82.868 87.523 C 82.868 87.933,82.784 88.268,82.682 88.268 C 82.566 88.268,82.495 89.296,82.495 90.979 C 82.495 92.619,82.564 93.648,82.670 93.583 C 82.768 93.522,82.840 93.803,82.834 94.224 C 82.829 94.637,82.907 95.078,83.009 95.206 C 83.110 95.333,83.235 95.689,83.286 95.996 C 83.337 96.304,83.651 97.267,83.983 98.138 C 84.315 99.008,84.628 99.909,84.680 100.140 C 84.731 100.370,84.831 100.559,84.901 100.559 C 84.970 100.559,85.140 100.873,85.276 101.257 C 85.413 101.641,85.676 102.291,85.861 102.700 C 86.045 103.110,86.417 103.990,86.687 104.655 C 86.957 105.321,87.371 106.243,87.607 106.704 C 87.842 107.165,88.306 108.338,88.638 109.311 C 88.970 110.284,89.303 111.164,89.378 111.266 C 89.520 111.461,89.775 112.420,90.144 114.153 C 90.264 114.716,90.430 115.386,90.512 115.642 C 90.819 116.603,91.099 118.635,90.986 119.084 C 90.920 119.347,90.993 119.846,91.153 120.229 C 91.358 120.721,91.381 120.975,91.236 121.150 C 91.057 121.365,91.029 122.151,91.047 126.397 C 91.049 126.934,90.981 127.374,90.896 127.374 C 90.811 127.374,90.695 127.821,90.639 128.366 C 90.526 129.459,89.975 131.830,89.766 132.123 C 89.692 132.225,89.433 132.812,89.189 133.426 C 88.755 134.522,87.842 136.139,86.717 137.803 C 86.154 138.635,84.703 140.228,83.006 141.877 C 78.491 146.264,77.629 147.248,77.113 148.603 C 76.977 148.962,76.764 149.507,76.641 149.814 C 76.512 150.135,76.443 150.965,76.478 151.769 C 76.511 152.537,76.548 153.480,76.560 153.864 C 76.571 154.248,76.654 154.562,76.744 154.562 C 76.835 154.562,76.909 154.710,76.909 154.891 C 76.909 155.222,77.154 155.913,78.183 158.473 L 78.744 159.870 82.901 159.848 C 85.187 159.837,88.302 159.821,89.823 159.814 C 91.954 159.804,92.556 159.749,92.447 159.573 C 92.339 159.398,92.577 159.373,93.475 159.467 C 94.791 159.605,97.799 159.423,97.670 159.214 C 97.554 159.027,98.622 158.828,98.986 158.968 C 99.148 159.030,99.463 158.991,99.687 158.882 C 99.910 158.772,100.386 158.645,100.745 158.599 C 103.555 158.241,105.386 157.326,105.396 156.274 C 105.399 156.035,105.483 155.895,105.587 155.959 C 105.702 156.030,105.773 155.689,105.773 155.062 C 105.773 153.792,105.578 153.696,102.700 153.557 C 101.574 153.503,99.898 153.371,98.976 153.265 C 98.054 153.159,94.513 153.084,91.107 153.100 C 83.879 153.132,84.171 153.204,84.171 151.397 C 84.171 150.056,84.504 149.702,85.782 149.686 C 86.279 149.680,90.435 149.681,95.018 149.688 C 99.601 149.696,103.581 149.629,103.863 149.540 C 104.145 149.452,104.607 149.329,104.888 149.267 C 105.462 149.142,105.585 148.522,105.169 147.856 C 104.985 147.562,104.985 147.411,105.169 147.116 C 105.432 146.696,105.481 145.810,105.242 145.810 C 105.156 145.810,104.961 145.496,104.810 145.112 C 104.368 143.988,103.258 143.876,91.385 143.763 C 90.562 143.755,90.314 141.687,91.047 140.954 C 91.529 140.473,92.350 140.168,92.108 140.560 C 92.056 140.643,92.533 140.644,93.167 140.561 C 93.801 140.478,96.547 140.425,99.268 140.442 C 101.989 140.459,104.315 140.412,104.436 140.337 C 104.702 140.173,104.731 139.106,104.469 139.106 C 104.367 139.106,104.283 138.640,104.283 138.070 C 104.283 137.500,104.196 136.871,104.090 136.673 C 103.984 136.474,103.887 135.600,103.874 134.730 C 103.861 133.859,103.786 133.147,103.707 133.147 C 103.628 133.147,103.514 132.992,103.454 132.803 C 103.295 132.301,102.559 132.034,101.248 132.002 L 100.093 131.974 100.931 131.836 C 101.399 131.758,99.807 131.707,97.324 131.718 L 92.879 131.739 92.437 131.186 C 91.950 130.577,91.883 130.053,92.203 129.351 C 92.581 128.521,93.115 128.446,98.122 128.518 C 103.194 128.591,103.457 128.545,102.989 127.671 C 102.855 127.420,102.790 126.980,102.845 126.693 C 102.899 126.406,102.837 125.960,102.705 125.702 C 102.573 125.444,102.454 124.621,102.440 123.872 C 102.405 122.039,102.008 121.195,101.070 120.963 C 100.686 120.869,100.372 120.716,100.372 120.624 C 100.372 120.531,99.184 120.478,97.686 120.505 C 94.705 120.558,94.540 120.506,94.240 119.420 C 93.730 117.572,95.070 116.571,97.579 116.926 C 100.581 117.351,101.195 117.029,101.240 115.008 C 101.271 113.624,100.935 109.804,100.795 109.944 C 100.718 110.021,100.269 109.699,99.707 109.165 C 99.520 108.988,98.671 108.931,96.455 108.948 C 93.843 108.968,93.408 108.929,93.096 108.647 C 92.494 108.102,92.673 106.186,93.368 105.735 C 93.479 105.662,94.926 105.654,96.584 105.717 C 99.184 105.814,99.637 105.790,99.892 105.535 C 100.208 105.219,100.296 104.469,100.017 104.469 C 99.924 104.469,99.804 104.029,99.749 103.492 C 99.308 99.146,99.753 99.432,93.194 99.279 C 87.279 99.142,87.171 99.112,87.121 97.621 C 87.042 95.251,86.749 95.353,93.251 95.481 L 98.603 95.586 98.538 94.302 C 98.502 93.595,98.433 92.556,98.384 91.993 C 98.336 91.429,98.289 90.494,98.280 89.914 C 98.262 88.707,97.976 88.454,96.627 88.454 C 96.215 88.454,95.696 88.354,95.472 88.232 C 95.021 87.986,88.244 87.708,88.390 87.942 C 88.437 88.019,88.317 88.082,88.122 88.082 C 86.899 88.082,86.537 85.328,87.663 84.589 C 88.089 84.309,88.803 84.252,92.822 84.171 L 97.486 84.078 97.538 81.425 C 97.566 79.965,97.524 78.771,97.445 78.770 C 97.365 78.770,97.300 78.302,97.300 77.731 C 97.300 76.918,97.221 76.635,96.938 76.428 C 96.525 76.126,94.682 76.067,94.507 76.350 " stroke="none" fill="#0f98d6" fill-rule="evenodd"></path><path id="path4" d="M112.397 32.914 C 107.916 42.090,101.546 46.689,89.665 49.327 C 82.966 50.814,68.848 51.336,61.266 50.377 C 56.241 49.742,56.845 49.399,56.756 52.933 L 56.701 55.121 58.751 55.133 C 79.104 55.250,113.273 55.124,113.505 54.931 C 113.818 54.671,113.931 31.027,113.620 30.835 C 113.532 30.781,112.981 31.716,112.397 32.914 " stroke="none" fill="#e94d7c" fill-rule="evenodd"></path><path id="path5" d="M71.612 29.750 C 59.985 29.787,56.692 29.848,56.577 30.029 C 56.353 30.382,56.386 54.330,56.611 54.469 C 56.731 54.543,56.798 53.834,56.800 52.478 C 56.803 49.876,56.837 49.812,58.129 49.979 C 58.677 50.050,60.130 50.235,61.359 50.390 C 64.491 50.785,76.031 50.956,79.852 50.664 C 93.306 49.636,102.373 46.150,107.892 39.884 C 110.734 36.656,113.940 30.655,113.165 30.012 C 112.887 29.781,95.656 29.673,71.612 29.750 M67.976 163.774 C 67.709 164.095,67.851 169.969,68.131 170.253 C 68.208 170.330,73.629 170.372,80.178 170.346 L 92.086 170.298 92.086 167.041 L 92.086 163.784 91.175 163.617 C 90.565 163.506,89.857 163.526,89.033 163.678 C 87.807 163.905,74.927 163.841,70.191 163.585 C 68.531 163.495,68.182 163.525,67.976 163.774 " stroke="none" fill="#f28cac" fill-rule="evenodd"></path><path id="path6" d="M242.960 25.090 C 241.957 25.194,241.954 25.374,242.910 28.248 C 244.785 33.880,245.434 39.104,244.809 43.529 L 244.565 45.251 245.454 45.251 C 246.584 45.251,246.528 45.388,246.865 41.806 C 247.037 39.975,247.039 30.881,246.867 29.423 C 246.788 28.757,246.699 28.003,246.669 27.747 C 246.638 27.491,246.600 27.057,246.584 26.782 C 246.568 26.501,246.281 25.993,245.928 25.618 C 245.266 24.917,245.029 24.875,242.960 25.090 M126.392 73.296 C 126.313 73.376,125.182 73.422,123.878 73.399 C 119.857 73.326,109.091 73.976,105.508 74.507 C 100.822 75.201,101.010 74.989,101.275 79.277 C 101.492 82.795,101.910 87.505,102.338 91.248 C 103.374 100.302,103.156 99.628,105.046 99.628 C 106.659 99.628,106.699 99.519,106.238 96.391 C 104.917 87.423,106.499 81.877,111.265 78.772 C 114.346 76.765,116.179 76.535,127.840 76.692 C 134.783 76.786,137.989 76.207,137.989 74.858 C 137.989 73.426,137.452 73.288,131.564 73.214 C 128.799 73.180,126.471 73.217,126.392 73.296 " stroke="none" fill="#fadc50" fill-rule="evenodd"></path><path id="path7" d="M241.108 24.903 C 240.472 24.969,240.312 25.122,240.395 25.581 C 240.923 28.483,240.836 38.979,240.247 43.482 C 240.019 45.224,240.095 45.279,242.638 45.211 L 244.594 45.158 244.813 43.575 C 245.430 39.122,244.776 33.854,242.910 28.248 C 241.959 25.389,241.960 25.140,242.918 25.140 C 243.279 25.140,243.575 25.056,243.575 24.953 C 243.575 24.773,242.548 24.752,241.108 24.903 M245.775 25.466 C 246.104 25.802,246.297 25.895,246.338 25.736 C 246.425 25.396,246.015 24.953,245.613 24.953 C 245.326 24.953,245.351 25.031,245.775 25.466 M137.329 73.736 C 137.937 74.137,138.173 74.096,137.806 73.654 C 137.677 73.498,137.392 73.371,137.175 73.372 C 136.823 73.373,136.840 73.414,137.329 73.736 M136.965 75.907 C 134.914 76.664,130.187 76.917,123.277 76.639 C 109.734 76.095,104.350 81.791,106.075 94.838 C 106.267 96.294,106.425 97.965,106.425 98.549 L 106.425 99.613 107.412 99.736 C 109.420 99.987,119.770 99.718,120.516 99.396 C 121.845 98.821,121.908 97.382,120.859 91.527 C 120.473 89.376,120.408 86.349,120.733 85.720 C 121.370 84.488,121.632 84.451,129.609 84.451 C 137.365 84.451,137.327 84.455,137.820 83.436 C 138.080 82.900,138.294 77.320,138.095 76.262 C 137.957 75.523,137.982 75.531,136.965 75.907 " stroke="none" fill="#fbeb94" fill-rule="evenodd"></path></g></svg>