<svg id="svg" version="1.1" xmlns="http://www.w3.org/2000/svg" xmlns:xlink="http://www.w3.org/1999/xlink"  width="200" height="200" viewBox="100,100, 1000,1000" transform="scale(1 1)"><g id="svgg" ><path id="path0" d="M169.067 69.457 C 165.849 71.213,164.978 71.914,163.458 73.966 C 161.225 76.979,161.338 76.701,154.724 95.524 C 153.144 100.021,151.719 103.913,151.558 104.174 C 151.397 104.434,150.427 106.996,149.403 109.866 C 144.149 124.586,142.975 127.818,142.555 128.710 C 142.033 129.822,138.319 140.347,131.137 161.071 C 128.400 168.966,125.140 178.163,123.891 181.509 C 120.719 190.004,117.727 198.223,113.883 209.002 C 108.164 225.036,105.717 231.828,105.113 233.333 C 104.792 234.136,103.547 237.530,102.347 240.876 C 101.147 244.221,99.215 249.586,98.053 252.798 C 96.891 256.010,94.704 262.141,93.193 266.423 C 91.681 270.706,89.603 276.399,88.574 279.075 C 83.939 291.130,83.473 295.591,83.906 323.844 C 84.078 335.085,84.219 346.034,84.218 348.175 C 84.217 350.316,84.093 494.732,83.942 669.100 C 83.659 994.512,83.890 1063.997,85.266 1068.199 C 86.117 1070.799,87.752 1073.172,91.109 1076.679 L 93.473 1079.149 93.925 1084.222 C 94.337 1088.835,95.071 1093.267,96.298 1098.540 C 101.023 1118.853,123.704 1137.855,151.799 1145.037 L 159.316 1146.959 179.007 1146.959 C 195.836 1146.959,199.093 1146.843,201.417 1146.160 C 213.501 1142.610,220.143 1140.092,223.478 1137.798 C 224.619 1137.012,226.647 1135.866,227.983 1135.251 C 233.347 1132.783,237.352 1129.483,245.369 1120.925 C 251.057 1114.853,257.908 1103.649,257.908 1100.419 C 257.908 1099.822,258.157 1098.717,258.461 1097.964 C 259.527 1095.323,259.959 1092.151,260.270 1084.660 C 260.600 1076.727,261.032 1075.339,264.514 1071.046 C 264.840 1070.645,265.457 1068.930,265.887 1067.236 C 266.867 1063.363,267.111 296.348,266.133 292.099 C 264.547 285.212,264.016 283.300,263.256 281.752 C 262.797 280.815,261.604 277.640,260.605 274.696 C 259.607 271.752,258.284 268.139,257.667 266.667 C 257.049 265.195,255.733 261.472,254.742 258.394 C 253.751 255.316,252.433 251.594,251.815 250.122 C 250.449 246.874,247.472 238.788,244.737 230.900 C 243.623 227.689,242.550 224.842,242.351 224.574 C 242.153 224.307,240.839 220.584,239.432 216.302 C 238.024 212.019,236.588 207.962,236.240 207.284 C 235.893 206.607,234.810 203.651,233.833 200.715 C 232.857 197.779,231.386 193.954,230.564 192.214 C 229.743 190.474,228.209 186.437,227.156 183.242 C 226.103 180.048,225.000 176.984,224.706 176.434 C 224.067 175.240,220.670 165.622,217.389 155.718 C 215.954 151.384,211.548 139.058,210.692 136.983 C 209.999 135.300,206.766 126.297,203.442 116.788 C 202.179 113.175,200.897 109.758,200.593 109.195 C 200.290 108.632,198.847 104.690,197.386 100.436 C 189.300 76.883,188.934 76.014,185.773 72.840 C 181.190 68.239,173.974 66.778,169.067 69.457 M177.467 86.256 C 177.990 87.063,179.955 92.304,183.715 102.920 C 187.563 113.784,191.419 124.474,194.246 132.117 C 195.434 135.328,196.898 139.380,197.499 141.119 C 198.100 142.859,199.347 146.408,200.269 149.005 C 201.947 153.730,202.442 157.787,201.417 158.420 C 201.041 158.653,157.323 158.846,149.016 158.652 C 147.772 158.623,147.288 156.460,148.152 154.789 C 148.989 153.170,151.547 145.888,153.040 140.876 C 153.518 139.270,154.329 137.118,154.843 136.092 C 155.357 135.067,156.552 131.805,157.499 128.844 C 158.446 125.882,159.601 122.779,160.067 121.948 C 160.533 121.118,161.042 119.891,161.199 119.221 C 161.604 117.491,164.402 109.553,165.225 107.800 C 165.605 106.989,166.990 103.041,168.302 99.027 C 169.614 95.012,171.136 90.742,171.685 89.538 C 172.234 88.333,172.803 86.959,172.949 86.485 C 173.494 84.712,176.373 84.566,177.467 86.256 M148.662 173.641 C 151.881 174.071,204.748 173.519,206.372 173.039 C 208.607 172.377,209.974 174.196,212.372 181.022 C 213.547 184.367,215.952 191.232,217.717 196.277 C 219.482 201.321,221.055 205.657,221.212 205.911 C 221.370 206.166,222.561 209.375,223.860 213.041 C 225.159 216.708,227.415 222.993,228.873 227.007 C 230.331 231.022,232.634 237.372,233.991 241.119 C 239.948 257.564,241.859 262.823,243.503 267.295 C 245.523 272.787,245.802 276.073,244.314 276.869 C 242.197 278.002,106.229 277.519,105.085 276.374 C 104.012 275.302,104.081 274.615,105.571 271.533 C 106.024 270.596,106.673 268.844,107.013 267.640 C 107.353 266.436,108.076 264.465,108.619 263.260 C 109.162 262.056,110.458 258.485,111.499 255.324 C 112.540 252.164,113.827 248.724,114.360 247.679 C 114.893 246.635,115.328 245.371,115.328 244.869 C 115.328 244.368,115.468 243.818,115.638 243.648 C 115.959 243.327,117.099 240.172,122.003 226.034 C 123.581 221.484,125.119 217.311,125.420 216.761 C 125.721 216.211,126.833 213.145,127.892 209.949 C 128.950 206.752,130.260 203.151,130.803 201.946 C 131.346 200.742,132.708 196.910,133.829 193.431 C 134.951 189.951,136.293 186.156,136.812 184.996 C 137.331 183.837,138.379 181.034,139.140 178.769 C 140.939 173.416,141.710 172.548,144.280 172.984 C 145.352 173.167,147.324 173.462,148.662 173.641 M246.783 296.307 L 247.932 297.238 247.932 314.538 C 247.932 330.498,247.865 331.906,247.063 332.708 C 246.237 333.534,242.712 333.577,175.365 333.577 L 104.537 333.577 103.607 332.428 C 102.304 330.819,102.151 297.432,103.441 296.142 C 104.754 294.829,245.158 294.991,246.783 296.307 M120.467 352.029 C 121.480 352.770,122.242 997.350,121.232 998.941 C 120.024 1000.843,105.099 1000.938,103.573 999.053 C 102.290 997.468,102.151 354.251,103.434 352.420 C 104.389 351.056,118.688 350.728,120.467 352.029 M151.303 352.620 L 152.311 353.903 152.311 676.187 C 152.311 968.523,152.240 998.542,151.547 999.235 C 150.466 1000.317,136.690 1000.367,135.617 999.294 C 134.345 998.022,134.185 948.901,134.488 652.068 C 134.777 369.042,134.864 353.742,136.191 352.143 C 137.482 350.587,150.015 350.983,151.303 352.620 M182.492 351.831 C 182.998 352.101,183.640 353.141,183.918 354.142 C 184.953 357.870,184.592 997.743,183.554 999.026 C 181.767 1001.232,166.733 1000.922,165.622 998.657 C 165.040 997.471,164.827 427.984,165.393 386.963 C 165.796 357.735,165.946 353.586,166.635 352.534 C 167.491 351.229,180.305 350.660,182.492 351.831 M213.947 352.499 C 216.030 354.291,215.971 345.027,216.016 675.714 C 216.059 986.287,216.012 998.031,214.730 999.313 C 213.640 1000.403,199.881 1000.300,198.965 999.195 C 197.720 997.695,197.995 352.940,199.241 352.029 C 201.043 350.711,212.287 351.071,213.947 352.499 M246.239 351.831 C 246.745 352.101,247.387 353.141,247.665 354.142 C 248.744 358.028,248.333 997.751,247.251 999.087 C 245.984 1000.652,231.342 1000.893,229.823 999.374 C 228.400 997.951,228.475 353.070,229.898 352.029 C 231.035 351.198,244.747 351.032,246.239 351.831 M246.824 1015.463 L 247.932 1016.571 248.083 1038.091 C 248.243 1060.882,248.087 1062.914,246.119 1063.539 C 245.535 1063.724,213.423 1063.881,174.760 1063.887 L 104.463 1063.898 103.569 1062.796 C 102.732 1061.761,102.676 1060.288,102.676 1038.969 C 102.676 1015.490,102.702 1015.165,104.623 1014.432 C 105.024 1014.279,136.934 1014.199,175.534 1014.254 L 245.715 1014.355 246.824 1015.463 M240.199 1078.691 C 242.349 1079.924,242.687 1083.610,241.418 1091.971 C 238.810 1109.149,216.893 1125.705,192.457 1128.955 C 190.584 1129.205,187.737 1129.633,186.131 1129.908 C 181.747 1130.659,169.687 1130.521,165.694 1129.675 C 163.820 1129.278,161.593 1128.954,160.745 1128.954 C 151.236 1128.954,130.916 1118.925,122.581 1110.119 C 113.115 1100.116,107.916 1080.834,114.016 1078.346 C 115.759 1077.634,238.944 1077.971,240.199 1078.691 " stroke="none" fill="#060606" fill-rule="evenodd"></path><path id="path1" d="M139.659 354.609 C 138.990 354.729,138.272 354.990,138.064 355.189 C 137.505 355.723,137.665 790.933,138.245 845.985 C 138.518 871.946,138.838 916.715,138.954 945.472 C 139.071 974.228,139.351 997.940,139.576 998.165 C 139.802 998.390,142.376 998.512,145.297 998.436 L 150.608 998.297 150.730 677.401 C 150.828 421.005,150.730 356.428,150.244 356.119 C 149.909 355.907,148.950 355.729,148.113 355.725 C 147.276 355.721,145.805 355.389,144.844 354.988 C 143.115 354.265,142.019 354.185,139.659 354.609 M201.113 354.753 L 200.036 355.186 199.853 390.610 C 199.492 460.544,200.036 817.760,200.555 851.095 C 200.844 869.696,201.221 910.426,201.392 941.606 L 201.703 998.297 206.773 998.436 C 210.501 998.539,211.948 998.410,212.240 997.950 C 212.925 996.870,212.754 356.988,212.068 356.302 C 211.747 355.981,210.898 355.718,210.181 355.718 C 209.464 355.718,208.092 355.389,207.131 354.988 C 205.202 354.182,202.768 354.087,201.113 354.753 M104.901 355.662 C 104.530 356.262,104.513 711.560,104.882 751.095 C 105.025 766.350,105.353 801.387,105.612 828.954 C 105.871 856.521,106.090 905.605,106.098 938.031 C 106.111 990.662,106.193 997.053,106.866 997.611 C 107.396 998.051,109.450 998.231,113.786 998.216 L 119.951 998.195 119.934 988.027 C 119.924 982.434,119.741 884.793,119.527 771.046 C 119.294 647.898,119.325 522.303,119.602 460.584 C 119.857 403.577,120.018 356.875,119.958 356.802 C 119.299 356.000,105.345 354.943,104.901 355.662 M169.116 355.691 C 168.608 356.513,168.842 768.836,169.385 829.684 C 169.675 862.202,169.949 913.177,169.993 942.962 C 170.063 990.499,170.162 997.175,170.803 997.601 C 171.565 998.108,181.210 998.031,181.725 997.514 C 181.887 997.351,182.024 853.154,182.029 677.076 L 182.038 356.934 179.948 356.546 C 178.799 356.332,177.186 355.949,176.364 355.694 C 174.436 355.097,169.485 355.094,169.116 355.691 M230.922 563.591 C 231.075 678.226,231.419 791.946,231.686 816.302 C 231.954 840.657,232.300 891.409,232.455 929.083 L 232.739 997.582 233.795 997.847 C 237.577 998.797,246.018 998.018,246.309 996.693 C 246.410 996.237,246.342 989.185,246.160 981.022 C 245.548 953.716,245.154 556.919,245.638 455.718 C 245.897 401.387,246.036 356.852,245.946 356.752 C 245.650 356.422,239.253 355.636,234.908 355.397 L 230.643 355.162 230.922 563.591 " stroke="none" fill="#f2c254" fill-rule="evenodd"></path><path id="path3" d="M105.624 298.506 C 104.632 299.702,104.507 302.812,105.133 310.706 C 105.452 314.720,105.850 320.961,106.019 324.574 L 106.326 331.144 175.912 331.144 L 245.499 331.144 245.562 315.461 C 245.608 304.141,245.469 299.650,245.064 299.313 C 243.720 298.198,106.539 297.404,105.624 298.506 M122.553 1016.782 C 122.422 1016.913,118.462 1017.036,113.753 1017.056 C 106.564 1017.086,105.145 1017.211,104.907 1017.831 C 104.315 1019.375,104.601 1040.415,105.229 1041.516 C 105.622 1042.205,105.922 1045.664,106.081 1051.338 L 106.326 1060.097 175.617 1060.221 C 217.182 1060.295,245.124 1060.165,245.447 1059.897 C 246.054 1059.394,246.121 1018.707,245.516 1018.105 C 245.326 1017.916,235.938 1017.750,224.653 1017.736 C 213.369 1017.721,200.852 1017.452,196.837 1017.137 C 189.731 1016.580,123.073 1016.262,122.553 1016.782 " stroke="none" fill="#18a7c7" fill-rule="evenodd"></path><path id="path4" d="M212.875 377.372 C 212.875 388.613,212.939 393.142,213.017 387.437 C 213.094 381.731,213.094 372.534,213.016 366.999 C 212.938 361.463,212.875 366.131,212.875 377.372 M137.136 403.406 C 137.259 428.698,137.439 449.483,137.536 449.594 C 137.871 449.978,137.599 363.745,137.256 360.584 C 137.067 358.844,137.013 378.114,137.136 403.406 M246.108 372.993 C 245.908 381.290,245.778 394.757,245.820 402.920 L 245.895 417.762 246.300 403.163 C 246.523 395.134,246.653 381.667,246.589 373.236 L 246.472 357.908 246.108 372.993 M104.367 406.326 C 104.367 424.927,104.427 432.536,104.501 423.236 C 104.575 413.936,104.575 398.717,104.501 389.416 C 104.427 380.116,104.367 387.725,104.367 406.326 M119.925 393.187 C 119.925 401.886,119.991 405.444,120.072 401.095 C 120.153 396.746,120.153 389.629,120.072 385.280 C 119.991 380.931,119.925 384.489,119.925 393.187 M182.175 382.482 C 182.175 385.292,182.256 386.442,182.354 385.036 C 182.452 383.631,182.452 381.332,182.354 379.927 C 182.256 378.522,182.175 379.672,182.175 382.482 M182.714 438.929 C 182.714 461.277,182.774 470.420,182.847 459.246 C 182.919 448.072,182.919 429.787,182.847 418.613 C 182.774 407.439,182.714 416.582,182.714 438.929 M230.405 449.392 C 230.405 477.494,230.464 488.919,230.535 474.780 C 230.607 460.642,230.607 437.649,230.535 423.685 C 230.463 409.722,230.405 421.290,230.405 449.392 M104.269 450.608 C 104.269 451.813,104.364 452.305,104.480 451.703 C 104.596 451.101,104.596 450.116,104.480 449.513 C 104.364 448.911,104.269 449.404,104.269 450.608 M119.462 673.236 C 119.462 763.431,119.518 800.256,119.586 755.070 C 119.655 709.884,119.655 636.088,119.586 591.080 C 119.518 546.071,119.462 583.041,119.462 673.236 M199.849 745.012 C 199.955 817.409,200.230 878.942,200.460 881.752 C 200.744 885.231,200.794 882.357,200.614 872.749 C 200.469 864.988,200.194 803.455,200.004 736.010 L 199.657 613.382 199.849 745.012 M104.803 749.878 C 104.803 752.689,104.883 753.838,104.982 752.433 C 105.080 751.028,105.080 748.729,104.982 747.324 C 104.883 745.918,104.803 747.068,104.803 749.878 M137.897 821.411 C 137.897 824.489,137.976 825.748,138.073 824.209 C 138.169 822.670,138.169 820.152,138.073 818.613 C 137.976 817.074,137.897 818.333,137.897 821.411 M138.332 878.832 C 138.332 880.036,138.427 880.529,138.543 879.927 C 138.659 879.325,138.659 878.339,138.543 877.737 C 138.427 877.135,138.332 877.628,138.332 878.832 M182.712 913.625 C 182.712 932.895,182.773 940.708,182.847 930.986 C 182.920 921.264,182.920 905.498,182.846 895.950 C 182.773 886.401,182.712 894.355,182.712 913.625 M201.088 953.406 C 201.025 978.230,201.137 998.540,201.338 998.540 C 201.669 998.540,201.666 966.385,201.331 924.331 C 201.260 915.499,201.151 928.583,201.088 953.406 M138.905 932.117 C 138.905 941.484,138.971 945.247,139.050 940.480 C 139.130 935.712,139.130 928.047,139.050 923.448 C 138.970 918.848,138.905 922.749,138.905 932.117 M245.915 923.844 C 245.913 926.253,245.996 927.300,246.098 926.170 C 246.200 925.041,246.201 923.070,246.100 921.791 C 246.000 920.511,245.916 921.436,245.915 923.844 M245.903 947.445 C 245.889 957.749,246.024 972.530,246.204 980.292 L 246.531 994.404 246.554 978.102 C 246.567 969.136,246.432 954.355,246.253 945.255 L 245.929 928.710 245.903 947.445 M119.925 963.017 C 119.925 971.715,119.991 975.274,120.072 970.925 C 120.153 966.575,120.153 959.459,120.072 955.109 C 119.991 950.760,119.925 954.319,119.925 963.017 M138.853 955.961 C 138.855 958.102,138.940 958.918,139.043 957.773 C 139.146 956.628,139.144 954.877,139.040 953.880 C 138.935 952.884,138.851 953.820,138.853 955.961 M212.652 977.819 C 212.652 988.369,212.519 997.347,212.357 997.770 C 212.194 998.194,212.294 998.540,212.579 998.540 C 212.937 998.540,213.107 992.355,213.128 978.589 C 213.145 967.616,213.044 958.637,212.905 958.637 C 212.766 958.637,212.652 967.269,212.652 977.819 M138.901 974.696 C 138.901 982.591,138.968 985.821,139.050 981.873 C 139.132 977.926,139.132 971.466,139.050 967.518 C 138.968 963.571,138.901 966.800,138.901 974.696 M182.179 973.236 C 182.179 976.314,182.258 977.573,182.355 976.034 C 182.451 974.495,182.451 971.977,182.355 970.438 C 182.258 968.899,182.179 970.158,182.179 973.236 M181.995 997.024 C 181.995 997.260,181.535 997.574,180.973 997.721 C 180.408 997.868,180.095 998.221,180.273 998.509 C 180.711 999.219,182.482 998.255,182.482 997.306 C 182.482 996.914,182.372 996.594,182.238 996.594 C 182.105 996.594,181.995 996.787,181.995 997.024 M113.139 998.540 C 112.200 998.943,112.204 998.960,113.232 998.993 C 113.818 999.011,114.433 998.808,114.599 998.540 C 114.954 997.965,114.478 997.965,113.139 998.540 M115.815 998.240 C 115.815 998.662,118.233 998.850,118.825 998.474 C 119.233 998.216,118.803 998.066,117.640 998.061 C 116.636 998.057,115.815 998.137,115.815 998.240 M235.630 998.626 C 236.341 999.088,244.772 998.946,244.485 998.477 C 244.381 998.308,242.207 998.181,239.652 998.196 C 236.997 998.210,235.274 998.395,235.630 998.626 M117.275 1079.805 C 116.626 1080.225,116.626 1080.281,117.275 1080.315 C 117.698 1080.338,117.545 1080.539,116.910 1080.794 C 113.666 1082.098,117.175 1096.682,122.245 1102.966 C 122.872 1103.744,124.011 1105.311,124.777 1106.450 C 125.543 1107.588,126.851 1108.943,127.683 1109.459 C 128.516 1109.976,130.719 1111.613,132.579 1113.098 C 136.204 1115.991,140.698 1118.531,145.012 1120.126 C 146.484 1120.670,149.550 1121.799,151.825 1122.635 C 156.723 1124.434,161.603 1125.464,167.737 1125.991 C 170.498 1126.229,172.683 1126.684,173.438 1127.179 C 174.121 1127.626,175.798 1128.018,177.233 1128.065 L 179.805 1128.149 176.642 1128.467 L 173.479 1128.786 177.616 1128.836 C 179.891 1128.863,181.342 1128.724,180.841 1128.528 C 178.780 1127.718,182.384 1126.300,186.618 1126.255 C 188.917 1126.230,191.465 1125.877,192.839 1125.394 C 194.120 1124.943,195.697 1124.574,196.344 1124.574 C 196.992 1124.574,198.024 1124.376,198.639 1124.133 C 199.254 1123.891,201.180 1123.243,202.920 1122.693 C 207.379 1121.285,210.960 1119.723,214.412 1117.682 C 216.049 1116.714,217.840 1115.778,218.393 1115.603 C 219.349 1115.300,225.542 1110.520,227.389 1108.660 C 233.955 1102.046,238.668 1092.581,238.475 1086.391 C 238.336 1081.924,238.997 1082.242,229.777 1082.215 C 225.309 1082.201,218.589 1081.961,214.842 1081.681 C 211.095 1081.400,188.978 1081.017,165.693 1080.828 L 123.358 1080.485 159.854 1080.331 C 179.927 1080.246,195.693 1080.010,194.891 1079.805 C 192.676 1079.242,118.147 1079.242,117.275 1079.805 " stroke="none" fill="#f397a9" fill-rule="evenodd"></path><path id="path5" d="M168.123 68.427 C 163.296 70.959,160.910 74.172,158.235 81.740 C 157.149 84.811,156.335 87.397,156.424 87.487 C 156.514 87.577,156.974 86.597,157.446 85.309 C 161.554 74.105,162.990 71.844,167.640 69.269 C 170.322 67.783,170.908 67.651,174.833 67.646 C 184.131 67.633,187.963 71.277,192.740 84.672 C 198.970 102.141,201.678 109.700,203.895 115.815 C 205.204 119.428,207.361 125.450,208.686 129.197 C 211.165 136.204,213.109 140.843,213.128 139.795 C 213.134 139.469,212.615 138.045,211.974 136.632 C 211.334 135.219,210.120 131.896,209.277 129.248 C 208.434 126.599,207.505 123.986,207.213 123.440 C 206.921 122.895,205.633 119.478,204.350 115.847 C 203.067 112.216,200.454 104.866,198.544 99.513 C 196.633 94.161,194.185 87.263,193.102 84.185 C 189.668 74.422,187.341 71.125,182.012 68.469 C 178.201 66.570,171.701 66.551,168.123 68.427 M173.740 86.586 C 173.463 87.104,173.236 88.001,173.236 88.579 C 173.236 89.157,172.845 90.212,172.367 90.922 C 171.570 92.107,171.102 93.431,168.983 100.487 C 168.581 101.825,168.060 103.300,167.824 103.765 C 167.589 104.229,167.397 104.919,167.397 105.297 C 167.397 105.675,166.740 107.233,165.937 108.759 C 165.134 110.285,164.477 111.880,164.477 112.302 C 164.477 113.177,163.663 115.822,162.699 118.078 C 162.339 118.922,162.044 119.881,162.044 120.211 C 162.044 120.540,161.622 121.492,161.106 122.327 C 160.134 123.900,159.321 126.154,157.928 131.144 C 157.480 132.749,156.606 135.049,155.987 136.253 C 155.368 137.457,154.162 140.742,153.307 143.552 C 152.452 146.363,151.550 149.042,151.302 149.507 C 151.054 149.972,150.852 150.719,150.852 151.167 C 150.852 151.616,150.305 152.916,149.636 154.057 C 148.262 156.402,148.441 157.529,150.262 157.986 C 151.540 158.307,155.718 156.518,155.718 155.650 C 155.718 155.420,156.221 155.231,156.837 155.231 C 157.453 155.231,158.224 154.963,158.552 154.635 C 159.023 154.165,159.377 154.190,160.231 154.757 C 161.110 155.340,164.339 155.520,177.408 155.718 C 191.744 155.934,193.593 156.052,194.334 156.794 C 196.611 159.074,200.973 158.274,200.973 155.576 C 200.973 153.869,198.714 146.696,197.073 143.193 C 196.542 142.058,196.107 140.816,196.107 140.432 C 196.107 139.642,192.578 129.603,191.387 127.007 C 190.958 126.071,189.530 122.238,188.214 118.491 C 178.613 91.150,176.908 86.600,176.066 86.066 C 175.033 85.411,174.278 85.580,173.740 86.586 M176.853 88.364 C 177.280 90.065,176.828 90.575,175.450 89.947 C 174.004 89.288,173.575 87.808,174.547 86.836 C 175.450 85.933,176.401 86.563,176.853 88.364 M155.718 88.186 C 155.718 88.335,154.717 91.349,153.494 94.884 C 152.271 98.419,151.355 101.396,151.459 101.500 C 151.563 101.603,152.674 98.700,153.929 95.048 C 155.184 91.396,156.100 88.297,155.964 88.162 C 155.829 88.026,155.718 88.037,155.718 88.186 M180.597 98.533 C 181.795 101.722,181.894 104.417,180.754 102.789 C 179.666 101.236,178.102 96.453,178.105 94.693 L 178.108 93.187 178.897 94.647 C 179.331 95.450,180.096 97.199,180.597 98.533 M175.827 97.033 C 176.131 97.825,175.722 98.387,175.115 98.012 C 174.562 97.670,174.574 96.350,175.130 96.350 C 175.369 96.350,175.683 96.657,175.827 97.033 M176.960 100.505 C 177.273 101.320,175.871 103.163,174.939 103.163 C 174.621 103.163,173.959 103.606,173.469 104.148 C 172.957 104.714,172.396 104.951,172.150 104.705 C 171.557 104.111,172.230 101.703,172.989 101.703 C 173.330 101.703,173.724 101.265,173.864 100.730 C 174.173 99.547,176.527 99.376,176.960 100.505 M149.951 104.745 C 148.276 108.968,145.252 117.264,138.022 137.470 C 136.298 142.287,133.991 148.713,132.894 151.748 C 131.797 154.784,130.914 157.521,130.931 157.831 C 130.962 158.391,132.540 154.168,138.537 137.470 C 144.708 120.287,150.339 104.839,151.088 103.041 C 151.283 102.573,151.335 102.190,151.203 102.190 C 151.072 102.190,150.509 103.339,149.951 104.745 M178.014 104.745 C 177.929 105.347,177.640 105.839,177.372 105.839 C 177.105 105.839,176.816 105.347,176.730 104.745 C 176.623 103.991,176.823 103.650,177.372 103.650 C 177.921 103.650,178.121 103.991,178.014 104.745 M174.939 106.813 C 174.939 107.481,174.559 107.839,173.723 107.954 C 171.944 108.200,171.146 108.973,171.825 109.792 C 172.127 110.155,172.584 110.321,172.842 110.162 C 173.113 109.994,173.244 110.459,173.152 111.262 C 173.025 112.368,172.720 112.684,171.655 112.806 C 170.151 112.979,169.551 107.529,170.922 106.158 C 171.923 105.157,174.939 105.649,174.939 106.813 M184.830 111.922 C 185.259 111.922,186.212 114.210,186.502 115.937 C 186.625 116.673,186.563 117.275,186.363 117.275 C 185.750 117.275,184.480 114.161,184.267 112.135 C 184.156 111.081,184.162 110.602,184.281 111.071 C 184.399 111.539,184.646 111.922,184.830 111.922 M180.535 111.776 C 180.535 112.755,180.395 112.949,179.984 112.539 C 179.681 112.236,179.565 111.644,179.725 111.225 C 180.171 110.064,180.535 110.312,180.535 111.776 M170.131 120.901 C 170.620 122.175,169.816 122.766,168.820 121.864 C 168.317 121.410,168.023 120.848,168.167 120.616 C 168.581 119.946,169.834 120.127,170.131 120.901 M189.696 125.547 C 189.880 125.547,190.273 126.150,190.571 126.886 C 192.723 132.213,193.187 133.628,193.187 134.858 C 193.187 135.625,193.352 136.255,193.552 136.257 C 194.163 136.263,195.134 138.789,195.131 140.365 L 195.128 141.849 194.401 140.455 C 194.001 139.689,193.674 138.628,193.674 138.097 C 193.674 137.567,193.271 136.552,192.779 135.842 C 192.286 135.131,191.384 133.017,190.774 131.144 C 190.164 129.270,189.472 127.234,189.237 126.619 C 189.001 126.005,188.838 125.019,188.874 124.430 L 188.940 123.358 189.151 124.453 C 189.267 125.055,189.512 125.547,189.696 125.547 M184.884 125.828 C 184.463 126.335,184.119 126.406,183.769 126.057 C 183.420 125.707,183.556 125.336,184.211 124.853 C 185.308 124.046,185.787 124.740,184.884 125.828 M161.174 126.034 C 161.057 126.837,160.875 127.494,160.772 127.494 C 160.669 127.494,160.584 126.837,160.584 126.034 C 160.584 125.231,160.765 124.574,160.986 124.574 C 161.208 124.574,161.292 125.231,161.174 126.034 M213.386 141.606 C 213.811 143.006,216.735 151.135,217.850 154.015 C 218.265 155.085,218.888 157.056,219.235 158.394 C 219.582 159.732,221.225 164.550,222.887 169.100 C 224.549 173.650,226.852 180.034,228.003 183.286 C 229.155 186.539,230.481 189.933,230.951 190.829 C 231.731 192.315,233.176 196.214,239.083 212.762 C 240.203 215.901,241.179 218.294,241.252 218.081 C 241.326 217.867,240.526 215.299,239.475 212.374 C 233.661 196.190,232.212 192.305,231.433 190.819 C 230.960 189.919,229.522 186.196,228.237 182.547 C 226.951 178.898,224.864 173.066,223.599 169.586 C 222.334 166.107,220.879 161.946,220.366 160.341 C 218.016 152.994,213.725 141.045,213.292 140.643 C 213.141 140.504,213.184 140.937,213.386 141.606 M196.555 144.039 C 197.218 144.573,198.054 147.092,198.054 148.556 L 198.054 150.107 197.089 148.307 C 196.558 147.318,196.009 145.569,195.869 144.422 C 195.728 143.274,195.757 142.664,195.933 143.066 C 196.109 143.467,196.389 143.905,196.555 144.039 M158.314 152.637 C 158.493 152.816,158.275 153.365,157.830 153.857 C 156.976 154.800,154.869 153.777,155.515 152.733 C 155.822 152.236,157.844 152.167,158.314 152.637 M151.321 155.686 C 152.040 157.030,151.970 157.178,150.608 157.178 C 149.357 157.178,149.175 156.849,149.687 155.514 C 150.085 154.479,150.710 154.544,151.321 155.686 M127.827 166.516 C 126.347 170.881,124.463 176.204,123.640 178.345 C 122.818 180.487,122.207 182.426,122.282 182.655 C 122.357 182.884,123.259 180.804,124.286 178.032 C 127.545 169.240,130.970 159.032,130.740 158.801 C 130.618 158.679,129.307 162.151,127.827 166.516 M141.159 175.591 C 140.602 176.683,140.146 177.891,140.146 178.276 C 140.146 178.660,139.476 180.585,138.657 182.553 C 137.838 184.521,135.962 189.731,134.489 194.131 C 133.015 198.530,131.566 202.582,131.268 203.133 C 130.739 204.114,128.779 209.603,123.180 225.791 C 121.653 230.207,120.204 234.142,119.960 234.537 C 119.716 234.931,118.485 238.215,117.225 241.836 C 111.810 257.393,110.116 262.105,109.590 263.080 C 109.282 263.650,108.497 265.730,107.844 267.703 C 107.191 269.676,106.318 272.082,105.903 273.049 C 104.338 276.709,98.163 276.421,175.182 276.281 L 244.039 276.156 244.184 274.180 C 244.329 272.208,244.033 271.273,238.105 254.988 C 236.888 251.642,234.740 245.730,233.333 241.849 C 231.925 237.968,229.619 231.618,228.207 227.737 C 221.305 208.765,215.225 191.837,211.553 181.377 C 209.243 174.795,208.293 173.442,206.387 174.019 C 204.679 174.536,146.786 174.529,144.200 174.011 C 142.181 173.607,142.168 173.614,141.159 175.591 M174.696 175.043 C 196.556 175.182,204.102 175.081,205.494 174.633 C 208.056 173.810,208.417 174.287,211.301 182.317 C 212.631 186.021,215.093 192.883,216.771 197.567 C 219.888 206.263,222.637 213.865,227.508 227.251 C 229.017 231.399,231.326 237.821,232.639 241.522 C 233.952 245.223,235.147 248.447,235.295 248.687 C 235.443 248.926,236.639 252.139,237.952 255.826 C 239.265 259.514,241.117 264.686,242.067 267.320 C 243.018 269.955,243.796 272.966,243.796 274.011 L 243.796 275.912 175.167 275.912 C 99.028 275.912,105.176 276.191,106.523 272.799 C 106.853 271.969,107.571 269.976,108.118 268.370 C 108.666 266.764,109.518 264.530,110.014 263.405 C 110.509 262.280,111.819 258.667,112.925 255.376 C 114.031 252.085,115.106 249.173,115.314 248.905 C 115.664 248.455,116.614 245.751,118.563 239.659 C 118.991 238.321,119.830 236.131,120.428 234.793 C 121.026 233.455,122.465 229.404,123.625 225.791 C 124.785 222.178,126.118 218.434,126.586 217.471 C 127.055 216.508,128.129 213.551,128.973 210.901 C 129.818 208.251,131.031 204.878,131.669 203.406 C 132.307 201.934,133.906 197.527,135.222 193.612 C 136.538 189.697,137.852 186.050,138.143 185.508 C 138.433 184.965,139.324 182.506,140.122 180.043 C 141.911 174.523,142.293 174.010,144.255 174.493 C 145.073 174.695,158.771 174.943,174.696 175.043 M120.523 186.631 C 119.807 188.374,119.233 190.070,119.247 190.399 C 119.260 190.728,119.926 189.382,120.726 187.408 C 121.525 185.433,122.099 183.738,122.002 183.640 C 121.904 183.542,121.239 184.888,120.523 186.631 M117.311 195.484 C 116.455 197.834,114.352 203.698,112.638 208.516 C 110.924 213.333,108.292 220.669,106.790 224.818 C 105.288 228.966,102.989 235.316,101.681 238.929 C 100.373 242.543,98.062 248.893,96.546 253.041 C 85.953 282.025,83.902 288.310,83.127 294.161 C 82.234 300.896,82.247 341.605,83.143 345.620 C 83.652 347.903,83.651 348.934,83.136 351.217 C 82.042 356.069,82.257 1059.581,83.355 1065.345 C 84.410 1070.891,85.384 1072.675,89.986 1077.505 L 92.200 1079.828 92.529 1084.561 C 92.711 1087.164,93.102 1089.842,93.399 1090.511 C 93.922 1091.690,93.930 1091.683,93.662 1090.268 C 93.510 1089.465,93.271 1087.056,93.131 1084.915 C 92.824 1080.210,92.269 1078.624,90.486 1077.354 C 87.226 1075.033,84.617 1069.951,83.624 1063.990 C 82.681 1058.330,82.688 355.449,83.631 351.217 C 84.133 348.961,84.136 347.876,83.643 345.620 C 82.742 341.488,82.734 300.739,83.634 294.161 C 84.223 289.854,86.916 280.040,88.138 277.749 C 88.385 277.287,89.876 273.236,91.452 268.747 C 94.136 261.105,96.346 254.961,102.181 238.929 C 106.987 225.727,111.130 214.234,117.602 196.157 C 118.503 193.642,119.156 191.500,119.054 191.398 C 118.952 191.296,118.168 193.135,117.311 195.484 M241.605 219.951 C 241.806 220.620,242.394 222.263,242.914 223.601 C 243.433 224.939,244.812 228.771,245.979 232.117 C 248.171 238.403,250.092 243.004,250.111 242.011 C 250.117 241.699,249.658 240.385,249.092 239.091 C 248.525 237.798,247.235 234.331,246.223 231.387 C 243.990 224.884,241.878 219.324,241.512 218.985 C 241.363 218.847,241.405 219.282,241.605 219.951 M250.356 243.796 C 250.551 244.465,251.248 246.326,251.905 247.932 C 252.561 249.538,253.429 251.913,253.833 253.211 C 254.237 254.509,254.684 255.454,254.826 255.312 C 254.967 255.170,254.641 253.890,254.100 252.466 C 253.559 251.043,252.536 248.349,251.828 246.479 C 250.533 243.060,249.695 241.533,250.356 243.796 M255.231 257.078 C 255.558 258.709,257.831 264.684,257.860 263.990 C 257.872 263.723,257.224 261.752,256.420 259.611 C 255.616 257.470,255.081 256.330,255.231 257.078 M258.184 265.450 C 258.372 265.985,259.491 269.161,260.669 272.506 C 261.847 275.852,263.484 280.220,264.306 282.213 C 265.129 284.206,265.970 286.834,266.177 288.052 C 266.508 290.007,266.559 290.077,266.609 288.643 C 266.641 287.750,265.709 284.575,264.538 281.587 C 263.368 278.600,261.717 274.075,260.871 271.533 C 260.024 268.990,258.996 266.363,258.586 265.693 C 258.099 264.899,257.959 264.814,258.184 265.450 M266.735 290.998 C 266.735 291.399,266.923 292.165,267.153 292.701 C 267.417 293.314,267.571 293.404,267.571 292.944 C 267.571 292.543,267.383 291.776,267.153 291.241 C 266.890 290.627,266.735 290.537,266.735 290.998 M267.882 679.319 C 267.882 891.423,267.937 978.193,268.005 872.141 C 268.072 766.089,268.072 592.549,268.005 486.496 C 267.937 380.444,267.882 467.214,267.882 679.319 M145.364 296.204 L 104.597 296.356 104.108 297.641 C 103.126 300.225,103.275 330.725,104.275 331.730 C 105.419 332.880,245.180 333.117,246.326 331.971 C 247.447 330.851,247.226 298.113,246.090 296.976 C 245.114 296.000,230.487 295.888,145.364 296.204 M244.891 297.140 C 245.822 297.413,246.077 298.783,245.196 298.783 C 244.821 298.783,244.804 298.974,245.142 299.392 C 245.454 299.777,245.609 305.699,245.566 315.572 L 245.499 331.144 174.939 331.144 L 104.380 331.144 103.961 326.611 C 103.410 320.635,103.915 315.354,104.916 316.632 C 105.562 317.456,105.593 317.433,105.357 316.302 C 104.706 313.176,104.869 299.432,105.568 298.582 C 106.229 297.778,109.011 297.739,154.473 297.891 C 191.070 298.015,201.973 297.922,199.757 297.508 L 196.837 296.963 201.460 296.724 C 207.029 296.437,243.684 296.788,244.891 297.140 M204.264 298.641 C 204.869 298.757,205.745 298.753,206.210 298.631 C 206.675 298.509,206.180 298.414,205.109 298.420 C 204.039 298.425,203.658 298.525,204.264 298.641 M104.909 352.455 C 103.722 353.334,103.894 321.775,103.426 624.331 C 103.045 870.960,103.291 997.173,104.157 998.573 C 104.391 998.953,105.671 999.236,107.382 999.288 C 109.426 999.350,109.588 999.319,107.962 999.177 C 106.541 999.053,105.388 998.631,104.852 998.037 C 103.352 996.380,103.726 354.795,105.228 352.920 C 106.000 351.956,117.704 352.082,119.113 353.069 L 120.195 353.826 120.195 675.911 C 120.195 916.882,120.055 998.083,119.639 998.340 C 119.333 998.529,117.855 998.859,116.354 999.074 L 113.625 999.464 116.735 999.285 C 118.623 999.177,120.006 998.852,120.255 998.458 C 121.044 997.215,120.781 354.094,119.992 353.013 C 119.076 351.759,106.479 351.293,104.909 352.455 M137.336 352.628 L 136.247 353.528 135.771 389.294 C 135.508 408.966,135.330 474.002,135.373 533.820 L 135.452 642.579 135.785 514.599 C 136.070 404.761,136.290 375.381,136.964 356.409 C 137.110 352.313,137.219 352.251,143.894 352.418 C 150.108 352.574,150.419 352.737,150.886 356.085 L 151.208 358.394 151.258 356.204 C 151.342 352.457,150.744 352.095,144.131 351.899 C 139.143 351.750,138.289 351.842,137.336 352.628 M174.696 352.277 C 178.041 352.445,181.135 352.755,181.571 352.964 C 183.459 353.869,183.668 996.956,181.780 998.336 C 180.946 998.946,180.933 999.027,181.671 999.027 C 182.130 999.027,182.720 998.464,182.982 997.776 C 183.984 995.139,183.350 353.945,182.344 352.937 C 181.604 352.196,180.529 352.061,175.045 352.019 L 168.613 351.970 174.696 352.277 M200.608 352.327 C 199.804 352.650,199.513 353.166,199.513 354.271 C 199.513 355.230,199.705 355.657,200.042 355.448 C 200.333 355.268,200.463 354.708,200.331 354.203 C 199.974 352.838,200.740 352.582,206.083 352.278 L 210.949 352.001 206.326 351.944 C 203.783 351.912,201.210 352.085,200.608 352.327 M230.872 352.515 C 229.939 353.197,229.927 355.872,229.899 559.693 L 229.870 766.180 230.142 560.050 C 230.369 388.148,230.523 353.790,231.070 353.130 C 231.598 352.493,232.923 352.310,237.882 352.188 L 244.039 352.036 237.928 351.931 C 233.285 351.850,231.589 351.991,230.872 352.515 M167.156 353.163 C 165.036 358.396,165.005 997.273,167.125 998.823 C 167.846 999.350,169.572 999.488,174.424 999.407 L 180.779 999.301 174.379 999.150 C 169.193 999.028,167.855 998.849,167.323 998.209 C 165.209 995.662,165.854 355.487,167.973 352.933 C 168.311 352.526,168.318 352.311,167.995 352.311 C 167.723 352.311,167.345 352.695,167.156 353.163 M211.994 352.795 C 213.486 353.397,213.827 354.126,214.157 357.421 L 214.450 360.341 214.524 357.408 C 214.608 354.081,213.723 352.293,212.016 352.342 L 210.949 352.373 211.994 352.795 M244.901 352.843 C 245.376 353.119,246.078 354.043,246.463 354.897 L 247.162 356.448 246.871 354.988 C 246.509 353.163,245.852 352.307,244.831 352.326 C 244.143 352.339,244.152 352.407,244.901 352.843 M214.840 676.886 C 214.840 850.450,214.896 921.454,214.964 834.672 C 215.031 747.889,215.031 605.882,214.964 519.100 C 214.896 432.318,214.840 503.321,214.840 676.886 M151.093 677.616 C 151.093 850.243,151.149 920.791,151.217 834.388 C 151.284 747.985,151.284 606.745,151.217 520.520 C 151.149 434.295,151.093 504.988,151.093 677.616 M246.957 677.372 C 246.957 849.063,247.013 919.300,247.080 833.455 C 247.148 747.609,247.148 607.135,247.080 521.290 C 247.013 435.444,246.957 505.681,246.957 677.372 M199.741 396.594 C 199.741 411.448,199.802 417.524,199.878 410.097 C 199.954 402.670,199.954 390.517,199.878 383.090 C 199.802 375.663,199.741 381.740,199.741 396.594 M199.174 734.063 C 199.124 877.518,199.238 995.766,199.428 996.837 L 199.773 998.783 207.064 998.783 L 214.355 998.783 214.412 995.864 L 214.468 992.944 214.168 995.620 L 213.869 998.297 207.338 998.433 C 203.132 998.521,200.621 998.382,200.282 998.044 C 199.908 997.669,199.686 922.161,199.511 735.377 L 199.265 473.236 199.174 734.063 M135.469 698.540 C 135.470 702.019,135.547 703.379,135.641 701.561 C 135.735 699.744,135.734 696.897,135.640 695.235 C 135.545 693.574,135.468 695.061,135.469 698.540 M135.508 870.560 C 135.516 940.280,135.704 997.690,135.926 998.138 C 136.515 999.329,136.851 999.365,144.039 998.994 L 150.608 998.655 143.940 998.717 C 139.057 998.763,137.103 998.611,136.641 998.149 C 136.128 997.637,135.961 973.655,135.751 870.657 L 135.493 743.796 135.508 870.560 M229.861 800.243 C 229.863 802.920,229.944 803.953,230.043 802.538 C 230.142 801.124,230.141 798.935,230.041 797.672 C 229.941 796.410,229.860 797.567,229.861 800.243 M229.796 962.652 C 229.666 1002.964,229.242 999.592,234.428 999.421 L 237.226 999.329 234.469 999.155 C 230.093 998.878,230.446 1001.878,230.161 962.578 L 229.908 927.737 229.796 962.652 M246.285 996.934 C 246.254 997.523,245.845 998.228,245.377 998.501 C 244.570 998.971,244.571 998.998,245.392 999.012 C 246.384 999.029,246.903 998.030,246.570 996.744 C 246.385 996.032,246.331 996.069,246.285 996.934 M241.004 999.376 C 241.744 999.488,242.839 999.485,243.437 999.369 C 244.036 999.254,243.431 999.162,242.092 999.166 C 240.754 999.170,240.265 999.264,241.004 999.376 M104.297 1016.360 C 102.987 1018.358,102.968 1060.835,104.275 1062.146 C 105.100 1062.973,108.550 1063.024,172.888 1063.163 C 238.671 1063.305,244.699 1063.233,246.233 1062.284 C 246.998 1061.812,247.386 1017.053,246.632 1016.300 C 245.589 1015.257,236.540 1015.107,173.856 1015.097 L 105.132 1015.085 104.297 1016.360 M113.139 1016.523 C 111.800 1016.669,130.398 1016.788,154.467 1016.788 C 178.536 1016.788,197.587 1016.663,196.803 1016.509 C 196.010 1016.354,198.182 1016.055,201.701 1015.836 C 210.402 1015.293,244.655 1015.750,245.323 1016.418 C 245.913 1017.008,246.218 1061.032,245.638 1061.969 C 245.014 1062.979,105.854 1062.754,104.841 1061.741 C 103.912 1060.812,103.748 1051.187,104.321 1031.144 C 104.734 1016.652,104.670 1017.034,106.700 1017.024 C 107.814 1017.019,108.072 1016.890,107.585 1016.582 C 106.614 1015.967,108.451 1015.759,112.409 1016.037 L 115.572 1016.258 113.139 1016.523 M266.752 1066.631 C 266.437 1067.533,266.180 1068.692,266.180 1069.205 C 266.180 1069.718,265.652 1070.835,265.007 1071.687 C 261.758 1075.979,261.314 1077.517,261.314 1084.469 C 261.314 1088.171,261.077 1091.520,260.761 1092.304 C 260.456 1093.058,260.037 1094.550,259.830 1095.620 C 259.622 1096.691,259.314 1098.114,259.146 1098.783 C 258.665 1100.700,260.137 1096.841,260.817 1094.404 C 261.153 1093.200,261.566 1088.798,261.736 1084.624 L 262.044 1077.033 264.355 1073.559 C 265.627 1071.648,266.667 1069.630,266.667 1069.074 C 266.667 1068.518,266.900 1067.627,267.185 1067.094 C 267.470 1066.562,267.618 1065.870,267.514 1065.558 C 267.409 1065.245,267.067 1065.728,266.752 1066.631 M113.610 1080.019 C 112.271 1081.358,112.005 1084.325,112.876 1088.193 C 113.134 1089.334,113.581 1091.497,113.870 1093.000 C 118.868 1118.975,159.488 1135.334,198.297 1127.002 L 200.243 1126.584 198.054 1126.775 C 194.077 1127.122,188.599 1127.891,186.375 1128.415 C 183.519 1129.087,169.099 1129.103,166.907 1128.437 C 165.972 1128.153,163.846 1127.842,162.183 1127.745 C 160.520 1127.649,158.440 1127.349,157.560 1127.078 C 156.681 1126.808,153.771 1125.983,151.095 1125.244 C 136.841 1121.311,122.153 1110.466,116.904 1100.000 C 113.645 1093.501,111.893 1082.268,113.834 1080.326 L 114.853 1079.308 176.874 1079.435 C 248.085 1079.581,240.648 1078.982,240.611 1084.567 C 240.492 1102.357,226.491 1117.864,204.026 1125.088 C 202.091 1125.710,200.599 1126.309,200.710 1126.420 C 201.138 1126.848,209.233 1123.834,213.862 1121.523 C 229.942 1113.496,238.892 1102.909,240.861 1089.588 C 241.154 1087.608,241.502 1085.813,241.635 1085.598 C 242.011 1084.989,240.827 1080.619,240.065 1079.805 C 239.466 1079.165,231.720 1079.060,177.097 1078.947 L 114.812 1078.818 113.610 1080.019 M93.990 1093.004 C 93.331 1104.553,107.138 1123.872,124.088 1135.115 C 130.440 1139.329,150.119 1147.122,152.448 1146.345 C 152.721 1146.254,151.343 1145.794,149.387 1145.321 C 142.547 1143.671,128.531 1137.640,123.539 1134.201 C 106.745 1122.629,96.499 1108.265,94.276 1093.176 C 94.076 1091.814,94.059 1091.804,93.990 1093.004 M258.451 1101.346 C 258.420 1101.819,257.205 1104.556,255.751 1107.429 C 249.763 1119.262,238.715 1130.726,228.192 1136.026 C 226.205 1137.026,223.878 1138.380,223.021 1139.033 C 222.164 1139.687,220.083 1140.727,218.396 1141.344 C 216.709 1141.961,213.905 1143.013,212.165 1143.683 C 210.426 1144.353,207.908 1145.241,206.569 1145.656 C 205.231 1146.072,204.449 1146.425,204.832 1146.442 C 205.749 1146.482,207.971 1145.765,213.869 1143.528 C 216.545 1142.513,219.222 1141.543,219.817 1141.372 C 220.412 1141.202,221.962 1140.330,223.262 1139.436 C 224.562 1138.542,226.952 1137.141,228.573 1136.323 C 233.150 1134.012,239.071 1129.723,241.941 1126.638 C 242.126 1126.440,244.010 1124.416,246.127 1122.141 C 251.957 1115.879,259.343 1103.680,258.728 1101.331 C 258.522 1100.543,258.503 1100.544,258.451 1101.346 M155.231 1147.184 C 158.502 1148.279,199.316 1148.271,202.190 1147.175 C 203.352 1146.732,203.548 1146.578,202.676 1146.793 C 200.726 1147.274,156.915 1147.305,154.745 1146.827 C 153.568 1146.567,153.718 1146.678,155.231 1147.184 " stroke="none" fill="#8c8d8d" fill-rule="evenodd"></path><path id="path6" d="M167.913 69.116 C 162.152 72.291,161.716 73.104,153.792 95.377 C 152.221 99.793,149.924 106.144,148.687 109.489 C 146.375 115.746,144.077 122.072,138.435 137.713 C 136.649 142.664,133.126 152.722,130.605 160.063 C 128.085 167.404,124.602 177.180,122.865 181.787 C 121.128 186.394,118.866 192.541,117.838 195.447 C 114.516 204.842,107.824 223.426,102.181 238.929 C 96.346 254.961,94.136 261.105,91.452 268.747 C 89.876 273.236,88.385 277.287,88.138 277.749 C 86.916 280.040,84.223 289.854,83.634 294.161 C 82.734 300.739,82.742 341.488,83.643 345.620 C 84.136 347.876,84.133 348.961,83.631 351.217 C 82.688 355.449,82.681 1058.330,83.624 1063.990 C 84.602 1069.863,87.345 1075.259,90.356 1077.232 C 92.116 1078.385,92.944 1080.404,92.944 1083.541 C 92.944 1102.349,104.085 1120.796,123.539 1134.201 C 129.171 1138.081,141.725 1143.329,151.237 1145.779 L 157.706 1147.445 178.940 1147.445 C 191.265 1147.445,200.801 1147.248,201.669 1146.975 C 202.491 1146.716,204.477 1146.144,206.083 1145.704 C 207.689 1145.265,210.426 1144.356,212.165 1143.685 C 213.905 1143.014,216.709 1141.961,218.396 1141.344 C 220.083 1140.727,222.164 1139.687,223.021 1139.033 C 223.878 1138.380,226.205 1137.026,228.192 1136.026 C 243.071 1128.533,257.112 1110.578,259.802 1095.603 C 259.996 1094.522,260.361 1093.318,260.613 1092.926 C 260.865 1092.535,261.180 1088.820,261.314 1084.672 L 261.557 1077.129 263.396 1074.209 C 265.970 1070.124,265.991 1070.082,266.718 1067.640 C 267.804 1063.992,267.995 296.561,266.911 291.484 C 266.070 287.542,265.083 284.510,260.969 273.236 C 259.504 269.221,257.026 262.324,255.463 257.908 C 253.899 253.491,251.713 247.470,250.603 244.526 C 248.037 237.715,244.138 226.989,240.168 215.815 C 233.737 197.714,231.781 192.412,230.951 190.829 C 230.481 189.933,229.155 186.539,228.003 183.286 C 226.852 180.034,224.549 173.650,222.887 169.100 C 221.225 164.550,219.582 159.732,219.235 158.394 C 218.888 157.056,218.264 155.085,217.848 154.015 C 217.432 152.944,215.855 148.674,214.344 144.526 C 212.832 140.377,210.396 133.698,208.931 129.684 C 203.813 115.663,201.398 108.948,192.740 84.672 C 187.962 71.275,184.128 67.630,174.833 67.649 C 171.007 67.657,170.282 67.810,167.913 69.116 M181.136 69.473 C 187.407 72.263,188.295 73.954,197.386 100.436 C 198.847 104.690,200.290 108.632,200.593 109.195 C 200.897 109.758,202.179 113.175,203.442 116.788 C 206.766 126.297,209.999 135.300,210.692 136.983 C 211.548 139.058,215.954 151.384,217.389 155.718 C 220.670 165.622,224.067 175.240,224.706 176.434 C 225.000 176.984,226.103 180.048,227.156 183.242 C 228.209 186.437,229.743 190.474,230.564 192.214 C 231.386 193.954,232.857 197.779,233.833 200.715 C 234.810 203.651,235.893 206.607,236.240 207.284 C 236.588 207.962,238.024 212.019,239.432 216.302 C 240.839 220.584,242.153 224.307,242.351 224.574 C 242.550 224.842,243.623 227.689,244.737 230.900 C 247.472 238.788,250.449 246.874,251.815 250.122 C 252.433 251.594,253.751 255.316,254.742 258.394 C 255.733 261.472,257.049 265.195,257.667 266.667 C 258.284 268.139,259.607 271.752,260.605 274.696 C 261.604 277.640,262.797 280.815,263.256 281.752 C 264.016 283.300,264.547 285.212,266.133 292.099 C 267.111 296.348,266.867 1063.363,265.887 1067.236 C 265.457 1068.930,264.840 1070.645,264.514 1071.046 C 261.032 1075.339,260.600 1076.727,260.270 1084.660 C 259.959 1092.151,259.527 1095.323,258.461 1097.964 C 258.157 1098.717,257.908 1099.822,257.908 1100.419 C 257.908 1103.649,251.057 1114.853,245.369 1120.925 C 237.352 1129.483,233.347 1132.783,227.983 1135.251 C 226.647 1135.866,224.619 1137.012,223.478 1137.798 C 220.143 1140.092,213.501 1142.610,201.417 1146.160 C 199.093 1146.843,195.836 1146.959,179.007 1146.959 L 159.316 1146.959 151.799 1145.037 C 123.704 1137.855,101.023 1118.853,96.298 1098.540 C 95.071 1093.267,94.337 1088.835,93.925 1084.222 L 93.473 1079.149 91.109 1076.679 C 87.752 1073.172,86.117 1070.799,85.266 1068.199 C 83.890 1063.997,83.659 994.512,83.942 669.100 C 84.093 494.732,84.217 350.316,84.218 348.175 C 84.219 346.034,84.078 335.085,83.906 323.844 C 83.473 295.591,83.939 291.130,88.574 279.075 C 89.603 276.399,91.681 270.706,93.193 266.423 C 94.704 262.141,96.891 256.010,98.053 252.798 C 99.215 249.586,101.147 244.221,102.347 240.876 C 103.547 237.530,104.792 234.136,105.113 233.333 C 105.717 231.828,108.164 225.036,113.883 209.002 C 117.727 198.223,120.719 190.004,123.891 181.509 C 125.140 178.163,128.400 168.966,131.137 161.071 C 138.319 140.347,142.033 129.822,142.555 128.710 C 142.975 127.818,144.149 124.586,149.403 109.866 C 150.427 106.996,151.397 104.434,151.558 104.174 C 151.719 103.913,153.144 100.021,154.724 95.524 C 161.338 76.701,161.225 76.979,163.458 73.966 C 167.480 68.538,174.834 66.669,181.136 69.473 M174.320 85.204 C 173.712 85.434,173.095 86.010,172.949 86.485 C 172.803 86.959,172.234 88.333,171.685 89.538 C 171.136 90.742,169.614 95.012,168.302 99.027 C 166.990 103.041,165.605 106.989,165.225 107.800 C 164.402 109.553,161.604 117.491,161.199 119.221 C 161.042 119.891,160.533 121.118,160.067 121.948 C 159.601 122.779,158.446 125.882,157.499 128.844 C 156.552 131.805,155.357 135.067,154.843 136.092 C 154.329 137.118,153.518 139.270,153.040 140.876 C 151.547 145.888,148.989 153.170,148.152 154.789 C 147.288 156.460,147.772 158.623,149.016 158.652 C 157.323 158.846,201.041 158.653,201.417 158.420 C 202.442 157.787,201.947 153.730,200.269 149.005 C 199.347 146.408,198.100 142.859,197.499 141.119 C 196.898 139.380,195.434 135.328,194.246 132.117 C 191.419 124.474,187.563 113.784,183.715 102.920 C 177.164 84.426,177.033 84.180,174.320 85.204 M176.066 86.066 C 176.908 86.600,178.613 91.150,188.214 118.491 C 189.530 122.238,190.958 126.071,191.387 127.007 C 192.578 129.603,196.107 139.642,196.107 140.432 C 196.107 140.816,196.542 142.058,197.073 143.193 C 198.714 146.696,200.973 153.869,200.973 155.576 C 200.973 158.274,196.611 159.074,194.334 156.794 C 193.593 156.052,191.744 155.934,177.408 155.718 C 164.339 155.520,161.110 155.340,160.231 154.757 C 159.377 154.190,159.023 154.165,158.552 154.635 C 158.224 154.963,157.453 155.231,156.837 155.231 C 156.221 155.231,155.718 155.420,155.718 155.650 C 155.718 156.518,151.540 158.307,150.262 157.986 C 148.441 157.529,148.262 156.402,149.636 154.057 C 150.305 152.916,150.852 151.616,150.852 151.167 C 150.852 150.719,151.054 149.972,151.302 149.507 C 151.550 149.042,152.452 146.363,153.307 143.552 C 154.162 140.742,155.368 137.457,155.987 136.253 C 156.606 135.049,157.480 132.749,157.928 131.144 C 159.321 126.154,160.134 123.900,161.106 122.327 C 161.622 121.492,162.044 120.540,162.044 120.211 C 162.044 119.881,162.339 118.922,162.699 118.078 C 163.663 115.822,164.477 113.177,164.477 112.302 C 164.477 111.880,165.134 110.285,165.937 108.759 C 166.740 107.233,167.397 105.675,167.397 105.297 C 167.397 104.919,167.589 104.229,167.824 103.765 C 168.060 103.300,168.581 101.825,168.983 100.487 C 171.102 93.431,171.570 92.107,172.367 90.922 C 172.845 90.212,173.236 89.157,173.236 88.579 C 173.236 86.294,174.565 85.114,176.066 86.066 M174.696 97.052 C 174.696 97.837,175.385 98.419,175.811 97.993 C 176.191 97.613,175.668 96.350,175.130 96.350 C 174.891 96.350,174.696 96.666,174.696 97.052 M173.864 100.730 C 173.724 101.265,173.330 101.703,172.989 101.703 C 172.230 101.703,171.557 104.111,172.150 104.705 C 172.396 104.951,172.957 104.714,173.469 104.148 C 173.959 103.606,174.621 103.163,174.939 103.163 C 175.871 103.163,177.273 101.320,176.960 100.505 C 176.527 99.376,174.173 99.547,173.864 100.730 M176.730 104.745 C 176.816 105.347,177.105 105.839,177.372 105.839 C 177.640 105.839,177.929 105.347,178.014 104.745 C 178.121 103.991,177.921 103.650,177.372 103.650 C 176.823 103.650,176.623 103.991,176.730 104.745 M170.922 106.158 C 169.551 107.529,170.151 112.979,171.655 112.806 C 172.720 112.684,173.025 112.368,173.152 111.262 C 173.244 110.459,173.113 109.994,172.842 110.162 C 172.584 110.321,172.127 110.155,171.825 109.792 C 171.146 108.973,171.944 108.200,173.723 107.954 C 174.559 107.839,174.939 107.481,174.939 106.813 C 174.939 105.649,171.923 105.157,170.922 106.158 M179.725 111.225 C 179.565 111.644,179.681 112.236,179.984 112.539 C 180.395 112.949,180.535 112.755,180.535 111.776 C 180.535 110.312,180.171 110.064,179.725 111.225 M168.167 120.616 C 168.023 120.848,168.317 121.410,168.820 121.864 C 169.816 122.766,170.620 122.175,170.131 120.901 C 169.834 120.127,168.581 119.946,168.167 120.616 M184.211 124.853 C 183.556 125.336,183.420 125.707,183.769 126.057 C 184.119 126.406,184.463 126.335,184.884 125.828 C 185.787 124.740,185.308 124.046,184.211 124.853 M155.515 152.733 C 154.869 153.777,156.976 154.800,157.830 153.857 C 158.275 153.365,158.493 152.816,158.314 152.637 C 157.844 152.167,155.822 152.236,155.515 152.733 M141.427 173.651 C 140.931 174.200,139.901 176.503,139.140 178.769 C 138.379 181.034,137.331 183.837,136.812 184.996 C 136.293 186.156,134.951 189.951,133.829 193.431 C 132.708 196.910,131.346 200.742,130.803 201.946 C 130.260 203.151,128.950 206.752,127.892 209.949 C 126.833 213.145,125.721 216.211,125.420 216.761 C 125.119 217.311,123.581 221.484,122.003 226.034 C 117.099 240.172,115.959 243.327,115.638 243.648 C 115.468 243.818,115.328 244.368,115.328 244.869 C 115.328 245.371,114.893 246.635,114.360 247.679 C 113.827 248.724,112.540 252.164,111.499 255.324 C 110.458 258.485,109.162 262.056,108.619 263.260 C 108.076 264.465,107.353 266.436,107.013 267.640 C 106.673 268.844,106.024 270.596,105.571 271.533 C 104.081 274.615,104.012 275.302,105.085 276.374 C 106.229 277.519,242.197 278.002,244.314 276.869 C 245.802 276.073,245.523 272.787,243.503 267.295 C 241.859 262.823,239.948 257.564,233.991 241.119 C 232.634 237.372,230.331 231.022,228.873 227.007 C 227.415 222.993,225.159 216.708,223.860 213.041 C 222.561 209.375,221.370 206.166,221.212 205.911 C 221.055 205.657,219.482 201.321,217.717 196.277 C 215.952 191.232,213.547 184.367,212.372 181.022 C 209.974 174.196,208.607 172.377,206.372 173.039 C 204.748 173.519,151.881 174.071,148.662 173.641 C 147.324 173.462,145.352 173.167,144.280 172.984 C 142.672 172.711,142.172 172.828,141.427 173.651 M175.669 174.411 C 191.861 174.408,205.684 174.232,206.387 174.019 C 208.293 173.442,209.243 174.795,211.553 181.377 C 215.225 191.837,221.305 208.765,228.207 227.737 C 229.619 231.618,231.925 237.968,233.333 241.849 C 234.740 245.730,236.888 251.642,238.105 254.988 C 244.033 271.273,244.329 272.208,244.184 274.180 L 244.039 276.156 175.182 276.281 C 98.163 276.421,104.338 276.709,105.903 273.049 C 106.318 272.082,107.191 269.676,107.844 267.703 C 108.497 265.730,109.282 263.650,109.590 263.080 C 110.116 262.105,111.810 257.393,117.225 241.836 C 118.485 238.215,119.716 234.931,119.960 234.537 C 120.204 234.142,121.653 230.207,123.180 225.791 C 128.779 209.603,130.739 204.114,131.268 203.133 C 131.566 202.582,133.015 198.530,134.489 194.131 C 135.962 189.731,137.838 184.521,138.657 182.553 C 139.476 180.585,140.146 178.660,140.146 178.276 C 140.146 175.697,142.141 173.599,144.200 174.011 C 145.316 174.234,159.477 174.415,175.669 174.411 M103.441 296.142 C 102.151 297.432,102.304 330.819,103.607 332.428 L 104.537 333.577 175.365 333.577 C 242.712 333.577,246.237 333.534,247.063 332.708 C 247.865 331.906,247.932 330.498,247.932 314.538 L 247.932 297.238 246.783 296.307 C 245.158 294.991,104.754 294.829,103.441 296.142 M246.090 296.976 C 247.226 298.113,247.447 330.851,246.326 331.971 C 245.180 333.117,105.419 332.880,104.275 331.730 C 103.275 330.725,103.126 300.225,104.108 297.641 L 104.597 296.356 145.364 296.204 C 230.487 295.888,245.114 296.000,246.090 296.976 M103.434 352.420 C 102.151 354.251,102.290 997.468,103.573 999.053 C 105.099 1000.938,120.024 1000.843,121.232 998.941 C 122.242 997.350,121.480 352.770,120.467 352.029 C 118.688 350.728,104.389 351.056,103.434 352.420 M136.191 352.143 C 134.864 353.742,134.777 369.042,134.488 652.068 C 134.185 948.901,134.345 998.022,135.617 999.294 C 136.690 1000.367,150.466 1000.317,151.547 999.235 C 152.240 998.542,152.311 968.523,152.311 676.187 L 152.311 353.903 151.303 352.620 C 150.015 350.983,137.482 350.587,136.191 352.143 M166.635 352.534 C 165.946 353.586,165.796 357.735,165.393 386.963 C 164.827 427.984,165.040 997.471,165.622 998.657 C 166.733 1000.922,181.767 1001.232,183.554 999.026 C 184.592 997.743,184.953 357.870,183.918 354.142 C 183.202 351.567,182.434 351.338,174.496 351.338 C 167.516 351.338,167.408 351.355,166.635 352.534 M199.241 352.029 C 197.995 352.940,197.720 997.695,198.965 999.195 C 199.881 1000.300,213.640 1000.403,214.730 999.313 C 216.012 998.031,216.059 986.287,216.016 675.714 C 215.971 345.027,216.030 354.291,213.947 352.499 C 212.287 351.071,201.043 350.711,199.241 352.029 M229.898 352.029 C 228.475 353.070,228.400 997.951,229.823 999.374 C 231.342 1000.893,245.984 1000.652,247.251 999.087 C 248.333 997.751,248.744 358.028,247.665 354.142 C 247.387 353.141,246.745 352.101,246.239 351.831 C 244.747 351.032,231.035 351.198,229.898 352.029 M119.992 353.013 C 120.826 354.156,121.039 997.221,120.205 998.540 C 119.558 999.564,104.808 999.626,104.178 998.607 C 103.291 997.173,103.042 872.970,103.426 624.331 C 103.894 321.775,103.722 353.334,104.909 352.455 C 106.479 351.293,119.076 351.759,119.992 353.013 M150.569 353.041 C 151.389 354.130,151.515 996.477,150.696 998.127 C 149.931 999.671,136.689 999.680,135.926 998.138 C 135.311 996.895,135.135 443.412,135.734 394.647 L 136.239 353.528 137.332 352.628 C 138.989 351.266,149.479 351.593,150.569 353.041 M182.344 352.937 C 183.491 354.085,183.725 997.491,182.580 998.637 C 181.588 999.630,168.442 999.817,167.153 998.857 C 165.018 997.267,165.010 358.452,167.145 353.191 C 167.819 351.531,180.726 351.316,182.344 352.937 M213.518 352.969 C 214.130 353.580,214.441 355.013,214.674 358.290 C 215.080 363.985,215.062 990.220,214.657 995.134 L 214.355 998.783 207.069 998.783 L 199.784 998.783 199.377 996.594 C 199.073 994.959,199.384 412.049,199.715 361.360 C 199.783 351.016,199.186 351.765,207.192 351.983 C 211.597 352.102,212.846 352.297,213.518 352.969 M246.090 352.937 C 247.216 354.064,247.475 997.488,246.350 998.613 C 245.192 999.772,231.809 999.693,230.637 998.520 C 229.102 996.985,229.365 353.625,230.900 352.481 C 232.418 351.349,244.878 351.724,246.090 352.937 M104.623 1014.432 C 102.702 1015.165,102.676 1015.490,102.676 1038.969 C 102.676 1060.288,102.732 1061.761,103.569 1062.796 L 104.463 1063.898 174.760 1063.887 C 213.423 1063.881,245.535 1063.724,246.119 1063.539 C 248.087 1062.914,248.243 1060.882,248.083 1038.091 L 247.932 1016.571 246.824 1015.463 L 245.715 1014.355 175.534 1014.254 C 136.934 1014.199,105.024 1014.279,104.623 1014.432 M244.442 1015.541 C 245.467 1015.779,246.453 1016.120,246.632 1016.300 C 247.386 1017.053,246.998 1061.812,246.233 1062.284 C 244.699 1063.233,238.671 1063.305,172.888 1063.163 C 108.550 1063.024,105.100 1062.973,104.275 1062.146 C 102.968 1060.835,102.987 1018.358,104.297 1016.360 L 105.132 1015.085 173.856 1015.097 C 212.164 1015.103,243.404 1015.300,244.442 1015.541 M114.016 1078.346 C 107.916 1080.834,113.115 1100.116,122.581 1110.119 C 130.916 1118.925,151.236 1128.954,160.745 1128.954 C 161.593 1128.954,163.820 1129.278,165.694 1129.675 C 169.687 1130.521,181.747 1130.659,186.131 1129.908 C 187.737 1129.633,190.584 1129.205,192.457 1128.955 C 216.893 1125.705,238.810 1109.149,241.418 1091.971 C 242.687 1083.610,242.349 1079.924,240.199 1078.691 C 238.944 1077.971,115.759 1077.634,114.016 1078.346 M240.065 1079.805 C 240.827 1080.619,242.011 1084.989,241.635 1085.598 C 241.502 1085.813,241.154 1087.608,240.861 1089.588 C 238.577 1105.046,224.850 1118.716,205.049 1125.255 C 201.091 1126.561,200.071 1126.785,190.998 1128.339 C 156.586 1134.232,118.441 1116.754,113.870 1093.000 C 113.581 1091.497,113.134 1089.334,112.876 1088.193 C 112.005 1084.325,112.271 1081.358,113.610 1080.019 L 114.812 1078.818 177.097 1078.947 C 231.720 1079.060,239.466 1079.165,240.065 1079.805 " stroke="none" fill="#887c80" fill-rule="evenodd"></path><path id="path7" d="M169.320 66.809 C 162.199 69.484,160.014 73.076,152.977 93.674 C 151.514 97.956,150.131 101.898,149.904 102.433 C 149.677 102.968,149.166 104.173,148.770 105.109 C 148.373 106.046,147.567 108.236,146.979 109.976 C 146.390 111.715,145.612 113.796,145.249 114.599 C 144.887 115.401,143.676 118.686,142.559 121.898 C 141.443 125.109,140.037 129.051,139.435 130.657 C 138.833 132.263,138.218 133.905,138.068 134.307 C 137.918 134.708,137.246 136.689,136.574 138.709 C 135.267 142.633,134.000 146.107,133.297 147.689 C 133.059 148.224,131.245 153.479,129.266 159.367 C 127.286 165.255,125.181 171.387,124.588 172.993 C 123.995 174.599,122.738 178.102,121.794 180.779 C 120.850 183.455,119.912 185.864,119.709 186.131 C 119.507 186.399,118.791 188.370,118.118 190.511 C 117.445 192.652,116.213 196.110,115.379 198.194 C 114.546 200.279,112.793 205.097,111.485 208.900 C 110.177 212.703,108.837 216.472,108.507 217.275 C 108.177 218.078,106.860 221.691,105.580 225.304 C 104.301 228.917,102.245 234.720,101.011 238.200 C 99.778 241.679,98.462 245.182,98.087 245.985 C 97.712 246.788,96.534 249.964,95.470 253.041 C 94.405 256.119,93.047 259.951,92.452 261.557 C 91.857 263.163,90.281 267.543,88.951 271.290 C 87.621 275.036,85.779 280.220,84.858 282.808 C 81.850 291.260,80.711 309.585,81.723 333.219 C 82.041 340.642,82.285 347.482,82.266 348.418 C 81.031 406.499,81.296 1058.244,82.557 1065.590 C 83.436 1070.711,85.522 1074.598,89.282 1078.123 C 91.380 1080.091,91.380 1080.092,91.704 1084.449 C 91.881 1086.846,92.224 1089.793,92.465 1090.998 C 93.942 1098.386,94.631 1101.191,95.395 1102.920 C 95.867 1103.990,96.788 1106.180,97.440 1107.786 C 100.868 1116.219,111.502 1127.798,123.045 1135.668 C 127.060 1138.404,140.023 1144.194,145.742 1145.805 C 157.087 1149.000,156.079 1148.907,179.107 1148.884 C 196.245 1148.866,200.612 1148.730,202.190 1148.161 C 203.260 1147.775,204.632 1147.457,205.238 1147.453 C 205.844 1147.449,206.719 1147.253,207.184 1147.017 C 207.649 1146.782,209.234 1146.204,210.706 1145.733 C 212.178 1145.262,214.538 1144.360,215.951 1143.728 C 217.364 1143.096,218.742 1142.579,219.012 1142.579 C 219.658 1142.579,223.399 1140.692,224.331 1139.896 C 224.732 1139.553,226.529 1138.499,228.323 1137.553 C 234.196 1134.457,241.038 1129.231,244.361 1125.304 C 245.493 1123.966,247.800 1121.414,249.487 1119.634 C 251.174 1117.853,252.555 1116.172,252.555 1115.897 C 252.555 1115.623,252.876 1115.076,253.270 1114.683 C 254.458 1113.494,259.716 1102.905,259.989 1101.151 C 260.128 1100.250,260.727 1097.871,261.318 1095.864 C 262.111 1093.173,262.476 1090.296,262.705 1084.915 C 263.029 1077.328,263.677 1075.127,266.535 1071.912 C 266.944 1071.451,267.516 1070.137,267.805 1068.992 C 268.550 1066.042,268.527 292.361,267.782 288.564 C 267.493 287.092,266.577 284.187,265.747 282.109 C 264.916 280.030,263.439 275.979,262.464 273.106 C 261.489 270.234,260.303 267.007,259.829 265.937 C 259.355 264.866,257.827 260.596,256.434 256.448 C 255.040 252.299,253.615 248.349,253.268 247.669 C 252.637 246.435,251.276 242.700,247.603 232.117 C 246.535 229.039,245.355 225.864,244.982 225.061 C 244.609 224.258,242.962 219.659,241.321 214.842 C 239.680 210.024,238.166 205.864,237.956 205.596 C 237.746 205.328,237.023 203.358,236.349 201.217 C 235.018 196.988,233.639 193.363,231.908 189.546 C 231.299 188.203,230.081 184.915,229.201 182.238 C 228.321 179.562,227.205 176.496,226.721 175.426 C 226.236 174.355,225.155 171.399,224.317 168.856 C 223.480 166.314,222.401 163.358,221.920 162.287 C 221.439 161.217,220.883 159.574,220.685 158.637 C 220.196 156.324,219.077 152.912,218.131 150.852 C 217.397 149.252,215.149 142.992,210.618 129.927 C 209.551 126.849,208.375 123.674,208.004 122.871 C 207.269 121.278,204.371 113.262,200.000 100.730 C 198.459 96.314,196.715 91.496,196.124 90.024 C 195.533 88.552,194.287 85.049,193.355 82.238 C 190.614 73.976,187.988 70.448,182.482 67.633 C 179.761 66.243,172.104 65.763,169.320 66.809 M182.012 68.469 C 187.341 71.125,189.668 74.422,193.102 84.185 C 194.185 87.263,196.633 94.161,198.544 99.513 C 200.454 104.866,203.067 112.216,204.350 115.847 C 205.633 119.478,206.916 122.884,207.201 123.417 C 207.486 123.949,208.525 126.891,209.510 129.954 C 210.496 133.017,211.473 135.742,211.681 136.010 C 211.890 136.277,213.068 139.417,214.299 142.986 C 215.530 146.556,216.993 150.497,217.551 151.745 C 218.109 152.993,218.969 155.547,219.463 157.421 C 220.440 161.129,224.194 171.877,226.007 176.156 C 226.630 177.628,227.853 181.022,228.723 183.698 C 229.593 186.375,230.751 189.440,231.297 190.511 C 232.379 192.636,235.875 202.135,240.609 215.815 C 242.276 220.633,243.968 225.231,244.368 226.034 C 244.769 226.837,245.486 228.808,245.962 230.414 C 246.438 232.019,247.551 235.195,248.434 237.470 C 251.077 244.278,252.981 249.443,255.966 257.908 C 261.580 273.825,263.293 278.549,264.966 282.731 C 265.901 285.069,266.669 287.612,266.672 288.382 C 266.675 289.151,267.003 290.856,267.402 292.170 C 268.483 295.733,268.464 1063.422,267.383 1066.423 C 266.997 1067.494,266.678 1068.756,266.674 1069.227 C 266.670 1069.699,265.627 1071.648,264.355 1073.559 L 262.044 1077.033 261.736 1084.624 C 261.443 1091.835,261.065 1094.218,259.544 1098.428 C 259.179 1099.437,258.881 1100.723,258.881 1101.286 C 258.881 1104.479,251.818 1116.029,246.127 1122.141 C 244.010 1124.416,242.126 1126.440,241.941 1126.638 C 239.071 1129.723,233.150 1134.012,228.573 1136.323 C 226.952 1137.141,224.562 1138.542,223.262 1139.436 C 221.962 1140.330,220.412 1141.202,219.817 1141.372 C 219.222 1141.543,216.545 1142.518,213.869 1143.540 C 211.192 1144.561,208.127 1145.625,207.056 1145.905 C 205.985 1146.185,203.973 1146.755,202.585 1147.173 C 200.466 1147.810,196.671 1147.932,178.947 1147.932 L 157.833 1147.932 151.242 1146.257 C 141.777 1143.853,129.933 1138.993,124.088 1135.115 C 108.210 1124.583,98.137 1111.575,94.821 1097.324 C 92.803 1088.653,92.457 1086.626,92.457 1083.478 C 92.457 1080.280,92.424 1080.198,90.127 1077.708 C 85.247 1072.421,84.411 1070.894,83.355 1065.345 C 82.257 1059.581,82.042 356.069,83.136 351.217 C 83.651 348.934,83.652 347.903,83.143 345.620 C 82.247 341.605,82.234 300.896,83.127 294.161 C 83.902 288.310,85.953 282.025,96.546 253.041 C 98.062 248.893,100.373 242.543,101.681 238.929 C 102.989 235.316,105.288 228.966,106.790 224.818 C 108.292 220.669,110.920 213.333,112.630 208.516 C 116.991 196.228,119.034 190.594,120.661 186.375 C 123.289 179.560,125.110 174.476,129.901 160.584 C 135.717 143.718,143.909 120.826,148.184 109.489 C 149.446 106.144,151.643 100.122,153.066 96.107 C 160.411 75.391,161.087 73.896,164.554 70.739 C 168.814 66.859,176.719 65.832,182.012 68.469 M174.547 86.836 C 173.575 87.808,174.004 89.288,175.450 89.947 C 176.828 90.575,177.280 90.065,176.853 88.364 C 176.401 86.563,175.450 85.933,174.547 86.836 M178.105 94.693 C 178.102 96.453,179.666 101.236,180.754 102.789 C 182.651 105.498,181.112 98.746,178.897 94.647 L 178.108 93.187 178.105 94.693 M184.267 112.135 C 184.480 114.161,185.750 117.275,186.363 117.275 C 186.563 117.275,186.625 116.673,186.502 115.937 C 186.212 114.210,185.259 111.922,184.830 111.922 C 184.646 111.922,184.399 111.539,184.281 111.071 C 184.162 110.602,184.156 111.081,184.267 112.135 M188.874 124.430 C 188.838 125.019,189.001 126.005,189.237 126.619 C 189.472 127.234,190.164 129.270,190.774 131.144 C 191.384 133.017,192.286 135.131,192.779 135.842 C 193.271 136.552,193.674 137.567,193.674 138.097 C 193.674 138.628,194.001 139.689,194.401 140.455 L 195.128 141.849 195.131 140.365 C 195.134 138.789,194.163 136.263,193.552 136.257 C 193.352 136.255,193.187 135.625,193.187 134.858 C 193.187 133.628,192.723 132.213,190.571 126.886 C 190.273 126.150,189.880 125.547,189.696 125.547 C 189.512 125.547,189.267 125.055,189.151 124.453 L 188.940 123.358 188.874 124.430 M160.584 126.034 C 160.584 126.837,160.669 127.494,160.772 127.494 C 160.875 127.494,161.057 126.837,161.174 126.034 C 161.292 125.231,161.208 124.574,160.986 124.574 C 160.765 124.574,160.584 125.231,160.584 126.034 M195.869 144.422 C 196.009 145.569,196.558 147.318,197.089 148.307 L 198.054 150.107 198.054 148.556 C 198.054 147.092,197.218 144.573,196.555 144.039 C 196.389 143.905,196.109 143.467,195.933 143.066 C 195.757 142.664,195.728 143.274,195.869 144.422 M149.687 155.514 C 149.175 156.849,149.357 157.178,150.608 157.178 C 151.970 157.178,152.040 157.030,151.321 155.686 C 150.710 154.544,150.085 154.479,149.687 155.514 M142.170 174.845 C 141.842 175.241,140.921 177.580,140.122 180.043 C 139.324 182.506,138.433 184.965,138.143 185.508 C 137.852 186.050,136.538 189.697,135.222 193.612 C 133.906 197.527,132.307 201.934,131.669 203.406 C 131.031 204.878,129.818 208.251,128.973 210.901 C 128.129 213.551,127.055 216.508,126.586 217.471 C 126.118 218.434,124.785 222.178,123.625 225.791 C 122.465 229.404,121.026 233.455,120.428 234.793 C 119.830 236.131,118.991 238.321,118.563 239.659 C 116.614 245.751,115.664 248.455,115.314 248.905 C 115.106 249.173,114.031 252.085,112.925 255.376 C 111.819 258.667,110.509 262.280,110.014 263.405 C 109.518 264.530,108.666 266.764,108.118 268.370 C 107.571 269.976,106.853 271.969,106.523 272.799 C 105.176 276.191,99.028 275.912,175.167 275.912 L 243.796 275.912 243.796 274.011 C 243.796 272.966,243.018 269.955,242.067 267.320 C 241.117 264.686,239.265 259.514,237.952 255.826 C 236.639 252.139,235.443 248.926,235.295 248.687 C 235.147 248.447,233.952 245.223,232.639 241.522 C 231.326 237.821,229.017 231.399,227.508 227.251 C 222.637 213.865,219.888 206.263,216.771 197.567 C 207.529 171.780,208.463 173.679,205.494 174.633 C 203.428 175.297,146.990 175.169,144.255 174.493 C 143.184 174.229,142.600 174.328,142.170 174.845 M143.992 175.856 C 144.423 176.375,144.380 176.594,143.808 176.814 C 143.298 177.009,143.066 176.799,143.066 176.140 C 143.066 175.006,143.242 174.952,143.992 175.856 M208.151 176.986 C 209.185 179.213,208.972 180.409,207.791 179.008 L 206.822 177.859 207.530 179.940 C 208.466 182.689,209.383 184.245,208.956 182.360 C 208.767 181.523,208.856 181.022,209.193 181.022 C 209.523 181.022,209.740 182.108,209.752 183.820 C 209.773 186.832,212.046 193.263,212.202 190.754 C 212.255 189.913,212.347 189.800,212.501 190.389 C 212.623 190.858,212.943 191.241,213.212 191.241 C 213.480 191.241,213.639 192.062,213.565 193.066 C 213.486 194.128,213.640 194.851,213.933 194.796 C 214.211 194.744,214.732 195.784,215.092 197.107 C 215.453 198.431,215.927 199.513,216.146 199.513 C 216.366 199.513,216.545 200.157,216.545 200.945 C 216.545 201.732,216.764 202.511,217.032 202.676 C 217.299 202.842,217.518 204.080,217.518 205.427 C 217.518 207.351,217.701 207.925,218.370 208.100 C 219.359 208.358,220.438 210.403,220.438 212.019 C 220.438 212.635,220.657 213.139,220.925 213.139 C 221.192 213.139,221.408 213.850,221.404 214.720 C 221.398 215.920,221.283 216.126,220.925 215.572 C 220.205 214.459,220.348 215.266,221.195 217.097 C 221.631 218.041,221.856 218.271,221.727 217.640 C 221.604 217.038,221.701 216.423,221.943 216.273 C 222.186 216.124,222.384 216.548,222.384 217.218 C 222.384 217.887,222.603 218.569,222.871 218.735 C 223.139 218.900,223.354 219.515,223.350 220.102 C 223.344 220.968,223.255 221.031,222.871 220.438 C 222.452 219.789,222.400 219.789,222.407 220.438 C 222.420 221.586,223.690 223.062,224.000 222.289 C 224.164 221.879,224.268 221.956,224.292 222.506 C 224.314 222.974,224.550 223.358,224.818 223.358 C 225.085 223.358,225.304 224.124,225.304 225.061 C 225.304 225.998,225.523 226.764,225.791 226.764 C 226.058 226.764,226.277 227.299,226.277 227.952 C 226.277 228.605,226.500 229.277,226.772 229.445 C 227.044 229.613,227.237 230.776,227.203 232.029 C 227.139 234.312,228.635 238.361,228.764 236.253 C 228.814 235.432,228.858 235.413,229.046 236.131 C 229.168 236.600,229.471 236.983,229.719 236.983 C 229.967 236.983,230.170 237.487,230.170 238.102 C 230.170 238.718,230.370 239.429,230.615 239.684 C 231.205 240.297,231.447 242.435,231.006 243.142 C 230.813 243.452,230.861 244.219,231.112 244.846 C 231.554 245.950,231.572 245.940,231.666 244.526 C 231.744 243.349,231.804 243.278,231.974 244.161 C 232.090 244.763,232.388 245.255,232.637 245.255 C 232.886 245.255,233.082 246.077,233.073 247.080 L 233.056 248.905 232.360 247.689 C 231.406 246.019,231.446 246.894,232.409 248.757 C 233.020 249.939,233.287 250.117,233.648 249.584 C 234.005 249.056,234.089 249.122,234.029 249.878 C 233.986 250.414,233.992 251.290,234.041 251.825 L 234.132 252.798 234.550 251.825 C 234.920 250.962,234.972 251.004,235.002 252.190 C 235.021 252.926,235.255 253.528,235.523 253.528 C 235.791 253.528,236.010 253.953,236.010 254.472 C 236.010 254.992,236.229 255.552,236.496 255.718 C 236.764 255.883,236.983 256.663,236.983 257.450 C 236.983 258.237,237.202 258.881,237.470 258.881 C 237.737 258.881,237.956 259.538,237.956 260.341 C 237.956 261.144,238.122 261.800,238.324 261.800 C 238.792 261.800,239.548 263.589,240.894 267.883 C 241.481 269.757,242.155 271.670,242.392 272.135 C 242.954 273.238,242.945 274.939,242.376 274.939 C 242.131 274.939,241.830 274.665,241.707 274.331 C 241.529 273.844,241.355 273.844,240.839 274.331 C 240.011 275.113,113.660 275.230,110.946 274.452 C 109.811 274.126,109.192 274.126,109.084 274.452 C 108.848 275.159,107.053 275.051,107.071 274.331 C 107.096 273.370,108.401 271.891,108.934 272.221 C 109.211 272.392,110.156 270.231,111.149 267.153 C 112.102 264.202,113.237 261.245,113.672 260.581 C 114.114 259.907,114.320 259.004,114.140 258.534 C 113.962 258.072,113.989 257.866,114.199 258.076 C 114.409 258.286,114.852 257.513,115.184 256.358 C 116.101 253.166,118.678 245.683,119.427 244.039 C 119.792 243.236,120.910 240.282,121.912 237.474 C 122.913 234.666,124.012 231.929,124.354 231.391 C 124.696 230.854,125.463 228.552,126.060 226.277 C 126.656 224.002,127.558 221.265,128.065 220.195 C 128.571 219.124,130.059 215.073,131.371 211.192 C 132.683 207.311,134.409 202.603,135.207 200.730 C 136.829 196.919,139.314 190.063,140.674 185.645 C 142.331 180.263,143.438 177.501,144.106 177.077 C 144.911 176.567,200.663 176.565,204.244 177.075 C 206.147 177.347,206.667 177.296,206.316 176.873 C 206.058 176.563,205.992 176.165,206.168 175.989 C 206.818 175.339,207.559 175.712,208.151 176.986 M224.338 226.075 C 224.342 226.588,224.568 227.336,224.840 227.737 C 225.200 228.270,225.246 228.073,225.007 227.007 C 224.607 225.218,224.328 224.830,224.338 226.075 M201.460 296.719 L 196.837 296.953 200.000 297.683 C 204.662 298.759,245.742 299.122,245.742 298.088 C 245.742 297.703,245.359 297.277,244.891 297.140 C 243.695 296.791,207.072 296.436,201.460 296.719 M103.883 318.901 C 103.351 323.871,104.158 331.091,105.269 331.303 C 106.532 331.544,106.320 318.684,105.031 316.864 C 104.237 315.742,104.218 315.775,103.883 318.901 M105.207 352.895 C 103.647 354.456,104.503 355.129,107.719 354.871 C 109.788 354.704,111.605 354.871,113.194 355.372 C 119.155 357.253,122.968 355.769,119.113 353.069 C 117.735 352.104,106.143 351.959,105.207 352.895 M137.544 353.036 C 136.710 353.871,136.509 354.838,137.057 355.386 C 137.231 355.560,137.632 355.348,137.949 354.915 C 138.624 353.992,142.445 353.841,145.052 354.635 C 149.612 356.025,151.658 355.549,150.128 353.454 C 149.178 352.152,138.774 351.807,137.544 353.036 M167.973 352.933 C 165.844 355.498,165.210 995.664,167.335 998.222 C 168.136 999.188,180.867 999.470,180.272 998.509 C 180.096 998.224,179.372 998.028,178.662 998.073 C 169.712 998.651,169.901 998.878,169.532 987.105 C 169.364 981.752,169.143 977.281,169.042 977.170 C 168.940 977.058,168.856 981.646,168.856 987.364 C 168.856 995.682,168.735 997.640,168.248 997.153 C 167.764 996.669,167.635 956.336,167.614 798.881 L 167.588 601.217 167.977 732.117 C 168.191 804.112,168.556 871.886,168.790 882.725 L 169.214 902.433 169.024 880.292 C 168.530 822.943,168.319 357.829,168.785 356.617 C 169.668 354.326,173.716 354.345,181.144 356.674 C 183.107 357.289,183.198 353.767,181.242 352.876 C 179.479 352.073,168.649 352.119,167.973 352.933 M200.730 352.974 C 199.370 353.991,200.695 354.484,203.803 354.117 C 205.295 353.941,206.503 354.081,207.299 354.522 C 207.968 354.893,209.069 355.204,209.746 355.214 C 210.422 355.223,211.463 355.572,212.058 355.989 L 213.140 356.747 213.138 677.522 C 213.137 853.948,213.301 998.297,213.502 998.297 C 214.502 998.297,215.173 367.648,214.185 357.784 C 213.688 352.829,213.366 352.591,206.918 352.401 C 202.865 352.281,201.486 352.409,200.730 352.974 M231.241 352.895 C 229.611 354.526,230.527 355.272,233.755 354.941 C 235.977 354.713,237.526 354.839,239.230 355.386 C 245.126 357.278,248.591 355.988,245.197 353.163 C 243.930 352.108,232.252 351.884,231.241 352.895 M118.730 354.009 C 119.518 354.958,118.563 355.354,115.992 355.142 C 114.672 355.033,114.072 354.737,113.959 354.136 C 113.745 353.010,117.811 352.902,118.730 354.009 M148.905 354.015 C 149.425 354.641,149.260 354.745,147.748 354.745 C 146.506 354.745,145.985 354.529,145.985 354.015 C 145.985 353.570,146.438 353.285,147.142 353.285 C 147.779 353.285,148.572 353.613,148.905 354.015 M180.986 353.971 C 182.367 355.635,178.679 355.803,175.711 354.212 L 173.980 353.285 177.198 353.285 C 179.375 353.285,180.601 353.507,180.986 353.971 M211.922 354.059 C 212.835 354.756,212.762 354.793,210.743 354.652 C 209.560 354.569,208.501 354.227,208.391 353.893 C 208.104 353.020,210.723 353.143,211.922 354.059 M244.678 354.380 C 244.936 355.733,240.620 355.599,239.888 354.231 C 239.376 353.274,239.463 353.238,241.935 353.380 C 243.935 353.495,244.553 353.720,244.678 354.380 M136.070 434.307 C 135.057 582.144,135.637 996.892,136.859 998.418 C 137.836 999.639,139.312 999.160,138.955 997.738 C 138.777 997.029,138.635 978.497,138.641 956.555 C 138.646 934.614,138.536 916.777,138.396 916.917 C 138.256 917.057,137.985 935.205,137.794 957.247 L 137.447 997.324 137.024 952.555 C 136.703 918.487,136.753 903.148,137.234 888.385 C 137.678 874.734,137.771 858.941,137.546 835.100 C 137.370 816.464,137.196 707.384,137.159 592.701 C 137.121 478.017,136.956 381.557,136.792 378.345 C 136.628 375.134,136.303 400.316,136.070 434.307 M182.208 677.616 C 182.219 837.397,182.342 947.871,182.482 923.114 C 182.861 855.858,182.882 499.490,182.510 439.416 C 182.333 410.645,182.196 517.835,182.208 677.616 M246.032 414.964 C 245.228 457.338,245.688 957.174,246.533 958.110 C 246.633 958.222,246.715 832.036,246.715 677.697 C 246.715 523.358,246.638 397.080,246.544 397.080 C 246.449 397.080,246.219 405.128,246.032 414.964 M119.950 678.102 C 119.950 826.375,120.005 886.959,120.073 812.734 C 120.141 738.509,120.141 617.195,120.073 543.147 C 120.005 469.100,119.950 529.830,119.950 678.102 M104.312 444.282 C 104.312 446.825,104.394 447.865,104.494 446.594 C 104.594 445.322,104.594 443.242,104.494 441.971 C 104.394 440.700,104.312 441.740,104.312 444.282 M104.102 656.691 C 103.987 769.100,103.966 891.727,104.055 929.197 C 104.239 1006.501,103.795 999.232,108.316 998.923 C 110.509 998.773,110.585 998.728,109.246 998.378 C 108.443 998.167,107.457 997.821,107.056 997.607 C 106.414 997.265,106.290 988.169,106.029 922.088 C 105.866 880.767,105.560 842.360,105.350 836.740 C 105.141 831.119,104.821 742.324,104.640 639.416 L 104.312 452.311 104.102 656.691 M230.163 608.151 C 230.160 667.500,230.042 758.321,229.902 809.976 C 229.599 922.221,230.067 997.001,231.081 998.222 C 231.540 998.774,232.456 999.012,234.001 998.979 L 236.253 998.932 234.468 998.199 C 232.004 997.186,232.172 1001.571,232.135 937.226 C 232.104 882.687,231.944 859.296,231.387 828.224 C 231.260 821.131,231.154 744.434,231.150 657.786 C 231.146 553.086,230.980 500.243,230.657 500.243 C 230.334 500.243,230.168 536.541,230.163 608.151 M167.757 589.642 C 167.660 591.190,167.580 590.049,167.579 587.105 C 167.578 584.161,167.657 582.893,167.755 584.289 C 167.853 585.684,167.854 588.093,167.757 589.642 M199.731 917.129 C 199.752 984.350,199.865 997.622,200.420 998.151 C 201.105 998.804,200.869 912.169,200.039 858.394 C 199.837 845.291,199.715 868.486,199.731 917.129 M137.927 900.730 C 137.927 908.358,137.995 911.478,138.077 907.664 C 138.159 903.850,138.159 897.609,138.077 893.796 C 137.995 889.982,137.927 893.102,137.927 900.730 M114.600 998.538 C 114.418 998.832,115.022 999.027,116.111 999.027 C 118.132 999.027,118.161 998.831,116.210 998.364 C 115.490 998.191,114.766 998.270,114.600 998.538 M107.917 1016.094 L 106.813 1016.373 108.029 1016.799 C 108.698 1017.033,109.465 1017.154,109.732 1017.068 C 110.000 1016.983,111.423 1016.760,112.895 1016.573 L 115.572 1016.233 112.296 1016.024 C 110.494 1015.909,108.524 1015.941,107.917 1016.094 M198.540 1016.021 L 195.377 1016.302 199.270 1017.028 C 205.062 1018.108,245.831 1018.111,245.627 1017.032 C 245.394 1015.802,209.645 1015.034,198.540 1016.021 M103.879 1043.553 C 103.363 1049.747,103.992 1060.868,104.911 1061.800 C 106.004 1062.909,245.052 1062.909,245.752 1061.800 C 246.005 1061.399,246.161 1060.904,246.098 1060.701 C 246.034 1060.497,214.559 1060.278,176.154 1060.214 L 106.326 1060.097 106.054 1051.338 C 105.853 1044.837,105.584 1042.146,105.011 1040.900 L 104.240 1039.222 103.879 1043.553 M113.829 1080.332 C 111.893 1082.268,113.651 1093.511,116.904 1100.000 C 122.153 1110.466,136.841 1121.311,151.095 1125.244 C 153.771 1125.983,156.681 1126.808,157.560 1127.078 C 158.440 1127.349,160.520 1127.649,162.183 1127.745 C 163.846 1127.842,165.972 1128.153,166.907 1128.437 C 167.842 1128.721,169.802 1128.954,171.262 1128.954 C 175.440 1128.954,173.601 1128.041,168.342 1127.505 C 158.629 1126.514,155.138 1125.649,145.255 1121.781 C 138.097 1118.979,137.114 1118.398,128.902 1112.098 C 117.706 1103.508,109.479 1081.952,116.586 1079.827 L 118.005 1079.402 116.423 1079.361 C 115.427 1079.334,114.467 1079.694,113.829 1080.332 M202.676 1079.820 C 207.762 1080.005,217.909 1080.332,225.227 1080.547 C 240.631 1080.999,239.896 1080.748,239.917 1085.558 C 239.929 1088.127,240.043 1088.618,240.459 1087.902 C 241.239 1086.558,240.740 1081.408,239.732 1080.399 C 238.966 1079.633,236.980 1079.559,216.163 1079.522 C 199.780 1079.493,196.013 1079.576,202.676 1079.820 M238.995 1092.457 C 237.309 1098.019,230.477 1108.573,227.049 1110.912 C 226.491 1111.293,225.121 1112.431,224.005 1113.441 C 222.888 1114.451,220.370 1116.083,218.408 1117.067 C 216.447 1118.052,214.292 1119.245,213.620 1119.720 C 211.054 1121.531,200.372 1125.236,193.431 1126.722 L 190.024 1127.452 192.701 1127.263 C 211.487 1125.936,233.284 1111.448,238.656 1096.718 C 239.385 1094.721,239.909 1092.452,239.820 1091.677 C 239.671 1090.368,239.612 1090.423,238.995 1092.457 M182.533 1128.022 C 181.892 1128.278,181.498 1128.619,181.659 1128.780 C 182.057 1129.178,186.939 1128.536,187.839 1127.968 C 188.824 1127.344,184.106 1127.393,182.533 1128.022 " stroke="none" fill="#cccbca" fill-rule="evenodd"></path><path id="path8" d="M144.106 177.077 C 143.438 177.501,142.331 180.263,140.674 185.645 C 139.314 190.063,136.829 196.919,135.207 200.730 C 134.409 202.603,132.683 207.311,131.371 211.192 C 130.059 215.073,128.571 219.124,128.065 220.195 C 127.558 221.265,126.656 224.002,126.060 226.277 C 125.463 228.552,124.696 230.854,124.354 231.391 C 124.012 231.929,122.913 234.666,121.912 237.474 C 120.910 240.282,119.792 243.236,119.427 244.039 C 118.637 245.775,116.089 253.220,115.063 256.792 C 114.663 258.186,113.821 260.376,113.192 261.658 C 111.669 264.766,109.289 272.743,109.625 273.618 C 110.113 274.890,112.623 274.939,176.644 274.939 C 232.242 274.939,240.346 274.848,240.868 274.219 C 241.571 273.371,240.923 271.116,237.030 260.870 C 235.666 257.280,234.550 253.973,234.550 253.521 C 234.550 253.069,233.979 251.627,233.280 250.316 C 232.582 249.005,231.377 245.803,230.603 243.200 C 229.829 240.597,228.648 237.272,227.980 235.810 C 227.311 234.348,226.762 232.865,226.759 232.513 C 226.757 232.161,226.209 230.702,225.543 229.270 C 224.876 227.839,224.331 226.211,224.331 225.653 C 224.331 225.095,223.921 223.748,223.420 222.660 C 222.271 220.166,220.769 216.112,219.711 212.652 C 219.261 211.180,218.607 209.319,218.259 208.516 C 217.302 206.314,216.302 203.581,214.875 199.270 C 214.166 197.129,212.719 193.380,211.659 190.940 C 210.599 188.499,209.732 186.112,209.732 185.635 C 209.732 185.159,209.216 183.652,208.585 182.287 C 207.953 180.922,207.207 179.236,206.926 178.541 C 206.475 177.428,206.052 177.239,203.379 176.960 C 198.833 176.484,144.872 176.592,144.106 177.077 M107.421 355.097 C 108.291 355.204,109.714 355.204,110.584 355.097 C 111.454 354.989,110.742 354.900,109.002 354.900 C 107.263 354.900,106.551 354.989,107.421 355.097 M145.524 355.257 C 146.174 355.668,149.808 355.938,149.351 355.541 C 149.240 355.444,148.174 355.240,146.984 355.088 C 145.584 354.909,145.068 354.969,145.524 355.257 M172.147 355.089 C 172.752 355.205,173.628 355.201,174.093 355.079 C 174.559 354.957,174.063 354.862,172.993 354.867 C 171.922 354.873,171.541 354.972,172.147 355.089 M208.214 355.367 C 208.448 355.602,209.269 355.715,210.038 355.620 C 211.324 355.459,211.291 355.425,209.611 355.193 C 208.565 355.048,207.969 355.122,208.214 355.367 M234.185 355.093 C 234.921 355.205,236.125 355.205,236.861 355.093 C 237.597 354.982,236.995 354.890,235.523 354.890 C 234.051 354.890,233.449 354.982,234.185 355.093 M168.483 362.530 C 168.483 363.467,168.583 363.850,168.705 363.382 C 168.828 362.914,168.828 362.147,168.705 361.679 C 168.583 361.210,168.483 361.594,168.483 362.530 M168.516 370.316 C 168.516 371.788,168.607 372.391,168.718 371.655 C 168.830 370.918,168.830 369.714,168.718 368.978 C 168.607 368.242,168.516 368.844,168.516 370.316 M168.526 376.642 C 168.526 378.382,168.614 379.094,168.722 378.224 C 168.830 377.354,168.830 375.931,168.722 375.061 C 168.614 374.191,168.526 374.903,168.526 376.642 M168.611 578.102 C 168.611 686.363,168.667 730.651,168.735 676.521 C 168.803 622.391,168.803 533.814,168.735 479.684 C 168.667 425.554,168.611 469.842,168.611 578.102 M212.894 678.102 C 212.894 832.530,212.949 895.633,213.017 818.330 C 213.085 741.027,213.085 614.677,213.017 537.551 C 212.949 460.426,212.894 523.674,212.894 678.102 M137.467 633.090 C 137.467 734.124,137.523 775.456,137.591 724.939 C 137.660 674.422,137.660 591.758,137.591 541.241 C 137.523 490.724,137.467 532.056,137.467 633.090 M245.433 504.866 C 245.434 507.543,245.516 508.575,245.615 507.161 C 245.713 505.747,245.712 503.557,245.612 502.295 C 245.513 501.033,245.432 502.190,245.433 504.866 M245.496 673.236 C 245.496 751.387,245.552 783.285,245.620 744.121 C 245.689 704.957,245.689 641.016,245.620 602.029 C 245.552 563.042,245.496 595.085,245.496 673.236 M169.149 848.905 C 169.255 878.345,169.343 921.794,169.343 945.458 C 169.343 969.122,169.459 988.368,169.600 988.226 C 169.998 987.828,169.828 874.805,169.367 832.847 C 168.965 796.261,168.960 796.640,169.149 848.905 M231.350 805.596 C 231.350 811.217,231.421 813.449,231.507 810.557 C 231.593 807.666,231.593 803.067,231.506 800.339 C 231.420 797.610,231.349 799.976,231.350 805.596 M105.327 821.168 C 105.327 829.732,105.393 833.167,105.474 828.801 C 105.554 824.435,105.554 817.428,105.473 813.230 C 105.392 809.031,105.326 812.603,105.327 821.168 M231.324 821.411 C 231.324 824.221,231.404 825.371,231.502 823.966 C 231.601 822.561,231.601 820.262,231.502 818.856 C 231.404 817.451,231.324 818.601,231.324 821.411 M137.399 821.655 C 137.398 824.063,137.480 825.110,137.582 823.981 C 137.684 822.851,137.685 820.880,137.585 819.601 C 137.484 818.322,137.400 819.246,137.399 821.655 M137.782 855.028 C 137.821 870.663,138.004 891.010,138.190 900.243 C 138.376 909.477,138.425 896.776,138.299 872.019 C 138.172 847.263,137.989 826.916,137.891 826.805 C 137.793 826.693,137.744 839.394,137.782 855.028 M245.433 841.606 C 245.434 844.282,245.516 845.315,245.615 843.901 C 245.713 842.487,245.712 840.297,245.612 839.035 C 245.513 837.772,245.432 838.929,245.433 841.606 M231.821 852.068 C 231.821 855.681,231.897 857.159,231.991 855.353 C 232.085 853.546,232.085 850.590,231.991 848.783 C 231.897 846.977,231.821 848.455,231.821 852.068 M105.802 867.883 C 105.802 873.504,105.873 875.736,105.959 872.845 C 106.046 869.953,106.045 865.354,105.959 862.626 C 105.872 859.897,105.802 862.263,105.802 867.883 M231.781 863.990 C 231.784 865.596,231.875 866.194,231.983 865.320 C 232.091 864.445,232.089 863.131,231.978 862.400 C 231.867 861.669,231.778 862.384,231.781 863.990 M200.677 892.944 C 200.677 896.557,200.754 898.035,200.847 896.229 C 200.941 894.422,200.941 891.466,200.847 889.659 C 200.754 887.853,200.677 889.331,200.677 892.944 M232.351 938.929 C 232.351 967.299,232.410 978.977,232.482 964.879 C 232.553 950.782,232.553 927.570,232.482 913.298 C 232.410 899.025,232.351 910.560,232.351 938.929 M200.650 904.623 C 200.650 906.630,200.736 907.451,200.841 906.448 C 200.946 905.444,200.946 903.802,200.841 902.798 C 200.736 901.794,200.650 902.616,200.650 904.623 M138.332 946.472 C 138.332 947.676,138.427 948.169,138.543 947.567 C 138.659 946.965,138.659 945.979,138.543 945.377 C 138.427 944.775,138.332 945.268,138.332 946.472 M169.638 991.039 C 169.475 991.464,169.554 992.176,169.814 992.621 C 170.190 993.265,170.290 993.107,170.302 991.849 C 170.318 990.117,170.095 989.846,169.638 991.039 M115.120 1080.570 C 112.238 1083.452,116.030 1097.221,121.812 1104.866 C 124.917 1108.972,126.153 1110.097,134.012 1115.968 C 140.063 1120.488,154.477 1125.843,163.625 1126.970 C 165.967 1127.258,169.690 1127.734,171.898 1128.028 C 174.106 1128.322,176.788 1128.469,177.859 1128.354 C 179.625 1128.164,179.567 1128.137,177.233 1128.062 C 175.794 1128.017,174.123 1127.627,173.438 1127.179 C 172.683 1126.684,170.498 1126.229,167.737 1125.991 C 161.603 1125.464,156.723 1124.434,151.825 1122.635 C 149.550 1121.799,146.484 1120.670,145.012 1120.126 C 140.698 1118.531,136.204 1115.991,132.579 1113.098 C 130.719 1111.613,128.516 1109.976,127.683 1109.459 C 126.851 1108.943,125.543 1107.588,124.777 1106.450 C 124.011 1105.311,122.872 1103.744,122.245 1102.966 C 117.281 1096.814,113.584 1081.757,116.829 1080.909 C 117.601 1080.707,117.688 1080.545,117.194 1080.232 C 116.281 1079.653,115.989 1079.701,115.120 1080.570 M159.854 1080.257 L 123.358 1080.545 159.854 1080.685 C 179.927 1080.762,200.073 1081.032,204.623 1081.284 C 209.173 1081.536,218.542 1081.889,225.444 1082.067 C 232.346 1082.245,238.078 1082.528,238.181 1082.695 C 240.343 1086.193,236.529 1097.539,230.810 1104.623 C 227.109 1109.207,220.707 1114.869,218.393 1115.603 C 217.840 1115.778,216.049 1116.714,214.412 1117.682 C 210.960 1119.723,207.379 1121.285,202.920 1122.693 C 201.180 1123.243,199.254 1123.891,198.639 1124.133 C 198.024 1124.376,196.992 1124.574,196.344 1124.574 C 195.697 1124.574,194.120 1124.943,192.839 1125.394 C 191.465 1125.877,188.917 1126.230,186.618 1126.255 C 183.627 1126.287,182.400 1126.514,181.320 1127.238 C 179.676 1128.341,180.380 1128.786,182.565 1128.025 C 183.402 1127.733,185.252 1127.494,186.677 1127.494 C 192.836 1127.494,209.361 1122.726,213.620 1119.720 C 214.292 1119.245,216.447 1118.052,218.408 1117.067 C 220.370 1116.083,222.888 1114.451,224.005 1113.441 C 225.121 1112.431,226.491 1111.293,227.049 1110.912 C 232.876 1106.935,239.903 1093.365,239.903 1086.090 C 239.903 1080.694,240.590 1080.984,226.926 1080.615 C 204.763 1080.017,196.147 1079.971,159.854 1080.257 " stroke="none" fill="#f8acc4" fill-rule="evenodd"></path></g></svg>