<svg id="svg" version="1.1" xmlns="http://www.w3.org/2000/svg" xmlns:xlink="http://www.w3.org/1999/xlink" width="400" height="363.12056737588654" viewBox="0, 0, 400,363.12056737588654"><g id="svgg"><path id="path0" d="M34.922 52.655 C 33.182 55.346,31.151 60.119,30.060 64.078 C 28.807 68.624,28.805 102.325,30.058 107.237 C 33.497 120.724,42.448 130.257,54.945 133.741 C 58.257 134.664,318.889 134.827,322.326 133.908 C 336.349 130.158,345.335 119.608,348.364 103.339 C 348.912 100.396,348.925 70.913,348.379 68.238 C 347.024 61.592,345.708 57.739,343.592 54.223 C 341.709 51.095,341.358 51.481,340.786 57.308 C 339.364 71.789,334.062 84.505,328.247 87.383 C 324.375 89.298,319.340 88.098,313.978 83.980 C 304.994 77.082,302.279 79.229,300.496 94.641 C 298.323 113.428,297.679 117.038,295.699 121.513 C 293.005 127.605,286.154 129.088,281.599 124.566 C 277.070 120.069,275.872 113.112,276.977 97.729 C 278.095 82.173,276.173 76.730,268.746 74.419 C 264.444 73.080,260.996 73.627,252.636 76.977 C 242.264 81.134,236.984 81.245,225.215 77.555 C 214.804 74.291,211.489 74.563,195.702 79.977 C 185.584 83.446,178.987 83.411,171.117 79.843 C 158.751 74.238,156.764 73.741,152.742 75.246 C 147.347 77.265,145.827 80.971,145.310 93.370 C 144.710 107.746,140.748 113.861,131.766 114.272 C 120.512 114.787,113.998 106.822,112.446 90.645 C 111.663 82.493,107.619 74.973,103.388 73.805 C 101.686 73.335,100.344 73.742,94.823 76.406 C 73.950 86.474,51.773 77.675,39.604 54.497 C 37.161 49.843,36.825 49.710,34.922 52.655 M185.104 287.961 C 162.965 291.929,157.135 320.541,176.007 332.613 C 196.300 345.594,221.421 323.210,210.641 301.753 C 206.643 293.795,200.870 289.587,191.644 287.906 C 188.297 287.296,188.843 287.291,185.104 287.961 " stroke="none" fill="#0f97d4" fill-rule="evenodd"></path><path id="path1" d="M58.220 37.469 C 56.670 37.828,56.123 38.478,57.312 38.548 C 57.661 38.568,57.048 38.797,55.949 39.057 C 50.762 40.283,44.323 43.485,44.323 44.837 C 44.323 48.978,54.000 62.012,60.985 67.279 C 63.099 68.873,64.226 69.942,63.963 70.105 C 63.318 70.503,68.347 72.612,71.495 73.263 C 78.331 74.676,85.585 73.564,93.404 69.904 C 103.154 65.339,107.639 66.148,113.351 73.504 C 114.605 75.120,115.369 75.831,115.544 75.547 C 116.282 74.354,118.618 79.109,119.302 83.197 C 119.870 86.594,119.902 87.144,119.545 87.364 C 119.336 87.494,119.170 88.040,119.176 88.577 C 119.187 89.515,119.209 89.526,119.721 88.850 C 120.014 88.462,120.254 88.318,120.254 88.530 C 120.254 88.846,121.003 93.348,121.470 95.841 C 122.021 98.783,123.510 102.071,125.072 103.796 C 125.470 104.236,125.705 104.831,125.594 105.120 C 124.852 107.053,130.430 108.669,133.466 107.401 C 137.334 105.785,138.326 103.038,138.786 92.664 C 139.386 79.122,141.965 73.179,148.691 69.832 C 155.250 66.568,158.883 67.153,173.660 73.849 C 180.247 76.833,184.567 76.782,194.107 73.606 C 203.394 70.515,207.000 69.592,212.784 68.827 C 215.128 68.517,221.776 69.640,226.885 71.209 C 233.425 73.217,235.184 73.549,239.237 73.541 C 243.597 73.532,243.906 73.454,251.873 70.319 C 263.346 65.804,271.584 66.313,277.655 71.913 C 283.294 77.113,284.455 83.169,283.337 101.544 C 282.806 110.268,283.132 113.838,284.791 117.497 C 287.337 123.113,290.475 120.541,291.766 111.779 C 291.977 110.346,292.308 108.111,292.501 106.812 C 293.005 103.431,293.194 97.683,292.794 97.930 C 292.611 98.043,292.461 99.058,292.461 100.185 C 292.461 101.580,292.343 102.116,292.090 101.863 C 291.697 101.470,292.473 92.650,293.227 88.946 C 293.443 87.882,293.693 86.440,293.782 85.740 C 294.090 83.325,294.999 80.426,296.062 78.474 C 296.226 78.174,296.706 77.924,297.130 77.919 C 297.554 77.913,298.600 77.223,299.453 76.385 C 300.313 75.541,301.975 74.460,303.182 73.959 C 304.379 73.462,305.078 73.048,304.734 73.040 C 304.337 73.030,304.185 72.830,304.315 72.491 C 305.038 70.606,315.691 73.432,315.202 75.380 C 314.956 76.361,317.018 78.290,320.656 80.480 C 325.136 83.178,327.196 81.586,330.778 72.661 C 333.099 66.878,335.331 53.780,333.838 54.703 C 333.302 55.034,332.832 54.228,333.057 53.366 C 333.283 52.502,333.870 52.467,333.904 53.315 C 333.997 55.635,334.558 51.888,334.579 48.804 C 334.605 45.105,334.367 43.532,333.897 44.292 C 333.740 44.548,333.224 44.367,332.424 43.778 C 331.748 43.279,331.032 42.870,330.834 42.870 C 330.636 42.870,330.136 42.576,329.724 42.216 C 328.850 41.455,325.547 40.083,322.434 39.189 L 320.254 38.562 321.889 38.504 L 323.524 38.445 321.708 37.873 C 319.527 37.185,61.153 36.789,58.220 37.469 M216.444 38.033 C 216.096 38.124,215.443 38.128,214.991 38.041 C 214.539 37.954,214.823 37.879,215.622 37.875 C 216.421 37.871,216.791 37.943,216.444 38.033 M258.587 38.033 C 258.240 38.124,257.586 38.128,257.134 38.041 C 256.682 37.954,256.966 37.879,257.766 37.875 C 258.565 37.871,258.935 37.943,258.587 38.033 M294.641 85.195 C 294.641 85.695,294.704 86.104,294.781 86.104 C 294.857 86.104,294.998 85.695,295.093 85.195 C 295.189 84.696,295.126 84.287,294.954 84.287 C 294.782 84.287,294.641 84.696,294.641 85.195 M118.885 86.104 C 118.885 86.803,118.960 87.089,119.052 86.739 C 119.143 86.390,119.143 85.817,119.052 85.468 C 118.960 85.118,118.885 85.404,118.885 86.104 M294.276 86.830 C 294.244 86.930,294.160 87.829,294.090 88.828 L 293.963 90.645 294.300 89.010 C 294.565 87.726,294.546 85.999,294.276 86.830 M119.612 91.553 C 119.612 92.252,119.687 92.539,119.778 92.189 C 119.870 91.839,119.870 91.267,119.778 90.917 C 119.687 90.568,119.612 90.854,119.612 91.553 M293.188 92.825 C 293.188 93.124,293.351 93.370,293.551 93.370 C 293.751 93.370,293.915 93.124,293.915 92.825 C 293.915 92.525,293.751 92.280,293.551 92.280 C 293.351 92.280,293.188 92.525,293.188 92.825 M293.272 95.550 C 293.272 96.249,293.347 96.535,293.438 96.185 C 293.530 95.836,293.530 95.263,293.438 94.914 C 293.347 94.564,293.272 94.850,293.272 95.550 M163.669 142.587 C 160.672 142.863,156.013 143.270,153.315 143.491 C 147.941 143.933,143.889 144.323,135.876 145.171 C 125.814 146.237,124.394 146.399,117.348 147.294 C 100.093 149.484,91.411 149.156,84.378 146.046 C 83.529 145.670,82.834 145.426,82.834 145.502 C 82.834 150.841,87.551 156.611,93.370 158.391 C 94.269 158.666,95.160 159.026,95.350 159.191 C 95.540 159.356,96.073 159.491,96.535 159.491 C 96.998 159.491,97.660 159.640,98.007 159.823 C 99.945 160.840,104.174 161.249,116.985 161.656 C 132.555 162.151,137.117 163.667,144.188 170.701 C 149.233 175.718,155.511 187.888,155.497 192.622 C 155.496 192.959,155.637 193.324,155.810 193.431 C 155.983 193.538,156.239 194.406,156.379 195.360 C 156.518 196.313,156.783 197.993,156.968 199.092 C 158.517 208.310,159.042 226.779,158.057 237.434 C 157.836 239.824,157.585 243.252,157.498 245.050 C 157.298 249.204,156.731 255.735,156.207 259.946 C 155.982 261.744,155.664 264.523,155.500 266.122 C 155.335 267.720,155.109 269.600,154.997 270.300 C 154.798 271.551,154.175 276.906,153.855 280.109 C 153.534 283.334,152.960 287.965,152.573 290.463 C 151.716 295.988,150.296 309.737,149.666 318.619 C 149.049 327.317,149.585 335.356,150.869 336.640 C 151.015 336.786,151.135 337.269,151.135 337.712 C 151.135 339.553,158.818 348.411,160.415 348.411 C 160.519 348.411,161.666 349.123,162.965 349.994 L 165.326 351.578 167.404 351.134 C 168.547 350.889,170.627 350.488,172.025 350.241 C 176.553 349.444,182.118 347.682,186.830 345.553 C 189.765 344.227,189.828 344.105,187.462 344.332 C 184.882 344.580,177.202 342.895,176.040 341.825 C 175.850 341.651,175.392 341.508,175.021 341.508 C 174.352 341.508,171.154 339.494,168.423 337.354 C 165.349 334.945,161.691 330.416,159.914 326.821 C 158.957 324.884,158.390 323.293,156.889 318.331 C 156.010 315.426,156.490 306.754,157.758 302.634 C 159.700 296.327,164.193 290.036,169.661 285.966 C 170.362 285.445,171.017 284.935,171.117 284.834 C 172.250 283.688,177.535 281.524,181.653 280.521 C 183.531 280.063,190.427 279.380,190.812 279.614 C 190.953 279.700,192.180 279.935,193.536 280.136 C 197.774 280.764,198.536 280.914,198.910 281.189 C 199.110 281.336,200.050 281.680,200.999 281.952 C 201.948 282.225,202.725 282.575,202.725 282.731 C 202.725 282.888,202.951 283.015,203.228 283.015 C 205.596 283.015,213.797 290.475,216.040 294.669 L 216.839 296.163 217.134 294.403 C 217.296 293.435,217.417 288.719,217.403 283.924 C 217.380 275.943,217.160 271.646,216.166 259.764 C 214.481 239.614,214.005 219.284,215.015 210.536 C 217.466 189.284,221.224 180.408,230.453 174.067 C 234.181 171.505,241.525 168.574,244.216 168.574 C 244.698 168.574,245.410 168.334,245.798 168.041 C 246.186 167.747,246.838 167.502,247.248 167.496 C 247.658 167.489,248.148 167.354,248.338 167.195 C 249.231 166.447,252.553 165.655,255.404 165.512 C 259.158 165.322,265.877 161.513,267.579 158.609 C 271.131 152.549,266.850 146.706,257.039 144.223 C 252.807 143.152,245.334 142.072,243.233 142.229 C 240.583 142.427,185.713 142.445,176.748 142.251 C 171.819 142.144,167.191 142.263,163.669 142.587 " stroke="none" fill="#deb463" fill-rule="evenodd"></path><path id="path2" d="M55.767 31.789 C 36.038 35.406,23.284 53.133,23.246 76.993 C 23.238 81.857,23.759 81.530,15.661 81.744 C 7.861 81.949,7.144 82.185,6.260 84.826 C 5.420 87.337,5.797 154.317,6.659 155.632 C 8.104 157.837,6.700 157.758,44.296 157.750 C 63.167 157.747,78.945 157.878,79.358 158.042 C 79.771 158.206,81.024 159.213,82.143 160.278 C 85.136 163.131,90.538 165.792,95.913 167.061 C 102.129 168.529,106.454 168.937,115.789 168.937 C 128.718 168.937,133.621 170.516,139.462 176.559 C 141.435 178.600,145.681 184.911,146.555 187.103 C 148.702 192.482,150.048 198.497,150.745 205.813 C 152.010 219.110,152.109 222.323,151.508 230.680 C 151.313 233.388,150.978 238.220,150.764 241.417 C 150.069 251.765,148.836 264.569,147.859 271.571 C 147.664 272.970,147.174 276.894,146.770 280.291 C 146.366 283.688,145.875 287.816,145.679 289.464 C 145.483 291.113,145.154 293.892,144.949 295.640 C 144.744 297.389,144.420 300.045,144.230 301.544 C 141.503 323.063,141.796 333.827,145.337 342.087 C 148.595 349.688,159.730 357.741,171.623 361.099 L 175.581 362.216 190.809 362.216 L 206.037 362.216 209.311 361.110 C 227.278 355.042,236.519 342.222,236.511 323.375 C 236.509 319.527,235.506 307.386,234.691 301.362 C 234.502 299.964,234.183 297.430,233.983 295.731 C 233.113 288.351,232.133 280.323,231.588 276.113 C 231.265 273.615,230.863 270.345,230.695 268.847 C 229.534 258.499,229.252 255.788,228.901 251.589 C 225.176 207.032,229.942 184.844,245.050 176.403 C 250.209 173.520,253.927 172.725,264.668 172.208 C 281.633 171.390,291.669 167.770,297.186 160.478 C 299.085 157.967,297.168 158.105,334.491 157.786 L 368.709 157.493 369.824 156.424 L 370.939 155.356 370.846 119.225 L 370.754 83.094 369.730 82.328 C 368.799 81.632,368.093 81.546,361.995 81.381 C 353.938 81.162,354.735 82.003,354.473 73.442 C 353.996 57.821,348.132 46.180,336.603 37.968 C 330.232 33.430,325.511 32.003,315.531 31.600 C 302.245 31.063,58.762 31.240,55.767 31.789 M320.082 36.343 C 326.928 37.177,334.351 40.576,335.305 43.313 C 336.902 47.895,334.654 65.637,331.495 73.380 C 327.207 83.892,324.658 85.005,317.459 79.508 C 307.727 72.076,300.709 72.987,297.439 82.107 C 296.060 85.953,295.371 90.104,293.909 103.361 C 292.342 117.583,289.920 123.252,286.322 121.126 C 282.986 119.156,281.432 111.663,282.334 101.907 C 284.276 80.901,281.262 72.655,270.328 69.066 C 265.408 67.451,259.818 68.144,251.528 71.397 C 240.411 75.759,238.864 75.785,225.605 71.829 C 215.224 68.732,211.121 69.060,195.174 74.261 C 182.608 78.360,180.744 78.232,168.211 72.409 C 153.355 65.506,144.051 69.242,140.435 83.560 C 140.309 84.060,140.064 87.902,139.890 92.098 C 139.358 104.965,137.274 108.642,130.529 108.621 C 123.203 108.597,119.149 102.485,117.886 89.555 C 116.518 75.548,107.715 65.662,99.113 68.470 C 98.052 68.816,95.550 69.875,93.551 70.822 C 87.552 73.666,85.161 74.329,79.564 74.700 C 65.321 75.646,53.238 67.939,44.923 52.606 C 42.973 49.008,41.339 44.684,41.575 43.744 C 42.200 41.255,50.625 37.334,57.766 36.209 C 60.009 35.856,317.163 35.987,320.082 36.343 M40.280 53.520 C 52.506 77.150,73.153 85.391,95.023 75.371 C 101.082 72.595,102.211 72.331,104.420 73.175 C 109.025 74.934,111.790 80.589,113.318 91.371 C 115.184 104.535,118.955 110.577,126.839 113.030 C 137.547 116.363,144.939 107.702,144.954 91.804 C 144.971 74.644,151.782 70.035,166.939 76.927 C 180.256 82.983,183.025 83.290,193.279 79.851 C 205.595 75.719,207.233 75.301,212.379 74.972 C 216.979 74.678,220.811 75.220,226.098 76.910 C 237.352 80.508,241.352 80.457,251.357 76.589 C 262.155 72.414,267.944 71.975,272.425 74.992 C 277.662 78.517,278.450 83.114,277.443 104.269 C 276.766 118.494,282.100 128.379,289.322 126.279 C 295.169 124.580,296.962 119.294,299.918 95.045 C 301.531 81.810,302.604 79.369,306.777 79.438 C 309.238 79.479,310.550 80.093,314.441 83.024 C 321.589 88.408,325.374 88.933,329.853 85.164 C 334.788 81.012,339.258 68.150,340.198 55.404 C 340.594 50.025,340.611 49.955,341.461 49.955 C 342.849 49.955,346.797 57.636,348.276 63.215 C 349.095 66.303,349.489 99.902,348.765 104.995 C 346.785 118.938,336.634 131.057,324.251 134.262 C 321.214 135.048,67.312 135.576,58.067 134.816 C 43.648 133.629,32.587 122.761,29.012 106.267 C 28.261 102.798,28.418 69.608,29.207 65.172 C 30.128 59.994,32.519 54.181,35.360 50.211 C 37.060 47.836,37.489 48.125,40.280 53.520 M21.963 85.435 C 22.867 85.847,22.888 85.941,22.888 89.600 C 22.888 93.954,22.958 93.867,19.164 94.262 C 17.042 94.483,16.690 94.624,16.550 95.306 C 16.332 96.374,15.792 114.903,15.860 118.983 C 15.890 120.781,16.032 128.027,16.176 135.085 L 16.437 147.917 17.385 148.278 C 17.989 148.507,28.664 148.612,46.797 148.566 C 78.589 148.484,75.922 148.244,76.723 151.260 C 77.518 154.256,80.100 154.042,43.190 154.042 C 14.036 154.042,10.527 153.981,10.017 153.471 C 9.248 152.702,9.134 87.022,9.900 85.999 C 10.266 85.511,11.132 85.371,14.351 85.281 C 16.549 85.219,18.952 85.133,19.692 85.091 C 20.432 85.048,21.454 85.203,21.963 85.435 M366.371 85.368 L 367.302 85.722 367.302 119.528 L 367.302 153.333 366.371 153.687 C 364.584 154.367,302.066 154.149,301.379 153.461 C 300.324 152.406,301.519 148.607,302.915 148.580 C 303.260 148.573,316.572 148.578,332.497 148.592 C 360.933 148.616,361.458 148.604,361.834 147.902 C 362.430 146.786,362.361 95.394,361.762 94.904 C 361.512 94.699,360.000 94.415,358.401 94.272 C 354.439 93.917,354.223 93.684,354.223 89.750 C 354.223 85.079,353.513 85.441,363.373 85.088 C 364.509 85.047,365.858 85.173,366.371 85.368 M22.858 98.238 C 23.090 98.518,23.444 100.275,23.644 102.143 C 24.647 111.495,28.226 120.062,34.014 126.963 C 35.516 128.754,36.856 130.408,36.992 130.638 C 37.558 131.596,43.615 135.784,46.060 136.908 C 50.778 139.076,57.685 140.177,68.483 140.483 C 75.424 140.680,75.931 140.814,75.931 142.448 C 75.931 144.366,76.407 144.333,47.628 144.413 L 20.929 144.486 20.125 143.682 L 19.321 142.879 19.276 121.168 C 19.235 102.069,19.298 99.354,19.796 98.593 C 20.440 97.611,22.171 97.410,22.858 98.238 M356.790 98.469 C 357.474 98.834,357.493 99.470,357.493 121.184 L 357.493 143.524 356.561 143.878 C 355.987 144.097,345.542 144.233,329.339 144.233 C 300.764 144.233,301.907 144.314,301.907 142.281 C 301.907 140.711,302.409 140.600,309.519 140.593 C 320.934 140.582,325.769 139.762,331.903 136.793 C 344.426 130.733,353.188 117.113,354.461 101.726 C 354.751 98.222,355.188 97.611,356.790 98.469 M295.942 141.123 C 296.626 142.059,296.631 148.817,295.950 151.376 C 293.291 161.361,281.423 167.121,263.507 167.121 C 225.759 167.121,215.919 196.533,226.558 277.566 C 233.063 327.103,232.762 335.632,224.159 345.757 C 206.052 367.065,155.524 361.153,148.157 336.864 C 146.600 331.729,146.929 317.389,148.969 301.544 C 149.278 299.144,150.267 290.983,152.050 276.113 C 154.115 258.890,154.914 250.694,155.486 240.872 C 155.701 237.175,156.037 232.834,156.231 231.225 C 156.686 227.465,156.691 217.505,156.241 213.987 C 156.048 212.489,155.710 209.137,155.488 206.540 C 153.863 187.489,146.352 172.817,135.434 167.364 C 129.842 164.572,127.583 164.179,115.168 163.840 C 102.682 163.499,98.278 162.913,92.541 160.831 C 84.716 157.990,81.198 153.462,81.200 146.231 C 81.201 141.920,81.550 140.758,82.924 140.492 C 86.285 139.841,295.458 140.461,295.942 141.123 M184.860 282.330 C 162.109 285.264,151.239 312.536,165.552 330.776 C 180.089 349.301,209.509 344.046,217.325 321.528 C 224.433 301.051,206.605 279.526,184.860 282.330 M193.389 287.191 C 218.684 292.031,221.462 327.435,197.215 335.956 C 183.579 340.748,167.534 332.436,164.452 318.983 C 163.402 314.401,163.117 311.918,163.492 310.611 C 163.690 309.923,163.851 308.833,163.851 308.188 C 163.851 295.980,179.858 284.602,193.389 287.191 " stroke="none" fill="#050506" fill-rule="evenodd"></path><path id="path4" d="M312.716 31.514 C 314.164 31.583,316.535 31.583,317.984 31.514 C 319.432 31.445,318.247 31.389,315.350 31.389 C 312.452 31.389,311.267 31.445,312.716 31.514 M57.766 36.209 C 50.625 37.334,42.200 41.255,41.575 43.744 C 41.339 44.684,42.973 49.008,44.923 52.606 C 53.238 67.939,65.321 75.646,79.564 74.700 C 85.161 74.329,87.552 73.666,93.551 70.822 C 95.550 69.875,98.052 68.816,99.113 68.470 C 107.715 65.662,116.518 75.548,117.886 89.555 C 119.149 102.485,123.203 108.597,130.529 108.621 C 137.274 108.642,139.358 104.965,139.890 92.098 C 140.064 87.902,140.309 84.060,140.435 83.560 C 144.051 69.242,153.355 65.506,168.211 72.409 C 180.744 78.232,182.608 78.360,195.174 74.261 C 211.121 69.060,215.224 68.732,225.605 71.829 C 238.864 75.785,240.411 75.759,251.528 71.397 C 259.818 68.144,265.408 67.451,270.328 69.066 C 281.262 72.655,284.276 80.901,282.334 101.907 C 281.432 111.663,282.986 119.156,286.322 121.126 C 289.920 123.252,292.342 117.583,293.909 103.361 C 295.371 90.104,296.060 85.953,297.439 82.107 C 300.709 72.987,307.727 72.076,317.459 79.508 C 324.658 85.005,327.207 83.892,331.495 73.380 C 334.654 65.637,336.902 47.895,335.305 43.313 C 334.351 40.576,326.928 37.177,320.082 36.343 C 317.163 35.987,60.009 35.856,57.766 36.209 M325.290 37.720 C 328.673 38.866,332.072 40.524,333.524 41.737 L 334.727 42.741 334.819 47.619 C 334.869 50.302,334.936 52.906,334.968 53.406 C 335.043 54.599,334.660 57.620,334.229 59.219 C 334.041 59.918,333.816 61.226,333.730 62.125 C 333.643 63.025,333.316 64.578,333.002 65.577 C 332.689 66.576,332.431 67.810,332.429 68.320 C 332.427 68.829,332.287 69.401,332.117 69.591 C 331.948 69.781,331.264 71.326,330.596 73.025 C 329.929 74.723,329.086 76.649,328.724 77.304 C 328.362 77.960,328.065 78.736,328.065 79.030 C 328.065 79.324,327.902 79.564,327.702 79.564 C 327.502 79.564,327.339 79.789,327.339 80.065 C 327.339 81.111,326.174 81.620,323.491 81.747 C 321.294 81.851,320.987 81.790,320.232 81.100 C 312.445 73.983,303.884 72.051,299.541 76.432 C 298.178 77.808,295.642 85.752,295.005 90.645 C 294.770 92.443,294.429 94.699,294.247 95.658 C 294.064 96.617,293.915 98.098,293.915 98.950 C 293.915 99.801,293.605 101.796,293.227 103.382 C 292.849 104.969,292.349 107.657,292.115 109.355 C 291.074 116.917,289.524 120.618,287.396 120.618 C 286.759 120.618,284.832 118.592,284.832 117.923 C 284.832 117.583,284.693 117.391,284.523 117.496 C 283.581 118.078,283.199 114.505,283.343 106.449 C 283.766 82.660,283.543 80.030,280.810 76.588 C 280.225 75.850,279.746 75.088,279.746 74.893 C 279.746 74.698,279.594 74.484,279.410 74.417 C 279.225 74.351,279.020 74.058,278.955 73.768 C 278.779 72.980,277.316 71.571,276.674 71.571 C 276.365 71.571,276.113 71.427,276.113 71.250 C 276.113 71.074,275.827 70.839,275.477 70.728 C 275.127 70.617,274.351 70.246,273.751 69.904 C 272.012 68.911,271.436 68.665,270.850 68.665 C 270.547 68.665,270.300 68.541,270.300 68.390 C 270.300 66.646,257.437 67.213,255.613 69.037 C 255.418 69.232,255.005 69.391,254.696 69.390 C 254.039 69.387,248.406 71.588,248.138 71.951 C 248.038 72.087,247.466 72.287,246.866 72.396 C 246.267 72.505,244.796 72.872,243.597 73.213 C 240.842 73.994,236.112 73.768,231.971 72.655 C 230.372 72.226,228.656 71.794,228.156 71.696 C 227.657 71.597,226.921 71.382,226.521 71.217 C 224.709 70.471,223.521 70.123,222.343 69.992 C 221.644 69.915,220.827 69.762,220.527 69.653 C 219.394 69.238,216.262 68.870,213.987 68.884 C 210.306 68.907,200.241 71.134,199.879 72.006 C 199.812 72.167,199.291 72.298,198.720 72.298 C 198.149 72.298,197.580 72.461,197.457 72.661 C 197.333 72.861,196.833 73.025,196.345 73.025 C 195.858 73.025,195.459 73.188,195.459 73.388 C 195.459 73.588,195.065 73.751,194.583 73.751 C 194.102 73.751,192.181 74.252,190.314 74.865 C 186.308 76.180,175.477 76.135,175.477 74.803 C 175.477 74.624,175.160 74.478,174.772 74.478 C 174.384 74.478,173.965 74.314,173.842 74.114 C 173.718 73.915,173.298 73.751,172.907 73.751 C 172.273 73.751,170.875 73.146,170.391 72.661 C 169.893 72.164,166.966 70.845,166.360 70.845 C 165.979 70.845,165.668 70.681,165.668 70.481 C 165.668 70.282,165.311 70.118,164.876 70.118 C 163.914 70.118,161.671 69.339,161.671 69.005 C 161.671 68.521,157.183 67.778,157.030 68.237 C 156.843 68.798,155.597 68.790,155.410 68.228 C 155.132 67.395,147.866 69.605,147.866 70.521 C 147.866 70.699,147.629 70.845,147.339 70.845 C 146.691 70.845,143.506 73.802,143.506 74.405 C 143.506 74.645,143.342 74.841,143.143 74.841 C 142.943 74.841,142.779 75.086,142.779 75.386 C 142.779 75.686,142.616 75.931,142.416 75.931 C 142.216 75.931,142.053 76.176,142.053 76.476 C 142.053 76.776,141.917 77.021,141.751 77.021 C 141.466 77.021,140.419 80.049,139.528 83.452 C 139.308 84.291,138.985 88.379,138.811 92.535 C 138.310 104.469,136.459 107.948,130.645 107.886 C 123.578 107.810,119.860 102.875,118.749 92.098 C 118.090 85.702,116.839 81.417,113.604 74.478 C 113.371 73.978,112.876 73.324,112.504 73.025 C 112.133 72.725,110.931 71.621,109.833 70.572 C 108.735 69.523,107.607 68.665,107.325 68.665 C 107.043 68.665,106.812 68.501,106.812 68.302 C 106.812 68.102,106.518 67.938,106.158 67.938 C 105.798 67.938,105.312 67.746,105.076 67.511 C 104.501 66.936,100.260 66.917,99.056 67.484 C 98.526 67.734,97.725 68.080,97.275 68.253 C 96.826 68.427,94.823 69.320,92.825 70.238 C 84.790 73.931,73.073 74.943,66.667 72.497 C 59.694 69.836,55.343 66.652,50.717 60.825 C 47.647 56.958,43.152 48.923,42.106 45.431 L 41.632 43.848 43.173 42.480 C 46.143 39.844,52.211 37.415,57.039 36.930 C 57.738 36.860,117.820 36.819,190.554 36.839 L 322.797 36.876 325.290 37.720 M341.508 42.325 C 343.197 44.024,344.662 45.413,344.761 45.413 C 344.861 45.413,343.561 44.024,341.871 42.325 C 340.181 40.627,338.717 39.237,338.617 39.237 C 338.517 39.237,339.818 40.627,341.508 42.325 M35.955 42.053 L 33.969 44.142 36.058 42.156 C 37.999 40.311,38.314 39.964,38.044 39.964 C 37.987 39.964,37.047 40.904,35.955 42.053 M23.343 70.663 C 23.347 71.462,23.422 71.747,23.509 71.295 C 23.595 70.843,23.592 70.189,23.501 69.841 C 23.410 69.494,23.339 69.864,23.343 70.663 M13.369 81.651 C 15.027 81.719,17.643 81.718,19.182 81.650 C 20.721 81.582,19.364 81.527,16.167 81.528 C 12.970 81.528,11.711 81.584,13.369 81.651 M371.110 119.164 C 371.110 138.847,371.154 146.898,371.208 137.057 C 371.262 127.216,371.262 111.113,371.208 101.272 C 371.154 91.431,371.110 99.482,371.110 119.164 M18.988 85.274 C 19.540 85.358,20.357 85.356,20.804 85.269 C 21.251 85.183,20.799 85.115,19.800 85.118 C 18.801 85.120,18.435 85.191,18.988 85.274 M362.117 85.276 C 362.762 85.356,363.907 85.357,364.660 85.279 C 365.414 85.200,364.886 85.134,363.488 85.133 C 362.089 85.131,361.472 85.196,362.117 85.276 M9.822 86.080 C 9.129 87.375,9.318 152.772,10.017 153.471 C 10.529 153.983,13.974 154.033,43.350 153.953 L 76.113 153.864 43.450 153.769 C 20.054 153.701,10.649 153.559,10.298 153.269 C 9.500 152.606,9.580 86.748,10.380 85.948 C 10.694 85.634,10.782 85.377,10.575 85.377 C 10.368 85.377,10.029 85.693,9.822 86.080 M354.600 86.080 C 354.393 86.466,354.256 88.224,354.297 89.985 L 354.370 93.188 354.479 90.282 C 354.617 86.596,354.799 85.833,355.586 85.627 C 356.173 85.474,356.174 85.458,355.599 85.419 C 355.256 85.396,354.806 85.693,354.600 86.080 M22.602 89.457 C 22.517 93.745,22.708 93.425,19.982 93.854 C 19.323 93.958,19.429 94.011,20.367 94.047 C 22.697 94.136,22.931 93.685,22.797 89.368 L 22.678 85.559 22.602 89.457 M367.028 119.779 C 366.958 145.805,366.842 152.972,366.485 153.203 C 366.235 153.365,351.562 153.582,333.878 153.685 L 301.726 153.874 334.133 153.867 C 356.376 153.862,366.660 153.740,366.923 153.477 C 367.188 153.212,367.277 142.811,367.212 119.871 L 367.117 86.649 367.028 119.779 M355.282 93.847 C 355.447 94.012,356.216 94.090,356.991 94.023 L 358.401 93.899 356.693 93.724 C 355.753 93.628,355.118 93.683,355.282 93.847 M359.850 94.366 C 360.647 94.447,361.505 94.685,361.757 94.894 C 362.425 95.448,362.429 147.075,361.762 147.978 C 361.343 148.544,359.119 148.600,333.333 148.685 L 305.359 148.778 333.404 148.867 L 361.448 148.955 362.014 148.148 C 362.513 147.435,362.579 144.280,362.579 121.289 C 362.579 92.069,362.773 94.043,359.920 94.157 L 358.401 94.218 359.850 94.366 M16.212 95.019 C 16.087 95.343,16.019 98.252,16.059 101.483 L 16.133 107.357 16.332 100.999 C 16.547 94.124,16.547 94.146,16.212 95.019 M354.943 98.646 C 354.690 98.951,354.588 99.305,354.717 99.434 C 354.845 99.562,354.950 99.471,354.950 99.231 C 354.950 98.992,355.318 98.648,355.767 98.467 C 356.321 98.245,356.394 98.131,355.994 98.116 C 355.668 98.103,355.196 98.342,354.943 98.646 M19.424 117.893 C 19.424 128.283,19.471 132.482,19.527 127.222 C 19.584 121.963,19.584 113.462,19.527 108.331 C 19.471 103.199,19.424 107.502,19.424 117.893 M23.336 100.999 C 23.336 101.698,23.411 101.985,23.502 101.635 C 23.593 101.285,23.593 100.713,23.502 100.363 C 23.411 100.014,23.336 100.300,23.336 100.999 M15.755 112.443 C 15.756 114.441,15.817 115.213,15.890 114.157 C 15.964 113.101,15.963 111.466,15.889 110.524 C 15.814 109.581,15.754 110.445,15.755 112.443 M27.611 117.487 C 27.611 117.877,28.692 119.891,28.901 119.891 C 29.001 119.891,28.813 119.360,28.483 118.710 C 27.808 117.384,27.611 117.108,27.611 117.487 M15.726 123.706 C 15.729 124.705,15.799 125.070,15.883 124.518 C 15.966 123.966,15.964 123.148,15.878 122.702 C 15.792 122.255,15.723 122.707,15.726 123.706 M16.068 136.985 C 15.983 148.034,16.052 148.629,17.421 148.567 C 17.810 148.549,17.759 148.454,17.257 148.258 C 16.559 147.986,16.523 147.547,16.341 137.112 L 16.151 126.249 16.068 136.985 M19.368 140.781 C 19.370 141.980,19.438 142.427,19.519 141.774 C 19.599 141.121,19.598 140.140,19.515 139.594 C 19.432 139.048,19.366 139.582,19.368 140.781 M82.924 140.492 C 81.550 140.758,81.201 141.920,81.200 146.231 C 81.198 153.462,84.716 157.990,92.541 160.831 C 98.278 162.913,102.682 163.499,115.168 163.840 C 127.583 164.179,129.842 164.572,135.434 167.364 C 146.352 172.817,153.863 187.489,155.488 206.540 C 155.710 209.137,156.048 212.489,156.241 213.987 C 156.691 217.505,156.686 227.465,156.231 231.225 C 156.037 232.834,155.701 237.175,155.486 240.872 C 154.914 250.694,154.115 258.890,152.050 276.113 C 150.267 290.983,149.278 299.144,148.969 301.544 C 146.929 317.389,146.600 331.729,148.157 336.864 C 155.524 361.153,206.052 367.065,224.159 345.757 C 232.762 335.632,233.063 327.103,226.558 277.566 C 215.919 196.533,225.759 167.121,263.507 167.121 C 281.423 167.121,293.291 161.361,295.950 151.376 C 296.631 148.817,296.626 142.059,295.942 141.123 C 295.458 140.461,86.285 139.841,82.924 140.492 M240.145 141.334 C 240.145 141.530,240.703 141.689,241.385 141.689 C 243.244 141.689,253.727 143.387,257.041 144.224 C 271.793 147.954,273.040 158.393,259.450 164.397 C 257.724 165.159,256.145 165.983,255.940 166.228 C 255.498 166.756,252.880 167.684,250.852 168.032 C 249.083 168.336,246.985 168.986,246.521 169.375 C 245.840 169.946,244.728 169.725,245.232 169.119 C 246.468 167.629,240.440 168.980,235.539 171.291 C 225.174 176.178,220.203 182.940,217.266 196.149 C 213.949 211.069,213.631 229.513,216.167 259.764 C 217.374 274.156,217.711 285.317,217.193 293.737 C 216.983 297.148,217.048 298.031,217.635 299.731 C 218.521 302.299,218.595 304.201,217.733 302.271 C 211.923 289.251,200.885 281.378,188.744 281.591 C 164.279 282.022,150.115 309.370,164.040 329.290 C 169.372 336.917,180.306 342.784,189.608 343.010 C 190.728 343.038,191.276 343.131,190.827 343.217 C 190.377 343.304,190.009 343.519,190.009 343.696 C 190.009 344.073,185.259 346.380,182.380 347.402 C 177.819 349.021,174.771 349.782,168.120 350.964 C 165.091 351.502,164.789 352.337,167.212 353.473 C 168.559 354.105,168.635 354.199,167.812 354.210 C 163.628 354.269,152.557 345.798,150.039 340.610 C 149.023 338.518,148.803 337.769,147.836 333.119 C 146.852 328.386,148.593 306.448,151.870 282.289 C 152.533 277.405,153.697 267.111,153.884 264.487 C 153.991 262.988,154.179 261.517,154.302 261.217 C 154.425 260.917,154.650 258.955,154.802 256.857 C 154.954 254.759,155.330 250.509,155.638 247.411 C 158.168 221.953,157.096 202.962,152.340 188.955 C 145.976 170.212,135.432 163.124,113.916 163.124 C 92.963 163.124,82.074 158.110,81.960 148.411 C 81.919 144.974,81.691 145.053,86.643 146.797 C 93.518 149.218,101.221 149.343,117.348 147.294 C 124.393 146.399,125.811 146.237,135.876 145.171 C 143.623 144.351,147.848 143.944,153.134 143.510 C 155.731 143.297,161.693 142.800,166.383 142.406 C 171.072 142.012,176.222 141.687,177.827 141.684 C 179.432 141.681,180.990 141.519,181.290 141.324 C 182.035 140.839,240.145 140.849,240.145 141.334 M295.488 141.479 C 295.649 141.898,295.331 141.961,293.801 141.812 C 292.765 141.711,288.156 141.504,283.560 141.352 L 275.204 141.076 285.247 141.019 C 293.630 140.972,295.323 141.048,295.488 141.479 M40.236 144.139 C 41.685 144.208,44.055 144.208,45.504 144.139 C 46.953 144.070,45.767 144.014,42.870 144.014 C 39.973 144.014,38.787 144.070,40.236 144.139 M68.588 144.139 C 69.845 144.210,71.807 144.209,72.948 144.137 C 74.089 144.065,73.061 144.007,70.663 144.008 C 68.265 144.009,67.332 144.067,68.588 144.139 M316.167 144.142 C 323.510 144.197,335.527 144.197,342.870 144.142 C 350.213 144.087,344.205 144.042,329.519 144.042 C 314.832 144.042,308.824 144.087,316.167 144.142 M22.071 144.495 C 22.720 144.576,23.783 144.576,24.432 144.495 C 25.082 144.415,24.550 144.349,23.252 144.349 C 21.953 144.349,21.421 144.415,22.071 144.495 M29.519 144.501 C 30.668 144.573,32.548 144.573,33.697 144.501 C 34.846 144.429,33.906 144.370,31.608 144.370 C 29.310 144.370,28.370 144.429,29.519 144.501 M54.061 144.504 C 56.120 144.569,59.390 144.568,61.327 144.503 C 63.265 144.438,61.580 144.385,57.584 144.385 C 53.588 144.385,52.002 144.439,54.061 144.504 M73.107 148.497 C 74.741 148.600,75.307 148.798,75.741 149.418 C 76.045 149.852,76.294 150.033,76.294 149.819 C 76.294 148.853,74.943 148.230,72.996 148.298 L 71.026 148.366 73.107 148.497 M302.749 148.595 C 301.857 148.954,301.170 150.030,301.201 151.021 C 301.213 151.383,301.417 151.108,301.655 150.409 C 302.025 149.325,302.331 149.074,303.724 148.712 C 304.746 148.447,305.018 148.285,304.450 148.281 C 303.951 148.278,303.185 148.419,302.749 148.595 M30.972 148.865 C 38.115 148.920,49.805 148.920,56.948 148.865 C 64.092 148.809,58.247 148.764,43.960 148.764 C 29.673 148.764,23.828 148.809,30.972 148.865 M76.432 151.915 C 76.456 152.844,76.599 153.529,76.748 153.438 C 77.094 153.228,77.057 151.899,76.679 150.954 C 76.477 150.448,76.402 150.741,76.432 151.915 M31.517 157.941 C 32.366 158.017,33.756 158.017,34.605 157.941 C 35.454 157.864,34.759 157.802,33.061 157.802 C 31.362 157.802,30.668 157.864,31.517 157.941 M51.499 157.941 C 52.348 158.017,53.738 158.017,54.587 157.941 C 55.436 157.864,54.741 157.802,53.043 157.802 C 51.344 157.802,50.649 157.864,51.499 157.941 M73.297 157.943 C 74.346 158.016,76.063 158.016,77.112 157.943 C 78.161 157.869,77.302 157.809,75.204 157.809 C 73.106 157.809,72.248 157.869,73.297 157.943 M333.787 157.943 C 334.837 158.016,336.553 158.016,337.602 157.943 C 338.651 157.869,337.793 157.809,335.695 157.809 C 333.597 157.809,332.738 157.869,333.787 157.943 M300.908 158.303 C 301.658 158.381,302.884 158.381,303.633 158.303 C 304.382 158.224,303.769 158.160,302.271 158.160 C 300.772 158.160,300.159 158.224,300.908 158.303 M289.341 160.034 C 288.759 160.534,288.038 160.931,287.738 160.915 C 287.277 160.892,287.273 160.856,287.718 160.681 C 288.006 160.567,288.637 160.079,289.119 159.597 C 289.601 159.115,290.086 158.812,290.197 158.923 C 290.308 159.034,289.923 159.534,289.341 160.034 M105.086 168.824 C 105.436 168.916,106.008 168.916,106.358 168.824 C 106.708 168.733,106.421 168.658,105.722 168.658 C 105.023 168.658,104.737 168.733,105.086 168.824 M113.806 169.208 C 115.754 169.274,118.942 169.274,120.890 169.208 C 122.838 169.143,121.244 169.089,117.348 169.089 C 113.451 169.089,111.857 169.143,113.806 169.208 M243.995 170.289 C 243.614 170.386,242.878 170.862,242.360 171.348 C 241.841 171.833,241.014 172.333,240.521 172.459 C 240.028 172.585,239.302 172.989,238.908 173.356 C 238.514 173.723,237.968 174.024,237.694 174.024 C 237.420 174.024,237.297 174.187,237.421 174.387 C 237.544 174.587,237.390 174.750,237.079 174.750 C 236.767 174.750,236.512 174.941,236.512 175.174 C 236.512 175.407,236.404 175.490,236.272 175.358 C 236.003 175.088,237.177 173.660,237.668 173.660 C 237.842 173.660,238.563 173.129,239.270 172.480 C 240.700 171.166,242.850 170.073,243.960 170.096 C 244.642 170.111,244.644 170.122,243.995 170.289 M263.669 172.473 C 264.519 172.550,265.908 172.550,266.757 172.473 C 267.607 172.397,266.912 172.334,265.213 172.334 C 263.515 172.334,262.820 172.397,263.669 172.473 M255.858 172.821 C 256.208 172.912,256.780 172.912,257.130 172.821 C 257.480 172.729,257.193 172.655,256.494 172.655 C 255.795 172.655,255.509 172.729,255.858 172.821 M234.716 177.021 C 234.107 177.670,233.608 178.334,233.607 178.496 C 233.607 178.657,233.428 178.680,233.211 178.545 C 232.809 178.297,234.899 175.840,235.512 175.840 C 235.683 175.840,235.324 176.371,234.716 177.021 M231.844 180.484 C 231.614 180.561,231.426 180.883,231.426 181.199 C 231.426 181.515,231.317 181.665,231.183 181.531 C 231.050 181.398,231.167 180.865,231.444 180.347 C 231.757 179.764,232.008 179.584,232.105 179.875 C 232.191 180.134,232.074 180.408,231.844 180.484 M239.036 180.836 L 237.784 182.198 239.146 180.946 C 240.414 179.781,240.676 179.473,240.398 179.473 C 240.338 179.473,239.724 180.086,239.036 180.836 M228.230 187.062 C 228.036 187.184,227.795 187.611,227.695 188.011 C 227.556 188.568,227.504 188.504,227.472 187.738 C 227.449 187.189,227.593 186.739,227.793 186.739 C 227.993 186.739,228.178 186.371,228.206 185.922 C 228.254 185.126,228.260 185.128,228.419 185.972 C 228.509 186.449,228.424 186.939,228.230 187.062 M151.220 213.987 C 151.220 214.687,151.294 214.973,151.386 214.623 C 151.477 214.273,151.477 213.701,151.386 213.351 C 151.294 213.002,151.220 213.288,151.220 213.987 M151.646 222.162 C 151.646 225.359,151.702 226.618,151.769 224.960 C 151.837 223.302,151.836 220.686,151.768 219.147 C 151.700 217.608,151.645 218.965,151.646 222.162 M151.227 230.881 C 151.231 231.680,151.305 231.964,151.392 231.513 C 151.479 231.061,151.476 230.407,151.385 230.059 C 151.294 229.712,151.223 230.082,151.227 230.881 M150.856 238.692 C 150.856 239.391,150.931 239.678,151.022 239.328 C 151.114 238.978,151.114 238.406,151.022 238.056 C 150.931 237.707,150.856 237.993,150.856 238.692 M149.040 259.401 C 149.040 260.100,149.115 260.386,149.206 260.036 C 149.297 259.687,149.297 259.114,149.206 258.765 C 149.115 258.415,149.040 258.701,149.040 259.401 M229.694 259.764 C 229.694 260.463,229.769 260.749,229.860 260.400 C 229.951 260.050,229.951 259.478,229.860 259.128 C 229.769 258.778,229.694 259.064,229.694 259.764 M148.676 263.397 C 148.676 264.096,148.751 264.382,148.843 264.033 C 148.934 263.683,148.934 263.111,148.843 262.761 C 148.751 262.411,148.676 262.698,148.676 263.397 M230.057 263.397 C 230.057 264.096,230.132 264.382,230.223 264.033 C 230.315 263.683,230.315 263.111,230.223 262.761 C 230.132 262.411,230.057 262.698,230.057 263.397 M230.784 269.936 C 230.784 270.636,230.858 270.922,230.950 270.572 C 231.041 270.223,231.041 269.650,230.950 269.301 C 230.858 268.951,230.784 269.237,230.784 269.936 M192.798 282.317 C 211.150 284.848,223.310 304.287,217.325 321.528 C 206.186 353.619,159.310 345.985,159.310 312.080 C 159.310 293.611,174.809 279.837,192.798 282.317 M145.043 293.188 C 145.043 293.887,145.118 294.173,145.210 293.824 C 145.301 293.474,145.301 292.902,145.210 292.552 C 145.118 292.203,145.043 292.489,145.043 293.188 M142.515 317.166 C 142.515 318.065,142.586 318.433,142.672 317.984 C 142.759 317.534,142.759 316.798,142.672 316.349 C 142.586 315.899,142.515 316.267,142.515 317.166 M236.248 317.166 C 236.248 318.065,236.319 318.433,236.405 317.984 C 236.492 317.534,236.492 316.798,236.405 316.349 C 236.319 315.899,236.248 316.267,236.248 317.166 M217.861 323.455 C 217.560 324.093,217.205 325.047,217.073 325.577 C 216.941 326.107,216.544 326.850,216.192 327.229 C 215.839 327.607,215.457 328.155,215.343 328.445 C 215.186 328.843,215.127 328.813,215.106 328.320 C 215.080 327.729,215.709 326.214,216.795 324.251 C 217.016 323.851,217.411 322.952,217.674 322.252 C 218.015 321.343,218.188 321.168,218.280 321.639 C 218.351 322.001,218.162 322.818,217.861 323.455 M142.189 325.704 C 142.189 327.902,142.249 328.754,142.322 327.598 C 142.394 326.442,142.393 324.643,142.320 323.602 C 142.247 322.560,142.188 323.506,142.189 325.704 M236.621 323.706 C 236.621 324.805,236.689 325.254,236.772 324.705 C 236.856 324.155,236.856 323.256,236.772 322.707 C 236.689 322.157,236.621 322.607,236.621 323.706 M213.106 331.523 C 212.592 332.037,212.171 332.288,212.171 332.081 C 212.171 331.504,213.774 329.788,213.916 330.214 C 213.985 330.420,213.620 331.009,213.106 331.523 M208.098 336.546 C 206.855 337.817,205.060 338.965,204.314 338.965 C 203.769 338.965,203.810 338.857,204.551 338.350 C 205.045 338.012,205.531 337.638,205.631 337.520 C 205.731 337.401,206.303 336.947,206.903 336.511 C 208.368 335.445,209.153 335.468,208.098 336.546 M201.544 340.305 C 201.194 340.396,200.908 340.623,200.908 340.808 C 200.908 340.993,200.459 341.142,199.909 341.139 L 198.910 341.134 199.818 340.630 C 200.318 340.353,201.054 340.129,201.453 340.132 C 202.051 340.138,202.067 340.168,201.544 340.305 M198.274 341.758 C 197.925 341.850,197.352 341.850,197.003 341.758 C 196.653 341.667,196.939 341.592,197.639 341.592 C 198.338 341.592,198.624 341.667,198.274 341.758 M223.433 345.468 C 223.433 345.898,220.914 348.411,220.482 348.411 C 220.298 348.411,220.845 347.687,221.699 346.802 C 223.424 345.015,223.433 345.008,223.433 345.468 M226.135 351.408 L 225.068 352.589 226.249 351.521 C 226.898 350.935,227.430 350.403,227.430 350.341 C 227.430 350.060,227.130 350.307,226.135 351.408 M205.540 356.290 C 205.191 356.382,204.619 356.382,204.269 356.290 C 203.919 356.199,204.205 356.124,204.905 356.124 C 205.604 356.124,205.890 356.199,205.540 356.290 " stroke="none" fill="#a36b3b" fill-rule="evenodd"></path><path id="path5" d="M55.334 31.055 C 35.637 34.645,22.599 52.479,22.526 75.931 C 22.509 81.169,23.043 80.803,15.116 81.017 C 7.631 81.220,7.017 81.412,5.723 83.950 C 4.780 85.797,4.738 153.156,5.677 155.504 C 6.942 158.665,4.363 158.463,44.182 158.527 L 79.176 158.583 81.096 160.435 C 87.823 166.924,95.673 169.121,114.078 169.665 C 131.005 170.166,136.217 172.249,141.672 180.696 C 142.463 181.922,143.421 183.333,143.801 183.833 C 152.147 194.819,152.845 224.376,146.056 279.382 C 140.874 321.366,140.470 330.824,143.482 339.604 C 146.699 348.980,155.991 356.734,169.593 361.394 L 173.479 362.725 190.372 362.743 L 207.266 362.761 209.809 361.890 C 227.255 355.916,236.389 343.872,237.115 325.886 C 237.381 319.288,236.188 305.123,233.961 288.465 C 233.761 286.966,233.100 281.571,232.491 276.476 C 231.883 271.381,231.229 265.904,231.038 264.305 C 227.864 237.754,227.730 213.794,230.682 200.646 C 234.886 181.924,243.430 174.268,261.217 173.287 C 281.529 172.167,289.202 169.804,296.437 162.442 L 299.868 158.951 318.962 158.709 C 329.464 158.577,344.904 158.453,353.272 158.435 C 370.327 158.397,370.153 158.424,371.442 155.707 C 372.190 154.130,372.347 84.664,371.606 83.038 C 370.714 81.079,369.858 80.851,362.656 80.654 C 354.669 80.436,355.448 81.267,355.212 72.709 C 354.653 52.397,343.645 37.360,325.159 31.654 L 322.071 30.701 190.009 30.640 C 82.445 30.590,57.462 30.667,55.334 31.055 M322.612 31.810 C 341.258 35.347,353.888 51.694,354.547 73.145 C 354.823 82.126,354.114 81.380,362.376 81.382 C 369.139 81.383,370.664 81.777,371.118 83.640 C 371.229 84.096,371.275 100.463,371.219 120.012 L 371.117 155.555 369.982 156.569 L 368.846 157.584 339.464 157.815 C 295.553 158.161,299.750 157.752,295.913 162.061 C 292.457 165.943,287.526 168.563,279.927 170.555 C 275.759 171.648,267.947 172.562,262.670 172.575 C 231.831 172.649,222.918 197.237,230.141 262.307 C 230.462 265.204,231.533 274.114,232.520 282.107 C 233.508 290.100,234.643 299.746,235.044 303.542 C 235.445 307.339,235.957 312.134,236.182 314.198 C 238.865 338.813,230.400 353.853,209.748 361.165 L 206.779 362.216 190.492 362.211 L 174.205 362.205 169.985 360.785 C 146.977 353.043,139.770 340.670,142.779 314.078 C 142.959 312.480,143.291 309.292,143.515 306.994 C 143.926 302.782,146.116 284.071,146.789 279.019 C 153.784 226.561,152.832 196.984,143.679 182.332 C 137.266 172.066,132.464 169.782,116.258 169.287 C 96.887 168.696,87.777 166.207,81.318 159.738 L 79.621 158.038 75.687 157.995 C 73.523 157.972,57.693 157.909,40.509 157.855 C 6.900 157.750,7.777 157.803,6.541 155.777 C 5.551 154.152,5.382 85.810,6.364 83.912 C 7.407 81.895,8.568 81.593,15.804 81.454 C 23.813 81.301,23.252 81.764,23.252 75.314 C 23.252 52.522,36.653 34.759,56.312 31.494 C 59.479 30.968,319.802 31.277,322.612 31.810 M122.918 36.966 C 158.652 37.017,217.017 37.017,252.618 36.966 C 288.219 36.915,258.983 36.874,187.648 36.874 C 116.312 36.874,87.184 36.915,122.918 36.966 M52.852 37.585 C 50.228 38.228,44.961 40.893,43.167 42.485 L 41.632 43.848 42.106 45.431 C 44.905 54.774,54.513 66.871,62.006 70.484 C 65.047 71.951,65.395 71.849,62.561 70.321 C 57.788 67.749,53.611 64.009,49.867 58.956 C 47.330 55.531,42.507 46.169,42.507 44.669 C 42.507 42.498,49.005 38.780,54.859 37.601 C 56.497 37.271,56.831 37.127,55.949 37.132 C 55.250 37.135,53.856 37.339,52.852 37.585 M321.344 37.289 C 327.845 38.609,334.290 41.875,334.713 44.063 C 334.864 44.840,334.871 44.838,334.919 44.003 C 335.049 41.721,325.946 36.945,321.760 37.099 C 321.078 37.125,320.910 37.201,321.344 37.289 M35.794 49.920 C 34.457 51.338,31.540 56.792,30.496 59.827 C 28.016 67.037,27.529 101.165,29.788 109.537 C 33.571 123.562,44.942 133.736,58.038 134.813 C 67.310 135.576,321.205 135.050,324.251 134.262 C 336.263 131.152,346.211 119.620,348.602 106.032 C 349.385 101.586,349.376 69.768,348.591 65.267 C 347.757 60.484,344.782 53.364,342.529 50.763 C 341.010 49.008,340.565 49.861,340.248 55.142 C 339.373 69.681,333.803 83.524,327.538 86.724 C 323.875 88.596,320.367 87.561,313.928 82.711 C 304.616 75.697,301.994 77.998,299.922 95.005 C 297.401 115.701,296.201 120.545,292.699 124.172 C 287.548 129.506,280.671 125.450,278.048 115.531 C 277.324 112.796,277.226 106.467,277.717 94.278 C 278.559 73.399,271.837 68.793,251.737 76.476 C 241.291 80.468,237.431 80.533,226.098 76.910 C 218.088 74.349,209.687 74.249,203.088 76.634 C 184.790 83.250,181.270 83.426,170.027 78.292 C 151.645 69.896,144.972 73.492,144.954 91.804 C 144.939 108.442,136.762 117.126,125.431 112.538 C 118.419 109.700,115.092 103.886,113.318 91.371 C 112.061 82.502,110.391 78.066,107.178 75.060 C 103.873 71.969,102.140 72.007,95.168 75.326 C 73.363 85.707,51.699 76.824,39.737 52.598 C 37.699 48.470,37.372 48.248,35.794 49.920 M39.604 54.497 C 51.773 77.675,73.950 86.474,94.823 76.406 C 100.344 73.742,101.686 73.335,103.388 73.805 C 107.619 74.973,111.663 82.493,112.446 90.645 C 113.998 106.822,120.512 114.787,131.766 114.272 C 140.748 113.861,144.710 107.746,145.310 93.370 C 145.827 80.971,147.347 77.265,152.742 75.246 C 156.764 73.741,158.751 74.238,171.117 79.843 C 178.987 83.411,185.584 83.446,195.702 79.977 C 211.489 74.563,214.804 74.291,225.215 77.555 C 236.984 81.245,242.264 81.134,252.636 76.977 C 260.996 73.627,264.444 73.080,268.746 74.419 C 276.173 76.730,278.095 82.173,276.977 97.729 C 275.872 113.112,277.070 120.069,281.599 124.566 C 286.154 129.088,293.005 127.605,295.699 121.513 C 297.679 117.038,298.323 113.428,300.496 94.641 C 302.279 79.229,304.994 77.082,313.978 83.980 C 319.340 88.098,324.375 89.298,328.247 87.383 C 334.062 84.505,339.364 71.789,340.786 57.308 C 341.358 51.481,341.709 51.095,343.592 54.223 C 345.708 57.739,347.024 61.592,348.379 68.238 C 348.925 70.913,348.912 100.396,348.364 103.339 C 345.335 119.608,336.349 130.158,322.326 133.908 C 318.889 134.827,58.257 134.664,54.945 133.741 C 42.448 130.257,33.497 120.724,30.058 107.237 C 28.805 102.325,28.807 68.624,30.060 64.078 C 31.786 57.816,35.624 50.315,36.975 50.566 C 37.350 50.636,38.408 52.218,39.604 54.497 M334.657 53.588 C 334.661 55.155,334.710 55.275,335.007 54.465 C 335.226 53.868,335.224 53.205,335.002 52.648 C 334.707 51.910,334.652 52.060,334.657 53.588 M334.326 57.766 C 334.326 58.465,334.401 58.751,334.492 58.401 C 334.583 58.052,334.583 57.480,334.492 57.130 C 334.401 56.780,334.326 57.066,334.326 57.766 M271.911 68.989 C 272.047 69.210,272.410 69.391,272.717 69.391 C 273.024 69.391,273.760 69.736,274.352 70.158 C 274.944 70.579,275.509 70.843,275.608 70.744 C 275.832 70.520,273.688 69.202,272.525 68.849 C 271.934 68.669,271.740 68.714,271.911 68.989 M110.032 70.799 C 111.104 71.823,112.054 72.661,112.143 72.661 C 112.472 72.661,111.739 71.772,110.517 70.688 C 108.348 68.766,107.990 68.847,110.032 70.799 M163.124 69.755 C 163.424 69.948,163.915 70.107,164.214 70.107 C 164.699 70.107,164.699 70.068,164.214 69.755 C 163.915 69.561,163.424 69.403,163.124 69.403 C 162.640 69.403,162.640 69.442,163.124 69.755 M303.542 74.131 C 303.036 74.361,303.256 74.394,304.269 74.239 C 305.068 74.118,305.790 73.958,305.873 73.885 C 306.186 73.609,304.240 73.815,303.542 74.131 M308.447 74.314 C 309.746 74.592,311.912 75.392,313.261 76.093 C 316.033 77.532,316.381 77.559,314.288 76.174 C 312.497 74.989,308.845 73.742,307.278 73.780 C 306.421 73.801,306.751 73.951,308.447 74.314 M279.746 75.148 C 279.746 75.317,280.098 75.766,280.529 76.147 L 281.311 76.839 280.668 75.840 C 280.005 74.810,279.746 74.615,279.746 75.148 M114.096 75.338 C 114.086 75.511,114.703 77.065,115.468 78.789 C 116.232 80.514,117.167 83.207,117.546 84.772 C 117.925 86.338,118.296 87.436,118.371 87.212 C 118.651 86.372,116.829 80.370,115.498 77.748 C 114.737 76.249,114.106 75.165,114.096 75.338 M297.868 78.921 C 296.821 80.973,295.360 85.318,295.400 86.258 C 295.418 86.673,295.637 86.276,295.887 85.377 C 296.136 84.478,296.925 82.312,297.639 80.563 C 299.035 77.145,299.133 76.442,297.868 78.921 M316.816 78.156 C 318.742 79.959,320.850 81.564,321.627 81.820 C 322.375 82.066,322.384 82.053,321.740 81.642 C 321.359 81.398,320.133 80.479,319.016 79.600 C 316.464 77.592,315.624 77.040,316.816 78.156 M326.243 80.919 C 325.410 81.789,325.402 81.829,326.138 81.437 C 326.952 81.004,327.517 80.347,327.279 80.110 C 327.206 80.037,326.740 80.401,326.243 80.919 M10.380 85.948 C 9.576 86.752,9.501 152.607,10.303 153.273 C 10.663 153.572,19.674 153.657,43.636 153.590 L 76.476 153.497 76.403 151.913 C 76.248 148.537,79.279 148.849,46.266 148.809 C 23.739 148.782,17.066 148.673,16.646 148.324 C 15.683 147.526,15.400 96.358,16.350 94.821 C 16.537 94.519,19.772 93.754,22.434 93.382 C 22.909 93.316,22.441 85.786,21.950 85.597 C 20.578 85.071,10.966 85.362,10.380 85.948 M355.677 85.642 C 354.737 85.999,354.598 86.556,354.592 89.970 C 354.586 93.806,354.347 93.567,358.560 93.935 C 360.352 94.091,361.743 94.402,362.057 94.716 C 362.886 95.544,362.835 146.976,362.005 148.161 L 361.430 148.982 332.043 148.941 C 315.880 148.918,302.492 149.000,302.292 149.124 C 301.754 149.456,301.108 152.149,301.368 152.970 C 301.651 153.861,365.127 154.110,366.324 153.224 C 367.138 152.622,367.304 86.196,366.492 85.681 C 365.975 85.353,356.526 85.318,355.677 85.642 M294.809 89.178 C 294.668 90.303,294.635 91.305,294.735 91.405 C 294.835 91.505,295.032 90.666,295.172 89.541 C 295.313 88.416,295.346 87.414,295.246 87.314 C 295.146 87.214,294.949 88.053,294.809 89.178 M118.484 89.075 C 118.356 92.775,120.121 100.430,121.684 102.960 C 122.933 104.979,125.811 107.552,126.289 107.075 C 126.388 106.976,125.929 106.557,125.269 106.144 C 121.859 104.010,119.916 99.219,118.837 90.282 C 118.647 88.714,118.512 88.251,118.484 89.075 M283.470 89.192 C 283.474 89.991,283.549 90.275,283.636 89.823 C 283.723 89.371,283.719 88.717,283.628 88.370 C 283.537 88.023,283.466 88.392,283.470 89.192 M294.133 94.044 C 293.988 95.314,293.948 96.431,294.044 96.527 C 294.285 96.768,294.756 92.806,294.557 92.214 C 294.468 91.951,294.277 92.774,294.133 94.044 M20.426 98.295 L 19.619 98.860 19.619 120.976 C 19.619 140.429,19.686 143.158,20.179 143.652 C 20.953 144.425,74.424 144.305,75.360 143.527 C 77.715 141.573,75.593 140.599,68.980 140.599 C 52.163 140.599,42.360 137.206,35.485 129.004 C 27.872 119.923,24.762 113.114,23.605 102.997 C 23.047 98.113,22.288 96.991,20.426 98.295 M293.613 98.638 C 293.575 99.237,293.459 100.381,293.356 101.181 C 293.193 102.446,293.220 102.518,293.559 101.740 C 293.773 101.248,293.888 100.103,293.815 99.196 C 293.732 98.170,293.656 97.959,293.613 98.638 M22.429 99.575 C 22.676 100.058,22.880 101.190,22.883 102.089 C 22.909 109.829,27.674 120.998,34.121 128.429 C 35.335 129.827,36.329 131.095,36.329 131.246 C 36.332 131.834,42.488 136.058,45.450 137.505 C 50.134 139.793,59.751 141.337,69.275 141.330 C 73.226 141.327,74.166 141.430,74.657 141.920 C 76.024 143.287,75.311 143.324,47.484 143.324 L 20.527 143.324 20.433 121.186 C 20.338 98.635,20.361 98.189,21.617 98.581 C 21.817 98.644,22.182 99.091,22.429 99.575 M355.013 99.092 C 354.833 99.441,354.586 101.035,354.464 102.634 C 353.239 118.643,342.771 133.183,328.709 138.409 C 324.346 140.031,322.364 140.290,312.988 140.465 C 301.613 140.676,301.029 140.822,302.263 143.129 C 302.746 144.032,356.162 144.328,357.057 143.433 C 357.687 142.804,357.687 99.522,357.057 98.892 C 356.423 98.257,355.389 98.358,355.013 99.092 M356.679 121.349 L 356.585 142.928 355.677 143.181 C 354.542 143.496,305.685 143.589,304.133 143.279 C 302.759 143.004,302.539 141.798,303.815 141.534 C 304.264 141.442,308.392 141.290,312.988 141.197 C 325.776 140.939,331.177 139.321,338.888 133.438 C 347.982 126.501,355.313 112.180,355.313 101.353 C 355.313 99.698,355.821 98.912,356.497 99.522 C 356.648 99.658,356.730 109.480,356.679 121.349 M283.384 115.017 C 283.387 115.400,283.556 115.958,283.759 116.258 C 284.028 116.656,284.062 116.509,283.884 115.713 C 283.585 114.377,283.377 114.087,283.384 115.017 M181.415 141.238 C 181.184 141.387,194.304 141.508,210.570 141.508 C 226.837 141.508,240.145 141.389,240.145 141.244 C 240.145 140.895,181.958 140.890,181.415 141.238 M283.560 141.352 C 288.156 141.504,292.765 141.711,293.801 141.812 C 295.331 141.961,295.649 141.898,295.488 141.479 C 295.323 141.048,293.630 140.972,285.247 141.019 L 275.204 141.076 283.560 141.352 M81.931 148.627 C 82.277 158.195,93.152 163.124,113.916 163.124 C 139.700 163.124,150.830 173.837,155.813 203.451 C 157.343 212.547,157.270 230.988,155.638 247.411 C 155.330 250.509,154.954 254.759,154.802 256.857 C 154.650 258.955,154.425 260.917,154.302 261.217 C 154.179 261.517,153.991 262.988,153.884 264.487 C 153.697 267.111,152.533 277.405,151.870 282.289 C 148.593 306.448,146.852 328.386,147.836 333.119 C 148.803 337.769,149.023 338.518,150.039 340.610 C 152.553 345.790,163.572 354.228,167.812 354.222 C 168.769 354.221,167.970 353.779,162.398 351.231 C 158.130 349.280,152.375 343.935,150.604 340.277 C 147.781 334.447,147.528 324.680,149.698 305.177 C 149.887 303.479,150.198 300.618,150.390 298.819 C 150.581 297.021,150.826 294.977,150.934 294.278 C 151.042 293.579,151.459 290.227,151.860 286.830 C 152.262 283.433,152.752 279.510,152.949 278.111 C 153.145 276.712,153.378 274.832,153.466 273.933 C 153.554 273.034,153.796 270.908,154.006 269.210 C 154.486 265.304,155.009 260.384,155.511 255.041 C 155.727 252.743,156.065 249.146,156.262 247.048 C 158.318 225.140,157.588 204.538,154.350 193.097 C 149.797 177.012,142.781 168.407,131.058 164.531 L 126.612 163.061 115.350 162.743 C 104.755 162.443,103.182 162.295,96.760 160.992 C 88.146 159.245,82.759 154.198,81.973 147.139 C 81.895 146.440,81.876 147.109,81.931 148.627 M289.119 159.597 C 288.637 160.079,288.006 160.567,287.718 160.681 C 287.273 160.856,287.277 160.892,287.738 160.915 C 288.370 160.948,290.498 159.223,290.197 158.923 C 290.086 158.812,289.601 159.115,289.119 159.597 M252.861 166.815 C 247.687 168.147,247.225 168.283,245.958 168.840 C 245.204 169.172,244.886 169.471,245.177 169.574 C 245.446 169.670,246.018 169.582,246.448 169.380 C 247.687 168.795,249.304 168.290,250.681 168.058 C 252.714 167.715,255.767 166.686,255.767 166.344 C 255.767 166.172,255.727 166.049,255.677 166.072 C 255.627 166.095,254.360 166.429,252.861 166.815 M241.894 170.690 C 241.158 171.025,239.977 171.830,239.270 172.480 C 238.563 173.129,237.842 173.660,237.668 173.660 C 237.177 173.660,236.003 175.088,236.272 175.358 C 236.404 175.490,236.512 175.407,236.512 175.174 C 236.512 174.941,236.767 174.750,237.079 174.750 C 237.390 174.750,237.544 174.587,237.421 174.387 C 237.297 174.187,237.420 174.024,237.694 174.024 C 237.968 174.024,238.514 173.723,238.908 173.356 C 239.302 172.989,240.028 172.585,240.521 172.459 C 241.014 172.333,241.841 171.833,242.360 171.348 C 242.878 170.862,243.614 170.386,243.995 170.289 C 244.644 170.122,244.642 170.111,243.960 170.096 C 243.560 170.088,242.631 170.355,241.894 170.690 M234.009 177.071 C 233.263 177.840,232.964 178.393,233.211 178.545 C 233.428 178.680,233.607 178.657,233.607 178.496 C 233.608 178.334,234.107 177.670,234.716 177.021 C 235.324 176.371,235.683 175.840,235.512 175.840 C 235.341 175.840,234.665 176.394,234.009 177.071 M231.444 180.347 C 231.167 180.865,231.050 181.398,231.183 181.531 C 231.317 181.665,231.426 181.515,231.426 181.199 C 231.426 180.883,231.614 180.561,231.844 180.484 C 232.074 180.408,232.191 180.134,232.105 179.875 C 232.008 179.584,231.757 179.764,231.444 180.347 M228.206 185.922 C 228.178 186.371,227.993 186.739,227.793 186.739 C 227.593 186.739,227.449 187.189,227.472 187.738 C 227.504 188.504,227.556 188.568,227.695 188.011 C 227.795 187.611,228.036 187.184,228.230 187.062 C 228.424 186.939,228.509 186.449,228.419 185.972 C 228.260 185.128,228.254 185.126,228.206 185.922 M184.559 281.251 C 183.261 281.430,181.340 281.901,180.291 282.296 C 179.242 282.692,177.443 283.372,176.294 283.807 C 169.790 286.273,163.277 292.975,160.114 300.454 C 154.883 312.827,158.911 327.743,169.820 336.396 C 175.206 340.668,186.637 344.429,190.749 343.283 C 191.370 343.110,191.020 343.022,189.608 342.997 C 163.030 342.524,148.636 310.289,166.625 291.526 C 182.838 274.614,207.726 279.846,217.733 302.271 C 218.245 303.418,218.302 303.454,218.312 302.634 C 218.322 301.790,216.932 297.295,216.906 298.089 C 216.899 298.287,215.965 297.061,214.831 295.365 C 211.399 290.233,208.208 287.418,202.139 284.170 C 197.054 281.448,190.734 280.399,184.559 281.251 M185.831 286.884 C 158.414 291.272,155.545 329.062,182.071 336.412 C 201.307 341.743,218.284 324.133,212.885 304.450 C 209.876 293.483,196.969 285.102,185.831 286.884 M191.644 287.906 C 200.870 289.587,206.643 293.795,210.641 301.753 C 221.421 323.210,196.300 345.594,176.007 332.613 C 155.786 319.677,164.025 289.560,188.374 287.408 C 188.574 287.391,190.045 287.614,191.644 287.906 M217.674 322.252 C 217.411 322.952,217.016 323.851,216.795 324.251 C 215.709 326.214,215.080 327.729,215.106 328.320 C 215.127 328.813,215.186 328.843,215.343 328.445 C 215.457 328.155,215.839 327.607,216.192 327.229 C 216.544 326.850,216.941 326.107,217.073 325.577 C 217.205 325.047,217.560 324.093,217.861 323.455 C 218.162 322.818,218.351 322.001,218.280 321.639 C 218.188 321.168,218.015 321.343,217.674 322.252 M212.981 330.772 C 211.859 332.063,211.960 332.669,213.106 331.523 C 213.620 331.009,213.985 330.420,213.916 330.214 C 213.848 330.008,213.427 330.259,212.981 330.772 M206.903 336.511 C 206.303 336.947,205.731 337.401,205.631 337.520 C 205.531 337.638,205.045 338.012,204.551 338.350 C 203.810 338.857,203.769 338.965,204.314 338.965 C 205.060 338.965,206.855 337.817,208.098 336.546 C 209.153 335.468,208.368 335.445,206.903 336.511 M199.818 340.630 L 198.910 341.134 199.909 341.139 C 200.459 341.142,200.908 340.993,200.908 340.808 C 200.908 340.623,201.194 340.396,201.544 340.305 C 202.067 340.168,202.051 340.138,201.453 340.132 C 201.054 340.129,200.318 340.353,199.818 340.630 M197.003 341.758 C 197.352 341.850,197.925 341.850,198.274 341.758 C 198.624 341.667,198.338 341.592,197.639 341.592 C 196.939 341.592,196.653 341.667,197.003 341.758 M221.699 346.802 C 220.845 347.687,220.298 348.411,220.482 348.411 C 220.914 348.411,223.433 345.898,223.433 345.468 C 223.433 345.008,223.424 345.015,221.699 346.802 M204.269 356.290 C 204.619 356.382,205.191 356.382,205.540 356.290 C 205.890 356.199,205.604 356.124,204.905 356.124 C 204.205 356.124,203.919 356.199,204.269 356.290 " stroke="none" fill="#868889" fill-rule="evenodd"></path><path id="path6" d="M55.404 38.147 C 55.281 38.347,54.615 38.510,53.926 38.510 C 52.814 38.510,51.991 38.794,48.320 40.444 C 47.066 41.007,43.331 43.508,43.040 43.979 C 42.342 45.109,47.826 55.601,51.589 60.334 C 54.969 64.584,60.776 69.391,62.529 69.391 C 62.873 69.391,63.217 69.579,63.294 69.809 C 63.371 70.039,63.661 70.151,63.940 70.058 C 64.248 69.956,63.095 68.870,61.016 67.302 C 56.527 63.918,53.010 60.207,49.850 55.521 C 47.929 52.672,44.323 45.702,44.323 44.837 C 44.323 43.485,50.762 40.283,55.949 39.057 C 57.048 38.797,57.661 38.568,57.312 38.548 C 56.962 38.527,56.676 38.347,56.676 38.147 C 56.676 37.947,56.440 37.784,56.152 37.784 C 55.864 37.784,55.528 37.947,55.404 38.147 M214.991 38.041 C 215.443 38.128,216.096 38.124,216.444 38.033 C 216.791 37.943,216.421 37.871,215.622 37.875 C 214.823 37.879,214.539 37.954,214.991 38.041 M257.134 38.041 C 257.586 38.128,258.240 38.124,258.587 38.033 C 258.935 37.943,258.565 37.871,257.766 37.875 C 256.966 37.879,256.682 37.954,257.134 38.041 M322.434 39.189 C 325.376 40.034,328.813 41.433,329.700 42.147 C 330.100 42.468,330.836 42.924,331.335 43.159 C 331.835 43.393,332.611 43.853,333.061 44.180 C 333.837 44.745,333.878 44.737,333.878 44.023 C 333.878 43.082,332.235 41.829,329.155 40.423 C 325.186 38.609,324.836 38.510,322.508 38.536 L 320.254 38.562 322.434 39.189 M333.072 53.315 C 332.868 54.100,333.101 54.859,333.545 54.859 C 333.728 54.859,333.878 54.369,333.878 53.769 C 333.878 52.588,333.339 52.284,333.072 53.315 M304.315 72.491 C 304.151 72.919,304.491 73.025,306.037 73.025 C 308.474 73.025,314.623 74.925,314.623 75.678 C 314.623 75.841,314.787 75.873,314.986 75.749 C 316.829 74.610,311.874 72.298,307.119 72.078 C 305.088 71.983,304.475 72.074,304.315 72.491 M115.531 75.890 C 115.531 76.300,115.834 77.175,116.204 77.834 C 117.112 79.450,118.438 83.241,118.438 84.220 C 118.438 84.657,118.601 85.014,118.801 85.014 C 119.001 85.014,119.164 85.595,119.164 86.307 C 119.164 87.115,119.307 87.512,119.545 87.364 C 119.902 87.144,119.874 86.652,119.305 83.197 C 118.631 79.096,115.531 73.094,115.531 75.890 M296.167 78.183 C 295.927 78.423,295.730 78.791,295.729 79.001 C 295.728 79.211,295.504 79.808,295.233 80.329 C 294.723 81.305,294.012 84.007,293.761 85.922 C 293.682 86.521,293.441 87.882,293.226 88.946 C 292.472 92.660,291.698 101.471,292.090 101.863 C 292.343 102.116,292.461 101.597,292.461 100.236 C 292.461 99.137,292.620 98.080,292.813 97.886 C 293.006 97.693,293.207 96.393,293.260 94.998 C 293.312 93.603,293.468 92.378,293.607 92.275 C 293.746 92.173,293.910 90.974,293.971 89.611 C 294.032 88.248,294.208 87.055,294.362 86.960 C 294.515 86.865,294.641 86.225,294.641 85.537 C 294.641 84.850,294.769 84.287,294.925 84.287 C 295.081 84.287,295.437 83.510,295.714 82.561 C 295.992 81.612,296.518 80.299,296.884 79.644 C 297.866 77.881,297.406 76.944,296.167 78.183 M119.498 89.252 C 119.096 90.007,119.082 90.252,119.437 90.371 C 119.726 90.468,119.897 91.271,119.907 92.583 C 119.923 94.615,120.579 97.812,121.084 98.317 C 121.227 98.460,121.344 98.879,121.344 99.248 C 121.344 99.617,121.489 100.203,121.665 100.550 C 121.842 100.897,122.202 101.641,122.466 102.203 C 123.022 103.390,124.818 105.359,125.344 105.359 C 125.892 105.359,125.773 104.415,125.161 103.907 C 124.321 103.210,122.550 99.908,122.042 98.093 C 121.475 96.065,121.552 96.438,120.811 92.098 C 120.088 87.861,120.158 88.013,119.498 89.252 " stroke="none" fill="#eed394" fill-rule="evenodd"></path><path id="path7" d="M54.859 37.601 C 49.005 38.780,42.507 42.498,42.507 44.669 C 42.507 46.164,47.325 55.523,49.862 58.956 C 53.924 64.452,58.822 68.623,64.000 70.992 C 67.570 72.626,69.156 73.013,65.940 71.466 C 58.448 67.861,53.784 63.848,49.162 57.031 C 46.572 53.209,42.587 44.713,43.040 43.979 C 43.332 43.507,47.068 41.006,48.320 40.445 C 48.819 40.221,49.882 39.744,50.681 39.385 C 51.480 39.026,53.851 38.371,55.949 37.928 C 58.047 37.485,59.192 37.124,58.492 37.124 C 57.793 37.125,56.158 37.339,54.859 37.601 M311.535 37.415 C 317.426 37.557,321.925 37.826,322.797 38.088 C 323.597 38.329,324.905 38.721,325.704 38.959 C 328.583 39.819,332.920 42.293,333.777 43.566 C 334.457 44.575,334.605 44.661,334.605 44.046 C 334.605 43.058,332.899 41.665,329.735 40.071 C 324.532 37.449,323.629 37.304,312.080 37.238 L 301.726 37.180 311.535 37.415 M343.506 43.233 C 344.286 44.033,345.007 44.687,345.107 44.687 C 345.207 44.687,344.650 44.033,343.869 43.233 C 343.089 42.434,342.368 41.780,342.269 41.780 C 342.169 41.780,342.725 42.434,343.506 43.233 M334.151 53.351 C 334.054 53.721,334.098 54.661,334.248 55.440 C 334.509 56.792,334.523 56.761,334.563 54.768 C 334.606 52.636,334.464 52.151,334.151 53.351 M109.718 70.030 C 110.618 70.838,111.429 71.426,111.521 71.337 C 111.708 71.156,109.929 69.603,108.810 68.971 C 108.411 68.745,108.819 69.222,109.718 70.030 M275.023 70.086 C 275.522 70.494,276.094 70.830,276.294 70.831 C 276.683 70.834,276.026 70.331,274.841 69.718 C 274.358 69.469,274.419 69.592,275.023 70.086 M304.297 73.510 C 303.340 73.919,303.483 73.950,305.750 73.822 C 308.679 73.657,311.890 74.573,314.593 76.344 L 316.258 77.434 314.763 76.047 C 312.282 73.745,306.839 72.426,304.297 73.510 M115.432 77.575 C 117.132 80.985,118.263 85.084,118.805 89.793 C 119.923 99.509,121.742 103.897,125.704 106.433 C 126.879 107.186,126.851 107.128,125.334 105.667 C 121.546 102.021,120.345 98.566,118.980 87.375 C 118.433 82.890,116.109 76.438,114.585 75.173 C 114.251 74.896,114.625 75.955,115.432 77.575 M297.820 78.202 C 296.375 80.199,295.639 82.171,294.833 86.201 C 294.121 89.763,292.757 101.222,292.899 102.443 C 292.958 102.948,293.392 100.254,293.863 96.458 C 295.182 85.819,296.019 82.265,298.066 78.602 C 299.113 76.729,299.009 76.559,297.820 78.202 M319.910 80.321 C 320.159 80.724,322.267 81.851,322.443 81.675 C 322.510 81.607,321.921 81.199,321.133 80.768 C 320.345 80.336,319.795 80.135,319.910 80.321 M359.021 80.560 C 360.361 80.629,362.650 80.630,364.108 80.561 C 365.565 80.492,364.469 80.435,361.671 80.434 C 358.874 80.433,357.681 80.490,359.021 80.560 M12.988 80.924 C 14.437 80.993,16.807 80.993,18.256 80.924 C 19.705 80.855,18.520 80.798,15.622 80.798 C 12.725 80.798,11.540 80.855,12.988 80.924 M4.894 120.073 C 4.894 133.061,4.940 138.321,4.995 131.763 C 5.051 125.204,5.051 114.578,4.995 108.148 C 4.940 101.718,4.894 107.084,4.894 120.073 M180.381 141.692 C 176.185 141.803,173.815 141.942,175.114 142.003 C 176.412 142.063,177.965 142.162,178.565 142.223 C 180.260 142.397,241.325 142.433,242.144 142.261 C 242.543 142.177,243.115 142.063,243.415 142.007 C 246.097 141.508,196.718 141.261,180.381 141.692 M39.873 143.413 C 41.521 143.480,44.219 143.480,45.867 143.413 C 47.516 143.346,46.167 143.290,42.870 143.290 C 39.573 143.290,38.224 143.346,39.873 143.413 M68.042 143.411 C 69.199 143.484,70.997 143.483,72.039 143.410 C 73.080 143.337,72.134 143.278,69.936 143.278 C 67.738 143.279,66.886 143.339,68.042 143.411 M317.102 143.415 C 324.160 143.470,335.604 143.470,342.533 143.415 C 349.462 143.360,343.688 143.315,329.700 143.315 C 315.713 143.315,310.044 143.360,317.102 143.415 M82.107 147.006 C 82.107 153.558,88.044 159.224,96.760 160.992 C 103.182 162.295,104.755 162.443,115.350 162.743 L 126.612 163.061 131.058 164.531 C 144.937 169.120,152.983 181.299,156.292 202.725 C 157.760 212.231,157.747 231.228,156.262 247.048 C 156.065 249.146,155.727 252.743,155.511 255.041 C 155.009 260.384,154.486 265.304,154.006 269.210 C 153.796 270.908,153.554 273.034,153.466 273.933 C 153.378 274.832,153.145 276.712,152.949 278.111 C 152.752 279.510,152.262 283.433,151.860 286.830 C 151.459 290.227,151.042 293.579,150.934 294.278 C 150.826 294.977,150.581 297.021,150.390 298.819 C 150.198 300.618,149.887 303.479,149.698 305.177 C 146.551 333.470,148.014 340.999,158.136 348.608 C 161.382 351.048,165.668 353.037,165.668 352.104 C 165.668 351.813,160.823 348.411,160.408 348.411 C 158.817 348.411,151.135 339.548,151.135 337.712 C 151.135 337.269,151.015 336.786,150.869 336.640 C 148.852 334.622,148.947 322.351,151.133 302.452 C 152.014 294.428,152.209 292.813,152.573 290.463 C 152.960 287.965,153.534 283.334,153.855 280.109 C 154.175 276.906,154.798 271.551,154.997 270.300 C 155.109 269.600,155.335 267.720,155.500 266.122 C 155.664 264.523,155.982 261.744,156.207 259.946 C 156.731 255.735,157.298 249.204,157.498 245.050 C 157.585 243.252,157.836 239.824,158.057 237.434 C 159.042 226.779,158.517 208.310,156.968 199.092 C 156.783 197.993,156.518 196.313,156.379 195.360 C 156.239 194.406,155.983 193.538,155.810 193.431 C 155.637 193.324,155.496 192.959,155.497 192.622 C 155.511 187.888,149.233 175.718,144.188 170.701 C 137.117 163.667,132.555 162.151,116.985 161.656 C 104.174 161.249,99.945 160.840,98.007 159.823 C 97.660 159.640,96.998 159.491,96.535 159.491 C 96.073 159.491,95.540 159.356,95.350 159.191 C 95.160 159.026,94.269 158.666,93.370 158.391 C 88.097 156.778,84.528 153.053,83.373 147.956 C 82.693 144.959,82.107 144.519,82.107 147.006 M32.425 158.662 C 32.975 158.745,33.874 158.745,34.423 158.662 C 34.973 158.578,34.523 158.510,33.424 158.510 C 32.325 158.510,31.876 158.578,32.425 158.662 M51.862 158.664 C 52.511 158.745,53.574 158.745,54.223 158.664 C 54.873 158.584,54.342 158.518,53.043 158.518 C 51.744 158.518,51.213 158.584,51.862 158.664 M73.652 158.664 C 74.297 158.744,75.442 158.745,76.195 158.667 C 76.949 158.588,76.421 158.522,75.023 158.521 C 73.624 158.519,73.007 158.583,73.652 158.664 M333.969 158.666 C 334.718 158.744,335.945 158.744,336.694 158.666 C 337.443 158.588,336.830 158.524,335.332 158.524 C 333.833 158.524,333.220 158.588,333.969 158.666 M40.072 159.036 C 41.831 159.102,44.610 159.102,46.249 159.035 C 47.887 158.968,46.449 158.913,43.052 158.913 C 39.655 158.914,38.314 158.969,40.072 159.036 M309.603 159.037 C 313.537 159.095,320.076 159.095,324.136 159.037 C 328.195 158.978,324.977 158.930,316.985 158.930 C 308.992 158.930,305.670 158.978,309.603 159.037 M254.284 165.455 C 254.201 165.538,253.479 165.705,252.679 165.826 C 251.086 166.067,248.659 166.842,248.266 167.235 C 248.129 167.372,247.676 167.489,247.260 167.496 C 246.412 167.509,245.128 168.349,245.455 168.676 C 245.572 168.793,246.019 168.753,246.449 168.588 C 247.307 168.257,249.161 167.758,251.953 167.106 C 254.955 166.405,256.131 165.993,256.131 165.639 C 256.131 165.312,254.583 165.157,254.284 165.455 M111.081 169.935 C 113.129 170.000,116.480 170.000,118.529 169.935 C 120.577 169.870,118.901 169.817,114.805 169.817 C 110.708 169.817,109.033 169.870,111.081 169.935 M264.214 173.198 C 264.964 173.277,266.190 173.277,266.939 173.198 C 267.688 173.120,267.075 173.056,265.577 173.056 C 264.078 173.056,263.465 173.120,264.214 173.198 M257.848 173.559 C 258.493 173.639,259.638 173.641,260.392 173.562 C 261.145 173.483,260.618 173.418,259.219 173.416 C 257.820 173.415,257.203 173.479,257.848 173.559 M230.057 255.404 C 230.057 256.104,230.132 256.390,230.223 256.040 C 230.315 255.690,230.315 255.118,230.223 254.768 C 230.132 254.419,230.057 254.705,230.057 255.404 M185.831 279.935 C 183.633 280.199,181.262 280.581,180.563 280.783 C 179.864 280.985,178.883 281.257,178.383 281.387 C 177.503 281.617,174.962 282.699,173.479 283.475 C 171.997 284.250,171.294 284.655,171.117 284.834 C 171.017 284.935,170.362 285.445,169.661 285.966 C 164.193 290.036,159.700 296.327,157.758 302.634 C 156.490 306.754,156.010 315.426,156.889 318.331 C 158.390 323.293,158.957 324.884,159.914 326.821 C 161.691 330.416,165.349 334.945,168.423 337.354 C 171.154 339.494,174.352 341.508,175.021 341.508 C 175.392 341.508,175.850 341.651,176.040 341.825 C 177.023 342.730,184.108 344.432,186.666 344.378 C 190.685 344.293,190.820 343.542,186.881 343.184 C 168.315 341.499,154.649 323.621,158.386 305.904 C 160.407 296.323,168.003 286.951,176.294 283.807 C 177.443 283.372,179.242 282.692,180.291 282.297 C 186.473 279.969,195.510 280.748,202.139 284.182 C 207.903 287.167,211.412 290.252,214.791 295.305 C 217.618 299.533,217.993 297.677,215.201 293.273 C 212.936 289.699,205.129 283.015,203.219 283.015 C 202.947 283.015,202.725 282.888,202.725 282.731 C 202.725 282.575,201.948 282.225,200.999 281.952 C 200.050 281.680,199.110 281.336,198.910 281.189 C 198.547 280.922,197.930 280.798,193.824 280.163 C 192.625 279.978,191.235 279.742,190.736 279.640 C 190.236 279.538,188.029 279.670,185.831 279.935 M141.473 325.704 C 141.474 328.901,141.529 330.160,141.597 328.502 C 141.664 326.844,141.664 324.228,141.596 322.689 C 141.528 321.150,141.473 322.507,141.473 325.704 M237.368 323.887 C 237.367 325.686,237.428 326.467,237.504 325.624 C 237.581 324.781,237.581 323.309,237.506 322.354 C 237.431 321.399,237.369 322.089,237.368 323.887 M226.683 351.953 L 225.431 353.315 226.794 352.063 C 227.543 351.375,228.156 350.761,228.156 350.701 C 228.156 350.423,227.849 350.685,226.683 351.953 " stroke="none" fill="#d0aa86" fill-rule="evenodd"></path><path id="path8" d="M57.039 30.019 C 35.706 33.256,21.904 51.252,21.811 75.949 C 21.794 80.514,22.155 80.291,14.805 80.291 C 7.941 80.291,7.275 80.465,5.559 82.714 L 4.541 84.049 4.541 119.499 C 4.541 159.102,4.377 156.653,7.134 158.268 L 8.720 159.197 43.765 159.253 L 78.810 159.310 80.549 160.984 C 87.332 167.515,95.473 169.827,113.715 170.404 C 127.786 170.849,129.555 171.193,134.456 174.442 C 136.822 176.010,140.977 180.366,141.838 182.180 C 142.165 182.870,142.814 183.892,143.279 184.451 C 144.421 185.824,144.720 186.444,145.877 189.827 C 146.895 192.806,147.059 193.428,147.990 197.820 C 151.284 213.359,150.579 237.527,145.699 276.385 C 145.492 278.034,145.153 280.731,144.946 282.380 C 144.739 284.028,144.403 286.767,144.198 288.465 C 143.994 290.163,143.678 292.779,143.495 294.278 C 140.182 321.477,140.022 331.078,142.734 339.970 C 144.969 347.302,151.971 354.150,162.398 359.203 C 165.755 360.830,167.413 361.473,172.051 362.951 C 172.714 363.162,180.235 363.306,190.581 363.306 L 207.996 363.306 210.459 362.413 C 229.972 355.335,239.697 340.127,237.960 319.406 C 237.317 311.744,235.656 295.860,234.724 288.465 C 234.509 286.767,234.180 284.151,233.991 282.652 C 233.802 281.153,233.469 278.456,233.251 276.658 C 233.032 274.859,232.684 271.998,232.476 270.300 C 232.105 267.261,231.823 264.776,231.071 257.947 C 226.000 211.851,231.198 184.405,246.319 177.432 C 252.327 174.661,254.402 174.239,263.942 173.846 C 269.983 173.597,275.078 173.107,277.566 172.535 C 287.677 170.210,292.194 167.944,297.254 162.659 L 300.048 159.741 319.416 159.458 C 330.068 159.301,345.529 159.163,353.774 159.151 C 370.691 159.125,370.312 159.187,372.009 156.172 C 372.851 154.675,373.211 85.178,372.387 83.012 C 371.448 80.542,369.942 80.051,362.307 79.728 L 356.040 79.463 356.033 73.973 C 356.027 68.878,355.586 65.010,354.590 61.308 C 354.388 60.559,354.079 59.414,353.903 58.765 C 350.912 47.743,339.247 35.484,328.378 31.939 C 327.107 31.525,325.250 30.922,324.251 30.600 C 322.566 30.057,60.544 29.487,57.039 30.019 M324.614 31.315 C 329.067 32.749,330.242 33.220,333.058 34.705 C 347.206 42.164,355.311 56.402,355.313 73.797 C 355.313 80.722,354.716 80.167,362.398 80.366 C 368.984 80.537,370.265 80.845,371.458 82.549 C 372.270 83.708,372.327 154.221,371.518 155.786 C 370.099 158.529,375.678 158.198,317.983 158.962 L 299.362 159.208 297.894 161.075 C 291.741 168.897,281.940 172.303,262.307 173.442 C 240.712 174.694,232.947 183.263,229.187 209.991 C 228.853 212.362,228.703 217.537,228.708 226.521 C 228.714 238.544,228.943 243.362,229.971 253.043 C 230.162 254.841,230.492 258.029,230.704 260.127 C 231.134 264.378,231.498 267.514,232.369 274.478 C 233.396 282.686,233.516 283.687,234.832 295.005 C 238.326 325.055,238.323 329.042,234.794 339.297 C 231.205 349.727,221.783 358.229,209.619 362.014 L 206.521 362.977 189.818 362.866 L 173.115 362.754 170.027 361.721 C 153.289 356.120,144.033 346.860,141.847 333.527 C 140.802 327.153,141.727 312.590,144.606 290.100 C 144.811 288.501,145.293 284.741,145.679 281.744 C 151.988 232.641,152.276 207.811,146.734 190.486 C 145.501 186.632,145.455 186.540,142.631 182.198 C 136.422 172.654,130.791 170.030,116.507 170.024 C 98.798 170.018,87.167 166.873,80.799 160.369 L 79.309 158.848 72.443 158.573 C 68.666 158.422,61.898 158.442,57.402 158.617 C 48.108 158.980,42.714 158.974,22.634 158.584 C 6.662 158.274,6.744 158.288,5.522 155.578 C 4.458 153.217,4.594 85.788,5.667 83.742 C 7.019 81.162,7.980 80.862,15.359 80.707 C 23.110 80.546,22.375 81.305,22.626 73.206 C 23.283 51.996,36.099 34.743,53.769 31.280 C 54.868 31.064,56.094 30.823,56.494 30.743 C 59.185 30.206,322.916 30.768,324.614 31.315 M20.582 99.067 C 20.092 99.556,20.332 142.680,20.827 143.090 C 21.353 143.527,73.696 143.444,74.406 143.005 C 76.209 141.891,74.016 141.337,67.757 141.327 C 63.863 141.320,54.920 140.516,53.350 140.032 C 53.020 139.930,51.867 139.703,50.788 139.527 C 46.556 138.838,38.320 133.879,35.568 130.363 C 34.892 129.499,34.038 128.465,33.670 128.065 C 28.167 122.088,23.914 112.370,22.865 103.377 C 22.338 98.859,21.802 97.847,20.582 99.067 M22.162 102.202 C 22.162 109.358,27.240 121.734,32.699 127.884 C 33.142 128.383,34.100 129.527,34.827 130.426 C 36.552 132.559,36.653 132.659,38.147 133.691 C 38.847 134.174,39.500 134.670,39.600 134.793 C 40.327 135.685,45.229 138.401,48.138 139.523 C 49.650 140.106,55.580 141.060,65.940 142.389 C 67.139 142.543,57.534 142.693,44.596 142.724 L 21.072 142.779 21.072 121.118 C 21.072 101.905,21.133 99.508,21.617 99.909 C 21.970 100.202,22.162 101.009,22.162 102.202 M355.534 100.121 C 355.413 100.437,355.313 101.402,355.313 102.265 C 355.313 111.144,349.330 123.849,341.763 131.037 C 333.344 139.033,326.913 141.147,310.200 141.408 C 303.271 141.517,302.747 141.604,303.123 142.582 C 303.408 143.326,355.589 143.448,356.331 142.707 C 357.199 141.839,356.914 99.546,356.040 99.546 C 355.883 99.546,355.655 99.804,355.534 100.121 M356.034 124.450 C 356.039 137.550,355.931 142.016,355.604 142.343 C 355.276 142.671,350.455 142.779,336.141 142.779 C 319.228 142.779,317.175 142.719,317.659 142.234 C 318.014 141.880,318.914 141.689,320.235 141.689 C 328.401 141.689,340.725 134.814,346.239 127.183 C 346.734 126.498,347.487 125.517,347.913 125.002 C 350.624 121.727,355.295 110.186,355.319 106.703 C 355.323 106.054,355.391 106.006,355.677 106.449 C 355.891 106.781,356.031 113.807,356.034 124.450 " stroke="none" fill="#cbd6da" fill-rule="evenodd"></path></g></svg>