<svg id="svg" version="1.1" xmlns="http://www.w3.org/2000/svg" xmlns:xlink="http://www.w3.org/1999/xlink" width="400" height="420.0790513833992" viewBox="0, 0, 400,420.0790513833992" transform="scale(1.2 1.2)"><g id="svgg"><path id="path0" d="M176.805 74.752 C 176.986 74.872,176.769 74.893,176.105 74.820 C 175.575 74.761,174.000 74.804,172.604 74.915 C 170.156 75.108,169.738 75.145,167.440 75.369 C 165.608 75.547,164.828 75.608,164.322 75.612 C 164.051 75.615,163.742 75.671,163.635 75.737 C 163.430 75.863,162.680 75.963,161.893 75.967 C 161.635 75.969,161.376 76.046,161.319 76.139 C 161.261 76.232,161.114 76.270,160.993 76.224 C 160.871 76.177,159.829 76.297,158.679 76.491 C 157.528 76.685,156.350 76.876,156.061 76.915 C 154.450 77.131,153.859 77.256,153.771 77.397 C 153.718 77.484,153.607 77.514,153.526 77.463 C 153.339 77.348,151.577 77.712,151.319 77.918 C 151.214 78.002,151.088 78.031,151.039 77.983 C 150.990 77.934,150.406 78.015,149.742 78.162 C 149.078 78.310,148.337 78.463,148.096 78.502 C 147.557 78.589,141.457 80.154,141.094 80.298 C 140.950 80.356,140.674 80.431,140.481 80.466 C 140.289 80.501,140.013 80.580,139.869 80.641 C 139.724 80.703,139.479 80.778,139.324 80.809 C 139.168 80.840,138.814 80.960,138.536 81.075 C 138.258 81.190,137.972 81.300,137.899 81.320 C 137.827 81.340,137.709 81.376,137.637 81.399 C 137.565 81.423,137.449 81.433,137.380 81.423 C 137.311 81.413,137.036 81.495,136.768 81.605 C 136.499 81.715,136.201 81.820,136.105 81.839 C 136.009 81.857,135.871 81.894,135.799 81.921 C 135.726 81.948,135.589 81.989,135.492 82.013 C 135.396 82.037,135.278 82.077,135.230 82.101 C 135.182 82.125,135.083 82.156,135.011 82.171 C 134.123 82.347,133.245 82.705,133.336 82.852 C 133.406 82.965,133.338 82.993,133.158 82.924 C 132.998 82.862,132.867 82.878,132.867 82.960 C 132.867 83.041,132.689 83.108,132.473 83.108 C 131.969 83.110,128.094 84.551,127.924 84.801 C 127.853 84.904,127.794 84.931,127.793 84.860 C 127.789 84.693,125.795 85.432,125.718 85.629 C 125.686 85.711,125.587 85.734,125.499 85.680 C 125.411 85.626,125.339 85.665,125.339 85.766 C 125.339 85.868,125.280 85.934,125.208 85.913 C 124.964 85.842,123.239 86.545,123.239 86.716 C 123.239 86.809,123.191 86.838,123.132 86.779 C 122.919 86.566,116.906 89.436,117.056 89.679 C 117.119 89.782,117.079 89.803,116.960 89.730 C 116.754 89.603,111.859 92.098,111.322 92.604 C 111.169 92.748,110.937 92.891,110.806 92.921 C 110.676 92.951,110.460 93.109,110.327 93.271 C 110.193 93.434,110.143 93.453,110.216 93.313 C 110.347 93.061,109.247 93.755,109.040 94.055 C 108.981 94.140,108.862 94.210,108.777 94.210 C 108.524 94.212,107.659 94.767,107.659 94.928 C 107.659 95.009,107.585 95.030,107.494 94.974 C 107.404 94.918,107.259 94.999,107.172 95.154 C 107.085 95.309,106.943 95.432,106.855 95.428 C 106.630 95.416,105.561 96.164,105.559 96.334 C 105.559 96.412,105.479 96.427,105.382 96.367 C 105.285 96.307,105.158 96.381,105.101 96.531 C 105.043 96.681,104.930 96.763,104.850 96.713 C 104.770 96.663,104.633 96.750,104.546 96.905 C 104.460 97.060,104.336 97.179,104.272 97.169 C 104.079 97.141,102.757 98.065,102.757 98.229 C 102.757 98.312,102.643 98.381,102.503 98.381 C 102.364 98.381,102.179 98.506,102.094 98.659 C 102.008 98.812,101.866 98.944,101.779 98.951 C 101.517 98.974,98.381 101.385,98.381 101.563 C 98.381 101.654,98.318 101.688,98.241 101.641 C 98.163 101.593,97.691 101.930,97.191 102.390 C 96.691 102.850,96.252 103.196,96.215 103.159 C 96.179 103.122,95.951 103.328,95.709 103.615 C 95.467 103.903,95.230 104.100,95.183 104.053 C 95.137 104.006,94.897 104.207,94.650 104.500 C 94.404 104.793,94.125 105.033,94.031 105.033 C 93.936 105.033,93.547 105.387,93.166 105.821 C 92.784 106.254,92.420 106.608,92.356 106.608 C 92.152 106.608,88.627 110.181,88.405 110.614 C 87.714 111.959,88.268 113.653,89.589 114.237 C 91.540 115.100,92.358 114.861,94.555 112.787 C 111.108 97.153,130.302 87.905,156.061 83.152 C 182.416 78.289,208.256 80.743,234.398 90.590 C 237.857 91.893,243.638 94.326,243.765 94.532 C 243.815 94.613,242.734 95.442,241.363 96.375 C 222.323 109.319,213.754 126.061,216.370 145.208 C 216.580 146.748,216.793 148.372,216.843 148.816 L 216.933 149.623 215.906 150.201 C 201.875 158.092,196.867 170.222,202.011 183.857 L 202.393 184.869 201.521 186.833 C 200.710 188.660,200.427 189.472,200.180 190.676 C 200.114 191.001,199.871 191.265,199.428 191.496 C 197.056 192.731,193.826 199.319,189.079 212.604 C 183.943 226.978,183.670 227.654,178.914 237.703 C 174.289 247.475,169.017 257.878,166.262 262.670 C 160.629 272.466,157.783 276.708,151.589 284.545 C 148.427 288.547,146.577 290.962,145.250 292.821 C 144.478 293.904,143.752 294.868,143.637 294.963 C 143.299 295.243,137.029 293.057,132.349 291.028 C 114.677 283.364,99.728 272.637,87.340 258.731 C 68.100 237.134,58.004 208.553,60.531 182.845 C 62.609 161.716,70.039 142.458,82.332 126.343 C 83.716 124.528,83.913 124.181,83.986 123.424 C 84.139 121.831,82.595 119.478,81.743 120.005 C 81.664 120.054,81.555 120.021,81.501 119.934 C 81.089 119.267,77.796 121.387,78.186 122.067 C 78.252 122.182,78.242 122.218,78.163 122.147 C 77.996 121.996,76.328 124.086,76.325 124.449 C 76.325 124.586,76.272 124.645,76.208 124.581 C 76.103 124.477,74.949 126.024,74.894 126.344 C 74.881 126.417,74.745 126.573,74.591 126.690 C 74.437 126.808,74.366 126.906,74.434 126.909 C 74.501 126.912,74.363 127.123,74.127 127.378 C 73.891 127.633,73.698 127.948,73.698 128.078 C 73.698 128.208,73.619 128.315,73.523 128.315 C 73.427 128.315,73.348 128.425,73.348 128.559 C 73.348 128.693,73.225 128.850,73.074 128.908 C 72.924 128.966,72.850 129.092,72.910 129.189 C 72.969 129.286,72.949 129.365,72.864 129.365 C 72.681 129.365,70.297 133.122,70.359 133.311 C 70.383 133.382,70.328 133.488,70.238 133.547 C 69.868 133.789,67.976 137.186,68.057 137.462 C 68.079 137.534,68.022 137.593,67.932 137.593 C 67.743 137.593,63.988 145.178,63.815 145.908 C 63.792 146.004,63.691 146.280,63.591 146.521 C 61.918 150.516,59.240 157.899,59.464 157.899 C 59.518 157.899,59.480 157.998,59.380 158.118 C 59.280 158.239,59.189 158.395,59.179 158.466 C 59.168 158.538,59.127 158.695,59.088 158.817 C 58.701 160.025,58.080 162.445,58.077 162.757 C 58.076 162.974,57.997 163.151,57.902 163.151 C 57.808 163.151,57.775 163.267,57.829 163.408 C 57.883 163.549,57.861 163.706,57.780 163.756 C 57.699 163.806,57.584 164.104,57.525 164.418 C 57.363 165.272,57.314 165.495,56.740 167.965 C 56.254 170.060,55.794 172.493,55.600 174.004 C 55.556 174.341,55.352 175.720,55.145 177.068 C 54.939 178.416,54.755 180.050,54.737 180.699 C 54.719 181.348,54.635 181.879,54.549 181.880 C 54.463 181.881,54.436 182.354,54.489 182.932 C 54.546 183.562,54.516 183.982,54.413 183.982 C 54.316 183.982,54.252 184.562,54.264 185.339 C 54.275 186.085,54.236 187.996,54.177 189.584 C 54.080 192.160,54.195 195.883,54.498 200.000 C 55.171 209.136,58.719 222.446,62.967 231.772 C 66.089 238.627,68.120 242.407,71.831 248.270 C 78.300 258.493,88.587 269.938,97.947 277.325 C 98.523 277.779,99.624 278.650,100.394 279.260 C 102.771 281.143,108.182 284.946,110.722 286.519 C 116.933 290.364,124.537 294.397,129.600 296.532 C 132.534 297.768,135.520 298.937,137.185 299.499 C 138.061 299.795,138.987 300.116,139.241 300.213 L 139.704 300.389 139.165 301.310 C 137.634 303.928,134.620 310.515,134.378 311.772 C 134.350 311.917,134.161 312.586,133.956 313.260 C 133.474 314.852,132.826 318.066,132.932 318.342 C 132.977 318.460,132.930 318.641,132.827 318.744 C 132.462 319.109,132.602 324.592,133.028 326.631 C 133.939 330.992,136.152 335.997,138.224 338.381 C 138.433 338.621,139.015 339.317,139.516 339.926 C 142.786 343.893,146.161 345.290,152.473 345.287 C 167.598 345.279,177.909 336.118,186.657 314.913 C 187.564 312.715,189.061 308.921,189.295 308.228 C 189.372 308.000,189.590 307.921,190.148 307.921 C 191.915 307.920,198.744 307.532,202.591 307.215 C 207.542 306.807,216.227 305.531,219.781 304.690 C 220.359 304.553,221.619 304.273,222.582 304.069 C 232.477 301.964,244.409 297.704,255.055 292.474 C 258.240 290.909,259.944 290.023,263.720 287.970 C 265.017 287.265,270.119 284.224,271.072 283.589 C 276.827 279.752,276.109 280.241,278.249 278.698 C 286.198 272.969,295.426 264.202,297.238 260.656 C 297.361 260.416,297.603 260.061,297.777 259.869 C 298.133 259.472,299.511 256.755,300.061 255.364 C 304.743 243.521,297.372 231.886,279.563 223.005 C 273.375 219.920,266.308 217.292,252.779 213.047 C 249.329 211.964,247.352 211.284,247.352 211.179 C 247.352 211.137,247.943 210.200,248.665 209.097 C 249.387 207.994,249.978 207.047,249.978 206.991 C 249.978 206.936,250.222 206.536,250.519 206.104 C 251.977 203.986,252.542 201.719,252.027 200.061 C 251.783 199.277,251.788 199.232,252.181 198.836 C 252.577 198.436,253.089 197.571,254.962 194.136 C 255.461 193.221,256.398 191.542,257.044 190.405 C 258.946 187.059,259.292 185.646,258.654 183.839 L 258.403 183.126 259.311 182.871 C 259.810 182.732,261.007 182.407,261.969 182.149 C 264.002 181.606,269.659 179.722,270.810 179.205 C 278.919 175.565,287.210 170.041,289.012 167.078 C 289.155 166.844,289.331 166.652,289.405 166.652 C 289.570 166.652,291.980 163.592,293.042 162.034 C 293.475 161.398,293.924 160.739,294.040 160.570 C 294.236 160.282,294.310 160.295,295.178 160.767 C 298.106 162.360,299.650 163.233,305.120 166.387 C 308.442 168.302,311.987 170.224,312.998 170.658 C 320.142 173.725,324.549 168.953,322.135 160.764 C 321.282 157.871,318.543 151.979,317.257 150.268 C 317.032 149.970,316.849 149.675,316.849 149.611 C 316.849 149.338,311.352 141.317,310.892 140.919 C 310.837 140.871,310.559 140.516,310.275 140.131 C 309.368 138.899,306.855 135.809,305.308 134.022 C 304.483 133.069,303.532 131.964,303.195 131.566 C 302.814 131.118,302.466 130.867,302.276 130.905 C 302.107 130.939,301.969 130.882,301.969 130.779 C 301.969 130.675,302.070 130.591,302.192 130.591 C 302.479 130.591,302.462 121.944,302.170 119.737 C 302.062 118.919,301.896 117.501,301.801 116.586 C 301.385 112.553,299.850 105.653,298.399 101.290 C 295.147 91.514,294.887 90.453,294.883 86.915 C 294.880 84.594,294.907 84.399,295.394 83.239 C 297.088 79.202,294.448 74.890,290.109 74.609 C 289.173 74.549,288.840 74.584,288.840 74.744 C 288.840 74.870,288.724 74.916,288.562 74.854 C 288.409 74.795,288.192 74.805,288.080 74.876 C 287.969 74.947,287.838 75.008,287.790 75.010 C 287.500 75.026,286.565 75.518,286.565 75.655 C 286.565 75.745,286.486 75.771,286.389 75.711 C 286.293 75.651,286.141 75.793,286.052 76.027 C 285.964 76.260,285.728 76.494,285.529 76.546 C 285.329 76.598,285.112 76.786,285.046 76.964 C 284.981 77.141,284.882 77.326,284.827 77.374 C 284.772 77.422,284.293 77.931,283.764 78.504 C 283.234 79.077,282.761 79.533,282.713 79.517 C 282.665 79.501,282.455 79.636,282.247 79.817 C 282.039 79.998,281.822 80.101,281.766 80.044 C 281.709 79.988,281.663 80.038,281.663 80.156 C 281.663 80.274,281.584 80.322,281.488 80.263 C 281.392 80.203,281.313 80.242,281.313 80.350 C 281.313 80.458,281.234 80.497,281.138 80.438 C 281.042 80.378,280.963 80.418,280.963 80.525 C 280.963 80.633,280.893 80.678,280.808 80.625 C 280.723 80.573,280.453 80.688,280.207 80.881 C 279.961 81.075,279.696 81.217,279.617 81.197 C 279.411 81.145,276.877 81.931,276.696 82.103 C 276.612 82.183,276.435 82.207,276.303 82.156 C 276.170 82.105,276.061 82.155,276.061 82.267 C 276.061 82.380,275.979 82.421,275.879 82.358 C 275.778 82.296,275.581 82.341,275.441 82.457 C 275.301 82.573,275.186 82.628,275.186 82.579 C 275.186 82.529,274.300 82.721,273.217 83.006 C 272.133 83.290,270.975 83.561,270.643 83.608 C 270.310 83.654,269.949 83.767,269.839 83.858 C 269.729 83.949,269.591 83.975,269.532 83.916 C 269.473 83.856,269.283 83.869,269.110 83.944 C 268.938 84.019,268.718 84.095,268.621 84.114 C 268.525 84.133,268.407 84.165,268.359 84.187 C 268.311 84.208,268.042 84.255,267.762 84.292 C 267.482 84.329,267.200 84.444,267.135 84.548 C 267.071 84.653,266.894 84.691,266.743 84.633 C 266.592 84.575,266.416 84.613,266.351 84.717 C 266.287 84.822,266.170 84.868,266.093 84.820 C 266.015 84.772,265.528 84.864,265.011 85.024 C 264.493 85.185,264.031 85.326,263.982 85.338 C 263.934 85.349,263.639 85.420,263.326 85.494 C 263.013 85.569,262.757 85.700,262.757 85.785 C 262.757 85.871,262.639 85.896,262.495 85.840 C 262.350 85.785,262.232 85.831,262.232 85.943 C 262.232 86.056,262.159 86.102,262.069 86.047 C 261.979 85.991,261.856 86.027,261.794 86.127 C 261.733 86.226,261.615 86.266,261.532 86.214 C 261.449 86.163,261.334 86.198,261.276 86.291 C 261.218 86.385,261.055 86.417,260.913 86.363 C 260.772 86.309,260.656 86.356,260.656 86.469 C 260.656 86.581,260.581 86.626,260.489 86.569 C 260.397 86.512,260.023 86.599,259.658 86.762 C 258.889 87.105,258.959 87.078,258.337 87.254 C 258.072 87.329,257.856 87.444,257.856 87.509 C 257.856 87.574,257.685 87.641,257.477 87.656 C 257.269 87.672,257.053 87.748,256.996 87.825 C 256.939 87.902,256.735 87.991,256.543 88.023 C 256.350 88.054,256.015 88.194,255.799 88.333 C 255.582 88.472,255.405 88.543,255.405 88.490 C 255.405 88.437,255.149 88.530,254.836 88.697 C 254.523 88.863,254.208 88.984,254.136 88.964 C 254.063 88.944,254.004 89.020,254.004 89.132 C 254.004 89.244,253.955 89.287,253.895 89.227 C 253.834 89.166,253.539 89.248,253.238 89.408 C 252.937 89.569,252.632 89.684,252.560 89.664 C 252.488 89.644,252.429 89.711,252.429 89.813 C 252.429 89.915,252.350 89.950,252.254 89.891 C 252.158 89.831,252.079 89.870,252.079 89.978 C 252.079 90.086,252.000 90.125,251.904 90.066 C 251.807 90.006,251.729 90.046,251.729 90.153 C 251.729 90.261,251.670 90.312,251.597 90.268 C 251.525 90.223,251.198 90.325,250.870 90.495 L 250.273 90.803 248.244 89.841 C 233.622 82.911,217.450 78.089,201.225 75.823 C 199.877 75.635,198.656 75.481,198.512 75.482 C 198.368 75.483,197.856 75.437,197.374 75.379 C 194.868 75.078,190.258 74.729,189.453 74.779 C 188.947 74.810,188.534 74.777,188.534 74.705 C 188.534 74.632,185.836 74.575,182.538 74.576 C 178.516 74.578,176.629 74.636,176.805 74.752 M288.937 83.020 C 288.103 88.086,288.606 91.153,291.919 101.175 C 295.746 112.753,296.977 122.900,295.849 133.567 C 295.753 134.481,295.672 135.366,295.670 135.533 C 295.667 135.903,294.626 136.456,293.614 136.624 C 291.337 137.003,290.087 135.238,289.096 130.241 C 287.744 123.427,283.326 122.006,279.620 127.195 C 275.799 132.546,274.598 132.695,274.321 127.853 C 274.134 124.575,273.814 123.611,272.530 122.457 C 269.374 119.619,265.193 121.586,260.451 128.142 C 256.323 133.848,252.897 133.887,252.893 128.228 C 252.892 126.189,253.277 124.917,255.091 120.967 C 257.812 115.041,258.145 111.171,256.279 107.168 C 254.822 104.043,252.171 102.741,246.171 102.205 C 243.581 101.973,243.425 101.862,244.595 101.083 C 251.927 96.203,261.783 91.981,270.722 89.889 C 280.908 87.506,284.811 85.967,287.843 83.138 C 288.963 82.093,289.092 82.079,288.937 83.020 M138.806 90.586 C 123.569 93.068,113.008 105.396,113.008 120.700 C 113.008 147.175,143.696 160.791,163.678 143.182 C 174.676 133.491,176.814 116.490,168.609 103.982 C 162.200 94.211,150.057 88.753,138.806 90.586 M148.176 96.363 C 165.696 100.343,173.619 119.970,163.662 134.725 C 154.016 149.020,132.348 148.944,122.762 134.582 C 112.416 119.080,121.659 98.774,140.306 96.037 C 141.477 95.865,146.990 96.094,148.176 96.363 M239.555 106.253 C 240.894 107.286,241.419 107.439,244.601 107.730 C 250.934 108.308,251.546 108.687,251.695 112.123 C 251.787 114.229,251.493 115.285,249.793 118.957 C 245.292 128.679,246.668 135.908,253.390 137.863 C 257.184 138.966,261.214 136.744,265.065 131.427 C 267.717 127.765,268.708 127.050,268.710 128.796 C 268.722 137.524,276.711 139.937,282.396 132.930 C 283.541 131.518,283.542 131.519,284.141 133.926 C 285.525 139.484,288.653 142.319,293.400 142.319 C 294.870 142.319,294.836 142.164,294.019 145.134 C 289.346 162.117,278.426 171.803,258.296 176.820 C 257.139 177.108,255.301 177.627,254.210 177.972 C 252.675 178.459,252.141 178.561,251.843 178.425 C 251.632 178.329,246.852 175.693,241.222 172.569 C 235.591 169.444,229.934 166.311,228.649 165.606 C 226.025 164.165,226.127 164.297,225.737 161.838 C 225.584 160.875,225.191 159.142,224.864 157.987 C 218.316 134.866,221.808 120.202,237.063 106.759 C 238.672 105.342,238.437 105.390,239.555 106.253 M302.947 140.700 C 309.113 148.217,314.447 156.750,315.989 161.562 C 316.615 163.519,316.859 165.429,316.480 165.423 C 315.822 165.411,314.052 164.514,309.672 161.971 C 305.246 159.401,300.943 156.956,299.104 155.965 C 296.579 154.604,296.671 154.840,297.671 152.268 C 299.087 148.624,300.919 141.493,300.919 139.624 C 300.919 138.543,301.377 138.786,302.947 140.700 M96.683 154.400 C 69.445 157.225,59.023 190.427,79.817 208.133 C 97.680 223.344,125.866 212.477,129.290 189.059 C 132.086 169.928,115.629 152.435,96.683 154.400 M218.272 156.893 C 218.380 157.302,218.700 158.488,218.984 159.528 C 219.353 160.880,219.440 161.436,219.290 161.478 C 217.409 162.009,215.904 163.068,215.230 164.336 C 214.987 164.791,214.714 165.282,214.621 165.427 C 213.832 166.664,209.717 174.246,209.539 174.792 C 209.302 175.517,208.905 175.944,208.581 175.819 C 208.478 175.780,207.950 176.015,207.406 176.342 C 206.213 177.061,206.253 177.126,206.097 174.259 C 205.748 167.872,209.572 161.595,216.644 156.946 C 218.115 155.979,218.033 155.982,218.272 156.893 M104.191 160.533 C 123.155 164.380,130.466 187.885,117.030 201.814 C 105.021 214.265,84.154 210.904,76.863 195.346 C 68.227 176.916,84.261 156.491,104.191 160.533 M222.726 168.779 C 223.802 169.371,227.400 171.371,230.722 173.223 C 234.044 175.075,240.188 178.487,244.376 180.804 C 253.718 185.972,252.802 185.323,252.245 186.377 C 250.615 189.461,247.805 194.510,247.672 194.592 C 247.585 194.646,246.749 194.260,245.814 193.734 C 244.270 192.866,235.708 188.100,231.597 185.821 C 229.002 184.382,217.612 178.046,216.573 177.463 C 215.291 176.743,215.290 176.763,216.812 174.052 C 217.557 172.726,218.599 170.853,219.127 169.891 C 220.573 167.253,220.175 167.376,222.726 168.779 M213.479 183.373 C 216.111 184.823,227.122 190.936,232.560 193.968 C 233.908 194.719,237.413 196.673,240.350 198.309 C 243.286 199.945,245.761 201.399,245.850 201.540 C 246.165 202.040,240.863 210.241,240.225 210.241 C 240.064 210.241,238.117 209.225,235.897 207.983 C 231.724 205.648,221.475 199.948,216.718 197.315 C 207.193 192.044,206.126 191.416,206.075 191.054 C 205.955 190.222,210.139 181.534,210.550 181.760 C 210.620 181.799,211.939 182.525,213.479 183.373 M202.766 196.873 C 203.315 197.153,206.096 198.699,224.858 209.151 C 229.961 211.994,234.901 214.744,235.836 215.262 C 236.771 215.781,237.584 216.283,237.643 216.378 C 237.982 216.927,231.711 226.192,227.400 231.510 C 226.853 232.184,225.472 233.917,224.329 235.361 C 223.187 236.805,221.656 238.735,220.927 239.650 C 214.453 247.773,202.308 266.840,194.892 280.525 C 190.278 289.037,188.557 292.870,184.512 303.632 C 181.023 312.915,178.800 318.070,176.540 322.114 C 169.765 334.238,162.198 339.457,151.722 339.230 L 148.857 339.168 147.369 338.431 C 142.566 336.051,138.787 328.834,138.771 322.013 C 138.751 313.326,143.149 304.574,155.528 288.665 C 165.514 275.831,170.086 268.393,178.983 250.503 C 186.534 235.321,189.127 229.331,193.497 216.980 C 197.041 206.965,201.445 196.586,202.152 196.586 C 202.181 196.586,202.458 196.715,202.766 196.873 M134.793 216.733 C 108.212 219.291,97.292 252.224,117.199 269.794 C 134.763 285.295,162.403 276.025,167.176 253.033 C 171.251 233.404,154.673 214.821,134.793 216.733 M248.053 217.936 C 260.004 221.778,262.005 222.432,264.245 223.228 C 287.192 231.383,298.020 241.640,294.706 252.079 C 290.948 263.914,266.345 282.191,240.812 292.116 C 231.576 295.707,220.792 298.545,210.066 300.207 C 204.304 301.101,191.750 301.994,191.570 301.523 C 190.919 299.827,201.481 279.426,210.099 265.733 C 219.065 251.487,221.584 247.861,228.438 239.330 C 235.225 230.882,239.569 224.881,242.144 220.394 C 243.046 218.823,243.321 218.173,243.580 217.008 C 243.644 216.722,243.781 216.545,243.902 216.590 C 244.019 216.634,245.886 217.240,248.053 217.936 M140.744 222.514 C 160.845 225.188,169.206 250.157,154.831 264.585 C 139.383 280.091,112.653 269.002,112.660 247.090 C 112.664 231.968,125.748 220.519,140.744 222.514 M265.558 230.409 C 255.452 231.525,248.701 242.340,251.898 252.291 C 255.979 264.993,273.274 267.920,281.188 257.249 C 290.157 245.154,280.602 228.747,265.558 230.409 M270.760 236.779 C 274.222 237.680,277.372 240.896,278.187 244.359 C 278.426 245.375,278.643 248.387,278.482 248.446 C 278.415 248.470,278.327 248.805,278.285 249.190 C 278.244 249.575,278.150 250.048,278.077 250.241 C 277.266 252.371,275.960 254.322,274.726 255.246 C 274.305 255.562,273.961 255.889,273.961 255.973 C 273.961 256.057,273.881 256.077,273.784 256.017 C 273.687 255.957,273.561 256.030,273.503 256.180 C 273.446 256.330,273.328 256.410,273.242 256.356 C 273.156 256.303,273.085 256.330,273.085 256.416 C 273.085 256.502,272.987 256.579,272.867 256.588 C 272.746 256.597,272.096 256.818,271.422 257.078 C 266.633 258.930,260.606 256.544,258.316 251.891 C 254.193 243.517,261.688 234.416,270.760 236.779 M231.563 255.244 C 223.087 256.141,216.463 264.319,217.135 273.057 C 218.289 288.068,237.404 294.137,246.789 282.470 C 256.402 270.520,246.948 253.615,231.563 255.244 M237.294 261.266 C 245.519 264.027,247.624 274.499,241.110 280.253 C 235.976 284.789,227.665 283.416,224.197 277.459 C 219.078 268.665,227.674 258.037,237.294 261.266 M223.410 271.860 C 223.410 272.197,223.446 272.335,223.490 272.166 C 223.535 271.998,223.535 271.722,223.490 271.554 C 223.446 271.385,223.410 271.523,223.410 271.860 " stroke="none" fill="#040404" fill-rule="evenodd"></path><path id="path1" d="M146.958 85.224 C 135.606 88.135,121.678 93.489,115.736 97.226 C 115.385 97.447,114.508 97.969,113.786 98.387 C 107.953 101.762,101.162 106.909,94.941 112.669 C 92.255 115.156,91.477 115.428,89.849 114.451 C 89.140 114.024,88.819 114.135,88.077 115.062 C 87.379 115.932,84.892 118.715,83.421 120.271 C 83.195 120.510,83.208 120.614,83.535 121.146 C 84.699 123.042,84.552 123.722,82.342 126.659 C 69.480 143.756,62.117 163.587,60.570 185.295 C 58.692 211.648,69.309 239.119,90.005 261.463 C 94.723 266.556,103.019 273.849,104.738 274.413 C 105.237 274.577,109.072 276.008,113.260 277.593 C 130.092 283.961,141.423 287.411,147.995 288.169 C 149.029 288.288,157.854 276.450,162.567 268.621 C 167.988 259.617,171.672 252.540,179.516 236.061 C 180.255 234.509,181.237 232.409,182.012 230.722 C 183.147 228.255,184.965 223.572,187.144 217.505 C 187.421 216.735,188.327 214.214,189.157 211.904 C 189.988 209.593,191.172 206.461,191.789 204.944 C 193.150 201.596,193.166 202.057,191.638 200.457 C 179.165 187.400,175.249 171.257,181.033 156.735 C 185.501 145.519,192.213 142.300,213.212 141.302 L 215.747 141.182 215.778 138.031 C 215.928 123.271,223.957 108.758,237.326 99.081 C 238.660 98.115,238.662 98.212,237.291 97.346 C 230.357 92.967,221.891 90.552,205.952 88.407 C 203.737 88.109,200.823 87.712,199.475 87.526 C 191.681 86.449,185.415 85.763,178.731 85.255 C 170.667 84.643,168.009 84.535,159.037 84.452 L 150.284 84.372 146.958 85.224 M149.147 90.663 C 166.320 94.239,177.105 111.197,172.926 128.053 C 168.659 145.263,150.607 155.249,133.742 149.729 C 115.924 143.897,107.533 123.497,116.078 106.783 C 122.229 94.752,136.162 87.960,149.147 90.663 M142.544 96.059 C 143.004 96.095,143.713 96.095,144.119 96.058 C 144.525 96.021,144.149 95.992,143.282 95.992 C 142.416 95.993,142.083 96.023,142.544 96.059 M160.613 103.282 C 160.989 103.667,161.336 103.982,161.384 103.982 C 161.432 103.982,161.164 103.667,160.788 103.282 C 160.412 102.897,160.065 102.582,160.016 102.582 C 159.968 102.582,160.237 102.897,160.613 103.282 M118.578 120.788 C 118.578 121.895,118.607 122.348,118.641 121.794 C 118.676 121.241,118.676 120.335,118.641 119.781 C 118.607 119.228,118.578 119.681,118.578 120.788 M262.484 134.836 L 261.969 135.405 262.538 134.891 C 263.069 134.411,263.188 134.267,263.052 134.267 C 263.022 134.267,262.766 134.523,262.484 134.836 M162.002 136.586 L 161.488 137.155 162.057 136.641 C 162.370 136.358,162.626 136.102,162.626 136.072 C 162.626 135.937,162.481 136.056,162.002 136.586 M160.604 138.162 L 159.912 138.906 160.656 138.214 C 161.348 137.570,161.481 137.418,161.348 137.418 C 161.320 137.418,160.985 137.753,160.604 138.162 M154.223 142.670 C 153.886 142.854,153.673 143.008,153.750 143.012 C 153.936 143.022,154.923 142.509,154.923 142.403 C 154.923 142.288,154.913 142.292,154.223 142.670 M104.245 154.578 C 121.434 157.510,132.872 174.426,129.085 191.312 C 124.360 212.377,100.172 222.068,82.188 210.101 C 69.020 201.338,64.784 183.648,72.545 169.832 C 78.848 158.611,91.683 152.435,104.245 154.578 M200.532 199.781 C 198.191 204.566,197.206 207.071,192.214 220.919 C 189.403 228.715,188.558 230.746,184.858 238.600 C 180.175 248.539,175.124 258.607,172.168 263.895 C 166.377 274.254,163.657 278.367,156.499 287.593 C 148.526 297.869,145.281 302.672,142.587 308.184 C 137.805 317.970,137.680 326.383,142.217 333.201 C 143.572 335.237,143.275 335.151,146.093 334.333 C 160.917 330.032,170.362 321.394,179.773 303.531 C 182.277 298.779,183.802 295.509,187.605 286.740 C 191.995 276.614,193.431 273.448,195.571 269.167 C 201.204 257.904,209.236 245.877,218.227 235.242 C 224.593 227.714,227.859 219.564,227.539 212.007 L 227.484 210.711 223.545 208.532 C 221.379 207.334,217.164 204.991,214.179 203.327 C 204.142 197.729,202.376 196.761,202.193 196.761 C 202.092 196.761,201.345 198.120,200.532 199.781 M139.674 216.547 C 164.883 218.778,176.877 248.181,160.346 267.226 C 149.377 279.863,129.929 281.132,117.246 270.039 C 102.627 257.252,103.539 234.193,119.125 222.562 C 125.089 218.111,132.578 215.919,139.674 216.547 M135.055 222.497 C 110.777 225.077,104.367 257.601,125.912 268.886 C 131.796 271.967,141.017 272.696,143.895 270.308 C 160.353 256.646,158.296 233.321,139.752 223.326 C 137.726 222.234,137.652 222.221,135.055 222.497 M229.389 238.381 C 228.647 239.319,227.678 240.551,227.236 241.118 C 226.795 241.686,226.186 242.434,225.884 242.782 C 225.393 243.346,222.929 246.631,220.726 249.659 C 220.282 250.268,219.390 251.593,218.743 252.604 C 218.096 253.615,216.864 255.505,216.005 256.805 C 215.146 258.105,214.129 259.681,213.744 260.306 C 213.359 260.932,212.536 262.232,211.915 263.195 C 211.293 264.158,210.423 265.536,209.981 266.258 C 209.539 266.980,208.498 268.674,207.668 270.022 C 205.177 274.067,202.589 278.531,200.565 282.276 C 198.924 285.311,196.061 290.884,196.061 291.042 C 196.061 291.681,207.187 289.960,211.981 288.581 C 215.772 287.489,222.144 284.806,222.144 284.300 C 222.144 284.200,221.764 283.697,221.299 283.184 C 213.129 274.163,216.951 259.608,228.492 255.788 C 231.212 254.887,235.314 254.686,237.681 255.337 C 239.022 255.706,236.819 247.418,234.169 242.122 C 232.949 239.686,231.139 236.674,230.894 236.674 C 230.808 236.674,230.131 237.442,229.389 238.381 " stroke="none" fill="#d79975" fill-rule="evenodd"></path><path id="path2" d="M236.586 107.456 C 221.900 120.549,218.453 135.526,224.977 157.899 C 225.272 158.910,225.681 160.722,225.886 161.925 L 226.258 164.112 230.860 166.688 C 233.391 168.105,236.266 169.688,237.250 170.207 C 238.233 170.726,239.431 171.371,239.912 171.640 C 248.093 176.215,252.055 178.381,252.243 178.381 C 252.370 178.381,253.035 178.178,253.721 177.931 C 254.406 177.684,256.188 177.168,257.681 176.785 C 277.253 171.765,287.585 163.473,292.775 148.621 C 293.323 147.053,294.440 143.034,294.442 142.626 C 294.442 142.554,293.871 142.493,293.173 142.490 C 288.594 142.475,285.442 139.610,284.029 134.179 C 283.754 133.120,283.502 132.220,283.470 132.180 C 283.438 132.139,282.700 132.864,281.830 133.791 C 276.161 139.831,269.081 137.583,268.583 129.584 C 268.528 128.694,268.423 127.965,268.349 127.965 C 268.042 127.965,266.611 129.562,265.606 131.028 C 261.177 137.487,256.401 139.710,251.826 137.443 C 246.253 134.681,245.421 127.895,249.563 118.988 C 251.312 115.225,251.606 114.209,251.518 112.211 C 251.370 108.822,250.651 108.390,244.376 107.928 C 241.713 107.731,240.693 107.405,239.358 106.324 C 238.463 105.599,238.844 105.444,236.586 107.456 M87.759 115.230 C 87.364 115.668,87.116 116.061,87.234 116.061 C 87.276 116.061,87.521 115.786,87.778 115.449 C 88.305 114.757,88.295 114.635,87.759 115.230 M217.976 172.661 C 217.886 172.774,217.478 173.497,217.069 174.267 C 216.660 175.037,216.217 175.792,216.084 175.944 C 215.674 176.413,215.813 176.700,216.675 177.163 C 217.132 177.408,219.632 178.798,222.232 180.251 C 224.832 181.705,227.819 183.376,228.871 183.964 C 229.923 184.552,230.818 185.033,230.861 185.033 C 230.904 185.033,231.382 185.299,231.925 185.623 C 232.909 186.213,233.191 186.372,236.324 188.098 C 237.239 188.602,238.932 189.546,240.088 190.196 C 241.243 190.845,242.346 191.446,242.538 191.532 C 242.731 191.618,243.282 191.921,243.764 192.207 C 244.245 192.493,244.915 192.870,245.252 193.046 C 245.589 193.222,246.228 193.579,246.672 193.841 C 247.604 194.389,247.525 194.439,248.485 192.679 C 249.260 191.257,249.416 191.544,246.565 189.153 C 239.616 183.327,231.944 178.675,221.357 173.867 C 218.291 172.475,218.161 172.428,217.976 172.661 M208.266 186.039 C 207.031 188.665,206.214 190.633,206.214 190.982 C 206.214 191.307,206.316 191.368,215.142 196.278 C 217.309 197.483,222.193 200.202,225.996 202.320 C 229.799 204.437,233.422 206.451,234.048 206.794 C 234.674 207.137,236.327 208.047,237.721 208.817 C 239.506 209.803,240.318 210.165,240.466 210.042 C 241.333 209.323,244.058 204.735,243.831 204.378 C 241.670 200.991,224.058 190.456,211.991 185.333 C 208.976 184.053,209.222 184.006,208.266 186.039 M232.035 260.913 C 223.914 262.404,220.110 271.605,224.861 278.263 C 230.222 285.776,242.131 283.564,244.499 274.614 C 246.509 267.016,239.680 259.509,232.035 260.913 M235.382 261.627 C 239.559 262.352,243.851 266.368,243.851 269.549 C 243.851 269.729,243.905 269.929,243.970 269.995 C 244.475 270.500,243.822 274.939,243.011 276.510 C 241.019 280.366,236.495 282.705,232.385 282.004 C 231.711 281.889,231.042 281.780,230.897 281.762 C 227.064 281.281,222.995 275.504,223.456 271.198 C 223.759 268.365,225.653 264.843,227.484 263.705 C 230.066 262.099,231.335 261.619,233.631 261.377 C 233.739 261.366,234.527 261.478,235.382 261.627 " stroke="none" fill="#d0ccd4" fill-rule="evenodd"></path><path id="path3" d="M96.430 160.172 C 81.152 161.652,70.798 177.835,75.725 192.532 C 82.215 211.894,108.402 215.472,119.702 198.541 C 131.402 181.010,117.523 158.128,96.430 160.172 " stroke="none" fill="#109cd8" fill-rule="evenodd"></path><path id="path4" d="M175.667 80.809 C 141.720 82.931,115.022 93.456,94.555 112.787 C 92.556 114.674,91.356 115.129,90.121 114.468 C 89.872 114.335,89.797 114.334,89.877 114.464 C 89.941 114.567,90.305 114.735,90.686 114.838 C 91.949 115.178,92.577 114.858,94.941 112.669 C 101.162 106.909,107.953 101.762,113.786 98.387 C 114.508 97.969,115.385 97.447,115.736 97.226 C 121.749 93.445,135.933 88.009,147.046 85.228 L 150.635 84.329 159.212 84.432 C 168.054 84.537,170.785 84.652,178.731 85.255 C 185.415 85.763,191.681 86.449,199.475 87.526 C 200.823 87.712,203.737 88.109,205.952 88.407 C 221.891 90.552,230.357 92.967,237.291 97.346 C 238.662 98.212,238.660 98.115,237.326 99.081 C 230.014 104.373,222.930 112.883,219.702 120.251 C 218.887 122.110,217.766 125.099,217.775 125.387 C 217.779 125.505,218.122 124.691,218.538 123.577 C 222.559 112.816,229.705 104.300,241.363 96.375 C 242.734 95.442,243.815 94.613,243.765 94.532 C 243.638 94.326,237.857 91.893,234.398 90.590 C 221.186 85.613,207.841 82.510,193.698 81.127 C 191.039 80.867,178.330 80.643,175.667 80.809 M286.652 84.122 C 284.122 86.212,279.884 87.746,270.722 89.889 C 265.193 91.183,259.761 93.102,254.004 95.794 C 252.113 96.678,248.403 98.671,248.140 98.944 C 248.044 99.044,248.713 98.715,249.628 98.214 C 253.701 95.981,259.006 93.658,263.564 92.110 C 266.150 91.232,268.397 90.623,273.698 89.365 C 279.108 88.081,282.493 86.889,285.164 85.327 C 286.535 84.525,287.653 83.689,287.352 83.689 C 287.256 83.689,286.941 83.884,286.652 84.122 M138.206 90.507 C 136.381 90.836,132.225 92.021,132.374 92.170 C 132.413 92.209,133.157 92.011,134.028 91.731 C 137.803 90.517,143.026 90.056,147.571 90.536 C 148.480 90.632,148.586 90.621,148.096 90.480 C 146.814 90.111,140.308 90.129,138.206 90.507 M150.635 91.196 C 151.694 91.472,152.907 91.823,153.331 91.977 C 153.756 92.131,154.135 92.225,154.174 92.186 C 154.338 92.022,149.705 90.670,149.034 90.686 C 148.855 90.691,149.575 90.920,150.635 91.196 M129.596 93.378 C 121.126 97.623,115.060 105.647,113.135 115.153 C 112.741 117.096,112.694 123.852,113.059 125.832 C 113.410 127.729,113.478 127.253,113.157 125.150 C 111.198 112.308,117.955 99.438,129.784 93.479 C 131.121 92.805,132.130 92.254,132.027 92.254 C 131.924 92.254,130.830 92.760,129.596 93.378 M155.792 92.963 C 156.606 93.352,157.709 93.910,158.243 94.201 C 158.776 94.493,159.057 94.606,158.868 94.453 C 158.401 94.073,155.293 92.496,154.748 92.363 C 154.508 92.303,154.977 92.574,155.792 92.963 M159.300 94.752 C 159.495 94.963,162.101 96.784,162.101 96.710 C 162.101 96.607,160.035 95.084,159.566 94.841 C 159.372 94.740,159.252 94.700,159.300 94.752 M140.963 96.051 C 141.131 96.095,141.407 96.095,141.575 96.051 C 141.744 96.007,141.606 95.971,141.269 95.971 C 140.932 95.971,140.794 96.007,140.963 96.051 M144.989 96.051 C 145.158 96.095,145.433 96.095,145.602 96.051 C 145.770 96.007,145.632 95.971,145.295 95.971 C 144.958 95.971,144.821 96.007,144.989 96.051 M164.220 98.740 C 165.337 99.842,166.585 101.138,166.994 101.619 C 167.687 102.436,167.698 102.442,167.151 101.708 C 166.348 100.630,164.138 98.328,163.069 97.455 C 162.585 97.060,163.102 97.638,164.220 98.740 M154.748 98.809 C 154.748 98.858,154.985 99.019,155.274 99.168 C 155.562 99.318,155.799 99.401,155.799 99.353 C 155.799 99.304,155.562 99.143,155.274 98.993 C 154.985 98.844,154.748 98.761,154.748 98.809 M158.950 101.587 C 158.950 101.617,159.206 101.873,159.519 102.155 L 160.088 102.670 159.573 102.101 C 159.094 101.570,158.950 101.451,158.950 101.587 M125.683 103.239 L 124.726 104.245 125.733 103.288 C 126.668 102.399,126.820 102.232,126.690 102.232 C 126.663 102.232,126.210 102.685,125.683 103.239 M168.253 103.370 C 168.571 103.851,169.287 105.032,169.843 105.993 C 170.399 106.954,170.853 107.672,170.853 107.588 C 170.853 107.301,168.737 103.720,168.205 103.107 L 167.673 102.495 168.253 103.370 M161.400 104.037 C 161.400 104.067,161.656 104.323,161.969 104.606 L 162.538 105.120 162.024 104.551 C 161.545 104.021,161.400 103.902,161.400 104.037 M170.866 107.921 C 170.866 108.018,170.978 108.293,171.116 108.534 C 171.254 108.775,171.366 108.893,171.366 108.796 C 171.366 108.700,171.254 108.425,171.116 108.184 C 170.978 107.943,170.866 107.825,170.866 107.921 M164.848 108.794 C 165.008 109.130,165.170 109.374,165.208 109.336 C 165.288 109.256,164.757 108.184,164.637 108.184 C 164.593 108.184,164.688 108.459,164.848 108.794 M171.385 109.103 C 171.388 109.127,171.666 109.895,172.002 110.810 C 172.338 111.724,172.568 112.236,172.513 111.947 C 172.349 111.091,171.291 108.423,171.385 109.103 M172.687 112.910 C 174.963 123.590,172.883 132.632,166.360 140.406 C 159.592 148.473,148.349 152.540,138.050 150.648 C 137.195 150.490,136.461 150.395,136.420 150.436 C 135.693 151.164,145.921 151.416,149.059 150.748 C 160.979 148.211,170.072 139.565,172.926 128.053 C 174.077 123.412,174.000 115.677,172.776 112.888 L 172.594 112.473 172.687 112.910 M167.747 117.899 C 167.748 118.284,167.784 118.421,167.826 118.204 C 167.868 117.986,167.866 117.671,167.823 117.503 C 167.779 117.336,167.745 117.514,167.747 117.899 M167.942 120.613 C 167.942 121.624,167.971 122.037,168.007 121.532 C 168.042 121.026,168.042 120.199,168.007 119.694 C 167.971 119.188,167.942 119.602,167.942 120.613 M83.152 120.647 C 83.151 120.714,83.354 121.148,83.603 121.610 C 84.418 123.127,84.219 123.869,82.336 126.338 C 74.244 136.946,68.751 147.844,64.708 161.313 C 63.252 166.164,61.255 175.274,61.491 175.984 C 61.528 176.094,61.657 175.556,61.777 174.788 C 64.450 157.737,71.666 140.850,82.342 126.659 C 84.211 124.175,84.466 123.586,84.136 122.506 C 83.927 121.818,83.153 120.358,83.152 120.647 M167.747 123.501 C 167.748 123.886,167.784 124.023,167.826 123.805 C 167.868 123.588,167.866 123.273,167.823 123.105 C 167.779 122.938,167.745 123.116,167.747 123.501 M113.517 127.752 C 113.631 128.505,114.150 130.285,114.232 130.203 C 114.267 130.168,114.101 129.473,113.863 128.658 C 113.625 127.844,113.469 127.436,113.517 127.752 M216.724 129.222 C 216.309 131.123,215.845 134.741,215.875 135.842 C 215.902 136.836,215.912 136.869,215.959 136.105 C 216.063 134.417,216.395 131.888,216.737 130.175 C 216.928 129.225,217.048 128.412,217.005 128.369 C 216.962 128.326,216.836 128.710,216.724 129.222 M114.583 131.291 C 114.726 131.924,117.042 136.551,117.475 137.068 C 117.735 137.379,117.706 137.277,117.374 136.718 C 116.988 136.066,115.502 133.067,114.685 131.291 L 114.484 130.853 114.583 131.291 M161.916 136.849 L 161.313 137.505 161.969 136.902 C 162.330 136.570,162.626 136.275,162.626 136.246 C 162.626 136.112,162.478 136.238,161.916 136.849 M125.689 138.206 C 126.310 138.832,126.856 139.344,126.905 139.344 C 126.953 139.344,126.485 138.832,125.864 138.206 C 125.244 137.580,124.697 137.068,124.649 137.068 C 124.601 137.068,125.069 137.580,125.689 138.206 M215.726 138.293 C 215.726 139.015,215.757 139.311,215.795 138.950 C 215.833 138.589,215.833 137.998,215.795 137.637 C 215.757 137.276,215.726 137.571,215.726 138.293 M117.812 137.633 C 117.812 137.785,119.681 140.174,120.774 141.420 C 122.319 143.180,125.959 146.098,127.790 147.043 C 128.499 147.408,128.141 147.132,126.650 146.160 C 123.950 144.400,121.271 141.906,119.048 139.081 C 117.764 137.451,117.812 137.506,117.812 137.633 M160.000 138.844 L 158.862 139.909 159.957 138.995 C 160.923 138.190,161.362 137.756,161.192 137.774 C 161.162 137.777,160.626 138.259,160.000 138.844 M301.036 139.110 C 300.972 139.174,300.919 139.405,300.919 139.624 C 300.919 141.493,299.087 148.624,297.671 152.268 C 296.671 154.840,296.579 154.604,299.104 155.965 C 300.943 156.956,305.246 159.401,309.672 161.971 C 314.052 164.514,315.822 165.411,316.480 165.423 C 316.859 165.429,316.615 163.519,315.989 161.562 C 314.447 156.750,309.113 148.217,302.947 140.700 C 301.627 139.091,301.315 138.831,301.036 139.110 M215.831 140.481 L 215.755 141.182 213.217 141.302 C 192.216 142.298,185.501 145.518,181.033 156.735 C 175.249 171.257,179.165 187.400,191.638 200.457 C 193.166 202.057,193.150 201.596,191.789 204.944 C 191.172 206.461,189.988 209.593,189.157 211.904 C 188.327 214.214,187.405 216.760,187.110 217.561 C 186.815 218.362,186.609 219.053,186.653 219.097 C 186.697 219.141,186.939 218.604,187.190 217.904 C 187.441 217.203,188.165 215.173,188.799 213.392 C 193.779 199.403,197.005 192.758,199.428 191.496 C 199.871 191.265,200.114 191.001,200.180 190.676 C 200.427 189.472,200.710 188.660,201.521 186.833 L 202.393 184.869 202.011 183.857 C 196.870 170.231,201.878 158.088,215.886 150.212 C 217.064 149.550,217.024 149.784,216.529 146.433 C 216.330 145.085,216.108 143.037,216.037 141.882 C 215.961 140.652,215.876 140.071,215.831 140.481 M157.235 140.994 C 156.422 141.569,156.307 141.733,156.994 141.340 C 157.314 141.157,157.659 140.908,157.759 140.788 C 158.018 140.478,157.896 140.526,157.235 140.994 M139.827 145.244 C 140.045 145.286,140.360 145.284,140.527 145.241 C 140.695 145.197,140.516 145.163,140.131 145.164 C 139.746 145.166,139.609 145.202,139.827 145.244 M146.039 145.241 C 146.208 145.285,146.484 145.285,146.652 145.241 C 146.821 145.197,146.683 145.161,146.346 145.161 C 146.009 145.161,145.871 145.197,146.039 145.241 M142.195 145.425 C 142.849 145.459,143.873 145.459,144.471 145.425 C 145.069 145.391,144.534 145.363,143.282 145.363 C 142.031 145.364,141.542 145.392,142.195 145.425 M128.315 147.330 C 128.315 147.452,131.806 149.089,132.341 149.218 L 132.779 149.324 132.341 149.120 C 132.101 149.009,131.096 148.541,130.109 148.080 C 129.123 147.619,128.315 147.282,128.315 147.330 M133.323 149.577 C 133.623 149.715,134.096 149.873,134.374 149.928 C 134.807 150.013,134.791 149.993,134.267 149.787 C 133.321 149.416,132.653 149.267,133.323 149.577 M135.230 150.197 C 135.422 150.280,135.737 150.345,135.930 150.342 C 136.211 150.338,136.194 150.310,135.842 150.197 C 135.244 150.005,134.784 150.005,135.230 150.197 M96.474 154.238 C 83.610 155.675,73.301 164.282,69.764 176.537 C 69.260 178.282,68.789 180.940,68.815 181.882 C 68.825 182.219,68.937 181.728,69.065 180.792 C 71.438 163.386,88.167 151.376,105.120 154.908 C 107.668 155.439,107.785 155.456,106.958 155.177 C 104.663 154.402,99.302 153.922,96.474 154.238 M109.376 156.043 C 111.749 156.926,113.988 158.060,115.936 159.365 C 116.878 159.996,117.610 160.448,117.561 160.369 C 116.954 159.387,110.363 155.962,108.271 155.541 C 107.982 155.483,108.480 155.709,109.376 156.043 M118.074 160.815 C 118.267 161.006,119.026 161.691,119.762 162.336 C 120.497 162.981,121.561 164.071,122.125 164.757 C 123.693 166.663,124.058 167.034,123.129 165.777 C 122.179 164.492,119.697 161.957,118.512 161.061 C 118.079 160.734,117.882 160.623,118.074 160.815 M124.047 167.177 C 124.120 167.322,124.469 167.873,124.821 168.403 C 125.174 168.932,125.727 169.855,126.050 170.452 C 126.373 171.050,126.670 171.507,126.709 171.467 C 126.812 171.365,124.852 168.011,124.340 167.413 C 124.105 167.139,123.973 167.033,124.047 167.177 M126.754 171.816 C 126.754 171.912,126.905 172.267,127.090 172.604 C 127.274 172.941,127.425 173.138,127.425 173.042 C 127.425 172.945,127.274 172.591,127.090 172.254 C 126.905 171.917,126.754 171.720,126.754 171.816 M127.550 173.643 C 127.714 174.284,128.127 175.180,128.120 174.880 C 128.117 174.735,127.963 174.302,127.777 173.917 C 127.592 173.532,127.490 173.408,127.550 173.643 M128.168 175.317 C 128.167 175.414,128.273 175.768,128.403 176.105 C 128.532 176.442,128.641 176.600,128.644 176.455 C 128.647 176.311,128.541 175.956,128.409 175.667 C 128.277 175.379,128.168 175.221,128.168 175.317 M61.046 178.468 C 59.847 187.491,59.995 197.732,61.448 206.351 C 61.976 209.483,62.992 214.003,63.136 213.859 C 63.179 213.816,62.970 212.768,62.671 211.532 C 60.332 201.856,59.774 190.512,61.114 179.829 C 61.309 178.267,61.442 176.809,61.409 176.591 C 61.376 176.372,61.213 177.217,61.046 178.468 M128.683 176.893 C 128.675 176.989,128.829 177.816,129.025 178.731 C 132.122 193.204,123.487 208.365,109.234 213.478 C 108.319 213.806,107.656 214.078,107.759 214.083 C 108.141 214.101,110.520 213.210,112.140 212.443 C 124.490 206.593,131.460 193.626,129.449 180.241 C 129.205 178.615,128.716 176.477,128.683 176.893 M68.686 184.333 C 68.686 185.344,68.715 185.757,68.751 185.252 C 68.786 184.746,68.786 183.919,68.751 183.414 C 68.715 182.908,68.686 183.322,68.686 184.333 M68.847 187.921 C 68.848 188.403,68.882 188.579,68.922 188.313 C 68.962 188.047,68.961 187.653,68.920 187.437 C 68.878 187.222,68.845 187.440,68.847 187.921 M68.987 189.234 C 68.970 190.217,70.432 195.709,70.652 195.489 C 70.690 195.451,70.522 194.836,70.278 194.121 C 70.034 193.407,69.645 191.917,69.414 190.810 C 69.183 189.702,68.991 188.993,68.987 189.234 M71.087 196.674 C 71.087 196.770,71.238 197.125,71.422 197.462 C 71.607 197.799,71.758 197.996,71.758 197.899 C 71.758 197.803,71.607 197.449,71.422 197.112 C 71.238 196.775,71.087 196.578,71.087 196.674 M203.239 197.190 C 203.239 197.238,203.475 197.400,203.764 197.549 C 204.053 197.699,204.289 197.781,204.289 197.733 C 204.289 197.685,204.053 197.524,203.764 197.374 C 203.475 197.225,203.239 197.142,203.239 197.190 M201.042 198.353 C 200.888 198.651,200.793 198.926,200.831 198.964 C 200.869 199.002,201.031 198.758,201.191 198.422 C 201.551 197.667,201.426 197.610,201.042 198.353 M204.464 197.890 C 204.464 197.938,204.700 198.100,204.989 198.249 C 205.278 198.399,205.514 198.482,205.514 198.433 C 205.514 198.385,205.278 198.224,204.989 198.074 C 204.700 197.925,204.464 197.842,204.464 197.890 M72.588 199.734 C 74.716 203.599,79.611 208.802,82.650 210.429 C 83.295 210.774,82.957 210.453,82.024 209.833 C 78.705 207.630,74.711 203.287,72.798 199.801 C 72.409 199.092,72.051 198.512,72.003 198.512 C 71.955 198.512,72.218 199.062,72.588 199.734 M206.039 198.766 C 206.039 198.814,206.276 198.975,206.565 199.125 C 206.853 199.274,207.090 199.357,207.090 199.309 C 207.090 199.261,206.853 199.099,206.565 198.950 C 206.276 198.800,206.039 198.717,206.039 198.766 M199.241 202.108 C 198.947 202.752,199.003 202.889,199.320 202.304 C 199.469 202.031,199.557 201.774,199.517 201.734 C 199.477 201.694,199.353 201.863,199.241 202.108 M198.540 203.684 C 198.247 204.327,198.303 204.465,198.620 203.879 C 198.768 203.606,198.857 203.350,198.817 203.310 C 198.777 203.270,198.652 203.438,198.540 203.684 M215.492 204.019 C 215.492 204.067,215.807 204.267,216.193 204.464 C 216.578 204.660,216.893 204.782,216.893 204.734 C 216.893 204.685,216.578 204.485,216.193 204.289 C 215.807 204.092,215.492 203.971,215.492 204.019 M197.661 205.801 C 197.359 206.542,197.140 207.177,197.175 207.212 C 197.210 207.247,197.486 206.669,197.788 205.928 C 198.090 205.187,198.308 204.552,198.273 204.517 C 198.238 204.482,197.962 205.060,197.661 205.801 M217.068 204.893 C 217.068 204.941,217.304 205.102,217.593 205.252 C 217.882 205.401,218.118 205.484,218.118 205.436 C 218.118 205.388,217.882 205.226,217.593 205.077 C 217.304 204.927,217.068 204.844,217.068 204.893 M218.293 205.595 C 218.293 205.643,218.608 205.843,218.993 206.039 C 219.379 206.236,219.694 206.357,219.694 206.309 C 219.694 206.261,219.379 206.061,218.993 205.864 C 218.608 205.668,218.293 205.546,218.293 205.595 M221.794 207.518 C 221.794 207.567,222.031 207.728,222.319 207.877 C 222.608 208.027,222.845 208.110,222.845 208.062 C 222.845 208.013,222.608 207.852,222.319 207.702 C 222.031 207.553,221.794 207.470,221.794 207.518 M83.414 210.863 C 83.916 211.273,88.566 213.519,89.190 213.653 C 89.479 213.715,88.915 213.417,87.938 212.991 C 86.960 212.565,85.463 211.847,84.612 211.396 C 83.760 210.946,83.221 210.706,83.414 210.863 M227.834 210.897 C 228.063 211.152,233.029 213.944,233.110 213.863 C 233.144 213.829,232.129 213.221,230.853 212.513 C 229.578 211.805,228.337 211.107,228.096 210.963 C 227.856 210.819,227.737 210.789,227.834 210.897 M194.594 213.850 C 194.439 214.304,194.342 214.707,194.379 214.744 C 194.416 214.781,194.573 214.439,194.728 213.984 C 194.883 213.529,194.980 213.127,194.943 213.090 C 194.906 213.053,194.748 213.395,194.594 213.850 M233.348 213.971 C 233.348 214.017,234.234 214.542,235.317 215.139 C 236.400 215.735,237.355 216.289,237.439 216.369 C 237.639 216.560,235.331 220.502,233.647 222.845 C 230.005 227.911,228.930 229.313,221.658 238.482 C 218.633 242.296,215.723 246.291,213.537 249.631 C 209.007 256.555,208.400 257.492,208.068 258.065 C 207.147 259.655,208.445 257.751,211.711 252.720 C 215.254 247.262,218.278 242.974,220.927 239.650 C 221.656 238.735,223.187 236.805,224.329 235.361 C 225.472 233.917,226.853 232.184,227.400 231.510 C 231.171 226.857,237.724 217.320,237.724 216.484 C 237.724 216.423,237.429 216.187,237.068 215.962 C 236.046 215.323,233.348 213.879,233.348 213.971 M91.748 214.335 C 92.423 215.073,101.467 215.564,104.070 215.004 C 106.382 214.506,106.799 214.399,106.727 214.327 C 106.685 214.286,105.834 214.429,104.835 214.645 C 101.533 215.362,95.966 215.219,92.079 214.319 C 91.838 214.263,91.689 214.270,91.748 214.335 M63.394 214.967 C 63.394 215.112,63.462 215.387,63.545 215.580 C 63.640 215.801,63.695 215.833,63.695 215.667 C 63.695 215.523,63.628 215.247,63.545 215.055 C 63.450 214.834,63.394 214.802,63.394 214.967 M63.747 216.193 C 63.747 216.337,63.853 216.731,63.982 217.068 C 64.112 217.405,64.218 217.562,64.218 217.418 C 64.218 217.274,64.112 216.880,63.982 216.543 C 63.853 216.206,63.747 216.048,63.747 216.193 M134.705 216.564 C 133.102 216.715,129.471 217.407,129.601 217.537 C 129.640 217.576,130.450 217.450,131.401 217.257 C 135.127 216.500,138.211 216.424,141.950 216.999 C 143.834 217.288,144.333 217.211,142.566 216.903 C 139.761 216.414,137.376 216.311,134.705 216.564 M243.580 217.008 C 243.321 218.173,243.046 218.823,242.144 220.394 C 239.569 224.881,235.225 230.882,228.438 239.330 C 224.313 244.464,221.291 248.464,219.402 251.291 C 218.005 253.380,214.796 258.341,214.192 259.344 L 213.875 259.869 214.240 259.431 C 214.440 259.190,215.241 258.009,216.021 256.805 C 218.204 253.433,220.418 250.091,221.085 249.159 C 221.947 247.956,225.514 243.242,226.428 242.101 C 226.851 241.571,227.971 240.160,228.916 238.964 C 229.861 237.769,230.726 236.760,230.837 236.723 C 231.324 236.561,234.687 242.768,235.986 246.225 C 237.298 249.719,238.461 255.188,237.930 255.366 C 237.811 255.405,238.466 255.697,239.387 256.013 C 251.644 260.226,254.543 276.683,244.457 284.797 C 235.904 291.677,223.734 288.988,218.790 279.125 C 218.211 277.969,217.794 277.221,217.863 277.462 C 218.289 278.940,219.927 281.669,221.299 283.184 C 221.764 283.697,222.144 284.200,222.144 284.300 C 222.144 284.806,215.772 287.489,211.981 288.581 C 207.145 289.972,196.061 291.680,196.061 291.033 C 196.061 290.958,196.693 289.674,197.464 288.179 C 198.236 286.684,198.832 285.426,198.788 285.382 C 198.422 285.016,191.326 300.887,191.570 301.523 C 191.716 301.903,198.596 301.518,205.777 300.730 C 217.108 299.485,230.024 296.310,240.812 292.116 C 266.345 282.191,290.948 263.914,294.706 252.079 C 298.020 241.640,287.192 231.383,264.245 223.228 C 262.005 222.432,260.004 221.778,248.053 217.936 C 245.886 217.240,244.019 216.634,243.902 216.590 C 243.781 216.545,243.644 216.722,243.580 217.008 M145.330 217.687 C 146.168 217.916,147.463 218.341,148.209 218.631 C 148.955 218.921,149.595 219.129,149.631 219.093 C 149.817 218.907,144.727 217.224,144.074 217.256 C 143.927 217.263,144.493 217.457,145.330 217.687 M192.931 218.489 C 192.728 219.089,192.593 219.610,192.630 219.646 C 192.666 219.683,192.862 219.223,193.065 218.623 C 193.267 218.023,193.403 217.502,193.366 217.465 C 193.329 217.428,193.133 217.889,192.931 218.489 M128.578 217.768 C 128.357 217.863,128.325 217.918,128.490 217.918 C 128.635 217.918,128.910 217.851,129.103 217.768 C 129.324 217.673,129.356 217.618,129.190 217.618 C 129.046 217.618,128.770 217.685,128.578 217.768 M64.254 217.890 C 64.232 218.403,67.867 228.209,68.021 228.054 C 68.057 228.019,67.682 226.971,67.188 225.724 C 66.695 224.477,65.835 222.158,65.277 220.569 C 64.719 218.980,64.259 217.775,64.254 217.890 M126.256 218.557 C 119.583 221.125,113.336 226.806,110.047 233.298 C 109.255 234.862,109.539 234.567,110.505 232.823 C 114.149 226.243,120.155 220.923,126.521 218.639 C 127.123 218.423,127.615 218.217,127.615 218.182 C 127.615 218.063,127.354 218.135,126.256 218.557 M151.408 220.061 C 156.456 222.778,160.799 226.886,163.454 231.456 C 164.378 233.046,164.646 233.286,163.856 231.816 C 162.191 228.717,158.381 224.477,155.323 222.319 C 153.693 221.170,150.267 219.166,149.938 219.171 C 149.840 219.172,150.501 219.573,151.408 220.061 M185.906 220.959 C 185.084 223.266,182.730 229.169,182.012 230.722 C 181.679 231.444,181.073 232.731,180.666 233.581 C 180.259 234.431,179.961 235.162,180.003 235.204 C 180.101 235.301,182.357 230.438,183.503 227.659 C 184.681 224.803,186.644 219.496,186.556 219.408 C 186.516 219.368,186.224 220.066,185.906 220.959 M138.687 222.445 C 138.952 222.485,139.385 222.485,139.650 222.445 C 139.915 222.405,139.698 222.372,139.168 222.372 C 138.639 222.372,138.422 222.405,138.687 222.445 M191.354 222.864 C 191.246 223.173,191.189 223.457,191.226 223.495 C 191.264 223.532,191.383 223.310,191.490 223.000 C 191.598 222.691,191.656 222.407,191.618 222.370 C 191.581 222.332,191.462 222.555,191.354 222.864 M140.438 222.615 C 140.606 222.659,140.882 222.659,141.050 222.615 C 141.219 222.571,141.081 222.535,140.744 222.535 C 140.407 222.535,140.269 222.571,140.438 222.615 M142.740 223.035 C 143.501 223.222,144.154 223.344,144.191 223.308 C 144.282 223.217,142.065 222.666,141.671 222.682 C 141.498 222.689,141.979 222.848,142.740 223.035 M145.281 223.732 C 145.803 223.917,146.260 224.039,146.297 224.002 C 146.379 223.920,144.785 223.365,144.520 223.383 C 144.417 223.390,144.760 223.547,145.281 223.732 M147.046 224.420 C 147.383 224.605,147.737 224.756,147.834 224.756 C 147.930 224.756,147.733 224.605,147.396 224.420 C 147.059 224.236,146.705 224.085,146.608 224.085 C 146.512 224.085,146.709 224.236,147.046 224.420 M149.147 225.374 C 149.147 225.422,149.383 225.584,149.672 225.733 C 149.961 225.882,150.197 225.965,150.197 225.917 C 150.197 225.869,149.961 225.707,149.672 225.558 C 149.383 225.409,149.147 225.326,149.147 225.374 M151.947 227.098 C 151.947 227.142,152.318 227.482,152.771 227.854 C 153.224 228.225,153.538 228.437,153.469 228.325 C 153.321 228.087,151.947 226.978,151.947 227.098 M154.854 229.672 C 155.534 230.394,156.548 231.615,157.108 232.385 C 158.146 233.813,158.600 234.364,158.333 233.873 C 157.886 233.051,155.669 230.309,154.723 229.409 L 153.619 228.359 154.854 229.672 M68.284 228.709 C 68.284 228.805,68.396 229.081,68.534 229.322 C 68.672 229.562,68.784 229.681,68.784 229.584 C 68.784 229.488,68.672 229.212,68.534 228.972 C 68.396 228.731,68.284 228.613,68.284 228.709 M68.805 229.917 C 68.753 230.885,77.612 246.827,78.201 246.827 C 78.250 246.827,78.147 246.611,77.973 246.346 C 75.257 242.222,72.706 237.734,70.437 233.085 C 69.544 231.256,68.810 229.830,68.805 229.917 M270.521 230.460 C 281.376 231.783,287.887 244.604,282.817 254.672 C 276.172 267.869,256.414 266.347,251.898 252.291 C 248.030 240.253,257.714 228.900,270.521 230.460 M188.212 230.992 C 187.919 231.636,187.975 231.773,188.292 231.188 C 188.440 230.915,188.529 230.658,188.489 230.618 C 188.448 230.578,188.324 230.747,188.212 230.992 M187.430 232.744 C 186.787 234.054,186.847 234.210,187.504 232.937 C 187.794 232.373,188.003 231.883,187.967 231.847 C 187.931 231.812,187.690 232.215,187.430 232.744 M164.902 234.112 C 164.902 234.147,165.140 234.679,165.432 235.294 C 165.723 235.908,165.910 236.214,165.846 235.974 C 165.641 235.192,164.902 233.736,164.902 234.112 M186.380 235.020 C 185.737 236.330,185.796 236.485,186.453 235.212 C 186.744 234.649,186.952 234.159,186.917 234.123 C 186.881 234.087,186.639 234.491,186.380 235.020 M158.687 234.748 C 158.836 235.037,158.998 235.274,159.046 235.274 C 159.094 235.274,159.012 235.037,158.862 234.748 C 158.713 234.460,158.551 234.223,158.503 234.223 C 158.455 234.223,158.538 234.460,158.687 234.748 M109.245 235.054 C 108.860 235.897,108.184 237.759,108.189 237.964 C 108.191 238.073,108.504 237.378,108.884 236.421 C 109.524 234.805,109.751 233.950,109.245 235.054 M178.930 237.278 C 177.958 239.277,178.021 239.435,179.013 237.487 C 179.448 236.635,179.770 235.904,179.729 235.863 C 179.688 235.822,179.329 236.459,178.930 237.278 M159.837 236.937 C 159.837 237.033,159.950 237.309,160.088 237.549 C 160.225 237.790,160.338 237.908,160.338 237.812 C 160.338 237.716,160.225 237.440,160.088 237.199 C 159.950 236.958,159.837 236.840,159.837 236.937 M184.977 237.995 C 184.565 238.857,184.623 239.004,185.053 238.189 C 185.248 237.819,185.377 237.485,185.339 237.447 C 185.302 237.410,185.138 237.656,184.977 237.995 M166.371 237.812 C 166.419 238.004,166.592 238.635,166.756 239.212 C 166.920 239.790,167.200 241.050,167.378 242.013 C 167.635 243.406,167.681 243.537,167.604 242.654 C 167.500 241.474,166.725 238.164,166.450 237.724 C 166.321 237.519,166.304 237.539,166.371 237.812 M107.840 239.074 C 107.147 241.799,106.942 243.359,106.879 246.389 L 106.814 249.540 106.949 246.565 C 107.077 243.731,107.362 241.680,107.941 239.412 C 108.085 238.847,108.170 238.352,108.129 238.311 C 108.087 238.270,107.958 238.613,107.840 239.074 M173.889 247.675 C 171.659 252.167,169.862 255.870,169.895 255.904 C 169.929 255.938,171.783 252.293,174.017 247.802 C 176.250 243.312,178.047 239.609,178.010 239.573 C 177.973 239.537,176.119 243.182,173.889 247.675 M161.075 240.350 C 161.075 240.495,161.143 240.770,161.225 240.963 C 161.320 241.183,161.376 241.216,161.376 241.050 C 161.376 240.906,161.308 240.630,161.225 240.438 C 161.131 240.217,161.075 240.185,161.075 240.350 M183.661 240.795 C 183.368 241.439,183.423 241.576,183.741 240.991 C 183.889 240.718,183.977 240.461,183.937 240.421 C 183.897 240.381,183.773 240.550,183.661 240.795 M182.176 243.947 C 181.765 244.809,181.822 244.956,182.252 244.141 C 182.448 243.771,182.576 243.437,182.539 243.399 C 182.501 243.361,182.337 243.608,182.176 243.947 M167.755 244.726 C 167.755 245.256,167.788 245.473,167.828 245.208 C 167.868 244.943,167.868 244.510,167.828 244.245 C 167.788 243.980,167.755 244.197,167.755 244.726 M161.992 247.090 C 161.993 248.245,162.021 248.695,162.055 248.089 C 162.090 247.484,162.089 246.539,162.055 245.989 C 162.020 245.439,161.992 245.934,161.992 247.090 M167.939 247.177 C 167.939 247.996,167.969 248.330,168.006 247.921 C 168.042 247.512,168.042 246.842,168.006 246.433 C 167.969 246.024,167.939 246.359,167.939 247.177 M79.226 248.446 C 91.934 266.689,110.450 281.531,132.349 291.028 C 137.029 293.057,143.299 295.243,143.637 294.963 C 143.752 294.868,144.478 293.904,145.250 292.821 C 146.577 290.962,148.427 288.547,151.589 284.545 C 158.117 276.287,163.992 267.312,168.119 259.300 C 168.671 258.228,168.245 258.730,167.600 259.912 C 162.105 269.976,158.351 275.646,150.766 285.339 C 148.670 288.018,148.469 288.223,147.995 288.169 C 141.423 287.411,130.092 283.961,113.260 277.593 C 109.072 276.008,105.237 274.577,104.738 274.413 C 104.047 274.186,103.134 273.535,100.918 271.689 C 92.629 264.784,86.069 257.738,79.931 249.147 C 79.088 247.967,78.359 247.002,78.310 247.002 C 78.261 247.002,78.673 247.652,79.226 248.446 M167.650 250.051 C 167.582 250.813,167.559 251.469,167.599 251.509 C 167.707 251.617,167.924 249.381,167.843 248.997 C 167.804 248.814,167.718 249.289,167.650 250.051 M179.205 250.072 C 178.850 250.791,178.596 251.379,178.643 251.379 C 178.759 251.379,179.993 248.906,179.915 248.828 C 179.880 248.794,179.561 249.353,179.205 250.072 M107.054 250.766 C 107.101 251.440,107.254 252.425,107.393 252.954 C 107.664 253.982,107.649 253.829,107.204 251.028 L 106.968 249.540 107.054 250.766 M167.272 252.527 C 167.205 252.975,166.995 253.933,166.806 254.657 C 166.616 255.380,166.493 256.004,166.532 256.043 C 166.624 256.135,167.097 254.404,167.366 252.992 C 167.481 252.388,167.534 251.852,167.485 251.803 C 167.435 251.753,167.340 252.079,167.272 252.527 M161.252 252.981 C 161.138 253.476,161.076 253.914,161.115 253.953 C 161.154 253.991,161.282 253.621,161.400 253.129 C 161.518 252.637,161.580 252.200,161.538 252.158 C 161.495 252.115,161.367 252.486,161.252 252.981 M177.542 253.397 C 177.235 254.020,177.021 254.530,177.067 254.530 C 177.184 254.530,178.243 252.408,178.164 252.329 C 178.129 252.294,177.849 252.775,177.542 253.397 M107.688 254.267 C 107.686 254.460,107.751 254.775,107.834 254.967 C 108.025 255.413,108.025 254.953,107.834 254.354 C 107.721 254.003,107.693 253.986,107.688 254.267 M232.035 255.059 C 231.545 255.127,231.969 255.144,232.998 255.097 C 234.009 255.051,234.869 254.983,234.909 254.946 C 235.021 254.844,233.016 254.922,232.035 255.059 M235.495 255.180 C 235.761 255.221,236.155 255.219,236.370 255.178 C 236.585 255.136,236.368 255.103,235.886 255.105 C 235.405 255.106,235.229 255.140,235.495 255.180 M228.438 255.809 C 223.137 257.637,218.348 262.681,217.521 267.309 C 217.461 267.646,217.635 267.291,217.908 266.521 C 219.849 261.047,224.177 257.032,229.692 255.588 C 230.403 255.401,230.788 255.245,230.547 255.241 C 230.306 255.237,229.357 255.492,228.438 255.809 M108.018 255.522 C 108.005 255.815,109.048 258.734,109.352 259.256 C 109.639 259.750,109.644 259.764,108.695 257.155 C 108.328 256.144,108.023 255.409,108.018 255.522 M159.617 257.517 C 159.169 258.473,158.841 259.256,158.888 259.256 C 159.004 259.256,160.574 255.921,160.495 255.841 C 160.460 255.806,160.065 256.560,159.617 257.517 M169.014 257.256 C 168.660 257.889,168.402 258.438,168.440 258.477 C 168.478 258.515,168.806 257.997,169.169 257.325 C 169.531 256.654,169.790 256.105,169.743 256.105 C 169.696 256.105,169.368 256.623,169.014 257.256 M166.138 257.024 C 163.876 264.686,156.061 272.584,147.659 275.700 C 146.888 275.986,146.360 276.223,146.484 276.228 C 148.234 276.294,154.430 272.743,158.004 269.625 C 161.378 266.682,165.518 260.336,166.397 256.761 C 166.585 255.996,166.380 256.204,166.138 257.024 M174.880 258.556 C 174.683 258.941,174.562 259.256,174.610 259.256 C 174.658 259.256,174.858 258.941,175.055 258.556 C 175.251 258.171,175.373 257.856,175.324 257.856 C 175.276 257.856,175.076 258.171,174.880 258.556 M207.221 259.387 C 202.375 266.597,193.899 281.540,190.068 289.628 C 188.030 293.931,184.532 302.577,184.743 302.788 C 184.779 302.824,185.065 302.162,185.380 301.317 C 190.015 288.868,197.614 274.423,207.574 259.125 C 207.715 258.908,207.792 258.731,207.746 258.731 C 207.700 258.731,207.464 259.026,207.221 259.387 M157.928 260.613 C 157.523 261.263,157.381 261.568,157.613 261.292 C 158.041 260.780,158.852 259.431,158.730 259.431 C 158.694 259.431,158.333 259.963,157.928 260.613 M212.853 261.400 C 209.140 267.206,205.172 273.716,202.780 277.929 C 200.690 281.611,199.034 284.694,199.107 284.767 C 199.147 284.808,199.473 284.303,199.830 283.646 C 203.301 277.264,206.210 272.265,209.523 266.990 C 209.966 266.285,210.533 265.379,210.782 264.977 C 211.032 264.574,211.754 263.446,212.386 262.469 C 213.620 260.561,213.973 259.956,213.853 259.956 C 213.811 259.956,213.361 260.606,212.853 261.400 M109.830 260.373 C 110.956 263.708,117.687 271.262,120.856 272.747 C 121.127 272.874,121.109 272.837,120.790 272.609 C 116.219 269.337,113.448 266.365,110.833 261.933 C 110.220 260.894,109.769 260.192,109.830 260.373 M173.392 261.357 C 173.148 261.838,172.988 262.232,173.036 262.232 C 173.084 262.232,173.323 261.838,173.567 261.357 C 173.811 260.875,173.971 260.481,173.923 260.481 C 173.875 260.481,173.636 260.875,173.392 261.357 M155.880 263.277 C 155.214 264.045,154.156 265.104,153.527 265.631 C 151.569 267.274,151.487 267.354,152.368 266.754 C 153.343 266.091,155.782 263.739,156.649 262.626 C 157.571 261.442,157.195 261.761,155.880 263.277 M171.466 264.858 C 171.317 265.147,171.234 265.383,171.282 265.383 C 171.330 265.383,171.492 265.147,171.641 264.858 C 171.791 264.569,171.873 264.333,171.825 264.333 C 171.777 264.333,171.615 264.569,171.466 264.858 M170.066 267.309 C 169.916 267.597,169.833 267.834,169.882 267.834 C 169.930 267.834,170.091 267.597,170.241 267.309 C 170.390 267.020,170.473 266.783,170.425 266.783 C 170.377 266.783,170.215 267.020,170.066 267.309 M150.678 267.751 C 150.320 267.994,149.455 268.513,148.756 268.905 C 148.056 269.296,147.641 269.566,147.834 269.504 C 148.568 269.269,151.746 267.326,151.419 267.312 C 151.369 267.310,151.036 267.507,150.678 267.751 M217.010 270.092 C 216.945 270.708,216.904 271.692,216.918 272.280 C 216.935 273.033,216.986 272.755,217.090 271.335 C 217.251 269.135,217.197 268.302,217.010 270.092 M146.433 269.947 C 146.048 270.132,145.930 270.235,146.171 270.175 C 146.666 270.051,147.576 269.595,147.309 269.604 C 147.212 269.608,146.818 269.762,146.433 269.947 M144.770 270.547 C 144.433 270.677,144.276 270.785,144.420 270.788 C 144.565 270.791,144.919 270.686,145.208 270.553 C 145.884 270.244,145.569 270.239,144.770 270.547 M143.282 270.985 C 143.062 271.080,143.029 271.135,143.195 271.135 C 143.339 271.135,143.615 271.067,143.807 270.985 C 144.028 270.890,144.060 270.834,143.895 270.834 C 143.751 270.834,143.475 270.902,143.282 270.985 M166.719 272.954 C 166.116 273.976,166.077 274.064,166.384 273.698 C 166.739 273.274,167.046 272.735,166.931 272.735 C 166.885 272.735,166.790 272.834,166.719 272.954 M122.188 273.514 C 122.188 273.562,122.425 273.724,122.713 273.873 C 123.002 274.022,123.239 274.105,123.239 274.057 C 123.239 274.009,123.002 273.847,122.713 273.698 C 122.425 273.549,122.188 273.466,122.188 273.514 M217.112 274.048 C 217.114 274.433,217.150 274.570,217.192 274.352 C 217.234 274.135,217.232 273.820,217.188 273.652 C 217.144 273.485,217.110 273.663,217.112 274.048 M125.259 275.084 C 125.937 275.415,126.725 275.737,127.010 275.799 C 127.294 275.861,126.858 275.626,126.039 275.278 C 124.032 274.424,123.777 274.360,125.259 275.084 M165.074 275.580 C 164.767 276.085,164.630 276.381,164.769 276.236 C 165.084 275.910,165.837 274.661,165.719 274.661 C 165.671 274.661,165.381 275.074,165.074 275.580 M217.271 275.186 C 217.270 275.610,217.720 277.201,217.742 276.849 C 217.748 276.753,217.645 276.241,217.513 275.711 C 217.381 275.182,217.272 274.945,217.271 275.186 M129.015 276.422 C 131.050 277.332,137.663 277.922,140.911 277.484 C 142.508 277.269,146.240 276.422,146.120 276.302 C 146.080 276.262,145.254 276.421,144.284 276.656 C 139.405 277.838,135.041 277.744,129.015 276.329 L 128.578 276.226 129.015 276.422 M163.151 278.512 C 162.945 278.801,162.816 279.037,162.865 279.037 C 162.913 279.037,163.120 278.801,163.326 278.512 C 163.532 278.223,163.661 277.987,163.612 277.987 C 163.564 277.987,163.357 278.223,163.151 278.512 M160.868 281.707 C 160.367 282.405,160.112 282.818,160.300 282.626 C 160.737 282.180,161.984 280.438,161.867 280.438 C 161.818 280.438,161.369 281.009,160.868 281.707 M156.827 286.958 C 156.510 287.368,155.971 288.052,155.630 288.480 C 155.290 288.908,155.097 289.206,155.203 289.143 C 155.432 289.006,157.609 286.214,157.488 286.214 C 157.441 286.214,157.144 286.549,156.827 286.958 M152.448 292.648 C 151.945 293.256,151.731 293.567,151.818 293.567 C 151.866 293.567,152.116 293.291,152.373 292.954 C 152.850 292.329,152.908 292.093,152.448 292.648 M150.197 295.667 C 149.991 295.956,149.862 296.193,149.911 296.193 C 149.959 296.193,150.166 295.956,150.372 295.667 C 150.578 295.379,150.707 295.142,150.658 295.142 C 150.610 295.142,150.403 295.379,150.197 295.667 M149.322 296.893 C 149.116 297.182,148.987 297.418,149.035 297.418 C 149.083 297.418,149.291 297.182,149.497 296.893 C 149.702 296.604,149.831 296.368,149.783 296.368 C 149.735 296.368,149.527 296.604,149.322 296.893 M146.979 300.306 C 146.823 300.547,146.568 300.961,146.412 301.225 L 146.129 301.707 146.481 301.281 C 146.897 300.777,147.449 299.869,147.339 299.869 C 147.296 299.869,147.134 300.066,146.979 300.306 M183.824 304.962 C 183.423 306.037,183.126 306.949,183.165 306.987 C 183.204 307.026,183.564 306.178,183.966 305.103 C 184.367 304.028,184.663 303.117,184.625 303.078 C 184.586 303.039,184.226 303.887,183.824 304.962 M143.632 305.821 C 143.388 306.302,143.228 306.696,143.276 306.696 C 143.325 306.696,143.563 306.302,143.807 305.821 C 144.051 305.339,144.212 304.945,144.163 304.945 C 144.115 304.945,143.876 305.339,143.632 305.821 M182.165 309.342 C 181.806 310.219,181.547 310.970,181.588 311.012 C 181.630 311.054,181.953 310.366,182.306 309.483 C 182.659 308.601,182.919 307.849,182.882 307.813 C 182.846 307.777,182.523 308.465,182.165 309.342 M141.823 309.417 C 141.529 310.060,141.585 310.198,141.903 309.613 C 142.051 309.339,142.139 309.083,142.099 309.043 C 142.059 309.003,141.935 309.171,141.823 309.417 M140.763 311.967 C 140.656 312.276,140.598 312.560,140.635 312.597 C 140.673 312.635,140.792 312.412,140.900 312.103 C 141.007 311.794,141.065 311.510,141.028 311.473 C 140.990 311.435,140.871 311.658,140.763 311.967 M180.680 313.021 C 180.473 313.520,180.332 313.957,180.367 313.992 C 180.402 314.028,180.601 313.648,180.808 313.150 C 181.015 312.651,181.156 312.214,181.121 312.178 C 181.086 312.143,180.887 312.522,180.680 313.021 M179.267 316.282 C 173.923 328.119,167.811 335.036,160.191 337.869 C 159.460 338.141,158.959 338.368,159.077 338.372 C 161.673 338.475,168.560 333.482,172.103 328.928 C 174.786 325.480,180.748 314.782,180.259 314.293 C 180.223 314.257,179.777 315.152,179.267 316.282 M138.902 319.185 C 138.835 319.811,138.815 320.428,138.858 320.556 C 138.900 320.683,138.989 320.205,139.055 319.493 C 139.122 318.781,139.142 318.164,139.100 318.123 C 139.058 318.081,138.969 318.559,138.902 319.185 M138.696 321.926 C 138.696 322.455,138.729 322.672,138.769 322.407 C 138.809 322.142,138.809 321.709,138.769 321.444 C 138.729 321.179,138.696 321.396,138.696 321.926 M138.866 324.026 C 138.866 324.460,138.900 324.637,138.942 324.420 C 138.984 324.204,138.984 323.849,138.942 323.632 C 138.900 323.416,138.866 323.593,138.866 324.026 M142.605 334.004 C 143.815 335.756,145.543 337.495,146.696 338.119 C 147.103 338.340,146.864 338.126,145.882 337.391 C 145.387 337.019,144.491 336.125,143.892 335.404 C 142.797 334.084,142.248 333.487,142.605 334.004 M148.184 338.825 C 148.473 338.957,148.867 339.063,149.059 339.061 C 149.252 339.059,149.055 338.946,148.621 338.809 C 147.650 338.503,147.493 338.509,148.184 338.825 M155.667 339.027 C 155.836 339.071,156.112 339.071,156.280 339.027 C 156.449 338.983,156.311 338.947,155.974 338.947 C 155.637 338.947,155.499 338.983,155.667 339.027 M150.950 339.211 C 151.797 339.244,153.136 339.243,153.925 339.211 C 154.715 339.179,154.022 339.152,152.385 339.153 C 150.748 339.153,150.102 339.179,150.950 339.211 " stroke="none" fill="#bd654b" fill-rule="evenodd"></path><path id="path5" d="M139.431 96.377 C 127.163 98.450,118.779 108.359,118.777 120.788 C 118.774 144.673,150.097 154.435,163.425 134.701 C 175.519 116.797,160.505 92.816,139.431 96.377 " stroke="none" fill="#fbe781" fill-rule="evenodd"></path><path id="path6" d="M288.138 82.890 C 287.787 83.253,287.451 83.844,287.318 84.334 C 286.534 87.225,286.496 87.483,286.487 89.978 C 286.476 93.424,286.793 94.538,289.233 99.606 C 293.070 107.578,294.099 110.802,294.086 114.811 C 294.068 120.151,292.403 123.221,289.518 123.235 C 288.706 123.239,288.648 123.214,285.446 121.511 C 283.547 120.501,282.410 120.744,280.065 122.660 C 276.367 125.682,274.794 125.354,273.599 121.313 C 272.493 117.572,270.820 117.653,266.083 121.681 C 261.379 125.680,256.558 123.893,256.849 118.259 L 256.940 116.499 256.622 117.413 C 256.448 117.915,255.716 119.609,254.995 121.176 C 253.280 124.910,252.892 126.209,252.893 128.228 C 252.897 133.887,256.323 133.848,260.451 128.142 C 265.193 121.586,269.374 119.619,272.530 122.457 C 273.814 123.611,274.134 124.575,274.321 127.853 C 274.598 132.695,275.799 132.546,279.620 127.195 C 283.326 122.006,287.744 123.427,289.096 130.241 C 290.087 135.238,291.337 137.003,293.614 136.624 C 294.626 136.456,295.667 135.903,295.670 135.533 C 295.672 135.366,295.753 134.481,295.849 133.567 C 296.977 122.900,295.746 112.753,291.919 101.175 C 288.606 91.153,288.103 88.086,288.937 83.020 C 289.087 82.110,288.921 82.083,288.138 82.890 M245.864 100.289 C 243.287 101.903,243.294 101.947,246.164 102.204 C 249.138 102.470,251.514 102.962,252.759 103.569 C 256.190 105.241,258.026 109.762,257.263 114.658 C 257.121 115.572,257.028 116.343,257.058 116.372 C 257.242 116.557,258.774 111.295,258.858 110.188 C 259.099 107.002,256.420 103.379,251.896 100.774 C 251.359 100.464,247.790 98.994,247.790 99.083 C 247.790 99.083,246.923 99.625,245.864 100.289 " stroke="none" fill="#e42435" fill-rule="evenodd"></path><path id="path7" d="M237.063 106.759 C 235.245 108.362,232.702 110.915,231.779 112.066 C 231.350 112.602,231.275 112.737,231.605 112.385 C 233.910 109.920,234.860 108.963,236.285 107.670 C 238.696 105.483,238.452 105.577,239.542 106.418 C 240.053 106.811,240.530 107.133,240.602 107.133 C 240.675 107.133,240.263 106.779,239.687 106.346 C 238.400 105.379,238.680 105.334,237.063 106.759 M241.762 107.546 C 241.852 107.643,246.938 108.184,247.760 108.184 C 248.717 108.184,247.727 108.014,245.775 107.844 C 244.573 107.739,243.155 107.605,242.626 107.546 C 242.096 107.488,241.708 107.488,241.762 107.546 M249.103 108.446 C 249.632 108.574,250.093 108.652,250.126 108.619 C 250.219 108.527,248.883 108.184,248.490 108.200 C 248.298 108.207,248.573 108.318,249.103 108.446 M250.631 109.068 C 250.846 109.312,251.136 109.824,251.275 110.205 C 251.415 110.586,251.534 110.796,251.541 110.673 C 251.564 110.257,251.080 109.324,250.659 108.973 L 250.241 108.624 250.631 109.068 M251.594 111.510 C 251.594 111.847,251.630 111.985,251.674 111.816 C 251.718 111.648,251.718 111.372,251.674 111.204 C 251.630 111.035,251.594 111.173,251.594 111.510 M251.580 113.282 C 251.565 113.535,251.514 114.008,251.467 114.333 L 251.380 114.923 251.564 114.336 C 251.665 114.013,251.716 113.540,251.677 113.286 L 251.606 112.823 251.580 113.282 M251.121 115.489 C 251.055 115.753,250.731 116.553,250.401 117.268 C 250.070 117.983,249.829 118.596,249.863 118.631 C 249.898 118.665,250.209 118.076,250.554 117.321 C 251.179 115.953,251.495 115.011,251.329 115.011 C 251.281 115.011,251.187 115.226,251.121 115.489 M227.813 117.330 C 227.210 118.353,227.171 118.440,227.478 118.074 C 227.834 117.651,228.140 117.112,228.025 117.112 C 227.979 117.112,227.884 117.210,227.813 117.330 M226.783 119.037 C 226.634 119.326,226.551 119.562,226.599 119.562 C 226.647 119.562,226.809 119.326,226.958 119.037 C 227.108 118.748,227.191 118.512,227.142 118.512 C 227.094 118.512,226.933 118.748,226.783 119.037 M249.224 119.834 C 248.582 121.144,248.641 121.299,249.298 120.026 C 249.589 119.463,249.797 118.973,249.761 118.937 C 249.725 118.901,249.484 119.305,249.224 119.834 M225.549 121.330 C 225.300 121.821,225.126 122.252,225.162 122.288 C 225.198 122.324,225.439 121.922,225.697 121.396 C 225.955 120.869,226.130 120.438,226.084 120.438 C 226.039 120.438,225.798 120.839,225.549 121.330 M247.796 123.332 C 247.627 123.869,247.523 124.342,247.564 124.384 C 247.606 124.426,247.778 124.020,247.947 123.484 C 248.117 122.947,248.221 122.473,248.179 122.431 C 248.137 122.390,247.965 122.795,247.796 123.332 M223.652 125.799 C 223.497 126.254,223.376 126.711,223.383 126.815 C 223.390 126.918,223.547 126.575,223.732 126.053 C 223.917 125.532,224.039 125.074,224.002 125.037 C 223.965 125.000,223.807 125.343,223.652 125.799 M247.068 128.315 C 247.068 129.422,247.097 129.875,247.132 129.322 C 247.166 128.768,247.166 127.862,247.132 127.309 C 247.097 126.755,247.068 127.208,247.068 128.315 M267.526 128.407 C 267.129 128.747,266.022 130.105,265.065 131.427 C 262.542 134.911,260.707 136.525,258.152 137.509 C 257.556 137.738,257.163 137.930,257.280 137.935 C 259.066 138.007,262.980 134.788,265.387 131.269 C 266.494 129.650,268.001 127.965,268.342 127.965 C 268.438 127.965,268.545 128.457,268.579 129.059 L 268.642 130.153 268.675 128.972 C 268.715 127.571,268.580 127.505,267.526 128.407 M268.750 130.766 C 268.750 131.103,268.786 131.241,268.830 131.072 C 268.874 130.904,268.874 130.628,268.830 130.460 C 268.786 130.291,268.750 130.429,268.750 130.766 M247.190 130.780 C 247.196 131.013,247.273 131.361,247.360 131.554 C 247.471 131.798,247.487 131.692,247.412 131.204 C 247.289 130.391,247.172 130.169,247.190 130.780 M301.969 130.766 C 301.969 130.862,302.088 130.941,302.232 130.941 C 302.376 130.941,302.495 130.862,302.495 130.766 C 302.495 130.670,302.376 130.591,302.232 130.591 C 302.088 130.591,301.969 130.670,301.969 130.766 M268.896 131.659 C 268.882 131.981,269.245 133.089,269.334 133.000 C 269.367 132.967,269.285 132.589,269.151 132.159 C 269.017 131.730,268.902 131.505,268.896 131.659 M282.393 132.933 C 280.325 135.483,278.323 136.712,275.681 137.055 C 274.784 137.171,274.708 137.203,275.281 137.221 C 277.639 137.295,281.023 135.258,282.798 132.695 C 283.409 131.813,283.494 131.817,283.731 132.735 L 283.924 133.479 283.828 132.780 C 283.652 131.498,283.549 131.509,282.393 132.933 M247.882 133.094 C 247.864 133.645,249.528 135.973,250.365 136.567 C 250.744 136.836,250.611 136.646,249.978 136.010 C 249.449 135.478,248.761 134.573,248.451 133.999 C 248.141 133.424,247.885 133.017,247.882 133.094 M221.838 133.829 C 221.840 134.214,221.876 134.351,221.918 134.134 C 221.960 133.916,221.958 133.601,221.915 133.433 C 221.871 133.266,221.837 133.444,221.838 133.829 M269.897 134.179 C 269.999 134.372,270.460 134.884,270.922 135.317 L 271.761 136.105 270.814 135.055 C 270.294 134.477,269.832 133.965,269.790 133.917 C 269.747 133.869,269.795 133.987,269.897 134.179 M284.138 134.442 C 284.138 134.586,284.206 134.862,284.289 135.055 C 284.384 135.275,284.439 135.308,284.439 135.142 C 284.439 134.998,284.372 134.722,284.289 134.530 C 284.194 134.309,284.138 134.277,284.138 134.442 M221.674 135.755 C 221.674 136.333,221.707 136.548,221.746 136.233 C 221.785 135.919,221.784 135.446,221.744 135.183 C 221.704 134.920,221.673 135.177,221.674 135.755 M271.860 136.113 C 271.860 136.240,273.281 136.915,273.431 136.859 C 273.510 136.830,273.189 136.633,272.717 136.423 C 272.246 136.212,271.860 136.073,271.860 136.113 M251.281 137.147 C 251.694 137.477,253.378 138.122,253.792 138.109 C 253.957 138.104,253.659 137.960,253.129 137.789 C 252.600 137.618,251.891 137.342,251.554 137.177 C 251.077 136.943,251.016 136.936,251.281 137.147 M221.497 138.293 C 221.497 138.823,221.529 139.039,221.570 138.775 C 221.610 138.510,221.610 138.077,221.570 137.812 C 221.529 137.547,221.497 137.764,221.497 138.293 M285.839 138.458 C 286.300 139.255,287.794 140.752,288.522 141.145 C 289.040 141.426,289.056 141.427,288.665 141.154 C 288.106 140.763,286.206 138.866,285.800 138.293 C 285.603 138.014,285.617 138.073,285.839 138.458 M254.664 138.245 C 254.979 138.284,255.451 138.283,255.714 138.243 C 255.977 138.203,255.720 138.171,255.142 138.172 C 254.565 138.173,254.349 138.206,254.664 138.245 M221.675 141.094 C 221.675 141.720,221.707 141.976,221.746 141.663 C 221.785 141.350,221.785 140.838,221.746 140.525 C 221.707 140.212,221.675 140.468,221.675 141.094 M290.766 142.159 C 291.007 142.268,291.937 142.399,292.834 142.451 L 294.465 142.543 294.372 143.263 C 294.302 143.804,294.317 143.874,294.431 143.545 C 294.822 142.414,294.776 142.375,292.910 142.268 C 291.972 142.214,291.007 142.122,290.766 142.064 L 290.328 141.959 290.766 142.159 M221.842 143.195 C 221.842 143.628,221.876 143.805,221.918 143.589 C 221.960 143.372,221.960 143.018,221.918 142.801 C 221.876 142.584,221.842 142.761,221.842 143.195 M222.010 144.770 C 222.010 145.107,222.046 145.245,222.090 145.077 C 222.134 144.908,222.134 144.632,222.090 144.464 C 222.046 144.295,222.010 144.433,222.010 144.770 M293.842 145.220 C 293.777 145.477,293.759 145.721,293.800 145.762 C 293.841 145.803,293.927 145.627,293.992 145.370 C 294.056 145.114,294.075 144.870,294.034 144.829 C 293.993 144.788,293.906 144.964,293.842 145.220 M222.185 145.996 C 222.185 146.333,222.221 146.470,222.265 146.302 C 222.309 146.133,222.309 145.858,222.265 145.689 C 222.221 145.521,222.185 145.659,222.185 145.996 M293.492 146.446 C 293.427 146.702,293.408 146.946,293.450 146.987 C 293.491 147.028,293.577 146.852,293.642 146.596 C 293.706 146.339,293.725 146.096,293.684 146.054 C 293.643 146.013,293.556 146.189,293.492 146.446 M291.820 151.206 C 291.594 151.758,290.989 153.057,290.474 154.092 C 289.959 155.127,289.577 155.974,289.625 155.974 C 289.844 155.974,292.444 150.417,292.295 150.268 C 292.259 150.231,292.045 150.653,291.820 151.206 M288.022 158.293 C 286.311 160.878,284.066 163.435,281.680 165.517 C 279.850 167.113,279.361 167.640,280.654 166.623 C 283.745 164.191,287.767 159.526,289.345 156.543 C 289.793 155.695,289.382 156.238,288.022 158.293 M226.266 164.214 C 226.379 164.398,227.746 165.130,227.746 165.008 C 227.746 164.966,227.390 164.732,226.954 164.489 C 226.519 164.245,226.209 164.122,226.266 164.214 M227.921 165.155 C 227.921 165.203,228.158 165.365,228.446 165.514 C 228.735 165.664,228.972 165.746,228.972 165.698 C 228.972 165.650,228.735 165.489,228.446 165.339 C 228.158 165.190,227.921 165.107,227.921 165.155 M229.497 166.030 C 229.497 166.079,229.733 166.240,230.022 166.389 C 230.311 166.539,230.547 166.622,230.547 166.574 C 230.547 166.525,230.311 166.364,230.022 166.214 C 229.733 166.065,229.497 165.982,229.497 166.030 M277.351 168.723 C 274.358 170.699,274.237 170.785,275.274 170.219 C 276.905 169.328,280.242 167.048,279.704 167.192 C 279.674 167.200,278.615 167.889,277.351 168.723 M220.262 167.921 C 220.165 168.042,219.655 168.928,219.127 169.891 C 218.599 170.853,217.557 172.726,216.812 174.052 C 215.290 176.763,215.291 176.743,216.573 177.463 C 217.612 178.046,229.002 184.382,231.597 185.821 C 235.708 188.100,244.270 192.866,245.814 193.734 C 246.749 194.260,247.585 194.646,247.672 194.592 C 247.805 194.510,250.615 189.461,252.245 186.377 C 252.802 185.323,253.718 185.972,244.376 180.804 C 240.188 178.487,234.044 175.075,230.722 173.223 C 219.789 167.126,220.578 167.526,220.262 167.921 M236.499 169.865 C 236.499 169.910,237.385 170.438,238.468 171.038 C 239.551 171.637,240.497 172.161,240.569 172.201 C 240.641 172.241,240.700 172.237,240.700 172.192 C 240.700 172.147,239.814 171.619,238.731 171.019 C 237.648 170.420,236.702 169.896,236.630 169.856 C 236.558 169.815,236.499 169.820,236.499 169.865 M272.385 171.641 C 271.567 172.065,270.958 172.415,271.032 172.420 C 271.218 172.432,273.961 171.045,273.961 170.939 C 273.961 170.820,274.035 170.787,272.385 171.641 M240.875 172.334 C 240.875 172.382,241.190 172.583,241.575 172.779 C 241.961 172.975,242.276 173.097,242.276 173.049 C 242.276 173.001,241.961 172.800,241.575 172.604 C 241.190 172.407,240.875 172.286,240.875 172.334 M221.357 173.867 C 231.944 178.675,239.616 183.327,246.565 189.153 C 249.416 191.544,249.260 191.257,248.485 192.679 C 247.525 194.439,247.604 194.389,246.672 193.841 C 246.228 193.579,245.589 193.222,245.252 193.046 C 244.915 192.870,244.245 192.493,243.764 192.207 C 243.282 191.921,242.731 191.618,242.538 191.532 C 242.346 191.446,241.243 190.845,240.088 190.196 C 238.932 189.546,237.239 188.602,236.324 188.098 C 233.191 186.372,232.909 186.213,231.925 185.623 C 231.382 185.299,230.904 185.033,230.861 185.033 C 230.818 185.033,229.923 184.552,228.871 183.964 C 227.819 183.376,224.832 181.705,222.232 180.251 C 219.632 178.798,217.132 177.408,216.675 177.163 C 215.813 176.700,215.674 176.413,216.084 175.944 C 216.217 175.792,216.660 175.037,217.069 174.267 C 217.478 173.497,217.886 172.774,217.976 172.661 C 218.161 172.428,218.291 172.475,221.357 173.867 M269.759 172.867 C 269.326 173.099,269.050 173.288,269.147 173.288 C 269.243 173.288,269.676 173.099,270.109 172.867 C 270.543 172.635,270.818 172.445,270.722 172.445 C 270.626 172.445,270.193 172.635,269.759 172.867 M242.451 173.211 C 242.451 173.259,242.845 173.498,243.326 173.742 C 243.807 173.986,244.201 174.146,244.201 174.098 C 244.201 174.050,243.807 173.811,243.326 173.567 C 242.845 173.323,242.451 173.163,242.451 173.211 M267.221 173.923 C 266.783 174.134,266.769 174.158,267.133 174.069 C 267.629 173.948,268.187 173.664,267.921 173.667 C 267.825 173.669,267.510 173.784,267.221 173.923 M264.158 174.967 C 262.954 175.385,262.054 175.734,262.158 175.741 C 262.388 175.758,266.429 174.418,266.568 174.278 C 266.756 174.090,266.337 174.210,264.158 174.967 M245.952 175.135 C 245.952 175.183,246.267 175.383,246.652 175.580 C 247.037 175.776,247.352 175.898,247.352 175.850 C 247.352 175.801,247.037 175.601,246.652 175.405 C 246.267 175.208,245.952 175.087,245.952 175.135 M259.123 176.414 C 257.847 176.756,256.835 177.068,256.875 177.109 C 256.953 177.187,261.731 175.964,261.863 175.832 C 262.021 175.674,261.383 175.809,259.123 176.414 M247.527 176.010 C 247.527 176.059,247.842 176.259,248.228 176.455 C 248.613 176.652,248.928 176.773,248.928 176.725 C 248.928 176.677,248.613 176.477,248.228 176.280 C 247.842 176.084,247.527 175.962,247.527 176.010 M249.103 176.874 C 249.103 177.046,252.032 178.556,252.359 178.553 C 252.542 178.552,252.810 178.473,252.954 178.378 C 253.142 178.255,253.057 178.237,252.658 178.313 C 252.206 178.400,251.814 178.265,250.601 177.604 C 249.777 177.154,249.103 176.826,249.103 176.874 M254.880 177.593 C 254.543 177.723,254.385 177.829,254.530 177.829 C 254.674 177.829,255.068 177.723,255.405 177.593 C 255.742 177.463,255.899 177.357,255.755 177.357 C 255.611 177.357,255.217 177.463,254.880 177.593 M210.065 182.267 C 208.740 184.418,205.989 190.467,206.075 191.044 C 206.105 191.250,206.458 191.593,206.915 191.859 C 208.571 192.824,210.416 193.807,210.416 193.724 C 210.416 193.676,209.470 193.113,208.315 192.473 C 205.717 191.032,205.720 191.454,208.266 186.039 C 209.222 184.006,208.976 184.053,211.991 185.333 C 222.436 189.768,237.514 198.469,242.297 202.822 C 244.348 204.689,244.334 204.370,242.474 207.161 C 241.594 208.481,240.949 209.516,241.040 209.459 C 241.722 209.038,246.062 201.877,245.845 201.532 C 245.759 201.396,243.286 199.945,240.350 198.309 C 237.413 196.673,233.908 194.719,232.560 193.968 C 224.746 189.612,214.470 183.912,210.550 181.760 C 210.479 181.721,210.261 181.949,210.065 182.267 M210.591 193.843 C 210.591 193.901,213.201 195.388,215.011 196.361 C 215.083 196.400,215.142 196.397,215.142 196.354 C 215.142 196.296,212.532 194.809,210.722 193.835 C 210.650 193.797,210.591 193.800,210.591 193.843 M215.667 196.665 C 215.667 196.713,215.904 196.875,216.193 197.024 C 216.481 197.173,216.718 197.256,216.718 197.208 C 216.718 197.160,216.481 196.998,216.193 196.849 C 215.904 196.700,215.667 196.617,215.667 196.665 M216.893 197.365 C 216.893 197.413,217.129 197.575,217.418 197.724 C 217.707 197.874,217.943 197.956,217.943 197.908 C 217.943 197.860,217.707 197.699,217.418 197.549 C 217.129 197.400,216.893 197.317,216.893 197.365 M218.818 198.396 C 218.818 198.440,220.295 199.300,222.101 200.307 C 225.965 202.463,226.171 202.573,226.171 202.478 C 226.171 202.438,224.575 201.518,222.626 200.434 C 220.676 199.350,219.022 198.430,218.950 198.389 C 218.877 198.349,218.818 198.352,218.818 198.396 M226.346 202.619 C 226.346 202.667,226.661 202.867,227.046 203.063 C 227.431 203.260,227.746 203.381,227.746 203.333 C 227.746 203.285,227.431 203.085,227.046 202.888 C 226.661 202.692,226.346 202.571,226.346 202.619 M228.009 203.538 C 228.105 203.636,228.735 204.015,229.409 204.380 C 230.083 204.745,230.556 204.963,230.460 204.865 C 230.363 204.766,229.733 204.387,229.059 204.022 C 228.385 203.657,227.912 203.439,228.009 203.538 M231.072 205.243 C 231.072 205.291,231.309 205.452,231.597 205.602 C 231.886 205.751,232.123 205.834,232.123 205.786 C 232.123 205.738,231.886 205.576,231.597 205.427 C 231.309 205.277,231.072 205.195,231.072 205.243 M234.048 206.924 C 234.500 207.233,235.624 207.801,235.624 207.721 C 235.624 207.629,234.050 206.738,233.895 206.742 C 233.835 206.744,233.904 206.826,234.048 206.924 M235.799 207.855 C 235.799 207.967,239.910 210.241,240.107 210.239 C 240.278 210.236,239.654 209.869,237.330 208.605 C 236.488 208.147,235.799 207.809,235.799 207.855 M137.026 222.268 C 137.244 222.310,137.559 222.309,137.726 222.265 C 137.894 222.221,137.716 222.187,137.330 222.189 C 136.945 222.191,136.808 222.226,137.026 222.268 M119.737 229.584 C 119.312 230.018,119.004 230.372,119.052 230.372 C 119.100 230.372,119.487 230.018,119.912 229.584 C 120.338 229.151,120.646 228.796,120.598 228.796 C 120.550 228.796,120.163 229.151,119.737 229.584 M118.413 231.116 L 117.899 231.685 118.468 231.171 C 118.999 230.691,119.118 230.547,118.982 230.547 C 118.952 230.547,118.696 230.803,118.413 231.116 M112.622 246.565 C 112.622 247.431,112.651 247.808,112.688 247.401 C 112.725 246.995,112.725 246.286,112.689 245.826 C 112.653 245.366,112.623 245.698,112.622 246.565 M239.825 262.462 C 239.825 262.505,240.114 262.761,240.468 263.031 C 240.821 263.300,241.055 263.431,240.987 263.322 C 240.849 263.098,239.825 262.340,239.825 262.462 M225.902 264.026 L 225.033 264.945 225.952 264.077 C 226.806 263.269,226.951 263.107,226.821 263.107 C 226.793 263.107,226.379 263.521,225.902 264.026 M136.845 271.811 C 137.156 271.850,137.707 271.851,138.070 271.813 C 138.434 271.775,138.179 271.743,137.505 271.742 C 136.832 271.742,136.534 271.773,136.845 271.811 M244.753 273.107 C 244.738 273.360,244.687 273.833,244.640 274.158 L 244.553 274.748 244.737 274.161 C 244.838 273.838,244.889 273.365,244.850 273.110 L 244.779 272.648 244.753 273.107 M243.536 277.028 C 243.327 277.459,243.192 277.812,243.237 277.812 C 243.356 277.812,244.063 276.390,243.984 276.311 C 243.947 276.274,243.746 276.597,243.536 277.028 M242.013 279.135 C 240.932 280.302,240.739 280.587,241.572 279.787 C 242.094 279.285,242.486 278.848,242.442 278.816 C 242.399 278.783,242.206 278.927,242.013 279.135 M225.821 279.650 C 226.147 279.987,226.454 280.263,226.502 280.263 C 226.550 280.263,226.322 279.987,225.996 279.650 C 225.669 279.313,225.362 279.037,225.314 279.037 C 225.266 279.037,225.494 279.313,225.821 279.650 M238.775 281.663 C 238.245 281.943,237.874 282.175,237.949 282.180 C 238.135 282.191,239.825 281.329,239.825 281.222 C 239.825 281.105,239.849 281.095,238.775 281.663 M235.142 282.834 C 235.311 282.878,235.586 282.878,235.755 282.834 C 235.923 282.790,235.786 282.754,235.449 282.754 C 235.112 282.754,234.974 282.790,235.142 282.834 M233.569 283.014 C 233.835 283.054,234.229 283.053,234.444 283.012 C 234.660 282.970,234.442 282.937,233.961 282.938 C 233.479 282.940,233.303 282.974,233.569 283.014 " stroke="none" fill="#835c9d" fill-rule="evenodd"></path><path id="path8" d="M286.912 84.214 C 284.413 86.157,280.056 87.856,273.698 89.365 C 266.220 91.140,263.101 92.099,258.293 94.103 C 252.779 96.400,247.713 99.031,248.324 99.280 C 248.512 99.356,249.297 99.657,250.070 99.948 C 252.017 100.681,254.000 102.021,255.758 103.793 C 259.289 107.353,259.611 108.943,257.854 114.157 C 256.352 118.616,256.429 120.503,258.194 122.418 C 260.253 124.652,262.877 124.406,266.083 121.681 C 270.820 117.653,272.493 117.572,273.599 121.313 C 274.794 125.354,276.367 125.682,280.065 122.660 C 282.410 120.744,283.547 120.501,285.446 121.511 C 288.648 123.214,288.706 123.239,289.518 123.235 C 292.403 123.221,294.068 120.151,294.086 114.811 C 294.099 110.802,293.070 107.578,289.233 99.606 C 286.175 93.253,285.670 89.802,287.115 85.123 C 287.517 83.821,287.502 83.754,286.912 84.214 M227.571 212.214 C 227.571 220.335,224.563 227.749,218.227 235.242 C 209.236 245.877,201.204 257.904,195.571 269.167 C 193.431 273.448,191.995 276.614,187.605 286.740 C 183.802 295.509,182.277 298.779,179.773 303.531 C 170.381 321.358,160.883 330.057,146.166 334.311 C 143.500 335.081,143.508 335.071,144.633 336.263 C 148.232 340.077,155.952 340.214,163.031 336.590 C 171.396 332.308,176.777 323.869,184.772 302.495 C 188.873 291.532,192.388 284.192,198.814 273.173 C 201.074 269.296,204.766 263.247,207.764 258.509 C 213.352 249.675,217.346 243.918,221.658 238.482 C 228.669 229.642,231.535 225.911,233.396 223.195 C 235.094 220.716,237.549 216.768,237.549 216.514 C 237.549 216.397,235.869 215.421,232.910 213.821 C 230.884 212.726,228.023 211.095,227.790 210.903 C 227.618 210.762,227.571 211.042,227.571 212.214 M138.118 222.431 C 138.118 222.453,138.886 222.874,139.825 223.366 C 158.246 233.023,160.285 256.577,143.891 270.329 C 142.927 271.137,143.208 271.112,145.821 270.158 C 168.962 261.709,166.477 228.208,142.319 222.947 C 141.162 222.695,138.118 222.321,138.118 222.431 " stroke="none" fill="#ec6464" fill-rule="evenodd"></path></g></svg>