<svg xmlns="http://www.w3.org/2000/svg" enable-background="new 0 0 1600 1200" viewBox="0 0 1600 1200">
<path stroke="#000" stroke-miterlimit="10" d="M1306.6 240.5c-.3-.4 1.5-1.8 2.4-5 .4-1.5.5-3.5-.1-5.4-.3-.9-.9-1.7-1.6-2-.6-.3-1.2-.2-2 .4-.5.4-1 1-1.4 1.7-.4.7-.7 1.4-1 2.2-.6 1.5-.8 2.9-.7 4.1.1.6.2 1.1.5 1.5.3.5.6.8.9 1.1.7.6 1.5.8 2.1.7l-.3 1.3c-.9-1.3-1.3-2.1-1.1-2.3.2-.2 1 .3 2.2 1.2l.9.7-1.2.6c-1 .4-2.5.4-3.8-.3-.7-.4-1.3-.9-1.8-1.6-.5-.7-.9-1.6-1.1-2.5-.4-1.8-.1-3.8.5-5.6.3-.9.6-1.8 1.2-2.8.5-.9 1.2-1.8 2.1-2.6.7-.6 1.6-1 2.6-1.2 1-.2 2 .1 2.9.5 1.7 1 2.5 2.5 2.9 3.8.8 2.8.3 5.3-.6 7.1-.9 1.8-2 3-2.9 3.6-.9.9-1.5 1-1.6.8zM606.2 308c.4.8-4 3.6-8.5 7.9-4.6 4.2-7.6 8.4-8.4 8-.4-.2-.1-1.6.9-3.6s2.8-4.5 5.3-6.8 5.1-3.9 7.1-4.8c2.1-.9 3.4-1.1 3.6-.7zM651.4 271.7c.4.8-2.3 2.9-5.6 5.2-3.3 2.3-6.2 4.2-6.8 3.5-.6-.6 1.4-3.7 5-6.2 3.5-2.5 7.1-3.3 7.4-2.5zM710.8 238.1c.3.9-5 3.7-11.6 7s-12.1 5.8-12.5 5c-.5-.8 4.3-4.6 11.1-7.9 6.7-3.4 12.7-4.9 13-4.1zM773.6 222.7c0 .9-6.3 1.9-14 3.4s-14 2.9-14.3 2c-.3-.8 5.7-3.7 13.7-5.2 7.9-1.6 14.6-1.1 14.6-.2zM840.1 218.4c-.1.9-7.4.6-16.4.6-8.9 0-16.2.4-16.4-.5-.1-.9 7.1-2.7 16.4-2.8 9.2 0 16.5 1.9 16.4 2.7zM917.1 231.7c-.2.9-8.3-.5-18.3-2.2-9.9-1.7-18.1-3.1-18-4 .1-.9 8.4-.9 18.5.8 10.2 1.7 18 4.6 17.8 5.4zM981 248.3c-.3.9-8-1.4-17.5-3.7-9.5-2.4-17.3-4-17.2-4.9.1-.9 8.2-.7 17.9 1.7 9.8 2.4 17.1 6 16.8 6.9zM1044.7 283c-.7.7-7.2-4.8-16.2-9.9-9-5.2-17-8.1-16.7-9 .1-.4 2.3-.2 5.7.7 3.4 1 8 2.8 12.6 5.5 4.7 2.7 8.5 5.7 11.1 8.2 2.6 2.4 3.8 4.2 3.5 4.5zM1082.2 317.4c-.7.6-5.3-4-11.7-8.6-6.3-4.7-12.1-7.6-11.8-8.5.2-.4 1.9-.2 4.4.8 2.5.9 5.9 2.6 9.3 5.1 3.4 2.5 6 5.1 7.7 7.3 1.7 2 2.4 3.6 2.1 3.9zM1106.9 358.3c-.8.4-4.2-4.3-8.3-10-4.2-5.7-7.6-10.4-7-11 .6-.6 5.3 3.2 9.6 9.1 4.3 5.9 6.5 11.5 5.7 11.9zM893.1 307c.9.3-.9 6.6-2.7 14.4-1.9 7.7-3.3 14.1-4.2 14-.9-.1-.9-6.8 1.1-14.8 1.8-8 5-13.9 5.8-13.6zM933.1 228.2c.7.6-2.1 4.5-5.2 9.2-3.2 4.7-5.6 8.7-6.5 8.4-.8-.3.4-5.2 3.8-10.2 3.3-5 7.3-8 7.9-7.4zM988.9 183.1c.4.8-4.4 3.6-10.2 6.9-5.8 3.3-10.6 6-11.2 5.2-.5-.7 3.5-4.7 9.6-8.1 6-3.3 11.5-4.8 11.8-4zM1075.7 155.8c.1.9-8.4 2.8-18.9 5.2-10.5 2.3-19 4.3-19.2 3.4-.3-.8 7.9-4.2 18.5-6.6 10.6-2.5 19.5-2.9 19.6-2zM1150.9 164.6c-.3.9-7.6-.8-16.8-1.6-9.1-.9-16.7-.8-16.8-1.7 0-.4 1.8-1.1 4.9-1.5 3.1-.4 7.4-.6 12.2-.1 4.7.5 9 1.5 11.9 2.5 3 1 4.7 2 4.6 2.4zM1208.5 186.5c-.6.7-6-2.7-13-6.2s-13-5.9-12.7-6.8c.2-.8 6.9.2 14.2 3.9 7.3 3.7 12.1 8.5 11.5 9.1zM1259.2 230.8c-.9.4-3.9-5.5-9.8-10.7-5.8-5.3-12-7.7-11.7-8.6.1-.4 1.9-.4 4.5.5 1.3.4 2.8 1.1 4.5 2 1.6.9 3.3 2.1 4.9 3.5 1.6 1.4 2.9 3 4.1 4.5 1.1 1.5 1.9 2.9 2.5 4.2 1.2 2.6 1.4 4.4 1 4.6zM1300.4 285.9c-.8.4-4.6-5.6-10.1-12.4-5.4-6.8-10.5-11.8-9.9-12.6.3-.3 1.9.5 4.3 2.3 2.3 1.8 5.3 4.7 8.2 8.2 2.8 3.5 5 7.1 6.2 9.8 1.3 2.6 1.7 4.5 1.3 4.7zM825.1 168.9c.7.6-2 4.9-5.2 10.1-3.2 5.2-5.8 9.5-6.6 9.2-.8-.3.5-5.4 3.9-10.9 3.3-5.4 7.2-8.9 7.9-8.4zM876.3 118.3c.5.8-6.1 5.5-13.4 12.3-7.3 6.7-12.4 13-13.2 12.5-.4-.3.5-2.2 2.4-5s4.9-6.4 8.6-9.9c3.8-3.5 7.6-6.2 10.5-7.9 2.9-1.7 4.9-2.4 5.1-2zM925.1 92.7c.3.9-5.6 4-12.9 7.8-7.3 3.8-13.3 6.8-13.8 6-.5-.7 4.9-5.1 12.3-8.9 7.5-3.8 14.1-5.7 14.4-4.9zM983.5 80.2c0 .9-7.4 1.4-16.3 2.5s-16.1 2.4-16.4 1.5c-.3-.8 6.8-3.6 16-4.8 9.3-1.1 16.8-.1 16.7.8zM1035.8 94.5c-.6.7-6-2.8-13.2-5.9-7.2-3.2-13.4-4.8-13.3-5.7.1-.4 1.8-.6 4.5-.2 2.7.4 6.3 1.3 10.1 2.9 3.8 1.7 7 3.7 9 5.5 2.1 1.7 3.1 3 2.9 3.4zM1099.3 123c-.8.6-6.2-6.3-14.7-12.9-8.3-6.7-16.3-10.4-16-11.3.2-.4 2.4 0 5.8 1.4s7.8 3.8 12.2 7.3c4.4 3.5 7.8 7.2 9.9 10.2 2.2 3 3.1 5 2.8 5.3zM1161.1 233.6c-.5.1-1.2-2.5-2.1-6.6-.9-4.1-2-9.8-3.8-15.8-.9-3-1.9-5.8-2.9-8.3-.6-1.2-1-2.4-1.6-3.5-.3-.5-.5-1.1-.8-1.6-.3-.5-.5-1-.8-1.4-2-3.6-3.6-5.7-3.2-6 .3-.3 2.5 1.3 5.1 4.7.3.4.7.9 1 1.4.3.5.6 1 1 1.6.7 1.1 1.3 2.3 2 3.6 1.2 2.6 2.4 5.5 3.3 8.7 1.8 6.3 2.6 12.1 2.9 16.4.4 4.1.3 6.8-.1 6.8zM1171.3 289.3c-.9-.1-1-7.2-2.1-15.9-1-8.7-2.6-15.6-1.7-15.9.8-.3 3.9 6.5 4.9 15.5 1.1 9.1-.2 16.4-1.1 16.3zM1161.3 356.5c-.9-.4.7-5.3 1.2-11.5s-.3-11.3.6-11.5c.4-.1 1.2 1.1 1.8 3.2.6 2.1 1.1 5.2.8 8.6-.3 3.4-1.2 6.4-2.1 8.4-1 1.9-1.9 2.9-2.3 2.8z"/>
<path stroke="#000" stroke-miterlimit="10" d="M522.9 315.1c.2-.2.8.5 2.2.7.7.1 1.5.1 2.5-.2.9-.3 1.9-.8 2.8-1.6.4-.4.8-.9 1.1-1.5.3-.6.5-1.2.7-1.9.3-1.4.3-3 .1-4.7-.1-.9-.3-1.7-.5-2.6-.2-.9-.5-1.7-.8-2.6-.7-1.6-1.8-3.3-3.1-4.1-1.3-.8-2.8-.6-3.9.3-1.1.9-1.9 2.6-2.4 4.2-.9 3.3-.9 6.5-.4 9.1.5 2.6 1.5 4.4 2.6 5.3 1.1.9 1.9 1.2 1.9 1.5 0 .2-1 .4-2.6-.4-1.6-.7-3.3-2.9-4.2-5.8-.8-2.9-1.2-6.5-.2-10.4.5-1.9 1.3-4.1 3.2-5.8 1-.9 2.3-1.5 3.6-1.6 1.4-.2 2.9.2 4 .9 1.2.7 2.1 1.7 2.8 2.6.7 1 1.2 2 1.6 3 .4 1 .7 2.1.9 3.1.2 1 .3 2 .4 3 .2 2 0 3.9-.5 5.7-.3.9-.7 1.7-1.1 2.5-.5.7-1.1 1.4-1.7 1.9-2.6 2-5.5 2-7.1 1.3-1.7-.8-2.1-1.8-1.9-1.9zM669.1 384.1c.2-.1.8.6 1.9 1.9.5.6 1 1.4 1.7 2.2.1.1.2.2.3.4l.1.2s0 .1.1.1l.1-.1c.3-.2.6-.4.8-.7l.2-.2c.1-.1.2-.3.3-.4.2-.3.3-.6.4-.9.3-.6.5-1.4.6-2.1.1-.8.2-1.6.2-2.5v-2.8c-.1-1.9-.2-3.9-.5-5.9-.3-2-.6-4.2-1.4-5.8-.2-.4-.4-.8-.7-1.1-.2-.3-.5-.5-.9-.7-.7-.4-1.4-.5-1.9-.4-.5.1-1 .5-1.4 1.2-.4.7-.8 1.5-1.1 2.4-1.2 3.4-1.4 6.8-1.1 9.6.3 2.8 1 5 1.6 6.5.6 1.5 1 2.3.8 2.5-.2.1-.9-.5-1.9-1.9-1-1.4-2.1-3.7-2.7-6.7-.6-3-.7-6.9.6-10.9.4-1 .7-2 1.3-3.1.6-1 1.7-2.2 3.3-2.6 1.6-.4 3.1 0 4.3.7.6.4 1.2.8 1.7 1.4.5.5.8 1.1 1.1 1.7.6 1.2.9 2.4 1.1 3.6.2 1.1.4 2.2.5 3.3.2 2.2.3 4.3.3 6.3 0 1-.1 2-.1 2.9-.1 1-.2 1.9-.5 2.9-.2.9-.5 1.8-.9 2.6-.2.4-.4.8-.7 1.2-.1.2-.3.4-.4.5l-.6.6c-.8.8-1.8 1.1-2.6 1.4l-.3.1c-.1 0-.1-.2-.2-.2-.1-.2-.2-.4-.4-.5-.2-.3-.5-.7-.7-1.1-.5-.8-.6-1.2-.9-1.7-.2-.5-.4-.9-.6-1.2-.7-1.7-1-2.6-.8-2.7zM795.1 126.5c.1 0 .2.3.4.6s.7.7 1.5.9c.7.2 1.8.1 2.5-.6.8-.7 1.3-1.9 1.6-3.4.5-3.1.9-7.1.4-11.3-.2-2.1-.7-4.2-1.6-6.2-.4-1-1-2-1.6-2.9-.7-.9-1.4-1.8-2.2-2.2-.8-.5-1.6-.6-2.3-.4-.7.2-1.5.8-2.1 1.6-.6.8-1.1 1.7-1.4 2.7-.3 1-.6 1.9-.6 2.9-.4 4.2.2 8 1.1 11.1 1.9 6.2 4.7 9.3 4.3 9.7-.2.1-1-.5-2.3-1.9-1.3-1.4-2.9-3.8-4.2-7-1.3-3.2-2.2-7.4-1.9-12.1.1-2.4.9-5 2.5-7.3.8-1.1 2-2.2 3.7-2.7 1.7-.5 3.6-.1 4.9.8 1.4.9 2.3 2 3.1 3.1.8 1.1 1.5 2.3 1.9 3.5 1 2.4 1.5 4.9 1.7 7.2.2 2.3.1 4.5-.2 6.5-.2 2-.6 3.8-1 5.6-.5 1.7-1.3 3.4-2.7 4.3-.7.5-1.5.7-2.2.7-.7 0-1.3-.2-1.8-.4-1-.5-1.6-1.3-1.6-1.9-.2-.6 0-.9.1-.9z"/>
<circle cx="1304.5" cy="238.4" r="1.6" stroke="#000" stroke-miterlimit="10" transform="rotate(56.779 1304.454 238.415)"/>
<path fill="#038BC2" d="M667.3 344.6c-6.4 7.6-6.3 18.1-6.1 23.8.6 15.8 3.1 33.2 12.2 62.9 3.4 11.1 4.8 14.3 6.1 14.2 3.1-.3 3.6-20.2 4.1-39 .5-24 5.4-38.4-.5-54.3-1.3-3.5-4.3-11.4-9.1-11.7-3-.1-5.5 2.7-6.7 4.1zM533.5 370.5c-10.6-18.7-14.8-35.3-16.7-46.7-2.3-13.9-6.6-39.4 5.6-47.7 4-2.7 9.9-3.7 14.2-1.5 2.1 1.1 6.6 4.3 8.1 21.8 1.1 12.9-.1 25.6-5.6 50.7-2.2 9.8-4.2 17.8-5.6 23.4zM800.8 172.1c-12.2-23.4-16.7-43.4-18.6-56.7-2-13.8-4.2-30.2 4.7-36.5 3.7-2.6 9.1-3.3 13.2-1.6 7.9 3.4 9.2 15.1 10.9 29.5 2.8 24.9-2.2 43.2-3.9 48.9-2.2 7.1-4.6 12.6-6.3 16.4zM1310.2 274.6c-7.5-11.5-17.4-30.6-14-49.7.7-4 2-11.4 7-13.2 4.9-1.8 11.6 2.6 14.8 7.8 3.2 5.2 2.3 10.7-.8 24.9-1.9 8.8-4.2 19-7 30.2z"/>
<ellipse cx="671.4" cy="377.3" fill="#fff" rx="7.2" ry="11.7"/>
<ellipse cx="526.6" cy="305.7" fill="#fff" rx="7.2" ry="11.2"/>
<ellipse cx="795.5" cy="114.1" fill="#fff" rx="7.6" ry="14.8"/>
<ellipse cx="1305.8" cy="233.3" fill="#fff" rx="5" ry="5.1"/>
<path stroke="#000" stroke-miterlimit="10" d="M678.8 450.2c-.2 0 0-3.3.5-9.3s1.3-14.6 2.5-25.3c.6-5.3 1.2-11.2 1.8-17.4.6-6.3 1.3-12.9 1.4-19.9.2-7-.2-14.4-1.7-21.8-.7-3.7-1.7-7.5-3.7-10.4-1-1.5-2.2-2.7-3.8-3.4-1.5-.8-3.3-1.1-4.8-.8-1.5.3-2.8 1.3-3.8 2.8-1 1.4-1.8 3.3-2.5 5.1-1.5 3.6-2.7 7.2-3.5 10.9-.9 3.7-1.4 7.4-1.7 11-.3 3.6-.4 7.2-.2 10.7.6 14 4.1 26.3 7.7 36.2 3.7 10 7.4 17.8 9.9 23.2 2.6 5.4 4 8.4 3.8 8.5-.2.1-2-2.7-4.9-8-2.9-5.3-7-13-11-23-2-5-3.9-10.6-5.5-16.8-1.6-6.2-2.7-12.9-3.1-20.1-.2-3.6-.2-7.3.1-11.1.3-3.8.8-7.6 1.7-11.4.9-3.8 2.1-7.7 3.6-11.5.8-1.9 1.6-3.8 2.9-5.7.6-.9 1.4-1.8 2.4-2.6 1-.7 2.2-1.3 3.4-1.6 5-1 9.6 1.9 12 5.6 1.2 1.8 2.1 3.8 2.7 5.8.6 2 1 3.9 1.4 5.8 1.5 7.7 1.8 15.3 1.5 22.5-.3 7.2-1 13.9-1.7 20.2-.8 6.3-1.6 12.1-2.2 17.4-1.4 10.6-2.6 19.2-3.5 25.1-.9 6.1-1.5 9.4-1.7 9.3z"/>
<path stroke="#000" stroke-miterlimit="10" d="M533.3 372.3c-.2-.1.4-3.1 1.7-8.7 1.2-5.5 3.2-13.5 5.1-23.4 1-4.9 1.9-10.4 2.6-16.3.7-5.9 1.2-12.2 1.3-18.8 0-3.3-.1-6.7-.3-10.1-.2-1.7-.3-3.5-.5-5.2-.2-1.7-.6-3.4-1.1-5.1-.9-3.3-2.4-6.6-4.8-8.9-2.4-2.3-5.8-3.2-9.1-2.3-3.3.9-6.1 3.2-8.3 6-1.1 1.4-2.1 2.9-2.8 4.4-.4.8-.7 1.6-1.1 2.4-.4.8-.6 1.7-.9 2.5-1.1 3.3-1.9 6.7-2.2 10.1l-.1 1.3-.1 1.3c0 .8-.1 1.7-.1 2.5 0 1.7 0 3.3.1 5 .4 6.5 1.6 12.7 3.1 18.4 1.4 5.7 3.1 11 4.7 15.8 3.1 9.6 6.6 17 9.5 21.8 2.9 4.8 5 7.2 4.7 7.4-.1.1-2.5-2-5.8-6.7s-7.1-12.1-10.6-21.7c-1.7-4.8-3.6-10-5.2-15.8-1.6-5.8-3-12.1-3.4-18.9-.2-1.7-.2-3.4-.2-5.2 0-.9.1-1.8.1-2.7l.1-1.3.1-1.3c.3-3.6 1.1-7.2 2.3-10.8.3-.9.6-1.8 1-2.7.4-.9.8-1.7 1.2-2.6.9-1.8 1.9-3.4 3.2-5 1.2-1.6 2.7-3 4.3-4.3 1.7-1.2 3.6-2.3 5.7-2.8 2.1-.6 4.4-.6 6.5 0 2.1.5 4.1 1.7 5.6 3.1 3.1 3 4.7 6.7 5.7 10.4.5 1.8.9 3.7 1.1 5.5.3 1.9.3 3.6.5 5.4.2 3.5.3 7 .2 10.4-.1 6.8-.8 13.2-1.6 19.1-.9 5.9-1.9 11.4-3.1 16.4-2.2 9.9-4.5 17.8-6.2 23.2-1.7 5.3-2.7 8.2-2.9 8.2zM802.3 176.5c-.2-.1.5-3.1 1.7-8.5s2.9-13.2 4.3-23c.7-4.9 1.4-10.3 1.9-16 .5-5.8.8-11.9.5-18.4-.4-6.4-1.5-13.1-4.1-19.5-1.3-3.2-3.1-6.3-5.2-9-2.1-2.6-5-4.8-8.1-4.8-3.1 0-5.9 2.2-7.8 5-1 1.4-1.7 2.9-2.4 4.5-.3.8-.6 1.6-.8 2.5-.3.8-.5 1.7-.7 2.5-1.8 6.7-2 13.5-1.5 19.9.3 3.2.7 6.3 1.2 9.4.5 3 1.1 6 1.8 8.8 1.3 5.6 2.8 10.9 4.3 15.5 2.9 9.4 6.3 16.6 9.1 21.4 2.8 4.8 4.8 7.1 4.5 7.3-.1.1-.7-.5-1.7-1.5-.5-.5-1.1-1.3-1.8-2.1-.6-.9-1.4-1.8-2.2-3-3.2-4.6-7-11.9-10.3-21.3-1.6-4.7-3.2-9.9-4.7-15.6-.7-2.8-1.4-5.8-2-8.9-.6-3.1-1-6.3-1.3-9.6-.5-6.6-.4-13.8 1.4-21 .2-.9.4-1.8.8-2.7.3-.9.5-1.8.9-2.7.7-1.8 1.6-3.5 2.7-5.2 1.1-1.6 2.5-3.2 4.2-4.4 1.7-1.2 3.9-2 6.2-2.1 2.3 0 4.4.8 6.2 1.9 1.8 1.1 3.2 2.6 4.5 4.1 2.4 3.1 4.2 6.4 5.7 9.8 2.8 6.9 3.9 13.9 4.2 20.6.3 6.7-.2 13-.8 18.8-.6 5.8-1.4 11.2-2.3 16.1-1.7 9.8-3.8 17.6-5.4 23-1.7 5.4-2.8 8.3-3 8.2zM1309.4 276.1c-.2-.1.4-2 1.5-5.6 1.1-3.5 2.7-8.6 4.4-14.9.8-3.2 1.8-6.6 2.5-10.4.7-3.7 1.2-7.8 1.1-12-.1-4.2-1-8.6-3.1-12.4-1.1-1.9-2.5-3.7-4.2-4.9-1.7-1.3-3.8-2.1-6-2.2-1.1-.1-2.2.1-3.1.3-1 .3-1.9.8-2.7 1.4-.8.7-1.4 1.4-2 2.3-.5.9-.9 1.9-1.2 2.9-.6 2.1-.8 4.3-.8 6.5s.2 4.3.4 6.5c.8 8.6 2.2 16.3 3.7 22.6.7 3.2 1.4 6.1 2.2 8.5.8 2.4 1.8 4.4 2.8 5.8 1 1.5 2 2.4 2.7 3 .7.6 1.2.9 1.1 1 0 .1-.6 0-1.5-.5s-2.1-1.3-3.4-2.8c-1.3-1.4-2.5-3.5-3.5-6s-1.9-5.4-2.8-8.6c-1.8-6.4-3.4-14.2-4.4-22.9-.5-4.3-1-9.2.3-14.2.4-1.2.8-2.5 1.5-3.7.7-1.2 1.6-2.3 2.7-3.2 1.1-.9 2.4-1.6 3.8-2 1.4-.4 2.8-.6 4.3-.5 2.9.2 5.6 1.2 7.8 2.9 2.2 1.6 3.8 3.8 5.1 6 2.4 4.5 3.2 9.4 3.3 13.9.1 4.5-.6 8.7-1.5 12.6-.9 3.8-1.9 7.3-2.9 10.5-2 6.3-4 11.3-5.4 14.7-1.5 3.6-2.5 5.4-2.7 5.4zM568 350.3c.7.6-1.4 4.4-3.9 9s-4.7 8.4-5.5 8c-.8-.3 0-4.8 2.7-9.6 2.6-4.9 6-7.9 6.7-7.4z"/>



</svg>