<svg version="1.1" id="Layer_1" xmlns="http://www.w3.org/2000/svg" xmlns:xlink="http://www.w3.org/1999/xlink" x="0px" y="0px"
	 width="100%" viewBox="0 0 600 180" enable-background="new 0 0 600 180" xml:space="preserve">
<path fill="#000000" opacity="1.000000" stroke="none" 
	d="
M434.000000,181.000000 
	C289.333344,181.000000 145.166672,181.000000 1.000000,181.000000 
	C1.000000,121.000000 1.000000,61.000000 1.000000,1.000000 
	C201.000000,1.000000 401.000000,1.000000 601.000000,1.000000 
	C601.000000,61.000000 601.000000,121.000000 601.000000,181.000000 
	C545.500000,181.000000 490.000000,181.000000 434.000000,181.000000 
M446.417267,46.924839 
	C441.450104,48.343872 436.445862,49.649181 431.538391,51.251118 
	C430.062683,51.732826 428.344849,52.746029 427.613098,54.018883 
	C423.972260,60.352180 420.623383,66.853363 417.301514,73.053146 
	C415.748962,65.476082 410.029053,61.498386 402.393829,62.987598 
	C399.903656,63.473289 398.364166,63.015820 396.527344,60.580959 
	C393.599243,56.699509 389.935364,52.934814 385.772888,50.511597 
	C376.301941,44.997993 366.397430,48.397083 360.974579,58.421543 
	C358.418182,63.147194 356.278748,68.098419 353.841522,73.174110 
	C352.602417,71.132523 351.469696,69.266167 350.334442,67.395653 
	C356.350525,63.447727 357.283783,60.316124 354.015656,55.008633 
	C351.497894,50.919746 347.805206,51.175232 340.708588,55.929306 
	C324.462738,41.629524 303.629211,42.804276 292.713165,58.336678 
	C286.610901,51.485588 279.416504,46.547565 269.896210,46.020233 
	C252.938034,45.080902 237.654373,58.999287 232.063614,73.642700 
	C230.638672,77.374977 228.988983,79.120972 224.837021,77.299706 
	C225.728241,74.113190 226.204117,71.008522 227.446228,68.248711 
	C230.478577,61.511227 229.987381,54.744953 227.814453,48.074097 
	C227.271393,46.406876 224.915924,44.266186 223.319321,44.202545 
	C218.235764,43.999912 212.969467,44.038288 208.052856,45.182659 
	C202.873367,46.388214 197.988464,48.910267 193.029953,50.988632 
	C191.125778,51.786781 188.563751,52.489151 187.694275,54.024109 
	C184.148865,60.283104 181.309631,66.939919 177.824860,73.236916 
	C176.908798,74.892250 174.782181,76.388855 172.915710,76.921028 
	C163.429214,79.625847 159.167969,90.595856 165.671036,97.001549 
	C169.325272,100.601051 169.689758,104.106667 168.261612,108.557800 
	C167.783707,110.047310 167.956741,111.853134 168.216400,113.451988 
	C169.044876,118.553452 170.156281,123.609512 170.958420,128.714539 
	C171.530060,132.352493 177.424728,138.212997 180.360947,137.909454 
	C190.093826,136.903259 199.828018,135.900757 209.573608,135.029831 
	C217.290436,134.340225 225.024719,133.846100 232.872589,133.256058 
	C234.786819,134.310333 238.000427,137.362122 239.504776,136.674484 
	C244.521011,134.381577 248.025574,137.432129 252.124893,138.586334 
	C254.609756,139.285965 257.213837,139.915848 259.770752,139.941528 
	C268.437622,140.028656 275.861420,136.555222 282.358856,131.086670 
	C285.467865,128.469971 287.885651,125.364609 292.935669,126.795464 
	C295.165070,127.427132 298.044189,125.765739 301.441681,124.950119 
	C307.192322,130.483582 314.311340,136.562378 323.736786,137.854172 
	C333.084717,139.135330 342.327484,138.179184 349.920227,130.767166 
	C350.450836,132.221832 351.011108,132.984497 350.937958,133.680573 
	C350.387817,138.914490 353.049347,140.505936 357.781647,140.030991 
	C359.266113,139.882019 360.784180,140.095871 362.276520,139.993393 
	C373.088104,139.250977 378.439423,135.736145 378.341217,125.526314 
	C383.103241,122.542297 385.311646,124.521629 387.138763,129.258423 
	C390.403076,137.721039 397.158722,141.582275 406.065643,140.891708 
	C410.341278,140.560211 414.473053,138.583847 418.755341,138.084534 
	C429.463287,136.835983 440.219238,135.997849 450.957367,135.010559 
	C458.187988,134.345749 465.421051,133.707397 473.308685,132.998276 
	C475.245422,134.985550 477.874786,138.744904 482.164001,135.878357 
	C484.579712,134.263916 487.694519,131.154190 487.597748,128.839127 
	C487.381653,123.668488 483.217438,120.994926 479.093414,120.678131 
	C477.626801,114.329704 475.840363,108.725563 475.164032,102.990501 
	C474.630280,98.465080 472.163208,96.343750 468.485016,95.054123 
	C466.110596,94.221626 463.542664,93.940956 460.762085,93.349281 
	C462.209198,87.555634 463.714874,81.945015 465.000366,76.284401 
	C466.984802,67.546074 472.244995,59.329010 468.186737,49.636398 
	C466.815887,46.362301 465.761475,43.706020 462.023590,44.072826 
	C457.021912,44.563644 452.076141,45.623817 446.417267,46.924839 
M158.449173,96.000847 
	C157.299866,97.166748 155.614288,98.173958 155.204544,99.558685 
	C154.962906,100.375298 156.650513,102.617363 157.637634,102.728081 
	C158.890335,102.868599 161.488419,101.395248 161.436432,100.797913 
	C161.293076,99.150146 160.071899,97.596146 158.449173,96.000847 
z"/>
<path fill="#F8DB0F" opacity="1.000000" stroke="none" 
	d="
M446.761810,46.682175 
	C452.076141,45.623817 457.021912,44.563644 462.023590,44.072826 
	C465.761475,43.706020 466.815887,46.362301 468.186737,49.636398 
	C472.244995,59.329010 466.984802,67.546074 465.000366,76.284401 
	C463.714874,81.945015 462.209198,87.555634 460.762085,93.349281 
	C463.542664,93.940956 466.110596,94.221626 468.485016,95.054123 
	C472.163208,96.343750 474.630280,98.465080 475.164032,102.990501 
	C475.840363,108.725563 477.626801,114.329704 479.093414,120.678131 
	C483.217438,120.994926 487.381653,123.668488 487.597748,128.839127 
	C487.694519,131.154190 484.579712,134.263916 482.164001,135.878357 
	C477.874786,138.744904 475.245422,134.985550 473.308685,132.998276 
	C465.421051,133.707397 458.187988,134.345749 450.957367,135.010559 
	C440.219238,135.997849 429.463287,136.835983 418.755341,138.084534 
	C414.473053,138.583847 410.341278,140.560211 406.065643,140.891708 
	C397.158722,141.582275 390.403076,137.721039 387.138763,129.258423 
	C385.311646,124.521629 383.103241,122.542297 378.341217,125.526314 
	C378.439423,135.736145 373.088104,139.250977 362.276520,139.993393 
	C360.784180,140.095871 359.266113,139.882019 357.781647,140.030991 
	C353.049347,140.505936 350.387817,138.914490 350.937958,133.680573 
	C351.011108,132.984497 350.450836,132.221832 349.920227,130.767166 
	C342.327484,138.179184 333.084717,139.135330 323.736786,137.854172 
	C314.311340,136.562378 307.192322,130.483582 301.441681,124.950119 
	C298.044189,125.765739 295.165070,127.427132 292.935669,126.795464 
	C287.885651,125.364609 285.467865,128.469971 282.358856,131.086670 
	C275.861420,136.555222 268.437622,140.028656 259.770752,139.941528 
	C257.213837,139.915848 254.609756,139.285965 252.124893,138.586334 
	C248.025574,137.432129 244.521011,134.381577 239.504776,136.674484 
	C238.000427,137.362122 234.786819,134.310333 232.872589,133.256058 
	C225.024719,133.846100 217.290436,134.340225 209.573608,135.029831 
	C199.828018,135.900757 190.093826,136.903259 180.360947,137.909454 
	C177.424728,138.212997 171.530060,132.352493 170.958420,128.714539 
	C170.156281,123.609512 169.044876,118.553452 168.216400,113.451988 
	C167.956741,111.853134 167.783707,110.047310 168.261612,108.557800 
	C169.689758,104.106667 169.325272,100.601051 165.671036,97.001549 
	C159.167969,90.595856 163.429214,79.625847 172.915710,76.921028 
	C174.782181,76.388855 176.908798,74.892250 177.824860,73.236916 
	C181.309631,66.939919 184.148865,60.283104 187.694275,54.024109 
	C188.563751,52.489151 191.125778,51.786781 193.029953,50.988632 
	C197.988464,48.910267 202.873367,46.388214 208.052856,45.182659 
	C212.969467,44.038288 218.235764,43.999912 223.319321,44.202545 
	C224.915924,44.266186 227.271393,46.406876 227.814453,48.074097 
	C229.987381,54.744953 230.478577,61.511227 227.446228,68.248711 
	C226.204117,71.008522 225.728241,74.113190 224.837021,77.299706 
	C228.988983,79.120972 230.638672,77.374977 232.063614,73.642700 
	C237.654373,58.999287 252.938034,45.080902 269.896210,46.020233 
	C279.416504,46.547565 286.610901,51.485588 292.713165,58.336678 
	C303.629211,42.804276 324.462738,41.629524 340.708588,55.929306 
	C347.805206,51.175232 351.497894,50.919746 354.015656,55.008633 
	C357.283783,60.316124 356.350525,63.447727 350.334442,67.395653 
	C351.469696,69.266167 352.602417,71.132523 353.841522,73.174110 
	C356.278748,68.098419 358.418182,63.147194 360.974579,58.421543 
	C366.397430,48.397083 376.301941,44.997993 385.772888,50.511597 
	C389.935364,52.934814 393.599243,56.699509 396.527344,60.580959 
	C398.364166,63.015820 399.903656,63.473289 402.393829,62.987598 
	C410.029053,61.498386 415.748962,65.476082 417.301514,73.053146 
	C420.623383,66.853363 423.972260,60.352180 427.613098,54.018883 
	C428.344849,52.746029 430.062683,51.732826 431.538391,51.251118 
	C436.445862,49.649181 441.450104,48.343872 446.761810,46.682175 
M401.981171,76.484482 
	C401.981171,76.484482 401.828064,76.021980 401.813019,75.355698 
	C401.151733,74.232727 400.490448,73.109756 399.888245,71.461052 
	C399.603149,71.270950 399.318085,71.080841 398.856110,70.277512 
	C397.939697,69.189613 397.023285,68.101715 395.955414,66.533119 
	C395.901581,66.373962 395.847778,66.214813 395.810699,65.368065 
	C392.876862,62.184761 389.942993,59.001453 386.738037,55.196503 
	C381.805206,51.050243 375.755066,50.051949 370.670074,53.185593 
	C363.812195,57.411793 360.314240,64.616379 358.326416,73.058388 
	C357.178772,77.004631 356.031097,80.950882 354.505157,84.920219 
	C354.505157,84.920219 354.126709,84.900803 354.088348,84.124374 
	C353.717926,82.888985 353.430298,81.621414 352.964417,80.423126 
	C347.361298,66.011040 338.664917,54.312504 322.873779,50.602173 
	C311.129730,47.842762 300.339630,51.568439 293.450836,63.055576 
	C291.630127,61.387119 289.809418,59.718658 287.791931,57.389629 
	C277.963318,47.731121 265.475037,46.061131 253.541168,53.024490 
	C251.417435,54.263672 249.743179,56.273159 247.943344,57.947216 
	C247.943344,57.947216 247.958206,57.864090 247.274490,57.360195 
	C246.675293,57.955467 246.076111,58.550739 245.299164,59.493137 
	C244.917007,59.817055 244.534836,60.140976 243.611618,60.909649 
	C242.756592,61.969006 241.901550,63.028362 240.535049,64.532402 
	C233.162796,74.379204 229.911484,85.577904 229.845413,97.648048 
	C225.526566,97.242455 221.428711,96.857613 216.876511,96.430107 
	C220.072357,84.362617 223.503403,73.096024 225.865143,61.609573 
	C226.738983,57.359596 225.310425,52.549717 224.406555,48.101948 
	C224.247299,47.318260 221.356155,46.399452 219.951187,46.677570 
	C213.540329,47.946644 207.148651,49.411160 200.876251,51.238537 
	C197.826782,52.126957 195.054214,53.965858 191.618912,55.762905 
	C190.694656,57.158745 189.770416,58.554585 188.933472,59.949902 
	C188.933472,59.949902 188.926849,59.862846 188.290512,59.594246 
	C187.856308,60.373692 187.422119,61.153133 186.398300,62.312698 
	C183.972580,67.976219 181.546875,73.639740 178.752991,79.817177 
	C177.454300,83.203850 176.155624,86.590515 174.192810,90.353867 
	C170.793655,102.602867 169.318436,114.850571 173.429016,127.301720 
	C174.798294,131.449310 178.826782,135.132874 182.713135,134.839783 
	C195.249176,133.894333 207.867111,133.538391 220.296539,131.820038 
	C231.855392,130.222046 232.563568,131.548523 235.467209,120.422516 
	C246.696396,140.537674 264.946472,140.377975 278.864716,130.324646 
	C286.021423,125.155258 291.122101,118.102097 294.291168,110.638878 
	C299.266602,116.347908 303.699463,122.546333 309.238007,127.511337 
	C316.347351,133.884537 325.196808,137.579086 334.772186,134.783417 
	C340.521454,133.104828 345.582642,129.069626 351.060516,126.580200 
	C351.232178,127.031410 351.403870,127.482620 351.153320,128.425003 
	C352.390076,130.968521 353.626831,133.512054 355.247559,136.845306 
	C360.367950,138.112823 366.327362,137.344711 371.944977,134.517960 
	C376.775604,132.087189 374.198883,127.057999 375.308228,123.381134 
	C378.790314,122.222527 382.151855,121.104027 385.489044,119.993629 
	C387.868988,124.445435 389.726105,128.907944 392.453064,132.753647 
	C395.425751,136.945801 400.176575,138.108139 405.219879,138.014664 
	C409.881165,137.928223 414.924194,138.883148 416.864166,133.565948 
	C419.248138,133.963562 421.318298,134.687820 423.342712,134.576874 
	C429.948395,134.214798 436.537811,133.553680 443.132599,132.997025 
	C451.047455,132.328949 458.990784,131.880920 466.863159,130.877396 
	C470.742981,130.382828 473.543091,128.353882 474.487305,123.751251 
	C475.986664,116.442596 474.168274,109.723099 472.347717,102.877373 
	C471.178772,98.481850 468.223114,96.838020 463.905914,96.901291 
	C461.717255,96.933357 459.524811,96.706444 456.838715,96.571785 
	C460.076111,84.340317 463.505585,73.074020 465.864990,61.587929 
	C466.737091,57.342350 465.302032,52.536617 464.395538,48.093204 
	C464.236633,47.314301 461.346039,46.407345 459.940033,46.685711 
	C453.532806,47.954262 447.144257,49.415592 440.875153,51.240902 
	C437.827393,52.128288 435.056488,53.966599 431.622528,55.762657 
	C430.696838,57.158871 429.771118,58.555084 428.934570,59.950611 
	C428.934570,59.950611 428.927856,59.861732 428.291260,59.594086 
	C427.857483,60.373390 427.423737,61.152695 426.399658,62.311527 
	C423.973480,67.975380 421.547333,73.639236 418.753082,79.817039 
	C417.462280,83.197754 416.171509,86.578461 414.210541,90.317230 
	C413.346985,93.650894 412.483459,96.984566 411.590485,100.431885 
	C411.008606,99.431313 410.556763,98.654350 410.014587,97.391975 
	C410.014587,97.391975 409.848755,96.926918 409.986542,96.481689 
	C409.986542,96.481689 409.838531,96.039764 409.883820,95.444763 
	C409.558014,94.949738 409.232208,94.454712 409.028473,93.237251 
	C408.292755,91.500931 407.557037,89.764603 406.946686,87.513107 
	C406.891541,87.345192 406.836426,87.177269 406.790771,86.445625 
	C406.451599,86.008713 406.112427,85.571793 405.872986,84.450584 
	C405.261475,83.533661 404.649963,82.616737 404.110046,81.035751 
	C403.424591,79.664040 402.739166,78.292328 402.021698,76.987312 
	C402.021698,76.987312 402.090210,76.959312 401.981171,76.484482 
z"/>
<path fill="#FCDC0F" opacity="1.000000" stroke="none" 
	d="
M158.863083,96.002960 
	C160.071899,97.596146 161.293076,99.150146 161.436432,100.797913 
	C161.488419,101.395248 158.890335,102.868599 157.637634,102.728081 
	C156.650513,102.617363 154.962906,100.375298 155.204544,99.558685 
	C155.614288,98.173958 157.299866,97.166748 158.863083,96.002960 
z"/>
<path fill="#020704" opacity="1.000000" stroke="none" 
	d="
M350.953094,126.093536 
	C345.582642,129.069626 340.521454,133.104828 334.772186,134.783417 
	C325.196808,137.579086 316.347351,133.884537 309.238007,127.511337 
	C303.699463,122.546333 299.266602,116.347908 294.291168,110.638878 
	C291.122101,118.102097 286.021423,125.155258 278.864716,130.324646 
	C264.946472,140.377975 246.696396,140.537674 235.467209,120.422516 
	C232.563568,131.548523 231.855392,130.222046 220.296539,131.820038 
	C207.867111,133.538391 195.249176,133.894333 182.713135,134.839783 
	C178.826782,135.132874 174.798294,131.449310 173.429016,127.301720 
	C169.318436,114.850571 170.793655,102.602867 174.619995,90.413078 
	C175.102936,90.640060 175.158722,90.807831 175.130539,91.353821 
	C174.756638,93.476585 174.466705,95.221123 174.080688,97.379730 
	C173.374039,103.047981 172.225052,108.306740 172.269562,113.555367 
	C172.351959,123.267784 175.756546,126.614212 183.622574,125.968559 
	C195.955521,124.956276 208.328415,124.299393 220.614014,122.881958 
	C230.838120,121.702362 231.266296,120.077461 231.075211,112.007965 
	C231.031876,110.177826 231.079086,108.344505 230.997971,106.516495 
	C230.753326,101.002167 228.237152,98.345970 222.731995,98.049881 
	C219.471863,97.874535 216.194595,98.017799 212.850204,98.017799 
	C212.850204,95.951027 212.850204,94.458549 212.957825,92.596817 
	C213.340988,90.480896 213.616531,88.734245 214.100754,86.651199 
	C215.170654,81.772102 216.031876,77.229393 216.961121,72.619675 
	C217.029144,72.552673 216.977814,72.368729 217.291229,72.148712 
	C217.765549,70.942856 217.926453,69.957024 218.044281,68.985077 
	C218.001205,68.998962 218.029068,69.085098 218.342224,68.889191 
	C218.786682,67.704880 218.917969,66.716476 219.082794,65.710541 
	C219.116318,65.693008 219.093582,65.620834 219.402878,65.368858 
	C219.865784,64.070610 220.019379,63.024330 220.107193,62.000893 
	C220.041412,62.023727 220.090408,62.154083 220.396393,61.968842 
	C220.824432,60.844700 220.946472,59.905807 221.029083,58.980453 
	C220.989655,58.993999 221.015915,59.073132 221.319061,58.872837 
	C221.725311,57.711887 221.828415,56.751236 222.009659,55.726601 
	C222.087799,55.662621 222.015854,55.473885 222.348328,55.182213 
	C222.837067,52.693378 222.993347,50.496220 223.200577,47.582539 
	C221.184891,48.178871 219.903915,48.557846 218.224243,48.960915 
	C212.599503,50.349960 207.373459,51.714916 201.786270,53.043518 
	C200.597977,53.338932 199.770859,53.670696 198.978699,54.013336 
	C199.013687,54.024208 199.037384,53.954880 198.665497,53.962311 
	C197.675995,54.305607 197.058365,54.641479 196.440704,54.990761 
	C196.440689,55.004169 196.416397,54.986076 196.015121,55.006672 
	C195.217484,55.344795 194.821136,55.662323 194.453735,55.995705 
	C194.482666,56.011559 194.446548,55.956490 194.102753,55.957474 
	C193.533600,56.000183 193.308228,56.041912 192.854523,55.902046 
	C192.469543,55.605133 192.312927,55.489815 192.156311,55.374489 
	C195.054214,53.965858 197.826782,52.126957 200.876251,51.238537 
	C207.148651,49.411160 213.540329,47.946644 219.951187,46.677570 
	C221.356155,46.399452 224.247299,47.318260 224.406555,48.101948 
	C225.310425,52.549717 226.738983,57.359596 225.865143,61.609573 
	C223.503403,73.096024 220.072357,84.362617 216.876511,96.430107 
	C221.428711,96.857613 225.526566,97.242455 229.845413,97.648048 
	C229.911484,85.577904 233.162796,74.379204 240.978149,64.426697 
	C241.643555,64.517433 241.836243,64.739563 241.895020,65.316933 
	C238.921417,71.760925 236.052109,77.875351 233.103287,84.322906 
	C232.948349,85.336418 232.872940,86.016800 232.523773,87.015831 
	C232.201660,89.884064 232.153305,92.433632 232.018463,95.423645 
	C232.347366,105.137352 233.908798,113.422096 241.466476,120.532867 
	C246.180908,124.968483 250.645432,127.545120 256.682709,127.979866 
	C277.939209,129.510574 293.693634,105.040970 293.949890,89.547569 
	C293.905945,83.706619 293.826294,78.289680 293.685547,72.533119 
	C291.403931,67.807892 289.183411,63.422291 287.106964,58.845245 
	C287.457672,58.404633 287.703552,58.203434 287.988708,58.050201 
	C289.809418,59.718658 291.630127,61.387119 293.841736,63.289146 
	C294.142303,65.008362 293.850128,66.514198 293.996307,67.976189 
	C294.663116,74.644119 295.453064,81.299736 296.102173,88.287491 
	C296.032623,89.068085 296.059723,89.520981 296.022278,90.339172 
	C295.921509,91.445343 295.885193,92.186218 295.605957,93.165115 
	C295.006348,94.928200 294.649719,96.453262 294.174194,98.363518 
	C296.723114,103.935638 298.578094,109.793724 302.206177,114.187767 
	C314.725616,129.350357 336.723236,133.304657 349.373779,116.022400 
	C350.152374,116.843872 350.656494,117.632423 351.075378,118.463928 
	C351.664703,119.633804 352.190765,120.835556 352.808655,122.390060 
	C352.839844,123.497292 352.806274,124.238136 352.503113,125.039688 
	C351.806702,125.431435 351.379883,125.762489 350.953094,126.093536 
z"/>
<path fill="#020603" opacity="1.000000" stroke="none" 
	d="
M432.160248,55.374424 
	C435.056488,53.966599 437.827393,52.128288 440.875153,51.240902 
	C447.144257,49.415592 453.532806,47.954262 459.940033,46.685711 
	C461.346039,46.407345 464.236633,47.314301 464.395538,48.093204 
	C465.302032,52.536617 466.737091,57.342350 465.864990,61.587929 
	C463.505585,73.074020 460.076111,84.340317 456.838715,96.571785 
	C459.524811,96.706444 461.717255,96.933357 463.905914,96.901291 
	C468.223114,96.838020 471.178772,98.481850 472.347717,102.877373 
	C474.168274,109.723099 475.986664,116.442596 474.487305,123.751251 
	C473.543091,128.353882 470.742981,130.382828 466.863159,130.877396 
	C458.990784,131.880920 451.047455,132.328949 443.132599,132.997025 
	C436.537811,133.553680 429.948395,134.214798 423.342712,134.576874 
	C421.318298,134.687820 419.248138,133.963562 416.864166,133.565948 
	C414.924194,138.883148 409.881165,137.928223 405.219879,138.014664 
	C400.176575,138.108139 395.425751,136.945801 392.453064,132.753647 
	C389.726105,128.907944 387.868988,124.445435 385.489044,119.993629 
	C382.151855,121.104027 378.790314,122.222527 375.308228,123.381134 
	C374.198883,127.057999 376.775604,132.087189 371.944977,134.517960 
	C366.327362,137.344711 360.367950,138.112823 355.247559,136.845306 
	C353.626831,133.512054 352.390076,130.968521 351.677124,128.202957 
	C352.408600,127.994316 352.616302,128.007721 353.087280,128.364426 
	C367.060852,130.340363 371.201324,127.491982 372.325012,115.318825 
	C376.162720,114.022385 380.136353,112.680016 384.127930,111.331589 
	C386.193878,115.380852 387.941498,119.073730 389.926910,122.634018 
	C392.790344,127.768799 401.539917,131.421310 406.964478,129.912292 
	C410.793976,128.847000 413.082520,123.829659 411.545807,120.040924 
	C411.217621,119.231796 411.245239,118.278351 411.108948,117.391396 
	C411.563446,117.195061 412.017975,116.998734 412.472504,116.802399 
	C413.039856,117.868141 413.607239,118.933884 414.110474,120.392883 
	C414.750305,122.081291 415.273041,124.324905 416.190887,124.500244 
	C419.414673,125.116135 422.774384,125.020592 426.515015,125.175323 
	C428.964203,125.046143 430.980865,124.936722 433.395172,124.872635 
	C437.195618,124.554596 440.598450,124.191216 444.332458,123.889626 
	C445.108948,123.909966 445.554260,123.868523 446.436401,123.892319 
	C449.714874,123.707260 452.556488,123.456963 455.814026,123.206581 
	C459.859650,122.580223 463.489380,121.953949 467.472046,121.228867 
	C468.826416,119.086708 469.827759,117.043358 470.898743,114.545975 
	C470.901520,110.729088 470.834717,107.366226 470.724365,103.681152 
	C469.453125,101.969643 468.225433,100.580345 466.598022,99.053421 
	C462.690399,98.612946 459.180359,98.060783 455.675446,98.091537 
	C453.177826,98.113441 452.566772,97.154205 452.915649,94.663696 
	C452.937103,93.872993 452.894440,93.419540 452.960449,92.597137 
	C453.344208,90.481483 453.619293,88.734795 454.103760,86.652084 
	C455.173859,81.773369 456.034637,77.230659 456.963654,72.621582 
	C457.031921,72.555222 456.978790,72.372360 457.292664,72.152222 
	C457.767395,70.945267 457.928253,69.958443 458.045837,68.985764 
	C458.002563,68.999924 458.031097,69.086411 458.335388,68.905098 
	C458.754028,67.798294 458.868378,66.872803 458.959839,65.958603 
	C458.936920,65.969894 458.954926,66.017670 459.237183,65.785797 
	C459.740936,64.364792 459.962402,63.175667 460.117188,62.005543 
	C460.050507,62.024540 460.092499,62.156723 460.398804,61.971436 
	C460.826904,60.846573 460.948700,59.906994 461.030823,58.981110 
	C460.991119,58.994801 461.017792,59.074459 461.321503,58.874489 
	C461.728180,57.713024 461.831146,56.751537 462.012512,55.727123 
	C462.090912,55.664196 462.016907,55.477249 462.349976,55.185616 
	C462.839691,52.694668 462.996338,50.495358 463.204102,47.578159 
	C461.184723,48.175957 459.902344,48.555580 458.221375,48.958923 
	C452.597656,50.347580 447.372559,51.712521 441.786011,53.040863 
	C440.597137,53.336388 439.769745,53.668514 438.977600,54.011703 
	C439.012878,54.022766 439.036835,53.952801 438.664551,53.959774 
	C437.674530,54.303135 437.056793,54.639519 436.442932,54.990963 
	C436.446838,55.006020 436.418304,54.983322 436.016174,55.003681 
	C435.217224,55.342316 434.820404,55.660587 434.452667,55.994759 
	C434.481750,56.010658 434.447479,55.953999 434.102631,55.954704 
	C433.531708,55.997078 433.305634,56.038754 432.853088,55.899551 
	C432.471161,55.603916 432.315704,55.489170 432.160248,55.374424 
z"/>
<path fill="#0ADFBF" opacity="1.000000" stroke="none" 
	d="
M296.198761,87.959778 
	C295.453064,81.299736 294.663116,74.644119 293.996307,67.976189 
	C293.850128,66.514198 294.142303,65.008362 294.141571,63.134666 
	C300.339630,51.568439 311.129730,47.842762 322.873779,50.602173 
	C338.664917,54.312504 347.361298,66.011040 352.964417,80.423126 
	C353.430298,81.621414 353.717926,82.888985 354.003784,84.715179 
	C353.932983,86.570450 353.946747,87.834923 353.661591,89.059326 
	C352.892548,89.308884 352.422455,89.598511 351.638977,89.919891 
	C350.169464,90.346054 349.013336,90.740471 347.604065,91.077209 
	C346.603058,91.399445 345.855133,91.779350 344.833557,92.082184 
	C342.041229,92.730759 339.522522,93.456421 336.652771,94.171814 
	C335.857513,94.139732 335.413361,94.117920 334.970459,93.728210 
	C332.890503,87.580238 329.267883,83.646057 322.807678,82.906754 
	C317.178528,82.262550 313.879425,85.049492 311.572266,89.901855 
	C305.680298,83.587692 303.171234,83.269630 296.812073,88.007126 
	C296.608521,87.981415 296.198761,87.959778 296.198761,87.959778 
M340.972290,64.543228 
	C339.548096,63.144382 338.231323,61.611641 336.681976,60.368851 
	C327.885986,53.313347 318.226837,49.650242 307.092712,54.058105 
	C305.218994,54.799900 304.071930,57.377281 302.589081,59.106525 
	C304.658203,59.528282 306.723877,59.968674 308.800385,60.350277 
	C309.088013,60.403141 309.430206,60.168797 309.745209,60.061825 
	C316.388733,57.805805 322.571686,59.070808 328.324158,62.725704 
	C335.878967,67.525742 341.115479,74.124924 344.029510,82.701874 
	C344.494293,84.069908 347.136749,84.698059 348.772491,85.668266 
	C349.235809,83.965416 350.585144,81.840492 350.009674,80.632484 
	C347.466797,75.294472 344.370087,70.220284 340.972290,64.543228 
z"/>
<path fill="#03DFBE" opacity="1.000000" stroke="none" 
	d="
M233.182800,83.989777 
	C236.052109,77.875351 238.921417,71.760925 242.218048,65.059052 
	C243.147812,63.136028 243.650253,61.800461 244.152679,60.464897 
	C244.534836,60.140976 244.917007,59.817055 245.694061,59.722504 
	C246.712051,59.255943 247.335129,58.560017 247.958206,57.864090 
	C247.958206,57.864090 247.943344,57.947216 248.262283,57.997311 
	C251.744705,56.322647 254.908173,54.597889 258.055542,53.309109 
	C257.500122,58.040779 258.920410,60.362297 263.724487,60.039345 
	C272.934265,59.420216 279.026245,64.007729 283.046173,71.981758 
	C286.359680,78.554512 289.461151,78.766037 293.746643,72.872742 
	C293.826294,78.289680 293.905945,83.706619 293.631470,89.463150 
	C292.590088,89.116486 291.774475,88.517868 291.236572,87.729721 
	C287.802246,82.697701 280.849701,81.456596 275.544830,87.983788 
	C272.788055,87.992493 270.466553,87.986000 268.095764,87.582130 
	C268.376709,83.537094 266.829681,80.629929 263.293457,80.179443 
	C259.617065,79.711105 258.492279,82.926437 257.388794,85.994469 
	C249.015488,85.327751 241.099136,84.658760 233.182800,83.989777 
z"/>
<path fill="#04E0BF" opacity="1.000000" stroke="none" 
	d="
M406.781311,87.009354 
	C406.836426,87.177269 406.891541,87.345192 406.626343,88.026886 
	C399.783081,91.809464 392.910950,90.923393 385.977692,90.586693 
	C377.929047,90.195839 369.846832,90.495605 361.408234,90.495605 
	C359.545380,88.897224 357.214386,86.897186 354.883423,84.897141 
	C356.031097,80.950882 357.178772,77.004631 358.643005,73.288338 
	C358.980225,74.344719 358.734100,75.308098 359.074158,75.970490 
	C359.911102,77.600525 361.017578,79.092171 362.015656,80.639450 
	C363.535522,79.636826 365.590546,78.963264 366.454865,77.557587 
	C367.898376,75.210037 368.491364,72.355858 369.602600,69.784180 
	C371.691376,64.950188 374.518372,61.294319 380.697571,61.851727 
	C384.682465,62.211197 386.721344,59.735352 387.009155,55.818146 
	C389.942993,59.001453 392.876862,62.184761 395.623596,65.888428 
	C395.197510,67.027626 394.958496,67.646461 394.719482,68.265297 
	C394.939728,68.355469 395.160004,68.445648 395.380249,68.535828 
	C395.622437,68.028496 395.864655,67.521156 396.106842,67.013824 
	C397.023285,68.101715 397.939697,69.189613 399.043549,70.789818 
	C399.388824,71.566635 399.588196,71.794861 399.829132,71.986786 
	C400.490448,73.109756 401.151733,74.232727 401.739166,75.815369 
	C401.617523,76.604233 401.759155,76.832321 402.090210,76.959312 
	C402.090210,76.959312 402.021698,76.987312 402.034973,77.313911 
	C402.711639,78.993614 403.375061,80.346710 404.038483,81.699814 
	C404.649963,82.616737 405.261475,83.533661 405.680328,84.971420 
	C405.918884,85.997955 406.350098,86.503654 406.781311,87.009354 
M394.031677,81.062294 
	C393.754059,80.807793 393.476440,80.553291 393.198792,80.298782 
	C393.007538,80.523743 392.816284,80.748703 392.625031,80.973663 
	C392.994415,81.112045 393.363831,81.250420 394.031677,81.062294 
M384.097717,85.651031 
	C384.097717,85.651031 384.011505,85.357788 384.011505,85.357788 
	C384.011505,85.357788 383.916809,85.649239 384.097717,85.651031 
z"/>
<path fill="#08E0BF" opacity="1.000000" stroke="none" 
	d="
M456.895386,72.687950 
	C456.034637,77.230659 455.173859,81.773369 453.723572,86.655319 
	C451.099609,86.687714 449.065155,86.380875 447.329529,85.872704 
	C448.399689,84.070770 449.697998,82.511650 449.827972,80.860542 
	C450.067017,77.823662 449.009155,75.191620 445.257843,75.043915 
	C441.395203,74.891830 439.447815,77.137016 440.119019,80.611099 
	C440.507874,82.623466 442.617584,84.303352 443.866974,86.442352 
	C442.179138,87.842880 440.577209,88.933929 438.638977,89.851410 
	C432.594910,86.450859 427.571167,87.663589 422.627991,92.019363 
	C419.893005,91.661995 417.563385,91.315521 415.154633,90.713387 
	C415.010620,90.291542 414.945679,90.125359 414.880737,89.959167 
	C416.171509,86.578461 417.462280,83.197754 419.245911,79.366096 
	C422.398132,73.593544 425.057556,68.271927 427.916260,62.656921 
	C428.386322,61.529598 428.657074,60.695663 428.927856,59.861732 
	C428.927856,59.861732 428.934570,59.950611 429.218567,59.982109 
	C430.327942,59.322418 431.153320,58.631229 432.009033,58.310387 
	C431.358612,63.759377 432.455505,64.805710 437.186951,63.357670 
	C439.401947,62.679779 441.475006,61.515217 443.704926,60.915169 
	C446.148712,60.257587 448.699219,59.996651 451.203217,59.562866 
	C450.934174,61.914608 450.450623,64.267303 450.461121,66.617798 
	C450.470184,68.650139 450.452271,71.156059 451.572968,72.540688 
	C452.299194,73.437927 455.051147,72.695610 456.895386,72.687950 
z"/>
<path fill="#08E0BF" opacity="1.000000" stroke="none" 
	d="
M216.893097,72.686691 
	C216.031876,77.229393 215.170654,81.772102 213.720734,86.654526 
	C211.098358,86.687630 209.064713,86.381012 207.329849,85.873024 
	C208.400009,84.070953 209.698395,82.511726 209.828323,80.860550 
	C210.067322,77.823601 209.009399,75.191383 205.257935,75.043633 
	C201.395203,74.891502 199.447479,77.136612 200.118637,80.610909 
	C200.507416,82.623451 202.617188,84.303551 203.866516,86.442780 
	C202.177704,87.844376 200.574814,88.936447 198.635864,89.854683 
	C192.584549,86.442474 187.560974,87.683876 182.710022,91.798737 
	C180.005936,91.363289 177.610214,91.169441 175.214493,90.975601 
	C175.158722,90.807831 175.102936,90.640060 174.952057,90.224739 
	C176.155624,86.590515 177.454300,83.203850 179.245880,79.366287 
	C182.398743,73.594231 185.058716,68.273071 187.918274,62.658539 
	C188.387527,61.531055 188.657181,60.696949 188.926849,59.862846 
	C188.926849,59.862846 188.933472,59.949902 189.218353,59.982811 
	C190.328888,59.324524 191.154526,58.633327 192.010178,58.312347 
	C191.358643,63.759724 192.455750,64.805595 197.188095,63.356998 
	C199.402878,62.679043 201.475784,61.514675 203.705521,60.914684 
	C206.149094,60.257156 208.699387,59.996250 211.203171,59.562500 
	C210.934341,61.914005 210.451294,64.266457 210.461685,66.616730 
	C210.470673,68.649002 210.452179,71.154114 211.572250,72.539581 
	C212.297241,73.436363 215.049347,72.694359 216.893097,72.686691 
z"/>
<path fill="#02DEBC" opacity="1.000000" stroke="none" 
	d="
M354.694275,84.908676 
	C357.214386,86.897186 359.545380,88.897224 361.408234,90.495605 
	C369.846832,90.495605 377.929047,90.195839 385.977692,90.586693 
	C392.910950,90.923393 399.783081,91.809464 406.563660,88.284470 
	C407.557037,89.764603 408.292755,91.500931 408.809448,93.798447 
	C409.006439,94.919685 409.422485,95.479729 409.838531,96.039764 
	C409.838531,96.039764 409.986542,96.481689 409.501160,96.730820 
	C403.441498,97.028427 397.860077,96.921646 392.295197,97.176308 
	C388.119965,97.367363 383.966003,98.023193 379.504333,98.285889 
	C377.157501,97.740715 375.108948,97.381744 372.652710,96.993561 
	C366.419708,96.393700 361.018616,91.865623 354.596863,95.057343 
	C354.407654,95.022125 354.040070,94.907867 354.036255,94.514534 
	C353.978149,93.081749 353.923859,92.042305 353.923340,90.688431 
	C353.971619,89.949127 353.966064,89.524261 353.960541,89.099388 
	C353.946747,87.834923 353.932983,86.570450 354.022949,85.103394 
	C354.126709,84.900803 354.505157,84.920219 354.694275,84.908676 
z"/>
<path fill="#3AE5CB" opacity="1.000000" stroke="none" 
	d="
M386.873596,55.507324 
	C386.721344,59.735352 384.682465,62.211197 380.697571,61.851727 
	C374.518372,61.294319 371.691376,64.950188 369.602600,69.784180 
	C368.491364,72.355858 367.898376,75.210037 366.454865,77.557587 
	C365.590546,78.963264 363.535522,79.636826 362.015656,80.639450 
	C361.017578,79.092171 359.911102,77.600525 359.074158,75.970490 
	C358.734100,75.308098 358.980225,74.344719 358.945251,73.079117 
	C360.314240,64.616379 363.812195,57.411793 370.670074,53.185593 
	C375.755066,50.051949 381.805206,51.050243 386.873596,55.507324 
M372.733337,60.991611 
	C376.254608,60.017731 379.775879,59.043850 383.297150,58.069973 
	C383.474792,57.643871 383.652435,57.217770 383.830048,56.791668 
	C381.660400,55.936428 379.378571,54.147465 377.341125,54.392296 
	C369.708313,55.309505 365.661285,60.872032 363.114166,67.434830 
	C361.903656,70.553772 359.224396,74.136108 362.987732,77.985298 
	C366.217621,72.185646 369.194763,66.839752 372.733337,60.991611 
z"/>
<path fill="#03D1B2" opacity="1.000000" stroke="none" 
	d="
M379.802551,98.472092 
	C383.966003,98.023193 388.119965,97.367363 392.295197,97.176308 
	C397.860077,96.921646 403.441498,97.028427 409.432281,96.953438 
	C409.848755,96.926918 410.014587,97.391975 409.975800,98.028778 
	C410.037262,100.001457 410.137482,101.337334 409.916565,102.956375 
	C407.156647,103.427574 404.699768,103.902191 402.282532,103.749619 
	C395.191193,103.302025 388.115631,102.605003 381.036804,101.682091 
	C380.627350,100.396370 380.214935,99.434235 379.802551,98.472092 
z"/>
<path fill="#071C13" opacity="1.000000" stroke="none" 
	d="
M258.071655,52.873131 
	C254.908173,54.597889 251.744705,56.322647 248.221298,57.987175 
	C249.743179,56.273159 251.417435,54.263672 253.541168,53.024490 
	C265.475037,46.061131 277.963318,47.731121 287.890320,57.719917 
	C287.703552,58.203434 287.457672,58.404633 286.808350,58.693909 
	C280.065948,51.232830 268.159271,47.713047 258.071655,52.873131 
z"/>
<path fill="#011611" opacity="1.000000" stroke="none" 
	d="
M410.237732,102.673210 
	C410.137482,101.337334 410.037262,100.001457 410.020966,98.271484 
	C410.556763,98.654350 411.008606,99.431313 411.590485,100.431885 
	C412.483459,96.984566 413.346985,93.650894 414.545654,90.138199 
	C414.945679,90.125359 415.010620,90.291542 415.075317,91.107666 
	C414.784943,93.826340 414.494751,95.895065 414.065430,98.328140 
	C413.702728,100.461288 413.479095,102.230080 413.170654,104.412598 
	C413.038849,106.502815 412.991882,108.179306 412.686157,109.823853 
	C411.995697,109.514229 411.563965,109.236534 411.084625,108.553391 
	C410.770569,106.323029 410.504150,104.498123 410.237732,102.673210 
z"/>
<path fill="#06160E" opacity="1.000000" stroke="none" 
	d="
M427.716980,62.950310 
	C425.057556,68.271927 422.398132,73.593544 419.429932,79.109123 
	C421.547333,73.639236 423.973480,67.975380 426.797302,62.304710 
	C427.338409,62.539791 427.512421,62.757259 427.716980,62.950310 
z"/>
<path fill="#06160E" opacity="1.000000" stroke="none" 
	d="
M187.718689,62.951912 
	C185.058716,68.273071 182.398743,73.594231 179.429962,79.109329 
	C181.546875,73.639740 183.972580,67.976219 186.795425,62.306320 
	C187.336899,62.542324 187.512268,62.759647 187.718689,62.951912 
z"/>
<path fill="#020603" opacity="1.000000" stroke="none" 
	d="
M431.978668,57.940041 
	C431.153320,58.631229 430.327942,59.322418 429.174011,59.982452 
	C429.771118,58.555084 430.696838,57.158871 431.891388,55.568542 
	C432.315704,55.489170 432.471161,55.603916 432.806274,56.129295 
	C432.985931,56.539925 432.931152,57.005642 432.968048,57.006203 
	C433.004944,57.006763 433.006653,56.932995 432.736206,57.002075 
	C432.286591,57.382076 432.107452,57.693001 431.960144,58.003166 
	C431.992004,58.002411 431.978668,57.940041 431.978668,57.940041 
z"/>
<path fill="#020704" opacity="1.000000" stroke="none" 
	d="
M191.980179,57.942131 
	C191.154526,58.633327 190.328888,59.324524 189.174713,59.983074 
	C189.770416,58.554585 190.694656,57.158745 191.887604,55.568703 
	C192.312927,55.489815 192.469543,55.605133 192.807144,56.131172 
	C192.988113,56.541897 192.932846,57.006569 192.969360,57.007061 
	C193.005875,57.007553 193.007568,56.934551 192.737488,57.003922 
	C192.288223,57.383808 192.109009,57.694324 191.961380,58.004433 
	C191.992950,58.004021 191.980179,57.942131 191.980179,57.942131 
z"/>
<path fill="#02DDBC" opacity="1.000000" stroke="none" 
	d="
M404.074280,81.367783 
	C403.375061,80.346710 402.711639,78.993614 402.050964,77.280563 
	C402.739166,78.292328 403.424591,79.664040 404.074280,81.367783 
z"/>
<path fill="#071C13" opacity="1.000000" stroke="none" 
	d="
M243.882141,60.687271 
	C243.650253,61.800461 243.147812,63.136028 242.322357,64.729477 
	C241.836243,64.739563 241.643555,64.517433 241.233887,64.204353 
	C241.901550,63.028362 242.756592,61.969006 243.882141,60.687271 
z"/>
<path fill="#001512" opacity="1.000000" stroke="none" 
	d="
M352.823975,128.021149 
	C352.616302,128.007721 352.408600,127.994316 351.888245,127.957367 
	C351.403870,127.482620 351.232178,127.031410 351.006805,126.336868 
	C351.379883,125.762489 351.806702,125.431435 352.582062,125.415062 
	C352.895050,126.493546 352.859497,127.257347 352.823975,128.021149 
z"/>
<path fill="#02DDBC" opacity="1.000000" stroke="none" 
	d="
M396.031128,66.773468 
	C395.864655,67.521156 395.622437,68.028496 395.380249,68.535828 
	C395.160004,68.445648 394.939728,68.355469 394.719482,68.265297 
	C394.958496,67.646461 395.197510,67.027626 395.615265,66.232224 
	C395.847778,66.214813 395.901581,66.373962 396.031128,66.773468 
z"/>
<path fill="#020704" opacity="1.000000" stroke="none" 
	d="
M187.918274,62.658539 
	C187.512268,62.759647 187.336899,62.542324 187.090240,62.116261 
	C187.422119,61.153133 187.856308,60.373692 188.608673,59.728546 
	C188.657181,60.696949 188.387527,61.531055 187.918274,62.658539 
z"/>
<path fill="#020603" opacity="1.000000" stroke="none" 
	d="
M427.916260,62.656918 
	C427.512421,62.757259 427.338409,62.539791 427.092468,62.114944 
	C427.423737,61.152695 427.857483,60.373390 428.609558,59.727905 
	C428.657074,60.695663 428.386322,61.529598 427.916260,62.656918 
z"/>
<path fill="#03D1B2" opacity="1.000000" stroke="none" 
	d="
M409.861176,95.742264 
	C409.422485,95.479729 409.006439,94.919685 408.748383,94.159668 
	C409.232208,94.454712 409.558014,94.949738 409.861176,95.742264 
z"/>
<path fill="#02DEBC" opacity="1.000000" stroke="none" 
	d="
M406.786041,86.727493 
	C406.350098,86.503654 405.918884,85.997955 405.630463,85.313568 
	C406.112427,85.571793 406.451599,86.008713 406.786041,86.727493 
z"/>
<path fill="#071C13" opacity="1.000000" stroke="none" 
	d="
M247.616348,57.612144 
	C247.335129,58.560017 246.712051,59.255943 245.782944,59.548943 
	C246.076111,58.550739 246.675293,57.955467 247.616348,57.612144 
z"/>
<path fill="#02DDBC" opacity="1.000000" stroke="none" 
	d="
M402.035706,76.721893 
	C401.759155,76.832321 401.617523,76.604233 401.746704,76.148514 
	C401.828064,76.021980 401.981171,76.484482 402.035706,76.721893 
z"/>
<path fill="#02DDBC" opacity="1.000000" stroke="none" 
	d="
M399.858704,71.723923 
	C399.588196,71.794861 399.388824,71.566635 399.131989,71.096436 
	C399.318085,71.080841 399.603149,71.270950 399.858704,71.723923 
z"/>
<path fill="#03B096" opacity="1.000000" stroke="none" 
	d="
M353.087280,128.364426 
	C352.859497,127.257347 352.895050,126.493546 352.851624,125.354370 
	C352.806274,124.238136 352.839844,123.497292 352.889984,121.933670 
	C353.873169,114.434662 354.839844,107.758438 356.179810,101.011230 
	C360.244690,99.273842 363.813263,98.787849 367.149872,102.347351 
	C368.654449,106.961205 371.537384,108.131592 375.989075,108.117783 
	C387.702484,108.081451 399.417755,108.638275 411.132263,108.958839 
	C411.563965,109.236534 411.995697,109.514229 412.698181,110.190453 
	C413.161194,111.767738 413.353424,112.946487 413.788696,115.615738 
	C416.083527,112.697792 417.533417,110.854210 418.852020,108.755753 
	C418.161438,107.998398 417.602173,107.495911 416.878479,106.724945 
	C415.561188,105.637268 414.408325,104.818069 413.255493,103.998871 
	C413.479095,102.230080 413.702728,100.461288 414.488708,98.332130 
	C419.789978,98.783234 422.672302,97.100433 423.033295,92.030266 
	C427.571167,87.663589 432.594910,86.450859 438.796692,90.124619 
	C440.195038,91.721786 441.099365,92.872192 442.104736,94.335358 
	C443.469147,94.440399 444.732513,94.232689 446.330719,94.013947 
	C447.112244,94.004715 447.558899,94.006516 448.285095,94.232536 
	C449.993591,94.638145 451.422546,94.819542 452.851532,95.000946 
	C452.566772,97.154205 453.177826,98.113441 455.675446,98.091537 
	C459.180359,98.060783 462.690399,98.612946 466.602814,99.419296 
	C468.260895,101.282990 469.514374,102.643173 470.767883,104.003365 
	C470.834717,107.366226 470.901520,110.729088 470.560364,114.628342 
	C469.141296,117.219048 468.130188,119.273361 467.119080,121.327682 
	C463.489380,121.953949 459.859650,122.580223 455.510193,122.974869 
	C450.702972,118.733650 448.650665,118.986679 445.999603,123.827072 
	C445.554260,123.868523 445.108948,123.909966 444.304199,123.537628 
	C441.094330,117.885674 436.064087,118.535233 430.622223,118.310791 
	C431.496094,120.708145 432.246826,122.767723 432.997559,124.827301 
	C430.980865,124.936722 428.964203,125.046143 426.318237,124.858597 
	C422.050903,122.535927 416.872681,124.397697 414.174591,119.999626 
	C413.607239,118.933884 413.039856,117.868141 412.472504,116.802399 
	C412.017975,116.998734 411.563446,117.195061 411.108948,117.391396 
	C411.245239,118.278351 411.217621,119.231796 411.545807,120.040924 
	C413.082520,123.829659 410.793976,128.847000 406.964478,129.912292 
	C401.539917,131.421310 392.790344,127.768799 389.926910,122.634018 
	C387.941498,119.073730 386.193878,115.380852 384.127930,111.331589 
	C380.136353,112.680016 376.162720,114.022385 372.325012,115.318825 
	C371.201324,127.491982 367.060852,130.340363 353.087280,128.364426 
M422.805664,110.628601 
	C423.054047,110.735184 423.302460,110.841766 423.550842,110.948349 
	C423.379608,110.777222 423.208374,110.606102 422.805664,110.628601 
z"/>
<path fill="#03B096" opacity="1.000000" stroke="none" 
	d="
M275.980072,87.968597 
	C280.849701,81.456596 287.802246,82.697701 291.236572,87.729721 
	C291.774475,88.517868 292.590088,89.116486 293.595703,89.887161 
	C293.693634,105.040970 277.939209,129.510574 256.682709,127.979866 
	C250.645432,127.545120 246.180908,124.968483 241.466476,120.532867 
	C233.908798,113.422096 232.347366,105.137352 232.480133,95.425110 
	C241.412445,94.661972 249.803879,94.448898 258.173126,93.898674 
	C259.489410,93.812134 260.705200,92.197838 262.395050,91.443733 
	C263.057770,91.788574 263.292877,91.979630 263.695679,92.388840 
	C268.712067,97.519890 273.535309,95.673515 275.980072,87.968597 
z"/>
<path fill="#03AF95" opacity="1.000000" stroke="none" 
	d="
M183.018372,92.040352 
	C187.560974,87.683876 192.584549,86.442474 198.818054,90.158340 
	C201.093018,93.838806 203.670090,94.527672 207.104889,93.538589 
	C208.924103,93.014748 210.929092,93.136032 212.850204,92.966080 
	C212.850204,94.458549 212.850204,95.951027 212.850204,98.017799 
	C216.194595,98.017799 219.471863,97.874535 222.731995,98.049881 
	C228.237152,98.345970 230.753326,101.002167 230.997971,106.516495 
	C231.079086,108.344505 231.031876,110.177826 231.075211,112.007965 
	C231.266296,120.077461 230.838120,121.702362 220.614014,122.881958 
	C208.328415,124.299393 195.955521,124.956276 183.622574,125.968559 
	C175.756546,126.614212 172.351959,123.267784 172.269562,113.555367 
	C172.225052,108.306740 173.374039,103.047981 174.503311,97.388641 
	C178.868103,97.245659 182.653275,97.409271 183.018372,92.040352 
z"/>
<path fill="#03B096" opacity="1.000000" stroke="none" 
	d="
M297.015625,88.032845 
	C303.171234,83.269630 305.680298,83.587692 311.644257,90.284157 
	C311.989105,91.503502 311.925110,92.274132 311.581970,93.098679 
	C310.860870,93.897789 310.418915,94.642967 309.976929,95.388153 
	C310.656189,95.249786 311.335419,95.111420 312.282837,95.177811 
	C313.325470,96.706528 314.099976,98.030479 315.092377,99.581779 
	C317.281738,101.476395 319.253143,103.143669 321.251404,105.201569 
	C323.042206,106.394135 324.767670,107.778915 326.576691,107.898392 
	C334.970123,108.452805 343.386780,108.656357 351.847046,109.337830 
	C350.953064,111.796310 350.007141,113.902473 349.061218,116.008652 
	C336.723236,133.304657 314.725616,129.350357 302.206177,114.187767 
	C298.578094,109.793724 296.723114,103.935638 294.530762,98.365112 
	C296.341919,97.878777 297.677643,97.776039 299.783234,97.614090 
	C298.091034,95.598160 296.969971,94.262627 295.848907,92.927094 
	C295.885193,92.186218 295.921509,91.445343 296.224243,90.147896 
	C296.665680,89.071831 296.840637,88.552338 297.015625,88.032845 
z"/>
<path fill="#5BEBD6" opacity="1.000000" stroke="none" 
	d="
M216.961121,72.619682 
	C215.049347,72.694359 212.297241,73.436363 211.572250,72.539581 
	C210.452179,71.154114 210.470673,68.649002 210.461685,66.616730 
	C210.451294,64.266457 210.934341,61.914005 211.203171,59.562500 
	C208.699387,59.996250 206.149094,60.257156 203.705521,60.914684 
	C201.475784,61.514675 199.402878,62.679043 197.188095,63.356998 
	C192.455750,64.805595 191.358643,63.759724 192.010178,58.312347 
	C191.980179,57.942131 191.992950,58.004021 192.212311,57.908577 
	C192.623642,57.520275 192.815598,57.227413 193.007568,56.934551 
	C193.007568,56.934551 193.005875,57.007553 193.262146,56.903633 
	C193.827789,56.518635 194.137161,56.237560 194.446548,55.956490 
	C194.446548,55.956490 194.482666,56.011559 194.823700,55.927216 
	C195.581940,55.557274 195.999176,55.271675 196.416397,54.986076 
	C196.416397,54.986076 196.440689,55.004169 196.809204,55.004974 
	C197.797623,54.655479 198.417496,54.305180 199.037384,53.954880 
	C199.037384,53.954880 199.013687,54.024208 199.321915,54.053459 
	C200.469238,53.748428 201.308334,53.414146 202.147430,53.079865 
	C207.373459,51.714916 212.599503,50.349960 218.562653,49.147247 
	C220.205139,51.364285 221.110504,53.419086 222.015854,55.473885 
	C222.015854,55.473885 222.087799,55.662621 221.792938,56.012230 
	C221.337357,57.265602 221.176636,58.169365 221.015915,59.073132 
	C221.015915,59.073132 220.989655,58.993999 220.776947,59.223991 
	C220.406311,60.354019 220.248367,61.254051 220.090408,62.154083 
	C220.090408,62.154083 220.041412,62.023727 219.827515,62.282814 
	C219.440277,63.568211 219.266937,64.594521 219.093582,65.620834 
	C219.093582,65.620834 219.116318,65.693008 218.847290,66.001541 
	C218.395187,67.235085 218.212128,68.160095 218.029068,69.085098 
	C218.029068,69.085098 218.001205,68.998962 217.786484,69.248062 
	C217.373779,70.454353 217.175812,71.411545 216.977814,72.368729 
	C216.977814,72.368729 217.029144,72.552673 216.961121,72.619682 
M199.836914,57.055099 
	C198.712845,57.802803 197.588776,58.550503 196.464706,59.298203 
	C196.662643,59.711681 196.860580,60.125164 197.058502,60.538643 
	C198.993912,59.910309 200.932602,59.291813 202.863846,58.650951 
	C204.918411,57.969173 206.922806,56.989498 209.030334,56.661083 
	C210.681870,56.403721 212.865784,56.412350 214.032349,57.313541 
	C214.795532,57.903133 214.398727,60.342312 214.105194,61.873238 
	C213.618439,64.412086 212.796463,66.886665 212.115692,69.388321 
	C215.756317,67.703529 220.107193,55.307659 218.729721,53.112904 
	C218.179306,52.235935 216.161957,51.533085 215.126968,51.833797 
	C210.186829,53.269131 205.354752,55.076443 199.836914,57.055099 
z"/>
<path fill="#33E4C9" opacity="1.000000" stroke="none" 
	d="
M258.055542,53.309105 
	C268.159271,47.713047 280.065948,51.232830 286.664307,58.885357 
	C289.183411,63.422291 291.403931,67.807892 293.685547,72.533119 
	C289.461151,78.766037 286.359680,78.554512 283.046173,71.981758 
	C279.026245,64.007729 272.934265,59.420216 263.724487,60.039345 
	C258.920410,60.362297 257.500122,58.040779 258.055542,53.309105 
M287.892487,65.805443 
	C282.666168,57.435265 275.467987,52.456482 265.260803,53.185284 
	C263.874359,53.284283 262.602020,54.981209 261.276825,55.938251 
	C262.623627,56.616482 263.994232,57.922218 265.313446,57.872261 
	C274.670319,57.517929 280.558990,62.246712 284.704132,70.131866 
	C285.484497,71.616356 287.420837,72.493156 288.823792,73.650368 
	C288.923340,71.852509 289.102875,70.053535 289.077606,68.257431 
	C289.069153,67.655937 288.538391,67.061798 287.892487,65.805443 
z"/>
<path fill="#03C6A9" opacity="1.000000" stroke="none" 
	d="
M261.967438,91.289932 
	C260.705200,92.197838 259.489410,93.812134 258.173126,93.898674 
	C249.803879,94.448898 241.412445,94.661972 232.566650,94.984680 
	C232.153305,92.433632 232.201660,89.884064 232.778076,87.306831 
	C241.601379,91.775925 250.304062,90.283615 259.251587,89.201241 
	C260.330750,90.013878 261.149109,90.651901 261.967438,91.289932 
z"/>
<path fill="#03D6B6" opacity="1.000000" stroke="none" 
	d="
M258.990723,89.026627 
	C250.304062,90.283615 241.601379,91.775925 233.051849,86.988174 
	C232.872940,86.016800 232.948349,85.336418 233.103287,84.322906 
	C241.099136,84.658760 249.015488,85.327751 257.475891,86.314545 
	C258.343567,87.430443 258.667145,88.228531 258.990723,89.026627 
z"/>
<path fill="#03D3B4" opacity="1.000000" stroke="none" 
	d="
M212.957825,92.596817 
	C210.929092,93.136032 208.924103,93.014748 207.104889,93.538589 
	C203.670090,94.527672 201.093018,93.838806 199.154114,90.332169 
	C200.574814,88.936447 202.177704,87.844376 204.251083,86.411102 
	C205.491409,86.071396 206.261230,86.072891 207.031052,86.074387 
	C209.064713,86.381012 211.098358,86.687630 213.512054,86.990921 
	C213.616531,88.734245 213.340988,90.480896 212.957825,92.596817 
z"/>
<path fill="#001512" opacity="1.000000" stroke="none" 
	d="
M349.373779,116.022400 
	C350.007141,113.902473 350.953064,111.796310 352.009003,109.001854 
	C352.581970,106.926064 353.044952,105.538567 353.679321,103.796181 
	C353.885345,101.007851 353.919952,98.574409 353.968658,95.832184 
	C354.001862,95.318230 354.020966,95.113045 354.040070,94.907867 
	C354.040070,94.907867 354.407654,95.022125 354.780487,95.404221 
	C355.371033,97.551620 355.588745,99.316910 355.806488,101.082207 
	C354.839844,107.758438 353.873169,114.434662 352.825195,121.567284 
	C352.190765,120.835556 351.664703,119.633804 351.075378,118.463928 
	C350.656494,117.632423 350.152374,116.843872 349.373779,116.022400 
z"/>
<path fill="#03CFB0" opacity="1.000000" stroke="none" 
	d="
M182.710022,91.798737 
	C182.653275,97.409271 178.868103,97.245659 174.599396,96.974579 
	C174.466705,95.221123 174.756638,93.476585 175.130539,91.353821 
	C177.610214,91.169441 180.005936,91.363289 182.710022,91.798737 
z"/>
<path fill="#03BFA2" opacity="1.000000" stroke="none" 
	d="
M295.605957,93.165115 
	C296.969971,94.262627 298.091034,95.598160 299.783234,97.614090 
	C297.677643,97.776039 296.341919,97.878777 294.649658,97.979919 
	C294.649719,96.453262 295.006348,94.928200 295.605957,93.165115 
z"/>
<path fill="#08E0BF" opacity="1.000000" stroke="none" 
	d="
M222.348328,55.182213 
	C221.110504,53.419086 220.205139,51.364285 218.961365,49.123154 
	C219.903915,48.557846 221.184891,48.178871 223.200577,47.582539 
	C222.993347,50.496220 222.837067,52.693378 222.348328,55.182213 
z"/>
<path fill="#08E0BF" opacity="1.000000" stroke="none" 
	d="
M201.786270,53.043518 
	C201.308334,53.414146 200.469238,53.748428 199.286926,54.042587 
	C199.770859,53.670696 200.597977,53.338932 201.786270,53.043518 
z"/>
<path fill="#08E0BF" opacity="1.000000" stroke="none" 
	d="
M221.319061,58.872837 
	C221.176636,58.169365 221.337357,57.265602 221.714813,56.076210 
	C221.828415,56.751236 221.725311,57.711887 221.319061,58.872837 
z"/>
<path fill="#08E0BF" opacity="1.000000" stroke="none" 
	d="
M220.396393,61.968842 
	C220.248367,61.254051 220.406311,60.354019 220.816376,59.210449 
	C220.946472,59.905807 220.824432,60.844700 220.396393,61.968842 
z"/>
<path fill="#08E0BF" opacity="1.000000" stroke="none" 
	d="
M218.342224,68.889191 
	C218.212128,68.160095 218.395187,67.235085 218.813751,66.019081 
	C218.917969,66.716476 218.786682,67.704880 218.342224,68.889191 
z"/>
<path fill="#08E0BF" opacity="1.000000" stroke="none" 
	d="
M219.402878,65.368858 
	C219.266937,64.594521 219.440277,63.568211 219.893295,62.259975 
	C220.019379,63.024330 219.865784,64.070610 219.402878,65.368858 
z"/>
<path fill="#08E0BF" opacity="1.000000" stroke="none" 
	d="
M217.291229,72.148712 
	C217.175812,71.411545 217.373779,70.454353 217.829559,69.234177 
	C217.926453,69.957024 217.765549,70.942856 217.291229,72.148712 
z"/>
<path fill="#03BFA2" opacity="1.000000" stroke="none" 
	d="
M296.812073,88.007126 
	C296.840637,88.552338 296.665680,89.071831 296.288757,89.782593 
	C296.059723,89.520981 296.032623,89.068085 296.102173,88.287491 
	C296.198761,87.959778 296.608521,87.981415 296.812073,88.007126 
z"/>
<path fill="#08E0BF" opacity="1.000000" stroke="none" 
	d="
M198.665497,53.962311 
	C198.417496,54.305180 197.797623,54.655479 196.809235,54.991566 
	C197.058365,54.641479 197.675995,54.305607 198.665497,53.962311 
z"/>
<path fill="#08E0BF" opacity="1.000000" stroke="none" 
	d="
M194.102753,55.957474 
	C194.137161,56.237560 193.827789,56.518635 193.225632,56.903137 
	C192.932846,57.006569 192.988113,56.541897 193.035492,56.312771 
	C193.308228,56.041912 193.533600,56.000183 194.102753,55.957474 
z"/>
<path fill="#08E0BF" opacity="1.000000" stroke="none" 
	d="
M196.015121,55.006672 
	C195.999176,55.271675 195.581940,55.557274 194.794754,55.911362 
	C194.821136,55.662323 195.217484,55.344795 196.015121,55.006672 
z"/>
<path fill="#5BEBD6" opacity="1.000000" stroke="none" 
	d="
M456.963654,72.621582 
	C455.051147,72.695610 452.299194,73.437927 451.572968,72.540688 
	C450.452271,71.156059 450.470184,68.650139 450.461121,66.617798 
	C450.450623,64.267303 450.934174,61.914608 451.203217,59.562866 
	C448.699219,59.996651 446.148712,60.257587 443.704926,60.915169 
	C441.475006,61.515217 439.401947,62.679779 437.186951,63.357670 
	C432.455505,64.805710 431.358612,63.759377 432.009033,58.310390 
	C431.978668,57.940041 431.992004,58.002411 432.211365,57.907402 
	C432.622681,57.519257 432.814667,57.226120 433.006653,56.932991 
	C433.006653,56.932995 433.004944,57.006763 433.261353,56.902626 
	C433.827667,56.516994 434.137573,56.235497 434.447479,55.953999 
	C434.447479,55.953999 434.481750,56.010658 434.823181,55.926105 
	C435.582520,55.555481 436.000427,55.269405 436.418304,54.983326 
	C436.418304,54.983322 436.446838,55.006020 436.811646,55.005543 
	C437.796570,54.654312 438.416687,54.303555 439.036835,53.952801 
	C439.036835,53.952801 439.012878,54.022766 439.320984,54.052292 
	C440.468506,53.747032 441.307983,53.412247 442.147430,53.077461 
	C447.372559,51.712521 452.597656,50.347580 458.560120,49.145412 
	C460.203918,51.364540 461.110413,53.420891 462.016907,55.477245 
	C462.016907,55.477249 462.090912,55.664196 461.795349,56.012810 
	C461.339111,57.265766 461.178436,58.170113 461.017792,59.074459 
	C461.017792,59.074459 460.991119,58.994801 460.778259,59.224617 
	C460.407776,60.355198 460.250122,61.255962 460.092499,62.156723 
	C460.092499,62.156723 460.050507,62.024540 459.841370,62.248085 
	C459.406464,63.653645 459.180695,64.835655 458.954926,66.017670 
	C458.954926,66.017670 458.936920,65.969894 458.728760,66.210579 
	C458.357422,67.329651 458.194275,68.208031 458.031097,69.086411 
	C458.031097,69.086411 458.002563,68.999924 457.787659,69.248871 
	C457.374725,70.456001 457.176758,71.414185 456.978790,72.372360 
	C456.978790,72.372360 457.031921,72.555222 456.963654,72.621582 
M456.333984,64.779892 
	C456.536255,64.145447 456.827759,63.524479 456.925934,62.874317 
	C457.457550,59.352760 457.941345,55.823986 458.441620,52.297703 
	C454.818756,52.831905 451.076202,52.966679 447.604889,54.006699 
	C443.724518,55.169285 440.090149,57.152905 435.306030,59.232449 
	C437.203583,60.087357 437.554016,60.397228 437.778625,60.323536 
	C440.929871,59.289845 444.010284,57.980537 447.221100,57.209396 
	C449.348816,56.698387 451.657349,56.940254 453.884918,56.845089 
	C453.814728,59.028549 453.896210,61.230656 453.630676,63.390095 
	C453.377258,65.451149 452.762268,67.467751 452.306213,69.503891 
	C452.890778,69.675072 453.475342,69.846252 454.059875,70.017426 
	C454.756073,68.526840 455.452271,67.036255 456.333984,64.779892 
z"/>
<path fill="#03D3B4" opacity="1.000000" stroke="none" 
	d="
M448.005585,94.008316 
	C447.558899,94.006516 447.112244,94.004715 445.931702,94.001923 
	C444.133118,94.008163 443.068390,94.015381 442.003662,94.022598 
	C441.099365,92.872192 440.195038,91.721786 439.132996,90.298172 
	C440.577209,88.933929 442.179138,87.842880 444.251465,86.410782 
	C445.491455,86.071159 446.261078,86.072594 447.030701,86.074036 
	C449.065155,86.380875 451.099609,86.687714 453.514221,86.991325 
	C453.619293,88.734795 453.344208,90.481483 452.590332,92.603470 
	C450.742920,93.321953 449.374237,93.665138 448.005585,94.008316 
z"/>
<path fill="#03B096" opacity="1.000000" stroke="none" 
	d="
M433.395172,124.872635 
	C432.246826,122.767723 431.496094,120.708145 430.622223,118.310791 
	C436.064087,118.535233 441.094330,117.885674 443.973053,123.475838 
	C440.598450,124.191216 437.195618,124.554596 433.395172,124.872635 
z"/>
<path fill="#03B096" opacity="1.000000" stroke="none" 
	d="
M414.110474,120.392883 
	C416.872681,124.397697 422.050903,122.535927 425.885712,124.878357 
	C422.774384,125.020592 419.414673,125.116135 416.190887,124.500244 
	C415.273041,124.324905 414.750305,122.081291 414.110474,120.392883 
z"/>
<path fill="#03B096" opacity="1.000000" stroke="none" 
	d="
M446.436401,123.892319 
	C448.650665,118.986679 450.702972,118.733650 455.094269,122.974945 
	C452.556488,123.456963 449.714874,123.707260 446.436401,123.892319 
z"/>
<path fill="#03B096" opacity="1.000000" stroke="none" 
	d="
M467.472046,121.228874 
	C468.130188,119.273361 469.141296,117.219048 470.490784,115.082367 
	C469.827759,117.043358 468.826416,119.086708 467.472046,121.228874 
z"/>
<path fill="#08E0BF" opacity="1.000000" stroke="none" 
	d="
M462.349976,55.185612 
	C461.110413,53.420891 460.203918,51.364540 458.958679,49.121696 
	C459.902344,48.555580 461.184723,48.175957 463.204102,47.578159 
	C462.996338,50.495358 462.839691,52.694668 462.349976,55.185612 
z"/>
<path fill="#03B096" opacity="1.000000" stroke="none" 
	d="
M470.724365,103.681152 
	C469.514374,102.643173 468.260895,101.282990 467.002563,99.556923 
	C468.225433,100.580345 469.453125,101.969643 470.724365,103.681152 
z"/>
<path fill="#03B096" opacity="1.000000" stroke="none" 
	d="
M448.285095,94.232529 
	C449.374237,93.665138 450.742920,93.321953 452.481689,92.972427 
	C452.894440,93.419540 452.937103,93.872993 452.915649,94.663696 
	C451.422546,94.819542 449.993591,94.638145 448.285095,94.232529 
z"/>
<path fill="#08E0BF" opacity="1.000000" stroke="none" 
	d="
M459.237183,65.785797 
	C459.180695,64.835655 459.406464,63.653645 459.908051,62.229088 
	C459.962402,63.175667 459.740936,64.364792 459.237183,65.785797 
z"/>
<path fill="#08E0BF" opacity="1.000000" stroke="none" 
	d="
M441.786011,53.040859 
	C441.307983,53.412247 440.468506,53.747032 439.285706,54.041229 
	C439.769745,53.668514 440.597137,53.336388 441.786011,53.040859 
z"/>
<path fill="#08E0BF" opacity="1.000000" stroke="none" 
	d="
M461.321503,58.874489 
	C461.178436,58.170113 461.339111,57.265766 461.716949,56.075737 
	C461.831146,56.751537 461.728180,57.713024 461.321503,58.874489 
z"/>
<path fill="#08E0BF" opacity="1.000000" stroke="none" 
	d="
M460.398804,61.971436 
	C460.250122,61.255962 460.407776,60.355198 460.817963,59.210926 
	C460.948700,59.906994 460.826904,60.846573 460.398804,61.971436 
z"/>
<path fill="#08E0BF" opacity="1.000000" stroke="none" 
	d="
M458.335388,68.905098 
	C458.194275,68.208031 458.357422,67.329651 458.751648,66.199287 
	C458.868378,66.872803 458.754028,67.798294 458.335388,68.905098 
z"/>
<path fill="#08E0BF" opacity="1.000000" stroke="none" 
	d="
M457.292664,72.152222 
	C457.176758,71.414185 457.374725,70.456001 457.830933,69.234718 
	C457.928253,69.958443 457.767395,70.945267 457.292664,72.152222 
z"/>
<path fill="#08E0BF" opacity="1.000000" stroke="none" 
	d="
M438.664551,53.959774 
	C438.416687,54.303555 437.796570,54.654312 436.807739,54.990486 
	C437.056793,54.639519 437.674530,54.303135 438.664551,53.959774 
z"/>
<path fill="#08E0BF" opacity="1.000000" stroke="none" 
	d="
M436.016174,55.003685 
	C436.000427,55.269405 435.582520,55.555481 434.794098,55.910206 
	C434.820404,55.660587 435.217224,55.342316 436.016174,55.003685 
z"/>
<path fill="#08E0BF" opacity="1.000000" stroke="none" 
	d="
M434.102631,55.954704 
	C434.137573,56.235497 433.827667,56.516994 433.224457,56.902069 
	C432.931152,57.005642 432.985931,56.539925 433.032715,56.310181 
	C433.305634,56.038754 433.531708,55.997078 434.102631,55.954704 
z"/>
<path fill="#7DF0DE" opacity="1.000000" stroke="none" 
	d="
M341.223083,64.796898 
	C344.370087,70.220284 347.466797,75.294472 350.009674,80.632484 
	C350.585144,81.840492 349.235809,83.965416 348.772461,85.668259 
	C347.136749,84.698059 344.494293,84.069908 344.029510,82.701874 
	C341.115479,74.124924 335.878967,67.525742 328.324158,62.725704 
	C322.571686,59.070808 316.388733,57.805805 309.745209,60.061825 
	C309.430206,60.168797 309.088013,60.403141 308.800385,60.350277 
	C306.723877,59.968674 304.658203,59.528282 302.589081,59.106529 
	C304.071930,57.377281 305.218994,54.799900 307.092712,54.058105 
	C318.226837,49.650242 327.885986,53.313347 336.681976,60.368851 
	C338.231323,61.611641 339.548096,63.144382 341.223083,64.796898 
z"/>
<path fill="#010705" opacity="1.000000" stroke="none" 
	d="
M354.036255,94.514534 
	C354.020966,95.113045 354.001862,95.318230 353.597504,95.790268 
	C352.467438,96.017197 351.722595,95.977272 350.773193,95.750015 
	C349.797913,95.450134 349.027252,95.337578 348.256561,95.225014 
	C348.489471,95.740150 348.722351,96.255295 348.531677,96.858009 
	C343.639740,97.228363 339.171417,97.511131 334.413452,97.639877 
	C330.758179,92.339851 326.275024,89.979607 321.375061,91.061104 
	C317.036926,92.018585 315.286804,95.212769 314.874451,99.354431 
	C314.099976,98.030479 313.325470,96.706528 312.264465,94.855713 
	C311.939026,93.900818 311.900085,93.472786 311.861145,93.044754 
	C311.925110,92.274132 311.989105,91.503502 311.981079,90.350586 
	C313.879425,85.049492 317.178528,82.262550 322.807678,82.906754 
	C329.267883,83.646057 332.890503,87.580238 335.033600,93.979874 
	C335.731567,94.460320 336.367706,94.321198 337.003815,94.182083 
	C339.522522,93.456421 342.041229,92.730759 345.242676,92.215790 
	C346.569305,91.995949 347.213226,91.565414 347.857178,91.134888 
	C349.013336,90.740471 350.169464,90.346054 351.823029,90.139229 
	C352.836823,90.552162 353.353210,90.777512 353.869568,91.002853 
	C353.923859,92.042305 353.978149,93.081749 354.036255,94.514534 
z"/>
<path fill="#000A08" opacity="1.000000" stroke="none" 
	d="
M353.923370,90.688431 
	C353.353210,90.777512 352.836823,90.552162 352.136414,90.107483 
	C352.422455,89.598511 352.892548,89.308884 353.661591,89.059326 
	C353.966064,89.524261 353.971619,89.949127 353.923370,90.688431 
z"/>
<path fill="#000A08" opacity="1.000000" stroke="none" 
	d="
M336.652771,94.171814 
	C336.367706,94.321198 335.731567,94.460320 335.032318,94.347778 
	C335.413361,94.117920 335.857513,94.139732 336.652771,94.171814 
z"/>
<path fill="#000A08" opacity="1.000000" stroke="none" 
	d="
M347.604065,91.077209 
	C347.213226,91.565414 346.569305,91.995949 345.516296,92.292870 
	C345.855133,91.779350 346.603058,91.399445 347.604065,91.077209 
z"/>
<path fill="#000706" opacity="1.000000" stroke="none" 
	d="
M259.251587,89.201241 
	C258.667145,88.228531 258.343567,87.430443 257.932861,86.312279 
	C258.492279,82.926437 259.617065,79.711105 263.293457,80.179443 
	C266.829681,80.629929 268.376709,83.537094 267.925903,87.890915 
	C266.379517,89.788284 264.953766,90.979485 263.527985,92.170685 
	C263.292877,91.979630 263.057770,91.788574 262.395050,91.443726 
	C261.149109,90.651901 260.330750,90.013878 259.251587,89.201241 
z"/>
<path fill="#03C4A6" opacity="1.000000" stroke="none" 
	d="
M263.695679,92.388840 
	C264.953766,90.979485 266.379517,89.788284 267.975159,88.288300 
	C270.466553,87.986000 272.788055,87.992493 275.544830,87.983788 
	C273.535309,95.673515 268.712067,97.519890 263.695679,92.388840 
z"/>
<path fill="#02DDBC" opacity="1.000000" stroke="none" 
	d="
M393.882446,81.225540 
	C393.363831,81.250420 392.994415,81.112045 392.625031,80.973663 
	C392.816284,80.748703 393.007538,80.523743 393.198792,80.298782 
	C393.476440,80.553291 393.754059,80.807793 393.882446,81.225540 
z"/>
<path fill="#02DEBC" opacity="1.000000" stroke="none" 
	d="
M384.007263,85.650131 
	C383.916809,85.649239 384.011505,85.357788 384.011505,85.357788 
	C384.011505,85.357788 384.097717,85.651031 384.007263,85.650131 
z"/>
<path fill="#03B096" opacity="1.000000" stroke="none" 
	d="
M447.329529,85.872704 
	C446.261078,86.072594 445.491455,86.071159 444.337341,86.101295 
	C442.617584,84.303352 440.507874,82.623466 440.119019,80.611099 
	C439.447815,77.137016 441.395203,74.891830 445.257843,75.043915 
	C449.009155,75.191620 450.067017,77.823662 449.827972,80.860542 
	C449.697998,82.511650 448.399689,84.070770 447.329529,85.872704 
z"/>
<path fill="#03CCAD" opacity="1.000000" stroke="none" 
	d="
M422.627991,92.019363 
	C422.672302,97.100433 419.789978,98.783234 414.627808,97.967773 
	C414.494751,95.895065 414.784943,93.826340 415.154419,91.363342 
	C417.563385,91.315521 419.893005,91.661995 422.627991,92.019363 
z"/>
<path fill="#03B096" opacity="1.000000" stroke="none" 
	d="
M207.329849,85.873016 
	C206.261230,86.072891 205.491409,86.071396 204.337021,86.101578 
	C202.617188,84.303551 200.507416,82.623451 200.118637,80.610909 
	C199.447479,77.136612 201.395203,74.891502 205.257935,75.043633 
	C209.009399,75.191383 210.067322,77.823601 209.828323,80.860550 
	C209.698395,82.511726 208.400009,84.070953 207.329849,85.873016 
z"/>
<path fill="#03D2B3" opacity="1.000000" stroke="none" 
	d="
M356.179810,101.011230 
	C355.588745,99.316910 355.371033,97.551620 354.969727,95.439438 
	C361.018616,91.865623 366.419708,96.393700 372.515503,97.293686 
	C371.806580,99.074623 370.827209,100.526215 369.491089,101.983566 
	C368.420654,102.002365 367.707031,102.015411 366.993408,102.028458 
	C363.813263,98.787849 360.244690,99.273842 356.179810,101.011230 
z"/>
<path fill="#00100E" opacity="1.000000" stroke="none" 
	d="
M369.847839,101.977798 
	C370.827209,100.526215 371.806580,99.074623 372.923157,97.322906 
	C375.108948,97.381744 377.157501,97.740715 379.504333,98.285889 
	C380.214935,99.434235 380.627350,100.396370 380.702698,101.867760 
	C377.141418,103.226006 373.917206,104.074997 370.484772,104.978806 
	C370.236908,103.810905 370.042358,102.894348 369.847839,101.977798 
z"/>
<path fill="#8CF1E2" opacity="1.000000" stroke="none" 
	d="
M372.452637,61.242737 
	C369.194763,66.839752 366.217621,72.185646 362.987732,77.985298 
	C359.224396,74.136108 361.903656,70.553772 363.114166,67.434830 
	C365.661285,60.872032 369.708313,55.309505 377.341125,54.392296 
	C379.378571,54.147465 381.660400,55.936428 383.830048,56.791668 
	C383.652435,57.217770 383.474792,57.643871 383.297150,58.069973 
	C379.775879,59.043850 376.254608,60.017731 372.452637,61.242737 
z"/>
<path fill="#03BCA0" opacity="1.000000" stroke="none" 
	d="
M369.491028,101.983566 
	C370.042358,102.894348 370.236908,103.810905 370.484772,104.978806 
	C373.917206,104.074997 377.141418,103.226006 380.699768,102.191345 
	C388.115631,102.605003 395.191193,103.302025 402.282532,103.749619 
	C404.699768,103.902191 407.156647,103.427574 409.916565,102.956375 
	C410.504150,104.498123 410.770569,106.323029 411.084625,108.553391 
	C399.417755,108.638275 387.702484,108.081451 375.989075,108.117783 
	C371.537384,108.131592 368.654449,106.961205 367.149872,102.347351 
	C367.707031,102.015411 368.420654,102.002365 369.491028,101.983566 
z"/>
<path fill="#03B096" opacity="1.000000" stroke="none" 
	d="
M413.170654,104.412598 
	C414.408325,104.818069 415.561188,105.637268 416.935944,107.026932 
	C417.766327,108.068466 418.374817,108.539543 418.983307,109.010620 
	C417.533417,110.854210 416.083527,112.697792 413.788696,115.615738 
	C413.353424,112.946487 413.161194,111.767738 412.956909,110.222389 
	C412.991882,108.179306 413.038849,106.502815 413.170654,104.412598 
z"/>
<path fill="#08E0BF" opacity="1.000000" stroke="none" 
	d="
M432.736206,57.002068 
	C432.814667,57.226120 432.622681,57.519257 432.179504,57.908157 
	C432.107452,57.693001 432.286591,57.382076 432.736206,57.002068 
z"/>
<path fill="#08E0BF" opacity="1.000000" stroke="none" 
	d="
M192.737488,57.003922 
	C192.815598,57.227413 192.623642,57.520275 192.180740,57.908989 
	C192.109009,57.694324 192.288223,57.383808 192.737488,57.003922 
z"/>
<path fill="#03B096" opacity="1.000000" stroke="none" 
	d="
M442.104736,94.335358 
	C443.068390,94.015381 444.133118,94.008163 445.596863,94.012955 
	C444.732513,94.232689 443.469147,94.440399 442.104736,94.335358 
z"/>
<path fill="#03AD93" opacity="1.000000" stroke="none" 
	d="
M422.921387,110.531784 
	C423.208374,110.606102 423.379608,110.777222 423.550842,110.948349 
	C423.302460,110.841766 423.054047,110.735184 422.921387,110.531784 
z"/>
<path fill="#03AD93" opacity="1.000000" stroke="none" 
	d="
M418.852020,108.755753 
	C418.374817,108.539543 417.766327,108.068466 417.100342,107.295410 
	C417.602173,107.495911 418.161438,107.998398 418.852020,108.755753 
z"/>
<path fill="#03BA9F" opacity="1.000000" stroke="none" 
	d="
M353.507935,104.151062 
	C353.044952,105.538567 352.581970,106.926064 351.957062,108.649544 
	C343.386780,108.656357 334.970123,108.452805 326.576691,107.898392 
	C324.767670,107.778915 323.042206,106.394135 321.530762,105.223305 
	C322.155914,104.898788 322.528625,104.943161 323.071655,105.172325 
	C323.832916,105.301483 324.423889,105.245842 325.395935,105.114182 
	C329.712860,104.602562 332.757690,102.928963 334.367371,98.969086 
	C334.559937,98.944275 334.940063,98.865082 334.922607,99.194305 
	C336.069366,100.671715 337.111938,102.627937 338.419281,102.824638 
	C343.402557,103.574387 348.471161,103.756729 353.507935,104.151062 
z"/>
<path fill="#F6DA0F" opacity="1.000000" stroke="none" 
	d="
M322.901306,104.987526 
	C322.528625,104.943161 322.155914,104.898788 321.503906,104.832680 
	C319.253143,103.143669 317.281738,101.476395 315.092377,99.581779 
	C315.286804,95.212769 317.036926,92.018585 321.375061,91.061104 
	C326.275024,89.979607 330.758179,92.339851 334.447815,97.688614 
	C334.771790,97.891373 334.881409,97.841064 334.558716,97.777435 
	C334.215607,98.140495 334.195190,98.567192 334.174805,98.993889 
	C332.757690,102.928963 329.712860,104.602562 325.135590,105.016121 
	C323.963226,104.991890 323.432251,104.989708 322.901306,104.987526 
M321.245300,94.283882 
	C317.761749,96.256752 317.305878,98.015144 321.297363,100.109680 
	C326.851074,103.024010 327.382690,103.003693 331.729767,96.475174 
	C328.177216,95.585480 325.094971,94.813568 321.245300,94.283882 
z"/>
<path fill="#0ADFBF" opacity="1.000000" stroke="none" 
	d="
M311.582001,93.098679 
	C311.900085,93.472786 311.939026,93.900818 311.996338,94.650955 
	C311.335419,95.111420 310.656189,95.249786 309.976929,95.388153 
	C310.418915,94.642967 310.860870,93.897789 311.582001,93.098679 
z"/>
<path fill="#9AF3E5" opacity="1.000000" stroke="none" 
	d="
M200.160583,56.903282 
	C205.354752,55.076443 210.186829,53.269131 215.126968,51.833797 
	C216.161957,51.533085 218.179306,52.235935 218.729721,53.112904 
	C220.107193,55.307659 215.756317,67.703529 212.115692,69.388321 
	C212.796463,66.886665 213.618439,64.412086 214.105194,61.873238 
	C214.398727,60.342312 214.795532,57.903133 214.032349,57.313541 
	C212.865784,56.412350 210.681870,56.403721 209.030334,56.661083 
	C206.922806,56.989498 204.918411,57.969173 202.863846,58.650951 
	C200.932602,59.291813 198.993912,59.910309 197.058502,60.538643 
	C196.860580,60.125164 196.662643,59.711681 196.464706,59.298203 
	C197.588776,58.550503 198.712845,57.802803 200.160583,56.903282 
z"/>
<path fill="#8AF1E1" opacity="1.000000" stroke="none" 
	d="
M288.069427,66.134872 
	C288.538391,67.061798 289.069153,67.655937 289.077606,68.257431 
	C289.102875,70.053535 288.923340,71.852509 288.823792,73.650368 
	C287.420837,72.493156 285.484497,71.616356 284.704132,70.131866 
	C280.558990,62.246712 274.670319,57.517929 265.313446,57.872261 
	C263.994232,57.922218 262.623627,56.616482 261.276825,55.938255 
	C262.602020,54.981209 263.874359,53.284283 265.260803,53.185284 
	C275.467987,52.456482 282.666168,57.435265 288.069427,66.134872 
z"/>
<path fill="#03C6A9" opacity="1.000000" stroke="none" 
	d="
M353.679321,103.796173 
	C348.471161,103.756729 343.402557,103.574387 338.419281,102.824638 
	C337.111938,102.627937 336.069366,100.671715 334.951141,98.935829 
	C334.958557,98.179108 334.919983,98.010086 334.881409,97.841064 
	C334.881409,97.841064 334.771790,97.891373 334.737427,97.842636 
	C339.171417,97.511131 343.639740,97.228363 348.817383,96.880524 
	C350.010376,96.522758 350.494080,96.230057 350.977783,95.937347 
	C351.722595,95.977272 352.467438,96.017197 353.583405,96.099045 
	C353.919952,98.574409 353.885345,101.007851 353.679321,103.796173 
z"/>
<path fill="#9AF3E5" opacity="1.000000" stroke="none" 
	d="
M456.241211,65.162781 
	C455.452271,67.036255 454.756073,68.526840 454.059875,70.017426 
	C453.475342,69.846252 452.890778,69.675072 452.306213,69.503891 
	C452.762268,67.467751 453.377258,65.451149 453.630676,63.390095 
	C453.896210,61.230656 453.814728,59.028549 453.884918,56.845089 
	C451.657349,56.940254 449.348816,56.698387 447.221100,57.209396 
	C444.010284,57.980537 440.929871,59.289845 437.778625,60.323536 
	C437.554016,60.397228 437.203583,60.087357 435.306030,59.232449 
	C440.090149,57.152905 443.724518,55.169285 447.604889,54.006699 
	C451.076202,52.966679 454.818756,52.831905 458.441620,52.297699 
	C457.941345,55.823986 457.457550,59.352760 456.925934,62.874317 
	C456.827759,63.524479 456.536255,64.145447 456.241211,65.162781 
z"/>
<path fill="#000A08" opacity="1.000000" stroke="none" 
	d="
M350.773193,95.750015 
	C350.494080,96.230057 350.010376,96.522758 349.240967,96.792946 
	C348.722351,96.255295 348.489471,95.740150 348.256561,95.225014 
	C349.027252,95.337578 349.797913,95.450134 350.773193,95.750015 
z"/>
<path fill="#03B096" opacity="1.000000" stroke="none" 
	d="
M323.071655,105.172325 
	C323.432251,104.989708 323.963226,104.991890 324.754517,105.092133 
	C324.423889,105.245842 323.832916,105.301483 323.071655,105.172325 
z"/>
<path fill="#010705" opacity="1.000000" stroke="none" 
	d="
M334.558716,97.777435 
	C334.919983,98.010086 334.958557,98.179108 334.968567,98.606606 
	C334.940063,98.865082 334.559937,98.944275 334.367371,98.969086 
	C334.195190,98.567192 334.215607,98.140495 334.558716,97.777435 
z"/>
<path fill="#000000" opacity="1.000000" stroke="none" 
	d="
M321.629028,94.162773 
	C325.094971,94.813568 328.177216,95.585480 331.729767,96.475174 
	C327.382690,103.003693 326.851074,103.024010 321.297363,100.109680 
	C317.305878,98.015144 317.761749,96.256752 321.629028,94.162773 
z"/>
</svg>