<?xml version="1.0" encoding="utf-8"?>

<!DOCTYPE svg PUBLIC "-//W3C//DTD SVG 1.1//EN" "http://www.w3.org/Graphics/SVG/1.1/DTD/svg11.dtd">
<!-- Uploaded to: SVG Repo, www.svgrepo.com, Generator: SVG Repo Mixer Tools -->
<svg height="800px" width="800px" version="1.1" id="_x32_" xmlns="http://www.w3.org/2000/svg" xmlns:xlink="http://www.w3.org/1999/xlink" 
	 viewBox="0 0 512 512"  xml:space="preserve">
<style type="text/css">
	.st0{fill:#000000;}
</style>
<g>
	<path class="st0" d="M476.741,239.338l-6.61-4.058c-3.554-2.188-6.968-5.152-10.242-8.984
		c-5.711-6.681-10.893-16.038-15.176-27.342c-6.448-16.952-10.862-38.126-13.539-60.463c-2.7-22.337-3.701-45.846-3.701-67.702
		c0-20.917,0.916-40.33,2.126-55.777L430.763,0h-72.326L256,194.998L153.562,0H81.237L82.4,15.005
		c1.211,15.463,2.134,34.867,2.126,55.784c0.008,16.65-0.581,34.262-2.048,51.588c-2.196,25.968-6.455,51.347-13.415,71.628
		c-3.453,10.117-7.58,18.947-12.197,25.922c-4.632,6.999-9.675,12.088-14.997,15.354l-6.611,4.058L34.437,512h174.926L256,464.409
		L302.637,512h174.926L476.741,239.338z M314.337,484.146l-48.398-49.376L256,424.622l-58.337,59.524H62.367l0.698-229.873
		c3.709-2.964,7.13-6.268,10.226-9.907c8.519-10.017,14.927-22.143,20.025-35.527c7.611-20.111,12.275-43.2,15.153-67.02
		c2.87-23.804,3.91-48.321,3.91-71.03c0-15.432-0.482-29.995-1.226-42.944h25.572L256,254.878L375.266,27.845h25.565
		c-0.722,12.949-1.21,27.512-1.21,42.944c0,17.302,0.604,35.651,2.156,53.946c2.351,27.434,6.758,54.683,14.804,78.277
		c4.042,11.793,9,22.702,15.323,32.268c4.787,7.246,10.404,13.764,17.03,19.056l0.698,229.81H314.337z"/>
	<path class="st0" d="M256,275.191c-9.356,0-16.937,7.587-16.937,16.945c0,9.341,7.58,16.929,16.937,16.929
		c9.35,0,16.937-7.588,16.937-16.929C272.937,282.778,265.349,275.191,256,275.191z"/>
	<path class="st0" d="M256,357.3c-9.356,0-16.937,7.58-16.937,16.937c0,9.358,7.58,16.946,16.937,16.946
		c9.35,0,16.937-7.588,16.937-16.946C272.937,364.88,265.349,357.3,256,357.3z"/>
	<polygon class="st0" points="281.021,0.721 230.979,0.721 226.541,40.353 285.459,40.353 	"/>
	<polygon class="st0" points="285.459,105.509 282.239,52.13 229.753,52.13 226.541,105.509 256,155.32 	"/>
</g>
</svg>