<svg xmlns="http://www.w3.org/2000/svg" enable-background="new 0 0 1600 1200" viewBox="0 0 1600 1200">
<path fill="none" stroke="#038BC2" stroke-miterlimit="10" stroke-width="4" d="M1289.7 409.8h-150.9c-6.6 0-12-5.4-12-12v-8.9c0-6.6 5.4-12 12-12h150.9c6.6 0 12 5.4 12 12v8.9c0 6.6-5.4 12-12 12z" opacity=".68"/>
<path fill="#038BC2" d="M966.2 451.7H777.7c-6.6 0-12-5.4-12-12v-37.5c0-6.6 5.4-12 12-12h188.5c6.6 0 12 5.4 12 12v37.5c0 6.6-5.4 12-12 12zM825.3 564.3h-35c-6.6 0-12-5.4-12-12v-58.5c0-6.6 5.4-12 12-12h35c6.6 0 12 5.4 12 12v58.5c0 6.6-5.4 12-12 12z" opacity=".68"/>
<path fill="#038BC2" stroke="#038BC2" stroke-miterlimit="10" d="M983.9 478.4c-.1.5-3.5.1-8.8.9-2.7.3-5.8 1-9.3 1.7-3.5.8-7.4 1.7-11.7 2.3-8.5 1.3-16.5.2-21.8-1.4-5.4-1.6-8.3-3.5-8.2-3.9.2-.5 3.4.6 8.7 1.6 5.3 1 12.7 1.7 20.8.4 4.1-.6 8-1.4 11.6-2 3.6-.6 6.9-1 9.7-1.1 5.7-.1 9.1 1.2 9 1.5zM943.6 492.3c.1.9-4.7 2.2-10.8 2.7-6.1.5-11.1 0-11.1-.9s4.8-1.9 10.8-2.4c6.1-.5 11-.3 11.1.6zM986.1 501.1c0 .9-11.3 1.5-25.2 2.3-13.9.7-25.2 1.3-25.3.4-.1-.9 11.1-2.9 25.1-3.6 14-.8 25.4.1 25.4.9z" opacity=".68"/>
<ellipse cx="955" cy="528.4" fill="#038BC2" stroke="#038BC2" stroke-miterlimit="10" opacity=".68" rx="27.4" ry="1.6"/>
<ellipse cx="940.7" cy="514.7" fill="#038BC2" stroke="#038BC2" stroke-miterlimit="10" opacity=".68" rx="12.4" ry="1.6" transform="matrix(.9999 -.01062 .01062 .9999 -5.414 10.022)"/>
<ellipse cx="955" cy="528.4" fill="#038BC2" stroke="#038BC2" stroke-miterlimit="10" opacity=".68" rx="27.4" ry="1.6"/>
<ellipse cx="940.7" cy="514.7" fill="#038BC2" stroke="#038BC2" stroke-miterlimit="10" opacity=".68" rx="12.4" ry="1.6" transform="matrix(.9999 -.01062 .01062 .9999 -5.414 10.022)"/>
<path fill="#038BC2" stroke="#038BC2" stroke-miterlimit="10" d="M983.9 478.4c-.1.5-3.5.1-8.8.9-2.7.3-5.8 1-9.3 1.7-3.5.8-7.4 1.7-11.7 2.3-8.5 1.3-16.5.2-21.8-1.4-5.4-1.6-8.3-3.5-8.2-3.9.2-.5 3.4.6 8.7 1.6 5.3 1 12.7 1.7 20.8.4 4.1-.6 8-1.4 11.6-2 3.6-.6 6.9-1 9.7-1.1 5.7-.1 9.1 1.2 9 1.5zM943.6 492.3c.1.9-4.7 2.2-10.8 2.7-6.1.5-11.1 0-11.1-.9s4.8-1.9 10.8-2.4c6.1-.5 11-.3 11.1.6zM986.1 501.1c0 .9-11.3 1.5-25.2 2.3-13.9.7-25.2 1.3-25.3.4-.1-.9 11.1-2.9 25.1-3.6 14-.8 25.4.1 25.4.9z" opacity=".68"/>
<ellipse cx="1158.6" cy="395.1" fill="#038BC2" stroke="#038BC2" stroke-miterlimit="10" opacity=".68" rx=".4" ry="1.6"/>
<path fill="#038BC2" stroke="#038BC2" stroke-miterlimit="10" d="M1268.7 386c0 .4-7.1 1.2-18.6 1.9-11.5.7-27.4 1.4-45 1.8-17.6.4-33.5.4-45 .2s-18.7-.6-18.7-1c0-.5 7.1-.9 18.6-1.3 11.5-.4 27.4-.8 45-1.2 17.6-.4 33.5-.7 45-.8 11.6-.2 18.7-.1 18.7.4z" opacity=".68"/>
<path fill="#038BC2" stroke="#038BC2" stroke-miterlimit="10" d="M1202.8 395.5c.1.9-9.9 2.3-22.3 2.4-12.4.1-22.4-1.3-22.3-2.1.1-.9 10-1.1 22.3-1.1 12.3-.1 22.3-.1 22.3.8zM1272.4 400.4c-.1.5-3.1.2-7.9-.1-2.4-.2-5.3-.3-8.5-.4-3.2-.1-6.7-.1-10.4-.1-7.4.1-14.1.2-18.9.3-4.9 0-7.9-.2-7.9-.6 0-.4 2.9-1.1 7.8-1.7 4.8-.6 11.6-1.2 19.1-1.2 3.7 0 7.3.1 10.6.4 3.2.3 6.1.6 8.6 1.1 4.7.8 7.6 1.8 7.5 2.3zM1303.1 430.9c0 .9-16.7 2.3-37.4 1.8-20.7-.5-37.3-2.9-37.2-3.7.1-.9 16.7 0 37.3.5 20.6.5 37.3.5 37.3 1.4zM1244.6 439.8c0 .9-6.5 1.6-14.5 1.6-5.2 0-9.8-.3-12.3-.8l.7-1.4c.1.4.5.7.7.8.3.2.5.3.5.4 0 .1-.1.4-.6.5-.5.1-1.3 0-2-.7l-1-1.1 1.7-.3c2.6-.5 7.1-.8 12.3-.8 8 .1 14.5.9 14.5 1.8zM1303.2 446.7c.1.9-19.4 3-43.4 4.7-24.1 1.7-43.6 2.4-43.7 1.5s19.4-3 43.4-4.7c24-1.8 43.6-2.4 43.7-1.5zM1258.5 460.8c.1.9-6.1 2.4-13.8 2.6-7.8.3-14-.8-14-1.7 0-.9 6.2-1.3 13.9-1.6 7.5-.1 13.8-.2 13.9.7zM1296.6 472.1c-.1.5-4.7-.2-12-.4-.9 0-1.9-.1-2.9-.1h-3.1c-2.2 0-4.5.1-6.9.1-4.9.2-10.2.6-15.9 1.2-11.3 1.2-21.5 2.6-28.9 3.2-7.5.6-12.1.6-12.1.2 0-.5 4.5-1.2 11.9-2.4 7.3-1.2 17.5-2.9 28.9-4.1 5.7-.6 11.2-.9 16.1-1 2.5 0 4.9 0 7.1.2 1.1.1 2.2.1 3.2.2s2 .2 2.9.3c7.3.8 11.7 2.3 11.7 2.6zM1289.2 483.4c-.1.5-3.4 0-8.6.1h-2.1c-.7 0-1.5.1-2.2.1-1.5.1-3.2.3-4.9.4-3.5.4-7.2 1-11.2 1.6-4 .7-7.8 1.3-11.4 1.8-3.5.5-6.7.7-9.4.8-5.4.1-8.7-.5-8.7-.9 0-.5 3.3-.7 8.5-1.4 2.6-.3 5.7-.9 9.2-1.5 3.5-.6 7.2-1.3 11.3-2 4-.7 7.9-1.2 11.5-1.4 1.8-.1 3.5-.2 5.1-.1.8 0 1.6 0 2.3.1.7.1 1.5.1 2.1.2 5.5.5 8.6 1.8 8.5 2.2z" opacity=".68"/>


<path stroke="#000" stroke-miterlimit="10" d="M769.6 599.3c-.2 0-.8-3.1-1.6-8.6-.8-5.6-1.8-13.7-2.9-23.7-2.3-20-5.1-47.7-7.6-78.4-2.5-30.6-4.2-58.4-5.2-78.6-.5-10.1-.8-18.2-.9-23.8-.1-5.6-.1-8.8.1-8.8s.6 3.1 1.1 8.7c.5 5.6 1.2 13.7 2 23.8 1.6 20.1 3.8 47.8 6.2 78.4 2.6 30.6 4.9 58.3 6.6 78.4.9 10 1.5 18.2 1.9 23.8.4 5.7.5 8.8.3 8.8z"/>

<path stroke="#000" stroke-miterlimit="10" d="M897.7 592.9c0 .5-6.3.5-16.4.4-10.1 0-24.1 0-39.5.5-15.4.5-29.3 1.4-39.4 2-10.1.7-16.3 1.1-16.4.6-.1-.4 6.1-1.6 16.2-2.9 10.1-1.3 24-2.5 39.5-3s29.5-.2 39.6.5c10.2.6 16.4 1.4 16.4 1.9z"/>

<path stroke="#000" stroke-miterlimit="10" d="M985.9 354.5c0 .2-3.2.2-9 0-1.4-.1-3.1-.1-4.8-.2-1.8 0-3.7-.1-5.7-.2-4.1-.1-8.8-.3-14-.4-2.6-.1-5.3-.1-8.1-.2-2.8 0-5.8-.1-8.8-.1-6.1-.1-12.6 0-19.4 0-13.7.2-28.7.6-44.5 1.4-15.8.9-30.8 2.1-44.4 3.4-6.8.7-13.3 1.3-19.3 2.1-3 .4-5.9.7-8.8 1-2.8.4-5.5.7-8.1 1-5.1.6-9.8 1.3-13.9 1.9-2 .3-3.9.5-5.7.8-1.7.3-3.3.5-4.8.7-5.7.8-8.9 1.2-9 .9 0-.2 3.1-1 8.8-2.2 1.4-.3 3-.6 4.7-1 1.7-.3 3.6-.7 5.7-1 4.1-.7 8.7-1.6 13.8-2.4 2.6-.4 5.3-.8 8.1-1.3 2.8-.4 5.7-.8 8.8-1.2 6-.9 12.5-1.6 19.4-2.4 13.7-1.5 28.7-2.8 44.5-3.7 15.8-.8 30.9-1.2 44.7-1.2 6.9.1 13.4.1 19.5.3 3.1.1 6 .1 8.8.3 2.8.1 5.5.3 8.1.4 5.2.2 9.9.6 14 .9 2.1.2 4 .3 5.7.4 1.8.2 3.4.3 4.8.5 5.7.9 8.9 1.3 8.9 1.5z"/>

<path stroke="#000" stroke-miterlimit="10" d="M1002.9 548.7c-.2 0-.7-2.5-1.3-7.1-.7-4.6-1.5-11.3-2.4-19.5-1.8-16.5-3.8-39.4-5.4-64.7-1.6-25.3-2.3-48.2-2.6-64.8-.1-8.3-.1-15 0-19.7.1-4.6.2-7.2.5-7.2.2 0 .5 2.6.8 7.2.3 4.6.7 11.3 1.1 19.6.8 16.6 2 39.4 3.5 64.7 1.6 25.3 3.2 48.1 4.4 64.7.6 8.3 1.1 15 1.3 19.6.3 4.6.3 7.2.1 7.2z"/>

<path stroke="#000" stroke-miterlimit="10" d="M1109.2 372.4c-.9.2-2.1-2.2-2.2-5.4-.1-3.2 1-5.7 1.8-5.6.9.1 1.3 2.6 1.4 5.4.2 3-.1 5.4-1 5.6z"/>

<path stroke="#000" stroke-miterlimit="10" d="M1314.5 354.1c0 .2-2.8.6-7.8 1-5 .5-12.4 1-21.4 1.6-18.1 1.2-43.1 2.7-70.7 4.1-13.8.7-27 1.3-38.9 1.9-12 .5-22.8 1-31.9.9-9.1-.1-16.5-.7-21.5-1.4s-7.8-1.4-7.7-1.6c0-.2 2.8.1 7.9.4 5 .3 12.3.6 21.4.4 9-.2 19.8-.9 31.7-1.6 12-.7 25.1-1.4 38.9-2.1 27.6-1.4 52.6-2.5 70.7-3.1 9.1-.3 16.4-.5 21.5-.6s7.8-.2 7.8.1z"/>

<path stroke="#000" stroke-miterlimit="10" d="M1319.6 532.7c-.2 0-.6-2.2-1.2-6.3s-1.3-10-2-17.3c-1.5-14.6-3-34.9-3.8-57.3-.8-22.4-.8-42.7-.5-57.4.2-7.3.4-13.3.7-17.4.3-4.1.5-6.4.7-6.4.2 0 .4 2.3.5 6.4.1 4.1.2 10 .3 17.4.2 14.7.6 34.9 1.4 57.3.8 22.4 2 42.6 2.9 57.2.4 7.3.8 13.2 1 17.3.2 4.2.2 6.5 0 6.5z"/>

<path stroke="#000" stroke-miterlimit="10" d="M1300.5 530.1c0 .5-5 1-13.1 1.7s-19.3 1.7-31.7 2.7c-12.4.9-23.6 1.6-31.8 1.9-8.2.3-13.2.3-13.2-.2 0-.4 5-1.2 13.1-2.1 8.1-.9 19.3-1.9 31.7-2.9 12.4-1 23.7-1.6 31.8-1.7 8.1-.1 13.1.2 13.2.6z"/>



</svg>