<svg id="svg" version="1.1" xmlns="http://www.w3.org/2000/svg" xmlns:xlink="http://www.w3.org/1999/xlink" width="400" height="372.1107927411652" viewBox="0, 0, 400,372.1107927411652"><g id="svgg"><path id="path0" d="M212.104 66.867 C 210.261 67.353,207.328 68.090,205.587 68.504 C 201.794 69.406,183.743 73.965,177.467 75.606 C 175.009 76.249,168.641 77.857,163.315 79.180 C 157.989 80.503,150.698 82.343,147.114 83.268 C 138.587 85.468,124.998 88.892,107.263 93.310 C 85.816 98.652,85.643 98.701,85.231 99.605 C 84.965 100.189,85.353 102.268,86.768 107.829 C 88.786 115.758,98.657 154.952,113.028 212.104 C 117.870 231.359,122.901 251.304,124.207 256.425 C 125.514 261.546,130.041 279.479,134.268 296.276 C 147.582 349.184,150.108 359.171,150.195 359.238 C 151.417 360.180,152.159 360.035,173.035 354.767 C 184.691 351.825,207.970 345.956,224.767 341.725 C 241.564 337.493,260.838 332.628,267.598 330.915 C 274.358 329.201,294.888 324.017,313.222 319.395 C 352.397 309.517,349.219 310.371,349.493 309.658 C 349.678 309.176,346.169 294.544,344.274 287.896 C 343.953 286.769,343.554 285.261,343.388 284.544 C 343.221 283.827,342.156 279.553,341.021 275.047 C 339.886 270.540,337.336 260.400,335.355 252.514 C 333.373 244.628,330.420 232.980,328.792 226.629 C 325.210 212.660,325.267 212.885,324.803 210.801 C 324.598 209.879,324.085 207.868,323.663 206.331 C 323.241 204.795,322.735 202.784,322.538 201.862 C 322.342 200.940,321.686 198.259,321.080 195.903 C 320.473 193.547,319.541 189.860,319.007 187.709 C 318.474 185.559,317.881 183.212,317.691 182.495 C 317.500 181.778,316.410 177.337,315.267 172.626 C 314.125 167.914,312.787 162.635,312.295 160.894 C 311.803 159.153,310.967 155.968,310.437 153.818 C 309.907 151.667,308.970 147.980,308.355 145.624 C 307.740 143.268,306.917 140.000,306.526 138.361 C 306.135 136.723,305.459 133.957,305.025 132.216 C 304.019 128.183,303.680 126.758,303.344 125.140 C 302.818 122.607,300.906 115.733,300.535 115.040 C 299.991 114.024,299.710 114.070,287.978 117.115 C 276.635 120.059,266.583 122.652,248.915 127.191 C 232.284 131.463,233.292 131.980,229.636 117.318 C 220.810 81.918,216.811 66.555,216.348 66.262 C 215.718 65.863,216.137 65.803,212.104 66.867 M223.225 67.505 C 223.881 70.943,224.294 72.752,225.160 75.978 C 226.542 81.122,226.738 81.904,227.216 84.171 C 227.454 85.298,227.954 87.309,228.328 88.641 C 228.703 89.972,229.760 93.994,230.679 97.579 C 231.597 101.164,232.678 105.354,233.080 106.890 C 233.482 108.426,234.434 112.365,235.195 115.642 C 237.369 124.999,236.560 124.545,246.369 121.924 C 255.025 119.611,261.834 117.859,268.156 116.319 C 271.946 115.396,276.454 114.215,278.175 113.695 C 279.895 113.174,282.577 112.453,284.134 112.091 C 294.523 109.680,296.754 108.922,296.368 107.939 C 296.218 107.556,283.738 100.129,282.153 99.479 C 281.953 99.397,280.792 98.685,279.571 97.896 C 278.351 97.107,277.194 96.462,277.002 96.462 C 276.809 96.462,276.156 96.109,275.551 95.678 C 274.946 95.248,273.328 94.263,271.956 93.491 C 270.583 92.719,267.700 91.084,265.549 89.858 C 251.493 81.842,241.827 76.320,233.672 71.648 C 223.578 65.865,222.857 65.579,223.225 67.505 " stroke="none" fill="#119dd8" fill-rule="evenodd"></path><path id="path1" d="M227.188 24.019 C 223.808 24.896,217.356 26.566,212.849 27.730 C 208.343 28.895,203.482 30.158,202.048 30.539 C 200.615 30.919,191.061 33.360,180.819 35.963 C 162.868 40.526,154.424 42.681,132.030 48.414 C 126.294 49.883,117.076 52.231,111.546 53.633 C 83.276 60.798,87.298 58.953,82.316 67.039 C 80.613 69.804,77.712 74.497,75.871 77.467 C 74.030 80.438,71.849 83.957,71.026 85.289 C 70.202 86.620,68.740 88.966,67.778 90.503 C 66.816 92.039,63.801 96.899,61.078 101.304 C 58.355 105.708,55.036 111.071,53.703 113.222 C 52.370 115.372,50.242 118.808,48.973 120.857 C 47.704 122.905,44.689 127.762,42.272 131.651 C 35.976 141.781,36.302 139.667,39.254 151.210 C 40.171 154.795,42.094 162.337,43.527 167.970 C 44.961 173.603,47.162 182.235,48.419 187.151 C 50.593 195.662,52.105 201.593,58.051 224.953 C 59.485 230.587,61.602 238.883,62.754 243.389 C 63.907 247.896,66.085 256.443,67.594 262.384 C 69.103 268.324,71.367 277.207,72.625 282.123 C 73.883 287.039,76.085 295.670,77.518 301.304 C 78.951 306.937,81.107 315.400,82.309 320.112 C 83.512 324.823,85.763 333.680,87.313 339.793 C 91.097 354.724,91.161 354.928,92.455 356.137 C 94.164 357.733,95.046 357.586,116.783 352.089 C 140.148 346.180,140.954 346.008,141.711 346.766 C 142.009 347.064,143.097 350.658,144.130 354.752 C 147.132 366.665,146.256 366.311,162.646 362.223 C 168.750 360.700,175.419 359.038,177.467 358.528 C 179.516 358.019,195.857 353.892,213.780 349.357 C 264.985 336.402,280.368 332.513,300.931 327.321 C 311.480 324.658,322.039 321.983,324.395 321.377 C 326.750 320.771,329.348 320.131,330.168 319.954 C 331.746 319.615,350.594 314.830,351.638 314.504 C 355.174 313.401,355.070 311.247,350.625 293.639 C 348.664 285.871,344.741 270.298,341.907 259.032 C 330.107 212.134,322.275 181.035,317.003 160.149 C 313.926 147.961,309.619 130.866,307.432 122.160 C 305.244 113.454,303.217 105.869,302.926 105.303 C 302.279 104.045,300.737 103.046,290.361 97.168 C 279.314 90.909,279.381 90.948,277.369 89.722 C 276.393 89.127,275.510 88.641,275.407 88.641 C 275.304 88.641,274.008 87.910,272.526 87.017 C 271.045 86.124,268.994 84.923,267.970 84.348 C 253.195 76.050,251.624 75.068,250.958 73.712 C 250.614 73.012,248.657 65.819,246.607 57.728 C 240.668 34.277,238.339 25.572,237.767 24.679 C 236.178 22.200,234.585 22.101,227.188 24.019 M234.414 27.019 C 234.731 27.335,235.148 28.215,235.342 28.974 C 235.536 29.733,236.118 32.030,236.635 34.078 C 237.152 36.127,238.858 42.831,240.427 48.976 C 245.927 70.524,245.850 70.153,244.857 70.534 C 244.150 70.806,243.684 70.567,232.986 64.463 C 226.369 60.688,224.142 59.590,223.099 59.590 C 221.891 59.590,205.984 63.538,145.810 78.769 C 101.364 90.019,102.810 89.702,102.104 88.361 C 101.333 86.899,96.035 66.336,95.810 63.930 C 95.565 61.328,93.651 62.092,112.291 57.346 C 122.596 54.722,152.322 47.124,176.536 40.926 C 194.590 36.304,208.872 32.679,212.477 31.802 C 214.525 31.304,218.380 30.319,221.043 29.614 C 234.198 26.127,233.632 26.237,234.414 27.019 M91.940 64.711 C 92.268 65.529,97.507 85.702,98.218 88.883 C 98.474 90.028,97.242 91.094,95.104 91.579 C 77.644 95.540,78.496 93.850,83.611 114.386 C 87.716 130.866,87.836 131.493,87.006 132.181 C 86.346 132.729,43.639 143.437,42.648 143.303 C 40.850 143.060,41.073 142.604,50.381 127.561 C 53.042 123.259,56.565 117.561,58.211 114.898 C 62.037 108.704,67.489 99.895,69.274 97.020 C 70.037 95.791,72.216 92.272,74.115 89.199 C 76.015 86.127,78.192 82.607,78.953 81.378 C 79.714 80.149,81.724 76.881,83.419 74.115 C 90.354 62.801,90.923 62.173,91.940 64.711 M223.758 64.397 C 224.850 64.958,291.115 102.811,295.531 105.396 C 296.145 105.756,297.193 106.365,297.859 106.750 C 300.977 108.549,300.130 109.247,292.483 111.182 C 289.038 112.054,282.868 113.639,278.771 114.704 C 274.674 115.769,269.479 117.112,267.225 117.687 C 261.053 119.264,247.287 122.810,242.541 124.046 C 240.230 124.647,238.030 125.140,237.652 125.140 C 236.230 125.140,237.004 127.821,227.517 90.012 C 220.500 62.047,220.607 62.779,223.758 64.397 M217.292 65.762 C 217.614 66.084,217.877 66.430,217.877 66.530 C 217.877 66.631,219.379 72.611,221.215 79.819 C 223.051 87.026,226.339 100.130,228.523 108.939 C 234.266 132.108,232.395 130.494,248.603 126.257 C 250.857 125.668,256.052 124.327,260.149 123.277 C 264.246 122.227,270.196 120.699,273.371 119.882 C 296.783 113.855,299.880 113.132,300.703 113.507 C 301.477 113.860,303.219 119.675,305.415 129.236 C 305.708 130.514,312.807 158.689,322.540 197.207 C 341.679 272.948,350.466 308.288,350.466 309.528 C 350.466 311.122,355.420 309.707,308.007 321.649 C 294.590 325.029,275.987 329.724,266.667 332.082 C 257.346 334.440,240.168 338.778,228.492 341.721 C 197.776 349.463,173.818 355.516,161.370 358.681 C 151.434 361.206,150.435 361.396,149.896 360.856 C 149.541 360.501,147.177 351.752,143.961 338.885 C 141.022 327.126,136.327 308.454,133.528 297.393 C 130.729 286.331,125.175 264.292,121.185 248.417 C 117.195 232.542,112.111 212.346,109.888 203.538 C 107.666 194.730,101.402 169.842,95.969 148.231 C 90.535 126.620,85.575 106.971,84.945 104.567 C 84.314 102.162,83.799 99.864,83.799 99.459 C 83.799 98.121,78.633 99.535,140.968 83.811 C 167.159 77.205,204.509 67.765,210.242 66.304 C 215.055 65.077,216.496 64.966,217.292 65.762 M88.985 136.838 C 89.225 137.127,91.353 145.046,93.714 154.436 C 105.658 201.931,117.778 250.043,127.382 288.082 C 136.715 325.049,140.410 339.986,140.410 340.755 C 140.410 341.767,139.682 342.204,136.641 343.017 C 122.242 346.867,96.880 353.090,95.953 353.000 C 94.512 352.860,94.627 353.180,91.225 339.851 C 89.813 334.320,87.498 325.270,86.080 319.739 C 83.142 308.282,77.010 284.227,65.383 238.547 C 63.193 229.944,59.747 216.453,57.725 208.566 C 55.703 200.680,52.285 187.272,50.130 178.771 C 47.974 170.270,45.450 160.328,44.521 156.677 C 42.690 149.486,42.532 148.197,43.395 147.481 C 44.004 146.976,85.947 136.405,87.571 136.347 C 88.109 136.328,88.746 136.549,88.985 136.838 " stroke="none" fill="#050506" fill-rule="evenodd"></path><path id="path3" d="M227.002 29.088 C 211.999 32.960,213.382 31.361,216.181 41.599 C 220.929 58.972,220.729 58.473,222.957 58.473 C 224.817 58.473,226.516 59.322,237.421 65.702 C 242.457 68.648,242.673 68.735,243.559 68.175 C 244.013 67.887,244.030 67.542,243.660 66.039 C 235.546 33.015,233.775 26.831,232.651 27.604 C 232.617 27.627,230.074 28.295,227.002 29.088 M98.775 61.873 C 96.465 62.539,96.477 63.046,99.036 73.142 C 103.231 89.696,102.752 88.610,105.532 87.856 C 106.382 87.626,107.263 87.388,107.490 87.326 C 108.160 87.144,107.506 83.577,104.999 73.743 C 104.607 72.207,104.036 69.944,103.729 68.715 C 101.738 60.743,101.903 60.971,98.775 61.873 M65.736 142.635 C 42.488 148.475,43.948 148.038,43.948 149.155 C 43.948 152.657,44.857 153.113,49.264 151.820 C 50.949 151.326,54.004 150.552,56.052 150.100 C 58.101 149.649,60.698 148.975,61.825 148.603 C 62.952 148.231,65.549 147.569,67.598 147.131 C 69.646 146.694,72.663 145.943,74.302 145.464 C 75.940 144.985,78.622 144.299,80.261 143.939 C 84.433 143.023,88.230 141.889,88.481 141.484 C 88.597 141.296,88.855 141.243,89.054 141.366 C 89.471 141.624,89.146 139.973,88.499 138.547 C 87.843 137.102,87.557 137.153,65.736 142.635 M131.657 326.291 C 128.605 326.825,113.667 328.460,110.056 328.655 C 92.725 329.591,91.035 329.724,90.534 330.195 C 90.017 330.681,93.749 347.135,95.194 350.745 C 95.862 352.413,95.868 352.413,109.259 348.997 C 115.638 347.369,124.875 345.014,129.785 343.763 C 138.253 341.605,139.273 341.216,139.287 340.144 C 139.292 339.686,135.991 326.546,135.838 326.415 C 135.459 326.092,133.178 326.025,131.657 326.291 " stroke="none" fill="#facc2e" fill-rule="evenodd"></path><path id="path4" d="M211.546 33.137 C 211.034 33.304,209.274 33.787,207.635 34.211 C 205.996 34.635,202.728 35.489,200.372 36.109 C 198.017 36.729,194.413 37.638,192.365 38.130 C 190.317 38.622,182.607 40.573,175.233 42.466 C 141.515 51.119,133.902 53.062,113.222 58.294 C 100.434 61.530,101.424 61.179,101.936 62.291 C 102.306 63.095,102.486 63.740,103.729 68.715 C 104.036 69.944,104.610 72.207,105.005 73.743 C 106.489 79.516,107.016 81.824,107.428 84.358 C 107.940 87.500,106.222 87.571,121.216 83.788 C 155.950 75.024,177.016 69.697,188.827 66.692 C 196.099 64.841,206.178 62.298,211.226 61.040 C 221.185 58.558,221.582 58.420,220.964 57.663 C 220.192 56.719,214.040 34.386,214.288 33.426 C 214.474 32.703,213.268 32.576,211.546 33.137 M89.255 67.132 C 88.753 67.798,87.135 70.348,85.660 72.799 C 84.184 75.251,82.131 78.603,81.097 80.248 C 78.727 84.020,77.275 86.359,73.111 93.110 C 71.280 96.080,68.383 100.773,66.674 103.538 C 64.965 106.304,62.065 110.996,60.229 113.966 C 58.394 116.937,56.263 120.372,55.495 121.601 C 44.744 138.803,43.396 141.124,43.875 141.603 C 44.178 141.906,79.412 133.464,84.790 131.799 C 86.602 131.239,86.616 131.344,82.483 114.815 C 78.137 97.440,78.311 98.458,79.334 96.452 C 80.547 94.076,80.463 94.111,92.924 90.885 C 97.693 89.650,97.558 91.289,94.041 77.318 C 92.505 71.215,91.248 66.155,91.248 66.072 C 91.248 65.477,90.006 66.138,89.255 67.132 M88.497 141.458 C 88.232 141.886,84.526 143.003,80.261 143.939 C 78.622 144.299,75.940 144.985,74.302 145.464 C 72.663 145.943,69.646 146.694,67.598 147.131 C 65.549 147.569,62.952 148.231,61.825 148.603 C 60.698 148.975,58.101 149.649,56.052 150.100 C 54.004 150.552,50.936 151.330,49.234 151.829 C 47.532 152.328,45.815 152.634,45.417 152.507 C 44.478 152.209,43.250 147.051,56.233 197.952 C 64.275 229.484,67.731 243.058,71.517 257.989 C 73.553 266.018,75.546 273.812,75.945 275.307 C 76.711 278.175,82.852 302.311,87.190 319.498 C 90.058 330.859,89.924 330.470,90.799 329.993 C 91.148 329.804,94.870 329.465,99.069 329.241 C 103.268 329.017,108.128 328.757,109.870 328.663 C 113.687 328.457,125.884 327.161,130.563 326.464 C 132.418 326.187,134.363 326.042,134.883 326.142 L 135.829 326.323 133.060 315.396 C 131.536 309.386,127.800 294.581,124.758 282.495 C 121.715 270.410,116.964 251.555,114.201 240.596 C 99.627 182.805,96.467 170.258,93.048 156.611 C 89.430 142.170,88.981 140.675,88.497 141.458 " stroke="none" fill="#fbeb94" fill-rule="evenodd"></path><path id="path5" d="M231.721 21.880 C 230.424 22.172,229.436 22.484,229.525 22.573 C 229.615 22.662,230.675 22.508,231.883 22.230 C 235.533 21.391,238.176 22.909,239.292 26.486 C 239.572 27.384,239.812 27.795,239.826 27.399 C 239.955 23.684,235.917 20.935,231.721 21.880 M227.002 23.091 C 226.053 23.499,227.032 23.499,228.305 23.091 C 229.054 22.852,229.090 22.791,228.492 22.782 C 228.082 22.776,227.412 22.915,227.002 23.091 M224.022 23.836 C 223.073 24.244,224.052 24.244,225.326 23.836 C 226.074 23.596,226.111 23.536,225.512 23.527 C 225.102 23.521,224.432 23.660,224.022 23.836 M221.043 24.581 C 220.094 24.989,221.073 24.989,222.346 24.581 C 223.095 24.341,223.131 24.281,222.533 24.272 C 222.123 24.266,221.453 24.405,221.043 24.581 M218.063 25.326 C 217.114 25.734,218.093 25.734,219.367 25.326 C 220.115 25.086,220.152 25.026,219.553 25.017 C 219.143 25.011,218.473 25.150,218.063 25.326 M215.456 26.071 C 214.987 26.273,214.918 26.391,215.270 26.391 C 215.577 26.391,216.164 26.247,216.574 26.071 C 217.043 25.869,217.112 25.751,216.760 25.751 C 216.453 25.751,215.866 25.895,215.456 26.071 M212.477 26.816 C 211.528 27.223,212.507 27.223,213.780 26.816 C 214.529 26.576,214.565 26.515,213.966 26.507 C 213.557 26.500,212.886 26.640,212.477 26.816 M209.497 27.561 C 208.548 27.968,209.527 27.968,210.801 27.561 C 211.549 27.321,211.586 27.260,210.987 27.251 C 210.577 27.245,209.907 27.384,209.497 27.561 M206.518 28.305 C 205.569 28.713,206.548 28.713,207.821 28.305 C 208.570 28.066,208.606 28.005,208.007 27.996 C 207.598 27.990,206.927 28.129,206.518 28.305 M239.914 28.678 C 239.933 29.646,240.520 31.235,240.533 30.354 C 240.539 29.944,240.400 29.274,240.223 28.864 C 240.027 28.408,239.908 28.336,239.914 28.678 M200.830 29.711 C 198.931 30.227,197.444 30.716,197.527 30.798 C 197.687 30.958,205.291 29.098,205.554 28.834 C 205.899 28.489,204.107 28.822,200.830 29.711 M194.972 31.285 C 194.023 31.693,195.002 31.693,196.276 31.285 C 197.024 31.045,197.061 30.985,196.462 30.976 C 196.052 30.970,195.382 31.109,194.972 31.285 M240.648 31.657 C 240.648 31.965,240.792 32.551,240.968 32.961 C 241.170 33.430,241.288 33.499,241.288 33.147 C 241.288 32.840,241.144 32.253,240.968 31.844 C 240.767 31.374,240.648 31.305,240.648 31.657 M191.993 32.030 L 191.248 32.350 191.993 32.350 C 192.402 32.350,193.073 32.206,193.482 32.030 L 194.227 31.710 193.482 31.710 C 193.073 31.710,192.402 31.854,191.993 32.030 M189.013 32.775 L 188.268 33.095 189.013 33.095 C 189.423 33.095,190.093 32.951,190.503 32.775 L 191.248 32.455 190.503 32.455 C 190.093 32.455,189.423 32.599,189.013 32.775 M210.428 33.147 C 209.680 33.387,209.643 33.447,210.242 33.456 C 210.652 33.462,211.322 33.323,211.732 33.147 C 212.681 32.739,211.702 32.739,210.428 33.147 M184.965 33.734 C 183.968 34.006,183.046 34.340,182.917 34.476 C 182.637 34.771,184.671 34.358,186.770 33.694 C 188.748 33.069,187.287 33.101,184.965 33.734 M206.145 34.264 C 204.916 34.641,204.162 34.960,204.469 34.974 C 204.777 34.988,206.034 34.682,207.263 34.293 C 208.492 33.905,209.246 33.586,208.939 33.584 C 208.631 33.582,207.374 33.888,206.145 34.264 M241.404 34.264 C 241.423 35.232,242.009 36.822,242.022 35.940 C 242.028 35.531,241.889 34.860,241.713 34.451 C 241.517 33.994,241.397 33.922,241.404 34.264 M180.447 35.009 C 179.498 35.417,180.477 35.417,181.750 35.009 C 182.499 34.770,182.535 34.709,181.937 34.700 C 181.527 34.694,180.857 34.833,180.447 35.009 M200.372 35.739 C 197.667 36.642,198.421 36.662,201.490 35.768 C 202.821 35.380,203.575 35.061,203.166 35.059 C 202.756 35.057,201.499 35.363,200.372 35.739 M177.467 35.754 C 176.518 36.162,177.498 36.162,178.771 35.754 C 179.519 35.514,179.556 35.454,178.957 35.445 C 178.547 35.439,177.877 35.578,177.467 35.754 M174.488 36.499 L 173.743 36.819 174.488 36.819 C 174.898 36.819,175.568 36.675,175.978 36.499 L 176.723 36.179 175.978 36.179 C 175.568 36.179,174.898 36.323,174.488 36.499 M194.413 37.244 C 193.082 37.614,192.192 37.933,192.435 37.953 C 192.977 37.997,197.887 36.874,198.105 36.656 C 198.434 36.327,196.741 36.597,194.413 37.244 M171.508 37.244 L 170.764 37.564 171.508 37.564 C 171.918 37.564,172.588 37.420,172.998 37.244 L 173.743 36.924 172.998 36.924 C 172.588 36.924,171.918 37.068,171.508 37.244 M242.149 37.244 C 242.168 38.212,242.754 39.801,242.767 38.920 C 242.773 38.510,242.634 37.840,242.458 37.430 C 242.262 36.974,242.142 36.902,242.149 37.244 M168.343 37.984 C 167.831 38.154,166.278 38.586,164.892 38.943 C 163.507 39.300,162.439 39.658,162.520 39.739 C 162.678 39.897,170.284 38.034,170.545 37.773 C 170.805 37.513,169.337 37.654,168.343 37.984 M189.758 38.361 L 189.013 38.681 189.758 38.681 C 190.168 38.681,190.838 38.537,191.248 38.361 L 191.993 38.041 191.248 38.041 C 190.838 38.041,190.168 38.185,189.758 38.361 M184.070 39.767 C 182.171 40.282,180.695 40.782,180.790 40.877 C 180.960 41.047,188.495 39.170,188.796 38.882 C 189.150 38.543,187.314 38.887,184.070 39.767 M159.963 40.223 L 159.218 40.544 159.963 40.544 C 160.372 40.544,161.043 40.400,161.453 40.223 L 162.197 39.903 161.453 39.903 C 161.043 39.903,160.372 40.047,159.963 40.223 M242.883 40.223 C 242.883 40.531,243.027 41.117,243.203 41.527 C 243.405 41.997,243.523 42.065,243.523 41.713 C 243.523 41.406,243.379 40.819,243.203 40.410 C 243.001 39.940,242.883 39.871,242.883 40.223 M156.983 40.968 L 156.238 41.288 156.983 41.288 C 157.393 41.288,158.063 41.144,158.473 40.968 L 159.218 40.648 158.473 40.648 C 158.063 40.648,157.393 40.792,156.983 40.968 M178.212 41.341 L 177.467 41.661 178.212 41.661 C 178.622 41.661,179.292 41.517,179.702 41.341 L 180.447 41.021 179.702 41.021 C 179.292 41.021,178.622 41.165,178.212 41.341 M153.818 41.709 C 153.305 41.879,151.753 42.310,150.367 42.667 C 148.981 43.024,147.914 43.383,147.995 43.464 C 148.153 43.622,155.759 41.758,156.020 41.497 C 156.280 41.237,154.812 41.378,153.818 41.709 M175.233 42.086 L 174.488 42.406 175.233 42.406 C 175.642 42.406,176.313 42.262,176.723 42.086 L 177.467 41.766 176.723 41.766 C 176.313 41.766,175.642 41.910,175.233 42.086 M172.253 42.831 L 171.508 43.151 172.253 43.151 C 172.663 43.151,173.333 43.007,173.743 42.831 L 174.488 42.510 173.743 42.510 C 173.333 42.510,172.663 42.654,172.253 42.831 M243.639 42.831 C 243.658 43.798,244.244 45.388,244.257 44.507 C 244.263 44.097,244.124 43.426,243.948 43.017 C 243.752 42.560,243.632 42.488,243.639 42.831 M166.566 44.236 C 164.666 44.752,163.180 45.241,163.262 45.323 C 163.422 45.483,171.026 43.623,171.290 43.359 C 171.635 43.014,169.842 43.347,166.566 44.236 M145.438 43.948 C 144.489 44.356,145.468 44.356,146.741 43.948 C 147.490 43.708,147.526 43.648,146.927 43.639 C 146.518 43.633,145.847 43.772,145.438 43.948 M134.078 46.775 C 129.060 48.085,124.146 49.342,123.159 49.568 C 122.172 49.794,121.442 50.058,121.537 50.153 C 121.633 50.248,126.044 49.227,131.340 47.883 C 142.860 44.959,144.930 44.386,143.948 44.390 C 143.538 44.392,139.097 45.465,134.078 46.775 M161.080 45.810 C 160.611 46.012,160.542 46.130,160.894 46.130 C 161.201 46.130,161.788 45.986,162.197 45.810 C 162.667 45.608,162.736 45.490,162.384 45.490 C 162.076 45.490,161.490 45.634,161.080 45.810 M244.384 45.810 C 244.403 46.778,244.989 48.367,245.002 47.486 C 245.008 47.076,244.869 46.406,244.693 45.996 C 244.497 45.540,244.377 45.468,244.384 45.810 M141.990 50.554 C 132.719 52.927,125.205 54.938,125.291 55.024 C 125.377 55.110,129.107 54.253,133.580 53.120 C 163.129 45.635,160.839 46.241,159.590 46.241 C 159.181 46.242,151.260 48.182,141.990 50.554 M245.065 48.553 C 245.065 49.310,247.080 56.710,247.194 56.370 C 247.268 56.149,246.888 54.311,246.349 52.286 C 245.471 48.979,245.065 47.800,245.065 48.553 M118.808 50.657 C 118.296 50.832,115.402 51.599,112.378 52.360 C 109.353 53.121,106.944 53.810,107.024 53.889 C 107.182 54.048,120.745 50.702,121.007 50.440 C 121.275 50.172,119.799 50.318,118.808 50.657 M104.469 54.376 L 103.724 54.696 104.469 54.696 C 104.879 54.696,105.549 54.552,105.959 54.376 L 106.704 54.056 105.959 54.056 C 105.549 54.056,104.879 54.200,104.469 54.376 M95.982 56.507 C 92.338 57.436,89.426 58.266,89.511 58.350 C 89.675 58.514,103.231 55.180,103.502 54.909 C 103.846 54.565,102.366 54.880,95.982 56.507 M123.091 55.493 L 122.346 55.814 123.091 55.834 C 123.501 55.845,124.088 55.692,124.395 55.493 C 125.135 55.015,124.205 55.015,123.091 55.493 M112.673 58.015 C 108.172 59.158,104.663 60.151,104.875 60.222 C 105.184 60.325,120.604 56.575,121.974 56.064 C 123.793 55.385,119.388 56.308,112.673 58.015 M247.363 57.356 C 247.382 58.323,247.968 59.913,247.981 59.032 C 247.987 58.622,247.848 57.952,247.672 57.542 C 247.476 57.086,247.356 57.013,247.363 57.356 M86.872 59.213 C 85.450 60.081,84.870 60.887,80.179 68.529 C 78.229 71.704,75.843 75.559,74.876 77.095 C 72.495 80.876,70.680 83.806,67.033 89.758 C 65.339 92.523,63.160 96.043,62.191 97.579 C 61.222 99.115,59.346 102.132,58.020 104.283 C 56.695 106.434,54.495 109.995,53.131 112.197 C 51.767 114.399,49.589 117.919,48.289 120.019 C 46.990 122.118,43.952 127.020,41.538 130.912 C 39.124 134.804,36.919 138.360,36.638 138.814 C 36.357 139.267,36.130 139.938,36.135 140.303 C 36.139 140.669,36.451 140.298,36.827 139.479 C 37.203 138.659,38.563 136.313,39.847 134.264 C 41.132 132.216,44.568 126.685,47.483 121.974 C 50.398 117.263,57.773 105.363,63.873 95.531 C 69.973 85.698,76.975 74.385,79.432 70.391 C 85.571 60.414,85.877 59.998,87.660 59.188 C 88.507 58.804,88.948 58.486,88.641 58.483 C 88.333 58.479,87.538 58.808,86.872 59.213 M210.242 61.235 C 206.145 62.289,199.226 64.048,194.865 65.143 C 190.504 66.239,187.005 67.204,187.089 67.287 C 187.252 67.451,218.684 59.653,218.955 59.381 C 219.350 58.986,217.206 59.442,210.242 61.235 M248.108 60.335 C 248.127 61.303,248.713 62.892,248.726 62.011 C 248.732 61.601,248.593 60.931,248.417 60.521 C 248.221 60.065,248.101 59.993,248.108 60.335 M102.421 60.708 C 101.680 61.186,102.611 61.186,103.724 60.708 L 104.469 60.388 103.724 60.367 C 103.315 60.356,102.728 60.509,102.421 60.708 M248.853 63.315 C 248.872 64.282,249.458 65.872,249.471 64.991 C 249.477 64.581,249.338 63.911,249.162 63.501 C 248.966 63.045,248.846 62.972,248.853 63.315 M88.905 66.760 C 88.210 67.835,82.901 76.425,77.109 85.847 C 71.317 95.270,66.020 103.844,65.337 104.901 C 64.034 106.919,59.914 113.576,55.114 121.415 C 53.546 123.976,51.375 127.495,50.288 129.236 C 42.048 142.444,41.667 143.264,44.195 142.343 L 45.251 141.958 44.227 141.929 C 42.932 141.892,42.916 141.981,44.742 139.006 C 45.588 137.627,46.738 135.745,47.296 134.823 C 47.855 133.901,49.174 131.764,50.227 130.074 C 55.147 122.179,56.014 120.770,56.704 119.553 C 57.110 118.836,57.739 117.831,58.101 117.318 C 58.463 116.806,59.258 115.549,59.867 114.525 C 60.476 113.501,61.837 111.280,62.890 109.590 C 65.669 105.130,68.423 100.695,70.000 98.138 C 74.812 90.337,77.760 85.562,78.969 83.613 C 83.259 76.692,84.480 74.700,86.503 71.322 C 90.824 64.105,90.742 64.125,92.172 69.902 C 92.765 72.296,93.313 74.065,93.390 73.834 C 93.467 73.602,93.169 72.021,92.727 70.319 C 91.040 63.822,90.894 63.686,88.905 66.760 M222.351 65.456 C 222.357 66.315,223.732 71.900,224.004 72.173 C 224.265 72.434,223.895 70.222,223.432 68.753 C 222.336 65.278,222.766 65.400,233.672 71.648 C 241.827 76.320,251.493 81.842,265.549 89.858 C 267.700 91.084,270.583 92.719,271.956 93.491 C 273.328 94.263,274.946 95.248,275.551 95.678 C 276.156 96.109,276.809 96.462,277.002 96.462 C 277.194 96.462,278.351 97.107,279.571 97.896 C 280.792 98.685,281.953 99.397,282.153 99.479 C 283.807 100.157,296.221 107.565,296.379 107.968 C 296.491 108.254,296.262 108.731,295.871 109.029 C 295.218 109.525,295.267 109.548,296.462 109.308 C 299.191 108.760,298.974 108.299,294.883 105.959 C 293.191 104.991,291.304 103.909,290.689 103.554 C 290.074 103.199,287.225 101.566,284.358 99.926 C 281.490 98.286,277.300 95.888,275.047 94.598 C 272.793 93.308,269.860 91.633,268.529 90.875 C 262.624 87.515,257.666 84.667,254.562 82.853 C 252.719 81.775,250.037 80.259,248.603 79.486 C 247.169 78.712,245.296 77.606,244.439 77.028 C 243.583 76.450,242.811 75.978,242.723 75.978 C 242.635 75.978,238.153 73.464,232.762 70.391 C 222.345 64.453,222.344 64.453,222.351 65.456 M249.598 66.294 C 249.617 67.262,250.203 68.851,250.216 67.970 C 250.222 67.561,250.083 66.890,249.907 66.480 C 249.711 66.024,249.591 65.952,249.598 66.294 M184.544 67.784 C 183.595 68.192,184.574 68.192,185.847 67.784 C 186.596 67.544,186.632 67.484,186.034 67.475 C 185.624 67.469,184.953 67.608,184.544 67.784 M181.564 68.529 C 180.615 68.937,181.594 68.937,182.868 68.529 C 183.616 68.289,183.653 68.229,183.054 68.220 C 182.644 68.214,181.974 68.353,181.564 68.529 M243.691 68.714 C 243.204 69.242,243.424 69.646,244.196 69.646 C 244.721 69.646,244.888 68.691,244.413 68.404 C 244.260 68.311,243.935 68.451,243.691 68.714 M178.585 69.274 C 177.636 69.682,178.615 69.682,179.888 69.274 C 180.637 69.034,180.673 68.973,180.074 68.965 C 179.665 68.959,178.994 69.098,178.585 69.274 M250.343 69.274 C 250.362 70.241,250.948 71.831,250.961 70.950 C 250.967 70.540,250.828 69.870,250.652 69.460 C 250.456 69.004,250.336 68.931,250.343 69.274 M174.302 70.391 C 171.548 71.294,172.384 71.314,175.419 70.418 C 176.750 70.025,177.505 69.707,177.095 69.711 C 176.685 69.716,175.428 70.022,174.302 70.391 M169.832 71.508 L 168.901 71.807 169.832 71.818 C 170.345 71.824,171.099 71.684,171.508 71.508 L 172.253 71.188 171.508 71.199 C 171.099 71.205,170.345 71.344,169.832 71.508 M167.039 72.253 C 166.570 72.455,166.501 72.573,166.853 72.573 C 167.160 72.573,167.747 72.429,168.156 72.253 C 168.626 72.052,168.695 71.933,168.343 71.933 C 168.035 71.933,167.449 72.077,167.039 72.253 M251.039 72.326 C 251.001 73.963,250.576 73.703,290.317 96.361 C 301.840 102.931,303.214 103.925,304.058 106.302 C 304.389 107.236,304.608 107.527,304.626 107.056 C 304.723 104.541,303.176 103.337,290.538 96.089 C 275.480 87.455,271.785 85.347,265.736 81.939 C 263.073 80.439,259.721 78.514,258.287 77.661 C 256.853 76.807,254.869 75.645,253.878 75.077 C 252.747 74.430,251.886 73.608,251.565 72.870 C 251.283 72.222,251.047 71.978,251.039 72.326 M164.060 72.998 L 163.315 73.318 164.060 73.318 C 164.469 73.318,165.140 73.174,165.549 72.998 L 166.294 72.678 165.549 72.678 C 165.140 72.678,164.469 72.822,164.060 72.998 M224.214 73.588 C 224.217 73.980,224.390 74.553,224.598 74.860 C 224.874 75.268,224.909 75.118,224.726 74.302 C 224.420 72.932,224.207 72.635,224.214 73.588 M161.080 73.743 L 160.335 74.063 161.080 74.063 C 161.490 74.063,162.160 73.919,162.570 73.743 L 163.315 73.423 162.570 73.423 C 162.160 73.423,161.490 73.567,161.080 73.743 M158.101 74.488 L 157.356 74.808 158.101 74.808 C 158.510 74.808,159.181 74.664,159.590 74.488 L 160.335 74.168 159.590 74.168 C 159.181 74.168,158.510 74.312,158.101 74.488 M93.535 75.047 C 93.535 75.456,93.679 76.127,93.855 76.536 L 94.175 77.281 94.175 76.536 C 94.175 76.127,94.031 75.456,93.855 75.047 L 93.535 74.302 93.535 75.047 M155.121 75.233 L 154.376 75.553 155.121 75.553 C 155.531 75.553,156.201 75.409,156.611 75.233 L 157.356 74.913 156.611 74.913 C 156.201 74.913,155.531 75.057,155.121 75.233 M152.142 75.978 L 151.397 76.298 152.142 76.298 C 152.551 76.298,153.222 76.154,153.631 75.978 L 154.376 75.658 153.631 75.658 C 153.222 75.658,152.551 75.802,152.142 75.978 M224.987 76.350 C 224.975 76.657,225.202 77.663,225.493 78.585 C 225.854 79.732,226.020 79.967,226.018 79.330 C 226.014 78.309,225.024 75.446,224.987 76.350 M149.162 76.723 L 148.417 77.043 149.162 77.043 C 149.572 77.043,150.242 76.899,150.652 76.723 L 151.397 76.402 150.652 76.402 C 150.242 76.402,149.572 76.546,149.162 76.723 M146.182 77.467 L 145.438 77.787 146.182 77.787 C 146.592 77.787,147.263 77.643,147.672 77.467 L 148.417 77.147 147.672 77.147 C 147.263 77.147,146.592 77.291,146.182 77.467 M94.280 78.026 C 94.280 78.436,94.424 79.106,94.600 79.516 L 94.920 80.261 94.920 79.516 C 94.920 79.106,94.776 78.436,94.600 78.026 L 94.280 77.281 94.280 78.026 M143.203 78.212 L 142.458 78.532 143.203 78.532 C 143.613 78.532,144.283 78.388,144.693 78.212 L 145.438 77.892 144.693 77.892 C 144.283 77.892,143.613 78.036,143.203 78.212 M138.734 79.344 C 137.505 79.713,136.834 80.026,137.244 80.039 C 137.654 80.053,138.994 79.740,140.223 79.344 C 143.036 78.439,141.749 78.438,138.734 79.344 M134.264 80.447 L 133.520 80.767 134.264 80.767 C 134.674 80.767,135.345 80.623,135.754 80.447 L 136.499 80.127 135.754 80.127 C 135.345 80.127,134.674 80.271,134.264 80.447 M95.024 81.006 C 95.024 81.415,95.168 82.086,95.345 82.495 L 95.665 83.240 95.665 82.495 C 95.665 82.086,95.521 81.415,95.345 81.006 L 95.024 80.261 95.024 81.006 M226.311 81.564 C 226.606 83.170,226.818 83.473,226.810 82.278 C 226.807 81.783,226.639 81.127,226.438 80.819 C 226.180 80.426,226.143 80.647,226.311 81.564 M131.657 81.192 L 130.912 81.512 131.657 81.532 C 132.067 81.544,132.654 81.390,132.961 81.192 C 133.701 80.713,132.771 80.713,131.657 81.192 M128.678 81.937 C 127.729 82.345,128.708 82.345,129.981 81.937 C 130.730 81.697,130.766 81.636,130.168 81.628 C 129.758 81.622,129.088 81.761,128.678 81.937 M125.698 82.682 L 124.953 83.002 125.698 83.002 C 126.108 83.002,126.778 82.858,127.188 82.682 L 127.933 82.361 127.188 82.361 C 126.778 82.361,126.108 82.506,125.698 82.682 M122.719 83.426 L 121.974 83.747 122.719 83.747 C 123.128 83.747,123.799 83.602,124.209 83.426 L 124.953 83.106 124.209 83.106 C 123.799 83.106,123.128 83.250,122.719 83.426 M95.769 83.985 C 95.769 84.395,95.913 85.065,96.089 85.475 L 96.409 86.220 96.409 85.475 C 96.409 85.065,96.265 84.395,96.089 83.985 L 95.769 83.240 95.769 83.985 M119.739 84.171 L 118.994 84.491 119.739 84.491 C 120.149 84.491,120.819 84.347,121.229 84.171 L 121.974 83.851 121.229 83.851 C 120.819 83.851,120.149 83.995,119.739 84.171 M116.760 84.916 L 116.015 85.236 116.760 85.236 C 117.169 85.236,117.840 85.092,118.250 84.916 L 118.994 84.596 118.250 84.596 C 117.840 84.596,117.169 84.740,116.760 84.916 M113.780 85.661 L 113.035 85.981 113.780 85.981 C 114.190 85.981,114.860 85.837,115.270 85.661 L 116.015 85.341 115.270 85.341 C 114.860 85.341,114.190 85.485,113.780 85.661 M110.801 86.406 L 110.056 86.726 110.801 86.726 C 111.210 86.726,111.881 86.582,112.291 86.406 L 113.035 86.086 112.291 86.086 C 111.881 86.086,111.210 86.230,110.801 86.406 M96.494 86.965 C 96.482 87.374,96.636 87.961,96.834 88.268 C 97.313 89.009,97.313 88.078,96.834 86.965 L 96.514 86.220 96.494 86.965 M129.423 87.523 C 128.474 87.931,129.453 87.931,130.726 87.523 C 131.475 87.284,131.511 87.223,130.912 87.214 C 130.503 87.208,129.832 87.347,129.423 87.523 M96.864 89.235 C 96.847 89.460,96.457 89.826,95.996 90.048 C 95.483 90.296,95.375 90.460,95.717 90.472 C 96.585 90.502,97.319 89.898,97.095 89.335 C 96.984 89.056,96.880 89.011,96.864 89.235 M92.924 90.875 L 92.179 91.195 92.924 91.195 C 93.333 91.195,94.004 91.051,94.413 90.875 L 95.158 90.555 94.413 90.555 C 94.004 90.555,93.333 90.699,92.924 90.875 M228.703 90.752 C 228.671 91.312,229.819 95.844,230.055 96.089 C 230.315 96.360,229.785 93.700,229.216 91.879 C 228.948 91.020,228.716 90.513,228.703 90.752 M90.130 91.620 C 89.390 92.099,90.320 92.099,91.434 91.620 L 92.179 91.300 91.434 91.280 C 91.024 91.268,90.438 91.422,90.130 91.620 M87.337 92.365 C 86.388 92.773,87.367 92.773,88.641 92.365 C 89.389 92.125,89.426 92.065,88.827 92.056 C 88.417 92.050,87.747 92.189,87.337 92.365 M84.358 93.110 C 83.408 93.518,84.388 93.518,85.661 93.110 C 86.410 92.870,86.446 92.810,85.847 92.801 C 85.438 92.795,84.767 92.934,84.358 93.110 M81.300 94.214 C 80.084 94.955,78.582 97.378,78.588 98.589 C 78.590 98.955,80.342 106.257,82.483 114.815 C 86.498 130.871,86.567 131.323,85.044 131.705 C 84.545 131.831,84.223 132.019,84.328 132.125 C 84.638 132.434,86.778 131.421,86.787 130.960 C 86.791 130.729,85.002 123.321,82.811 114.497 L 78.828 98.454 79.656 96.742 C 80.268 95.479,80.894 94.829,82.049 94.257 C 82.909 93.831,83.361 93.483,83.054 93.484 C 82.747 93.485,81.957 93.813,81.300 94.214 M230.194 96.681 C 230.179 96.903,230.761 99.417,231.486 102.267 C 232.212 105.117,232.950 108.119,233.127 108.939 C 233.304 109.758,233.696 111.350,233.997 112.477 C 234.298 113.603,234.657 115.006,234.795 115.593 C 234.933 116.181,235.128 116.579,235.228 116.479 C 235.417 116.290,234.850 113.830,232.544 104.842 C 230.955 98.650,230.229 96.127,230.194 96.681 M304.708 108.380 C 304.708 108.687,304.852 109.274,305.028 109.683 C 305.230 110.153,305.348 110.222,305.348 109.870 C 305.348 109.562,305.204 108.976,305.028 108.566 C 304.826 108.097,304.708 108.028,304.708 108.380 M305.464 110.987 C 305.483 111.955,306.069 113.544,306.082 112.663 C 306.088 112.253,305.949 111.583,305.773 111.173 C 305.577 110.717,305.457 110.645,305.464 110.987 M281.075 112.833 C 278.366 113.564,277.241 114.142,279.350 113.720 C 281.185 113.353,284.830 112.174,284.171 112.161 C 283.864 112.154,282.471 112.457,281.075 112.833 M306.209 113.966 C 306.228 114.934,306.814 116.524,306.827 115.642 C 306.833 115.233,306.694 114.562,306.518 114.153 C 306.322 113.696,306.202 113.624,306.209 113.966 M265.922 116.778 C 265.000 117.042,264.581 117.269,264.991 117.283 C 265.400 117.296,266.490 117.069,267.412 116.779 C 269.495 116.122,268.214 116.122,265.922 116.778 M306.890 116.900 C 306.890 117.647,308.094 122.198,308.250 122.042 C 308.329 121.962,308.127 120.742,307.799 119.330 C 307.225 116.853,306.890 115.959,306.890 116.900 M235.421 117.505 C 235.406 117.914,235.631 119.004,235.921 119.926 C 236.606 122.098,236.642 121.050,235.967 118.622 C 235.682 117.598,235.436 117.095,235.421 117.505 M261.111 117.981 C 259.797 118.311,258.890 118.637,259.096 118.705 C 259.504 118.841,263.680 117.822,263.992 117.510 C 264.272 117.231,263.778 117.311,261.111 117.981 M250.726 120.665 C 250.050 120.825,249.392 121.061,249.263 121.190 C 248.987 121.467,251.261 121.057,252.328 120.638 C 253.277 120.265,252.350 120.281,250.726 120.665 M308.443 122.905 C 308.462 123.873,309.049 125.462,309.061 124.581 C 309.067 124.171,308.928 123.501,308.752 123.091 C 308.556 122.635,308.436 122.563,308.443 122.905 M236.872 123.418 C 236.872 124.206,239.030 124.223,241.341 123.452 C 242.263 123.145,242.514 122.983,241.899 123.093 C 238.486 123.702,237.968 123.724,237.434 123.280 C 236.972 122.897,236.872 122.921,236.872 123.418 M309.188 125.885 C 309.207 126.852,309.793 128.442,309.806 127.561 C 309.812 127.151,309.673 126.480,309.497 126.071 C 309.301 125.614,309.181 125.542,309.188 125.885 M232.030 126.944 C 232.030 127.117,232.391 127.578,232.832 127.968 L 233.635 128.678 232.976 127.654 C 232.296 126.598,232.030 126.398,232.030 126.944 M309.922 129.050 C 309.922 129.460,310.066 130.130,310.242 130.540 L 310.562 131.285 310.562 130.540 C 310.562 130.130,310.418 129.460,310.242 129.050 L 309.922 128.305 309.922 129.050 M310.667 132.030 C 310.667 132.439,310.811 133.110,310.987 133.520 L 311.307 134.264 311.307 133.520 C 311.307 133.110,311.163 132.439,310.987 132.030 L 310.667 131.285 310.667 132.030 M81.750 132.588 L 81.006 132.909 81.750 132.909 C 82.160 132.909,82.831 132.765,83.240 132.588 L 83.985 132.268 83.240 132.268 C 82.831 132.268,82.160 132.412,81.750 132.588 M305.268 133.333 C 305.563 134.940,305.775 135.243,305.767 134.047 C 305.764 133.552,305.597 132.896,305.395 132.588 C 305.138 132.195,305.100 132.416,305.268 133.333 M78.771 133.333 L 78.026 133.653 78.771 133.653 C 79.181 133.653,79.851 133.509,80.261 133.333 L 81.006 133.013 80.261 133.013 C 79.851 133.013,79.181 133.157,78.771 133.333 M75.791 134.078 L 75.047 134.398 75.791 134.398 C 76.201 134.398,76.872 134.254,77.281 134.078 L 78.026 133.758 77.281 133.758 C 76.872 133.758,76.201 133.902,75.791 134.078 M72.812 134.823 L 72.067 135.143 72.812 135.143 C 73.222 135.143,73.892 134.999,74.302 134.823 L 75.047 134.503 74.302 134.503 C 73.892 134.503,73.222 134.647,72.812 134.823 M311.423 134.823 C 311.442 135.791,312.028 137.380,312.041 136.499 C 312.047 136.089,311.908 135.419,311.732 135.009 C 311.536 134.553,311.416 134.481,311.423 134.823 M69.832 135.568 L 69.088 135.888 69.832 135.888 C 70.242 135.888,70.912 135.744,71.322 135.568 L 72.067 135.248 71.322 135.248 C 70.912 135.248,70.242 135.392,69.832 135.568 M66.853 136.313 L 66.108 136.633 66.853 136.633 C 67.263 136.633,67.933 136.489,68.343 136.313 L 69.088 135.993 68.343 135.993 C 67.933 135.993,67.263 136.137,66.853 136.313 M63.873 137.058 L 63.128 137.378 63.873 137.378 C 64.283 137.378,64.953 137.234,65.363 137.058 L 66.108 136.738 65.363 136.738 C 64.953 136.738,64.283 136.882,63.873 137.058 M60.894 137.803 L 60.149 138.123 60.894 138.123 C 61.304 138.123,61.974 137.979,62.384 137.803 L 63.128 137.483 62.384 137.483 C 61.974 137.483,61.304 137.627,60.894 137.803 M312.168 137.803 C 312.187 138.770,312.773 140.360,312.786 139.479 C 312.792 139.069,312.653 138.399,312.477 137.989 C 312.281 137.532,312.161 137.460,312.168 137.803 M57.914 138.547 L 57.169 138.868 57.914 138.868 C 58.324 138.868,58.994 138.724,59.404 138.547 L 60.149 138.227 59.404 138.227 C 58.994 138.227,58.324 138.371,57.914 138.547 M306.629 138.734 C 306.741 139.143,307.384 141.716,308.059 144.450 C 308.734 147.184,309.336 149.273,309.397 149.092 C 309.537 148.670,306.988 138.516,306.666 138.215 C 306.534 138.090,306.517 138.324,306.629 138.734 M54.935 139.292 L 54.190 139.612 54.935 139.612 C 55.345 139.612,56.015 139.468,56.425 139.292 L 57.169 138.972 56.425 138.972 C 56.015 138.972,55.345 139.116,54.935 139.292 M51.955 140.037 L 51.210 140.357 51.955 140.357 C 52.365 140.357,53.035 140.213,53.445 140.037 L 54.190 139.717 53.445 139.717 C 53.035 139.717,52.365 139.861,51.955 140.037 M48.976 140.782 L 48.231 141.102 48.976 141.102 C 49.385 141.102,50.056 140.958,50.466 140.782 L 51.210 140.462 50.466 140.462 C 50.056 140.462,49.385 140.606,48.976 140.782 M312.912 140.782 C 312.931 141.750,313.518 143.339,313.531 142.458 C 313.537 142.048,313.398 141.378,313.222 140.968 C 313.025 140.512,312.906 140.440,312.912 140.782 M45.996 141.527 L 45.251 141.847 45.996 141.847 C 46.406 141.847,47.076 141.703,47.486 141.527 L 48.231 141.207 47.486 141.207 C 47.076 141.207,46.406 141.351,45.996 141.527 M89.385 141.725 C 89.385 142.501,96.254 169.524,96.366 169.188 C 96.494 168.806,89.843 141.860,89.548 141.566 C 89.459 141.476,89.385 141.548,89.385 141.725 M36.145 142.440 C 36.123 143.326,39.533 156.867,39.729 156.671 C 39.805 156.594,39.034 153.198,38.016 149.122 C 36.997 145.047,36.155 142.040,36.145 142.440 M313.646 143.948 C 313.646 144.358,313.790 145.028,313.966 145.438 L 314.287 146.182 314.287 145.438 C 314.287 145.028,314.143 144.358,313.966 143.948 L 313.646 143.203 313.646 143.948 M314.391 146.927 C 314.391 147.337,314.535 148.007,314.711 148.417 L 315.031 149.162 315.031 148.417 C 315.031 148.007,314.887 147.337,314.711 146.927 L 314.391 146.182 314.391 146.927 M315.147 149.721 C 315.166 150.688,315.752 152.278,315.765 151.397 C 315.771 150.987,315.632 150.317,315.456 149.907 C 315.260 149.451,315.140 149.378,315.147 149.721 M315.829 152.473 C 315.829 152.984,318.457 163.274,318.632 163.449 C 318.986 163.803,318.782 162.795,317.468 157.706 C 316.267 153.052,315.829 151.652,315.829 152.473 M44.745 154.004 C 44.745 154.413,44.889 155.084,45.065 155.493 L 45.385 156.238 45.385 155.493 C 45.385 155.084,45.241 154.413,45.065 154.004 L 44.745 153.259 44.745 154.004 M45.493 157.169 C 45.495 158.056,46.852 162.231,46.885 161.453 C 46.894 161.248,46.584 159.991,46.196 158.659 C 45.808 157.328,45.492 156.657,45.493 157.169 M311.413 157.542 C 311.415 158.054,311.642 159.060,311.918 159.777 C 312.574 161.481,312.579 160.821,311.927 158.473 C 311.627 157.395,311.411 157.003,311.413 157.542 M39.851 157.356 C 39.851 157.863,42.494 168.130,42.669 168.306 C 42.970 168.606,42.832 167.939,41.500 162.648 C 40.301 157.888,39.851 156.444,39.851 157.356 M46.961 162.296 C 46.910 163.006,51.140 179.732,51.266 179.317 C 51.326 179.119,50.389 175.102,49.185 170.391 C 47.980 165.680,46.980 162.037,46.961 162.296 M318.871 164.246 C 318.890 165.214,319.477 166.803,319.490 165.922 C 319.496 165.512,319.357 164.842,319.181 164.432 C 318.985 163.976,318.865 163.904,318.871 164.246 M319.605 167.412 C 319.605 167.821,319.749 168.492,319.926 168.901 L 320.246 169.646 320.246 168.901 C 320.246 168.492,320.102 167.821,319.926 167.412 L 319.605 166.667 319.605 167.412 M42.894 169.274 C 42.888 169.683,43.027 170.354,43.203 170.764 C 43.611 171.713,43.611 170.733,43.203 169.460 C 42.963 168.711,42.903 168.675,42.894 169.274 M96.504 170.205 C 96.486 170.512,96.801 171.769,97.202 172.998 C 97.604 174.227,97.832 174.650,97.708 173.937 C 97.401 172.175,96.543 169.514,96.504 170.205 M320.350 170.391 C 320.350 170.801,320.494 171.471,320.670 171.881 L 320.990 172.626 320.990 171.881 C 320.990 171.471,320.846 170.801,320.670 170.391 L 320.350 169.646 320.350 170.391 M43.639 172.253 C 43.633 172.663,43.772 173.333,43.948 173.743 C 44.356 174.692,44.356 173.713,43.948 172.439 C 43.708 171.691,43.648 171.654,43.639 172.253 M321.106 173.184 C 321.125 174.152,321.711 175.742,321.724 174.860 C 321.730 174.451,321.591 173.780,321.415 173.371 C 321.219 172.914,321.099 172.842,321.106 173.184 M44.384 175.233 C 44.378 175.642,44.517 176.313,44.693 176.723 C 45.101 177.672,45.101 176.692,44.693 175.419 C 44.453 174.670,44.392 174.634,44.384 175.233 M98.015 175.978 C 98.009 176.387,98.148 177.058,98.324 177.467 C 98.732 178.416,98.732 177.437,98.324 176.164 C 98.084 175.415,98.024 175.379,98.015 175.978 M321.840 176.350 C 321.840 176.760,321.984 177.430,322.160 177.840 L 322.480 178.585 322.480 177.840 C 322.480 177.430,322.336 176.760,322.160 176.350 L 321.840 175.605 321.840 176.350 M45.065 177.841 C 45.065 178.528,49.282 194.790,49.423 194.649 C 49.580 194.492,45.478 177.961,45.213 177.685 C 45.132 177.599,45.065 177.670,45.065 177.841 M98.760 178.957 C 98.754 179.367,98.893 180.037,99.069 180.447 C 99.477 181.396,99.477 180.417,99.069 179.143 C 98.829 178.395,98.769 178.358,98.760 178.957 M322.585 179.330 C 322.585 179.739,322.729 180.410,322.905 180.819 L 323.225 181.564 323.225 180.819 C 323.225 180.410,323.081 179.739,322.905 179.330 L 322.585 178.585 322.585 179.330 M51.397 180.009 C 51.397 180.907,58.010 206.422,58.067 205.744 C 58.107 205.264,51.765 180.143,51.548 179.919 C 51.465 179.834,51.397 179.874,51.397 180.009 M99.505 181.937 C 99.499 182.346,99.638 183.017,99.814 183.426 C 100.222 184.376,100.222 183.396,99.814 182.123 C 99.574 181.374,99.513 181.338,99.505 181.937 M323.330 182.309 C 323.330 182.719,323.474 183.389,323.650 183.799 L 323.970 184.544 323.970 183.799 C 323.970 183.389,323.826 182.719,323.650 182.309 L 323.330 181.564 323.330 182.309 M100.186 184.587 C 100.186 185.177,109.486 222.087,109.685 222.285 C 110.041 222.642,109.835 221.767,105.187 203.229 C 100.939 186.285,100.186 183.479,100.186 184.587 M324.075 185.289 C 324.075 185.698,324.219 186.369,324.395 186.778 L 324.715 187.523 324.715 186.778 C 324.715 186.369,324.571 185.698,324.395 185.289 L 324.075 184.544 324.075 185.289 M318.850 186.965 C 318.845 187.272,319.074 188.361,319.358 189.385 C 319.643 190.410,319.884 190.912,319.895 190.503 C 319.905 190.093,319.677 189.004,319.386 188.082 C 319.096 187.160,318.854 186.657,318.850 186.965 M324.820 188.268 C 324.820 188.678,324.964 189.348,325.140 189.758 L 325.460 190.503 325.460 189.758 C 325.460 189.348,325.316 188.678,325.140 188.268 L 324.820 187.523 324.820 188.268 M325.532 191.092 C 325.566 191.981,327.688 199.483,327.718 198.823 C 327.748 198.186,325.921 190.997,325.659 190.720 C 325.578 190.635,325.521 190.802,325.532 191.092 M49.598 195.531 C 49.617 196.498,50.203 198.088,50.216 197.207 C 50.222 196.797,50.083 196.127,49.907 195.717 C 49.711 195.261,49.591 195.188,49.598 195.531 M50.279 198.269 C 50.279 198.920,53.748 212.298,53.882 212.163 C 54.045 212.001,50.709 198.443,50.440 198.174 C 50.351 198.086,50.279 198.128,50.279 198.269 M327.799 200.000 C 327.799 200.307,327.943 200.894,328.119 201.304 C 328.321 201.773,328.439 201.842,328.439 201.490 C 328.439 201.182,328.295 200.596,328.119 200.186 C 327.917 199.717,327.799 199.648,327.799 200.000 M322.563 201.676 C 322.553 202.086,322.782 203.175,323.072 204.097 C 323.754 206.261,323.776 205.228,323.100 202.793 C 322.816 201.769,322.574 201.266,322.563 201.676 M328.544 202.793 C 328.544 203.203,328.688 203.873,328.864 204.283 L 329.184 205.028 329.184 204.283 C 329.184 203.873,329.040 203.203,328.864 202.793 L 328.544 202.048 328.544 202.793 M329.289 205.773 C 329.289 206.182,329.433 206.853,329.609 207.263 L 329.929 208.007 329.929 207.263 C 329.929 206.853,329.785 206.182,329.609 205.773 L 329.289 205.028 329.289 205.773 M58.114 206.549 C 58.131 206.998,58.549 208.666,62.401 223.650 C 64.191 230.615,65.910 237.402,66.222 238.734 C 66.534 240.065,66.849 240.975,66.923 240.756 C 67.055 240.363,58.570 206.676,58.260 206.367 C 58.172 206.279,58.107 206.361,58.114 206.549 M330.034 208.752 C 330.034 209.162,330.178 209.832,330.354 210.242 L 330.674 210.987 330.674 210.242 C 330.674 209.832,330.530 209.162,330.354 208.752 L 330.034 208.007 330.034 208.752 M324.773 210.832 C 324.776 211.327,324.943 211.983,325.145 212.291 C 325.402 212.684,325.440 212.463,325.272 211.546 C 324.977 209.939,324.765 209.636,324.773 210.832 M330.779 211.732 C 330.779 212.142,330.923 212.812,331.099 213.222 L 331.419 213.966 331.419 213.222 C 331.419 212.812,331.275 212.142,331.099 211.732 L 330.779 210.987 330.779 211.732 M54.004 212.862 C 54.004 213.577,60.483 238.710,60.630 238.563 C 60.788 238.405,54.419 212.985,54.148 212.694 C 54.069 212.609,54.004 212.684,54.004 212.862 M325.518 213.811 C 325.521 214.306,325.688 214.963,325.890 215.270 C 326.147 215.663,326.185 215.442,326.017 214.525 C 325.722 212.919,325.510 212.616,325.518 213.811 M331.471 214.467 C 331.471 215.300,337.157 237.641,337.326 237.472 C 337.493 237.305,331.899 214.484,331.617 214.184 C 331.537 214.098,331.471 214.226,331.471 214.467 M327.745 222.191 C 327.741 222.894,331.616 237.968,331.763 237.821 C 331.917 237.667,328.150 222.296,327.887 222.005 C 327.810 221.920,327.746 222.003,327.745 222.191 M109.922 223.277 C 109.922 223.687,110.066 224.358,110.242 224.767 L 110.562 225.512 110.562 224.767 C 110.562 224.358,110.418 223.687,110.242 223.277 L 109.922 222.533 109.922 223.277 M110.667 226.257 C 110.667 226.667,110.811 227.337,110.987 227.747 L 111.307 228.492 111.307 227.747 C 111.307 227.337,111.163 226.667,110.987 226.257 L 110.667 225.512 110.667 226.257 M111.412 229.236 C 111.412 229.646,111.556 230.317,111.732 230.726 L 112.052 231.471 112.052 230.726 C 112.052 230.317,111.908 229.646,111.732 229.236 L 111.412 228.492 111.412 229.236 M112.157 232.216 C 112.157 232.626,112.301 233.296,112.477 233.706 L 112.797 234.451 112.797 233.706 C 112.797 233.296,112.653 232.626,112.477 232.216 L 112.157 231.471 112.157 232.216 M112.902 235.196 C 112.902 235.605,113.046 236.276,113.222 236.685 L 113.542 237.430 113.542 236.685 C 113.542 236.276,113.398 235.605,113.222 235.196 L 112.902 234.451 112.902 235.196 M113.593 237.896 C 113.591 238.619,114.838 243.201,114.995 243.044 C 115.189 242.850,113.979 237.616,113.740 237.616 C 113.660 237.616,113.594 237.742,113.593 237.896 M337.430 238.158 C 337.430 238.659,341.567 254.913,341.738 255.084 C 342.055 255.400,341.886 254.494,340.948 250.829 C 340.424 248.786,339.488 245.102,338.868 242.644 C 337.852 238.622,337.430 237.305,337.430 238.158 M60.760 239.479 C 60.760 239.786,60.904 240.372,61.080 240.782 C 61.282 241.252,61.400 241.320,61.400 240.968 C 61.400 240.661,61.256 240.074,61.080 239.665 C 60.878 239.195,60.760 239.126,60.760 239.479 M67.039 241.486 C 67.039 242.219,71.300 258.540,71.407 258.218 C 71.476 258.013,70.587 254.173,69.433 249.686 C 67.555 242.380,67.039 240.614,67.039 241.486 M61.482 242.009 C 61.456 242.438,63.583 250.908,72.152 284.480 C 73.528 289.874,74.703 294.141,74.762 293.963 C 74.851 293.696,62.112 243.103,61.653 241.899 C 61.575 241.695,61.498 241.744,61.482 242.009 M115.136 244.134 C 115.136 244.544,115.280 245.214,115.456 245.624 L 115.776 246.369 115.776 245.624 C 115.776 245.214,115.632 244.544,115.456 244.134 L 115.136 243.389 115.136 244.134 M115.828 246.834 C 115.825 247.557,117.073 252.139,117.229 251.982 C 117.423 251.788,116.213 246.555,115.975 246.555 C 115.894 246.555,115.828 246.681,115.828 246.834 M117.371 253.073 C 117.371 253.482,117.515 254.153,117.691 254.562 L 118.011 255.307 118.011 254.562 C 118.011 254.153,117.867 253.482,117.691 253.073 L 117.371 252.328 117.371 253.073 M118.100 255.755 C 118.049 256.375,119.116 260.398,119.405 260.671 C 119.534 260.794,119.515 260.311,119.362 259.598 C 118.958 257.715,118.143 255.233,118.100 255.755 M341.929 255.813 C 341.913 256.092,344.832 267.924,348.417 282.107 C 357.313 317.304,357.962 313.717,341.979 317.685 C 336.799 318.970,332.630 320.091,332.714 320.175 C 332.798 320.259,336.952 319.310,341.945 318.067 C 357.685 314.149,357.135 315.367,352.166 295.455 C 343.300 259.923,341.986 254.834,341.929 255.813 M71.561 259.404 C 71.561 259.814,71.705 260.484,71.881 260.894 L 72.201 261.639 72.201 260.894 C 72.201 260.484,72.057 259.814,71.881 259.404 L 71.561 258.659 71.561 259.404 M119.605 261.639 C 119.605 262.048,119.749 262.719,119.926 263.128 L 120.246 263.873 120.246 263.128 C 120.246 262.719,120.102 262.048,119.926 261.639 L 119.605 260.894 119.605 261.639 M72.306 262.384 C 72.306 262.793,72.450 263.464,72.626 263.873 L 72.946 264.618 72.946 263.873 C 72.946 263.464,72.802 262.793,72.626 262.384 L 72.306 261.639 72.306 262.384 M120.350 264.618 C 120.350 265.028,120.494 265.698,120.670 266.108 L 120.990 266.853 120.990 266.108 C 120.990 265.698,120.846 265.028,120.670 264.618 L 120.350 263.873 120.350 264.618 M73.050 265.363 C 73.050 265.773,73.195 266.443,73.371 266.853 L 73.691 267.598 73.691 266.853 C 73.691 266.443,73.547 265.773,73.371 265.363 L 73.050 264.618 73.050 265.363 M338.920 266.754 C 338.920 267.314,343.029 283.190,343.225 283.386 C 343.486 283.647,343.487 283.650,341.101 274.143 C 339.545 267.941,338.920 265.824,338.920 266.754 M121.095 267.598 C 121.095 268.007,121.239 268.678,121.415 269.088 L 121.735 269.832 121.735 269.088 C 121.735 268.678,121.591 268.007,121.415 267.598 L 121.095 266.853 121.095 267.598 M73.743 268.096 C 73.743 268.336,74.178 270.166,74.711 272.162 C 76.220 277.822,79.496 290.597,81.835 299.939 C 83.006 304.616,84.021 308.272,84.091 308.063 C 84.246 307.598,74.263 268.196,73.894 267.815 C 73.811 267.730,73.743 267.856,73.743 268.096 M121.788 270.408 C 121.788 271.178,123.006 275.628,123.172 275.463 C 123.355 275.280,122.149 270.019,121.924 270.019 C 121.849 270.019,121.788 270.194,121.788 270.408 M123.330 276.536 C 123.330 276.946,123.474 277.616,123.650 278.026 L 123.970 278.771 123.970 278.026 C 123.970 277.616,123.826 276.946,123.650 276.536 L 123.330 275.791 123.330 276.536 M124.075 279.516 C 124.075 279.926,124.219 280.596,124.395 281.006 L 124.715 281.750 124.715 281.006 C 124.715 280.596,124.571 279.926,124.395 279.516 L 124.075 278.771 124.075 279.516 M124.820 282.495 C 124.820 282.905,124.964 283.575,125.140 283.985 L 125.460 284.730 125.460 283.985 C 125.460 283.575,125.316 282.905,125.140 282.495 L 124.820 281.750 124.820 282.495 M343.395 284.761 C 343.398 285.154,343.571 285.726,343.779 286.034 C 344.055 286.442,344.089 286.291,343.907 285.475 C 343.600 284.105,343.387 283.808,343.395 284.761 M125.564 285.475 C 125.564 285.885,125.708 286.555,125.885 286.965 L 126.205 287.709 126.205 286.965 C 126.205 286.555,126.061 285.885,125.885 285.475 L 125.564 284.730 125.564 285.475 M126.309 288.454 C 126.309 288.864,126.453 289.534,126.629 289.944 L 126.950 290.689 126.950 289.944 C 126.950 289.534,126.805 288.864,126.629 288.454 L 126.309 287.709 126.309 288.454 M127.054 291.434 C 127.054 291.844,127.198 292.514,127.374 292.924 L 127.694 293.669 127.694 292.924 C 127.694 292.514,127.550 291.844,127.374 291.434 L 127.054 290.689 127.054 291.434 M127.746 294.134 C 127.743 294.857,128.991 299.439,129.147 299.282 C 129.341 299.088,128.132 293.855,127.893 293.855 C 127.812 293.855,127.746 293.980,127.746 294.134 M74.860 294.730 C 74.860 295.418,79.078 311.735,79.220 311.593 C 79.310 311.503,78.435 307.685,77.276 303.108 C 75.410 295.742,74.860 293.835,74.860 294.730 M129.289 300.372 C 129.289 300.782,129.433 301.453,129.609 301.862 L 129.929 302.607 129.929 301.862 C 129.929 301.453,129.785 300.782,129.609 300.372 L 129.289 299.628 129.289 300.372 M130.013 303.352 C 130.002 303.762,130.155 304.348,130.354 304.655 C 130.832 305.396,130.832 304.465,130.354 303.352 L 130.034 302.607 130.013 303.352 M130.726 305.722 C 130.726 306.489,132.679 314.000,132.837 313.842 C 132.919 313.760,132.548 311.868,132.011 309.639 C 131.089 305.810,130.726 304.704,130.726 305.722 M84.224 309.125 C 84.224 309.432,84.368 310.019,84.544 310.428 C 84.746 310.898,84.864 310.967,84.864 310.615 C 84.864 310.307,84.720 309.721,84.544 309.311 C 84.342 308.841,84.224 308.773,84.224 309.125 M84.926 311.577 C 84.945 312.249,87.084 320.102,87.117 319.621 C 87.156 319.058,85.310 311.629,85.073 311.392 C 84.987 311.306,84.921 311.389,84.926 311.577 M79.330 312.288 C 79.330 312.550,83.921 330.767,88.528 348.790 C 90.749 357.475,93.151 359.849,97.765 357.924 C 98.222 357.733,97.706 357.689,96.429 357.809 C 91.260 358.298,91.318 358.422,84.867 332.961 C 80.139 314.296,79.330 311.276,79.330 312.288 M133.013 314.898 C 133.013 315.307,133.157 315.978,133.333 316.387 L 133.653 317.132 133.653 316.387 C 133.653 315.978,133.509 315.307,133.333 314.898 L 133.013 314.153 133.013 314.898 M133.758 317.877 C 133.758 318.287,133.902 318.957,134.078 319.367 L 134.398 320.112 134.398 319.367 C 134.398 318.957,134.254 318.287,134.078 317.877 L 133.758 317.132 133.758 317.877 M87.203 320.857 C 87.203 321.266,87.347 321.937,87.523 322.346 L 87.843 323.091 87.843 322.346 C 87.843 321.937,87.699 321.266,87.523 320.857 L 87.203 320.112 87.203 320.857 M134.503 320.857 C 134.503 321.266,134.647 321.937,134.823 322.346 L 135.143 323.091 135.143 322.346 C 135.143 321.937,134.999 321.266,134.823 320.857 L 134.503 320.112 134.503 320.857 M325.956 321.664 C 323.025 322.391,320.696 323.055,320.780 323.139 C 320.937 323.295,331.906 320.702,332.185 320.442 C 332.542 320.110,330.993 320.414,325.956 321.664 M87.948 323.836 C 87.948 324.246,88.092 324.916,88.268 325.326 L 88.588 326.071 88.588 325.326 C 88.588 324.916,88.444 324.246,88.268 323.836 L 87.948 323.091 87.948 323.836 M135.248 323.836 C 135.248 324.246,135.392 324.916,135.568 325.326 L 135.888 326.071 135.888 325.326 C 135.888 324.916,135.744 324.246,135.568 323.836 L 135.248 323.091 135.248 323.836 M293.324 329.916 C 279.001 333.537,267.520 336.542,267.812 336.594 C 268.104 336.646,270.605 336.107,273.371 335.396 C 276.136 334.685,287.783 331.739,299.253 328.848 C 310.722 325.958,320.178 323.522,320.264 323.435 C 320.658 323.042,317.825 323.723,293.324 329.916 M88.670 326.667 C 88.634 327.389,89.370 329.666,89.789 330.129 C 89.955 330.312,89.846 329.642,89.546 328.639 C 88.830 326.237,88.705 325.956,88.670 326.667 M260.902 338.089 C 258.039 338.822,255.867 339.479,256.074 339.548 C 256.487 339.686,266.652 337.196,266.969 336.880 C 267.337 336.512,266.094 336.759,260.902 338.089 M253.445 340.037 L 252.700 340.357 253.445 340.357 C 253.855 340.357,254.525 340.213,254.935 340.037 L 255.680 339.717 254.935 339.717 C 254.525 339.717,253.855 339.861,253.445 340.037 M250.466 340.782 L 249.721 341.102 250.466 341.102 C 250.875 341.102,251.546 340.958,251.955 340.782 L 252.700 340.462 251.955 340.462 C 251.546 340.462,250.875 340.606,250.466 340.782 M241.606 342.913 C 237.962 343.842,235.059 344.680,235.154 344.775 C 235.320 344.941,249.187 341.577,249.503 341.293 C 249.937 340.906,247.607 341.383,241.606 342.913 M232.961 345.251 C 232.491 345.453,232.423 345.571,232.775 345.571 C 233.082 345.571,233.669 345.427,234.078 345.251 C 234.548 345.050,234.617 344.931,234.264 344.931 C 233.957 344.931,233.371 345.075,232.961 345.251 M229.981 345.996 L 229.236 346.316 229.981 346.316 C 230.391 346.316,231.061 346.172,231.471 345.996 L 232.216 345.676 231.471 345.676 C 231.061 345.676,230.391 345.820,229.981 345.996 M227.002 346.741 L 226.257 347.061 227.002 347.061 C 227.412 347.061,228.082 346.917,228.492 346.741 L 229.236 346.421 228.492 346.421 C 228.082 346.421,227.412 346.565,227.002 346.741 M138.547 347.314 C 137.626 347.573,137.124 347.802,137.433 347.822 C 137.741 347.842,138.515 347.709,139.152 347.526 C 140.428 347.160,140.813 347.308,141.479 348.417 C 141.893 349.106,141.919 349.109,141.820 348.462 C 141.628 347.200,140.437 346.782,138.547 347.314 M224.022 347.486 L 223.277 347.806 224.022 347.806 C 224.432 347.806,225.102 347.662,225.512 347.486 L 226.257 347.166 225.512 347.166 C 225.102 347.166,224.432 347.310,224.022 347.486 M133.595 348.499 C 132.408 348.810,131.509 349.138,131.599 349.227 C 131.766 349.395,136.376 348.286,136.654 348.012 C 136.930 347.740,135.806 347.919,133.595 348.499 M221.043 348.231 L 220.298 348.551 221.043 348.551 C 221.453 348.551,222.123 348.407,222.533 348.231 L 223.277 347.911 222.533 347.911 C 222.123 347.911,221.453 348.055,221.043 348.231 M218.250 348.976 C 217.501 349.216,217.465 349.276,218.063 349.285 C 218.473 349.291,219.143 349.152,219.553 348.976 C 220.502 348.568,219.523 348.568,218.250 348.976 M129.236 349.721 C 128.488 349.960,128.451 350.021,129.050 350.030 C 129.460 350.036,130.130 349.897,130.540 349.721 C 131.489 349.313,130.510 349.313,129.236 349.721 M141.963 349.907 C 141.957 350.317,142.096 350.987,142.272 351.397 C 142.680 352.346,142.680 351.367,142.272 350.093 C 142.032 349.345,141.972 349.308,141.963 349.907 M215.270 349.721 C 214.522 349.960,214.485 350.021,215.084 350.030 C 215.493 350.036,216.164 349.897,216.574 349.721 C 217.523 349.313,216.543 349.313,215.270 349.721 M126.257 350.466 C 125.508 350.705,125.472 350.766,126.071 350.775 C 126.480 350.781,127.151 350.642,127.561 350.466 C 128.510 350.058,127.530 350.058,126.257 350.466 M212.104 350.466 L 211.359 350.786 212.104 350.786 C 212.514 350.786,213.184 350.642,213.594 350.466 L 214.339 350.145 213.594 350.145 C 213.184 350.145,212.514 350.290,212.104 350.466 M123.277 351.210 C 122.529 351.450,122.492 351.511,123.091 351.520 C 123.501 351.526,124.171 351.386,124.581 351.210 C 125.530 350.803,124.551 350.803,123.277 351.210 M209.311 351.210 C 208.562 351.450,208.526 351.511,209.125 351.520 C 209.534 351.526,210.205 351.386,210.615 351.210 C 211.564 350.803,210.584 350.803,209.311 351.210 M120.298 351.955 C 119.549 352.195,119.513 352.256,120.112 352.264 C 120.521 352.270,121.192 352.131,121.601 351.955 C 122.551 351.547,121.571 351.547,120.298 351.955 M206.331 351.955 C 205.583 352.195,205.546 352.256,206.145 352.264 C 206.555 352.270,207.225 352.131,207.635 351.955 C 208.584 351.547,207.605 351.547,206.331 351.955 M117.318 352.700 C 116.570 352.940,116.533 353.001,117.132 353.009 C 117.542 353.015,118.212 352.876,118.622 352.700 C 119.571 352.292,118.592 352.292,117.318 352.700 M142.708 352.886 C 142.702 353.296,142.841 353.966,143.017 354.376 C 143.425 355.325,143.425 354.346,143.017 353.073 C 142.777 352.324,142.716 352.288,142.708 352.886 M203.352 352.700 C 202.603 352.940,202.567 353.001,203.166 353.009 C 203.575 353.015,204.246 352.876,204.655 352.700 C 205.605 352.292,204.625 352.292,203.352 352.700 M114.339 353.445 C 113.590 353.685,113.554 353.745,114.153 353.754 C 114.562 353.760,115.233 353.621,115.642 353.445 C 116.592 353.037,115.612 353.037,114.339 353.445 M200.186 353.445 L 199.441 353.765 200.186 353.765 C 200.596 353.765,201.266 353.621,201.676 353.445 L 202.421 353.125 201.676 353.125 C 201.266 353.125,200.596 353.269,200.186 353.445 M111.359 354.190 C 110.611 354.430,110.574 354.490,111.173 354.499 C 111.583 354.505,112.253 354.366,112.663 354.190 C 113.612 353.782,112.633 353.782,111.359 354.190 M197.207 354.190 L 196.462 354.510 197.207 354.510 C 197.616 354.510,198.287 354.366,198.696 354.190 L 199.441 353.870 198.696 353.870 C 198.287 353.870,197.616 354.014,197.207 354.190 M108.380 354.935 C 107.631 355.175,107.595 355.235,108.194 355.244 C 108.603 355.250,109.274 355.111,109.683 354.935 C 110.632 354.527,109.653 354.527,108.380 354.935 M194.227 354.935 L 193.482 355.255 194.227 355.255 C 194.637 355.255,195.307 355.111,195.717 354.935 L 196.462 354.615 195.717 354.615 C 195.307 354.615,194.637 354.759,194.227 354.935 M105.400 355.680 C 104.652 355.919,104.615 355.980,105.214 355.989 C 105.624 355.995,106.294 355.856,106.704 355.680 C 107.653 355.272,106.674 355.272,105.400 355.680 M143.453 355.866 C 143.446 356.276,143.586 356.946,143.762 357.356 C 144.169 358.305,144.169 357.326,143.762 356.052 C 143.522 355.304,143.461 355.267,143.453 355.866 M190.130 355.978 C 188.901 356.307,188.147 356.625,188.454 356.686 C 188.762 356.747,190.019 356.477,191.248 356.086 C 193.961 355.223,193.223 355.152,190.130 355.978 M102.421 356.425 C 101.672 356.664,101.636 356.725,102.235 356.734 C 102.644 356.740,103.315 356.601,103.724 356.425 C 104.673 356.017,103.694 356.017,102.421 356.425 M99.441 357.169 C 98.693 357.409,98.656 357.470,99.255 357.479 C 99.665 357.485,100.335 357.346,100.745 357.169 C 101.694 356.762,100.715 356.762,99.441 357.169 M185.661 357.169 L 184.916 357.490 185.661 357.490 C 186.071 357.490,186.741 357.346,187.151 357.169 L 187.896 356.849 187.151 356.849 C 186.741 356.849,186.071 356.993,185.661 357.169 M182.682 357.914 L 181.937 358.234 182.682 358.234 C 183.091 358.234,183.762 358.090,184.171 357.914 L 184.916 357.594 184.171 357.594 C 183.762 357.594,183.091 357.738,182.682 357.914 M144.197 358.845 C 144.191 359.255,144.330 359.926,144.507 360.335 C 144.914 361.284,144.914 360.305,144.507 359.032 C 144.267 358.283,144.206 358.247,144.197 358.845 M179.888 358.659 C 179.140 358.899,179.103 358.960,179.702 358.968 C 180.112 358.974,180.782 358.835,181.192 358.659 C 182.141 358.251,181.162 358.251,179.888 358.659 M176.909 359.404 C 176.160 359.644,176.124 359.704,176.723 359.713 C 177.132 359.719,177.803 359.580,178.212 359.404 C 179.161 358.996,178.182 358.996,176.909 359.404 M173.929 360.149 C 173.181 360.389,173.144 360.449,173.743 360.458 C 174.153 360.464,174.823 360.325,175.233 360.149 C 176.182 359.741,175.203 359.741,173.929 360.149 M169.274 361.254 C 167.840 361.623,166.866 361.945,167.109 361.968 C 167.641 362.020,172.556 360.901,172.779 360.678 C 173.072 360.386,171.890 360.580,169.274 361.254 M144.879 361.677 C 144.878 363.722,148.063 366.141,150.652 366.061 C 152.100 366.016,152.088 366.007,150.246 365.737 C 147.807 365.379,146.607 364.570,145.650 362.637 C 145.226 361.781,144.879 361.349,144.879 361.677 M164.618 362.384 C 163.870 362.623,163.833 362.684,164.432 362.693 C 164.842 362.699,165.512 362.560,165.922 362.384 C 166.871 361.976,165.892 361.976,164.618 362.384 M161.639 363.128 C 160.890 363.368,160.854 363.429,161.453 363.438 C 161.862 363.444,162.533 363.305,162.942 363.128 C 163.891 362.721,162.912 362.721,161.639 363.128 M158.845 363.873 C 158.376 364.075,158.307 364.193,158.659 364.193 C 158.966 364.193,159.553 364.049,159.963 363.873 C 160.432 363.672,160.501 363.553,160.149 363.553 C 159.842 363.553,159.255 363.697,158.845 363.873 M156.052 364.618 C 155.304 364.858,155.267 364.919,155.866 364.927 C 156.276 364.933,156.946 364.794,157.356 364.618 C 158.305 364.210,157.326 364.210,156.052 364.618 M153.073 365.363 C 152.324 365.603,152.288 365.663,152.886 365.672 C 153.296 365.678,153.966 365.539,154.376 365.363 C 155.325 364.955,154.346 364.955,153.073 365.363 " stroke="none" fill="#8ca2ad" fill-rule="evenodd"></path><path id="path6" d="M227.374 22.367 C 224.302 23.173,221.117 23.988,220.298 24.177 C 219.479 24.366,216.881 25.026,214.525 25.644 C 207.870 27.390,198.462 29.825,197.020 30.175 C 196.304 30.348,195.047 30.672,194.227 30.893 C 193.408 31.115,191.983 31.469,191.061 31.681 C 188.609 32.245,187.273 32.582,182.309 33.892 C 179.851 34.541,177.253 35.209,176.536 35.378 C 175.819 35.547,172.258 36.455,168.622 37.396 C 164.986 38.336,159.036 39.876,155.400 40.817 C 148.284 42.658,147.084 42.959,144.507 43.552 C 143.585 43.764,142.244 44.094,141.527 44.286 C 138.597 45.072,125.234 48.503,124.022 48.781 C 123.305 48.945,118.445 50.177,113.222 51.518 C 107.998 52.860,100.372 54.810,96.276 55.853 C 84.942 58.737,85.791 58.205,81.636 65.025 C 80.025 67.669,77.841 71.215,76.783 72.905 C 72.460 79.813,68.589 86.078,66.950 88.817 C 66.341 89.836,65.358 91.375,64.765 92.236 C 64.172 93.098,63.687 93.901,63.687 94.021 C 63.687 94.141,63.127 95.116,62.442 96.188 C 60.476 99.268,55.019 107.997,52.201 112.570 C 51.349 113.953,49.955 116.215,49.103 117.598 C 48.251 118.980,46.765 121.369,45.801 122.905 C 35.514 139.303,35.382 139.535,35.382 141.253 C 35.382 142.446,36.501 147.082,40.842 163.873 C 41.769 167.458,42.679 171.020,42.865 171.788 C 43.051 172.556,43.371 173.855,43.575 174.674 C 43.780 175.493,44.100 176.792,44.286 177.561 C 44.472 178.329,45.550 182.561,46.682 186.965 C 47.814 191.369,49.936 199.665,51.397 205.400 C 56.647 226.010,60.591 241.472,65.931 262.384 C 67.396 268.119,68.733 273.399,68.902 274.115 C 69.072 274.832,69.909 278.101,70.764 281.378 C 71.618 284.655,72.455 287.924,72.623 288.641 C 72.792 289.358,74.023 294.218,75.360 299.441 C 76.696 304.665,78.986 313.631,80.447 319.367 C 89.216 353.788,89.212 353.772,89.680 354.956 C 90.385 356.736,91.921 358.170,93.640 358.651 C 95.355 359.131,95.639 359.087,103.259 357.152 C 104.027 356.957,105.284 356.643,106.052 356.455 C 106.820 356.267,108.161 355.932,109.032 355.710 C 109.902 355.489,111.285 355.140,112.104 354.935 C 112.924 354.730,114.223 354.401,114.991 354.203 C 118.353 353.338,124.332 351.862,125.698 351.560 C 127.127 351.244,128.175 350.977,136.479 348.811 C 141.010 347.630,140.670 347.334,142.234 353.818 C 145.362 366.791,146.808 368.077,155.593 365.702 C 159.446 364.660,171.088 361.703,173.184 361.233 C 174.106 361.026,175.447 360.706,176.164 360.520 C 176.881 360.335,178.138 360.023,178.957 359.828 C 180.418 359.480,189.845 357.054,197.207 355.131 C 199.255 354.596,201.685 353.990,202.607 353.784 C 203.529 353.577,204.870 353.264,205.587 353.088 C 207.990 352.496,211.720 351.556,213.035 351.210 C 213.752 351.022,215.428 350.598,216.760 350.268 C 218.091 349.938,220.438 349.340,221.974 348.939 C 223.510 348.539,225.521 348.040,226.443 347.830 C 228.504 347.362,230.317 346.906,232.030 346.424 C 232.747 346.222,243.641 343.457,256.238 340.279 C 268.836 337.101,288.864 332.048,300.745 329.050 C 312.626 326.052,328.944 321.941,337.008 319.915 C 358.889 314.415,357.883 315.811,353.244 297.378 C 351.700 291.241,350.286 285.549,350.102 284.730 C 349.919 283.911,349.603 282.654,349.402 281.937 C 348.817 279.861,340.007 245.037,339.649 243.389 C 339.471 242.570,339.052 240.894,338.719 239.665 C 337.831 236.393,332.614 215.710,332.236 213.966 C 332.059 213.147,330.882 208.454,329.621 203.538 C 325.551 187.673,322.881 177.135,322.498 175.419 C 322.101 173.640,321.846 172.587,320.875 168.715 C 320.541 167.384,320.121 165.708,319.941 164.991 C 319.762 164.274,319.410 162.933,319.161 162.011 C 318.042 157.877,316.760 152.873,315.820 148.976 C 315.647 148.259,315.325 147.002,315.103 146.182 C 314.882 145.363,314.527 143.939,314.315 143.017 C 314.103 142.095,313.778 140.754,313.593 140.037 C 313.407 139.320,313.094 138.063,312.896 137.244 C 312.698 136.425,312.183 134.413,311.751 132.775 C 311.320 131.136,310.796 129.041,310.586 128.119 C 310.096 125.961,309.736 124.517,308.772 120.857 C 308.340 119.218,307.816 117.123,307.607 116.201 C 306.802 112.657,305.230 106.655,304.827 105.587 C 304.214 103.963,302.727 102.468,300.305 101.038 C 297.311 99.272,290.429 95.347,287.523 93.750 C 286.397 93.130,285.030 92.314,284.486 91.936 C 283.943 91.557,283.405 91.248,283.292 91.248 C 283.178 91.248,281.583 90.368,279.746 89.292 C 275.914 87.049,271.493 84.502,268.529 82.832 C 267.402 82.197,265.852 81.317,265.084 80.876 C 264.316 80.435,263.101 79.739,262.384 79.330 C 259.502 77.683,258.581 77.154,256.797 76.119 C 255.773 75.525,254.475 74.803,253.913 74.516 C 252.452 73.767,252.026 72.907,251.039 68.715 C 250.556 66.667,249.920 64.069,249.626 62.942 C 249.331 61.816,248.931 60.223,248.737 59.404 C 247.824 55.559,244.714 43.465,243.756 40.037 C 243.412 38.808,242.996 37.216,242.832 36.499 C 242.667 35.782,242.158 33.855,241.702 32.216 C 241.245 30.577,240.733 28.650,240.564 27.933 C 240.395 27.216,240.150 26.187,240.019 25.647 C 238.901 21.041,235.643 20.196,227.374 22.367 M237.004 22.532 C 238.440 23.473,239.329 25.155,240.152 28.492 C 240.556 30.130,241.503 33.818,242.256 36.685 C 243.009 39.553,244.130 43.827,244.748 46.182 C 245.365 48.538,247.108 55.384,248.620 61.396 C 250.133 67.408,251.473 72.652,251.599 73.049 C 251.892 73.971,254.477 75.592,266.108 82.148 C 271.934 85.432,276.016 87.762,290.524 96.084 C 303.700 103.642,303.778 103.705,304.872 107.842 C 305.194 109.060,308.114 120.615,311.362 133.520 C 314.610 146.425,319.560 166.034,322.363 177.095 C 325.165 188.156,327.590 197.793,327.751 198.510 C 327.911 199.227,330.669 210.205,333.877 222.905 C 337.086 235.605,341.808 254.292,344.370 264.432 C 356.717 313.293,356.319 311.298,354.192 313.721 C 352.672 315.452,354.370 314.956,322.719 322.917 C 299.442 328.772,283.990 332.688,274.115 335.234 C 273.399 335.418,271.471 335.890,269.832 336.281 C 268.194 336.673,258.808 339.030,248.976 341.519 C 232.183 345.771,204.697 352.708,181.378 358.579 C 175.745 359.998,168.622 361.772,165.549 362.522 C 162.477 363.273,158.045 364.387,155.702 364.997 C 146.344 367.436,145.923 366.962,141.761 349.281 C 141.329 347.445,140.703 347.140,138.472 347.683 C 137.387 347.947,127.463 350.440,116.419 353.225 C 95.285 358.552,94.378 358.716,92.473 357.555 C 90.710 356.480,90.071 354.871,87.731 345.624 C 86.565 341.015,84.710 333.724,83.608 329.423 C 82.507 325.121,79.240 312.300,76.349 300.931 C 73.457 289.562,70.442 277.747,69.648 274.674 C 68.853 271.601,66.246 261.378,63.853 251.955 C 61.460 242.533,57.176 225.689,54.332 214.525 C 51.489 203.361,47.327 187.020,45.084 178.212 C 42.841 169.404,39.974 158.259,38.714 153.445 C 36.222 143.930,35.698 140.321,36.599 138.874 C 40.415 132.741,53.223 112.058,57.903 104.469 C 59.293 102.216,61.222 99.115,62.191 97.579 C 63.160 96.043,65.339 92.523,67.033 89.758 C 70.656 83.845,72.475 80.909,74.875 77.095 C 76.592 74.366,82.457 64.868,84.121 62.120 C 86.021 58.984,85.384 59.233,102.980 54.746 C 109.534 53.074,117.495 51.038,120.670 50.221 C 123.845 49.404,131.639 47.417,137.989 45.806 C 144.339 44.194,152.886 42.016,156.983 40.965 C 161.080 39.913,168.622 37.987,173.743 36.684 C 189.307 32.723,200.118 29.962,209.497 27.554 C 235.957 20.760,234.661 20.997,237.004 22.532 " stroke="none" fill="#c9d3d7" fill-rule="evenodd"></path><path id="path7" d="M219.671 25.307 C 202.700 29.634,180.567 35.297,173.557 37.105 C 168.247 38.474,148.226 43.589,129.236 48.428 C 82.050 60.453,86.672 59.082,84.985 61.546 C 84.389 62.416,81.890 66.397,79.432 70.391 C 76.975 74.385,69.973 85.698,63.873 95.531 C 57.773 105.363,50.396 117.263,47.479 121.974 C 44.563 126.685,40.983 132.463,39.525 134.814 C 38.067 137.165,36.700 139.616,36.487 140.261 C 36.080 141.494,36.529 143.348,50.278 197.207 C 52.736 206.834,56.602 222.002,58.870 230.912 C 61.138 239.823,64.813 254.236,67.035 262.942 C 69.258 271.648,72.441 284.134,74.109 290.689 C 75.776 297.244,78.212 306.797,79.521 311.918 C 80.831 317.039,83.749 328.520,86.005 337.430 C 90.373 354.678,90.974 356.405,92.926 357.332 C 94.940 358.288,95.765 358.128,118.555 352.378 C 138.866 347.253,140.511 346.894,141.137 347.447 C 141.585 347.843,142.400 350.429,143.556 355.115 C 145.445 362.779,146.087 364.223,148.014 365.137 C 150.238 366.193,146.303 367.097,214.339 349.906 C 225.196 347.163,243.966 342.420,256.052 339.365 C 268.138 336.311,294.451 329.677,314.525 324.624 C 354.583 314.540,352.707 315.068,354.011 313.517 C 355.749 311.452,355.557 310.383,348.199 281.241 C 344.495 266.568,338.366 242.244,334.580 227.188 C 330.794 212.132,325.437 190.847,322.676 179.888 C 319.915 168.929,314.889 148.901,311.506 135.382 C 304.029 105.497,303.938 105.179,302.342 103.674 C 301.669 103.039,296.257 99.748,290.317 96.361 C 262.027 80.232,252.674 74.813,252.057 74.196 C 251.606 73.746,249.752 67.141,246.385 53.989 C 238.656 23.795,239.026 25.072,237.563 23.609 C 235.252 21.298,235.477 21.276,219.671 25.307 M236.381 23.288 C 238.155 24.450,238.315 24.989,246.607 57.728 C 248.657 65.819,250.614 73.012,250.958 73.712 C 251.624 75.068,253.195 76.050,267.970 84.348 C 268.994 84.923,271.045 86.124,272.526 87.017 C 274.008 87.910,275.304 88.641,275.407 88.641 C 275.510 88.641,276.393 89.127,277.369 89.722 C 279.381 90.948,279.314 90.909,290.361 97.168 C 300.737 103.046,302.279 104.045,302.926 105.303 C 303.217 105.869,305.244 113.454,307.432 122.160 C 309.619 130.866,313.926 147.961,317.003 160.149 C 322.275 181.035,330.107 212.134,341.907 259.032 C 344.741 270.298,348.664 285.871,350.625 293.639 C 355.070 311.247,355.174 313.401,351.638 314.504 C 350.594 314.830,331.746 319.615,330.168 319.954 C 329.348 320.131,326.750 320.771,324.395 321.377 C 322.039 321.983,311.480 324.658,300.931 327.321 C 280.368 332.513,264.985 336.402,213.780 349.357 C 195.857 353.892,179.516 358.019,177.467 358.528 C 175.419 359.038,168.750 360.700,162.646 362.223 C 146.256 366.311,147.132 366.665,144.130 354.752 C 143.097 350.658,142.009 347.064,141.711 346.766 C 140.954 346.008,140.148 346.180,116.783 352.089 C 95.046 357.586,94.164 357.733,92.455 356.137 C 91.161 354.928,91.097 354.724,87.313 339.793 C 85.763 333.680,83.512 324.823,82.309 320.112 C 81.107 315.400,78.951 306.937,77.518 301.304 C 76.085 295.670,73.883 287.039,72.625 282.123 C 71.367 277.207,69.103 268.324,67.594 262.384 C 66.085 256.443,63.907 247.896,62.754 243.389 C 61.602 238.883,59.485 230.587,58.051 224.953 C 52.105 201.593,50.593 195.662,48.419 187.151 C 47.162 182.235,44.961 173.603,43.527 167.970 C 42.094 162.337,40.171 154.795,39.254 151.210 C 36.302 139.667,35.976 141.781,42.272 131.651 C 44.689 127.762,47.704 122.905,48.973 120.857 C 50.242 118.808,52.370 115.372,53.703 113.222 C 55.036 111.071,58.355 105.708,61.078 101.304 C 63.801 96.899,66.816 92.039,67.778 90.503 C 68.740 88.966,70.202 86.620,71.026 85.289 C 71.849 83.957,74.030 80.438,75.871 77.467 C 77.712 74.497,80.613 69.804,82.316 67.039 C 87.298 58.953,83.276 60.798,111.546 53.633 C 117.076 52.231,126.294 49.883,132.030 48.414 C 154.424 42.681,162.868 40.526,180.819 35.963 C 191.061 33.360,200.615 30.919,202.048 30.539 C 203.482 30.158,208.343 28.895,212.849 27.730 C 217.356 26.566,223.808 24.896,227.188 24.019 C 233.425 22.401,234.855 22.288,236.381 23.288 M229.423 27.421 C 227.477 27.921,223.706 28.908,221.043 29.614 C 218.380 30.319,214.525 31.304,212.477 31.802 C 208.872 32.679,194.590 36.304,176.536 40.926 C 152.322 47.124,122.596 54.722,112.291 57.346 C 93.651 62.092,95.565 61.328,95.810 63.930 C 96.035 66.336,101.333 86.899,102.104 88.361 C 102.810 89.702,101.364 90.019,145.810 78.769 C 205.984 63.538,221.891 59.590,223.099 59.590 C 224.142 59.590,226.369 60.688,232.986 64.463 C 243.684 70.567,244.150 70.806,244.857 70.534 C 245.850 70.153,245.927 70.524,240.427 48.976 C 238.858 42.831,237.152 36.127,236.635 34.078 C 236.118 32.030,235.536 29.733,235.342 28.974 C 234.639 26.221,234.367 26.149,229.423 27.421 M233.806 28.026 C 234.149 28.449,235.653 34.210,242.071 59.688 C 243.245 64.351,244.316 68.276,244.449 68.410 C 244.809 68.770,244.745 69.646,244.358 69.646 C 244.174 69.646,242.921 68.976,241.572 68.156 C 240.223 67.337,239.017 66.667,238.891 66.667 C 238.765 66.667,238.218 66.357,237.674 65.979 C 237.130 65.600,235.764 64.787,234.637 64.171 C 232.239 62.861,230.618 61.937,228.305 60.561 C 223.650 57.791,226.646 57.361,196.089 65.185 C 182.365 68.699,170.549 71.710,169.832 71.876 C 169.115 72.042,161.825 73.886,153.631 75.975 C 145.438 78.063,138.063 79.921,137.244 80.104 C 136.425 80.287,135.168 80.592,134.451 80.782 C 133.734 80.971,127.700 82.475,121.043 84.122 C 102.300 88.760,103.089 88.635,102.638 87.032 C 100.408 79.096,97.052 65.340,97.039 64.075 L 97.020 62.414 98.883 61.915 C 99.907 61.640,101.331 61.178,102.048 60.887 C 102.765 60.596,108.380 59.098,114.525 57.558 C 125.694 54.760,152.767 47.863,175.233 42.092 C 189.471 38.435,190.201 38.250,194.972 37.091 C 197.020 36.593,201.965 35.360,205.959 34.351 C 209.953 33.342,214.143 32.324,215.270 32.090 C 216.397 31.855,220.754 30.759,224.953 29.654 C 233.753 27.339,233.314 27.420,233.806 28.026 M88.222 66.392 C 87.275 67.875,85.114 71.350,83.419 74.115 C 81.724 76.881,79.714 80.149,78.953 81.378 C 78.192 82.607,76.015 86.127,74.115 89.199 C 72.216 92.272,70.037 95.791,69.274 97.020 C 67.489 99.895,62.037 108.704,58.211 114.898 C 56.565 117.561,53.042 123.259,50.381 127.561 C 41.073 142.604,40.850 143.060,42.648 143.303 C 43.639 143.437,86.346 132.729,87.006 132.181 C 87.836 131.493,87.716 130.866,83.611 114.386 C 78.496 93.850,77.644 95.540,95.104 91.579 C 97.242 91.094,98.474 90.028,98.218 88.883 C 97.507 85.702,92.268 65.529,91.940 64.711 C 91.212 62.895,90.150 63.375,88.222 66.392 M221.622 64.221 C 221.225 64.699,228.149 93.391,235.019 119.735 C 236.647 125.978,236.170 125.705,242.541 124.046 C 247.287 122.810,261.053 119.264,267.225 117.687 C 269.479 117.112,274.674 115.769,278.771 114.704 C 282.868 113.639,289.038 112.054,292.483 111.182 C 300.130 109.247,300.977 108.549,297.859 106.750 C 297.193 106.365,296.145 105.756,295.531 105.396 C 291.115 102.811,224.850 64.958,223.758 64.397 C 222.104 63.548,222.176 63.553,221.622 64.221 M91.569 66.015 C 92.394 68.651,97.209 88.505,97.208 89.266 C 97.207 90.178,97.124 90.207,87.896 92.553 C 81.533 94.171,80.692 94.603,79.630 96.798 L 78.828 98.454 82.811 114.497 C 87.348 132.766,87.090 131.253,85.754 131.800 C 83.532 132.708,43.033 142.623,42.740 142.330 C 42.458 142.049,44.443 138.605,50.288 129.236 C 51.375 127.495,53.546 123.976,55.114 121.415 C 59.914 113.576,64.034 106.919,65.337 104.901 C 66.020 103.844,71.317 95.270,77.109 85.847 C 91.732 62.059,90.752 63.404,91.569 66.015 M232.762 70.391 C 238.153 73.464,242.635 75.978,242.723 75.978 C 242.811 75.978,243.583 76.450,244.439 77.028 C 245.296 77.606,247.169 78.712,248.603 79.486 C 250.037 80.259,252.719 81.775,254.562 82.853 C 257.666 84.667,262.624 87.515,268.529 90.875 C 269.860 91.633,272.793 93.308,275.047 94.598 C 277.300 95.888,281.490 98.286,284.358 99.926 C 301.059 109.479,300.197 108.391,292.551 110.262 C 289.479 111.014,285.624 112.011,283.985 112.479 C 282.346 112.946,279.749 113.618,278.212 113.972 C 276.676 114.327,273.408 115.163,270.950 115.832 C 268.492 116.500,265.894 117.176,265.177 117.334 C 263.825 117.632,258.602 118.984,247.114 122.010 C 243.426 122.981,239.652 123.845,238.727 123.929 L 237.043 124.083 236.348 121.539 C 235.966 120.139,235.522 118.408,235.361 117.691 C 235.200 116.974,234.730 115.130,234.316 113.594 C 233.902 112.058,233.476 110.466,233.369 110.056 C 233.176 109.316,228.030 88.219,227.783 87.151 C 227.712 86.844,227.107 84.581,226.439 82.123 C 225.771 79.665,225.088 77.067,224.920 76.350 C 224.333 73.840,223.889 72.043,223.125 69.088 C 221.733 63.702,220.806 63.576,232.762 70.391 M210.242 66.304 C 204.509 67.765,167.159 77.205,140.968 83.811 C 78.633 99.535,83.799 98.121,83.799 99.459 C 83.799 99.864,84.314 102.162,84.945 104.567 C 85.575 106.971,90.535 126.620,95.969 148.231 C 101.402 169.842,107.666 194.730,109.888 203.538 C 112.111 212.346,117.195 232.542,121.185 248.417 C 125.175 264.292,130.729 286.331,133.528 297.393 C 136.327 308.454,141.022 327.126,143.961 338.885 C 147.177 351.752,149.541 360.501,149.896 360.856 C 150.435 361.396,151.434 361.206,161.370 358.681 C 173.818 355.516,197.776 349.463,228.492 341.721 C 240.168 338.778,257.346 334.440,266.667 332.082 C 275.987 329.724,294.590 325.029,308.007 321.649 C 355.420 309.707,350.466 311.122,350.466 309.528 C 350.466 308.288,341.679 272.948,322.540 197.207 C 312.807 158.689,305.708 130.514,305.415 129.236 C 303.219 119.675,301.477 113.860,300.703 113.507 C 299.880 113.132,296.783 113.855,273.371 119.882 C 270.196 120.699,264.246 122.227,260.149 123.277 C 256.052 124.327,250.857 125.668,248.603 126.257 C 232.395 130.494,234.266 132.108,228.523 108.939 C 226.339 100.130,223.051 87.026,221.215 79.819 C 219.379 72.611,217.877 66.631,217.877 66.530 C 217.877 64.992,215.649 64.925,210.242 66.304 M216.335 66.254 C 216.901 66.613,216.967 66.862,225.653 101.304 C 232.274 127.557,232.499 128.239,234.924 129.396 C 236.770 130.276,237.019 130.234,250.937 126.654 C 258.052 124.825,267.561 122.382,272.067 121.227 C 276.574 120.072,284.399 118.050,289.457 116.733 C 300.267 113.919,300.367 113.908,300.878 115.549 C 301.696 118.179,305.296 132.025,305.985 135.196 C 306.275 136.527,306.671 138.035,306.865 138.547 C 307.060 139.060,308.577 145.009,310.237 151.769 C 314.174 167.805,316.981 179.002,318.453 184.544 C 319.106 187.002,319.786 189.683,319.964 190.503 C 320.142 191.322,320.457 192.621,320.665 193.389 C 320.873 194.157,321.213 195.414,321.421 196.182 C 321.628 196.951,321.948 198.250,322.131 199.069 C 322.314 199.888,323.810 205.838,325.456 212.291 C 327.102 218.743,329.223 227.123,330.169 230.912 C 331.116 234.702,333.578 244.507,335.641 252.700 C 351.091 314.053,350.224 309.962,347.915 310.608 C 347.167 310.817,332.561 314.520,315.456 318.835 C 298.352 323.151,276.816 328.587,267.598 330.915 C 244.172 336.830,215.232 344.132,186.406 351.400 C 172.886 354.809,159.595 358.172,156.870 358.873 C 149.861 360.678,150.407 360.939,149.026 355.121 C 147.826 350.069,136.294 304.166,135.927 302.980 C 135.737 302.365,135.263 300.521,134.874 298.883 C 134.485 297.244,130.784 282.495,126.649 266.108 C 122.514 249.721,116.785 227.011,113.917 215.642 C 111.049 204.274,105.352 181.648,101.258 165.363 C 97.163 149.078,91.867 128.128,89.488 118.808 C 87.109 109.488,85.091 101.246,85.003 100.492 L 84.843 99.122 87.394 98.375 C 88.796 97.964,94.385 96.515,99.814 95.157 C 109.244 92.796,113.535 91.698,124.767 88.773 C 127.533 88.052,132.058 86.900,134.823 86.211 C 151.189 82.137,162.454 79.299,164.246 78.799 C 168.017 77.747,214.007 66.265,215.642 65.967 C 215.745 65.948,216.056 66.077,216.335 66.254 M65.276 141.697 C 53.552 144.620,43.706 147.223,43.395 147.481 C 42.532 148.197,42.690 149.486,44.521 156.677 C 45.450 160.328,47.974 170.270,50.130 178.771 C 52.285 187.272,55.703 200.680,57.725 208.566 C 59.747 216.453,63.193 229.944,65.383 238.547 C 77.010 284.227,83.142 308.282,86.080 319.739 C 87.498 325.270,89.813 334.320,91.225 339.851 C 94.627 353.180,94.512 352.860,95.953 353.000 C 96.880 353.090,122.242 346.867,136.641 343.017 C 139.682 342.204,140.410 341.767,140.410 340.755 C 140.410 339.986,136.715 325.049,127.382 288.082 C 117.778 250.043,105.658 201.931,93.714 154.436 C 91.353 145.046,89.225 137.127,88.985 136.838 C 88.283 135.991,87.590 136.133,65.276 141.697 M89.140 140.317 C 89.663 141.904,92.445 152.588,95.320 164.060 C 98.196 175.531,104.584 200.922,109.515 220.484 C 114.447 240.047,121.333 267.365,124.817 281.192 C 132.856 313.087,139.317 339.435,139.292 340.223 C 139.262 341.210,138.093 341.645,129.785 343.763 C 124.875 345.014,115.638 347.369,109.259 348.997 C 96.512 352.248,95.553 352.393,95.199 351.117 C 95.072 350.656,93.875 345.922,92.540 340.596 C 91.206 335.270,89.946 330.615,89.740 330.251 C 89.535 329.888,87.960 324.022,86.240 317.216 C 82.801 303.611,79.473 290.559,77.103 281.378 C 76.257 278.101,73.889 268.799,71.842 260.708 C 69.794 252.616,67.214 242.477,66.108 238.175 C 65.002 233.873,62.989 225.996,61.633 220.670 C 60.278 215.345,58.527 208.473,57.742 205.400 C 56.957 202.328,54.111 191.099,51.418 180.447 C 48.726 169.795,46.282 160.242,45.989 159.218 C 44.114 152.677,43.572 148.461,44.555 148.063 C 45.886 147.524,86.226 137.501,87.204 137.465 C 88.110 137.433,88.265 137.661,89.140 140.317 " stroke="none" fill="#7c727a" fill-rule="evenodd"></path></g></svg>