<svg id="svg" version="1.1" xmlns="http://www.w3.org/2000/svg" xmlns:xlink="http://www.w3.org/1999/xlink" width="318" height="450" viewBox="0, 0, 400,532"><g id="svgg"><path id="path0" d="M185.535 28.926 C 185.535 29.088,185.387 29.163,185.205 29.094 C 185.024 29.024,184.755 29.088,184.608 29.236 C 184.460 29.383,184.340 29.426,184.340 29.330 C 184.340 29.036,182.873 29.898,182.235 30.567 C 181.903 30.916,181.711 31.040,181.808 30.843 C 181.964 30.524,181.948 30.524,181.657 30.843 C 181.476 31.040,181.173 31.352,180.981 31.535 C 180.678 31.827,180.679 31.843,180.992 31.664 C 181.189 31.551,180.948 31.874,180.456 32.381 C 179.630 33.232,179.593 33.328,179.978 33.620 C 180.363 33.912,180.355 33.936,179.864 33.943 C 179.492 33.949,179.375 34.058,179.471 34.310 C 179.547 34.507,179.493 34.668,179.352 34.668 C 179.210 34.668,179.156 34.830,179.232 35.027 C 179.308 35.224,179.243 35.386,179.089 35.386 C 178.917 35.386,178.867 35.571,178.960 35.864 C 179.053 36.157,179.003 36.342,178.831 36.342 C 178.677 36.342,178.611 36.500,178.685 36.693 C 178.759 36.886,178.709 37.112,178.575 37.195 C 178.440 37.279,178.382 37.484,178.447 37.652 C 178.511 37.820,178.458 38.063,178.328 38.193 C 178.199 38.322,178.083 38.766,178.072 39.178 C 178.060 39.591,177.952 39.928,177.832 39.928 C 177.711 39.928,177.681 40.143,177.764 40.406 C 177.857 40.699,177.807 40.885,177.635 40.885 C 177.481 40.885,177.415 41.043,177.489 41.236 C 177.563 41.429,177.531 41.644,177.416 41.715 C 177.192 41.854,176.803 43.681,176.894 44.172 C 176.924 44.337,176.829 44.471,176.683 44.471 C 176.526 44.471,176.479 44.667,176.569 44.949 C 176.662 45.242,176.612 45.427,176.440 45.427 C 176.286 45.427,176.220 45.585,176.294 45.778 C 176.368 45.971,176.339 46.185,176.229 46.253 C 175.820 46.505,175.789 47.587,176.183 47.817 C 176.507 48.007,176.483 48.044,176.031 48.050 C 175.389 48.059,175.329 48.416,175.912 48.756 C 176.281 48.971,176.264 49.000,175.766 49.006 C 175.371 49.012,175.243 49.118,175.338 49.365 C 175.412 49.558,175.362 49.784,175.227 49.867 C 175.093 49.950,175.035 50.156,175.100 50.324 C 175.164 50.492,175.107 50.739,174.972 50.873 C 174.838 51.008,174.728 51.505,174.728 51.978 C 174.728 52.494,174.632 52.778,174.487 52.689 C 174.337 52.596,174.307 52.732,174.408 53.048 C 174.507 53.363,174.466 53.556,174.298 53.556 C 174.135 53.556,174.087 53.748,174.178 54.035 C 174.271 54.328,174.221 54.513,174.049 54.513 C 173.895 54.513,173.825 54.661,173.895 54.842 C 173.964 55.024,173.915 55.278,173.786 55.407 C 173.656 55.537,173.541 55.980,173.529 56.393 C 173.517 56.805,173.409 57.143,173.289 57.143 C 173.168 57.143,173.138 57.358,173.222 57.621 C 173.313 57.907,173.265 58.099,173.102 58.099 C 172.940 58.099,172.892 58.291,172.983 58.577 C 173.072 58.860,173.026 59.056,172.869 59.056 C 172.723 59.056,172.625 59.190,172.651 59.354 C 172.678 59.519,172.630 59.815,172.545 60.012 C 172.460 60.209,172.359 60.586,172.321 60.849 C 172.283 61.112,172.168 61.461,172.065 61.626 C 171.962 61.790,171.940 62.025,172.016 62.147 C 172.092 62.270,172.037 62.442,171.894 62.530 C 171.752 62.618,171.691 62.837,171.760 63.017 C 171.829 63.197,171.780 63.409,171.651 63.489 C 171.522 63.569,171.436 63.761,171.460 63.915 C 171.484 64.070,171.434 64.357,171.350 64.555 C 171.265 64.752,171.164 65.129,171.126 65.392 C 171.087 65.655,170.972 66.004,170.870 66.169 C 170.767 66.333,170.745 66.568,170.821 66.690 C 170.896 66.812,170.842 66.985,170.699 67.073 C 170.556 67.161,170.496 67.380,170.565 67.560 C 170.634 67.740,170.585 67.952,170.455 68.032 C 170.326 68.112,170.240 68.303,170.264 68.458 C 170.289 68.612,170.239 68.900,170.154 69.097 C 170.069 69.295,169.968 69.671,169.930 69.934 C 169.892 70.197,169.777 70.547,169.674 70.711 C 169.572 70.876,169.550 71.110,169.625 71.233 C 169.701 71.355,169.646 71.527,169.503 71.616 C 169.361 71.704,169.301 71.923,169.370 72.103 C 169.439 72.282,169.385 72.498,169.250 72.581 C 169.115 72.664,169.061 72.879,169.130 73.059 C 169.199 73.239,169.146 73.454,169.011 73.537 C 168.876 73.620,168.819 73.826,168.883 73.994 C 168.948 74.162,168.894 74.405,168.765 74.535 C 168.635 74.664,168.520 75.108,168.508 75.520 C 168.496 75.933,168.384 76.270,168.258 76.270 C 168.133 76.270,168.091 76.428,168.165 76.621 C 168.239 76.814,168.189 77.040,168.055 77.124 C 167.920 77.207,167.866 77.422,167.935 77.602 C 168.004 77.781,167.950 77.997,167.815 78.080 C 167.681 78.163,167.623 78.369,167.688 78.537 C 167.752 78.705,167.699 78.948,167.569 79.077 C 167.440 79.207,167.324 79.650,167.313 80.063 C 167.301 80.475,167.189 80.813,167.063 80.813 C 166.937 80.813,166.895 80.971,166.969 81.164 C 167.043 81.357,166.994 81.583,166.859 81.666 C 166.724 81.750,166.671 81.965,166.740 82.144 C 166.809 82.324,166.755 82.539,166.620 82.623 C 166.485 82.706,166.428 82.911,166.492 83.079 C 166.557 83.247,166.503 83.491,166.374 83.620 C 166.244 83.750,166.129 84.193,166.117 84.606 C 166.105 85.018,165.993 85.356,165.868 85.356 C 165.742 85.356,165.700 85.514,165.774 85.707 C 165.848 85.900,165.798 86.126,165.664 86.209 C 165.529 86.292,165.475 86.507,165.544 86.687 C 165.613 86.867,165.559 87.082,165.425 87.165 C 165.290 87.249,165.232 87.454,165.297 87.622 C 165.361 87.790,165.308 88.033,165.178 88.163 C 165.049 88.292,164.933 88.736,164.922 89.148 C 164.910 89.561,164.798 89.898,164.672 89.898 C 164.546 89.898,164.504 90.056,164.578 90.249 C 164.653 90.442,164.603 90.668,164.468 90.752 C 164.333 90.835,164.280 91.050,164.349 91.230 C 164.418 91.410,164.364 91.625,164.229 91.708 C 164.094 91.791,164.037 91.997,164.101 92.165 C 164.166 92.333,164.112 92.576,163.983 92.706 C 163.853 92.835,163.738 93.279,163.726 93.691 C 163.714 94.104,163.606 94.441,163.486 94.441 C 163.366 94.441,163.336 94.656,163.419 94.919 C 163.512 95.212,163.462 95.397,163.290 95.397 C 163.136 95.397,163.070 95.555,163.144 95.748 C 163.218 95.942,163.168 96.168,163.034 96.251 C 162.899 96.334,162.841 96.540,162.906 96.708 C 162.970 96.875,162.917 97.119,162.788 97.248 C 162.658 97.378,162.542 97.821,162.531 98.234 C 162.519 98.646,162.407 98.984,162.281 98.984 C 162.156 98.984,162.113 99.142,162.188 99.335 C 162.262 99.528,162.212 99.754,162.077 99.837 C 161.943 99.920,161.889 100.136,161.958 100.315 C 162.027 100.495,161.973 100.710,161.838 100.794 C 161.703 100.877,161.646 101.082,161.710 101.250 C 161.775 101.418,161.722 101.662,161.592 101.791 C 161.463 101.921,161.347 102.364,161.335 102.777 C 161.324 103.189,161.211 103.527,161.086 103.527 C 160.960 103.527,160.918 103.685,160.992 103.878 C 161.066 104.071,161.017 104.297,160.882 104.380 C 160.747 104.463,160.690 104.669,160.754 104.837 C 160.818 105.005,160.765 105.248,160.636 105.377 C 160.506 105.507,160.391 105.950,160.379 106.363 C 160.367 106.775,160.259 107.113,160.139 107.113 C 160.018 107.113,159.988 107.328,160.072 107.591 C 160.163 107.878,160.115 108.069,159.952 108.069 C 159.790 108.069,159.742 108.261,159.833 108.548 C 159.926 108.840,159.876 109.026,159.704 109.026 C 159.549 109.026,159.480 109.174,159.549 109.355 C 159.619 109.536,159.570 109.791,159.440 109.920 C 159.311 110.050,159.195 110.493,159.183 110.906 C 159.172 111.318,159.064 111.656,158.943 111.656 C 158.823 111.656,158.793 111.871,158.876 112.134 C 158.969 112.427,158.919 112.612,158.747 112.612 C 158.593 112.612,158.527 112.770,158.601 112.963 C 158.675 113.156,158.626 113.382,158.491 113.465 C 158.356 113.549,158.302 113.764,158.371 113.944 C 158.440 114.123,158.407 114.326,158.297 114.394 C 157.888 114.646,157.857 115.728,158.251 115.958 C 158.635 116.183,158.328 116.330,157.711 116.217 C 157.596 116.196,157.565 116.341,157.641 116.540 C 157.717 116.738,157.669 116.969,157.535 117.052 C 157.400 117.135,157.346 117.350,157.415 117.530 C 157.484 117.710,157.430 117.925,157.295 118.008 C 157.161 118.091,157.103 118.297,157.168 118.465 C 157.232 118.633,157.179 118.876,157.049 119.006 C 156.920 119.135,156.804 119.579,156.793 119.991 C 156.781 120.404,156.668 120.741,156.543 120.741 C 156.417 120.741,156.375 120.899,156.449 121.092 C 156.523 121.285,156.477 121.509,156.346 121.590 C 156.215 121.671,156.177 121.957,156.262 122.226 C 156.375 122.580,156.335 122.663,156.117 122.529 C 155.892 122.390,155.859 122.506,155.982 122.997 C 156.101 123.470,156.068 123.602,155.862 123.475 C 155.657 123.348,155.624 123.480,155.743 123.953 C 155.850 124.381,155.821 124.554,155.658 124.453 C 155.246 124.198,155.379 124.608,155.828 124.976 C 156.214 125.293,156.204 125.310,155.687 125.199 C 155.190 125.092,155.144 125.146,155.278 125.679 C 155.386 126.109,155.348 126.230,155.145 126.105 C 154.940 125.978,154.907 126.110,155.026 126.583 C 155.144 127.057,155.111 127.188,154.906 127.061 C 154.700 126.934,154.668 127.066,154.786 127.540 C 154.905 128.013,154.872 128.145,154.667 128.018 C 154.461 127.891,154.428 128.023,154.547 128.496 C 154.655 128.924,154.625 129.096,154.463 128.996 C 154.050 128.741,154.183 129.151,154.632 129.519 C 155.020 129.837,155.012 129.854,154.513 129.747 C 153.873 129.610,153.805 130.005,154.393 130.449 C 154.775 130.737,154.762 130.756,154.250 130.664 C 153.753 130.574,153.706 130.632,153.841 131.171 C 153.951 131.607,153.914 131.730,153.711 131.604 C 153.505 131.477,153.472 131.609,153.591 132.082 C 153.710 132.556,153.677 132.688,153.471 132.561 C 153.266 132.434,153.233 132.565,153.352 133.039 C 153.459 133.467,153.430 133.639,153.267 133.538 C 153.130 133.454,153.019 133.493,153.019 133.626 C 153.019 133.759,153.207 133.988,153.437 134.135 C 153.801 134.368,153.783 134.387,153.296 134.283 C 152.799 134.177,152.753 134.231,152.887 134.765 C 152.995 135.195,152.957 135.316,152.754 135.191 C 152.549 135.064,152.516 135.195,152.635 135.669 C 152.753 136.142,152.721 136.274,152.515 136.147 C 152.310 136.020,152.277 136.152,152.396 136.625 C 152.514 137.099,152.481 137.230,152.276 137.103 C 152.070 136.976,152.038 137.108,152.156 137.582 C 152.264 138.009,152.235 138.182,152.072 138.081 C 151.935 137.997,151.823 138.036,151.823 138.169 C 151.823 138.302,152.011 138.531,152.241 138.678 C 152.606 138.911,152.588 138.930,152.100 138.826 C 151.603 138.720,151.557 138.774,151.691 139.308 C 151.799 139.737,151.761 139.859,151.559 139.733 C 151.353 139.606,151.320 139.738,151.439 140.212 C 151.558 140.685,151.525 140.817,151.320 140.690 C 151.114 140.563,151.081 140.694,151.200 141.168 C 151.319 141.641,151.286 141.773,151.081 141.646 C 150.875 141.519,150.842 141.651,150.961 142.124 C 151.068 142.552,151.039 142.725,150.876 142.624 C 150.740 142.539,150.628 142.579,150.628 142.712 C 150.628 142.844,150.816 143.073,151.046 143.220 C 151.410 143.453,151.392 143.472,150.905 143.368 C 150.408 143.263,150.362 143.317,150.496 143.850 C 150.604 144.280,150.566 144.401,150.363 144.276 C 150.158 144.149,150.125 144.281,150.244 144.754 C 150.363 145.231,150.330 145.360,150.121 145.231 C 149.920 145.106,149.875 145.207,149.970 145.569 C 150.044 145.853,149.995 146.085,149.862 146.085 C 149.721 146.085,149.684 146.342,149.774 146.703 C 149.875 147.103,149.842 147.266,149.681 147.167 C 149.544 147.082,149.432 147.122,149.432 147.254 C 149.432 147.387,149.620 147.616,149.851 147.763 C 150.215 147.996,150.197 148.015,149.709 147.911 C 149.213 147.805,149.167 147.860,149.300 148.393 C 149.408 148.823,149.371 148.944,149.168 148.819 C 148.962 148.692,148.929 148.823,149.048 149.297 C 149.168 149.774,149.135 149.903,148.926 149.773 C 148.725 149.649,148.680 149.750,148.774 150.112 C 148.849 150.396,148.800 150.628,148.667 150.628 C 148.525 150.628,148.489 150.885,148.579 151.245 C 148.680 151.646,148.647 151.809,148.485 151.709 C 148.349 151.625,148.237 151.664,148.237 151.797 C 148.237 151.930,148.425 152.159,148.655 152.306 C 149.020 152.539,149.001 152.558,148.514 152.454 C 148.017 152.348,147.971 152.402,148.105 152.936 C 148.213 153.366,148.175 153.487,147.972 153.362 C 147.767 153.235,147.734 153.366,147.853 153.840 C 147.972 154.316,147.939 154.445,147.730 154.316 C 147.529 154.192,147.484 154.293,147.579 154.655 C 147.653 154.938,147.605 155.170,147.471 155.170 C 147.330 155.170,147.293 155.428,147.384 155.788 C 147.484 156.189,147.451 156.352,147.290 156.252 C 147.153 156.168,147.041 156.207,147.041 156.340 C 147.041 156.473,147.230 156.701,147.460 156.849 C 147.824 157.081,147.806 157.101,147.318 156.997 C 146.822 156.891,146.776 156.945,146.910 157.478 C 147.017 157.908,146.980 158.030,146.777 157.904 C 146.571 157.777,146.538 157.909,146.657 158.382 C 146.776 158.856,146.743 158.988,146.538 158.861 C 146.332 158.734,146.299 158.865,146.418 159.339 C 146.526 159.767,146.496 159.939,146.334 159.839 C 145.921 159.584,146.054 159.994,146.503 160.362 C 146.891 160.680,146.883 160.697,146.384 160.590 C 145.743 160.453,145.679 160.839,146.264 161.318 C 146.651 161.635,146.640 161.652,146.123 161.541 C 145.626 161.434,145.580 161.488,145.714 162.021 C 145.822 162.451,145.784 162.572,145.581 162.447 C 145.376 162.320,145.343 162.452,145.462 162.925 C 145.581 163.399,145.548 163.530,145.342 163.403 C 145.137 163.276,145.104 163.408,145.223 163.882 C 145.330 164.309,145.301 164.482,145.138 164.381 C 144.726 164.126,144.859 164.537,145.308 164.905 C 145.696 165.223,145.687 165.239,145.188 165.133 C 144.547 164.996,144.484 165.382,145.069 165.861 C 145.455 166.178,145.444 166.195,144.927 166.083 C 144.431 165.976,144.385 166.030,144.519 166.564 C 144.627 166.994,144.589 167.115,144.386 166.990 C 144.180 166.863,144.148 166.994,144.266 167.468 C 144.385 167.941,144.352 168.073,144.147 167.946 C 143.941 167.819,143.908 167.951,144.027 168.424 C 144.135 168.852,144.105 169.025,143.943 168.924 C 143.530 168.669,143.663 169.079,144.112 169.447 C 144.500 169.765,144.492 169.782,143.993 169.676 C 143.352 169.539,143.288 169.924,143.873 170.404 C 144.260 170.721,144.249 170.738,143.732 170.626 C 143.235 170.519,143.189 170.573,143.323 171.107 C 143.411 171.455,143.380 171.650,143.251 171.570 C 143.128 171.494,142.959 171.705,142.876 172.038 C 142.792 172.371,142.619 172.579,142.491 172.500 C 142.284 172.372,142.158 172.686,142.229 173.155 C 142.243 173.250,141.987 173.226,141.659 173.101 C 141.263 172.951,141.064 172.958,141.064 173.122 C 141.064 173.258,140.956 173.303,140.825 173.222 C 140.693 173.140,140.586 173.194,140.586 173.341 C 140.586 173.488,140.478 173.542,140.347 173.461 C 140.215 173.380,140.108 173.433,140.108 173.580 C 140.108 173.727,140.000 173.781,139.868 173.700 C 139.737 173.619,139.629 173.672,139.629 173.819 C 139.629 173.967,139.548 174.036,139.447 173.974 C 139.125 173.775,138.369 174.500,138.511 174.872 C 138.604 175.114,138.537 175.187,138.304 175.097 C 138.114 175.024,138.020 174.842,138.094 174.691 C 138.169 174.540,138.076 174.605,137.887 174.836 C 137.699 175.066,137.433 175.254,137.297 175.254 C 137.162 175.254,136.986 175.422,136.907 175.628 C 136.828 175.833,136.667 175.942,136.549 175.869 C 136.431 175.796,136.157 176.008,135.939 176.340 C 135.722 176.671,135.460 176.891,135.358 176.828 C 134.904 176.548,129.265 183.024,129.233 183.861 C 129.230 183.927,128.965 184.350,128.644 184.801 C 128.322 185.252,128.176 185.549,128.320 185.460 C 128.464 185.371,128.643 185.459,128.718 185.656 C 128.794 185.852,128.745 186.013,128.610 186.013 C 128.474 186.013,128.430 186.121,128.512 186.252 C 128.640 186.460,128.357 186.586,127.887 186.531 C 127.807 186.521,127.618 186.784,127.467 187.115 C 127.316 187.446,127.290 187.657,127.409 187.584 C 127.528 187.510,127.686 187.610,127.761 187.805 C 127.836 188.000,127.820 188.148,127.726 188.134 C 127.197 188.055,126.988 188.205,127.125 188.563 C 127.234 188.846,127.190 188.906,126.973 188.772 C 126.744 188.631,126.710 188.718,126.838 189.121 C 126.962 189.512,126.929 189.610,126.718 189.480 C 126.508 189.350,126.475 189.448,126.599 189.839 C 126.715 190.205,126.685 190.325,126.505 190.213 C 126.250 190.056,126.112 190.791,126.202 191.825 C 126.225 192.090,126.135 192.193,125.971 192.091 C 125.785 191.976,125.733 192.188,125.802 192.778 C 125.856 193.247,125.826 193.584,125.734 193.527 C 125.125 193.151,125.219 204.700,125.847 207.531 C 126.979 212.626,129.493 217.349,133.120 221.194 C 134.869 223.048,134.906 222.646,132.764 225.141 C 132.069 225.951,131.497 226.704,131.493 226.815 C 131.489 226.926,130.792 227.758,129.944 228.662 C 129.096 229.567,128.470 230.417,128.554 230.552 C 128.637 230.687,128.596 230.730,128.463 230.648 C 128.330 230.565,127.480 231.194,126.573 232.044 C 125.667 232.894,124.760 233.644,124.557 233.711 C 124.355 233.777,123.785 234.316,123.290 234.907 C 122.796 235.499,122.247 235.983,122.072 235.983 C 121.896 235.983,121.576 236.252,121.361 236.581 C 121.145 236.910,120.814 237.179,120.625 237.179 C 120.435 237.179,120.165 237.394,120.024 237.657 C 119.883 237.920,119.614 238.135,119.426 238.135 C 119.238 238.135,118.968 238.353,118.825 238.620 C 118.682 238.887,118.469 239.045,118.350 238.972 C 118.232 238.899,118.018 239.057,117.876 239.324 C 117.733 239.591,117.455 239.809,117.258 239.809 C 117.062 239.809,116.839 239.969,116.764 240.166 C 116.688 240.362,116.538 240.468,116.429 240.401 C 116.320 240.334,116.080 240.495,115.894 240.760 C 115.709 241.024,115.489 241.172,115.406 241.088 C 115.322 241.004,115.186 241.112,115.103 241.327 C 115.020 241.543,114.864 241.664,114.755 241.597 C 114.646 241.529,114.389 241.715,114.183 242.010 C 113.976 242.304,113.804 242.440,113.800 242.313 C 113.796 242.185,113.661 242.252,113.501 242.462 C 113.341 242.673,113.128 242.859,113.027 242.876 C 112.732 242.926,109.162 245.364,108.970 245.647 C 108.864 245.802,108.791 245.810,108.787 245.666 C 108.782 245.507,108.721 245.507,108.604 245.666 C 108.507 245.798,108.051 246.113,107.591 246.366 C 107.131 246.619,106.701 246.889,106.635 246.966 C 106.569 247.043,106.112 247.317,105.619 247.576 C 105.126 247.835,104.722 248.136,104.722 248.245 C 104.722 248.355,104.624 248.383,104.503 248.309 C 104.383 248.235,104.249 248.255,104.205 248.355 C 104.160 248.454,103.613 248.802,102.989 249.128 C 102.364 249.454,101.853 249.822,101.853 249.945 C 101.853 250.068,101.782 250.099,101.696 250.012 C 101.609 249.926,101.421 249.947,101.277 250.060 C 101.134 250.173,100.048 250.782,98.864 251.414 C 97.681 252.045,96.633 252.678,96.537 252.820 C 96.440 252.962,96.360 252.990,96.358 252.883 C 96.356 252.775,96.041 252.910,95.659 253.182 C 95.278 253.454,94.847 253.676,94.703 253.676 C 94.559 253.676,94.441 253.784,94.441 253.915 C 94.441 254.047,94.280 254.154,94.082 254.154 C 93.885 254.154,93.724 254.268,93.724 254.407 C 93.724 254.547,93.633 254.604,93.521 254.535 C 93.409 254.466,93.098 254.615,92.829 254.865 C 92.560 255.116,92.275 255.256,92.195 255.176 C 92.115 255.096,92.050 255.156,92.050 255.310 C 92.050 255.463,91.942 255.589,91.809 255.589 C 91.443 255.589,86.790 258.739,86.790 258.987 C 86.790 259.106,86.682 259.136,86.549 259.055 C 86.417 258.973,86.244 259.074,86.165 259.280 C 86.086 259.485,85.869 259.653,85.681 259.653 C 85.494 259.653,85.279 259.815,85.203 260.012 C 85.127 260.209,84.919 260.371,84.741 260.371 C 84.562 260.371,84.299 260.589,84.157 260.855 C 84.014 261.122,83.807 261.284,83.696 261.216 C 83.586 261.148,83.317 261.363,83.100 261.695 C 82.883 262.027,82.607 262.238,82.488 262.165 C 82.369 262.091,82.155 262.249,82.012 262.516 C 81.869 262.782,81.599 263.001,81.412 263.001 C 81.225 263.001,80.772 263.377,80.405 263.837 C 80.037 264.298,79.624 264.674,79.485 264.674 C 79.184 264.674,74.283 269.653,72.435 271.835 C 71.717 272.683,71.291 273.290,71.488 273.183 C 71.686 273.077,71.563 273.244,71.216 273.554 C 70.295 274.378,66.507 280.211,66.888 280.219 C 66.986 280.221,66.944 280.302,66.796 280.398 C 66.379 280.671,64.521 284.511,64.682 284.770 C 64.760 284.897,64.657 285.065,64.452 285.143 C 64.247 285.222,64.134 285.375,64.201 285.484 C 64.268 285.592,64.212 285.750,64.077 285.834 C 63.941 285.918,63.892 286.087,63.967 286.209 C 64.043 286.331,64.012 286.432,63.899 286.432 C 63.733 286.432,62.887 288.391,62.738 289.121 C 62.718 289.220,62.675 289.354,62.642 289.420 C 62.609 289.486,62.555 289.647,62.522 289.779 C 62.490 289.910,62.436 290.072,62.403 290.137 C 62.370 290.203,62.316 290.365,62.283 290.496 C 62.250 290.628,62.197 290.789,62.164 290.855 C 62.131 290.921,62.091 291.073,62.074 291.193 C 62.058 291.314,61.971 291.486,61.881 291.575 C 61.792 291.665,61.776 291.889,61.847 292.074 C 61.918 292.258,61.845 292.409,61.686 292.409 C 61.526 292.409,61.456 292.567,61.530 292.760 C 61.604 292.953,61.567 293.171,61.447 293.246 C 61.326 293.320,61.289 293.538,61.363 293.732 C 61.437 293.925,61.367 294.082,61.207 294.082 C 61.048 294.082,60.978 294.240,61.052 294.433 C 61.126 294.627,61.076 294.853,60.942 294.936 C 60.807 295.019,60.753 295.234,60.822 295.414 C 60.891 295.594,60.837 295.809,60.702 295.892 C 60.568 295.975,60.510 296.181,60.575 296.349 C 60.639 296.517,60.598 296.748,60.484 296.863 C 60.370 296.977,60.231 297.448,60.176 297.908 C 60.121 298.368,60.004 298.912,59.916 299.117 C 59.829 299.322,59.734 299.994,59.705 300.610 C 59.677 301.226,59.560 301.731,59.446 301.732 C 59.332 301.733,59.291 302.005,59.354 302.337 C 59.418 302.669,59.369 303.002,59.247 303.078 C 59.125 303.153,59.047 303.501,59.074 303.849 C 59.102 304.198,59.061 304.644,58.983 304.842 C 58.762 305.403,58.061 312.468,58.131 313.434 C 58.165 313.910,58.112 314.431,58.012 314.592 C 57.912 314.754,57.848 315.773,57.870 316.857 C 57.892 317.941,57.835 319.011,57.744 319.235 C 57.653 319.459,57.615 321.907,57.660 324.675 C 57.704 327.443,57.649 329.707,57.538 329.707 C 57.344 329.707,57.464 361.477,57.660 362.224 C 57.712 362.421,57.813 362.690,57.884 362.821 C 58.329 363.636,58.128 366.725,57.620 366.886 L 57.099 367.051 57.206 376.054 C 57.264 381.006,57.394 385.326,57.495 385.655 C 57.957 387.157,57.927 387.992,57.405 388.158 C 56.912 388.314,56.904 388.420,56.921 394.816 C 56.937 400.801,57.011 402.019,57.512 404.616 C 57.664 405.401,57.613 405.579,57.147 405.905 L 56.607 406.284 56.712 416.770 C 56.774 423.012,56.729 427.256,56.599 427.256 C 56.469 427.256,56.411 431.293,56.456 437.165 C 56.498 442.615,56.454 447.152,56.359 447.247 C 56.089 447.517,56.151 484.383,56.424 485.364 C 57.183 488.097,58.953 489.484,64.320 491.552 C 84.484 499.321,118.163 504.795,157.083 506.630 C 163.703 506.942,207.296 506.947,213.867 506.636 C 250.959 504.881,282.636 500.202,305.527 493.095 C 314.574 490.286,316.508 489.235,317.920 486.360 L 318.589 484.997 318.549 466.348 C 318.512 449.173,318.383 436.580,317.744 388.045 C 317.617 378.380,317.455 360.412,317.385 348.117 C 317.219 319.147,316.939 312.139,315.595 303.325 C 313.314 288.370,307.567 276.606,297.854 267.013 C 291.829 261.061,285.762 256.834,273.401 249.977 C 260.785 242.978,249.235 233.860,242.006 225.195 C 239.929 222.704,239.935 222.804,241.744 221.033 C 247.274 215.616,249.511 209.037,249.313 198.775 C 249.077 186.531,243.872 177.955,233.737 173.113 L 231.799 172.187 219.065 123.810 C 212.061 97.203,203.963 66.396,201.068 55.350 C 194.634 30.798,194.952 31.630,191.228 29.641 C 189.573 28.757,185.535 28.250,185.535 28.926 M187.784 39.151 C 188.328 40.909,196.533 72.411,196.533 72.740 C 196.533 73.136,195.967 73.162,187.423 73.162 L 178.312 73.162 178.415 72.265 C 178.472 71.772,178.962 69.701,179.504 67.663 C 180.046 65.625,180.759 62.935,181.089 61.686 C 181.420 60.436,181.962 58.392,182.296 57.143 C 182.629 55.894,183.395 52.989,183.999 50.687 C 184.603 48.386,185.303 45.723,185.555 44.770 C 185.807 43.816,186.229 42.203,186.493 41.184 C 187.180 38.529,187.457 38.093,187.784 39.151 M198.808 81.334 C 198.867 81.393,199.195 82.510,199.537 83.817 C 199.879 85.123,200.358 86.946,200.601 87.866 C 202.258 94.149,202.767 96.085,204.092 101.125 C 204.419 102.369,204.891 104.149,205.140 105.081 C 205.390 106.013,205.860 107.793,206.183 109.036 C 206.507 110.280,207.258 113.126,207.852 115.362 C 209.452 121.387,211.192 127.989,212.823 134.224 C 213.657 137.414,214.162 139.331,215.660 145.009 C 215.903 145.929,216.441 147.974,216.856 149.552 C 217.270 151.130,217.809 153.174,218.052 154.094 C 218.296 155.015,218.891 157.274,219.375 159.115 C 219.859 160.956,220.513 163.431,220.829 164.614 C 222.002 169.014,222.416 170.731,222.326 170.820 C 222.015 171.131,152.608 171.233,152.491 170.924 C 152.396 170.675,174.239 87.045,175.738 81.918 L 176.009 80.992 187.355 81.110 C 193.596 81.175,198.750 81.276,198.808 81.334 M159.795 177.801 L 162.343 177.957 162.343 200.011 C 162.343 219.901,162.306 222.079,161.965 222.210 C 161.757 222.290,159.999 222.355,158.057 222.355 L 154.528 222.355 154.371 218.372 C 154.165 213.149,154.167 178.011,154.373 177.804 C 154.575 177.603,156.534 177.601,159.795 177.801 M174.380 177.801 L 176.928 177.957 176.928 200.011 C 176.928 219.901,176.891 222.079,176.549 222.210 C 176.341 222.290,174.617 222.355,172.718 222.355 L 169.265 222.355 169.032 221.742 C 168.778 221.073,168.692 178.679,168.944 178.023 C 169.109 177.591,170.217 177.546,174.380 177.801 M188.966 177.801 L 191.515 177.957 191.454 200.096 L 191.393 222.236 187.547 222.301 L 183.700 222.367 183.542 211.781 C 183.344 198.520,183.336 178.525,183.528 178.023 C 183.694 177.591,184.802 177.546,188.966 177.801 M203.549 177.801 L 206.097 177.957 206.097 200.156 L 206.097 222.355 202.191 222.355 L 198.285 222.355 198.126 211.557 C 197.928 198.045,197.920 178.525,198.113 178.023 C 198.279 177.591,199.387 177.546,203.549 177.801 M218.134 177.801 L 220.681 177.957 220.681 200.162 L 220.681 222.367 216.796 222.301 L 212.911 222.236 212.765 214.106 C 212.486 198.463,212.527 178.244,212.839 177.932 C 213.164 177.607,214.451 177.575,218.134 177.801 M147.461 200.090 L 147.522 221.459 146.744 221.308 C 146.316 221.225,145.266 220.808,144.411 220.381 L 142.857 219.605 142.664 214.226 C 142.460 208.536,142.630 181.071,142.874 180.438 C 143.046 179.988,146.249 178.584,146.922 178.664 C 147.395 178.720,147.400 178.922,147.461 200.090 M229.459 179.117 C 230.220 179.400,231.081 179.804,231.373 180.013 L 231.904 180.395 231.911 200.032 L 231.919 219.670 231.356 220.039 C 230.484 220.610,227.666 221.530,227.450 221.313 C 227.233 221.097,227.039 179.985,227.251 179.139 C 227.418 178.471,227.718 178.468,229.459 179.117 M240.110 188.911 C 242.969 194.614,243.058 205.052,240.297 210.819 C 239.383 212.727,238.830 213.223,238.519 212.413 C 238.317 211.887,238.336 187.326,238.539 187.124 C 238.887 186.776,239.242 187.180,240.110 188.911 M136.043 200.153 L 136.043 213.097 135.409 212.167 C 131.908 207.037,131.469 195.390,134.543 189.241 C 135.085 188.158,135.747 187.209,135.961 187.209 C 136.006 187.209,136.043 193.034,136.043 200.153 M235.536 228.751 C 236.628 230.033,239.288 232.942,241.446 235.215 C 243.605 237.488,245.310 239.408,245.236 239.482 C 245.141 239.577,131.275 239.675,129.767 239.581 C 129.232 239.547,129.853 238.752,132.277 236.360 C 134.786 233.884,137.194 231.264,139.942 228.017 C 141.259 226.460,141.279 226.456,143.593 227.255 C 147.963 228.764,144.926 228.658,186.308 228.744 C 228.083 228.830,226.637 228.877,230.967 227.293 C 232.214 226.836,233.305 226.453,233.392 226.441 C 233.479 226.429,234.444 227.469,235.536 228.751 M124.887 244.934 C 126.846 246.327,123.884 246.264,187.661 246.264 C 251.999 246.264,248.163 246.344,249.965 244.969 C 251.118 244.090,251.295 244.143,254.121 246.224 C 259.485 250.173,265.410 253.917,271.997 257.519 C 295.178 270.196,305.273 283.471,308.527 305.559 C 309.548 312.491,309.755 317.142,309.985 338.255 L 310.110 349.791 187.603 349.791 L 65.097 349.791 64.928 338.494 C 64.517 310.907,66.257 297.990,71.959 286.312 C 76.947 276.096,86.585 266.608,99.103 259.592 C 110.434 253.242,115.528 250.073,120.871 246.050 C 123.877 243.787,123.443 243.908,124.887 244.934 M309.788 356.674 C 310.106 356.876,310.512 383.516,310.479 401.986 L 310.460 412.221 187.448 412.222 L 64.435 412.223 64.280 410.117 C 64.195 408.958,64.172 405.804,64.229 403.108 C 64.287 400.412,64.436 388.919,64.561 377.566 C 64.687 366.214,64.850 356.827,64.925 356.706 C 65.090 356.439,309.369 356.407,309.788 356.674 M57.553 372.206 C 57.498 372.567,57.454 372.271,57.454 371.548 C 57.454 370.825,57.498 370.529,57.553 370.891 C 57.608 371.252,57.608 371.844,57.553 372.206 M248.707 419.047 L 310.764 419.207 310.942 429.627 C 311.040 435.359,311.133 449.830,311.149 461.786 L 311.178 483.524 308.189 484.581 C 251.138 504.755,121.296 504.991,67.722 485.017 C 63.285 483.363,63.685 483.703,63.501 481.429 C 63.180 477.477,63.848 419.691,64.221 419.087 C 64.369 418.848,162.815 418.827,248.707 419.047 " stroke="none" fill="#040404" fill-rule="evenodd"></path><path id="path1" d="M139.253 229.219 C 138.079 230.638,135.478 233.466,133.472 235.505 L 129.826 239.211 136.581 239.332 C 143.763 239.462,226.270 239.506,238.097 239.387 L 245.113 239.316 241.495 235.598 C 239.505 233.553,236.905 230.717,235.719 229.296 L 233.561 226.713 231.330 227.510 C 226.833 229.118,228.811 229.048,187.539 229.049 C 145.114 229.050,147.249 229.155,141.763 226.801 C 141.486 226.682,140.824 227.320,139.253 229.219 M65.294 356.685 C 65.010 356.882,64.947 359.952,64.892 376.248 C 64.855 386.879,64.754 399.262,64.666 403.766 L 64.507 411.955 187.447 411.955 L 310.386 411.955 310.244 405.320 C 310.166 401.671,310.041 389.325,309.966 377.884 C 309.891 366.444,309.757 357.010,309.667 356.921 C 309.398 356.652,65.678 356.417,65.294 356.685 " stroke="none" fill="#e3e3e3" fill-rule="evenodd"></path><path id="path2" d="M186.852 40.108 C 186.649 40.864,186.380 41.805,186.256 42.200 C 186.132 42.594,185.801 43.831,185.521 44.949 C 185.241 46.067,184.758 47.950,184.448 49.133 C 184.138 50.317,183.608 52.334,183.272 53.616 C 182.936 54.897,182.385 56.995,182.048 58.278 C 181.712 59.560,181.180 61.578,180.867 62.762 C 180.554 63.945,180.031 65.935,179.706 67.185 C 179.381 68.434,178.940 70.085,178.725 70.853 C 178.074 73.189,177.278 72.993,187.434 72.999 C 192.913 73.002,196.416 72.916,196.463 72.776 C 196.504 72.650,194.547 64.992,192.113 55.757 C 189.678 46.523,187.687 38.914,187.687 38.850 C 187.687 38.208,187.143 39.027,186.852 40.108 M175.971 81.202 C 175.971 81.218,174.735 85.925,173.223 91.661 C 171.712 97.396,170.104 103.515,169.651 105.258 C 169.198 107.002,168.114 111.118,167.242 114.405 C 166.370 117.693,165.507 120.974,165.323 121.698 C 164.826 123.649,163.867 127.313,163.318 129.348 C 163.052 130.335,162.552 132.218,162.207 133.533 C 161.862 134.848,161.323 136.892,161.010 138.075 C 160.389 140.426,159.584 143.481,158.634 147.099 C 158.298 148.380,157.747 150.478,157.410 151.761 C 157.073 153.045,156.543 155.063,156.234 156.246 C 155.924 157.430,155.402 159.420,155.073 160.669 C 154.744 161.919,154.210 163.963,153.885 165.212 C 153.560 166.461,153.126 168.075,152.920 168.799 C 152.714 169.522,152.545 170.302,152.543 170.532 C 152.540 170.929,154.361 170.950,187.448 170.950 C 215.703 170.950,222.355 170.892,222.355 170.643 C 222.355 170.475,221.925 168.726,221.400 166.758 C 220.875 164.790,220.162 162.104,219.816 160.789 C 219.471 159.474,218.946 157.484,218.649 156.366 C 218.353 155.248,217.815 153.204,217.454 151.823 C 217.093 150.442,216.555 148.398,216.258 147.280 C 215.962 146.163,215.424 144.118,215.063 142.738 C 214.702 141.357,214.164 139.313,213.867 138.195 C 213.571 137.077,213.034 135.033,212.675 133.652 C 212.315 132.271,211.831 130.442,211.600 129.588 C 211.368 128.733,210.842 126.742,210.430 125.164 C 210.018 123.586,209.084 120.036,208.354 117.274 C 207.624 114.513,206.703 111.016,206.307 109.504 C 205.911 107.992,205.385 105.996,205.137 105.070 C 204.889 104.144,204.419 102.369,204.092 101.125 C 202.767 96.085,202.258 94.149,200.601 87.866 C 200.358 86.946,199.879 85.123,199.537 83.817 C 199.195 82.510,198.879 81.406,198.836 81.362 C 198.765 81.291,175.971 81.131,175.971 81.202 M154.361 178.256 C 154.181 178.728,154.225 203.573,154.426 214.226 L 154.573 221.996 158.279 221.996 L 161.984 221.996 161.984 200.000 L 161.984 178.004 158.247 177.938 C 154.995 177.881,154.490 177.922,154.361 178.256 M169.096 199.934 L 169.157 221.996 172.863 221.996 L 176.569 221.996 176.569 200.000 L 176.569 178.004 172.802 177.938 L 169.035 177.872 169.096 199.934 M183.626 199.456 C 183.627 211.327,183.694 221.282,183.773 221.578 C 183.915 222.106,183.983 222.116,187.596 222.116 L 191.276 222.116 191.215 200.060 L 191.154 178.004 187.388 177.938 L 183.622 177.872 183.626 199.456 M198.207 199.616 C 198.207 211.575,198.272 221.530,198.352 221.738 C 198.476 222.060,199.042 222.116,202.179 222.116 L 205.860 222.116 205.799 200.060 L 205.738 178.004 201.973 177.938 L 198.207 177.872 198.207 199.616 M212.795 199.456 C 212.796 211.327,212.863 221.282,212.942 221.578 C 213.084 222.106,213.152 222.116,216.766 222.116 L 220.445 222.116 220.384 200.060 L 220.323 178.004 216.557 177.938 L 212.791 177.872 212.795 199.456 M227.514 178.783 C 227.438 178.858,227.376 188.438,227.376 200.071 L 227.376 221.222 228.153 221.095 C 228.580 221.026,229.549 220.695,230.305 220.360 L 231.680 219.751 231.676 200.192 C 231.674 189.435,231.589 180.503,231.488 180.344 C 231.149 179.811,227.801 178.495,227.514 178.783 M145.487 179.275 C 144.961 179.499,144.181 179.872,143.754 180.104 L 142.977 180.526 142.977 200.093 L 142.977 219.660 144.444 220.318 C 145.251 220.680,146.246 220.991,146.656 221.008 L 147.400 221.040 147.466 200.478 C 147.543 176.320,147.729 178.319,145.487 179.275 M238.613 199.900 C 238.613 213.671,238.595 213.507,239.867 211.221 C 242.766 206.011,242.785 194.555,239.903 188.833 C 239.454 187.939,238.979 187.209,238.849 187.209 C 238.697 187.209,238.613 191.706,238.613 199.900 M135.406 187.986 C 132.212 193.079,131.816 204.670,134.635 210.577 C 135.029 211.400,135.452 212.074,135.577 212.074 C 135.717 212.074,135.804 207.413,135.804 199.880 C 135.804 193.174,135.756 187.687,135.699 187.687 C 135.641 187.687,135.509 187.821,135.406 187.986 " stroke="none" fill="#f7b23a" fill-rule="evenodd"></path><path id="path3" d="M121.339 246.039 C 116.417 249.832,109.626 254.144,102.062 258.277 C 71.715 274.860,64.403 290.953,65.182 339.450 L 65.344 349.552 179.702 349.552 L 294.061 349.552 294.227 348.665 C 294.662 346.350,293.980 331.807,293.121 325.045 C 289.793 298.862,281.027 286.050,254.154 268.091 C 240.848 259.198,234.489 253.901,230.048 248.009 L 228.930 246.525 178.362 246.513 C 124.162 246.500,126.854 246.567,124.794 245.180 C 124.117 244.725,123.546 244.358,123.526 244.366 C 123.507 244.374,122.522 245.127,121.339 246.039 M64.228 422.018 C 64.085 425.062,63.863 445.060,63.803 460.365 L 63.769 468.966 66.015 469.512 C 67.250 469.812,73.317 471.300,79.498 472.819 C 117.416 482.137,137.200 485.566,160.072 486.786 C 214.825 489.707,263.528 471.264,280.421 441.213 C 283.493 435.746,288.895 420.316,288.037 419.457 C 287.971 419.391,237.618 419.273,176.142 419.194 L 64.368 419.050 64.228 422.018 " stroke="none" fill="#53c3f3" fill-rule="evenodd"></path><path id="path4" d="M250.208 245.070 C 248.509 246.420,247.798 246.503,237.972 246.503 C 233.065 246.503,229.050 246.572,229.050 246.656 C 229.050 246.932,231.605 249.979,233.635 252.123 C 237.983 256.717,243.142 260.731,254.154 268.091 C 264.586 275.062,268.137 277.783,273.251 282.722 C 288.238 297.195,294.321 315.038,294.220 344.232 L 294.202 349.552 302.070 349.552 L 309.937 349.552 309.785 334.788 C 309.559 312.768,308.923 305.511,306.400 296.179 C 302.042 280.059,291.869 268.606,272.498 258.011 C 265.301 254.074,258.936 250.037,253.535 245.983 C 250.997 244.077,251.339 244.171,250.208 245.070 M287.401 422.654 C 280.866 450.266,262.424 467.328,226.532 478.969 C 187.987 491.469,148.836 489.908,80.932 473.161 C 68.091 469.994,64.340 469.097,63.933 469.097 C 63.587 469.097,63.415 481.658,63.744 482.885 C 64.003 483.851,73.084 486.933,82.950 489.403 C 144.264 504.753,251.925 502.717,305.665 485.191 C 307.498 484.593,309.480 483.897,310.067 483.645 L 311.136 483.187 310.977 455.879 C 310.889 440.860,310.747 426.500,310.661 423.969 L 310.505 419.366 299.342 419.366 L 288.179 419.366 287.401 422.654 " stroke="none" fill="#04aceb" fill-rule="evenodd"></path><path id="path5" d="M132.501 246.443 C 135.089 246.482,139.393 246.482,142.064 246.443 C 144.736 246.405,142.618 246.373,137.358 246.373 C 132.098 246.373,129.912 246.405,132.501 246.443 M148.057 246.435 C 148.419 246.490,149.011 246.490,149.372 246.435 C 149.734 246.381,149.438 246.336,148.715 246.336 C 147.992 246.336,147.696 246.381,148.057 246.435 M225.523 246.435 C 225.885 246.490,226.476 246.490,226.838 246.435 C 227.200 246.381,226.904 246.336,226.181 246.336 C 225.457 246.336,225.161 246.381,225.523 246.435 M231.994 246.443 C 234.205 246.483,237.755 246.483,239.884 246.443 C 242.012 246.403,240.203 246.371,235.864 246.371 C 231.524 246.371,229.783 246.404,231.994 246.443 M65.101 323.132 C 65.103 323.790,65.149 324.030,65.204 323.667 C 65.259 323.303,65.258 322.765,65.201 322.471 C 65.144 322.177,65.099 322.475,65.101 323.132 M65.088 348.595 C 65.088 349.056,65.138 349.244,65.198 349.014 C 65.258 348.784,65.258 348.407,65.198 348.177 C 65.138 347.947,65.088 348.135,65.088 348.595 M67.495 349.730 C 68.652 349.774,70.481 349.774,71.560 349.729 C 72.638 349.685,71.692 349.649,69.456 349.650 C 67.221 349.650,66.338 349.686,67.495 349.730 M288.404 419.306 C 292.316 419.343,298.718 419.343,302.630 419.306 C 306.542 419.270,303.341 419.239,295.517 419.239 C 287.693 419.239,284.492 419.270,288.404 419.306 M63.927 437.896 C 63.927 439.342,63.967 439.903,64.014 439.142 C 64.062 438.382,64.062 437.198,64.013 436.512 C 63.965 435.827,63.926 436.449,63.927 437.896 M63.698 462.642 C 63.698 465.206,63.734 466.255,63.777 464.973 C 63.820 463.691,63.820 461.593,63.777 460.311 C 63.734 459.029,63.698 460.078,63.698 462.642 M311.057 480.144 C 310.992 481.946,311.022 483.336,311.125 483.233 C 311.228 483.130,311.281 481.656,311.244 479.957 L 311.176 476.868 311.057 480.144 " stroke="none" fill="#3c8ca8" fill-rule="evenodd"></path><path id="path6" d="M184.146 73.101 C 185.815 73.142,188.612 73.143,190.362 73.102 C 192.113 73.061,190.747 73.027,187.328 73.027 C 183.909 73.027,182.477 73.060,184.146 73.101 M181.187 81.231 C 183.332 81.271,186.775 81.271,188.838 81.231 C 190.900 81.191,189.145 81.159,184.937 81.159 C 180.729 81.159,179.041 81.191,181.187 81.231 M162.182 171.130 C 167.550 171.166,176.265 171.166,181.548 171.130 C 186.831 171.094,182.439 171.064,171.787 171.064 C 161.136 171.064,156.813 171.094,162.182 171.130 M141.582 172.834 C 141.335 172.990,141.367 173.063,141.721 173.156 C 142.008 173.231,142.180 173.153,142.180 172.950 C 142.180 172.576,142.033 172.547,141.582 172.834 M154.370 177.824 C 154.308 177.923,155.028 177.974,155.969 177.938 C 158.882 177.827,159.219 177.723,156.798 177.683 C 155.524 177.662,154.431 177.726,154.370 177.824 M170.181 177.821 C 170.876 177.870,171.952 177.869,172.572 177.820 C 173.192 177.771,172.624 177.732,171.309 177.732 C 169.994 177.733,169.487 177.773,170.181 177.821 M184.766 177.821 C 185.461 177.870,186.537 177.869,187.157 177.820 C 187.777 177.771,187.209 177.732,185.894 177.732 C 184.579 177.733,184.071 177.773,184.766 177.821 M199.351 177.821 C 200.045 177.870,201.121 177.869,201.741 177.820 C 202.362 177.771,201.793 177.732,200.478 177.732 C 199.163 177.733,198.656 177.773,199.351 177.821 M214.047 177.821 C 214.671 177.870,215.693 177.870,216.318 177.821 C 216.943 177.771,216.432 177.731,215.182 177.731 C 213.933 177.731,213.422 177.771,214.047 177.821 M168.913 199.761 C 168.913 211.727,168.942 216.588,168.978 210.562 C 169.013 204.536,169.013 194.745,168.978 188.804 C 168.942 182.864,168.913 187.794,168.913 199.761 M183.496 193.186 C 183.496 201.536,183.526 204.952,183.562 200.777 C 183.599 196.602,183.599 189.770,183.562 185.595 C 183.526 181.420,183.496 184.836,183.496 193.186 M198.080 193.066 C 198.080 201.351,198.110 204.705,198.147 200.521 C 198.184 196.336,198.184 189.558,198.147 185.458 C 198.110 181.358,198.080 184.782,198.080 193.066 M212.665 192.947 C 212.665 201.166,212.695 204.528,212.731 200.418 C 212.768 196.309,212.768 189.585,212.731 185.475 C 212.695 181.366,212.665 184.728,212.665 192.947 M227.251 199.283 C 227.251 210.460,227.280 214.998,227.316 209.366 C 227.352 203.735,227.352 194.590,227.316 189.044 C 227.280 183.498,227.251 188.105,227.251 199.283 M143.694 179.797 C 143.234 180.049,142.943 180.259,143.048 180.265 C 143.302 180.278,144.650 179.577,144.650 179.432 C 144.650 179.276,144.636 179.281,143.694 179.797 M176.803 200.000 C 176.803 211.046,176.832 215.530,176.868 209.964 C 176.904 204.398,176.904 195.361,176.868 189.880 C 176.832 184.400,176.803 188.954,176.803 200.000 M162.218 200.000 C 162.218 210.520,162.247 214.789,162.283 209.486 C 162.319 204.183,162.319 195.576,162.283 190.359 C 162.247 185.141,162.218 189.480,162.218 200.000 M191.387 200.000 C 191.387 210.520,191.417 214.789,191.452 209.486 C 191.488 204.183,191.488 195.576,191.452 190.359 C 191.416 185.141,191.387 189.480,191.387 200.000 M128.179 185.726 C 127.812 186.411,127.848 186.741,128.271 186.578 C 128.468 186.503,128.575 186.354,128.509 186.248 C 128.443 186.141,128.494 186.018,128.622 185.974 C 128.759 185.927,128.770 185.757,128.649 185.562 C 128.485 185.298,128.391 185.330,128.179 185.726 M231.793 201.554 C 231.793 210.562,231.822 214.247,231.859 209.743 C 231.895 205.239,231.895 197.869,231.859 193.365 C 231.822 188.861,231.793 192.546,231.793 201.554 M205.969 200.000 C 205.969 207.101,206.000 209.971,206.037 206.379 C 206.074 202.786,206.074 196.976,206.037 193.468 C 206.000 189.960,205.969 192.899,205.969 200.000 M220.554 200.000 C 220.554 207.101,220.584 209.971,220.622 206.379 C 220.659 202.786,220.659 196.976,220.621 193.468 C 220.584 189.960,220.554 192.899,220.554 200.000 M238.486 199.761 C 238.486 206.730,238.516 209.547,238.553 206.020 C 238.591 202.493,238.591 196.791,238.553 193.348 C 238.516 189.906,238.485 192.791,238.486 199.761 M142.609 200.837 C 142.609 206.952,142.640 209.453,142.678 206.396 C 142.715 203.338,142.715 198.335,142.678 195.278 C 142.640 192.221,142.609 194.722,142.609 200.837 M132.543 200.120 C 132.543 201.369,132.583 201.880,132.632 201.255 C 132.682 200.631,132.682 199.608,132.632 198.984 C 132.583 198.359,132.543 198.870,132.543 200.120 M154.311 213.389 C 154.311 215.493,154.348 216.322,154.392 215.231 C 154.436 214.140,154.436 212.418,154.392 211.405 C 154.347 210.392,154.310 211.285,154.311 213.389 M176.754 221.160 C 176.754 221.751,176.800 221.993,176.857 221.698 C 176.914 221.402,176.914 220.918,176.857 220.622 C 176.800 220.326,176.754 220.568,176.754 221.160 M162.159 221.399 C 162.159 221.859,162.209 222.047,162.269 221.817 C 162.329 221.587,162.329 221.210,162.269 220.980 C 162.209 220.750,162.159 220.938,162.159 221.399 M191.273 221.837 C 191.273 222.036,190.158 222.131,187.388 222.169 L 183.503 222.222 187.310 222.295 C 190.843 222.362,191.927 222.212,191.437 221.721 C 191.347 221.632,191.273 221.684,191.273 221.837 M169.247 222.182 C 169.349 222.285,171.039 222.338,173.001 222.301 L 176.569 222.234 172.815 222.115 C 170.750 222.050,169.144 222.080,169.247 222.182 M213.000 222.182 C 213.103 222.284,214.900 222.338,216.994 222.301 L 220.801 222.234 216.807 222.115 C 214.611 222.050,212.898 222.080,213.000 222.182 M156.893 222.293 C 157.775 222.339,159.281 222.339,160.241 222.294 C 161.200 222.248,160.478 222.211,158.637 222.210 C 156.796 222.210,156.011 222.247,156.893 222.293 M200.191 222.294 C 201.348 222.338,203.177 222.338,204.256 222.294 C 205.334 222.249,204.387 222.214,202.152 222.214 C 199.916 222.214,199.034 222.250,200.191 222.294 M128.030 230.290 C 126.191 232.155,125.170 233.263,125.762 232.752 C 126.354 232.241,127.143 231.521,127.516 231.152 C 127.888 230.783,128.308 230.552,128.449 230.639 C 128.590 230.726,128.637 230.687,128.553 230.552 C 128.410 230.320,128.715 229.936,130.747 227.794 C 131.215 227.301,131.547 226.898,131.486 226.898 C 131.425 226.898,129.870 228.424,128.030 230.290 M169.079 228.990 C 179.161 229.024,195.730 229.024,205.899 228.990 C 216.067 228.955,207.818 228.927,187.567 228.927 C 167.316 228.927,158.996 228.955,169.079 228.990 M239.689 233.592 C 240.603 234.513,241.404 235.266,241.470 235.266 C 241.535 235.266,240.842 234.513,239.928 233.592 C 239.015 232.672,238.214 231.919,238.148 231.919 C 238.082 231.919,238.776 232.672,239.689 233.592 M134.835 233.772 L 134.011 234.668 134.907 233.844 C 135.742 233.077,135.914 232.875,135.731 232.875 C 135.691 232.875,135.288 233.279,134.835 233.772 M122.758 235.326 L 122.056 236.103 122.833 235.401 C 123.558 234.746,123.720 234.549,123.535 234.549 C 123.494 234.549,123.145 234.898,122.758 235.326 M131.487 237.119 L 130.663 238.016 131.560 237.192 C 132.395 236.425,132.567 236.222,132.384 236.222 C 132.344 236.222,131.941 236.626,131.487 237.119 M129.588 239.278 C 129.588 239.750,130.481 239.828,134.967 239.751 L 139.271 239.677 134.716 239.624 C 131.557 239.586,130.073 239.482,129.874 239.283 C 129.656 239.065,129.588 239.064,129.588 239.278 M244.927 239.329 C 244.800 239.456,242.602 239.591,240.041 239.630 L 235.386 239.700 240.048 239.751 C 244.179 239.796,245.701 239.644,245.285 239.228 C 245.214 239.157,245.053 239.203,244.927 239.329 M249.970 244.979 C 249.540 245.345,249.452 245.490,249.751 245.342 C 250.189 245.124,251.011 244.337,250.776 244.360 C 250.727 244.365,250.365 244.643,249.970 244.979 M245.487 246.433 C 245.783 246.490,246.267 246.490,246.563 246.433 C 246.859 246.376,246.617 246.329,246.025 246.329 C 245.433 246.329,245.191 246.376,245.487 246.433 M106.814 255.247 C 105.920 255.732,105.975 255.934,106.874 255.469 C 107.268 255.265,107.591 255.047,107.591 254.985 C 107.591 254.831,107.565 254.840,106.814 255.247 M105.140 256.204 C 104.247 256.689,104.301 256.891,105.200 256.426 C 105.595 256.222,105.918 256.004,105.918 255.941 C 105.918 255.787,105.892 255.796,105.140 256.204 M103.228 257.279 C 102.735 257.539,102.331 257.805,102.331 257.871 C 102.331 257.936,102.762 257.770,103.288 257.501 C 103.814 257.233,104.244 256.962,104.244 256.899 C 104.244 256.743,104.242 256.743,103.228 257.279 M99.880 259.073 C 98.987 259.558,99.041 259.760,99.940 259.295 C 100.335 259.091,100.658 258.873,100.658 258.810 C 100.658 258.657,100.632 258.665,99.880 259.073 M84.265 270.233 L 83.562 271.010 84.340 270.308 C 85.064 269.653,85.226 269.456,85.042 269.456 C 85.001 269.456,84.651 269.806,84.265 270.233 M290.735 270.487 C 290.735 270.528,291.085 270.878,291.512 271.264 L 292.289 271.967 291.587 271.189 C 290.932 270.465,290.735 270.303,290.735 270.487 M293.365 273.117 C 293.365 273.158,293.715 273.508,294.142 273.894 L 294.919 274.597 294.217 273.819 C 293.562 273.095,293.365 272.933,293.365 273.117 M79.722 274.776 L 79.020 275.553 79.797 274.851 C 80.521 274.196,80.684 273.999,80.499 273.999 C 80.458 273.999,80.108 274.348,79.722 274.776 M72.803 284.519 C 72.470 285.176,72.251 285.714,72.317 285.714 C 72.383 285.714,72.709 285.176,73.042 284.519 C 73.376 283.861,73.594 283.323,73.529 283.323 C 73.463 283.323,73.137 283.861,72.803 284.519 M71.288 287.518 C 70.887 288.397,70.964 288.584,71.397 287.785 C 71.599 287.412,71.720 287.062,71.665 287.007 C 71.611 286.952,71.441 287.182,71.288 287.518 M69.841 291.001 C 69.694 291.423,69.615 291.811,69.666 291.862 C 69.718 291.913,69.880 291.609,70.027 291.187 C 70.175 290.764,70.253 290.377,70.202 290.326 C 70.151 290.274,69.989 290.578,69.841 291.001 M66.284 305.559 C 66.284 306.019,66.333 306.207,66.393 305.977 C 66.453 305.747,66.453 305.371,66.393 305.140 C 66.333 304.910,66.284 305.099,66.284 305.559 M66.045 307.233 C 66.045 307.693,66.094 307.881,66.154 307.651 C 66.214 307.421,66.214 307.044,66.154 306.814 C 66.094 306.584,66.045 306.772,66.045 307.233 M65.810 309.265 C 65.813 309.791,65.862 309.978,65.919 309.680 C 65.976 309.383,65.974 308.953,65.914 308.724 C 65.855 308.495,65.808 308.739,65.810 309.265 M308.962 310.102 C 308.962 310.562,309.011 310.750,309.071 310.520 C 309.131 310.290,309.131 309.913,309.071 309.683 C 309.011 309.453,308.962 309.641,308.962 310.102 M65.576 311.775 C 65.576 312.367,65.623 312.609,65.680 312.313 C 65.737 312.017,65.737 311.533,65.680 311.237 C 65.623 310.941,65.576 311.184,65.576 311.775 M309.210 312.971 C 309.210 313.562,309.257 313.805,309.314 313.509 C 309.371 313.213,309.371 312.729,309.314 312.433 C 309.257 312.137,309.210 312.379,309.210 312.971 M65.344 314.883 C 65.344 315.607,65.388 315.903,65.443 315.541 C 65.498 315.179,65.498 314.588,65.443 314.226 C 65.388 313.864,65.344 314.160,65.344 314.883 M309.463 316.438 C 309.464 317.358,309.507 317.705,309.559 317.209 C 309.611 316.713,309.610 315.960,309.557 315.536 C 309.504 315.111,309.462 315.517,309.463 316.438 M65.120 319.785 C 65.121 321.100,65.161 321.607,65.209 320.912 C 65.258 320.218,65.257 319.142,65.208 318.522 C 65.159 317.901,65.120 318.470,65.120 319.785 M309.718 323.013 C 309.718 324.919,309.756 325.699,309.801 324.746 C 309.846 323.793,309.846 322.233,309.801 321.279 C 309.756 320.326,309.718 321.106,309.718 323.013 M64.899 331.022 C 64.899 334.836,64.932 336.362,64.973 334.415 C 65.013 332.467,65.013 329.347,64.972 327.481 C 64.932 325.615,64.899 327.209,64.899 331.022 M309.863 345.606 L 309.863 349.551 192.887 349.611 L 75.912 349.672 193.007 349.731 L 310.102 349.791 310.102 345.726 C 310.102 343.491,310.048 341.662,309.982 341.662 C 309.916 341.662,309.863 343.437,309.863 345.606 M73.942 349.723 C 74.306 349.778,74.844 349.777,75.138 349.720 C 75.432 349.663,75.134 349.618,74.477 349.620 C 73.819 349.622,73.579 349.668,73.942 349.723 M244.751 356.665 C 256.608 356.699,276.082 356.699,288.026 356.665 C 299.971 356.630,290.269 356.602,266.467 356.602 C 242.666 356.602,232.893 356.630,244.751 356.665 M64.862 357.800 C 64.864 358.458,64.910 358.698,64.965 358.335 C 65.020 357.972,65.019 357.434,64.962 357.140 C 64.905 356.846,64.860 357.143,64.862 357.800 M57.393 362.525 C 57.410 366.380,57.461 366.960,57.771 366.841 C 58.140 366.699,58.205 363.034,57.842 362.810 C 57.755 362.756,57.664 361.718,57.639 360.502 C 57.615 359.287,57.545 358.242,57.484 358.182 C 57.423 358.121,57.382 360.075,57.393 362.525 M64.862 360.430 C 64.864 361.088,64.910 361.328,64.965 360.965 C 65.020 360.602,65.019 360.064,64.962 359.770 C 64.905 359.476,64.860 359.773,64.862 360.430 M64.862 363.060 C 64.864 363.718,64.910 363.958,64.965 363.595 C 65.020 363.232,65.019 362.694,64.962 362.400 C 64.905 362.106,64.860 362.403,64.862 363.060 M64.665 375.613 C 64.665 381.596,64.696 384.044,64.734 381.052 C 64.772 378.060,64.772 373.165,64.734 370.173 C 64.696 367.182,64.665 369.629,64.665 375.613 M57.454 371.548 C 57.454 372.271,57.498 372.567,57.553 372.206 C 57.608 371.844,57.608 371.252,57.553 370.891 C 57.498 370.529,57.454 370.825,57.454 371.548 M310.193 373.102 C 310.193 374.680,310.232 375.295,310.279 374.468 C 310.326 373.641,310.325 372.349,310.278 371.599 C 310.231 370.848,310.192 371.524,310.193 373.102 M57.143 385.727 C 57.143 387.954,57.190 388.251,57.523 388.123 C 57.821 388.009,57.873 387.762,57.762 386.995 C 57.684 386.455,57.555 385.421,57.475 384.698 C 57.247 382.641,57.143 382.965,57.143 385.727 M310.157 384.937 C 310.157 385.397,310.206 385.586,310.266 385.356 C 310.327 385.126,310.327 384.749,310.266 384.519 C 310.206 384.289,310.157 384.477,310.157 384.937 M310.185 388.285 C 310.185 389.402,310.226 389.860,310.277 389.301 C 310.327 388.742,310.327 387.827,310.277 387.268 C 310.226 386.710,310.185 387.167,310.185 388.285 M64.424 395.577 C 64.424 400.442,64.456 402.399,64.495 399.925 C 64.534 397.450,64.533 393.469,64.495 391.078 C 64.456 388.687,64.424 390.711,64.424 395.577 M310.423 393.664 C 310.424 394.716,310.466 395.117,310.516 394.554 C 310.567 393.992,310.566 393.131,310.514 392.642 C 310.463 392.152,310.422 392.612,310.423 393.664 M310.445 401.913 C 310.445 405.266,310.478 406.638,310.519 404.961 C 310.560 403.285,310.560 400.541,310.519 398.864 C 310.478 397.188,310.445 398.559,310.445 401.913 M56.959 402.391 C 56.959 402.851,57.008 403.039,57.069 402.809 C 57.129 402.579,57.129 402.203,57.069 401.973 C 57.008 401.742,56.959 401.931,56.959 402.391 M56.935 404.595 C 56.960 405.676,57.035 405.912,57.320 405.803 C 57.583 405.702,57.642 405.422,57.547 404.717 C 57.334 403.132,56.899 403.045,56.935 404.595 M64.161 406.575 C 64.161 407.759,64.201 408.273,64.251 407.718 C 64.301 407.163,64.302 406.195,64.253 405.566 C 64.203 404.937,64.162 405.392,64.161 406.575 M64.523 412.258 C 64.625 412.360,67.014 412.413,69.832 412.377 L 74.955 412.312 69.647 412.193 C 66.727 412.128,64.422 412.157,64.523 412.258 M305.200 412.194 L 299.940 412.327 305.126 412.380 C 308.384 412.413,310.367 412.344,310.460 412.194 C 310.542 412.062,310.575 411.978,310.534 412.007 C 310.493 412.036,308.093 412.120,305.200 412.194 M75.613 412.365 C 75.974 412.420,76.566 412.420,76.928 412.365 C 77.289 412.310,76.993 412.265,76.270 412.265 C 75.547 412.265,75.251 412.310,75.613 412.365 M297.968 412.365 C 298.329 412.420,298.921 412.420,299.283 412.365 C 299.644 412.310,299.348 412.265,298.625 412.265 C 297.902 412.265,297.606 412.310,297.968 412.365 M64.233 419.068 C 64.133 419.229,119.116 419.229,198.565 419.067 C 214.871 419.033,191.342 418.979,146.278 418.947 C 101.214 418.915,64.294 418.969,64.233 419.068 M310.034 419.295 C 310.541 419.393,310.568 419.524,310.640 422.191 L 310.716 424.985 310.767 422.056 L 310.819 419.127 310.161 419.160 C 309.609 419.187,309.589 419.209,310.034 419.295 M63.943 428.571 C 63.943 432.385,63.976 433.912,64.016 431.964 C 64.057 430.016,64.056 426.896,64.016 425.030 C 63.976 423.164,63.943 424.758,63.943 428.571 M56.733 425.224 C 56.735 425.882,56.781 426.122,56.836 425.759 C 56.891 425.395,56.890 424.857,56.833 424.563 C 56.776 424.269,56.731 424.567,56.733 425.224 M310.925 436.701 C 310.925 440.777,310.958 442.478,310.998 440.481 C 311.038 438.484,311.038 435.149,310.998 433.069 C 310.958 430.990,310.925 432.624,310.925 436.701 M63.707 449.133 C 63.707 454.130,63.738 456.209,63.777 453.752 C 63.816 451.295,63.816 447.206,63.777 444.666 C 63.739 442.126,63.707 444.136,63.707 449.133 M311.170 463.120 C 311.170 470.550,311.200 473.589,311.237 469.874 C 311.274 466.160,311.274 460.081,311.237 456.366 C 311.200 452.651,311.170 455.690,311.170 463.120 M63.465 474.118 C 63.465 477.998,63.498 479.585,63.538 477.645 C 63.578 475.705,63.578 472.531,63.538 470.592 C 63.498 468.652,63.465 470.239,63.465 474.118 M254.931 495.801 C 255.161 495.862,255.538 495.862,255.768 495.801 C 255.998 495.741,255.810 495.692,255.350 495.692 C 254.889 495.692,254.701 495.741,254.931 495.801 M253.019 496.040 C 253.249 496.101,253.625 496.101,253.855 496.040 C 254.085 495.980,253.897 495.931,253.437 495.931 C 252.977 495.931,252.788 495.980,253.019 496.040 M119.845 496.280 C 120.075 496.340,120.451 496.340,120.681 496.280 C 120.912 496.219,120.723 496.170,120.263 496.170 C 119.803 496.170,119.614 496.219,119.845 496.280 M248.954 496.519 C 249.184 496.579,249.561 496.579,249.791 496.519 C 250.021 496.459,249.833 496.409,249.372 496.409 C 248.912 496.409,248.724 496.459,248.954 496.519 M124.148 496.758 C 124.378 496.818,124.755 496.818,124.985 496.758 C 125.215 496.698,125.027 496.648,124.567 496.648 C 124.106 496.648,123.918 496.698,124.148 496.758 M246.802 496.758 C 247.032 496.818,247.409 496.818,247.639 496.758 C 247.869 496.698,247.681 496.648,247.221 496.648 C 246.760 496.648,246.572 496.698,246.802 496.758 M126.300 496.997 C 126.530 497.057,126.907 497.057,127.137 496.997 C 127.367 496.937,127.179 496.888,126.718 496.888 C 126.258 496.888,126.070 496.937,126.300 496.997 M244.534 497.001 C 244.831 497.058,245.261 497.056,245.490 496.996 C 245.719 496.936,245.475 496.890,244.949 496.892 C 244.423 496.895,244.236 496.944,244.534 497.001 M128.691 497.236 C 128.921 497.296,129.298 497.296,129.528 497.236 C 129.758 497.176,129.570 497.127,129.109 497.127 C 128.649 497.127,128.461 497.176,128.691 497.236 M242.143 497.240 C 242.440 497.297,242.870 497.295,243.099 497.235 C 243.328 497.176,243.084 497.129,242.558 497.131 C 242.032 497.134,241.845 497.183,242.143 497.240 M131.082 497.475 C 131.312 497.535,131.689 497.535,131.919 497.475 C 132.149 497.415,131.961 497.366,131.500 497.366 C 131.040 497.366,130.852 497.415,131.082 497.475 M239.510 497.479 C 239.806 497.536,240.290 497.536,240.586 497.479 C 240.882 497.422,240.640 497.375,240.048 497.375 C 239.456 497.375,239.214 497.422,239.510 497.479 M133.712 497.714 C 133.942 497.774,134.319 497.774,134.549 497.714 C 134.779 497.654,134.591 497.605,134.130 497.605 C 133.670 497.605,133.482 497.654,133.712 497.714 M236.880 497.718 C 237.176 497.775,237.660 497.775,237.956 497.718 C 238.252 497.661,238.010 497.614,237.418 497.614 C 236.826 497.614,236.584 497.661,236.880 497.718 M136.464 497.958 C 136.762 498.015,137.192 498.013,137.421 497.953 C 137.649 497.893,137.406 497.846,136.880 497.849 C 136.354 497.851,136.167 497.900,136.464 497.958 M234.011 497.957 C 234.307 498.014,234.791 498.014,235.087 497.957 C 235.383 497.900,235.140 497.854,234.549 497.854 C 233.957 497.854,233.715 497.900,234.011 497.957 M139.214 498.199 C 139.578 498.254,140.116 498.253,140.410 498.196 C 140.704 498.139,140.406 498.094,139.749 498.096 C 139.091 498.098,138.851 498.144,139.214 498.199 M231.025 498.199 C 231.389 498.254,231.927 498.253,232.221 498.196 C 232.515 498.139,232.218 498.094,231.560 498.096 C 230.903 498.098,230.662 498.144,231.025 498.199 M142.562 498.438 C 142.925 498.493,143.463 498.492,143.757 498.435 C 144.051 498.378,143.754 498.333,143.096 498.335 C 142.439 498.337,142.198 498.383,142.562 498.438 M227.675 498.438 C 228.036 498.493,228.628 498.493,228.990 498.438 C 229.351 498.383,229.056 498.338,228.332 498.338 C 227.609 498.338,227.313 498.383,227.675 498.438 M145.790 498.679 C 146.220 498.732,146.866 498.731,147.225 498.677 C 147.584 498.622,147.233 498.578,146.444 498.580 C 145.655 498.581,145.361 498.626,145.790 498.679 M223.973 498.679 C 224.403 498.732,225.048 498.731,225.408 498.677 C 225.767 498.622,225.415 498.578,224.626 498.580 C 223.837 498.581,223.543 498.626,223.973 498.679 M149.606 498.917 C 150.031 498.970,150.784 498.971,151.280 498.919 C 151.776 498.868,151.429 498.824,150.508 498.823 C 149.588 498.822,149.182 498.865,149.606 498.917 M219.660 498.917 C 220.084 498.970,220.838 498.971,221.334 498.919 C 221.830 498.868,221.482 498.824,220.562 498.823 C 219.641 498.822,219.235 498.865,219.660 498.917 M154.274 499.158 C 154.767 499.210,155.574 499.210,156.067 499.158 C 156.560 499.106,156.157 499.064,155.170 499.064 C 154.184 499.064,153.781 499.106,154.274 499.158 M215.129 499.159 C 215.691 499.210,216.552 499.209,217.042 499.158 C 217.531 499.106,217.071 499.065,216.019 499.066 C 214.967 499.067,214.567 499.109,215.129 499.159 M159.175 499.399 C 159.866 499.448,160.995 499.448,161.686 499.399 C 162.376 499.351,161.811 499.311,160.430 499.311 C 159.050 499.311,158.485 499.351,159.175 499.399 M209.265 499.399 C 209.889 499.448,210.912 499.448,211.536 499.399 C 212.161 499.349,211.650 499.309,210.400 499.309 C 209.151 499.309,208.640 499.349,209.265 499.399 M166.457 499.639 C 167.339 499.685,168.845 499.685,169.804 499.640 C 170.763 499.594,170.042 499.557,168.201 499.556 C 166.360 499.556,165.575 499.593,166.457 499.639 M201.016 499.640 C 201.970 499.685,203.530 499.685,204.483 499.640 C 205.436 499.594,204.656 499.557,202.750 499.557 C 200.843 499.557,200.063 499.594,201.016 499.640 M180.215 499.880 C 183.141 499.918,187.929 499.918,190.855 499.880 C 193.781 499.842,191.387 499.811,185.535 499.811 C 179.683 499.811,177.289 499.842,180.215 499.880 " stroke="none" fill="#40648c" fill-rule="evenodd"></path><path id="path7" d="M205.857 182.259 L 205.976 186.611 206.042 182.445 C 206.079 180.153,206.025 178.195,205.923 178.093 C 205.822 177.990,205.792 179.865,205.857 182.259 M220.442 182.259 L 220.561 186.611 220.627 182.445 C 220.663 180.153,220.610 178.195,220.508 178.093 C 220.406 177.990,220.376 179.865,220.442 182.259 M162.164 179.199 C 162.167 179.725,162.216 179.912,162.273 179.615 C 162.330 179.317,162.328 178.887,162.268 178.658 C 162.208 178.430,162.162 178.673,162.164 179.199 M176.749 179.199 C 176.752 179.725,176.800 179.912,176.858 179.615 C 176.915 179.317,176.913 178.887,176.853 178.658 C 176.793 178.430,176.746 178.673,176.749 179.199 M191.333 179.199 C 191.336 179.725,191.385 179.912,191.442 179.615 C 191.499 179.317,191.497 178.887,191.437 178.658 C 191.378 178.430,191.331 178.673,191.333 179.199 M142.848 180.574 C 142.785 180.738,142.761 189.588,142.795 200.239 L 142.857 219.605 142.977 199.940 C 143.042 189.124,143.066 180.275,143.029 180.275 C 142.992 180.275,142.910 180.409,142.848 180.574 M231.756 182.905 C 231.756 183.760,231.800 184.109,231.853 183.682 C 231.906 183.255,231.906 182.555,231.853 182.128 C 231.800 181.701,231.756 182.050,231.756 182.905 M135.748 200.023 C 135.713 206.808,135.765 212.409,135.864 212.470 C 135.962 212.531,136.043 206.979,136.043 200.134 C 136.043 193.288,135.991 187.687,135.928 187.687 C 135.864 187.687,135.784 193.238,135.748 200.023 M242.059 200.120 C 242.059 202.421,242.095 203.362,242.139 202.212 C 242.182 201.061,242.182 199.178,242.139 198.027 C 242.095 196.877,242.059 197.818,242.059 200.120 M132.788 200.120 C 132.788 201.763,132.826 202.436,132.873 201.614 C 132.919 200.792,132.919 199.447,132.873 198.625 C 132.826 197.803,132.788 198.476,132.788 200.120 M154.269 208.966 C 154.269 209.426,154.319 209.614,154.379 209.384 C 154.439 209.154,154.439 208.778,154.379 208.548 C 154.319 208.317,154.269 208.506,154.269 208.966 M205.957 217.812 C 205.957 220.245,205.992 221.240,206.036 220.024 C 206.079 218.808,206.079 216.817,206.036 215.601 C 205.992 214.384,205.957 215.380,205.957 217.812 M220.542 217.812 C 220.542 220.245,220.577 221.240,220.620 220.024 C 220.664 218.808,220.664 216.817,220.620 215.601 C 220.577 214.384,220.542 215.380,220.542 217.812 M231.735 218.530 C 231.735 218.990,231.784 219.178,231.844 218.948 C 231.905 218.718,231.905 218.341,231.844 218.111 C 231.784 217.881,231.735 218.069,231.735 218.530 M191.333 220.801 C 191.336 221.327,191.385 221.514,191.442 221.217 C 191.499 220.919,191.497 220.489,191.437 220.260 C 191.378 220.032,191.331 220.275,191.333 220.801 M140.200 227.783 C 139.693 228.402,139.403 228.831,139.556 228.736 C 139.881 228.535,141.395 226.659,141.232 226.659 C 141.171 226.659,140.707 227.165,140.200 227.783 M136.822 231.742 C 135.501 233.223,133.496 235.321,132.368 236.404 C 131.239 237.488,130.408 238.374,130.519 238.374 C 130.631 238.374,132.108 236.944,133.801 235.196 C 136.807 232.094,139.545 229.050,139.330 229.050 C 139.272 229.050,138.143 230.261,136.822 231.742 M236.701 230.559 C 236.701 230.600,237.050 230.950,237.478 231.336 L 238.255 232.038 237.552 231.261 C 236.898 230.537,236.701 230.374,236.701 230.559 M241.961 236.103 C 243.600 237.747,244.996 239.091,245.062 239.091 C 245.127 239.091,243.839 237.747,242.200 236.103 C 240.560 234.459,239.164 233.114,239.099 233.114 C 239.033 233.114,240.321 234.459,241.961 236.103 M133.368 239.509 C 135.250 239.550,138.262 239.550,140.062 239.509 C 141.862 239.469,140.323 239.436,136.641 239.436 C 132.959 239.436,131.486 239.469,133.368 239.509 M234.728 239.509 C 236.602 239.550,239.668 239.550,241.542 239.509 C 243.416 239.469,241.883 239.436,238.135 239.436 C 234.387 239.436,232.854 239.469,234.728 239.509 M205.798 356.654 C 206.094 356.711,206.578 356.711,206.874 356.654 C 207.170 356.597,206.928 356.550,206.336 356.550 C 205.744 356.550,205.502 356.597,205.798 356.654 M211.417 356.664 C 213.619 356.704,217.224 356.704,219.426 356.664 C 221.629 356.625,219.827 356.593,215.421 356.593 C 211.016 356.593,209.214 356.625,211.417 356.664 M309.862 366.001 L 309.982 375.254 310.045 366.183 C 310.079 361.195,310.025 357.031,309.925 356.930 C 309.825 356.830,309.797 360.912,309.862 366.001 M310.200 380.036 C 310.201 382.403,310.236 383.339,310.280 382.116 C 310.323 380.893,310.323 378.956,310.279 377.812 C 310.236 376.668,310.200 377.669,310.200 380.036 M64.706 386.418 C 64.628 389.089,64.535 395.953,64.500 401.674 L 64.435 412.074 187.448 412.074 L 310.460 412.074 310.474 410.042 L 310.488 408.010 310.405 409.982 L 310.322 411.955 187.438 411.955 L 64.555 411.955 64.563 410.460 C 64.568 409.638,64.669 402.835,64.787 395.343 C 64.906 387.850,64.968 381.684,64.925 381.642 C 64.882 381.599,64.784 383.748,64.706 386.418 M309.918 387.806 C 309.918 388.267,309.967 388.455,310.027 388.225 C 310.087 387.995,310.087 387.618,310.027 387.388 C 309.967 387.158,309.918 387.346,309.918 387.806 M310.195 396.892 C 310.198 402.377,310.224 402.937,310.329 399.761 C 310.401 397.591,310.400 394.525,310.326 392.947 C 310.243 391.178,310.193 392.691,310.195 396.892 M310.167 405.021 C 310.167 405.613,310.213 405.855,310.270 405.559 C 310.327 405.263,310.327 404.779,310.270 404.483 C 310.213 404.187,310.167 404.429,310.167 405.021 " stroke="none" fill="#9c9c9c" fill-rule="evenodd"></path><path id="path8" d="M168.619 246.443 C 178.975 246.478,195.921 246.478,206.276 246.443 C 216.632 246.409,208.159 246.381,187.448 246.381 C 166.736 246.381,158.264 246.409,168.619 246.443 M65.101 325.284 C 65.103 325.941,65.149 326.182,65.204 325.819 C 65.259 325.455,65.258 324.917,65.201 324.623 C 65.144 324.329,65.099 324.626,65.101 325.284 M65.134 342.857 C 65.134 345.684,65.169 346.841,65.211 345.427 C 65.254 344.014,65.254 341.701,65.211 340.287 C 65.169 338.873,65.134 340.030,65.134 342.857 M226.121 419.296 C 226.417 419.353,226.901 419.353,227.197 419.296 C 227.493 419.239,227.250 419.192,226.659 419.192 C 226.067 419.192,225.825 419.239,226.121 419.296 M241.184 419.307 C 248.580 419.342,260.684 419.342,268.081 419.307 C 275.478 419.272,269.426 419.243,254.632 419.243 C 239.839 419.243,233.787 419.272,241.184 419.307 " stroke="none" fill="#44a4c4" fill-rule="evenodd"></path></g></svg>