<svg id="svg" version="1.1" xmlns="http://www.w3.org/2000/svg" xmlns:xlink="http://www.w3.org/1999/xlink" width="400" height="400" viewBox="0, 0, 400,400" transform="scale(0.9 0.9)"><g id="svgg"><path id="path0" d="M323.930 10.065 C 321.602 10.699,321.388 12.400,323.636 12.400 C 325.505 12.400,327.685 11.340,327.527 10.508 C 327.368 9.665,326.014 9.499,323.930 10.065 M285.373 19.956 C 273.349 23.104,272.800 23.289,272.800 24.181 C 272.800 25.801,297.873 19.949,298.556 18.169 C 298.731 17.714,297.579 16.656,297.126 16.856 C 297.057 16.886,291.768 18.281,285.373 19.956 M243.709 30.544 C 240.680 31.441,239.730 32.039,240.178 32.765 C 240.758 33.702,247.832 32.339,249.131 31.041 C 250.707 29.464,248.147 29.230,243.709 30.544 M207.000 39.826 C 190.879 44.000,191.200 43.900,191.200 44.788 C 191.200 46.100,192.157 45.961,204.441 42.865 C 215.312 40.125,216.600 39.715,216.600 39.000 C 216.600 37.705,214.484 37.887,207.000 39.826 M107.517 39.995 C 102.525 41.500,102.670 40.587,102.478 71.800 C 102.304 100.131,102.363 99.380,100.272 99.810 C 69.288 106.180,45.349 126.278,39.194 151.088 C 38.814 152.622,38.623 152.815,37.088 153.217 C 30.703 154.887,30.197 155.945,30.210 167.600 C 30.222 178.449,30.949 180.383,35.400 181.416 C 36.060 181.570,37.005 181.948,37.500 182.257 L 38.400 182.818 38.400 300.560 C 38.400 394.272,38.298 418.384,37.900 418.705 C 37.625 418.926,36.770 419.240,36.000 419.402 C 33.746 419.876,32.470 420.712,31.298 422.482 L 30.200 424.142 30.200 433.171 C 30.200 443.723,30.459 444.634,34.009 446.566 L 35.908 447.600 126.980 447.600 C 193.520 447.600,218.288 447.479,218.926 447.151 C 222.814 445.154,223.200 443.911,223.200 433.380 C 223.200 421.896,222.669 420.621,217.307 419.216 C 216.376 418.972,215.431 418.431,215.207 418.013 C 214.652 416.975,214.640 183.847,215.195 182.810 C 215.426 182.378,216.248 181.961,217.180 181.803 C 222.410 180.920,223.272 178.777,223.120 167.032 L 223.000 157.736 221.879 156.267 C 220.576 154.559,219.135 153.727,216.850 153.362 C 214.777 153.030,214.664 152.873,213.645 148.910 C 207.781 126.093,184.169 106.663,154.206 99.998 C 150.701 99.218,150.801 99.532,150.796 89.238 C 150.792 80.536,150.756 80.123,149.830 78.134 C 148.762 75.839,148.621 76.510,151.108 72.034 C 153.613 67.527,153.684 62.675,151.316 57.942 C 150.174 55.659,149.966 54.878,150.180 53.674 C 151.599 45.674,150.407 41.706,146.126 40.180 C 144.393 39.561,109.508 39.395,107.517 39.995 M143.459 46.717 C 143.981 47.238,143.940 48.994,143.394 49.540 C 143.316 49.617,142.001 49.470,140.471 49.212 C 128.373 47.171,118.372 59.721,123.362 70.681 C 126.078 76.643,135.584 82.155,140.156 80.417 C 140.714 80.205,141.506 80.281,142.324 80.625 L 143.614 81.167 143.507 91.084 L 143.400 101.000 141.600 101.891 C 134.616 105.350,117.756 105.588,110.604 102.329 L 109.600 101.872 109.595 75.436 C 109.592 60.896,109.488 48.622,109.363 48.160 C 109.228 47.655,109.402 47.055,109.800 46.657 C 110.752 45.705,142.504 45.761,143.459 46.717 M163.748 50.976 C 161.267 52.056,161.721 53.475,164.409 53.045 C 166.660 52.685,167.600 52.137,167.600 51.186 C 167.600 50.228,165.705 50.125,163.748 50.976 M140.752 56.084 C 150.160 58.953,147.614 73.600,137.709 73.600 C 128.667 73.600,125.123 61.025,133.000 56.895 C 136.044 55.299,137.632 55.133,140.752 56.084 M211.000 63.585 C 198.224 63.800,198.200 63.802,198.076 64.673 C 197.999 65.214,198.227 65.671,198.676 65.874 C 199.908 66.432,225.075 65.887,225.672 65.289 C 226.337 64.623,225.626 63.406,224.559 63.385 C 224.142 63.377,218.040 63.467,211.000 63.585 M162.127 64.245 C 161.638 65.520,163.082 66.000,167.376 65.994 C 171.690 65.987,172.561 65.734,172.334 64.552 C 172.125 63.462,162.538 63.174,162.127 64.245 M251.722 64.258 C 251.246 65.500,252.703 66.000,256.800 66.000 C 261.091 66.000,262.630 65.441,261.636 64.243 C 260.836 63.280,252.093 63.293,251.722 64.258 M287.722 64.258 C 287.113 65.845,288.336 66.000,301.503 66.000 C 313.956 66.000,315.600 65.841,315.600 64.633 C 315.600 63.347,288.213 62.978,287.722 64.258 M159.743 73.005 C 159.339 74.056,160.266 74.624,164.592 75.979 C 169.079 77.384,170.496 77.274,169.595 75.590 C 168.827 74.156,160.172 71.885,159.743 73.005 M194.246 83.412 C 192.871 84.786,193.246 84.996,202.000 87.742 C 205.190 88.743,210.382 90.381,213.538 91.381 C 219.834 93.377,220.219 93.448,220.520 92.664 C 220.976 91.476,220.231 91.160,207.600 87.197 C 200.498 84.969,198.860 84.385,197.288 83.521 C 195.685 82.640,195.040 82.617,194.246 83.412 M245.303 99.864 C 243.497 100.593,252.355 104.563,254.205 103.853 C 256.030 103.153,254.586 102.071,249.929 100.651 C 246.372 99.566,246.139 99.526,245.303 99.864 M156.200 107.426 C 181.271 114.023,200.104 128.883,206.176 146.859 C 207.040 149.416,207.389 152.236,206.882 152.549 C 205.832 153.198,46.615 152.824,46.134 152.172 C 44.328 149.723,51.963 135.373,58.957 128.074 C 63.258 123.584,74.367 115.880,79.860 113.577 C 80.927 113.130,82.152 112.567,82.582 112.327 C 84.815 111.081,100.416 106.398,102.325 106.401 C 102.696 106.401,104.651 107.114,106.668 107.984 C 119.035 113.320,136.736 112.891,147.600 106.994 C 149.663 105.874,150.453 105.914,156.200 107.426 M279.272 111.292 C 279.387 112.090,280.751 112.617,292.200 116.291 C 304.823 120.341,306.000 120.608,306.000 119.427 C 306.000 118.457,305.128 118.118,292.000 113.994 C 288.370 112.853,284.398 111.578,283.173 111.160 C 280.116 110.116,279.109 110.150,279.272 111.292 M216.539 160.349 C 217.501 161.148,217.530 173.613,216.571 174.571 C 215.577 175.566,37.571 175.530,36.749 174.535 C 35.830 173.422,36.094 160.813,37.051 160.113 C 38.144 159.314,215.573 159.547,216.539 160.349 M207.424 182.568 C 208.408 183.288,208.640 199.520,207.680 200.480 C 206.995 201.165,47.263 201.476,45.991 200.795 C 44.902 200.212,44.754 183.703,45.829 182.629 C 46.738 181.720,206.182 181.660,207.424 182.568 M207.359 208.366 C 208.109 208.988,208.352 290.023,207.608 291.200 C 207.114 291.982,46.682 292.332,45.744 291.554 C 45.168 291.076,45.002 223.032,45.553 212.800 L 45.800 208.200 91.600 207.973 C 166.472 207.601,206.602 207.738,207.359 208.366 M207.680 299.520 C 208.446 300.286,208.446 360.114,207.680 360.880 C 206.839 361.721,46.124 361.642,45.592 360.800 C 44.858 359.640,45.091 300.166,45.832 299.425 C 46.702 298.555,206.810 298.650,207.680 299.520 M207.339 368.749 C 208.324 369.567,208.356 417.187,207.371 418.171 C 206.409 419.134,46.791 419.134,45.829 418.171 C 44.989 417.331,44.859 369.301,45.695 368.465 C 46.466 367.694,206.405 367.974,207.339 368.749 M216.571 426.229 C 217.321 426.978,217.503 438.686,216.786 440.026 C 216.263 441.004,37.155 441.276,36.524 440.300 C 36.168 439.750,36.256 427.482,36.625 426.323 C 36.957 425.276,215.526 425.183,216.571 426.229 " stroke="none" fill="#091314" fill-rule="evenodd"></path><path id="path1" d="M46.270 183.064 C 45.642 183.692,45.973 199.116,46.629 199.771 C 47.595 200.738,206.986 200.734,207.357 199.767 C 207.754 198.733,207.621 184.252,207.208 183.600 C 206.808 182.966,46.900 182.434,46.270 183.064 M46.629 300.228 C 45.709 301.149,46.002 359.499,46.931 360.089 C 47.998 360.768,207.096 360.449,207.357 359.767 C 207.709 358.849,207.644 301.088,207.290 300.532 C 206.700 299.604,47.555 299.303,46.629 300.228 " stroke="none" fill="#f2cd5e" fill-rule="evenodd"></path><path id="path2" d="M323.400 9.412 C 322.520 9.729,321.761 9.991,321.714 9.994 C 321.220 10.029,320.842 11.731,321.185 12.372 C 322.241 14.346,328.400 12.860,328.400 10.631 C 328.400 8.771,326.479 8.302,323.400 9.412 M327.527 10.508 C 327.685 11.340,325.505 12.400,323.636 12.400 C 321.388 12.400,321.602 10.699,323.930 10.065 C 326.014 9.499,327.368 9.665,327.527 10.508 M285.400 19.023 C 270.985 22.693,270.641 22.854,272.267 25.174 C 273.071 26.322,276.737 25.584,297.200 20.153 C 299.532 19.534,300.301 17.737,298.711 16.623 C 297.579 15.830,298.817 15.607,285.400 19.023 M298.011 17.206 C 300.213 18.384,298.897 18.911,285.095 22.380 C 274.333 25.085,272.800 25.310,272.800 24.181 C 272.800 23.289,273.349 23.104,285.373 19.956 C 291.768 18.281,297.057 16.886,297.126 16.856 C 297.196 16.825,297.594 16.983,298.011 17.206 M357.800 25.877 C 354.667 26.668,353.397 28.567,355.233 29.715 C 356.253 30.353,359.573 29.664,360.646 28.591 C 362.456 26.781,360.731 25.137,357.800 25.877 M360.172 27.155 C 360.476 27.647,359.681 28.173,357.810 28.717 C 356.031 29.235,355.155 28.818,355.966 27.841 C 356.639 27.030,359.778 26.518,360.172 27.155 M243.824 29.604 C 239.733 30.752,238.729 31.441,239.097 32.849 C 239.801 35.541,250.400 33.248,250.400 30.404 C 250.400 28.155,249.417 28.036,243.824 29.604 M249.424 30.038 C 249.894 30.799,248.662 31.578,245.688 32.402 C 241.483 33.568,238.950 33.312,240.364 31.865 C 241.578 30.623,248.876 29.152,249.424 30.038 M323.800 34.612 C 320.060 35.590,314.750 36.952,312.000 37.638 C 305.524 39.252,304.027 40.267,305.680 41.920 C 306.542 42.782,311.173 41.834,327.445 37.466 C 332.944 35.989,334.092 34.950,331.911 33.423 C 330.821 32.659,331.822 32.513,323.800 34.612 M331.119 34.341 C 331.923 34.852,331.001 35.394,328.000 36.177 C 326.570 36.549,323.420 37.367,321.000 37.993 C 318.580 38.619,314.804 39.597,312.609 40.166 C 308.444 41.245,306.400 41.462,306.400 40.824 C 306.400 40.220,306.867 40.052,312.680 38.566 C 315.716 37.790,320.900 36.458,324.200 35.605 C 331.207 33.795,330.470 33.930,331.119 34.341 M205.400 39.381 C 189.972 43.294,189.745 43.378,190.072 45.078 C 190.459 47.086,191.558 46.987,204.455 43.778 C 217.779 40.462,219.051 39.891,217.500 37.917 C 216.551 36.710,215.364 36.854,205.400 39.381 M216.600 39.000 C 216.600 39.715,215.312 40.125,204.441 42.865 C 192.157 45.961,191.200 46.100,191.200 44.788 C 191.200 44.015,191.467 43.907,197.000 42.437 C 214.514 37.783,216.600 37.418,216.600 39.000 M106.000 39.742 C 104.974 40.265,103.684 41.393,103.000 42.365 L 101.800 44.068 101.689 70.534 C 101.556 102.151,102.072 98.495,97.587 99.581 C 67.571 106.854,44.441 126.299,38.955 148.873 C 38.197 151.990,38.178 152.011,35.090 152.947 C 30.008 154.488,29.199 156.512,29.202 167.677 C 29.205 178.409,30.015 180.418,35.058 182.205 L 37.400 183.034 37.501 300.529 C 37.581 394.325,37.500 418.058,37.101 418.193 C 36.825 418.285,35.790 418.568,34.800 418.822 C 30.108 420.024,29.109 422.806,29.276 434.200 C 29.421 444.027,29.687 444.940,33.005 447.000 L 34.937 448.200 125.569 448.316 C 224.759 448.444,218.985 448.553,221.257 446.501 C 223.974 444.046,224.000 443.924,224.000 433.404 C 224.000 421.434,223.529 420.227,218.204 418.549 L 216.102 417.886 215.851 415.484 C 215.511 412.234,215.588 187.071,215.930 184.813 C 216.188 183.105,216.280 183.003,218.004 182.517 C 223.277 181.029,224.000 179.230,224.000 167.600 C 224.000 155.215,223.278 153.768,216.332 152.236 C 215.383 152.027,215.193 151.688,214.625 149.191 C 209.579 127.006,187.469 107.928,157.600 99.987 C 151.130 98.267,151.602 99.159,151.591 88.624 C 151.583 80.698,151.502 79.622,150.791 78.056 C 149.773 75.812,149.761 75.910,151.388 73.260 C 154.435 68.298,154.702 62.993,152.174 57.631 C 150.827 54.774,150.791 54.582,151.240 52.580 C 152.596 46.520,151.109 41.780,147.206 39.716 L 145.474 38.800 126.637 38.811 L 107.800 38.823 106.000 39.742 M146.126 40.180 C 150.407 41.706,151.599 45.674,150.180 53.674 C 149.966 54.878,150.174 55.659,151.316 57.942 C 153.684 62.675,153.613 67.527,151.108 72.034 C 148.621 76.510,148.762 75.839,149.830 78.134 C 150.756 80.123,150.792 80.536,150.796 89.238 C 150.801 99.532,150.701 99.218,154.206 99.998 C 184.169 106.663,207.781 126.093,213.645 148.910 C 214.664 152.873,214.777 153.030,216.850 153.362 C 219.135 153.727,220.576 154.559,221.879 156.267 L 223.000 157.736 223.120 167.032 C 223.272 178.777,222.410 180.920,217.180 181.803 C 216.248 181.961,215.426 182.378,215.195 182.810 C 214.640 183.847,214.652 416.975,215.207 418.013 C 215.431 418.431,216.376 418.972,217.307 419.216 C 222.669 420.621,223.200 421.896,223.200 433.380 C 223.200 443.911,222.814 445.154,218.926 447.151 C 218.288 447.479,193.520 447.600,126.980 447.600 L 35.908 447.600 34.009 446.566 C 30.459 444.634,30.200 443.723,30.200 433.171 L 30.200 424.142 31.298 422.482 C 32.470 420.712,33.746 419.876,36.000 419.402 C 36.770 419.240,37.625 418.926,37.900 418.705 C 38.298 418.384,38.400 394.272,38.400 300.560 L 38.400 182.818 37.500 182.257 C 37.005 181.948,36.060 181.570,35.400 181.416 C 30.949 180.383,30.222 178.449,30.210 167.600 C 30.197 155.945,30.703 154.887,37.088 153.217 C 38.623 152.815,38.814 152.622,39.194 151.088 C 45.060 127.443,64.741 109.809,94.800 101.266 C 97.110 100.609,99.573 99.954,100.272 99.810 C 102.363 99.380,102.304 100.131,102.478 71.800 C 102.670 40.587,102.525 41.500,107.517 39.995 C 109.508 39.395,144.393 39.561,146.126 40.180 M277.634 46.403 C 273.192 47.565,272.107 48.306,272.842 49.678 C 274.029 51.897,283.819 49.368,283.524 46.918 C 283.330 45.305,282.208 45.207,277.634 46.403 M109.800 46.657 C 109.402 47.055,109.228 47.655,109.363 48.160 C 109.488 48.622,109.592 60.896,109.595 75.436 L 109.600 101.872 110.604 102.329 C 117.756 105.588,134.616 105.350,141.600 101.891 L 143.400 101.000 143.507 91.084 L 143.614 81.167 142.324 80.625 C 141.506 80.281,140.714 80.205,140.156 80.417 C 135.584 82.155,126.078 76.643,123.362 70.681 C 118.372 59.721,128.373 47.171,140.471 49.212 C 143.588 49.738,143.440 49.776,143.796 48.357 C 144.357 46.122,144.367 46.124,126.661 46.057 C 112.071 46.002,110.396 46.061,109.800 46.657 M282.298 47.094 C 282.574 47.924,275.586 49.876,274.219 49.352 C 273.225 48.970,274.497 48.227,277.200 47.610 C 278.410 47.334,279.760 46.959,280.200 46.776 C 281.240 46.345,282.092 46.474,282.298 47.094 M164.798 49.769 C 161.868 50.579,161.135 51.109,161.276 52.318 C 161.605 55.139,168.800 54.033,168.800 51.161 C 168.800 50.528,167.367 49.141,166.811 49.236 C 166.695 49.255,165.789 49.496,164.798 49.769 M167.600 51.186 C 167.600 52.137,166.660 52.685,164.409 53.045 C 161.721 53.475,161.267 52.056,163.748 50.976 C 165.705 50.125,167.600 50.228,167.600 51.186 M236.130 56.953 C 225.081 59.795,223.600 60.328,223.600 61.459 C 223.600 62.590,221.406 62.800,209.588 62.800 C 196.454 62.800,196.297 62.831,196.949 65.326 C 197.111 65.945,196.793 66.516,195.759 67.463 C 194.245 68.850,194.312 70.064,195.930 70.578 C 197.360 71.032,201.285 69.490,202.004 68.192 L 202.664 67.000 214.365 66.800 C 227.304 66.579,227.200 66.602,227.200 63.924 C 227.200 63.306,227.258 62.800,227.328 62.800 C 228.051 62.800,248.533 57.437,249.526 56.988 C 250.624 56.491,250.830 56.200,250.726 55.294 C 250.523 53.530,248.586 53.750,236.130 56.953 M249.383 55.700 C 249.277 55.975,247.257 56.681,244.895 57.269 C 242.533 57.857,239.475 58.622,238.100 58.969 C 236.725 59.316,234.475 59.883,233.100 60.229 C 231.725 60.575,229.610 61.109,228.400 61.415 C 227.190 61.721,225.975 61.978,225.700 61.986 C 225.176 62.001,224.979 60.816,225.500 60.778 C 225.665 60.766,230.570 59.527,236.400 58.025 C 247.230 55.236,249.734 54.788,249.383 55.700 M136.600 56.000 C 136.452 56.240,136.961 56.398,137.876 56.394 C 139.007 56.389,139.245 56.288,138.800 56.000 C 138.018 55.494,136.912 55.494,136.600 56.000 M161.700 63.065 C 160.705 63.467,161.100 65.982,162.226 66.410 C 163.728 66.981,171.201 66.889,172.400 66.284 C 173.604 65.677,173.884 64.341,172.993 63.450 C 172.356 62.813,163.105 62.498,161.700 63.065 M251.029 63.429 C 248.975 65.482,251.362 66.800,257.137 66.800 C 262.215 66.800,264.208 65.465,262.171 63.429 C 261.252 62.510,251.948 62.510,251.029 63.429 M286.804 63.395 C 286.004 64.359,286.641 65.866,288.057 66.360 C 289.635 66.910,313.911 66.966,315.340 66.423 C 316.792 65.871,317.124 64.430,316.006 63.525 C 314.763 62.518,287.632 62.397,286.804 63.395 M225.759 64.123 C 226.784 65.805,225.486 66.000,213.224 66.005 C 200.329 66.012,199.890 66.059,200.401 67.402 C 200.698 68.185,200.589 68.385,199.676 68.737 C 196.096 70.112,194.517 69.434,197.336 67.732 C 198.888 66.795,199.041 66.584,198.536 66.079 C 196.447 63.990,205.856 63.016,224.559 63.385 C 224.977 63.393,225.517 63.726,225.759 64.123 M172.334 64.552 C 172.561 65.734,171.690 65.987,167.376 65.994 C 163.082 66.000,161.638 65.520,162.127 64.245 C 162.538 63.174,172.125 63.462,172.334 64.552 M261.636 64.243 C 262.630 65.441,261.091 66.000,256.800 66.000 C 252.703 66.000,251.246 65.500,251.722 64.258 C 252.093 63.293,260.836 63.280,261.636 64.243 M314.700 63.852 C 315.804 64.148,315.869 65.028,314.826 65.586 C 314.340 65.846,309.389 66.000,301.503 66.000 C 288.336 66.000,287.113 65.845,287.722 64.258 C 287.981 63.585,312.336 63.218,314.700 63.852 M131.200 70.156 C 131.200 70.750,133.199 72.398,133.882 72.368 C 134.444 72.344,134.469 72.287,134.000 72.108 C 133.670 71.983,133.310 71.772,133.200 71.640 C 132.662 70.995,131.200 69.910,131.200 70.156 M159.220 71.980 C 157.289 73.911,158.437 74.928,164.873 76.988 C 168.824 78.253,170.246 78.152,170.641 76.578 C 171.114 74.696,169.712 73.958,160.720 71.356 C 160.347 71.248,159.672 71.528,159.220 71.980 M165.241 73.632 C 169.362 74.912,170.566 75.833,169.392 76.806 C 168.061 77.911,159.200 74.420,159.743 73.005 C 160.068 72.157,160.737 72.233,165.241 73.632 M284.889 79.823 C 281.991 81.852,284.240 83.200,290.525 83.200 C 295.882 83.200,296.591 82.947,296.331 81.132 C 296.058 79.228,287.187 78.213,284.889 79.823 M194.621 81.166 C 194.077 82.028,193.445 82.849,193.216 82.990 C 191.736 83.905,193.192 85.872,196.000 86.752 C 196.770 86.994,199.020 87.715,201.000 88.355 C 220.396 94.623,221.600 94.846,221.600 92.169 C 221.600 90.679,222.010 90.847,205.509 85.572 C 200.630 84.012,199.716 83.200,202.839 83.200 C 205.342 83.200,206.400 82.665,206.400 81.400 C 206.400 79.924,205.289 79.600,200.231 79.600 L 195.610 79.600 194.621 81.166 M230.706 80.647 C 229.610 83.053,230.454 83.200,245.355 83.200 C 259.234 83.200,260.400 83.060,260.400 81.400 C 260.400 79.732,259.264 79.600,244.902 79.600 L 231.183 79.600 230.706 80.647 M320.480 80.080 C 319.816 80.744,319.880 81.823,320.629 82.571 C 321.175 83.118,323.008 83.200,334.655 83.200 C 348.782 83.200,349.600 83.101,349.600 81.400 C 349.600 80.849,349.265 80.249,348.826 80.014 C 347.661 79.391,321.108 79.452,320.480 80.080 M294.828 80.617 C 295.032 80.744,295.200 81.107,295.200 81.424 C 295.200 82.272,285.391 82.274,285.065 81.426 C 284.648 80.337,293.225 79.627,294.828 80.617 M203.100 80.659 C 206.127 81.023,205.981 81.999,202.900 82.003 C 201.635 82.005,199.656 82.120,198.502 82.259 L 196.405 82.511 197.411 83.376 C 198.440 84.260,198.810 84.398,207.800 87.247 C 220.445 91.255,220.974 91.481,220.520 92.664 C 220.219 93.448,219.834 93.377,213.538 91.381 C 210.382 90.381,205.190 88.743,202.000 87.742 C 194.511 85.393,194.098 85.232,193.846 84.575 C 193.598 83.928,194.604 82.800,195.429 82.800 C 195.766 82.800,196.000 82.404,196.000 81.833 C 196.000 80.404,198.095 80.058,203.100 80.659 M252.136 80.663 C 257.316 80.867,258.800 81.045,258.800 81.463 C 258.800 82.291,232.183 82.254,231.865 81.425 C 231.469 80.394,238.559 80.127,252.136 80.663 M341.736 80.663 C 346.916 80.867,348.400 81.045,348.400 81.463 C 348.400 81.902,345.915 82.000,334.800 82.000 C 323.288 82.000,321.200 81.912,321.200 81.429 C 321.200 80.392,328.216 80.130,341.736 80.663 M192.646 89.011 C 191.154 90.503,197.586 94.242,201.871 94.373 C 203.759 94.431,204.453 92.085,202.808 91.204 C 199.527 89.448,193.508 88.149,192.646 89.011 M198.601 90.841 C 202.042 91.966,203.698 93.200,201.765 93.200 C 200.415 93.200,193.600 90.634,193.600 90.126 C 193.600 89.352,194.391 89.465,198.601 90.841 M244.480 99.280 C 243.020 100.740,244.302 101.955,249.000 103.562 C 254.521 105.451,257.194 104.881,255.431 102.191 C 254.302 100.469,245.604 98.156,244.480 99.280 M226.880 99.680 C 225.073 101.487,226.148 102.248,233.886 104.646 C 237.139 105.653,242.531 107.360,245.869 108.439 C 252.544 110.596,254.151 110.812,254.780 109.637 C 255.669 107.976,254.382 107.366,241.200 103.199 C 227.880 98.988,227.632 98.928,226.880 99.680 M249.929 100.651 C 254.586 102.071,256.030 103.153,254.205 103.853 C 252.355 104.563,243.497 100.593,245.303 99.864 C 246.139 99.526,246.372 99.566,249.929 100.651 M232.035 101.435 C 233.886 102.004,236.390 102.794,237.600 103.192 C 238.810 103.590,242.230 104.674,245.200 105.602 C 252.314 107.825,253.337 108.212,253.516 108.749 C 253.791 109.573,251.686 109.221,246.910 107.647 C 244.320 106.792,240.310 105.514,238.000 104.805 C 227.746 101.659,227.363 101.506,227.828 100.755 C 228.136 100.256,228.276 100.279,232.035 101.435 M279.150 109.748 C 276.421 111.104,278.161 112.778,284.328 114.733 C 286.458 115.408,291.948 117.155,296.529 118.616 C 304.947 121.300,306.440 121.516,306.974 120.123 C 307.720 118.179,306.964 117.829,291.200 112.822 C 287.570 111.669,284.150 110.578,283.600 110.397 C 280.312 109.317,280.085 109.284,279.150 109.748 M283.173 111.160 C 284.398 111.578,288.370 112.853,292.000 113.994 C 305.128 118.118,306.000 118.457,306.000 119.427 C 306.000 120.608,304.823 120.341,292.200 116.291 C 280.751 112.617,279.387 112.090,279.272 111.292 C 279.109 110.150,280.116 110.116,283.173 111.160 M278.080 116.080 C 276.629 117.531,277.943 118.657,282.885 120.198 C 286.578 121.350,288.278 121.385,288.943 120.323 C 290.116 118.449,279.757 114.403,278.080 116.080 M283.116 117.630 C 286.574 118.698,287.600 119.210,287.600 119.868 C 287.600 120.766,279.425 118.364,279.037 117.352 C 278.736 116.567,279.946 116.650,283.116 117.630 M311.763 127.405 C 311.281 129.327,311.105 129.240,323.400 133.147 C 338.300 137.882,338.992 138.048,339.920 137.120 C 341.652 135.388,340.273 134.534,331.000 131.602 C 312.127 125.635,312.203 125.651,311.763 127.405 M316.729 128.221 C 317.899 128.542,320.779 129.450,323.129 130.238 C 325.478 131.027,329.673 132.358,332.452 133.196 C 337.816 134.815,339.200 135.393,339.200 136.014 C 339.200 136.499,337.533 136.515,336.319 136.042 C 335.813 135.845,334.590 135.456,333.600 135.179 C 331.630 134.628,321.277 131.343,316.203 129.660 C 313.165 128.653,310.814 126.527,313.660 127.361 C 314.177 127.513,315.558 127.899,316.729 128.221 M37.051 160.113 C 35.977 160.898,35.837 173.602,36.890 174.659 C 37.802 175.574,38.250 175.067,37.665 173.783 C 37.180 172.718,37.014 163.333,37.452 161.700 L 37.693 160.800 126.367 160.800 C 194.801 160.800,215.150 160.910,215.520 161.280 C 215.854 161.614,216.000 163.742,216.000 168.280 C 216.000 174.191,216.282 175.926,216.957 174.167 C 217.568 172.575,217.215 160.910,216.539 160.349 C 215.573 159.547,38.144 159.314,37.051 160.113 M45.829 182.629 C 44.754 183.703,44.902 200.212,45.991 200.795 C 47.263 201.476,206.995 201.165,207.680 200.480 C 208.640 199.520,208.408 183.288,207.424 182.568 C 206.182 181.660,46.738 181.720,45.829 182.629 M207.208 183.600 C 207.621 184.252,207.754 198.733,207.357 199.767 C 206.986 200.734,47.595 200.738,46.629 199.771 C 45.973 199.116,45.642 183.692,46.270 183.064 C 46.900 182.434,206.808 182.966,207.208 183.600 M91.600 207.973 L 45.800 208.200 45.553 212.800 C 45.002 223.032,45.168 291.076,45.744 291.554 C 46.682 292.332,207.114 291.982,207.608 291.200 C 208.352 290.023,208.109 208.988,207.359 208.366 C 206.602 207.738,166.472 207.601,91.600 207.973 M46.699 275.874 C 46.634 279.793,46.580 276.700,46.580 269.000 C 46.580 261.300,46.634 258.093,46.699 261.874 C 46.765 265.655,46.765 271.955,46.699 275.874 M45.832 299.425 C 45.091 300.166,44.858 359.640,45.592 360.800 C 46.124 361.642,206.839 361.721,207.680 360.880 C 208.446 360.114,208.446 300.286,207.680 299.520 C 206.810 298.650,46.702 298.555,45.832 299.425 M207.290 300.532 C 207.644 301.088,207.709 358.849,207.357 359.767 C 207.096 360.449,47.998 360.768,46.931 360.089 C 46.002 359.499,45.709 301.149,46.629 300.228 C 47.555 299.303,206.700 299.604,207.290 300.532 M45.695 368.465 C 44.859 369.301,44.989 417.331,45.829 418.171 C 46.791 419.134,206.409 419.134,207.371 418.171 C 208.356 417.187,208.324 369.567,207.339 368.749 C 206.405 367.974,46.466 367.694,45.695 368.465 M174.232 370.121 C 158.894 370.363,148.668 370.360,145.832 370.113 C 142.556 369.828,148.810 369.729,169.800 369.735 L 198.200 369.743 174.232 370.121 M36.628 426.500 C 35.551 431.675,36.119 440.527,37.541 440.731 C 38.432 440.860,38.439 440.835,37.826 439.651 C 37.088 438.224,36.922 428.466,37.614 427.174 C 38.033 426.391,206.250 425.979,213.400 426.743 L 215.800 427.000 216.000 434.000 C 216.168 439.866,216.281 440.858,216.700 440.126 C 217.500 438.728,217.392 427.049,216.571 426.229 C 216.004 425.661,207.267 425.600,126.379 425.600 L 36.815 425.600 36.628 426.500 " stroke="none" fill="#a2a2a2" fill-rule="evenodd"></path><path id="path4" d="M357.529 27.084 C 356.262 27.278,355.302 28.262,355.847 28.807 C 356.550 29.510,360.657 27.940,360.172 27.155 C 359.951 26.797,359.485 26.784,357.529 27.084 M324.200 35.605 C 320.900 36.458,315.716 37.790,312.680 38.566 C 306.867 40.052,306.400 40.220,306.400 40.824 C 306.400 41.462,308.444 41.245,312.609 40.166 C 314.804 39.597,318.580 38.619,321.000 37.993 C 323.420 37.367,326.570 36.549,328.000 36.177 C 331.001 35.394,331.923 34.852,331.119 34.341 C 330.470 33.930,331.207 33.795,324.200 35.605 M280.200 46.776 C 279.760 46.959,278.410 47.334,277.200 47.610 C 274.497 48.227,273.225 48.970,274.219 49.352 C 275.586 49.876,282.574 47.924,282.298 47.094 C 282.092 46.474,281.240 46.345,280.200 46.776 M236.400 58.025 C 230.570 59.527,225.665 60.766,225.500 60.778 C 224.979 60.816,225.176 62.001,225.700 61.986 C 225.975 61.978,227.190 61.721,228.400 61.415 C 229.610 61.109,231.725 60.575,233.100 60.229 C 234.475 59.883,236.725 59.316,238.100 58.969 C 239.475 58.622,242.533 57.857,244.895 57.269 C 247.257 56.681,249.277 55.975,249.383 55.700 C 249.734 54.788,247.230 55.236,236.400 58.025 M133.572 56.700 C 132.377 57.305,131.445 58.025,131.500 58.300 C 131.555 58.575,131.377 58.755,131.104 58.700 C 130.201 58.518,128.800 61.984,128.805 64.385 C 128.812 66.968,129.145 68.481,129.641 68.175 C 129.833 68.056,129.890 68.222,129.766 68.545 C 129.537 69.142,132.327 72.606,132.720 72.213 C 132.835 72.099,132.511 71.643,132.000 71.200 C 131.489 70.757,131.154 70.312,131.255 70.212 C 131.356 70.111,131.917 70.472,132.502 71.014 C 133.087 71.556,133.798 72.013,134.083 72.028 C 134.367 72.044,134.240 72.211,133.800 72.400 C 133.077 72.711,133.153 72.784,134.367 72.950 C 134.568 72.978,134.868 73.135,135.033 73.300 C 135.198 73.465,136.348 73.600,137.588 73.600 C 147.488 73.600,150.241 60.027,141.113 56.220 C 139.393 55.503,137.795 55.351,138.800 56.000 C 139.245 56.288,139.007 56.389,137.876 56.394 C 136.961 56.398,136.452 56.240,136.600 56.000 C 137.041 55.286,135.793 55.575,133.572 56.700 M198.749 66.281 C 199.104 66.422,198.637 66.911,197.433 67.661 C 194.572 69.441,196.026 70.139,199.673 68.738 C 201.092 68.192,200.208 65.913,198.624 66.032 C 198.391 66.049,198.447 66.161,198.749 66.281 M285.905 80.498 C 285.219 80.727,284.923 81.054,285.065 81.426 C 285.391 82.274,295.200 82.272,295.200 81.424 C 295.200 80.346,288.394 79.669,285.905 80.498 M196.500 80.665 C 195.807 80.944,195.873 82.596,196.600 83.200 C 197.015 83.544,197.200 83.559,197.200 83.249 C 197.200 83.002,196.975 82.777,196.700 82.750 C 195.473 82.627,200.069 82.056,202.500 82.030 C 204.496 82.008,205.200 81.858,205.200 81.456 C 205.200 80.645,198.140 80.003,196.500 80.665 M232.322 80.671 C 231.928 80.775,231.737 81.091,231.865 81.425 C 232.183 82.254,258.800 82.291,258.800 81.463 C 258.800 80.664,235.044 79.954,232.322 80.671 M321.900 80.676 C 321.515 80.776,321.200 81.115,321.200 81.429 C 321.200 81.912,323.288 82.000,334.800 82.000 C 345.915 82.000,348.400 81.902,348.400 81.463 C 348.400 80.661,324.656 79.955,321.900 80.676 M193.600 90.126 C 193.600 90.634,200.415 93.200,201.765 93.200 C 203.698 93.200,202.042 91.966,198.601 90.841 C 194.391 89.465,193.600 89.352,193.600 90.126 M227.828 100.755 C 227.363 101.506,227.746 101.659,238.000 104.805 C 240.310 105.514,244.320 106.792,246.910 107.647 C 251.686 109.221,253.791 109.573,253.516 108.749 C 253.337 108.212,252.314 107.825,245.200 105.602 C 242.230 104.674,238.810 103.590,237.600 103.192 C 229.682 100.590,228.164 100.211,227.828 100.755 M147.600 106.994 C 136.736 112.891,119.035 113.320,106.668 107.984 C 104.651 107.114,102.696 106.401,102.325 106.401 C 100.416 106.398,84.815 111.081,82.582 112.327 C 82.152 112.567,80.927 113.130,79.860 113.577 C 74.367 115.880,63.258 123.584,58.957 128.074 C 51.963 135.373,44.328 149.723,46.134 152.172 C 46.615 152.824,205.832 153.198,206.882 152.549 C 207.732 152.024,206.656 147.534,204.498 142.600 C 202.761 138.627,196.424 129.642,195.542 129.900 C 195.354 129.955,195.245 129.775,195.300 129.500 C 195.355 129.225,195.175 129.045,194.900 129.100 C 194.625 129.155,194.445 128.975,194.500 128.700 C 194.555 128.425,194.375 128.245,194.100 128.300 C 193.825 128.355,193.645 128.175,193.700 127.900 C 193.755 127.625,193.575 127.445,193.300 127.500 C 193.025 127.555,192.845 127.375,192.900 127.100 C 192.955 126.825,192.775 126.645,192.500 126.700 C 192.225 126.755,192.045 126.649,192.100 126.464 C 192.779 124.180,173.606 112.880,163.400 109.548 C 153.279 106.245,149.967 105.709,147.600 106.994 M279.037 117.352 C 279.210 117.803,286.268 120.409,287.300 120.402 C 287.973 120.397,287.538 119.305,286.700 118.897 C 283.553 117.366,278.664 116.379,279.037 117.352 M312.862 127.843 C 312.967 128.393,313.878 128.889,316.203 129.660 C 321.277 131.343,331.630 134.628,333.600 135.179 C 334.590 135.456,335.813 135.845,336.319 136.042 C 337.533 136.515,339.200 136.499,339.200 136.014 C 339.200 135.393,337.816 134.815,332.452 133.196 C 329.673 132.358,325.478 131.027,323.129 130.238 C 320.779 129.450,317.899 128.542,316.729 128.221 C 315.558 127.899,314.177 127.513,313.660 127.361 C 312.883 127.133,312.744 127.217,312.862 127.843 " stroke="none" fill="#1daaab" fill-rule="evenodd"></path><path id="path5" d="M38.355 165.900 C 38.330 166.065,38.285 168.225,38.255 170.700 L 38.200 175.199 127.150 175.200 L 216.100 175.200 215.850 173.950 C 215.713 173.262,215.600 172.037,215.600 171.226 C 215.600 168.081,215.949 168.130,203.364 169.534 C 197.224 170.219,190.040 170.965,187.400 171.192 C 146.430 174.714,74.381 172.217,42.838 166.182 C 39.419 165.527,38.420 165.464,38.355 165.900 M209.000 429.860 C 164.871 439.702,103.258 440.764,50.800 432.588 C 48.710 432.262,45.137 431.609,42.861 431.137 C 37.839 430.096,38.077 429.848,38.263 435.926 L 38.406 440.600 127.118 440.701 L 215.829 440.802 215.669 435.501 C 215.442 427.976,215.859 428.330,209.000 429.860 " stroke="none" fill="#ea4d7d" fill-rule="evenodd"></path><path id="path6" d="M37.452 161.700 C 37.136 162.878,37.129 172.549,37.443 173.367 C 38.142 175.188,38.503 173.750,38.294 169.974 C 38.025 165.079,37.726 165.272,43.884 166.357 C 78.108 172.386,146.659 174.695,187.400 171.192 C 190.040 170.965,197.208 170.220,203.328 169.538 C 215.916 168.134,215.264 168.029,215.638 171.517 C 215.800 173.030,215.902 171.770,215.941 167.780 C 215.982 163.561,215.856 161.616,215.520 161.280 C 215.150 160.910,194.801 160.800,126.367 160.800 L 37.693 160.800 37.452 161.700 M37.614 427.174 C 36.910 428.490,37.084 438.503,37.827 439.424 C 38.402 440.137,38.437 439.838,38.258 435.772 C 38.000 429.905,37.815 430.091,42.861 431.137 C 45.137 431.609,48.710 432.262,50.800 432.588 C 103.304 440.772,162.103 439.792,208.672 429.958 C 215.732 428.467,215.333 428.206,215.630 434.518 L 215.859 439.400 215.830 433.200 L 215.800 427.000 213.400 426.743 C 206.250 425.979,38.033 426.391,37.614 427.174 " stroke="none" fill="#f28cab" fill-rule="evenodd"></path><path id="path7" d="M325.000 8.269 C 319.082 9.571,318.523 14.608,324.385 13.802 C 328.360 13.255,330.203 10.966,328.245 9.009 C 327.268 8.032,326.683 7.898,325.000 8.269 M327.920 9.280 C 329.727 11.087,326.008 13.835,322.499 13.285 C 321.082 13.063,320.372 10.088,321.714 9.994 C 321.761 9.991,322.520 9.729,323.400 9.412 C 325.376 8.700,327.284 8.644,327.920 9.280 M294.800 15.983 C 293.509 16.396,291.120 17.027,288.600 17.621 C 287.500 17.880,286.060 18.239,285.400 18.419 C 283.949 18.814,281.140 19.534,279.100 20.033 C 272.018 21.766,271.200 22.209,271.200 24.312 C 271.200 26.976,272.985 26.935,284.657 24.003 C 299.311 20.324,299.523 20.253,300.024 18.938 C 301.008 16.348,298.354 14.846,294.800 15.983 M298.711 16.623 C 300.301 17.737,299.532 19.534,297.200 20.153 C 276.737 25.584,273.071 26.322,272.267 25.174 C 270.641 22.854,270.985 22.693,285.400 19.023 C 298.817 15.607,297.579 15.830,298.711 16.623 M357.100 25.365 C 352.196 26.684,352.204 31.215,357.109 30.639 C 360.973 30.185,362.757 28.617,361.924 26.408 C 361.269 24.670,360.389 24.480,357.100 25.365 M361.252 26.723 C 361.751 28.082,360.210 29.459,357.783 29.823 C 355.556 30.157,354.651 29.745,354.479 28.315 C 354.215 26.133,360.494 24.657,361.252 26.723 M245.200 28.620 C 239.597 30.065,238.400 30.738,238.400 32.444 C 238.400 35.190,242.835 35.358,249.276 32.856 C 251.254 32.088,251.839 29.693,250.311 28.623 C 249.239 27.871,248.105 27.871,245.200 28.620 M249.626 28.814 C 250.851 29.470,250.657 31.449,249.300 32.136 C 243.758 34.940,237.132 34.434,239.366 31.378 C 240.248 30.172,248.371 28.142,249.626 28.814 M326.800 33.012 C 325.810 33.294,320.827 34.593,315.727 35.899 C 305.607 38.490,304.400 39.006,304.400 40.747 C 304.400 44.172,306.272 43.951,328.800 37.869 C 332.734 36.806,333.562 36.234,333.587 34.562 C 333.618 32.519,330.795 31.874,326.800 33.012 M331.911 33.423 C 334.092 34.950,332.944 35.989,327.445 37.466 C 311.173 41.834,306.542 42.782,305.680 41.920 C 304.027 40.267,305.524 39.252,312.000 37.638 C 314.750 36.952,320.060 35.590,323.800 34.612 C 331.822 32.513,330.821 32.659,331.911 33.423 M213.483 36.651 C 213.345 36.789,212.550 37.042,211.716 37.214 C 210.360 37.493,199.888 40.157,193.928 41.738 C 189.911 42.805,188.647 44.018,189.633 45.861 C 190.455 47.398,191.954 47.525,196.300 46.429 C 199.186 45.701,201.137 45.215,202.700 44.836 C 207.816 43.596,212.770 42.329,213.828 41.992 C 214.504 41.776,215.335 41.600,215.674 41.600 C 217.808 41.600,219.195 38.443,217.669 37.062 C 216.957 36.418,214.005 36.128,213.483 36.651 M217.500 37.917 C 219.051 39.891,217.779 40.462,204.455 43.778 C 191.558 46.987,190.459 47.086,190.072 45.078 C 189.745 43.378,189.972 43.294,205.400 39.381 C 215.364 36.854,216.551 36.710,217.500 37.917 M106.677 38.789 C 104.268 39.730,103.739 40.168,102.332 42.378 L 101.200 44.157 101.200 70.829 C 101.200 99.650,101.325 98.076,98.998 98.611 C 94.192 99.716,85.953 102.307,82.800 103.706 C 60.970 113.388,46.682 126.208,40.788 141.400 C 39.368 145.061,38.732 146.930,38.211 148.975 C 37.549 151.568,37.283 151.857,35.200 152.256 C 29.796 153.291,29.000 155.261,29.000 167.600 C 29.000 179.964,29.393 180.962,35.000 182.855 C 35.880 183.153,36.732 183.577,36.894 183.798 C 37.435 184.538,37.262 416.978,36.720 417.520 C 36.456 417.784,35.817 418.000,35.300 418.000 C 33.232 418.000,30.521 420.254,29.421 422.887 C 28.681 424.659,28.520 440.776,29.218 443.288 C 29.779 445.310,31.240 446.943,33.393 447.955 L 35.191 448.800 127.060 448.800 L 218.930 448.800 220.565 447.839 C 224.313 445.637,224.800 443.975,224.800 433.400 C 224.800 421.374,224.306 420.302,217.549 417.671 L 216.497 417.261 216.201 389.131 C 215.840 354.935,216.156 184.880,216.582 183.900 C 216.749 183.515,217.281 183.200,217.764 183.200 C 219.153 183.200,222.254 181.003,223.480 179.152 L 224.600 177.461 224.722 168.245 C 224.887 155.730,224.109 153.896,217.834 151.989 C 216.055 151.449,215.785 151.219,215.485 149.989 C 210.073 127.806,191.088 109.960,163.400 101.031 C 161.077 100.282,158.246 99.484,154.150 98.425 C 152.029 97.876,152.008 97.768,151.971 87.050 C 151.946 79.760,151.845 78.436,151.242 77.407 C 150.544 76.216,150.546 76.206,152.371 72.681 C 155.099 67.412,155.241 62.913,152.844 57.797 C 151.595 55.133,151.306 54.149,151.607 53.586 C 152.249 52.388,152.098 44.150,151.410 42.820 C 150.438 40.941,147.822 38.989,145.581 38.471 C 141.790 37.596,109.045 37.864,106.677 38.789 M147.206 39.716 C 151.109 41.780,152.596 46.520,151.240 52.580 C 150.791 54.582,150.827 54.774,152.174 57.631 C 154.702 62.993,154.435 68.298,151.388 73.260 C 149.761 75.910,149.773 75.812,150.791 78.056 C 151.502 79.622,151.583 80.698,151.591 88.624 C 151.602 99.159,151.130 98.267,157.600 99.987 C 187.469 107.928,209.579 127.006,214.625 149.191 C 215.193 151.688,215.383 152.027,216.332 152.236 C 223.278 153.768,224.000 155.215,224.000 167.600 C 224.000 179.230,223.277 181.029,218.004 182.517 C 216.280 183.003,216.188 183.105,215.930 184.813 C 215.588 187.071,215.511 412.234,215.851 415.484 L 216.102 417.886 218.204 418.549 C 223.529 420.227,224.000 421.434,224.000 433.404 C 224.000 443.924,223.974 444.046,221.257 446.501 C 218.985 448.553,224.759 448.444,125.569 448.316 L 34.937 448.200 33.005 447.000 C 29.687 444.940,29.421 444.027,29.276 434.200 C 29.109 422.806,30.108 420.024,34.800 418.822 C 35.790 418.568,36.825 418.285,37.101 418.193 C 37.500 418.058,37.581 394.325,37.501 300.529 L 37.400 183.034 35.058 182.205 C 30.015 180.418,29.205 178.409,29.202 167.677 C 29.199 156.512,30.008 154.488,35.090 152.947 C 38.178 152.011,38.197 151.990,38.955 148.873 C 44.441 126.299,67.571 106.854,97.587 99.581 C 102.072 98.495,101.556 102.151,101.689 70.534 L 101.800 44.068 103.000 42.365 C 103.684 41.393,104.974 40.265,106.000 39.742 L 107.800 38.823 126.637 38.811 L 145.474 38.800 147.206 39.716 M278.200 45.401 C 272.261 46.952,270.701 48.066,271.859 49.931 C 273.276 52.214,282.391 50.905,284.189 48.160 C 285.116 46.746,283.465 44.032,281.920 44.431 C 281.854 44.448,280.180 44.885,278.200 45.401 M283.524 46.918 C 283.819 49.368,274.029 51.897,272.842 49.678 C 272.107 48.306,273.192 47.565,277.634 46.403 C 282.208 45.207,283.330 45.305,283.524 46.918 M164.600 49.190 C 160.614 50.215,159.307 52.107,161.245 54.045 C 162.732 55.532,168.183 54.272,169.115 52.227 C 170.243 49.750,168.080 48.296,164.600 49.190 M167.911 49.823 C 170.457 51.606,165.309 55.320,162.335 53.845 C 159.561 52.470,161.892 50.070,166.811 49.236 C 166.927 49.216,167.422 49.480,167.911 49.823 M236.200 56.166 C 224.131 59.263,223.353 59.545,222.791 61.024 L 222.420 62.000 210.299 62.000 C 196.689 62.000,196.400 62.054,196.400 64.595 C 196.400 65.633,196.128 66.139,195.224 66.783 C 193.703 67.866,193.364 68.980,194.176 70.220 C 195.488 72.222,201.639 71.000,202.800 68.506 L 203.400 67.217 214.700 67.209 C 226.940 67.199,227.600 67.079,227.600 64.849 C 227.600 63.618,227.964 63.450,234.200 61.800 C 235.520 61.450,237.320 61.008,238.200 60.817 C 239.634 60.506,241.488 60.054,246.600 58.769 C 250.691 57.740,252.415 56.262,251.492 54.574 C 250.434 52.640,249.606 52.726,236.200 56.166 M250.726 55.294 C 250.830 56.200,250.624 56.491,249.526 56.988 C 248.533 57.437,228.051 62.800,227.328 62.800 C 227.258 62.800,227.200 63.306,227.200 63.924 C 227.200 66.602,227.304 66.579,214.365 66.800 L 202.664 67.000 202.004 68.192 C 201.285 69.490,197.360 71.032,195.930 70.578 C 194.312 70.064,194.245 68.850,195.759 67.463 C 196.793 66.516,197.111 65.945,196.949 65.326 C 196.297 62.831,196.454 62.800,209.588 62.800 C 221.406 62.800,223.600 62.590,223.600 61.459 C 223.600 60.328,225.081 59.795,236.130 56.953 C 248.586 53.750,250.523 53.530,250.726 55.294 M161.289 62.623 C 160.168 63.408,160.081 65.587,161.131 66.538 C 163.493 68.675,174.400 67.082,174.400 64.601 C 174.400 62.207,164.101 60.653,161.289 62.623 M250.889 62.623 C 250.268 63.058,250.000 63.654,250.000 64.600 C 250.000 66.838,250.956 67.202,256.789 67.187 C 262.655 67.172,264.315 66.328,263.361 63.842 C 262.654 62.001,253.108 61.068,250.889 62.623 M286.662 62.731 C 285.691 63.804,285.810 65.822,286.889 66.577 C 288.433 67.659,315.303 67.497,316.400 66.400 C 317.631 65.169,317.431 63.729,315.900 62.796 C 313.965 61.616,287.723 61.559,286.662 62.731 M172.993 63.450 C 173.884 64.341,173.604 65.677,172.400 66.284 C 171.201 66.889,163.728 66.981,162.226 66.410 C 161.100 65.982,160.705 63.467,161.700 63.065 C 163.105 62.498,172.356 62.813,172.993 63.450 M262.171 63.429 C 264.208 65.465,262.215 66.800,257.137 66.800 C 251.362 66.800,248.975 65.482,251.029 63.429 C 251.948 62.510,261.252 62.510,262.171 63.429 M316.006 63.525 C 317.124 64.430,316.792 65.871,315.340 66.423 C 313.911 66.966,289.635 66.910,288.057 66.360 C 286.641 65.866,286.004 64.359,286.804 63.395 C 287.632 62.397,314.763 62.518,316.006 63.525 M158.662 71.531 C 157.679 72.617,157.806 74.659,158.900 75.353 C 162.227 77.465,169.795 79.011,170.812 77.786 C 172.353 75.929,170.977 73.757,167.676 72.838 C 166.644 72.551,164.798 71.975,163.573 71.558 C 160.780 70.607,159.505 70.600,158.662 71.531 M165.453 72.793 C 169.897 74.153,171.041 74.987,170.641 76.578 C 169.981 79.207,158.441 76.115,158.406 73.300 C 158.396 72.481,159.988 71.144,160.720 71.356 C 161.094 71.464,163.224 72.111,165.453 72.793 M285.200 78.660 C 283.107 79.512,282.548 81.762,284.075 83.184 C 286.532 85.473,297.200 84.059,297.200 81.444 C 297.200 79.034,288.971 77.125,285.200 78.660 M194.730 79.500 C 193.884 80.496,192.000 83.861,192.000 84.375 C 192.000 85.032,194.094 87.078,195.000 87.306 C 195.488 87.429,195.239 87.525,194.362 87.554 C 191.803 87.636,190.418 90.939,192.479 92.042 C 193.875 92.789,201.180 95.200,202.048 95.200 C 202.932 95.200,204.800 93.515,204.800 92.718 C 204.799 91.893,202.980 90.003,202.153 89.968 C 201.674 89.948,201.594 89.859,201.934 89.724 C 202.481 89.506,204.402 90.033,213.200 92.817 C 220.090 94.997,220.537 95.063,221.558 94.042 C 223.788 91.812,222.282 90.307,215.721 88.207 C 207.310 85.515,206.218 85.146,205.000 84.578 C 204.222 84.215,204.051 84.015,204.514 84.009 C 207.149 83.975,208.264 80.571,206.020 79.410 C 204.202 78.470,195.546 78.539,194.730 79.500 M230.400 79.600 C 229.284 80.716,229.387 82.175,230.654 83.171 C 231.674 83.973,232.153 84.000,245.472 84.000 L 259.236 84.000 260.218 83.018 C 260.758 82.478,261.200 81.750,261.200 81.400 C 261.200 81.050,260.758 80.322,260.218 79.782 L 259.236 78.800 245.218 78.800 C 231.733 78.800,231.170 78.830,230.400 79.600 M319.656 79.819 C 319.007 80.645,318.929 81.052,319.247 81.964 C 319.926 83.912,320.611 84.000,335.033 84.000 C 349.783 84.000,350.407 83.905,350.394 81.654 C 350.378 78.880,349.925 78.800,334.255 78.800 L 320.458 78.800 319.656 79.819 M295.200 79.716 C 296.318 80.280,296.712 81.742,295.982 82.622 C 295.401 83.321,286.030 83.458,284.774 82.786 C 283.724 82.224,283.788 80.594,284.889 79.823 C 286.023 79.028,293.679 78.949,295.200 79.716 M205.626 80.014 C 207.830 81.193,206.074 83.200,202.839 83.200 C 199.716 83.200,200.630 84.012,205.509 85.572 C 222.010 90.847,221.600 90.679,221.600 92.169 C 221.600 94.846,220.396 94.623,201.000 88.355 C 199.020 87.715,196.770 86.994,196.000 86.752 C 193.192 85.872,191.736 83.905,193.216 82.990 C 193.445 82.849,194.077 82.028,194.621 81.166 L 195.610 79.600 200.231 79.600 C 202.773 79.600,205.201 79.786,205.626 80.014 M259.511 80.223 C 260.000 80.565,260.400 81.095,260.400 81.400 C 260.400 83.060,259.234 83.200,245.355 83.200 C 230.454 83.200,229.610 83.053,230.706 80.647 L 231.183 79.600 244.902 79.600 C 256.672 79.600,258.748 79.688,259.511 80.223 M348.826 80.014 C 349.265 80.249,349.600 80.849,349.600 81.400 C 349.600 83.101,348.782 83.200,334.655 83.200 C 323.008 83.200,321.175 83.118,320.629 82.571 C 319.880 81.823,319.816 80.744,320.480 80.080 C 321.108 79.452,347.661 79.391,348.826 80.014 M198.300 88.276 C 197.915 88.376,197.285 88.376,196.900 88.276 C 196.515 88.175,196.830 88.093,197.600 88.093 C 198.370 88.093,198.685 88.175,198.300 88.276 M198.317 89.617 C 203.737 91.353,204.856 92.287,203.336 93.807 C 202.143 94.999,192.981 92.250,192.354 90.511 C 191.536 88.240,193.226 87.986,198.317 89.617 M244.304 98.500 C 242.730 99.713,243.850 103.148,245.847 103.232 C 246.345 103.252,246.415 103.337,246.054 103.480 C 245.522 103.692,244.558 103.453,240.000 101.983 C 227.635 97.996,226.119 97.802,225.667 100.145 C 225.181 102.670,226.071 103.171,236.800 106.409 C 238.450 106.907,242.483 108.189,245.761 109.257 C 252.723 111.526,254.463 111.687,255.467 110.154 C 256.344 108.816,255.674 107.445,253.606 106.343 L 252.212 105.600 253.506 105.600 C 258.332 105.600,256.920 101.180,251.600 99.630 C 249.950 99.149,248.187 98.585,247.681 98.378 C 246.414 97.857,245.076 97.905,244.304 98.500 M250.858 100.018 C 255.225 101.365,256.460 102.393,255.614 103.973 C 254.540 105.981,244.000 102.755,244.000 100.418 C 244.000 98.481,245.580 98.389,250.858 100.018 M241.200 103.199 C 254.382 107.366,255.669 107.976,254.780 109.637 C 254.151 110.812,252.544 110.596,245.869 108.439 C 242.531 107.360,237.139 105.653,233.886 104.646 C 226.877 102.474,226.400 102.246,226.400 101.066 C 226.400 98.517,226.381 98.515,241.200 103.199 M278.182 109.782 C 277.642 110.322,277.200 110.976,277.200 111.235 C 277.200 112.071,280.017 114.400,281.028 114.400 C 281.563 114.400,282.000 114.580,282.000 114.800 C 282.000 115.020,282.585 115.227,283.300 115.260 C 284.579 115.319,284.581 115.323,283.451 115.491 C 282.819 115.585,282.108 115.468,281.871 115.231 C 280.475 113.835,276.800 115.201,276.800 117.116 C 276.800 118.915,283.493 122.000,287.396 122.000 C 290.302 122.000,290.720 118.694,287.988 117.312 L 287.000 116.812 288.125 116.806 C 288.744 116.803,291.444 117.524,294.125 118.409 C 303.140 121.384,303.900 121.600,305.338 121.600 C 306.858 121.600,307.600 120.821,307.600 119.226 C 307.600 117.786,306.250 116.962,301.361 115.418 C 298.742 114.591,294.530 113.240,292.000 112.416 C 279.149 108.228,279.642 108.322,278.182 109.782 M283.600 110.397 C 284.150 110.578,287.570 111.669,291.200 112.822 C 306.964 117.829,307.720 118.179,306.974 120.123 C 306.440 121.516,304.947 121.300,296.529 118.616 C 291.948 117.155,286.458 115.408,284.328 114.733 C 278.161 112.778,276.421 111.104,279.150 109.748 C 280.085 109.284,280.312 109.317,283.600 110.397 M283.991 116.797 C 288.173 118.088,289.673 119.156,288.943 120.323 C 287.785 122.173,277.600 119.399,277.600 117.234 C 277.600 115.306,278.876 115.219,283.991 116.797 M311.500 126.007 C 309.379 127.317,310.933 129.875,314.600 131.111 C 317.268 132.010,330.628 136.254,335.029 137.601 C 339.677 139.023,342.381 137.754,340.785 134.900 C 340.097 133.670,340.132 133.684,328.400 129.982 C 324.110 128.628,319.520 127.169,318.200 126.739 C 315.167 125.751,312.403 125.449,311.500 126.007 M318.677 127.736 C 340.923 134.613,341.966 135.074,339.920 137.120 C 338.992 138.048,338.300 137.882,323.400 133.147 C 311.105 129.240,311.281 129.327,311.763 127.405 C 312.109 126.026,313.334 126.085,318.677 127.736 M46.580 269.000 C 46.580 276.700,46.634 279.793,46.699 275.874 C 46.765 271.955,46.765 265.655,46.699 261.874 C 46.634 258.093,46.580 261.300,46.580 269.000 M145.832 370.113 C 148.668 370.360,158.894 370.363,174.232 370.121 L 198.200 369.743 169.800 369.735 C 148.810 369.729,142.556 369.828,145.832 370.113 " stroke="none" fill="#ccd1d2" fill-rule="evenodd"></path></g></svg>