<svg xmlns="http://www.w3.org/2000/svg" xmlns:xlink="http://www.w3.org/1999/xlink" data-name="Layer 1" viewBox="0 0 817.61 595.07"><defs><linearGradient id="a" x1="380.87" x2="382.9" y1="393.72" y2="538.49" gradientUnits="userSpaceOnUse"><stop offset=".01"/><stop offset=".97" stop-color="#3f3d56" stop-opacity="0"/></linearGradient><linearGradient id="c" x1="412.6" x2="384.26" y1="420.1" y2="-88.1" gradientUnits="userSpaceOnUse"><stop offset=".03" stop-color="#fff" stop-opacity="0"/><stop offset="1" stop-color="#fff"/></linearGradient><linearGradient id="e" x1="892.24" x2="317.43" y1="-446.43" y2="572.36" xlink:href="#a"/><linearGradient id="b" x1="564.32" x2="656.37" y1="435.83" y2="435.83" gradientUnits="userSpaceOnUse"><stop offset="0" stop-color="#183866"/><stop offset="1" stop-color="#1a7fc1"/></linearGradient><linearGradient id="f" x1="587.95" x2="613.07" y1="422.82" y2="422.82" xlink:href="#b"/><linearGradient id="g" x1="386.4" x2="384.96" y1="499.36" y2="547.01" xlink:href="#a"/><linearGradient id="h" x1="260.64" x2="-1.02" y1="231.56" y2="237.57" xlink:href="#c"/><linearGradient id="i" x1="323.54" x2="285.07" y1="130.98" y2="171.48" xlink:href="#c"/><linearGradient id="j" x1="196" x2="257.75" y1="204.56" y2="361.47" xlink:href="#c"/><linearGradient id="k" x1="455.64" x2="549" y1="106.36" y2="319.42" gradientUnits="userSpaceOnUse"><stop offset="0" stop-color="#68e1fd"/><stop offset="1" stop-color="#fff"/></linearGradient><linearGradient id="l" x1="402.14" x2="405.17" y1="90.31" y2="335.3" xlink:href="#c"/><linearGradient id="m" x1="403.92" x2="406.96" y1="256.49" y2="501.48" gradientUnits="userSpaceOnUse"><stop offset=".03" stop-color="#fff" stop-opacity="0"/><stop offset=".45" stop-color="#fff" stop-opacity=".45"/><stop offset="1" stop-color="#fff"/></linearGradient><linearGradient id="n" x1="403.65" x2="406.69" y1="256.49" y2="501.48" xlink:href="#c"/><linearGradient id="d" x1="630" x2="666.85" y1="364.18" y2="364.18" gradientUnits="userSpaceOnUse"><stop offset="0" stop-color="#ecc4d7"/><stop offset=".16" stop-color="#edcbd5"/><stop offset=".42" stop-color="#efd4d1"/><stop offset=".7" stop-color="#f2eac9"/></linearGradient><linearGradient id="o" x1="562.76" x2="636.33" y1="458.48" y2="445.79" xlink:href="#a"/><linearGradient id="p" x1="581.37" x2="589.42" y1="418.6" y2="418.6" xlink:href="#d"/></defs><rect width="102.53" height="8.71" x="561.12" y="586.36" fill="#1d2741" opacity=".18" rx="3.85"/>
<path fill="#68e1fd" d="M294.42 402.55h175.05v136.14H294.42z"/>
<path fill="url(#a)" style="isolation:isolate" d="M294.42 402.55h175.05v136.14H294.42z"/>
<path fill="#68e1fd" d="M745.1 92.7v347.57a47.64 47.64 0 0 1-47.64 47.64H95.7a47.65 47.65 0 0 1-47.65-47.64V92.7A47.64 47.64 0 0 1 95.7 45.06h601.76A47.63 47.63 0 0 1 745.1 92.7Z"/>
<path fill="url(#c)" d="M748.3 91.43V439a47.64 47.64 0 0 1-47.64 47.64H98.9a47.45 47.45 0 0 1-29-9.81 47.39 47.39 0 0 1-9.81-29V100.3a47.64 47.64 0 0 1 47.64-47.64h601.81a47.36 47.36 0 0 1 29 9.81 47.45 47.45 0 0 1 9.76 28.96Z" transform="translate(-3.2 1.27)" style="isolation:isolate"/>
<path fill="url(#e)" d="M748.3 401.28V439a47.64 47.64 0 0 1-47.64 47.64H98.9A47.64 47.64 0 0 1 51.25 439v-37.72Z" transform="translate(-3.2 1.27)" style="isolation:isolate"/>
<path fill="url(#b)" d="M656.35 427a144.14 144.14 0 0 1-4.72 38.5c-1.7 6.46-3.92 13-8.08 18.19a24.2 24.2 0 0 1-2.82 3h-68.27c2.77-12 6.64-27.06 5.28-28.83-6.18-8.08-8.54-18.37-10.68-28.32-1.79-8.33-3.53-16.88-2.36-25.33.14-1 .31-2 .51-2.89 2.91-13.34 24.74-16.13 34.12-16.26l8 16.26c0 7.86 33.84-20.89 39.77-14.58 3.4 3.62 5.54 8.85 6.89 14.58 2.01 8.68 2.27 18.59 2.36 25.68Z" opacity=".33" transform="translate(-3.2 1.27)"/>
<path fill="#fff" d="m582.88 418.37-10.68-22.92a63.63 63.63 0 0 1 23.93-9.18 3.53 3.53 0 0 1 2.47.21 3.58 3.58 0 0 1 1.12 1.48c4.38 8.54 8.76 17.09 12.27 26 1.64 4.16 3.09 8.75 1.76 13-1.63 5.22-6.86 8.32-11.68 10.9-15.27 8.25-14.6-9.59-19.19-19.49Z"/>
<path fill="url(#f)" d="M608.28 410.85c-3.18 5.26-5.27 11.1-8.17 16.52-.49.91-1.23 1.95-2.26 1.84a2.55 2.55 0 0 1-1.18-.54 62.08 62.08 0 0 1-8.72-7.21c0 5.89 3.59 11.11 7 15.92a2.61 2.61 0 0 0 .89.89 2.38 2.38 0 0 0 1 .17 21.8 21.8 0 0 0 11.32-3.08 1.3 1.3 0 0 0 .54-.47 1.43 1.43 0 0 0 .12-.74c-.11-5.75-.67-11.75 1.59-17 .69-1.62 1.64-3.13 2.19-4.81.36-1.11 1.08-4.67-.7-5.06-1.38-.35-3.04 2.61-3.62 3.57Z" opacity=".09" transform="translate(-3.2 1.27)"/>
<path fill="#68e1fd" d="M530.95 542.2a12.19 12.19 0 0 1-.84 4.49 12.45 12.45 0 0 1-11.65 8h-273a12.48 12.48 0 0 1-11.65-8 12.19 12.19 0 0 1-.84-4.49 12.48 12.48 0 0 1 12.49-12.49h273a12.49 12.49 0 0 1 12.49 12.49Z"/>
<path fill="url(#g)" d="M534.15 540.93a12.19 12.19 0 0 1-.84 4.49 12.45 12.45 0 0 1-11.65 8h-273a12.48 12.48 0 0 1-11.65-8 12.19 12.19 0 0 1-.84-4.49 12.48 12.48 0 0 1 12.49-12.49h273a12.49 12.49 0 0 1 12.49 12.49Z" transform="translate(-3.2 1.27)" style="isolation:isolate"/>

</svg>