<svg id="svg" version="1.1" xmlns="http://www.w3.org/2000/svg" xmlns:xlink="http://www.w3.org/1999/xlink" width="40000000" height="33000000.3754266211604" viewBox="0, 0, 400,330.3754266211604"><g id="svgg"><path id="path1" d="M118.017 15.235 C 117.017 15.400,114.339 15.735,112.065 15.981 C 109.705 16.236,107.479 16.662,106.875 16.974 C 106.294 17.275,105.322 17.521,104.717 17.521 C 104.111 17.521,102.802 17.743,101.808 18.014 C 100.813 18.285,99.258 18.677,98.350 18.885 C 97.443 19.092,96.402 19.449,96.036 19.678 C 95.671 19.907,94.669 20.193,93.809 20.314 C 92.950 20.435,92.167 20.663,92.069 20.821 C 91.972 20.979,91.336 21.283,90.657 21.496 C 88.265 22.245,85.118 23.548,84.602 24.003 C 84.315 24.256,83.768 24.463,83.386 24.463 C 83.004 24.463,82.495 24.651,82.255 24.881 C 81.702 25.410,78.404 27.107,77.929 27.107 C 77.733 27.107,77.333 27.325,77.039 27.590 C 76.746 27.856,75.618 28.544,74.534 29.120 C 73.449 29.695,72.443 30.371,72.298 30.620 C 72.152 30.870,71.866 31.074,71.661 31.074 C 71.118 31.074,66.737 34.098,66.542 34.608 C 66.450 34.846,66.206 35.045,65.998 35.051 C 64.338 35.091,51.163 47.783,47.043 53.311 C 46.533 53.995,45.190 55.761,44.059 57.235 C 42.928 58.709,41.914 60.195,41.805 60.536 C 41.697 60.878,41.466 61.157,41.292 61.157 C 41.118 61.157,40.827 61.492,40.646 61.901 C 40.465 62.310,39.881 63.314,39.347 64.132 C 38.814 64.950,37.837 66.548,37.178 67.683 C 36.519 68.818,35.854 69.824,35.701 69.918 C 35.548 70.013,35.325 70.535,35.206 71.078 C 35.086 71.622,34.867 72.066,34.719 72.066 C 34.571 72.066,33.982 73.070,33.410 74.298 C 32.838 75.525,32.227 76.752,32.051 77.025 C 31.875 77.298,31.567 77.893,31.367 78.347 C 31.167 78.802,30.870 79.397,30.706 79.669 C 30.542 79.942,30.248 80.537,30.053 80.992 C 29.857 81.446,29.412 82.368,29.064 83.041 C 28.715 83.713,28.430 84.548,28.430 84.897 C 28.430 85.245,28.141 85.897,27.789 86.345 C 27.437 86.793,27.041 87.594,26.910 88.125 C 26.779 88.656,26.489 89.388,26.266 89.752 C 26.042 90.116,25.764 90.956,25.648 91.620 C 25.532 92.283,25.229 92.998,24.976 93.209 C 24.722 93.420,24.412 94.215,24.286 94.978 C 24.160 95.740,23.925 96.528,23.763 96.730 C 23.290 97.317,22.128 100.835,21.754 102.810 C 21.565 103.810,21.200 104.868,20.943 105.161 C 20.686 105.454,20.337 106.495,20.166 107.475 C 19.996 108.455,19.635 109.851,19.364 110.579 C 19.094 111.306,18.865 112.273,18.855 112.727 C 18.846 113.182,18.606 114.000,18.321 114.545 C 18.037 115.091,17.673 116.684,17.513 118.087 C 17.353 119.489,17.007 120.976,16.745 121.392 C 16.483 121.808,16.164 123.032,16.037 124.111 C 15.909 125.190,15.658 126.454,15.479 126.921 C 15.300 127.387,15.009 129.167,14.832 130.876 C 14.656 132.585,14.297 134.397,14.036 134.903 C 13.767 135.422,13.472 137.308,13.357 139.234 C 13.246 141.110,12.955 143.463,12.711 144.463 C 12.467 145.463,12.176 147.620,12.063 149.256 C 11.950 150.893,11.609 153.496,11.305 155.041 C 10.469 159.297,10.464 197.682,11.300 200.165 C 11.606 201.074,11.958 202.636,12.082 203.636 C 12.207 204.636,12.494 205.826,12.720 206.281 C 12.946 206.736,13.231 207.994,13.353 209.077 C 13.476 210.160,13.781 211.276,14.033 211.556 C 14.284 211.837,14.642 212.810,14.828 213.719 C 15.230 215.685,16.268 218.626,16.775 219.237 C 16.974 219.477,17.231 220.119,17.346 220.663 C 17.461 221.207,17.825 222.248,18.154 222.975 C 19.641 226.260,20.283 227.639,20.537 228.099 C 20.688 228.372,21.349 229.636,22.005 230.909 C 22.661 232.182,23.391 233.446,23.626 233.719 C 23.861 233.992,24.164 234.587,24.298 235.041 C 24.431 235.496,24.771 236.129,25.051 236.449 C 25.573 237.043,25.816 237.427,26.904 239.378 C 27.247 239.993,27.731 240.615,27.979 240.760 C 28.227 240.906,28.430 241.192,28.430 241.396 C 28.430 241.863,34.477 250.009,36.042 251.650 C 36.310 251.931,37.347 253.092,38.347 254.230 C 40.956 257.198,47.381 263.631,50.053 265.951 C 51.310 267.041,52.649 268.231,53.028 268.595 C 53.407 268.959,54.611 269.962,55.702 270.826 C 56.793 271.689,58.002 272.656,58.387 272.975 C 58.773 273.293,59.422 273.777,59.830 274.050 C 60.556 274.535,61.217 275.021,64.330 277.355 C 65.179 277.992,66.288 278.736,66.794 279.008 C 67.300 279.281,68.855 280.285,70.249 281.240 C 71.642 282.194,72.866 282.975,72.969 282.975 C 73.071 282.975,73.950 283.503,74.921 284.148 C 75.893 284.793,77.173 285.547,77.765 285.823 C 78.358 286.100,79.438 286.687,80.165 287.128 C 80.893 287.569,81.934 288.156,82.479 288.432 C 83.025 288.709,83.694 289.064,83.967 289.221 C 84.240 289.378,84.983 289.747,85.620 290.040 C 86.256 290.334,87.000 290.706,87.273 290.866 C 88.650 291.677,93.501 293.898,94.284 294.076 C 94.777 294.188,95.353 294.488,95.564 294.743 C 95.776 294.998,96.116 295.212,96.321 295.218 C 96.526 295.224,97.289 295.516,98.017 295.868 C 98.744 296.219,99.517 296.512,99.735 296.518 C 99.952 296.524,100.830 296.901,101.685 297.355 C 102.540 297.810,103.552 298.187,103.934 298.192 C 104.316 298.198,104.917 298.421,105.270 298.688 C 105.623 298.955,106.146 299.174,106.432 299.174 C 106.718 299.174,107.471 299.452,108.106 299.792 C 108.740 300.132,109.928 300.518,110.746 300.650 C 111.563 300.782,112.579 301.110,113.003 301.380 C 113.755 301.857,115.350 302.372,118.958 303.302 C 119.930 303.552,121.195 303.972,121.768 304.235 C 122.341 304.498,123.581 304.810,124.524 304.927 C 125.467 305.045,126.657 305.359,127.169 305.626 C 127.681 305.893,128.471 306.119,128.926 306.128 C 129.380 306.137,130.347 306.365,131.074 306.634 C 131.802 306.902,133.543 307.261,134.944 307.429 C 136.345 307.598,137.914 307.955,138.432 308.223 C 138.949 308.490,140.786 308.867,142.513 309.059 C 144.239 309.252,146.091 309.549,146.628 309.719 C 147.164 309.890,148.645 310.122,149.917 310.236 C 151.190 310.350,153.050 310.646,154.050 310.894 C 155.050 311.142,158.025 311.443,160.661 311.564 C 163.298 311.684,166.793 312.002,168.430 312.270 C 174.883 313.327,200.101 313.177,203.989 312.059 C 204.613 311.879,207.281 311.641,209.917 311.530 C 212.554 311.419,216.172 311.048,217.958 310.705 C 219.744 310.363,221.610 310.083,222.104 310.083 C 222.597 310.083,223.814 309.871,224.807 309.613 C 225.799 309.355,228.002 308.989,229.703 308.800 C 231.403 308.611,232.985 308.297,233.219 308.102 C 233.454 307.908,234.889 307.534,236.410 307.271 C 239.433 306.748,241.355 306.292,243.636 305.555 C 244.455 305.291,246.091 304.880,247.273 304.640 C 248.455 304.401,250.017 303.982,250.744 303.709 C 252.632 303.000,256.623 301.808,257.089 301.813 C 257.305 301.816,257.975 301.537,258.576 301.194 C 259.177 300.850,260.221 300.473,260.895 300.355 C 262.135 300.138,264.561 299.206,266.167 298.330 C 266.649 298.067,267.317 297.851,267.650 297.851 C 267.983 297.851,269.001 297.492,269.913 297.053 C 270.824 296.614,272.463 295.914,273.554 295.498 C 274.645 295.082,275.760 294.568,276.033 294.355 C 276.306 294.142,277.124 293.782,277.851 293.554 C 278.579 293.326,279.397 292.962,279.669 292.744 C 279.942 292.527,281.132 291.931,282.314 291.421 C 283.496 290.910,284.686 290.307,284.959 290.079 C 285.231 289.851,285.812 289.556,286.249 289.422 C 286.685 289.289,287.775 288.748,288.669 288.221 C 289.564 287.693,290.769 287.039,291.346 286.767 C 291.924 286.496,293.587 285.541,295.041 284.646 C 296.496 283.751,298.504 282.535,299.504 281.944 C 300.504 281.353,301.397 280.771,301.488 280.650 C 301.579 280.529,302.025 280.235,302.479 279.998 C 302.934 279.761,303.901 279.092,304.628 278.512 C 305.355 277.932,306.174 277.358,306.446 277.235 C 307.618 276.710,317.162 269.291,319.370 267.189 C 320.398 266.211,321.518 265.212,321.859 264.970 C 323.871 263.544,332.100 254.890,335.703 250.413 C 336.580 249.322,337.468 248.281,337.675 248.099 C 337.882 247.917,338.482 247.099,339.008 246.281 C 339.535 245.463,340.124 244.645,340.318 244.463 C 340.861 243.954,345.124 237.501,345.124 237.188 C 345.124 237.036,345.361 236.650,345.650 236.330 C 346.247 235.671,346.527 235.170,349.170 230.040 C 350.214 228.014,351.192 226.191,351.344 225.988 C 351.496 225.786,351.795 225.005,352.010 224.254 C 352.224 223.503,352.622 222.704,352.894 222.478 C 353.166 222.252,353.388 221.829,353.388 221.536 C 353.388 220.892,354.536 217.814,355.403 216.133 C 355.749 215.460,356.038 214.419,356.044 213.819 C 356.050 213.218,356.343 212.132,356.694 211.405 C 357.046 210.678,357.338 209.828,357.344 209.516 C 357.350 209.204,357.585 208.271,357.866 207.444 C 358.147 206.616,358.512 204.758,358.677 203.315 C 358.841 201.872,359.239 200.201,359.560 199.602 C 360.450 197.940,360.473 173.179,359.585 171.873 C 359.265 171.403,358.869 169.946,358.705 168.636 C 358.540 167.326,358.257 166.074,358.075 165.854 C 357.894 165.634,357.641 164.860,357.513 164.132 C 357.386 163.405,357.071 162.474,356.813 162.064 C 356.556 161.654,356.200 160.549,356.021 159.608 C 355.843 158.667,355.475 157.652,355.204 157.352 C 354.933 157.053,354.711 156.612,354.711 156.374 C 354.711 156.135,354.393 155.254,354.006 154.416 C 353.618 153.578,352.935 152.074,352.489 151.074 C 352.042 150.074,351.541 149.033,351.375 148.760 C 351.209 148.488,350.542 147.223,349.894 145.950 C 349.245 144.678,348.390 143.092,347.994 142.426 C 347.597 141.761,346.784 140.347,346.187 139.286 C 344.855 136.918,344.874 136.949,343.554 135.059 C 342.963 134.213,342.479 133.429,342.479 133.317 C 342.479 133.205,342.251 132.878,341.971 132.590 C 341.692 132.302,340.985 131.323,340.401 130.415 C 339.817 129.507,339.116 128.518,338.843 128.217 C 338.570 127.916,337.975 127.131,337.521 126.471 C 333.361 120.437,322.214 107.605,315.420 101.030 C 314.083 99.736,312.447 98.149,311.784 97.504 C 310.549 96.301,304.212 90.539,302.167 88.760 C 301.540 88.215,300.350 87.163,299.522 86.423 C 298.694 85.682,295.934 83.409,293.388 81.370 C 290.843 79.331,288.443 77.408,288.055 77.096 C 287.667 76.784,286.935 76.231,286.430 75.868 C 285.924 75.504,285.349 75.048,285.152 74.854 C 284.955 74.660,284.347 74.215,283.802 73.865 C 283.256 73.515,282.661 73.114,282.479 72.974 C 282.298 72.834,281.554 72.258,280.826 71.695 C 280.099 71.131,278.612 70.065,277.521 69.327 C 276.430 68.588,275.463 67.883,275.372 67.760 C 275.281 67.637,274.835 67.344,274.380 67.109 C 273.926 66.874,272.975 66.227,272.267 65.672 C 271.560 65.118,270.574 64.433,270.076 64.150 C 269.578 63.868,267.238 62.348,264.875 60.774 C 262.512 59.199,260.151 57.670,259.628 57.375 C 259.105 57.081,257.636 56.180,256.364 55.374 C 255.091 54.569,253.492 53.664,252.810 53.365 C 252.128 53.066,251.570 52.719,251.570 52.594 C 251.570 52.469,250.607 51.873,249.430 51.269 C 248.253 50.666,247.119 49.966,246.910 49.714 C 246.702 49.462,246.271 49.256,245.955 49.256 C 245.638 49.256,245.024 48.986,244.590 48.656 C 244.156 48.326,243.207 47.752,242.479 47.381 C 241.752 47.010,239.744 45.957,238.017 45.043 C 236.289 44.128,234.355 43.114,233.719 42.791 C 233.083 42.467,232.264 42.050,231.901 41.865 C 230.933 41.371,229.264 40.573,226.281 39.178 C 224.826 38.498,222.594 37.438,221.319 36.822 C 220.045 36.206,218.870 35.702,218.708 35.702 C 218.546 35.702,217.655 35.337,216.727 34.891 C 213.719 33.444,208.772 31.405,208.264 31.404 C 207.991 31.403,207.300 31.117,206.726 30.767 C 206.153 30.417,205.186 29.979,204.578 29.793 C 202.215 29.071,199.559 28.089,199.209 27.808 C 199.008 27.647,198.174 27.359,197.355 27.168 C 196.537 26.978,194.826 26.424,193.554 25.937 C 192.281 25.450,190.396 24.861,189.364 24.628 C 188.332 24.395,187.146 23.965,186.728 23.673 C 186.310 23.380,185.667 23.141,185.298 23.142 C 184.572 23.143,180.763 22.120,177.851 21.142 C 176.851 20.807,175.215 20.432,174.215 20.310 C 173.215 20.189,172.143 19.956,171.834 19.793 C 170.975 19.342,165.138 18.152,161.983 17.785 C 160.438 17.605,158.653 17.238,158.017 16.970 C 157.380 16.702,154.926 16.341,152.562 16.167 C 150.198 15.993,147.669 15.689,146.942 15.491 C 145.271 15.035,120.556 14.816,118.017 15.235 " stroke="none" fill="#046f4e" fill-rule="evenodd"></path></g></svg>