<svg id="svg" version="1.1" xmlns="http://www.w3.org/2000/svg" xmlns:xlink="http://www.w3.org/1999/xlink" width="400" height="181.05263157894737" viewBox="0, 0, 400,181.05263157894737"><g id="svgg"><path id="path0" d="M4.260 3.093 C 4.146 5.765,4.371 12.144,4.627 13.501 C 4.753 14.169,5.513 15.113,6.191 15.446 C 6.829 15.758,12.445 15.771,146.886 15.757 C 252.262 15.746,287.701 15.795,290.086 15.955 C 292.769 16.135,293.664 16.124,295.920 15.884 C 300.546 15.392,300.369 15.747,300.469 6.745 L 300.544 -0.000 300.031 0.000 C 299.346 0.000,299.342 0.033,299.243 6.700 C 299.157 12.487,299.049 13.362,298.360 13.813 C 297.449 14.410,295.184 14.752,292.440 14.708 C 290.996 14.684,226.898 14.627,149.999 14.580 C 5.398 14.491,6.914 14.500,6.240 13.716 C 5.703 13.092,5.347 7.181,5.589 2.897 C 5.739 0.242,5.690 0.000,5.003 0.000 L 4.392 0.000 4.260 3.093 M321.557 30.155 C 321.498 30.215,254.318 30.257,172.269 30.250 C 25.928 30.238,7.926 30.299,6.814 30.805 C 5.918 31.214,5.612 34.159,6.124 37.453 C 6.516 39.974,6.910 40.360,8.825 40.100 C 9.864 39.959,17.480 39.983,18.189 40.130 C 18.460 40.186,361.566 40.228,365.595 40.172 C 365.944 40.167,370.955 40.202,376.732 40.248 C 389.945 40.355,390.601 40.296,391.242 38.946 C 391.776 37.821,391.345 32.568,390.606 31.186 C 390.262 30.544,389.460 30.438,385.785 30.549 C 380.978 30.695,379.011 30.656,378.079 30.394 C 377.238 30.157,321.789 29.924,321.557 30.155 M6.857 53.313 C 6.181 53.703,6.179 53.716,6.142 57.994 C 6.100 62.957,6.050 62.854,8.671 63.183 C 10.592 63.424,361.928 63.453,362.938 63.212 C 364.404 62.863,364.620 62.228,364.309 59.184 C 364.194 58.054,364.078 56.478,364.052 55.681 C 364.026 54.885,363.996 54.181,363.985 54.119 C 363.953 53.934,363.025 53.611,362.245 53.513 C 359.261 53.141,356.822 53.022,354.187 53.122 C 350.539 53.260,22.790 53.274,13.762 53.136 C 8.222 53.052,7.268 53.076,6.857 53.313 M9.597 76.130 C 6.151 76.445,5.969 76.656,5.931 80.372 C 5.874 86.056,5.584 85.904,16.206 85.741 C 22.922 85.638,24.506 85.663,26.285 85.902 C 28.444 86.192,361.233 86.377,367.859 86.091 C 372.013 85.912,372.016 85.909,371.827 81.525 C 371.649 77.407,371.500 76.788,370.574 76.324 C 369.703 75.888,14.341 75.697,9.597 76.130 M23.404 98.629 C 23.077 98.705,18.140 98.871,13.219 98.969 C 7.852 99.077,7.018 99.180,6.701 99.772 C 6.335 100.455,5.999 103.628,5.909 107.238 C 5.869 108.836,5.022 108.718,17.616 108.878 C 23.713 108.955,107.130 108.965,202.988 108.898 C 298.846 108.832,379.802 108.797,382.891 108.821 C 388.430 108.864,389.842 108.753,390.152 108.251 C 390.524 107.649,390.943 104.574,390.944 102.431 C 390.947 98.480,391.713 98.671,376.067 98.711 C 369.760 98.728,362.359 98.739,359.620 98.736 C 325.906 98.702,23.504 98.605,23.404 98.629 M12.974 121.265 C 12.955 121.283,11.559 121.347,9.870 121.407 C 5.813 121.549,5.269 121.970,5.808 124.548 C 5.927 125.114,6.044 126.514,6.069 127.660 C 6.119 129.913,6.301 130.547,7.045 131.052 C 7.471 131.342,236.166 131.697,271.526 131.463 C 275.211 131.439,279.203 131.411,280.398 131.401 C 281.593 131.391,285.301 131.434,288.637 131.496 C 295.878 131.632,299.953 131.406,302.606 130.723 C 303.353 130.531,303.853 129.900,303.936 129.044 C 303.967 128.731,304.116 127.945,304.269 127.297 C 305.335 122.764,304.776 121.524,301.598 121.376 C 299.927 121.299,13.051 121.188,12.974 121.265 M6.754 143.961 C 5.901 144.229,5.893 144.265,5.849 148.393 C 5.792 153.747,5.773 153.707,8.536 153.827 C 16.040 154.154,268.138 154.235,269.296 153.911 C 270.857 153.474,271.154 152.398,271.032 147.618 C 270.945 144.218,270.825 143.998,269.121 144.123 C 268.551 144.165,267.474 144.181,266.727 144.158 C 265.980 144.135,210.244 144.084,142.870 144.043 C 75.496 144.002,17.438 143.926,13.852 143.874 C 9.718 143.814,7.122 143.846,6.754 143.961 M8.575 166.938 C 5.808 167.097,5.956 166.801,6.094 171.913 C 6.215 176.432,6.221 176.456,7.260 176.736 C 8.742 177.135,351.311 176.958,353.007 176.557 C 355.232 176.031,355.371 175.655,355.186 170.668 C 355.065 167.439,355.101 167.566,354.211 167.161 C 353.548 166.860,13.731 166.641,8.575 166.938 " stroke="none" fill="#7bc3d8" fill-rule="evenodd"></path><path id="path1" d="M5.595 2.037 C 5.436 8.802,5.670 13.054,6.240 13.716 C 6.914 14.500,5.398 14.491,149.999 14.580 C 226.898 14.627,290.996 14.684,292.440 14.708 C 295.184 14.752,297.449 14.410,298.360 13.813 C 299.047 13.363,299.157 12.485,299.241 6.790 C 299.284 3.803,299.362 1.053,299.413 0.679 L 299.506 0.000 152.575 0.000 L 5.644 0.000 5.595 2.037 " stroke="none" fill="#1da9c3" fill-rule="evenodd"></path><path id="path2" d="M3.542 3.062 C 3.471 4.745,3.461 6.762,3.520 7.543 C 3.579 8.324,3.662 9.995,3.705 11.255 C 3.807 14.248,4.312 15.429,5.826 16.220 C 6.453 16.548,297.729 16.628,298.944 16.301 C 299.863 16.053,300.707 15.210,300.954 14.292 C 301.309 12.974,301.284 -0.000,300.927 -0.000 C 300.563 0.000,300.458 1.810,300.419 8.782 C 300.382 15.427,300.394 15.408,295.920 15.884 C 293.664 16.124,292.769 16.135,290.086 15.955 C 287.701 15.795,252.262 15.746,146.886 15.757 C 12.445 15.771,6.829 15.758,6.191 15.446 C 5.513 15.113,4.753 14.169,4.627 13.501 C 4.371 12.144,4.146 5.765,4.260 3.093 C 4.389 0.082,4.383 0.000,4.032 0.000 C 3.692 -0.000,3.665 0.170,3.542 3.062 M15.935 29.330 C 3.736 29.448,4.624 29.143,4.623 33.215 C 4.621 41.344,4.828 41.716,9.302 41.623 C 10.809 41.592,97.071 41.592,200.996 41.623 C 304.921 41.655,390.195 41.626,390.493 41.559 C 392.484 41.117,392.669 40.590,392.657 35.399 C 392.646 30.741,392.502 30.067,391.399 29.516 C 390.852 29.242,42.822 29.070,15.935 29.330 M378.079 30.394 C 379.011 30.656,380.978 30.695,385.785 30.549 C 389.460 30.438,390.262 30.544,390.606 31.186 C 391.345 32.568,391.776 37.821,391.242 38.946 C 390.601 40.296,389.945 40.355,376.732 40.248 C 370.955 40.202,365.944 40.167,365.595 40.172 C 361.566 40.228,18.460 40.186,18.189 40.130 C 17.480 39.983,9.864 39.959,8.825 40.100 C 6.910 40.360,6.516 39.974,6.124 37.453 C 5.612 34.159,5.918 31.214,6.814 30.805 C 7.926 30.299,25.928 30.238,172.269 30.250 C 254.318 30.257,321.498 30.215,321.557 30.155 C 321.789 29.924,377.238 30.157,378.079 30.394 M6.677 51.845 C 4.886 52.309,4.824 52.510,4.779 58.059 C 4.736 63.227,4.782 63.486,5.853 64.187 C 6.596 64.675,363.832 64.631,364.497 64.144 C 365.501 63.409,365.560 63.054,365.499 58.136 C 365.468 55.626,365.364 53.483,365.265 53.298 C 364.850 52.529,364.194 52.134,363.040 51.958 C 361.612 51.741,7.512 51.628,6.677 51.845 M185.695 53.235 C 276.722 53.235,352.544 53.184,354.187 53.122 C 356.822 53.022,359.261 53.141,362.245 53.513 C 363.025 53.611,363.953 53.934,363.985 54.119 C 363.996 54.181,364.026 54.885,364.052 55.681 C 364.078 56.478,364.194 58.054,364.309 59.184 C 364.620 62.228,364.404 62.863,362.938 63.212 C 361.928 63.453,10.592 63.424,8.671 63.183 C 6.050 62.854,6.100 62.957,6.142 57.994 C 6.189 52.475,5.352 53.008,13.762 53.136 C 17.297 53.190,94.667 53.234,185.695 53.235 M6.462 74.876 C 4.912 75.393,4.439 77.054,4.583 81.485 C 4.718 85.632,5.113 86.624,6.807 87.077 C 7.296 87.207,58.397 87.267,172.024 87.271 C 262.503 87.273,343.092 87.322,351.109 87.380 C 368.366 87.503,371.405 87.406,372.328 86.702 C 373.303 85.958,373.380 85.428,373.231 80.539 L 373.100 76.243 372.477 75.601 C 372.076 75.186,371.626 74.923,371.214 74.861 C 369.967 74.672,7.029 74.687,6.462 74.876 M370.574 76.324 C 371.500 76.788,371.649 77.407,371.827 81.525 C 372.016 85.909,372.013 85.912,367.859 86.091 C 361.233 86.377,28.444 86.192,26.285 85.902 C 24.506 85.663,22.922 85.638,16.206 85.741 C 5.584 85.904,5.874 86.056,5.931 80.372 C 5.969 76.656,6.151 76.445,9.597 76.130 C 14.341 75.697,369.703 75.888,370.574 76.324 M18.651 97.452 C 17.207 97.542,13.988 97.575,11.498 97.524 C 4.845 97.389,5.122 97.170,4.758 102.841 C 4.378 108.745,4.364 108.609,5.477 109.403 L 6.066 109.823 198.280 109.823 C 368.781 109.823,390.553 109.793,391.020 109.552 C 392.200 108.944,392.227 108.820,392.267 103.839 C 392.323 97.047,392.950 97.544,384.164 97.412 C 372.680 97.241,21.434 97.279,18.651 97.452 M359.620 98.736 C 362.359 98.739,369.760 98.728,376.067 98.711 C 391.713 98.671,390.947 98.480,390.944 102.431 C 390.943 104.574,390.524 107.649,390.152 108.251 C 389.842 108.753,388.430 108.864,382.891 108.821 C 379.802 108.797,298.846 108.832,202.988 108.898 C 107.130 108.965,23.713 108.955,17.616 108.878 C 5.022 108.718,5.869 108.836,5.909 107.238 C 5.999 103.628,6.335 100.455,6.701 99.772 C 7.018 99.180,7.852 99.077,13.219 98.969 C 18.140 98.871,23.077 98.705,23.404 98.629 C 23.504 98.605,325.906 98.702,359.620 98.736 M6.549 120.227 C 4.725 120.680,4.493 121.465,4.661 126.607 C 4.817 131.375,4.849 131.496,6.176 132.277 C 6.789 132.638,7.156 132.639,133.997 132.684 C 203.961 132.708,267.601 132.739,275.419 132.753 C 292.436 132.783,300.458 132.722,302.711 132.546 C 305.654 132.316,305.821 132.026,306.056 126.754 C 306.273 121.885,305.996 120.774,304.498 120.501 C 304.190 120.445,237.488 120.372,156.270 120.338 C 75.052 120.304,8.275 120.231,7.877 120.176 C 7.478 120.121,6.881 120.144,6.549 120.227 M301.598 121.376 C 304.776 121.524,305.335 122.764,304.269 127.297 C 304.116 127.945,303.967 128.731,303.936 129.044 C 303.853 129.900,303.353 130.531,302.606 130.723 C 299.953 131.406,295.878 131.632,288.637 131.496 C 285.301 131.434,281.593 131.391,280.398 131.401 C 279.203 131.411,275.211 131.439,271.526 131.463 C 236.166 131.697,7.471 131.342,7.045 131.052 C 6.301 130.547,6.119 129.913,6.069 127.660 C 6.044 126.514,5.927 125.114,5.808 124.548 C 5.269 121.970,5.813 121.549,9.870 121.407 C 11.559 121.347,12.955 121.283,12.974 121.265 C 13.051 121.188,299.927 121.299,301.598 121.376 M5.811 143.111 C 4.502 143.561,4.456 143.759,4.505 148.797 C 4.572 155.755,3.818 155.208,13.424 155.270 C 37.542 155.425,269.976 155.343,270.563 155.178 C 272.200 154.721,272.550 153.484,272.532 148.224 C 272.519 144.050,272.479 143.877,271.388 143.281 C 270.649 142.877,6.984 142.708,5.811 143.111 M142.870 144.043 C 210.244 144.084,265.980 144.135,266.727 144.158 C 267.474 144.181,268.551 144.165,269.121 144.123 C 270.825 143.998,270.945 144.218,271.032 147.618 C 271.154 152.398,270.857 153.474,269.296 153.911 C 268.614 154.102,32.980 154.184,17.746 153.998 C 6.043 153.856,6.349 153.888,5.992 152.770 C 5.780 152.106,5.816 144.707,6.032 144.367 C 6.363 143.847,7.418 143.781,13.852 143.874 C 17.438 143.926,75.496 144.002,142.870 144.043 M6.157 165.712 C 4.664 166.292,4.260 167.408,4.509 170.273 C 4.607 171.400,4.641 173.171,4.585 174.210 C 4.456 176.605,4.674 177.232,5.832 177.792 L 6.633 178.180 178.916 178.171 C 273.672 178.166,352.071 178.095,353.136 178.012 C 356.795 177.730,356.931 177.497,356.863 171.629 C 356.807 166.791,356.777 166.681,355.353 165.957 C 354.550 165.550,7.203 165.305,6.157 165.712 M354.211 167.161 C 355.101 167.566,355.065 167.439,355.186 170.668 C 355.371 175.655,355.232 176.031,353.007 176.557 C 351.311 176.958,8.742 177.135,7.260 176.736 C 6.221 176.456,6.215 176.432,6.094 171.913 C 5.956 166.801,5.808 167.097,8.575 166.938 C 13.731 166.641,353.548 166.860,354.211 167.161 " stroke="none" fill="#a2d3de" fill-rule="evenodd"></path><path id="path3" d="M2.452 0.226 C 2.004 1.644,1.774 4.658,1.980 6.398 C 2.103 7.434,2.180 9.412,2.152 10.795 C 2.080 14.310,3.024 16.178,5.470 17.361 L 6.609 17.912 11.317 17.734 C 15.409 17.579,283.167 17.629,292.349 17.786 C 302.067 17.953,302.306 17.698,302.308 7.198 L 302.309 0.000 301.834 0.000 L 301.359 -0.000 301.233 1.947 C 301.164 3.017,301.125 6.053,301.147 8.692 C 301.199 14.851,300.934 15.765,298.944 16.301 C 297.729 16.628,6.453 16.548,5.826 16.220 C 3.802 15.163,3.547 13.857,3.568 4.663 L 3.579 0.000 3.051 0.000 C 2.761 0.000,2.492 0.102,2.452 0.226 M296.695 27.898 C 294.283 27.990,110.946 28.158,12.121 28.158 L 5.681 28.158 4.796 28.703 C 3.106 29.745,2.195 33.333,2.910 36.125 C 3.013 36.523,3.166 37.755,3.251 38.862 C 3.523 42.390,4.379 43.063,8.294 42.830 C 11.438 42.643,18.195 42.700,21.315 42.940 C 23.223 43.087,24.503 43.084,26.268 42.928 C 28.059 42.770,73.452 42.723,209.571 42.739 C 350.032 42.756,390.715 42.712,391.484 42.543 C 393.621 42.073,394.359 39.680,394.012 34.341 C 393.594 27.890,392.913 27.473,383.522 27.921 C 380.411 28.069,329.830 28.001,305.387 27.815 C 302.399 27.792,298.488 27.830,296.695 27.898 M391.399 29.516 C 392.502 30.067,392.646 30.741,392.657 35.399 C 392.669 40.590,392.484 41.117,390.493 41.559 C 390.195 41.626,304.921 41.655,200.996 41.623 C 97.071 41.592,10.809 41.592,9.302 41.623 C 5.273 41.706,5.048 41.513,4.778 37.755 C 4.376 32.145,4.579 30.274,5.659 29.658 C 6.597 29.122,390.329 28.981,391.399 29.516 M7.781 50.158 C 3.912 50.415,3.179 51.353,3.244 55.973 C 3.265 57.528,3.192 59.624,3.082 60.630 C 2.592 65.077,4.130 66.218,10.236 65.939 C 12.157 65.851,89.039 65.824,184.608 65.878 C 278.624 65.931,357.355 65.972,359.567 65.969 C 366.325 65.960,367.666 64.994,367.266 60.421 C 367.178 59.408,367.086 57.450,367.063 56.071 C 366.992 51.802,366.210 50.902,362.245 50.528 C 360.885 50.399,305.262 50.340,186.872 50.340 C 74.494 50.340,12.917 50.277,11.861 50.162 C 10.964 50.064,10.109 49.995,9.959 50.008 C 9.810 50.021,8.830 50.089,7.781 50.158 M363.040 51.958 C 364.194 52.134,364.850 52.529,365.265 53.298 C 365.364 53.483,365.468 55.626,365.499 58.136 C 365.560 63.054,365.501 63.409,364.497 64.144 C 363.832 64.631,6.596 64.675,5.853 64.187 C 4.782 63.486,4.736 63.227,4.779 58.059 C 4.824 52.510,4.886 52.309,6.677 51.845 C 7.512 51.628,361.612 51.741,363.040 51.958 M6.849 73.175 C 5.424 73.328,4.235 74.210,3.540 75.629 L 3.029 76.673 3.128 80.935 C 3.294 88.128,3.713 88.627,9.597 88.629 C 11.240 88.629,86.777 88.614,177.456 88.595 C 333.200 88.562,360.994 88.595,363.151 88.817 C 367.398 89.254,373.559 88.193,374.509 86.861 C 375.076 86.065,375.036 76.447,374.460 75.315 C 373.579 73.582,370.765 73.024,363.966 73.234 C 358.948 73.388,11.879 73.349,9.688 73.193 C 8.692 73.123,7.414 73.114,6.849 73.175 M371.214 74.861 C 371.626 74.923,372.076 75.186,372.477 75.601 L 373.100 76.243 373.231 80.539 C 373.380 85.428,373.303 85.958,372.328 86.702 C 371.405 87.406,368.366 87.503,351.109 87.380 C 343.092 87.322,262.503 87.273,172.024 87.271 C 58.397 87.267,7.296 87.207,6.807 87.077 C 5.113 86.624,4.718 85.632,4.583 81.485 C 4.439 77.054,4.912 75.393,6.462 74.876 C 7.029 74.687,369.967 74.672,371.214 74.861 M20.371 96.203 C 19.674 96.281,16.089 96.363,12.404 96.385 C 3.549 96.439,3.591 96.422,3.367 100.136 C 3.303 101.182,3.128 102.893,2.977 103.938 C 2.346 108.317,2.404 108.662,3.978 109.910 C 5.376 111.017,5.191 110.997,14.067 110.977 C 62.470 110.864,380.552 111.195,383.872 111.362 C 391.562 111.747,393.078 111.052,393.314 107.029 C 393.716 100.171,393.349 97.470,391.921 96.784 C 391.045 96.364,380.329 96.048,370.756 96.161 C 367.469 96.200,361.725 96.220,357.990 96.206 C 328.484 96.096,21.358 96.093,20.371 96.203 M384.164 97.412 C 392.950 97.544,392.323 97.047,392.267 103.839 C 392.227 108.820,392.200 108.944,391.020 109.552 C 390.553 109.793,368.781 109.823,198.280 109.823 L 6.066 109.823 5.477 109.403 C 4.364 108.609,4.378 108.745,4.758 102.841 C 5.122 97.170,4.845 97.389,11.498 97.524 C 13.988 97.575,17.207 97.542,18.651 97.452 C 21.434 97.279,372.680 97.241,384.164 97.412 M6.346 118.625 C 3.781 119.410,2.657 121.523,3.072 124.779 C 3.214 125.900,3.250 127.225,3.169 128.416 C 2.973 131.292,3.725 132.906,5.656 133.750 C 6.407 134.079,9.953 134.089,134.450 134.123 C 253.559 134.156,265.956 134.187,269.896 134.465 C 270.693 134.522,273.130 134.487,275.311 134.388 C 277.881 134.272,280.527 134.270,282.826 134.383 C 284.777 134.478,286.822 134.570,287.370 134.586 C 288.625 134.625,300.286 134.210,303.293 134.021 L 305.544 133.879 306.213 133.124 C 307.097 132.128,307.242 131.460,307.499 127.183 C 307.848 121.385,307.731 120.728,306.121 119.426 L 305.454 118.885 301.889 118.732 C 299.929 118.648,296.166 118.641,293.526 118.717 C 281.998 119.050,13.114 118.882,8.420 118.539 C 7.588 118.478,6.705 118.515,6.346 118.625 M156.270 120.338 C 237.488 120.372,304.190 120.445,304.498 120.501 C 305.996 120.774,306.273 121.885,306.056 126.754 C 305.821 132.026,305.654 132.316,302.711 132.546 C 300.458 132.722,292.436 132.783,275.419 132.753 C 267.601 132.739,203.961 132.708,133.997 132.684 C 7.156 132.639,6.789 132.638,6.176 132.277 C 4.849 131.496,4.817 131.375,4.661 126.607 C 4.510 121.966,4.542 121.722,5.431 120.871 C 6.047 120.280,6.891 120.041,7.877 120.176 C 8.275 120.231,75.052 120.304,156.270 120.338 M134.903 141.784 C 9.205 141.872,5.504 141.884,4.845 142.211 C 3.244 143.007,2.552 144.483,2.916 146.331 C 3.054 147.032,3.094 148.264,3.029 149.741 C 2.845 153.862,3.161 155.028,4.689 155.881 L 5.452 156.308 13.998 156.362 C 41.001 156.534,270.636 156.436,271.319 156.253 C 273.300 155.720,273.535 155.361,273.932 152.262 C 274.727 146.050,274.003 142.752,271.686 142.031 C 270.499 141.662,281.152 141.681,134.903 141.784 M271.388 143.281 C 272.479 143.877,272.519 144.050,272.532 148.224 C 272.550 153.484,272.200 154.721,270.563 155.178 C 269.976 155.343,37.542 155.425,13.424 155.270 C 3.818 155.208,4.572 155.755,4.505 148.797 C 4.456 143.759,4.502 143.561,5.811 143.111 C 6.984 142.708,270.649 142.877,271.388 143.281 M5.607 164.349 C 4.535 164.666,3.866 165.248,3.340 166.324 L 2.855 167.315 3.090 170.023 C 3.264 172.033,3.276 173.207,3.137 174.578 C 2.840 177.507,3.454 178.753,5.491 179.358 C 6.582 179.682,353.195 179.778,355.155 179.455 C 357.896 179.003,358.242 178.256,358.319 172.627 C 358.398 166.802,358.074 165.474,356.359 164.598 L 355.633 164.228 180.963 164.187 C 52.648 164.157,6.111 164.200,5.607 164.349 M355.353 165.957 C 356.777 166.681,356.807 166.791,356.863 171.629 C 356.931 177.497,356.795 177.730,353.136 178.012 C 352.071 178.095,273.672 178.166,178.916 178.171 L 6.633 178.180 5.832 177.792 C 4.674 177.232,4.456 176.605,4.585 174.210 C 4.641 173.171,4.607 171.400,4.509 170.273 C 4.260 167.408,4.664 166.292,6.157 165.712 C 7.203 165.305,354.550 165.550,355.353 165.957 " stroke="none" fill="#c6e4f3" fill-rule="evenodd"></path></g></svg>