<svg id="svg" version="1.1" xmlns="http://www.w3.org/2000/svg" xmlns:xlink="http://www.w3.org/1999/xlink" width="400" height="253.94736842105263" viewBox="0, 0, 400,253.94736842105263"><g id="svgg">
<path id="path1" d="M46.420 105.079 C 46.356 224.296,46.368 228.404,46.808 229.321 C 47.608 230.991,49.585 229.668,55.490 223.508 C 56.888 222.051,59.117 219.824,60.444 218.561 C 61.771 217.298,63.771 215.298,64.889 214.115 C 66.006 212.933,68.965 209.959,71.464 207.507 C 73.963 205.054,78.075 200.933,80.602 198.349 C 83.129 195.765,86.340 192.565,87.738 191.238 C 89.137 189.911,91.069 188.025,92.032 187.048 C 111.970 166.805,120.329 158.658,122.119 157.727 C 123.410 157.055,125.761 159.123,138.710 172.317 C 140.629 174.273,142.592 176.273,143.073 176.762 C 145.694 179.430,158.364 191.899,159.926 193.349 C 161.966 195.241,162.432 195.372,164.099 194.521 C 164.968 194.078,182.642 176.882,185.872 173.337 C 186.379 172.781,188.165 170.991,189.841 169.359 C 191.517 167.728,194.603 164.665,196.698 162.552 C 198.794 160.440,206.262 152.973,213.296 145.959 C 220.329 138.945,226.500 132.759,227.010 132.213 C 227.520 131.667,230.675 128.524,234.022 125.229 C 237.368 121.934,240.454 118.853,240.879 118.382 C 241.303 117.911,245.930 113.282,251.160 108.096 C 256.389 102.910,262.477 96.822,264.688 94.567 C 268.538 90.639,269.797 89.651,270.952 89.651 C 271.924 89.651,275.033 92.675,310.444 128.062 C 353.482 171.072,351.502 169.198,352.796 168.150 C 353.656 167.454,353.658 167.266,353.581 79.735 L 353.511 0.000 199.994 0.000 L 46.476 0.000 46.420 105.079 M142.476 23.887 C 146.309 24.160,147.068 24.301,151.832 25.623 C 160.326 27.981,170.102 34.614,176.203 42.159 C 176.712 42.787,177.534 43.759,178.030 44.317 C 179.103 45.524,181.482 49.421,181.956 50.746 C 182.140 51.261,182.602 52.368,182.982 53.206 C 188.461 65.272,189.078 79.957,184.543 90.327 C 184.186 91.142,183.531 92.870,183.088 94.166 C 181.420 99.035,178.016 103.880,172.064 109.858 C 167.340 114.601,167.854 114.243,159.204 118.826 C 146.802 125.398,131.038 125.738,116.698 119.743 C 106.132 115.326,94.099 102.874,90.812 92.952 C 90.326 91.486,89.586 89.314,89.168 88.127 C 88.353 85.810,87.523 81.555,87.111 77.585 C 86.762 74.218,87.713 64.017,88.493 62.754 C 88.552 62.658,88.839 61.393,89.130 59.942 C 91.083 50.197,102.221 35.435,110.978 30.985 C 111.604 30.667,112.518 30.143,113.010 29.820 C 113.502 29.497,115.219 28.673,116.825 27.989 C 125.867 24.139,132.080 23.145,142.476 23.887 M130.921 46.823 C 123.197 48.417,115.787 54.331,112.421 61.588 C 104.976 77.639,113.157 95.835,129.905 100.475 C 141.509 103.690,153.821 98.965,160.757 88.635 C 162.718 85.715,162.670 85.822,163.698 81.988 C 169.393 60.755,152.294 42.412,130.921 46.823 M369.270 86.351 C 367.012 86.504,366.354 86.823,365.998 87.935 C 365.513 89.453,365.711 162.913,366.203 163.898 C 366.978 165.447,366.733 165.425,382.101 165.362 C 398.541 165.294,398.974 165.236,398.989 163.083 C 398.997 161.756,399.287 158.841,399.489 158.051 C 399.602 157.608,399.594 156.351,399.471 155.258 C 399.250 153.296,399.166 132.360,399.263 103.340 C 399.317 86.920,399.350 87.271,397.729 86.616 C 397.044 86.338,372.789 86.113,369.270 86.351 M1.662 86.950 C 1.325 87.287,0.992 87.946,0.921 88.416 C 0.850 88.886,0.643 90.184,0.460 91.302 C 0.277 92.419,0.127 95.105,0.127 97.270 C 0.127 99.435,0.165 114.967,0.212 131.786 L 0.298 162.366 0.910 163.335 C 2.161 165.317,1.126 165.198,17.735 165.278 C 34.252 165.357,33.437 165.441,33.984 163.615 C 34.359 162.364,34.412 91.737,34.040 89.163 C 33.617 86.235,35.129 86.487,17.511 86.407 L 2.274 86.338 1.662 86.950 M379.708 112.186 C 381.748 114.249,384.246 116.622,385.261 117.460 C 387.718 119.489,388.294 120.057,389.266 121.402 C 389.718 122.028,390.604 123.144,391.235 123.883 C 392.715 125.617,392.689 125.866,390.780 128.201 C 389.900 129.278,388.825 130.673,388.392 131.302 C 387.462 132.651,384.601 135.437,382.984 136.568 C 382.356 137.008,380.600 138.622,379.083 140.155 C 377.566 141.689,376.044 143.014,375.700 143.100 C 374.557 143.387,372.584 141.739,372.199 140.175 C 371.954 139.181,375.821 134.825,379.573 131.869 C 380.803 130.900,383.094 128.238,383.709 127.064 C 384.489 125.576,383.413 123.269,380.933 121.111 C 377.909 118.481,374.603 115.450,374.603 115.308 C 374.603 115.230,374.146 114.612,373.587 113.936 C 372.020 112.039,372.258 110.463,374.323 109.060 C 375.686 108.134,375.724 108.156,379.708 112.186 M26.078 109.577 C 27.502 110.796,27.886 111.779,27.291 112.687 C 26.558 113.806,22.583 117.828,21.183 118.869 C 19.017 120.478,16.274 124.587,16.260 126.242 C 16.249 127.531,18.688 130.362,24.284 135.553 C 28.074 139.070,28.352 139.813,26.536 141.577 C 24.361 143.692,22.229 142.996,19.175 139.174 C 16.822 136.231,14.466 133.668,13.256 132.735 C 11.194 131.145,7.668 127.394,7.461 126.569 C 7.117 125.197,8.355 123.499,12.380 119.824 C 14.412 117.969,16.844 115.535,17.784 114.416 C 22.517 108.778,24.079 107.866,26.078 109.577 M266.463 124.665 C 263.260 127.674,225.604 165.215,222.074 168.919 C 221.224 169.810,214.139 176.917,206.328 184.711 C 198.517 192.506,191.956 199.065,191.746 199.287 C 191.537 199.510,183.421 207.590,173.711 217.243 C 164.002 226.896,155.427 235.479,154.656 236.317 C 153.885 237.156,150.824 240.221,147.853 243.131 C 137.727 253.046,137.343 252.557,155.302 252.608 C 204.177 252.745,349.785 252.644,350.656 252.473 C 353.737 251.866,353.566 253.432,353.475 226.794 L 353.397 204.063 352.782 202.814 C 352.212 201.655,274.160 123.167,272.243 121.824 C 270.831 120.835,270.222 121.135,266.463 124.665 M122.032 189.313 C 121.426 189.586,105.719 205.075,93.841 217.113 C 92.724 218.246,85.181 225.771,77.079 233.837 C 61.063 249.782,60.698 250.165,60.698 251.085 C 60.698 252.589,60.430 252.571,83.810 252.571 L 105.016 252.571 106.261 251.997 C 107.685 251.340,110.515 249.100,111.894 247.538 C 113.083 246.191,117.764 241.434,124.998 234.221 C 149.688 209.603,147.190 213.117,143.130 208.713 C 139.145 204.390,124.053 189.206,123.742 189.206 C 123.592 189.206,123.318 189.153,123.132 189.089 C 122.946 189.024,122.451 189.125,122.032 189.313 " stroke="none" fill="#7ac4da" fill-rule="evenodd"></path></g></svg>