<svg id="svg" version="1.1" xmlns="http://www.w3.org/2000/svg" xmlns:xlink="http://www.w3.org/1999/xlink" width="400" height="315.1020408163265" viewBox="0, 0, 400,315.1020408163265"><g id="svgg"><path id="path1" d="M11.909 131.048 C 11.824 294.401,11.752 284.955,13.077 285.464 C 14.363 285.957,19.851 280.957,34.831 265.645 C 36.044 264.405,40.498 259.978,44.728 255.808 C 48.958 251.639,53.923 246.677,55.760 244.783 C 63.760 236.537,100.711 199.723,102.572 198.144 C 105.142 195.964,106.365 195.317,107.414 195.580 C 108.188 195.775,120.855 207.968,127.344 214.766 C 128.991 216.492,132.178 219.691,134.427 221.875 C 136.675 224.060,142.086 229.420,146.452 233.786 C 155.308 242.642,155.427 242.722,157.913 241.453 C 158.822 240.989,177.641 222.387,216.694 183.349 C 248.289 151.766,275.330 124.764,276.785 123.344 C 278.241 121.924,280.696 119.394,282.240 117.720 C 285.450 114.240,288.404 111.678,289.532 111.395 C 291.564 110.885,287.897 107.382,344.996 164.381 C 393.591 212.891,391.200 210.687,392.435 208.117 C 392.900 207.149,393.345 16.033,392.907 5.437 L 392.682 0.000 202.330 0.000 L 11.978 0.000 11.909 131.048 M131.340 29.641 C 133.797 29.817,136.847 30.239,138.117 30.578 C 139.387 30.917,141.631 31.491,143.105 31.853 C 147.634 32.967,161.650 40.369,162.823 42.267 C 162.922 42.427,163.962 43.384,165.134 44.392 C 171.762 50.097,178.375 58.444,180.262 63.487 C 180.631 64.472,181.215 65.833,181.562 66.512 C 187.941 79.016,188.778 101.609,183.258 112.284 C 183.000 112.782,182.289 114.637,181.678 116.406 C 178.923 124.378,168.464 137.668,161.333 142.255 C 146.723 151.653,132.348 155.217,115.997 153.496 C 101.002 151.917,84.909 142.359,74.974 129.132 C 73.389 127.022,71.743 124.876,71.315 124.364 C 70.270 123.110,67.664 117.654,66.716 114.736 C 66.294 113.436,65.504 111.112,64.959 109.573 C 62.046 101.331,61.458 89.010,63.550 80.063 C 63.814 78.936,64.374 76.454,64.795 74.547 C 66.669 66.066,72.938 55.330,80.363 47.888 C 89.381 38.849,96.993 34.594,111.312 30.589 C 115.452 29.430,123.253 29.061,131.340 29.641 M117.258 58.039 C 107.565 59.820,98.077 67.270,93.824 76.439 C 80.275 105.653,108.420 135.282,138.190 123.145 C 147.065 119.527,155.195 110.404,157.482 101.497 C 164.207 75.306,143.724 53.177,117.258 58.039 M285.178 154.560 C 281.254 158.220,148.988 290.366,145.942 293.669 C 145.162 294.515,141.530 298.112,137.871 301.662 C 129.091 310.182,128.101 311.614,130.089 312.916 C 131.303 313.712,389.131 313.797,390.673 313.002 C 393.085 311.759,392.908 314.178,392.908 282.483 C 392.908 251.033,393.024 252.727,390.678 249.949 C 389.266 248.276,297.475 156.196,293.546 152.510 C 290.546 149.696,290.336 149.747,285.178 154.560 M101.890 238.377 C 93.822 246.306,31.604 308.547,30.654 309.640 C 29.244 311.261,29.291 312.251,30.812 312.940 C 32.832 313.855,84.032 313.733,86.052 312.808 C 87.930 311.948,91.802 308.802,93.817 306.499 C 94.707 305.482,104.388 295.666,115.330 284.686 C 136.904 263.037,136.043 264.051,134.537 262.060 C 133.344 260.482,130.054 257.053,118.922 245.784 C 105.676 232.374,107.285 233.074,101.890 238.377 " stroke="none" fill="#79c4db" fill-rule="evenodd"></path></g></svg>