<svg version="1.1" id="Layer_1" xmlns="http://www.w3.org/2000/svg" xmlns:xlink="http://www.w3.org/1999/xlink" x="0px" y="0px"
	 width="100%" viewBox="0 0 600 180" enable-background="new 0 0 600 180" xml:space="preserve">

<path fill="#FCDE0E" opacity="1.000000" stroke="none" 
	d="
M132.790466,100.305367 
	C132.946869,101.960609 133.187851,104.310593 132.651917,104.503639 
	C131.328033,104.980499 129.505997,104.789879 128.178314,104.202629 
	C127.615883,103.953850 127.437073,101.126152 127.689224,101.028160 
	C129.202255,100.440155 130.891403,100.305290 132.790466,100.305367 
z"/>
<path fill="#03B096" opacity="1.000000" stroke="200" 
	d="
M142.146194,105.851997 
	C141.419632,103.829582 140.693069,101.807175 140.298645,99.345100 
	C142.432907,98.432709 144.235016,97.959976 145.903336,97.522339 
	C145.205856,95.185104 144.574875,93.070694 144.004089,90.595825 
	C145.334900,85.341377 148.887329,84.160622 153.209686,85.172874 
	C157.330719,86.137970 158.123566,89.406281 157.899002,93.252029 
	C157.848724,94.113571 159.140945,95.053505 159.955551,96.263741 
	C161.055679,97.739967 162.015381,98.909798 163.150986,100.355667 
	C164.888916,101.814484 166.450912,102.997253 167.951279,104.516006 
	C166.585159,109.426483 170.108078,108.893105 172.530472,108.937752 
	C180.631851,109.087074 188.739334,109.081581 196.840118,108.918198 
	C198.234772,108.890076 199.608002,107.801193 201.281189,107.069145 
	C202.109039,106.290443 202.646851,105.644905 203.470581,104.948563 
	C204.266205,104.398422 204.775909,103.899086 205.285614,103.399750 
	C204.551804,102.933784 203.817993,102.467834 203.051559,101.581726 
	C203.079102,99.757698 203.139267,98.353813 203.637573,96.951538 
	C207.075821,96.319946 211.945587,96.579979 212.749405,94.897499 
	C216.067123,87.953049 220.787262,85.900528 227.955872,88.230934 
	C228.399750,88.724220 228.720520,88.945549 229.218613,89.464149 
	C230.953873,95.733017 235.158554,97.704994 240.934998,97.794327 
	C243.639709,97.836174 246.332352,98.660286 249.063416,99.476021 
	C252.135193,105.528229 255.174026,111.234276 258.270935,117.284485 
	C258.577881,118.742043 258.826721,119.855446 258.843140,121.202629 
	C258.775055,122.692841 258.939392,123.949265 259.077393,125.490196 
	C258.772858,126.256104 258.494751,126.737495 257.846558,127.267891 
	C255.317444,127.799423 253.158417,128.281952 250.924042,128.440918 
	C248.823822,124.150902 246.796280,127.236237 244.355072,128.112350 
	C236.452499,128.869675 233.140076,124.144630 230.600586,118.005676 
	C229.543610,118.699699 228.703476,119.507446 227.901352,120.770073 
	C227.611862,123.003571 227.284363,124.782188 226.817688,127.316650 
	C223.206604,127.050819 219.671280,126.790565 216.295731,126.229568 
	C216.455521,124.126144 216.455521,122.323463 216.455521,120.520790 
	C215.744919,120.438766 215.034317,120.356743 214.323715,120.274719 
	C213.548874,122.453262 212.774033,124.631798 211.598770,126.882553 
	C208.134216,126.076180 205.070114,125.197594 201.944702,124.139847 
	C201.516647,123.638748 201.149872,123.316803 200.479462,122.678741 
	C200.175018,120.908333 200.174240,119.454033 200.474426,117.898262 
	C200.604172,116.531273 200.432968,115.265762 200.173248,113.659760 
	C200.052704,112.856369 200.020660,112.393478 199.990479,111.877434 
	C199.992325,111.824287 200.132858,111.962578 200.132858,111.962578 
	C200.132858,111.962578 200.034500,111.833923 199.701523,112.012711 
	C196.295563,115.596504 193.540482,119.376068 190.074265,122.317711 
	C185.019867,126.607178 178.915756,128.016129 172.230255,127.146103 
	C160.037003,125.559326 151.976395,118.098679 145.169113,108.678047 
	C144.376266,107.580818 143.164017,106.786659 142.146194,105.851997 
M219.006409,97.391968 
	C218.562668,97.607513 218.118927,97.823051 217.675186,98.038597 
	C217.851334,98.245735 218.148819,98.651688 218.185043,98.629578 
	C218.595398,98.379105 218.965759,98.063103 219.006409,97.391968 
M213.494873,117.533562 
	C213.494873,117.533562 213.474747,117.485199 213.494873,117.533562 
z"/>
<path fill="#09E1C0" opacity="1.000000" stroke="none" 
	d="
M325.137451,54.470608 
	C325.137451,54.470608 325.413818,54.264278 325.680725,54.594208 
	C331.158264,51.220818 336.500427,47.916885 343.258911,48.006023 
	C347.520660,48.062229 351.785583,47.881763 356.506805,47.886734 
	C362.357208,48.299965 367.749878,48.633926 372.671082,49.073502 
	C363.071442,49.473370 353.940765,49.708183 344.816498,50.094242 
	C341.640442,50.228626 337.320099,50.660915 337.600616,54.455875 
	C337.914642,58.704628 342.333374,56.716530 344.997742,56.688107 
	C353.128693,56.601357 361.255127,56.159142 369.385986,55.967213 
	C373.521912,55.869583 375.903015,57.843529 376.209625,62.173988 
	C376.467224,65.812462 376.677002,69.499214 377.489288,73.030884 
	C377.803162,74.395607 379.718506,75.391998 380.904236,76.556198 
	C381.853943,75.334770 383.407379,74.225220 383.657745,72.874199 
	C385.621002,62.280106 381.849091,54.005524 373.450256,48.893585 
	C376.863770,49.583366 379.865387,50.316963 382.976501,51.299675 
	C383.567291,52.084423 384.048553,52.620052 384.664795,53.567467 
	C385.190613,62.344398 385.581482,70.709541 385.996826,79.054398 
	C386.021240,79.034119 386.056732,78.981483 385.826599,78.662598 
	C385.097748,78.883881 384.599060,79.424042 383.788269,80.034645 
	C382.985352,80.731575 382.494537,81.358055 381.585236,81.991211 
	C377.625549,82.717499 374.084351,83.437096 370.523071,84.174240 
	C370.502991,84.191780 370.458801,84.162315 369.961243,84.098297 
	C364.316803,84.584938 359.145447,84.976654 354.034454,85.761246 
	C351.863861,86.094460 349.819702,87.251213 347.393127,88.018135 
	C345.701660,89.341049 344.335114,90.679535 342.909027,91.664291 
	C341.557831,87.220551 339.782349,83.539421 334.839752,83.063622 
	C330.258850,82.622650 327.531372,85.322853 325.401520,88.930809 
	C324.986206,89.634346 324.441803,90.261658 323.486359,90.945633 
	C322.063538,90.983772 321.111267,91.000420 320.025513,90.631302 
	C319.796326,89.927681 319.597565,89.602394 319.619843,89.293015 
	C320.435364,77.962990 320.278778,66.456001 325.654175,55.940105 
	C325.817017,55.621552 325.324463,54.967983 325.137451,54.470608 
M326.383453,73.493805 
	C325.358734,74.726784 324.334015,75.959755 323.309296,77.192726 
	C324.378723,77.718582 325.448151,78.244431 326.517578,78.770287 
	C326.687561,77.135452 326.857574,75.500610 326.383453,73.493805 
z"/>
<path fill="#03DFBE" opacity="1.000000" stroke="none" 
	d="
M294.805298,56.124161 
	C296.799377,58.170361 298.793427,60.216560 301.039551,62.795349 
	C301.554382,63.541588 301.817139,63.755230 302.079895,63.968880 
	C302.079895,63.968880 302.012207,63.992306 302.018066,64.339012 
	C302.717194,65.778938 303.410492,66.872162 304.103760,67.965385 
	C305.121002,69.361008 306.138214,70.756630 307.172241,72.807816 
	C307.762177,73.989685 308.335327,74.516006 308.908478,75.042320 
	C309.276672,75.793198 309.644867,76.544075 309.761688,77.666306 
	C309.164886,78.288567 308.819397,78.539474 308.473938,78.790390 
	C308.952515,78.884216 309.431061,78.978043 309.909637,79.071861 
	C311.955658,83.765984 314.001709,88.460106 315.668518,93.627441 
	C307.041809,94.285400 298.789825,94.369415 290.550690,94.740105 
	C288.909912,94.813927 287.318542,95.984421 285.312653,96.597809 
	C283.621918,96.393333 282.322906,96.240273 280.901031,95.721939 
	C279.640594,94.906052 278.535461,94.329117 277.359680,94.027229 
	C272.870483,92.874588 268.358551,91.810539 263.915039,90.367859 
	C265.360931,86.986389 266.746887,83.950462 268.507935,80.920494 
	C270.862640,79.298042 273.363373,78.007660 274.693024,75.957687 
	C276.448883,73.250656 277.195099,69.906914 278.543060,66.912384 
	C280.107697,63.436546 282.700470,61.405399 286.735352,61.973850 
	C291.339935,62.622562 293.946838,60.600624 294.805298,56.124161 
M302.229309,81.316856 
	C302.358307,81.219025 302.511749,81.140633 302.609375,81.017845 
	C302.704468,80.898262 302.742462,80.733284 302.805542,80.588234 
	C301.789978,80.487267 300.774384,80.386292 298.929443,80.202858 
	C299.911591,81.267517 300.088501,81.633972 300.312042,81.665039 
	C300.769196,81.728569 301.251404,81.611870 302.229309,81.316856 
M295.224365,79.522713 
	C295.080017,79.529915 294.935638,79.537109 294.791290,79.544312 
	C294.887909,79.590897 294.984558,79.637474 295.224365,79.522713 
M296.493652,81.535568 
	C296.493652,81.535568 296.470917,81.482468 296.493652,81.535568 
z"/>
<path fill="#03DEBD" opacity="1.000000" stroke="none" 
	d="
M159.815109,95.957344 
	C159.140945,95.053505 157.848724,94.113571 157.899002,93.252029 
	C158.123566,89.406281 157.330719,86.137970 153.209686,85.172874 
	C148.887329,84.160622 145.334900,85.341377 143.611694,90.590500 
	C141.372101,90.533455 139.585098,90.121262 137.798096,89.709068 
	C135.236282,85.003197 135.249023,80.159897 137.122284,75.263062 
	C138.991302,70.377342 140.941299,65.522614 143.305084,60.243515 
	C144.157181,59.188007 144.559952,58.543289 144.962738,57.898575 
	C145.471222,57.282715 145.979706,56.666855 146.820190,56.306976 
	C147.450409,58.013615 147.748611,59.464268 148.045151,61.292206 
	C149.622070,67.348778 150.272766,68.014732 154.893372,64.889839 
	C161.897156,60.153206 167.908966,62.813732 174.117615,66.073776 
	C180.853409,69.610626 184.515396,75.588203 186.988922,82.478264 
	C188.036209,85.395515 189.210175,88.142204 193.283569,87.973831 
	C193.523224,87.971031 194.002441,87.983383 194.001572,88.347511 
	C194.001038,89.438965 194.001373,90.166290 193.697510,91.124985 
	C189.844223,92.370285 186.295151,93.384209 182.815155,94.378387 
	C179.196106,85.372917 172.590073,81.189461 165.630875,83.093117 
	C160.794266,84.416153 158.505341,89.479187 159.815109,95.957344 
z"/>
<path fill="#020402" opacity="1.000000" stroke="none" 
	d="
M370.543152,84.156693 
	C374.084351,83.437096 377.625549,82.717499 381.596619,82.371330 
	C383.641815,83.821976 385.197296,85.675850 386.885559,85.805969 
	C389.896271,86.038010 392.987274,85.228539 395.989624,84.932915 
	C395.934601,85.011238 395.932556,85.202698 395.992004,85.472122 
	C397.038757,85.826332 398.026123,85.911110 399.071503,86.368362 
	C399.144470,87.489624 399.159424,88.238426 399.066040,89.342400 
	C398.695862,91.123840 398.433990,92.550110 398.068024,94.368820 
	C397.028564,105.154793 396.093231,115.548332 394.831726,125.971115 
	C394.288025,126.018860 394.070496,126.037369 393.852966,126.055870 
	C394.081451,118.448280 394.197968,110.834831 394.595337,103.236069 
	C394.747498,100.326134 395.541290,97.449760 396.034821,94.603546 
	C390.347534,91.984909 382.996368,99.282684 378.341125,91.234505 
	C372.571198,92.205467 366.622467,93.206512 360.969391,94.157806 
	C361.563568,97.456566 362.813599,100.601357 362.390503,103.502106 
	C362.145325,105.182945 359.394867,107.319725 357.441284,107.749847 
	C353.952362,108.518021 353.584564,110.049561 354.379395,113.008766 
	C355.102203,115.699852 355.641235,118.476990 355.893616,121.249649 
	C356.335266,126.102699 354.830078,130.225052 349.892517,131.950562 
	C343.736450,134.101898 337.524445,136.308304 331.151306,137.499451 
	C329.092712,137.884201 326.449280,135.139542 324.683472,134.163605 
	C322.578125,135.277161 320.125610,137.475510 317.421967,137.847137 
	C306.200745,139.389572 300.927521,136.335526 296.039520,126.319084 
	C295.115021,124.424591 294.277985,122.487411 293.208252,119.948334 
	C293.331604,118.553848 293.647247,117.780960 294.214783,117.239700 
	C299.110229,127.877502 302.319824,130.312973 314.255981,129.907333 
	C317.757019,129.788345 321.352875,128.903442 321.252472,123.769310 
	C321.662567,122.966278 321.855560,122.386002 322.367798,121.968681 
	C324.189575,125.415138 325.361359,129.706802 329.985504,128.822906 
	C335.745941,127.721817 341.386292,125.818909 346.938690,123.864975 
	C350.515839,122.606148 352.481628,119.708488 352.174133,115.739548 
	C351.932098,112.615387 351.414764,109.513550 351.108978,106.393051 
	C350.799896,103.238434 350.173035,99.972969 354.995239,99.523811 
	C359.030975,99.147903 359.530121,96.327362 358.877106,92.587372 
	C357.416840,91.119415 356.043365,89.656105 354.363953,89.070885 
	C352.281128,88.345070 349.944855,88.346436 347.718079,88.033699 
	C349.819702,87.251213 351.863861,86.094460 354.034454,85.761246 
	C359.145447,84.976654 364.316803,84.584938 369.913452,84.269150 
	C370.423187,84.388229 370.483154,84.272453 370.543152,84.156693 
M379.352844,84.886620 
	C379.412140,84.855003 379.471436,84.823387 379.352844,84.886620 
z"/>
<path fill="#020200" opacity="1.000000" stroke="none" 
	d="
M293.962891,117.008080 
	C293.647247,117.780960 293.331604,118.553848 293.008423,119.652557 
	C289.445282,121.140297 285.889679,122.302208 282.482056,123.415771 
	C282.285980,123.974129 282.087524,124.280869 282.082581,124.590698 
	C281.926819,134.320755 277.848145,137.662994 266.485535,137.380844 
	C261.319763,137.252563 256.134430,136.830933 250.991074,137.123550 
	C242.737045,137.593185 235.379288,136.672745 231.732986,126.569679 
	C230.246887,135.994888 230.238785,136.220734 221.530746,135.908630 
	C216.461960,135.726974 211.431351,134.618744 206.370224,134.045197 
	C201.395782,133.481491 199.554047,130.608276 200.240082,125.192444 
	C200.644531,124.317024 200.821625,124.128960 201.169693,123.997330 
	C201.546967,124.180984 201.768753,124.269402 202.005997,124.319008 
	C205.070114,125.197594 208.134216,126.076180 212.031799,126.758263 
	C213.121109,126.404373 213.376938,126.247002 213.592987,126.063995 
	C213.553223,126.038345 213.454498,126.023430 213.802551,126.024490 
	C214.812393,126.193810 215.474167,126.362053 216.135941,126.530304 
	C219.671280,126.790565 223.206604,127.050819 226.817688,127.316650 
	C227.284363,124.782188 227.611862,123.003571 227.990387,120.400230 
	C228.966766,119.090141 229.892105,118.604774 230.817444,118.119400 
	C233.140076,124.144630 236.452499,128.869675 244.585358,128.348480 
	C246.304550,128.791138 247.378952,128.994980 248.404861,129.386322 
	C248.419373,129.447357 248.482361,129.320892 248.848557,129.115921 
	C249.767639,128.946426 250.383514,128.855438 250.999390,128.764465 
	C253.158417,128.281952 255.317444,127.799423 258.237610,127.495857 
	C259.277466,127.786713 259.556183,127.898621 259.995117,128.296707 
	C260.769592,128.785980 261.383881,128.989059 262.113464,129.509186 
	C263.819855,129.619476 265.411011,129.412735 267.380737,129.123291 
	C269.044708,128.938766 270.330078,128.836929 271.713440,128.854111 
	C271.895966,129.019730 271.980560,129.066330 272.065125,129.112930 
	C271.968140,128.929703 271.871155,128.746475 272.045227,128.349121 
	C274.605621,126.692337 276.894928,125.249657 279.556732,123.642685 
	C280.158936,123.003609 280.388672,122.528839 280.362640,122.345940 
	C279.798126,122.083931 279.489410,121.530052 279.474152,120.876335 
	C279.567383,120.281654 279.367126,119.786812 279.100952,118.933907 
	C279.778107,117.353180 280.238190,115.527824 281.317474,115.020950 
	C284.543030,113.506119 288.011108,112.507690 291.699463,111.195564 
	C292.547028,113.372093 293.254974,115.190086 293.962891,117.008080 
z"/>
<path fill="#020B08" opacity="1.000000" stroke="none" 
	d="
M494.663879,89.081131 
	C505.123871,104.785553 504.946564,120.817749 486.341187,129.309570 
	C473.193481,135.310410 460.008057,134.582779 447.424042,127.371979 
	C440.723877,123.532684 438.811646,113.402809 443.314758,107.114456 
	C445.241364,104.424011 447.291016,101.821686 449.799194,99.242508 
	C450.451019,99.440323 450.588409,99.574959 450.535950,99.986565 
	C448.285828,103.072098 446.087708,105.791412 444.197449,108.710136 
	C441.354736,113.099541 442.185272,116.295074 446.618622,119.102455 
	C459.231934,127.089745 479.660767,125.783493 491.041412,116.261955 
	C497.649780,110.733162 499.631256,102.544090 496.131561,94.589615 
	C495.345886,92.866447 494.633606,91.475967 494.112427,89.838425 
	C494.423615,89.421288 494.543732,89.251213 494.663879,89.081131 
z"/>
<path fill="#030704" opacity="1.000000" stroke="none" 
	d="
M199.988617,111.930580 
	C200.020660,112.393478 200.052704,112.856369 200.083649,114.052933 
	C200.112839,115.857635 200.143143,116.928688 200.173462,117.999733 
	C200.174240,119.454033 200.175018,120.908333 200.512009,122.837898 
	C200.956543,123.508453 201.006714,123.717697 200.998718,123.940887 
	C200.821625,124.128960 200.644531,124.317024 200.202576,124.787933 
	C198.981201,125.525780 197.737442,125.736183 197.110825,126.472099 
	C185.832932,139.716553 167.564529,137.444336 155.479050,126.863762 
	C149.224625,121.388145 143.779907,115.147583 142.036072,106.235748 
	C143.164017,106.786659 144.376266,107.580818 145.169113,108.678047 
	C151.976395,118.098679 160.037003,125.559326 172.230255,127.146103 
	C178.915756,128.016129 185.019867,126.607178 190.074265,122.317711 
	C193.540482,119.376068 196.295563,115.596504 199.683578,112.033798 
	C199.998611,111.876099 199.988617,111.930580 199.988617,111.930580 
z"/>
<path fill="#2CE3C7" opacity="1.000000" stroke="none" 
	d="
M148.046829,60.914921 
	C147.748611,59.464268 147.450409,58.013615 147.102203,56.189880 
	C154.610794,48.758148 166.417328,48.495171 174.715683,51.828312 
	C188.371933,57.313530 195.708511,68.173210 200.561340,81.614113 
	C200.257629,82.188950 200.078018,82.368080 199.898407,82.547211 
	C200.258316,82.678162 200.618240,82.809113 200.978149,82.940071 
	C200.978149,82.940071 201.048309,82.803253 200.985779,83.154434 
	C200.865112,83.968445 200.806992,84.431282 200.421326,84.985359 
	C198.063339,86.045532 196.032898,87.014458 194.002441,87.983383 
	C194.002441,87.983383 193.523224,87.971031 193.103485,87.678040 
	C191.452499,85.074448 189.935715,82.869347 189.036789,80.435997 
	C183.571594,65.641891 170.951141,58.490433 155.809311,61.454601 
	C153.351227,61.935802 150.640686,61.127293 148.046829,60.914921 
M170.071671,59.171173 
	C180.976410,63.157494 187.969757,70.855278 191.814865,81.709694 
	C192.251480,82.942238 193.958374,83.724792 195.076263,84.715996 
	C195.464661,83.174126 196.460876,81.492004 196.142715,80.113174 
	C194.093445,71.232109 188.543884,64.567902 181.402359,59.390049 
	C173.350708,53.552322 164.378738,50.939121 154.600937,54.832848 
	C153.293503,55.353500 152.577209,57.358685 151.587158,58.676403 
	C153.084854,58.934673 154.585114,59.424107 156.079788,59.407673 
	C160.485001,59.359230 164.888016,59.110378 170.071671,59.171173 
z"/>
<path fill="#020200" opacity="1.000000" stroke="none" 
	d="
M429.834961,116.006844 
	C430.879059,119.612541 432.118835,123.175507 432.917999,126.834694 
	C433.931702,131.476135 432.701111,132.713425 427.942444,133.022232 
	C418.722443,133.620544 409.509735,134.334930 400.297333,135.044281 
	C396.453125,135.340286 394.767731,133.573547 395.431213,129.400482 
	C396.901154,128.661255 397.951294,128.325256 398.962646,127.611183 
	C398.893555,126.981483 398.863251,126.729851 399.173950,126.356384 
	C409.233887,125.552643 418.952820,124.870735 429.361481,124.140427 
	C428.885071,121.004753 428.522797,118.620369 428.578857,116.176712 
	C429.276459,116.080574 429.555695,116.043709 429.834961,116.006844 
M430.473785,124.495178 
	C430.473785,124.495178 430.504547,124.524902 430.473785,124.495178 
z"/>
<path fill="#020200" opacity="1.000000" stroke="none" 
	d="
M448.930786,91.084656 
	C447.661774,90.066879 446.392761,89.049110 445.219055,88.107803 
	C444.579193,91.911438 441.719971,92.873779 438.059875,93.031479 
	C433.404877,93.232056 428.761597,93.703896 423.929993,94.694977 
	C423.486908,95.554939 423.227112,95.778725 422.922668,95.680359 
	C422.531281,94.564568 422.184479,93.770920 421.825012,92.631790 
	C421.484894,91.186188 421.157410,90.086060 420.886108,88.646690 
	C420.637756,87.225616 420.333282,86.143776 420.480438,84.988602 
	C425.284943,84.582100 429.637817,84.248932 434.385620,83.979721 
	C436.824707,83.358818 438.868835,82.673950 441.175293,81.611984 
	C442.158478,80.241562 442.879395,79.248253 443.480957,78.506348 
	C443.379089,79.031982 443.396667,79.306213 443.414246,79.580452 
	C443.498871,79.138878 443.583527,78.697304 443.926636,78.118576 
	C444.377930,78.011017 444.570740,78.040604 444.830566,78.371208 
	C445.086090,79.226456 445.274597,79.780685 445.592499,80.514511 
	C445.721893,80.694122 446.022339,81.019310 446.051941,81.360474 
	C447.107178,83.444016 448.132782,85.186386 449.122742,87.448128 
	C449.035004,89.006554 448.982910,90.045601 448.930786,91.084656 
z"/>
<path fill="#020B08" opacity="1.000000" stroke="none" 
	d="
M501.006561,58.430912 
	C506.013153,64.456444 506.183563,71.825706 501.660980,77.984375 
	C499.156891,81.394394 496.925079,85.004341 494.617218,88.802658 
	C494.543732,89.251213 494.423615,89.421288 493.895874,89.789154 
	C493.488251,89.986931 493.051422,89.906471 492.908447,89.602760 
	C487.927643,85.944847 483.089813,82.590645 478.251984,79.236443 
	C480.937469,79.681793 483.561798,80.601662 485.978363,81.906364 
	C487.858490,82.921432 489.246613,83.411621 490.379974,80.749008 
	C491.456055,79.101097 492.254822,77.606232 493.372070,75.986877 
	C498.526703,71.058098 502.296600,65.806320 501.006561,58.430912 
z"/>
<path fill="#31E4C8" opacity="1.000000" stroke="none" 
	d="
M294.543762,55.900913 
	C293.946838,60.600624 291.339935,62.622562 286.735352,61.973850 
	C282.700470,61.405399 280.107697,63.436546 278.543060,66.912384 
	C277.195099,69.906914 276.448883,73.250656 274.693024,75.957687 
	C273.363373,78.007660 270.862640,79.298042 268.463013,80.571693 
	C268.095123,79.751495 268.147278,79.286057 268.518890,78.837257 
	C269.592346,78.280769 270.346344,77.707649 271.353241,76.879593 
	C272.492676,74.336029 272.969696,71.753746 274.354553,69.822433 
	C276.916046,66.250145 280.009125,63.059025 283.322388,59.779625 
	C285.713501,59.841602 287.775909,60.233620 289.583984,59.723743 
	C291.871277,59.078724 293.243225,57.618652 289.790955,55.688450 
	C283.523376,52.924366 277.817505,55.182701 273.063477,61.784542 
	C271.850922,63.468410 270.284821,64.897667 268.573730,66.319199 
	C268.103027,66.045364 267.939697,65.896240 267.776367,65.747116 
	C269.155426,63.447529 270.422394,61.071281 271.933685,58.862183 
	C277.295288,51.025085 286.920807,49.205078 294.543762,55.900913 
z"/>
<path fill="#020D09" opacity="1.000000" stroke="none" 
	d="
M200.748871,84.894104 
	C200.806992,84.431282 200.865112,83.968445 201.057510,83.182083 
	C201.793137,77.017967 202.901291,71.177162 202.898865,65.336823 
	C202.892136,49.150017 205.440704,50.764061 216.596283,48.812950 
	C230.751846,46.337143 243.607681,49.714863 255.593903,57.195503 
	C256.281769,57.624802 256.805115,58.317722 257.401886,59.306046 
	C257.234253,59.847771 257.069763,59.971397 256.674377,60.046104 
	C256.443481,59.997185 255.972153,59.970901 255.974396,60.001358 
	C255.976624,60.031815 256.037415,60.025955 255.907684,59.707413 
	C255.348267,59.262978 254.918579,59.137081 254.495911,59.019569 
	C254.502930,59.027954 254.524643,59.030571 254.356964,58.741066 
	C253.783203,58.284664 253.377136,58.117764 252.974945,57.986748 
	C252.978821,58.022629 253.050842,58.017887 252.926788,57.700665 
	C252.373276,57.284573 251.943817,57.185707 251.300964,56.855667 
	C249.177353,55.785210 247.267120,54.945927 245.128845,53.773518 
	C244.116760,53.307503 243.332733,53.174614 242.542053,53.020870 
	C242.535400,53.000011 242.509476,53.035252 242.260162,52.713116 
	C241.215500,52.322502 240.420120,52.254028 239.552719,52.144882 
	C239.480682,52.104206 239.317337,52.130367 239.052109,51.789162 
	C231.002579,51.283199 223.218277,51.118450 215.462158,50.973118 
	C215.490356,50.992538 215.522461,50.932060 215.095520,50.911545 
	C213.423767,51.242119 212.178955,51.593212 210.969986,51.959732 
	C211.005814,51.975163 210.954681,51.916164 210.566010,51.910706 
	C204.656570,52.219501 204.688248,55.969418 205.099304,60.425163 
	C204.670639,66.220413 204.469559,71.605217 203.893494,76.949593 
	C203.568436,79.965302 202.626099,82.914490 201.673340,85.873466 
	C201.172852,85.533569 200.960861,85.213837 200.748871,84.894104 
z"/>
<path fill="#02D8B8" opacity="1.000000" stroke="none" 
	d="
M285.704376,96.649223 
	C287.318542,95.984421 288.909912,94.813927 290.550690,94.740105 
	C298.789825,94.369415 307.041809,94.285400 315.706848,94.016006 
	C316.443939,94.379898 316.763458,94.828461 317.000885,95.874054 
	C316.968506,97.640297 317.018250,98.809509 316.595276,99.983681 
	C306.473175,99.655029 296.823883,99.321419 287.067780,98.726044 
	C286.542114,97.859261 286.123260,97.254250 285.704376,96.649223 
z"/>
<path fill="#020B08" opacity="1.000000" stroke="none" 
	d="
M384.529846,53.155689 
	C384.048553,52.620052 383.567291,52.084423 383.320801,51.262726 
	C383.784943,50.950661 384.014313,50.924660 384.243683,50.898663 
	C398.722717,50.932068 413.204224,50.821686 427.679626,51.067982 
	C433.666138,51.169838 439.561523,52.196808 442.616028,58.875992 
	C442.241852,59.695976 442.053223,59.990013 441.636963,60.218666 
	C441.409302,60.153290 440.962860,59.994911 440.967133,60.011078 
	C440.971405,60.027245 440.996277,60.046642 440.990601,59.732536 
	C440.641815,58.943119 440.298706,58.467808 439.955444,58.011879 
	C439.955322,58.031261 439.991669,58.044846 439.946045,57.771400 
	C439.597656,57.313099 439.294922,57.128242 438.991272,56.976559 
	C438.990326,57.009731 439.056671,57.007454 438.954376,56.711506 
	C438.464508,56.300827 438.076904,56.186096 437.653809,56.005459 
	C437.618256,55.939548 437.482300,56.002335 437.284546,55.697563 
	C436.407074,55.173859 435.727417,54.954929 435.055603,54.801460 
	C435.063477,54.866917 435.191956,54.837196 434.952393,54.515797 
	C427.674072,53.784634 420.639740,53.169487 413.595367,53.016083 
	C404.385193,52.815514 395.167053,52.980087 385.596588,53.028412 
	C385.003815,53.098061 384.766815,53.126877 384.529846,53.155689 
z"/>
<path fill="#020B08" opacity="1.000000" stroke="none" 
	d="
M443.216675,60.705208 
	C443.796448,60.648159 444.657684,60.819275 444.915527,60.501240 
	C455.896149,46.957127 470.248596,45.969006 485.502716,50.268543 
	C490.861572,51.778980 495.624817,55.402718 500.345642,58.616417 
	C498.854950,58.844788 497.678589,58.518238 496.449097,58.137184 
	C496.395935,58.082687 496.239166,58.103985 496.079834,57.794632 
	C495.497711,57.391907 495.074921,57.298538 494.564301,57.154404 
	C494.476440,57.103642 494.274292,57.121830 494.138855,56.767181 
	C489.001221,54.387280 484.151611,51.305019 478.965088,50.555946 
	C468.039551,48.978012 457.227631,49.657993 448.685822,58.901844 
	C447.272278,60.413029 446.160156,61.772472 444.858765,62.884060 
	C444.185211,61.992542 443.700928,61.348877 443.216675,60.705208 
z"/>
<path fill="#071911" opacity="1.000000" stroke="none" 
	d="
M317.068024,99.978722 
	C317.018250,98.809509 316.968506,97.640297 317.055511,96.168030 
	C317.787262,89.570419 318.116394,83.236298 319.045807,76.991508 
	C320.161133,69.497032 319.900421,61.601463 324.839966,54.719528 
	C325.324463,54.967983 325.817017,55.621552 325.654175,55.940105 
	C320.278778,66.456001 320.435364,77.962990 319.619843,89.293015 
	C319.597565,89.602394 319.796326,89.927681 319.774475,90.828583 
	C319.678284,92.271355 319.699585,93.131073 319.640442,94.370331 
	C319.028351,96.563782 318.496704,98.377708 317.744141,100.124481 
	C317.523163,100.057320 317.068024,99.978722 317.068024,99.978722 
z"/>
<path fill="#071911" opacity="1.000000" stroke="none" 
	d="
M356.049072,47.807465 
	C351.785583,47.881763 347.520660,48.062229 343.258911,48.006023 
	C336.500427,47.916885 331.158264,51.220818 325.708801,54.508682 
	C329.596375,48.457687 335.835541,46.642246 342.143799,46.154423 
	C349.172241,45.610897 356.299835,46.349674 363.324402,46.771648 
	C360.859406,47.277836 358.454224,47.542652 356.049072,47.807465 
z"/>
<path fill="#1FDEC1" opacity="1.000000" stroke="none" 
	d="
M496.502228,58.191681 
	C497.678589,58.518238 498.854950,58.844788 500.621826,58.941849 
	C501.212341,58.712360 501.061340,58.500271 501.033936,58.465591 
	C502.296600,65.806320 498.526703,71.058098 493.266296,75.599060 
	C492.765289,75.078949 492.688629,74.822144 492.695343,74.231964 
	C493.833405,71.855492 494.604736,69.588295 496.004578,67.818161 
	C498.546661,64.603676 498.487061,61.511040 496.502228,58.191681 
z"/>
<path fill="#020D09" opacity="1.000000" stroke="none" 
	d="
M268.199463,78.820618 
	C268.147278,79.286057 268.095123,79.751495 268.087891,80.565735 
	C266.746887,83.950462 265.360931,86.986389 263.656097,90.505302 
	C262.907349,91.363708 262.477509,91.739128 261.999023,91.703568 
	C261.920868,91.018280 261.891327,90.743973 261.922516,90.142105 
	C263.063049,87.571373 264.142822,85.328201 265.528717,82.812706 
	C265.832397,80.853775 265.829956,79.167168 265.863647,77.103928 
	C264.633179,73.298668 263.366577,69.870056 261.945404,65.910706 
	C261.535828,65.113914 261.280823,64.847862 261.025818,64.581818 
	C262.210083,65.254082 263.334503,66.103920 264.601379,66.531143 
	C265.346069,66.782265 266.317261,66.361702 267.481445,65.995178 
	C267.939697,65.896240 268.103027,66.045364 268.481628,66.387115 
	C268.696899,66.579742 268.644989,66.803879 268.375244,67.128433 
	C268.070587,69.732292 268.035706,72.011597 267.992126,74.447052 
	C267.983490,74.603210 268.152618,74.866333 268.092102,75.264603 
	C268.087555,76.715446 268.143494,77.768036 268.199463,78.820618 
z"/>
<path fill="#03C9AB" opacity="1.000000" stroke="none" 
	d="
M137.494202,89.907448 
	C139.585098,90.121262 141.372101,90.533455 143.551483,90.950974 
	C144.574875,93.070694 145.205856,95.185104 145.903336,97.522339 
	C144.235016,97.959976 142.432907,98.432709 140.263092,98.972733 
	C138.993713,96.061951 138.091995,93.083893 137.494202,89.907448 
z"/>
<path fill="#020B08" opacity="1.000000" stroke="none" 
	d="
M422.967285,96.002502 
	C423.227112,95.778725 423.486908,95.554939 423.890228,95.115944 
	C426.000641,101.675568 427.967560,108.450409 429.884705,115.616043 
	C429.555695,116.043709 429.276459,116.080574 428.501923,115.828903 
	C426.326874,109.027733 424.647095,102.515114 422.967285,96.002502 
z"/>
<path fill="#020D09" opacity="1.000000" stroke="none" 
	d="
M356.506805,47.886734 
	C358.454224,47.542652 360.859406,47.277836 363.692505,46.978600 
	C370.868958,47.072731 377.778992,46.233395 384.061859,50.570206 
	C384.014313,50.924660 383.784943,50.950661 383.211304,51.013611 
	C379.865387,50.316963 376.863770,49.583366 373.468262,48.928669 
	C373.074371,49.007568 373.142548,48.967888 373.142548,48.967888 
	C367.749878,48.633926 362.357208,48.299965 356.506805,47.886734 
z"/>
<path fill="#020200" opacity="1.000000" stroke="none" 
	d="
M451.184875,95.978348 
	C450.526581,94.880745 449.868256,93.783150 449.539185,92.327179 
	C450.606537,91.228981 451.344666,90.489143 452.367004,89.900696 
	C453.483734,90.678055 454.316345,91.304031 455.459717,92.329376 
	C455.607788,93.497772 455.445038,94.266785 454.991577,95.074448 
	C454.222931,95.444023 453.744995,95.774940 452.920776,96.073502 
	C452.111328,96.020210 451.648071,95.999283 451.184875,95.978348 
z"/>
<path fill="#020B08" opacity="1.000000" stroke="none" 
	d="
M452.082825,89.749329 
	C451.344666,90.489143 450.606537,91.228981 449.520508,91.995613 
	C449.172577,92.022408 449.008057,91.565170 448.969421,91.324913 
	C448.982910,90.045601 449.035004,89.006554 449.435577,87.599144 
	C450.550293,88.070305 451.316559,88.909821 452.082825,89.749329 
z"/>
<path fill="#020B08" opacity="1.000000" stroke="none" 
	d="
M399.001465,127.989258 
	C397.951294,128.325256 396.901154,128.661255 395.502838,128.996704 
	C394.778351,128.224228 394.402039,127.452309 393.939331,126.368126 
	C394.070496,126.037369 394.288025,126.018860 395.083618,125.989151 
	C396.139771,126.116417 396.617889,126.254890 397.225464,126.699234 
	C397.903778,127.333145 398.452637,127.661201 399.001465,127.989258 
z"/>
<path fill="#020200" opacity="1.000000" stroke="none" 
	d="
M443.185486,60.420433 
	C443.700928,61.348877 444.185211,61.992542 444.759918,63.540382 
	C443.991333,65.418053 443.132355,66.391541 442.187988,66.777863 
	C442.023315,64.221825 441.943939,62.252934 441.864594,60.284042 
	C442.053223,59.990013 442.241852,59.695976 442.623657,59.224411 
	C442.929352,59.409805 443.041840,59.772728 443.185486,60.420433 
z"/>
<path fill="#020D09" opacity="1.000000" stroke="none" 
	d="
M257.653595,59.550026 
	C259.297394,61.036526 260.686371,62.697140 261.276855,64.186432 
	C260.229736,63.826431 259.981018,63.637768 259.644531,63.300327 
	C259.151703,62.808216 258.746735,62.464886 258.185181,61.845955 
	C257.678619,61.362305 257.328644,61.154255 256.980042,60.980804 
	C256.981384,61.015400 257.050659,61.014538 257.027985,60.782494 
	C257.005310,60.550453 256.905273,60.095020 256.905273,60.095020 
	C257.069763,59.971397 257.234253,59.847771 257.653595,59.550026 
z"/>
<path fill="#020B08" opacity="1.000000" stroke="none" 
	d="
M451.102386,96.290382 
	C451.648071,95.999283 452.111328,96.020210 452.829163,96.381561 
	C452.297791,97.717857 451.511780,98.713730 450.725769,99.709602 
	C450.588409,99.574959 450.451019,99.440323 450.107727,99.103569 
	C450.274536,98.135101 450.647247,97.368759 451.102386,96.290382 
z"/>
<path fill="#02DAB9" opacity="1.000000" stroke="none" 
	d="
M304.043640,67.626953 
	C303.410492,66.872162 302.717194,65.778938 302.037231,64.308754 
	C302.694855,65.050705 303.339203,66.169617 304.043640,67.626953 
z"/>
<path fill="#02DAB9" opacity="1.000000" stroke="none" 
	d="
M310.024231,78.792847 
	C309.431061,78.978043 308.952515,78.884216 308.473938,78.790390 
	C308.819397,78.539474 309.164886,78.288567 309.748657,77.983833 
	C310.037567,78.124626 310.088226,78.319237 310.024231,78.792847 
z"/>
<path fill="#02DAB9" opacity="1.000000" stroke="none" 
	d="
M308.884552,74.743332 
	C308.335327,74.516006 307.762177,73.989685 307.182343,73.152115 
	C307.737335,73.375351 308.298981,73.909843 308.884552,74.743332 
z"/>
<path fill="#02DDBC" opacity="1.000000" stroke="none" 
	d="
M144.685730,58.010963 
	C144.559952,58.543289 144.157181,59.188007 143.462433,59.917480 
	C143.583221,59.375942 143.995987,58.749649 144.685730,58.010963 
z"/>
<path fill="#07E0BF" opacity="1.000000" stroke="none" 
	d="
M200.997559,82.673927 
	C200.618240,82.809113 200.258316,82.678162 199.898407,82.547211 
	C200.078018,82.368080 200.257629,82.188950 200.639816,81.956619 
	C200.900574,82.071548 200.958771,82.239670 200.997559,82.673927 
z"/>
<path fill="#07E0BF" opacity="1.000000" stroke="none" 
	d="
M259.732330,63.449108 
	C259.981018,63.637768 260.229736,63.826431 260.816315,64.338371 
	C261.154205,64.661644 261.054993,64.663116 260.963318,64.810455 
	C260.871674,64.957802 260.683624,65.310020 260.452209,65.045517 
	C260.057983,64.337044 259.895142,63.893074 259.732330,63.449108 
z"/>
<path fill="#07E0BF" opacity="1.000000" stroke="none" 
	d="
M261.013000,64.622314 
	C261.280823,64.847862 261.535828,65.113914 261.671997,65.762054 
	C261.263336,65.866096 260.973480,65.588051 260.683624,65.310013 
	C260.683624,65.310020 260.871674,64.957802 260.936340,64.768829 
	C261.001007,64.579865 261.000183,64.662819 261.013000,64.622314 
z"/>
<path fill="#02DAB9" opacity="1.000000" stroke="none" 
	d="
M301.997498,63.713196 
	C301.817139,63.755230 301.554382,63.541588 301.163300,63.106697 
	C301.328369,63.076141 301.621735,63.266830 301.997498,63.713196 
z"/>
<path fill="#03DEBD" opacity="1.000000" stroke="none" 
	d="
M265.222595,83.085022 
	C264.142822,85.328201 263.063049,87.571373 261.634125,90.347786 
	C257.200134,93.630638 253.115295,96.380249 249.030457,99.129860 
	C246.332352,98.660286 243.639709,97.836174 240.934998,97.794327 
	C235.158554,97.704994 230.953873,95.733017 229.549942,89.333771 
	C232.886856,87.419281 236.446457,85.873276 235.598709,81.574081 
	C234.882095,77.939964 231.940720,76.593529 227.832764,76.771248 
	C227.832764,80.710762 227.832764,84.334869 227.832764,87.958969 
	C220.787262,85.900528 216.067123,87.953049 212.749405,94.897499 
	C211.945587,96.579979 207.075821,96.319946 203.537079,96.701355 
	C202.703308,96.263634 202.408173,96.077713 202.108932,95.510880 
	C202.068939,93.012070 202.033066,90.894180 201.996216,88.415894 
	C201.984085,87.334885 201.972946,86.614258 201.961807,85.893639 
	C202.626099,82.914490 203.568436,79.965302 203.893494,76.949593 
	C204.469559,71.605217 204.670639,66.220413 205.469635,60.500206 
	C209.129166,60.765312 212.325531,61.691109 215.571640,61.924095 
	C219.878326,62.233200 224.234955,61.801636 228.550400,62.042145 
	C238.621811,62.603420 247.430130,66.050438 253.581039,74.441917 
	C256.625793,78.595757 260.010498,81.992531 265.222595,83.085022 
M209.846634,72.109169 
	C209.124176,73.473244 208.401703,74.837326 207.679245,76.201401 
	C208.895721,76.768356 210.140671,77.815437 211.319397,77.745567 
	C212.211441,77.692688 213.867920,75.693550 213.722794,75.456970 
	C212.934113,74.171181 211.691681,73.163719 209.846634,72.109169 
z"/>
<path fill="#010A08" opacity="1.000000" stroke="none" 
	d="
M201.997192,88.776291 
	C202.033066,90.894180 202.068939,93.012070 201.903717,95.706711 
	C201.565781,96.414009 201.428970,96.544548 200.983887,96.438225 
	C194.175690,96.831810 187.675766,97.462265 181.095871,97.734497 
	C177.914505,92.117058 172.805984,89.512787 168.055710,91.189789 
	C164.001434,92.621071 162.270859,95.744972 162.975067,100.079628 
	C162.015381,98.909798 161.055679,97.739967 159.955551,96.263741 
	C158.505341,89.479187 160.794266,84.416153 165.630875,83.093117 
	C172.590073,81.189461 179.196106,85.372917 182.815155,94.378387 
	C186.295151,93.384209 189.844223,92.370285 194.077087,91.157089 
	C197.172989,90.230637 199.585083,89.503464 201.997192,88.776291 
z"/>
<path fill="#03B89D" opacity="1.000000" stroke="none" 
	d="
M200.991135,107.202309 
	C199.608002,107.801193 198.234772,108.890076 196.840118,108.918198 
	C188.739334,109.081581 180.631851,109.087074 172.530472,108.937752 
	C170.108078,108.893105 166.585159,109.426483 168.339676,104.593292 
	C173.080124,106.104225 176.687775,104.871895 180.274124,101.922531 
	C187.374222,103.016472 194.080048,104.000191 200.793396,105.264343 
	C200.864319,106.097282 200.927719,106.649796 200.991135,107.202309 
z"/>
<path fill="#000302" opacity="1.000000" stroke="none" 
	d="
M249.063416,99.476021 
	C253.115295,96.380249 257.200134,93.630638 261.573364,90.675339 
	C261.891327,90.743973 261.920868,91.018280 261.945374,92.033798 
	C261.697357,93.846573 261.454346,94.918144 261.124878,96.419983 
	C261.039978,98.896561 261.041565,100.942879 260.822205,103.341370 
	C260.332672,107.458679 260.063995,111.223824 259.615479,115.166336 
	C259.028015,115.875923 258.620453,116.408127 258.212860,116.940323 
	C255.174026,111.234276 252.135193,105.528229 249.063416,99.476021 
z"/>
<path fill="#F6DA0F" opacity="1.000000" stroke="none" 
	d="
M179.879837,101.812302 
	C176.687775,104.871895 173.080124,106.104225 168.401321,104.257324 
	C166.450912,102.997253 164.888916,101.814484 163.150986,100.355667 
	C162.270859,95.744972 164.001434,92.621071 168.055710,91.189789 
	C172.805984,89.512787 177.914505,92.117058 181.029633,98.073318 
	C180.655518,99.784332 180.267685,100.798317 179.879837,101.812302 
M168.445755,100.050232 
	C168.854187,100.336098 169.267319,100.873978 169.670273,100.866470 
	C172.098373,100.821190 174.550201,100.800476 176.926910,100.386200 
	C177.360382,100.310654 177.956879,97.725479 177.675781,97.544395 
	C175.574432,96.190796 173.295731,95.097122 171.013580,94.050743 
	C170.466965,93.800102 169.554794,93.790512 169.056335,94.085297 
	C166.636505,95.516411 164.170609,97.058838 168.445755,100.050232 
z"/>
<path fill="#000907" opacity="1.000000" stroke="none" 
	d="
M227.955872,88.230934 
	C227.832764,84.334869 227.832764,80.710762 227.832764,76.771248 
	C231.940720,76.593529 234.882095,77.939964 235.598709,81.574081 
	C236.446457,85.873276 232.886856,87.419281 229.372620,89.036484 
	C228.720520,88.945549 228.399750,88.724220 227.955872,88.230934 
z"/>
<path fill="#03AF95" opacity="1.000000" stroke="none" 
	d="
M213.632767,126.089638 
	C213.376938,126.247002 213.121109,126.404373 212.432251,126.686050 
	C212.774033,124.631798 213.548874,122.453262 214.323715,120.274719 
	C215.034317,120.356743 215.744919,120.438766 216.455521,120.520790 
	C216.455521,122.323463 216.455521,124.126144 216.295731,126.229568 
	C215.474167,126.362053 214.812393,126.193810 213.829071,126.041367 
	C213.507507,126.057182 213.632767,126.089638 213.632767,126.089638 
z"/>
<path fill="#020D09" opacity="1.000000" stroke="none" 
	d="
M258.270935,117.284485 
	C258.620453,116.408127 259.028015,115.875923 259.671814,115.587509 
	C259.883698,119.891045 259.859314,123.950790 259.834930,128.010529 
	C259.556183,127.898621 259.277466,127.786713 258.607727,127.446846 
	C258.494751,126.737495 258.772858,126.256104 259.342041,125.267639 
	C259.447235,123.496651 259.261414,122.232742 259.075562,120.968842 
	C258.826721,119.855446 258.577881,118.742043 258.270935,117.284485 
z"/>
<path fill="#010A08" opacity="1.000000" stroke="none" 
	d="
M201.281189,107.069145 
	C200.927719,106.649796 200.864319,106.097282 200.867126,104.867065 
	C201.052933,101.684601 201.172531,99.179848 201.292145,96.675095 
	C201.428970,96.544548 201.565781,96.414009 201.907837,96.087624 
	C202.408173,96.077713 202.703308,96.263634 203.098938,96.699745 
	C203.139267,98.353813 203.079102,99.757698 202.873245,101.818474 
	C202.879929,103.316704 203.032303,104.158035 203.184662,104.999374 
	C202.646851,105.644905 202.109039,106.290443 201.281189,107.069145 
z"/>
<path fill="#03AF95" opacity="1.000000" stroke="none" 
	d="
M250.924042,128.440918 
	C250.383514,128.855438 249.767639,128.946426 248.825897,129.132950 
	C248.500046,129.228500 248.453339,129.198822 248.453339,129.198822 
	C247.378952,128.994980 246.304550,128.791138 244.999878,128.351166 
	C246.796280,127.236237 248.823822,124.150902 250.924042,128.440918 
z"/>
<path fill="#03AF95" opacity="1.000000" stroke="none" 
	d="
M203.470581,104.948563 
	C203.032303,104.158035 202.879929,103.316704 202.905869,102.238617 
	C203.817993,102.467834 204.551804,102.933784 205.285614,103.399750 
	C204.775909,103.899086 204.266205,104.398422 203.470581,104.948563 
z"/>
<path fill="#03AF95" opacity="1.000000" stroke="none" 
	d="
M200.474411,117.898262 
	C200.143143,116.928688 200.112839,115.857635 200.172150,114.393417 
	C200.432968,115.265762 200.604172,116.531273 200.474411,117.898262 
z"/>
<path fill="#03AF95" opacity="1.000000" stroke="none" 
	d="
M258.843140,121.202629 
	C259.261414,122.232742 259.447235,123.496651 259.368408,124.983124 
	C258.939392,123.949265 258.775055,122.692841 258.843140,121.202629 
z"/>
<path fill="#03AF95" opacity="1.000000" stroke="none" 
	d="
M230.600586,118.005676 
	C229.892105,118.604774 228.966766,119.090141 227.952393,119.945351 
	C228.703476,119.507446 229.543610,118.699699 230.600586,118.005676 
z"/>
<path fill="#03AF95" opacity="1.000000" stroke="none" 
	d="
M219.176620,97.578308 
	C218.965759,98.063103 218.595398,98.379105 218.185043,98.629578 
	C218.148819,98.651688 217.851334,98.245735 217.675186,98.038597 
	C218.118927,97.823051 218.562668,97.607513 219.176620,97.578308 
z"/>
<path fill="#03AF95" opacity="1.000000" stroke="none" 
	d="
M201.169693,123.997330 
	C201.006714,123.717697 200.956543,123.508453 200.815643,123.154007 
	C201.149872,123.316803 201.516647,123.638748 201.944702,124.139847 
	C201.768753,124.269402 201.546967,124.180984 201.169693,123.997330 
z"/>
<path fill="#03AF95" opacity="1.000000" stroke="none" 
	d="
M213.484802,117.509384 
	C213.474747,117.485199 213.494873,117.533562 213.484802,117.509384 
z"/>
<path fill="#020D09" opacity="1.000000" stroke="none" 
	d="
M200.016556,111.855011 
	C200.034500,111.833923 200.132858,111.962578 200.132858,111.962578 
	C200.132858,111.962578 199.992325,111.824287 199.990479,111.877434 
	C199.988617,111.930580 199.998611,111.876099 200.016556,111.855011 
z"/>
<path fill="#03B096" opacity="1.000000" stroke="none" 
	d="
M259.995117,128.296707 
	C259.859314,123.950790 259.883698,119.891045 259.851715,115.410133 
	C260.063995,111.223824 260.332672,107.458679 261.167114,103.281143 
	C269.399750,97.999466 271.083771,98.131660 276.041534,104.392181 
	C277.166260,105.525726 278.232422,106.848450 279.352448,106.895752 
	C290.862457,107.381783 302.382660,107.619354 313.896454,108.026863 
	C316.887573,108.132713 318.625122,107.015373 318.943787,103.659348 
	C318.588531,102.286217 318.276794,101.238922 317.965088,100.191635 
	C318.496704,98.377708 319.028351,96.563782 320.037231,94.372437 
	C322.241669,93.621239 325.627045,95.106270 323.956909,90.924133 
	C324.441803,90.261658 324.986206,89.634346 325.401520,88.930809 
	C327.531372,85.322853 330.258850,82.622650 334.839752,83.063622 
	C339.782349,83.539421 341.557831,87.220551 342.697266,91.929657 
	C342.468842,96.400925 345.419464,94.964455 347.081757,94.815063 
	C351.020355,94.461090 354.915497,93.623604 358.828186,92.981583 
	C359.530121,96.327362 359.030975,99.147903 354.995239,99.523811 
	C350.173035,99.972969 350.799896,103.238434 351.108978,106.393051 
	C351.414764,109.513550 351.932098,112.615387 352.174133,115.739548 
	C352.481628,119.708488 350.515839,122.606148 346.938690,123.864975 
	C341.386292,125.818909 335.745941,127.721817 329.985504,128.822906 
	C325.361359,129.706802 324.189575,125.415138 322.353699,121.556381 
	C321.740112,117.742149 321.459839,114.503174 321.179565,111.264198 
	C320.557281,111.338936 319.934998,111.413673 319.312683,111.488411 
	C319.886932,115.656296 320.461182,119.824181 321.035400,123.992065 
	C321.352875,128.903442 317.757019,129.788345 314.255981,129.907333 
	C302.319824,130.312973 299.110229,127.877502 294.214783,117.239700 
	C293.254974,115.190086 292.547028,113.372093 291.699463,111.195564 
	C288.011108,112.507690 284.543030,113.506119 281.317474,115.020950 
	C280.238190,115.527824 279.778107,117.353180 279.041656,119.212860 
	C279.092438,120.225304 279.136536,120.600739 279.180664,120.976173 
	C279.489410,121.530052 279.798126,122.083931 279.889587,122.331497 
	C279.509644,122.619110 279.346954,123.213043 279.184265,123.806976 
	C276.894928,125.249657 274.605621,126.692337 272.030731,128.415344 
	C271.745178,128.695663 271.615479,128.735092 271.615479,128.735092 
	C270.330078,128.836929 269.044708,128.938766 266.965454,129.076630 
	C264.780426,129.139160 263.389313,129.165649 261.998169,129.192139 
	C261.383881,128.989059 260.769592,128.785980 259.995117,128.296707 
M332.257172,111.162308 
	C332.309998,111.433517 332.362823,111.704727 332.415649,111.975937 
	C332.533325,111.916031 332.757751,111.839455 332.751434,111.798927 
	C332.709198,111.528419 332.617706,111.265602 332.257172,111.162308 
M332.355896,105.888527 
	C332.355896,105.888527 332.561859,106.179024 332.561859,106.179024 
	C332.561859,106.179024 332.531708,105.794952 332.355896,105.888527 
M331.466705,108.494820 
	C331.466705,108.494820 331.514771,108.474777 331.466705,108.494820 
z"/>
<path fill="#09DFBF" opacity="1.000000" stroke="none" 
	d="
M441.636963,60.218666 
	C441.943939,62.252934 442.023315,64.221825 442.221680,66.745888 
	C442.212860,67.693741 442.084991,68.086418 441.985413,68.972305 
	C442.025757,71.865082 441.960144,74.270470 442.138580,76.657608 
	C442.163605,76.992241 443.385010,77.237442 444.134094,77.615524 
	C444.354492,77.908287 444.537140,78.029343 444.763550,78.070183 
	C444.570740,78.040604 444.377930,78.011017 443.906738,78.151810 
	C443.628387,78.322189 443.600311,78.254929 443.600342,78.254936 
	C442.879395,79.248253 442.158478,80.241562 440.763794,81.615326 
	C438.056915,82.635773 436.023773,83.275772 433.990662,83.915771 
	C429.637817,84.248932 425.284943,84.582100 420.279419,84.673019 
	C418.128265,84.018364 416.650116,83.380379 415.126892,83.243042 
	C412.413116,82.998352 409.672028,83.056412 407.120667,82.658890 
	C409.343567,78.766182 410.605194,74.648438 406.416656,72.393784 
	C404.078125,71.134979 399.715027,71.356079 397.447144,72.786140 
	C394.112213,74.889046 394.764618,78.751495 396.897217,82.238289 
	C396.527618,83.297562 396.286163,84.076080 396.044678,84.854591 
	C392.987274,85.228539 389.896271,86.038010 386.885559,85.805969 
	C385.197296,85.675850 383.641815,83.821976 382.015137,82.364639 
	C382.494537,81.358055 382.985352,80.731575 384.113159,80.054672 
	C385.185669,79.663330 385.621185,79.322403 386.056732,78.981476 
	C386.056732,78.981483 386.021240,79.034119 386.387024,78.874344 
	C386.897675,73.082542 387.042572,67.450516 387.643951,61.842773 
	C400.595398,61.893337 413.090607,61.881886 425.585205,61.961163 
	C432.252960,62.003468 433.257996,63.158482 434.124817,69.551262 
	C434.332703,71.084534 436.055298,72.412430 437.081238,73.834778 
	C438.393951,72.384796 440.520325,71.094536 440.843079,69.450249 
	C441.440277,66.407867 440.981720,63.158230 440.962860,59.994911 
	C440.962860,59.994911 441.409302,60.153290 441.636963,60.218666 
z"/>
<path fill="#80F0DF" opacity="1.000000" stroke="none" 
	d="
M373.056366,48.972485 
	C381.849091,54.005524 385.621002,62.280106 383.657745,72.874199 
	C383.407379,74.225220 381.853943,75.334770 380.904236,76.556198 
	C379.718506,75.391998 377.803162,74.395607 377.489288,73.030884 
	C376.677002,69.499214 376.467224,65.812462 376.209625,62.173988 
	C375.903015,57.843529 373.521912,55.869583 369.385986,55.967213 
	C361.255127,56.159142 353.128693,56.601357 344.997742,56.688107 
	C342.333374,56.716530 337.914642,58.704628 337.600616,54.455875 
	C337.320099,50.660915 341.640442,50.228626 344.816498,50.094242 
	C353.940765,49.708183 363.071442,49.473370 372.671082,49.073502 
	C373.142548,48.967888 373.074371,49.007568 373.056366,48.972485 
z"/>
<path fill="#03C1A4" opacity="1.000000" stroke="none" 
	d="
M358.877106,92.587372 
	C354.915497,93.623604 351.020355,94.461090 347.081757,94.815063 
	C345.419464,94.964455 342.468842,96.400925 342.756836,92.283386 
	C344.335114,90.679535 345.701660,89.341049 347.393127,88.018135 
	C349.944855,88.346436 352.281128,88.345070 354.363953,89.070885 
	C356.043365,89.656105 357.416840,91.119415 358.877106,92.587372 
z"/>
<path fill="#000907" opacity="1.000000" stroke="none" 
	d="
M387.187439,61.818497 
	C387.042572,67.450516 386.897675,73.082542 386.362610,78.894623 
	C385.581482,70.709541 385.190613,62.344398 384.664795,53.567474 
	C384.766815,53.126877 385.003815,53.098061 385.635193,53.332230 
	C386.089325,53.790462 386.149078,53.985703 386.188232,54.464176 
	C386.447723,55.221012 386.727814,55.694611 386.979584,56.529030 
	C387.022736,57.616356 387.094177,58.342869 387.094910,59.410957 
	C387.078583,60.441185 387.133026,61.129841 387.187439,61.818497 
z"/>
<path fill="#03B096" opacity="1.000000" stroke="none" 
	d="
M326.705505,73.679794 
	C326.857574,75.500610 326.687561,77.135452 326.517578,78.770279 
	C325.448151,78.244431 324.378723,77.718582 323.309296,77.192726 
	C324.334015,75.959755 325.358734,74.726784 326.705505,73.679794 
z"/>
<path fill="#03AF95" opacity="1.000000" stroke="none" 
	d="
M323.486359,90.945625 
	C325.627045,95.106270 322.241669,93.621239 320.117676,93.992912 
	C319.699585,93.131073 319.678284,92.271355 319.907959,91.214348 
	C321.111267,91.000420 322.063538,90.983772 323.486359,90.945625 
z"/>
<path fill="#000907" opacity="1.000000" stroke="none" 
	d="
M385.826599,78.662598 
	C385.621185,79.322403 385.185669,79.663330 384.425262,79.984222 
	C384.599060,79.424042 385.097748,78.883881 385.826599,78.662598 
z"/>
<path fill="#020B08" opacity="1.000000" stroke="none" 
	d="
M370.523071,84.174232 
	C370.483154,84.272453 370.423187,84.388229 370.411011,84.333160 
	C370.458801,84.162315 370.502991,84.191780 370.523071,84.174232 
z"/>
<path fill="#02D8B8" opacity="1.000000" stroke="none" 
	d="
M261.211304,95.989708 
	C261.454346,94.918144 261.697357,93.846573 261.994019,92.444778 
	C262.477509,91.739128 262.907349,91.363708 263.596161,90.850845 
	C268.358551,91.810539 272.870483,92.874588 277.359680,94.027229 
	C278.535461,94.329117 279.640594,94.906052 280.773651,96.029243 
	C279.974396,97.759918 279.179657,98.818016 278.140686,99.515480 
	C272.334686,98.099800 266.773010,97.044754 261.211304,95.989708 
z"/>
<path fill="#000E0C" opacity="1.000000" stroke="none" 
	d="
M278.384949,99.876114 
	C279.179657,98.818016 279.974396,97.759918 280.896515,96.394516 
	C282.322906,96.240273 283.621918,96.393333 285.312653,96.597809 
	C286.123260,97.254250 286.542114,97.859261 287.002991,99.097855 
	C287.085724,100.482910 287.126526,101.234375 286.966125,102.313568 
	C283.502960,103.093376 280.241058,103.545464 277.162384,103.736748 
	C277.692078,102.276009 278.038513,101.076065 278.384949,99.876114 
z"/>
<path fill="#02DAB9" opacity="1.000000" stroke="none" 
	d="
M301.976318,81.443123 
	C301.251404,81.611870 300.769196,81.728569 300.312042,81.665039 
	C300.088501,81.633972 299.911591,81.267517 298.929443,80.202858 
	C300.774384,80.386292 301.789978,80.487267 302.805542,80.588242 
	C302.742462,80.733284 302.704468,80.898262 302.609375,81.017845 
	C302.511749,81.140633 302.358307,81.219025 301.976318,81.443123 
z"/>
<path fill="#02DAB9" opacity="1.000000" stroke="none" 
	d="
M295.152771,79.603386 
	C294.984558,79.637474 294.887909,79.590897 294.791290,79.544312 
	C294.935638,79.537109 295.080017,79.529915 295.152771,79.603386 
z"/>
<path fill="#02DAB9" opacity="1.000000" stroke="none" 
	d="
M296.482300,81.509018 
	C296.470917,81.482468 296.493652,81.535568 296.482300,81.509018 
z"/>
<path fill="#07E0BF" opacity="1.000000" stroke="none" 
	d="
M148.045151,61.292206 
	C150.640686,61.127293 153.351227,61.935802 155.809311,61.454601 
	C170.951141,58.490433 183.571594,65.641891 189.036789,80.435997 
	C189.935715,82.869347 191.452499,85.074448 192.863815,87.680832 
	C189.210175,88.142204 188.036209,85.395515 186.988922,82.478264 
	C184.515396,75.588203 180.853409,69.610626 174.117615,66.073776 
	C167.908966,62.813732 161.897156,60.153206 154.893372,64.889839 
	C150.272766,68.014732 149.622070,67.348778 148.045151,61.292206 
z"/>
<path fill="#07E0BF" opacity="1.000000" stroke="none" 
	d="
M201.996216,88.415894 
	C199.585083,89.503464 197.172989,90.230637 194.381302,90.925720 
	C194.001373,90.166290 194.001038,89.438965 194.001572,88.347511 
	C196.032898,87.014458 198.063339,86.045532 200.421326,84.985352 
	C200.960861,85.213837 201.172852,85.533569 201.673340,85.873466 
	C201.972946,86.614258 201.984085,87.334885 201.996216,88.415894 
z"/>
<path fill="#03AF95" opacity="1.000000" stroke="none" 
	d="
M397.096008,126.393372 
	C396.617889,126.254890 396.139771,126.116417 395.409790,125.959900 
	C396.093231,115.548332 397.028564,105.154793 398.523743,94.373940 
	C406.668274,93.650169 414.252991,93.313721 421.837677,92.977264 
	C422.184479,93.770920 422.531281,94.564568 422.922668,95.680359 
	C424.647095,102.515114 426.326874,109.027733 428.083588,115.888168 
	C428.522797,118.620369 428.885071,121.004753 429.361481,124.140427 
	C418.952820,124.870735 409.233887,125.552643 398.889038,126.290543 
	C397.874054,126.362144 397.485046,126.377754 397.096008,126.393372 
z"/>
<path fill="#03D4B4" opacity="1.000000" stroke="none" 
	d="
M395.989624,84.932915 
	C396.286163,84.076080 396.527618,83.297562 397.213776,82.425842 
	C400.753082,82.551041 403.847748,82.769455 406.942383,82.987862 
	C409.672028,83.056412 412.413116,82.998352 415.126892,83.243042 
	C416.650116,83.380379 418.128265,84.018364 419.827759,84.746368 
	C420.333282,86.143776 420.637756,87.225616 420.428528,88.649521 
	C413.001343,88.990135 406.087830,88.988678 399.174347,88.987228 
	C399.159424,88.238426 399.144470,87.489624 398.956360,86.024033 
	C397.832977,85.272392 396.882782,85.237541 395.932556,85.202698 
	C395.932556,85.202698 395.934601,85.011238 395.989624,84.932915 
z"/>
<path fill="#03C5A8" opacity="1.000000" stroke="none" 
	d="
M399.066040,89.342400 
	C406.087830,88.988678 413.001343,88.990135 420.372375,88.988762 
	C421.157410,90.086060 421.484894,91.186188 421.825012,92.631790 
	C414.252991,93.313721 406.668274,93.650169 398.627869,93.981506 
	C398.433990,92.550110 398.695862,91.123840 399.066040,89.342400 
z"/>
<path fill="#01221D" opacity="1.000000" stroke="none" 
	d="
M321.252472,123.769310 
	C320.461182,119.824181 319.886932,115.656296 319.312683,111.488411 
	C319.934998,111.413673 320.557281,111.338936 321.179565,111.264198 
	C321.459839,114.503174 321.740112,117.742149 322.034485,121.393417 
	C321.855560,122.386002 321.662567,122.966278 321.252472,123.769310 
z"/>
<path fill="#020B08" opacity="1.000000" stroke="none" 
	d="
M395.992004,85.472122 
	C396.882782,85.237541 397.832977,85.272392 398.898315,85.651566 
	C398.026123,85.911110 397.038757,85.826332 395.992004,85.472122 
z"/>
<path fill="#020B08" opacity="1.000000" stroke="none" 
	d="
M379.441772,84.839195 
	C379.471436,84.823387 379.412140,84.855003 379.441772,84.839195 
z"/>
<path fill="#020402" opacity="1.000000" stroke="none" 
	d="
M262.113464,129.509186 
	C263.389313,129.165649 264.780426,129.139160 266.586853,129.159332 
	C265.411011,129.412735 263.819855,129.619476 262.113464,129.509186 
z"/>
<path fill="#020402" opacity="1.000000" stroke="none" 
	d="
M279.474121,120.876335 
	C279.136536,120.600739 279.092438,120.225304 279.107605,119.570915 
	C279.367126,119.786812 279.567383,120.281654 279.474121,120.876335 
z"/>
<path fill="#020402" opacity="1.000000" stroke="none" 
	d="
M271.759674,128.629456 
	C271.871155,128.746475 271.968140,128.929703 272.065125,129.112930 
	C271.980560,129.066330 271.895966,129.019730 271.713440,128.854111 
	C271.615479,128.735092 271.745178,128.695663 271.759674,128.629456 
z"/>
<path fill="#03B096" opacity="1.000000" stroke="none" 
	d="
M213.592987,126.063995 
	C213.632767,126.089638 213.507507,126.057182 213.481003,126.040306 
	C213.454498,126.023430 213.553223,126.038345 213.592987,126.063995 
z"/>
<path fill="#020402" opacity="1.000000" stroke="none" 
	d="
M279.556732,123.642685 
	C279.346954,123.213043 279.509644,122.619110 280.145386,122.039612 
	C280.388672,122.528839 280.158936,123.003609 279.556732,123.642685 
z"/>
<path fill="#020D09" opacity="1.000000" stroke="none" 
	d="
M248.404861,129.386322 
	C248.453339,129.198822 248.500046,129.228500 248.522705,129.211472 
	C248.482361,129.320892 248.419373,129.447357 248.404861,129.386322 
z"/>
<path fill="#03B096" opacity="1.000000" stroke="none" 
	d="
M450.535950,99.986565 
	C451.511780,98.713730 452.297791,97.717857 453.175415,96.413925 
	C453.744995,95.774940 454.222931,95.444023 455.174622,94.964172 
	C455.648346,94.815231 456.074615,94.767563 456.074615,94.767563 
	C456.074615,94.767563 456.443359,94.986732 456.719971,95.207245 
	C458.625702,96.272148 460.254822,97.116524 462.318909,97.970131 
	C464.961212,96.851006 470.584503,101.039902 468.982941,93.602402 
	C468.965607,92.471840 468.946045,91.717972 469.101746,90.670715 
	C475.329803,82.607239 480.629913,82.817139 486.963806,91.491196 
	C487.796997,96.590790 489.489716,97.143875 496.204956,94.922295 
	C499.631256,102.544090 497.649780,110.733162 491.041412,116.261955 
	C479.660767,125.783493 459.231934,127.089745 446.618622,119.102455 
	C442.185272,116.295074 441.354736,113.099541 444.197449,108.710136 
	C446.087708,105.791412 448.285828,103.072098 450.535950,99.986565 
z"/>
<path fill="#03C1A4" opacity="1.000000" stroke="none" 
	d="
M496.131561,94.589615 
	C489.489716,97.143875 487.796997,96.590790 487.373444,91.469765 
	C489.534912,90.658592 491.293152,90.282532 493.051422,89.906471 
	C493.051422,89.906471 493.488251,89.986931 493.704773,90.036209 
	C494.633606,91.475967 495.345886,92.866447 496.131561,94.589615 
z"/>
<path fill="#89F1E1" opacity="1.000000" stroke="none" 
	d="
M169.681778,59.055569 
	C164.888016,59.110378 160.485001,59.359230 156.079788,59.407673 
	C154.585114,59.424107 153.084854,58.934673 151.587158,58.676407 
	C152.577209,57.358685 153.293503,55.353500 154.600937,54.832848 
	C164.378738,50.939121 173.350708,53.552322 181.402359,59.390049 
	C188.543884,64.567902 194.093445,71.232109 196.142715,80.113174 
	C196.460876,81.492004 195.464661,83.174126 195.076263,84.716003 
	C193.958374,83.724792 192.251480,82.942238 191.814865,81.709694 
	C187.969757,70.855278 180.976410,63.157494 169.681778,59.055569 
z"/>
<path fill="#020402" opacity="1.000000" stroke="none" 
	d="
M397.225464,126.699226 
	C397.485046,126.377754 397.874054,126.362144 398.548004,126.412369 
	C398.863251,126.729851 398.893555,126.981483 398.962646,127.611191 
	C398.452637,127.661201 397.903778,127.333145 397.225464,126.699226 
z"/>
<path fill="#03AF95" opacity="1.000000" stroke="none" 
	d="
M430.489166,124.510040 
	C430.504547,124.524902 430.473785,124.495178 430.489166,124.510040 
z"/>
<path fill="#04DFBE" opacity="1.000000" stroke="none" 
	d="
M492.908447,89.602760 
	C491.293152,90.282532 489.534912,90.658592 487.367004,91.056091 
	C480.629913,82.817139 475.329803,82.607239 468.649170,90.681030 
	C463.730530,91.299828 459.439728,91.614914 455.148956,91.930008 
	C454.316345,91.304031 453.483734,90.678055 452.367004,89.900711 
	C451.316559,88.909821 450.550293,88.070305 449.471252,87.079773 
	C448.132782,85.186386 447.107178,83.444016 446.316620,81.292908 
	C446.590637,80.675682 446.629547,80.467186 446.668488,80.258698 
	C446.266693,80.284096 445.864868,80.309502 445.463074,80.334908 
	C445.274597,79.780685 445.086090,79.226456 444.830566,78.371208 
	C444.537140,78.029343 444.354492,77.908287 444.108521,77.123779 
	C443.983704,74.150497 444.046082,71.754196 443.860046,69.377342 
	C443.832886,69.030403 442.620850,68.776207 441.957092,68.479095 
	C442.084991,68.086418 442.212860,67.693741 442.307037,67.333038 
	C443.132355,66.391541 443.991333,65.418053 444.949219,63.788239 
	C446.160156,61.772472 447.272278,60.413029 448.696655,59.309822 
	C450.012360,65.083794 451.863037,66.255188 456.692444,63.525448 
	C464.755585,58.967876 473.181580,59.118103 481.750580,60.968254 
	C490.089142,62.768635 490.279022,63.494350 485.771729,70.883469 
	C482.471771,76.293343 483.407745,78.483765 489.651917,80.058350 
	C489.859863,80.110786 489.954926,80.610718 490.102631,80.902046 
	C489.246613,83.411621 487.858490,82.921432 485.978363,81.906364 
	C483.561798,80.601662 480.937469,79.681793 478.251984,79.236443 
	C483.089813,82.590645 487.927643,85.944847 492.908447,89.602760 
M462.780579,83.505219 
	C461.438416,82.862602 460.096222,82.219986 458.754059,81.577370 
	C458.698242,82.798126 458.642395,84.018883 458.586548,85.239632 
	C459.943878,84.908928 461.301208,84.578232 462.780579,83.505219 
z"/>
<path fill="#03D4B4" opacity="1.000000" stroke="none" 
	d="
M434.385620,83.979721 
	C436.023773,83.275772 438.056915,82.635773 440.501526,81.992432 
	C438.868835,82.673950 436.824707,83.358818 434.385620,83.979721 
z"/>
<path fill="#020B08" opacity="1.000000" stroke="none" 
	d="
M443.480927,78.506340 
	C443.600311,78.254929 443.628387,78.322189 443.648285,78.288956 
	C443.583527,78.697304 443.498871,79.138878 443.414246,79.580452 
	C443.396667,79.306213 443.379089,79.031982 443.480927,78.506340 
z"/>
<path fill="#39E4CA" opacity="1.000000" stroke="none" 
	d="
M490.379974,80.749008 
	C489.954926,80.610718 489.859863,80.110786 489.651917,80.058350 
	C483.407745,78.483765 482.471771,76.293343 485.771729,70.883469 
	C490.279022,63.494350 490.089142,62.768635 481.750580,60.968254 
	C473.181580,59.118103 464.755585,58.967876 456.692444,63.525448 
	C451.863037,66.255188 450.012360,65.083794 448.998108,59.158081 
	C457.227631,49.657993 468.039551,48.978012 478.965088,50.555946 
	C484.151611,51.305019 489.001221,54.387280 493.701843,56.772392 
	C487.467285,55.852970 481.575989,54.311905 475.591003,53.359798 
	C467.882507,52.133503 460.493774,53.182415 453.712128,58.182953 
	C453.216858,59.407993 453.021332,60.471790 452.825775,61.535580 
	C454.002441,61.098740 455.179077,60.661907 456.716095,60.143799 
	C460.373810,59.236538 463.671143,58.410545 467.245300,57.649445 
	C468.018433,57.485588 468.514740,57.256836 469.407715,57.043808 
	C470.862701,57.056721 471.921112,57.053909 473.216370,57.278553 
	C474.308990,57.518387 475.164673,57.530769 476.449860,57.635674 
	C480.897064,58.670887 484.979309,59.404854 488.912628,60.620644 
	C492.207642,61.639114 492.592255,64.034256 490.996460,66.972275 
	C489.821167,69.136169 488.852356,71.412224 487.531128,73.788513 
	C486.979248,74.629356 486.687744,75.319992 486.396210,76.010635 
	C486.937897,76.120491 487.479614,76.230354 488.381531,76.315536 
	C490.031799,75.715683 491.321899,75.140511 492.611969,74.565338 
	C492.688629,74.822144 492.765289,75.078949 492.947754,75.723557 
	C492.254822,77.606232 491.456055,79.101097 490.379974,80.749008 
z"/>
<path fill="#96F2E4" opacity="1.000000" stroke="none" 
	d="
M268.644958,66.803879 
	C268.644989,66.803879 268.696899,66.579742 268.789032,66.511826 
	C270.284821,64.897667 271.850922,63.468410 273.063477,61.784542 
	C277.817505,55.182701 283.523376,52.924366 289.662842,56.045303 
	C287.493530,57.674709 285.187164,58.691925 282.880768,59.709141 
	C280.009125,63.059025 276.916046,66.250145 274.354553,69.822433 
	C272.969696,71.753746 272.492676,74.336029 271.049469,76.780457 
	C269.712769,76.246277 268.932678,75.556305 268.152618,74.866333 
	C268.152618,74.866333 267.983490,74.603210 268.141113,74.079697 
	C268.414154,71.305420 268.529572,69.054649 268.644958,66.803879 
z"/>
<path fill="#6EEEDA" opacity="1.000000" stroke="none" 
	d="
M283.322388,59.779625 
	C285.187164,58.691925 287.493530,57.674709 289.928009,56.300636 
	C293.243225,57.618652 291.871277,59.078724 289.583984,59.723743 
	C287.775909,60.233620 285.713501,59.841602 283.322388,59.779625 
z"/>
<path fill="#65EDD8" opacity="1.000000" stroke="none" 
	d="
M268.092102,75.264603 
	C268.932678,75.556305 269.712769,76.246277 270.796600,77.035393 
	C270.346344,77.707649 269.592346,78.280769 268.518890,78.837257 
	C268.143494,77.768036 268.087555,76.715446 268.092102,75.264603 
z"/>
<path fill="#7BEFDD" opacity="1.000000" stroke="none" 
	d="
M260.452209,65.045509 
	C260.973480,65.588051 261.263336,65.866096 261.826599,66.292786 
	C263.366577,69.870056 264.633179,73.298668 265.468781,77.180450 
	C261.613220,78.515732 259.444061,77.150475 257.681702,74.145638 
	C254.217987,68.239952 249.126205,64.208412 242.767700,61.521004 
	C234.334351,57.956673 225.585098,58.534233 216.805252,58.785046 
	C209.545410,58.992443 209.008850,58.312000 210.954681,51.916164 
	C210.954681,51.916164 211.005814,51.975163 211.364807,52.067654 
	C212.990005,51.750786 214.256241,51.341427 215.522461,50.932060 
	C215.522461,50.932060 215.490356,50.992538 215.959930,51.075912 
	C224.058777,51.482983 231.688065,51.806675 239.317337,52.130367 
	C239.317337,52.130367 239.480682,52.104206 239.865967,52.386181 
	C241.003998,52.790520 241.756729,52.912884 242.509476,53.035252 
	C242.509476,53.035252 242.535400,53.000011 242.838013,53.283352 
	C243.879395,53.746677 244.618134,53.926662 245.356888,54.106644 
	C247.267120,54.945927 249.177353,55.785210 251.502869,57.098343 
	C252.295700,57.720757 252.673279,57.869324 253.050842,58.017887 
	C253.050842,58.017887 252.978821,58.022629 253.140747,58.282440 
	C253.710007,58.705025 254.117325,58.867798 254.524643,59.030571 
	C254.524643,59.030571 254.502930,59.027954 254.688873,59.283752 
	C255.262344,59.701687 255.649872,59.863819 256.037415,60.025955 
	C256.037415,60.025955 255.976624,60.031815 256.041504,60.270950 
	C256.421112,60.678234 256.735901,60.846382 257.050659,61.014534 
	C257.050659,61.014538 256.981384,61.015400 257.100952,61.280426 
	C257.594238,61.737492 257.967987,61.929523 258.341736,62.121552 
	C258.746735,62.464886 259.151703,62.808216 259.644531,63.300327 
	C259.895142,63.893074 260.057983,64.337044 260.452209,65.045509 
z"/>
<path fill="#07E0BF" opacity="1.000000" stroke="none" 
	d="
M210.566010,51.910706 
	C209.008850,58.312000 209.545410,58.992443 216.805252,58.785046 
	C225.585098,58.534233 234.334351,57.956673 242.767700,61.521004 
	C249.126205,64.208412 254.217987,68.239952 257.681702,74.145638 
	C259.444061,77.150475 261.613220,78.515732 265.432617,77.557083 
	C265.829956,79.167168 265.832397,80.853775 265.528717,82.812698 
	C260.010498,81.992531 256.625793,78.595757 253.581039,74.441917 
	C247.430130,66.050438 238.621811,62.603420 228.550400,62.042145 
	C224.234955,61.801636 219.878326,62.233200 215.571640,61.924095 
	C212.325531,61.691109 209.129166,60.765312 205.540329,60.072845 
	C204.688248,55.969418 204.656570,52.219501 210.566010,51.910706 
z"/>
<path fill="#07E0BF" opacity="1.000000" stroke="none" 
	d="
M239.052109,51.789162 
	C231.688065,51.806675 224.058777,51.482983 215.931732,51.056492 
	C223.218277,51.118450 231.002579,51.283199 239.052109,51.789162 
z"/>
<path fill="#07E0BF" opacity="1.000000" stroke="none" 
	d="
M215.095520,50.911545 
	C214.256241,51.341427 212.990005,51.750786 211.328979,52.052223 
	C212.178955,51.593212 213.423767,51.242119 215.095520,50.911545 
z"/>
<path fill="#07E0BF" opacity="1.000000" stroke="none" 
	d="
M242.260162,52.713116 
	C241.756729,52.912884 241.003998,52.790520 239.938004,52.426857 
	C240.420120,52.254028 241.215500,52.322502 242.260162,52.713116 
z"/>
<path fill="#07E0BF" opacity="1.000000" stroke="none" 
	d="
M245.128845,53.773514 
	C244.618134,53.926662 243.879395,53.746677 242.844666,53.304211 
	C243.332733,53.174614 244.116760,53.307503 245.128845,53.773514 
z"/>
<path fill="#07E0BF" opacity="1.000000" stroke="none" 
	d="
M255.907684,59.707413 
	C255.649872,59.863819 255.262344,59.701687 254.681854,59.275368 
	C254.918579,59.137081 255.348267,59.262978 255.907684,59.707413 
z"/>
<path fill="#07E0BF" opacity="1.000000" stroke="none" 
	d="
M257.027985,60.782494 
	C256.735901,60.846382 256.421112,60.678234 256.039246,60.240494 
	C255.972153,59.970901 256.443481,59.997185 256.674377,60.046104 
	C256.905273,60.095020 257.005310,60.550453 257.027985,60.782494 
z"/>
<path fill="#07E0BF" opacity="1.000000" stroke="none" 
	d="
M254.356964,58.741066 
	C254.117325,58.867798 253.710007,58.705025 253.136871,58.246559 
	C253.377136,58.117764 253.783203,58.284664 254.356964,58.741066 
z"/>
<path fill="#07E0BF" opacity="1.000000" stroke="none" 
	d="
M252.926788,57.700665 
	C252.673279,57.869324 252.295700,57.720757 251.716248,57.329514 
	C251.943817,57.185707 252.373276,57.284573 252.926788,57.700665 
z"/>
<path fill="#03CDAE" opacity="1.000000" stroke="none" 
	d="
M287.167297,101.985840 
	C287.126526,101.234375 287.085724,100.482910 287.109741,99.359619 
	C296.823883,99.321419 306.473175,99.655029 316.595276,99.983681 
	C317.068024,99.978722 317.523163,100.057320 317.744110,100.124474 
	C318.276794,101.238922 318.588531,102.286217 318.480835,103.665695 
	C307.763336,103.327194 297.465302,102.656517 287.167297,101.985840 
z"/>
<path fill="#57EBD5" opacity="1.000000" stroke="none" 
	d="
M387.643951,61.842773 
	C387.133026,61.129841 387.078583,60.441185 387.503540,59.431934 
	C390.782562,59.392956 393.579865,59.887695 396.382233,59.918072 
	C406.693054,60.029831 417.007111,59.887844 427.316925,60.042839 
	C432.998718,60.128258 435.214447,62.409088 436.023102,68.051720 
	C436.160309,69.008980 436.762909,69.899544 437.320465,71.224968 
	C441.212677,64.301964 438.574066,57.685001 431.304504,57.235077 
	C416.573395,56.323341 401.777222,56.462383 387.007874,56.168213 
	C386.727814,55.694611 386.447723,55.221012 386.642822,54.432728 
	C403.142670,54.357761 419.167328,54.597477 435.191956,54.837196 
	C435.191956,54.837196 435.063477,54.866917 435.246765,55.114960 
	C436.114166,55.576115 436.798218,55.789223 437.482300,56.002335 
	C437.482300,56.002335 437.618256,55.939548 437.840332,56.224953 
	C438.393799,56.676056 438.725250,56.841751 439.056671,57.007450 
	C439.056671,57.007454 438.990326,57.009731 439.070648,57.228180 
	C439.431213,57.646030 439.711426,57.845436 439.991669,58.044846 
	C439.991669,58.044846 439.955322,58.031261 439.951263,58.319115 
	C440.296906,59.086857 440.646606,59.566746 440.996277,60.046638 
	C440.996277,60.046642 440.971405,60.027245 440.967133,60.011078 
	C440.981720,63.158230 441.440277,66.407867 440.843079,69.450249 
	C440.520325,71.094536 438.393951,72.384796 437.081238,73.834778 
	C436.055298,72.412430 434.332703,71.084534 434.124817,69.551262 
	C433.257996,63.158482 432.252960,62.003468 425.585205,61.961163 
	C413.090607,61.881886 400.595398,61.893337 387.643951,61.842773 
z"/>
<path fill="#09DFBF" opacity="1.000000" stroke="none" 
	d="
M434.952393,54.515797 
	C419.167328,54.597477 403.142670,54.357761 386.663452,54.149490 
	C386.149078,53.985703 386.089325,53.790462 385.990967,53.291397 
	C395.167053,52.980087 404.385193,52.815514 413.595367,53.016083 
	C420.639740,53.169487 427.674072,53.784634 434.952393,54.515797 
z"/>
<path fill="#09DFBF" opacity="1.000000" stroke="none" 
	d="
M440.990601,59.732533 
	C440.646606,59.566746 440.296906,59.086857 439.951416,58.299736 
	C440.298706,58.467808 440.641815,58.943119 440.990601,59.732533 
z"/>
<path fill="#09DFBF" opacity="1.000000" stroke="none" 
	d="
M437.284546,55.697563 
	C436.798218,55.789223 436.114166,55.576115 435.238892,55.049503 
	C435.727417,54.954929 436.407074,55.173859 437.284546,55.697563 
z"/>
<path fill="#09DFBF" opacity="1.000000" stroke="none" 
	d="
M439.946045,57.771400 
	C439.711426,57.845436 439.431213,57.646030 439.071594,57.195007 
	C439.294922,57.128242 439.597656,57.313099 439.946045,57.771400 
z"/>
<path fill="#09DFBF" opacity="1.000000" stroke="none" 
	d="
M438.954376,56.711502 
	C438.725250,56.841751 438.393799,56.676056 437.875854,56.290863 
	C438.076904,56.186096 438.464508,56.300827 438.954376,56.711502 
z"/>
<path fill="#96F2E4" opacity="1.000000" stroke="none" 
	d="
M487.791504,73.638306 
	C488.852356,71.412224 489.821167,69.136169 490.996460,66.972275 
	C492.592255,64.034256 492.207642,61.639114 488.912628,60.620644 
	C484.979309,59.404854 480.897064,58.670887 476.339966,57.388226 
	C474.860229,57.049202 473.919861,57.050152 472.979492,57.051102 
	C471.921112,57.053909 470.862701,57.056721 469.239563,56.864441 
	C468.106049,56.974415 467.537292,57.279484 466.968506,57.584553 
	C463.671143,58.410545 460.373810,59.236538 456.376892,60.035011 
	C455.122131,59.345570 454.566986,58.683643 454.011841,58.021713 
	C460.493774,53.182415 467.882507,52.133503 475.591003,53.359798 
	C481.575989,54.311905 487.467285,55.852970 493.837250,57.127041 
	C494.274292,57.121830 494.476440,57.103642 494.780487,57.385040 
	C495.469421,57.812286 495.854279,57.958138 496.239166,58.103989 
	C496.239166,58.103985 496.395935,58.082687 496.449097,58.137184 
	C498.487061,61.511040 498.546661,64.603676 496.004578,67.818161 
	C494.604736,69.588295 493.833405,71.855492 492.695343,74.231964 
	C491.321899,75.140511 490.031799,75.715683 488.366058,75.861816 
	C487.924103,74.834625 487.857819,74.236473 487.791504,73.638306 
z"/>
<path fill="#39E4CA" opacity="1.000000" stroke="none" 
	d="
M496.079834,57.794632 
	C495.854279,57.958138 495.469421,57.812286 494.868347,57.435802 
	C495.074921,57.298538 495.497711,57.391907 496.079834,57.794632 
z"/>
<path fill="#31E4C8" opacity="1.000000" stroke="none" 
	d="
M268.375244,67.128433 
	C268.529572,69.054649 268.414154,71.305420 268.149780,73.923546 
	C268.035706,72.011597 268.070587,69.732292 268.375244,67.128433 
z"/>
<path fill="#03D0B1" opacity="1.000000" stroke="none" 
	d="
M455.459717,92.329376 
	C459.439728,91.614914 463.730530,91.299828 468.473877,90.974426 
	C468.946045,91.717972 468.965607,92.471840 468.625885,93.622696 
	C466.170441,94.704956 464.074310,95.390236 461.619049,95.990372 
	C459.654419,95.599068 458.048889,95.292900 456.443359,94.986732 
	C456.443359,94.986732 456.074615,94.767563 456.074615,94.767563 
	C456.074615,94.767563 455.648346,94.815231 455.465332,94.925514 
	C455.445038,94.266785 455.607788,93.497772 455.459717,92.329376 
z"/>
<path fill="#07E0BF" opacity="1.000000" stroke="none" 
	d="
M258.185181,61.845955 
	C257.967987,61.929523 257.594238,61.737492 257.099579,61.245831 
	C257.328644,61.154255 257.678619,61.362305 258.185181,61.845955 
z"/>
<path fill="#03B096" opacity="1.000000" stroke="none" 
	d="
M210.226044,72.084808 
	C211.691681,73.163719 212.934113,74.171181 213.722794,75.456970 
	C213.867920,75.693550 212.211441,77.692688 211.319397,77.745567 
	C210.140671,77.815437 208.895721,76.768356 207.679245,76.201401 
	C208.401703,74.837326 209.124176,73.473244 210.226044,72.084808 
z"/>
<path fill="#03C5A8" opacity="1.000000" stroke="none" 
	d="
M200.983871,96.438225 
	C201.172531,99.179848 201.052933,101.684601 200.859589,104.586632 
	C194.080048,104.000191 187.374222,103.016472 180.274124,101.922531 
	C180.267685,100.798317 180.655518,99.784332 181.109604,98.431534 
	C187.675766,97.462265 194.175690,96.831810 200.983871,96.438225 
z"/>
<path fill="#03D0B1" opacity="1.000000" stroke="none" 
	d="
M278.140686,99.515488 
	C278.038513,101.076065 277.692078,102.276009 276.919617,103.732910 
	C276.493591,103.989876 276.007996,103.989326 276.007996,103.989326 
	C271.083771,98.131660 269.399750,97.999466 261.388000,102.928963 
	C261.041565,100.942879 261.039978,98.896561 261.124878,96.419983 
	C266.773010,97.044754 272.334686,98.099800 278.140686,99.515488 
z"/>
<path fill="#000000" opacity="1.000000" stroke="none" 
	d="
M168.058029,99.993431 
	C164.170609,97.058838 166.636505,95.516411 169.056335,94.085297 
	C169.554794,93.790512 170.466965,93.800102 171.013580,94.050743 
	C173.295731,95.097122 175.574432,96.190796 177.675781,97.544395 
	C177.956879,97.725479 177.360382,100.310654 176.926910,100.386200 
	C174.550201,100.800476 172.098373,100.821190 169.670273,100.866470 
	C169.267319,100.873978 168.854187,100.336098 168.058029,99.993431 
z"/>
<path fill="#03BCA0" opacity="1.000000" stroke="none" 
	d="
M276.041534,104.392181 
	C276.007996,103.989326 276.493591,103.989876 276.736359,103.993713 
	C280.241058,103.545464 283.502960,103.093376 286.966095,102.313568 
	C297.465302,102.656517 307.763336,103.327194 318.524292,103.991531 
	C318.625122,107.015373 316.887573,108.132713 313.896454,108.026863 
	C302.382660,107.619354 290.862457,107.381783 279.352448,106.895752 
	C278.232422,106.848450 277.166260,105.525726 276.041534,104.392181 
z"/>
<path fill="#03AF95" opacity="1.000000" stroke="none" 
	d="
M332.399689,111.081299 
	C332.617706,111.265602 332.709198,111.528419 332.751434,111.798927 
	C332.757751,111.839455 332.533325,111.916031 332.415649,111.975937 
	C332.362823,111.704727 332.309998,111.433517 332.399689,111.081299 
z"/>
<path fill="#03AF95" opacity="1.000000" stroke="none" 
	d="
M332.443787,105.841736 
	C332.531708,105.794952 332.561859,106.179024 332.561859,106.179024 
	C332.561859,106.179024 332.355896,105.888527 332.443787,105.841736 
z"/>
<path fill="#03AF95" opacity="1.000000" stroke="none" 
	d="
M331.490723,108.484802 
	C331.514771,108.474777 331.466705,108.494820 331.490723,108.484802 
z"/>
<path fill="#03B096" opacity="1.000000" stroke="none" 
	d="
M407.120667,82.658890 
	C403.847748,82.769455 400.753082,82.551041 397.341858,82.145081 
	C394.764618,78.751495 394.112213,74.889046 397.447144,72.786140 
	C399.715027,71.356079 404.078125,71.134979 406.416656,72.393784 
	C410.605194,74.648438 409.343567,78.766182 407.120667,82.658890 
z"/>
<path fill="#020200" opacity="1.000000" stroke="none" 
	d="
M441.985413,68.972305 
	C442.620850,68.776207 443.832886,69.030403 443.860046,69.377342 
	C444.046082,71.754196 443.983704,74.150497 444.027008,77.032288 
	C443.385010,77.237442 442.163605,76.992241 442.138580,76.657608 
	C441.960144,74.270470 442.025757,71.865082 441.985413,68.972305 
z"/>
<path fill="#95F2E4" opacity="1.000000" stroke="none" 
	d="
M386.979584,56.529030 
	C401.777222,56.462383 416.573395,56.323341 431.304504,57.235077 
	C438.574066,57.685001 441.212677,64.301964 437.320465,71.224968 
	C436.762909,69.899544 436.160309,69.008980 436.023102,68.051720 
	C435.214447,62.409088 432.998718,60.128258 427.316925,60.042839 
	C417.007111,59.887844 406.693054,60.029831 396.382233,59.918072 
	C393.579865,59.887695 390.782562,59.392956 387.574280,59.090363 
	C387.094177,58.342869 387.022736,57.616356 386.979584,56.529030 
z"/>
<path fill="#03BCA0" opacity="1.000000" stroke="none" 
	d="
M461.978149,96.075516 
	C464.074310,95.390236 466.170441,94.704956 468.623657,93.999390 
	C470.584503,101.039902 464.961212,96.851006 462.369690,97.658508 
	C461.983063,96.916939 461.980621,96.496223 461.978149,96.075516 
z"/>
<path fill="#020B08" opacity="1.000000" stroke="none" 
	d="
M461.619049,95.990372 
	C461.980621,96.496223 461.983063,96.916939 461.934753,97.649277 
	C460.254822,97.116524 458.625702,96.272148 456.719971,95.207245 
	C458.048889,95.292900 459.654419,95.599068 461.619049,95.990372 
z"/>
<path fill="#03B096" opacity="1.000000" stroke="none" 
	d="
M462.719543,83.876373 
	C461.301208,84.578232 459.943878,84.908928 458.586548,85.239639 
	C458.642395,84.018883 458.698242,82.798126 458.754059,81.577370 
	C460.096222,82.219986 461.438416,82.862602 462.719543,83.876373 
z"/>
<path fill="#020200" opacity="1.000000" stroke="none" 
	d="
M445.592468,80.514511 
	C445.864868,80.309502 446.266693,80.284096 446.668488,80.258698 
	C446.629547,80.467186 446.590637,80.675682 446.287018,80.951736 
	C446.022339,81.019310 445.721893,80.694122 445.592468,80.514511 
z"/>
<path fill="#88F0E1" opacity="1.000000" stroke="none" 
	d="
M453.712128,58.182961 
	C454.566986,58.683643 455.122131,59.345570 456.016541,60.116283 
	C455.179077,60.661907 454.002441,61.098740 452.825775,61.535580 
	C453.021332,60.471790 453.216858,59.407993 453.712128,58.182961 
z"/>
<path fill="#88F0E1" opacity="1.000000" stroke="none" 
	d="
M473.216370,57.278553 
	C473.919861,57.050152 474.860229,57.049202 475.910492,57.295704 
	C475.164673,57.530769 474.308990,57.518387 473.216370,57.278553 
z"/>
<path fill="#88F0E1" opacity="1.000000" stroke="none" 
	d="
M487.531128,73.788513 
	C487.857819,74.236473 487.924103,74.834625 488.005859,75.886505 
	C487.479614,76.230354 486.937897,76.120491 486.396210,76.010635 
	C486.687744,75.319992 486.979248,74.629356 487.531128,73.788513 
z"/>
<path fill="#88F0E1" opacity="1.000000" stroke="none" 
	d="
M467.245300,57.649445 
	C467.537292,57.279484 468.106049,56.974415 468.842957,56.848717 
	C468.514740,57.256836 468.018433,57.485588 467.245300,57.649445 
z"/>
</svg>