<svg version="1.1" id="Layer_1" xmlns="http://www.w3.org/2000/svg" xmlns:xlink="http://www.w3.org/1999/xlink" x="0px" y="0px"
	 width="100%" viewBox="0 0 600 180" enable-background="new 0 0 600 180" xml:space="preserve">
<path fill="#F8DA0F" opacity="1.000000" stroke="none" 
	d="
M483.550873,133.780365 
	C469.314636,137.812912 456.146820,136.645340 443.965607,128.480301 
	C438.262665,124.657616 435.977203,112.107597 440.001801,106.552269 
	C442.487335,103.121307 445.078064,99.766556 448.359344,95.394600 
	C441.357361,93.748802 434.880402,97.715347 427.644348,95.380974 
	C430.300232,105.722054 432.491852,115.076729 435.135376,124.301910 
	C437.469086,132.445862 435.190033,135.741837 427.016144,136.073959 
	C417.654846,136.454376 408.306244,137.250519 398.968781,138.058319 
	C395.803162,138.332153 393.842773,137.219574 393.059052,134.257431 
	C391.660645,128.972015 390.407715,123.648094 389.077698,118.274467 
	C380.873749,120.056801 374.220093,118.159149 370.762817,109.008621 
	C370.231201,107.601624 367.301270,107.100769 365.425262,106.152924 
	C364.623657,107.091042 363.861816,108.809708 362.995178,108.864296 
	C356.779144,109.255798 356.942352,112.754738 357.841858,117.534782 
	C358.298218,119.959923 358.904510,121.212303 361.185822,122.020378 
	C365.294708,123.475830 367.214691,128.053558 365.821228,132.496124 
	C364.599243,136.392044 359.240021,140.005844 356.120544,137.752762 
	C349.468262,132.948074 344.268585,138.176941 338.420868,138.753784 
	C334.047729,139.185165 329.592682,138.779770 325.174011,138.763657 
	C324.651855,138.761749 324.039612,138.707016 323.620361,138.944138 
	C317.407196,142.457947 310.930481,141.305313 304.594574,139.725708 
	C297.791901,138.029709 295.550171,131.972931 292.982117,126.382835 
	C292.511353,125.358147 292.076202,124.317108 291.708008,123.474541 
	C289.488281,124.168846 287.388885,124.825508 285.292114,125.481346 
	C284.409393,136.349472 280.381958,139.979691 269.125275,140.005661 
	C263.628143,140.018341 258.115906,140.260315 252.638123,139.934433 
	C247.455429,139.626129 242.320801,138.331604 237.143036,138.168106 
	C231.907516,138.002747 226.627060,139.115662 221.399094,138.894257 
	C215.723251,138.653870 209.981613,137.945282 204.473587,136.601135 
	C201.635864,135.908630 199.243286,133.392090 196.457413,131.574387 
	C184.844528,141.365250 164.897003,142.139221 149.432755,125.398064 
	C144.478790,125.791046 140.334991,127.208778 136.952393,126.163406 
	C129.712891,123.926094 128.325150,113.442108 134.711777,109.085732 
	C138.230484,106.685593 137.960739,104.597420 136.867996,101.500710 
	C132.529129,89.204872 131.607574,77.111320 136.657150,64.504593 
	C142.670029,49.492916 161.070633,41.164318 176.513321,48.950111 
	C179.823654,50.619095 182.852829,52.849575 186.177048,54.484924 
	C187.217072,54.996555 189.126877,54.884102 190.077728,54.235359 
	C194.234451,51.399326 195.348236,51.222649 200.619644,53.884220 
	C204.038651,46.578831 211.094269,46.930721 217.603806,45.978935 
	C229.007248,44.311592 239.856506,46.169659 250.242172,50.992897 
	C252.568008,52.073048 254.940598,53.167439 257.022522,54.636677 
	C263.550537,59.243565 266.409210,58.900761 272.002533,53.592705 
	C281.683228,44.405720 290.369354,46.997585 299.574493,55.234673 
	C302.245789,57.625065 304.130127,60.894867 306.004120,63.287674 
	C310.386444,62.937206 314.408600,62.615543 318.547089,62.284580 
	C320.129913,53.070877 327.611908,45.049881 337.442841,44.146023 
	C352.134705,42.795242 367.018890,42.463902 381.409882,46.135620 
	C395.359436,49.694702 409.334564,47.217056 423.274445,47.900536 
	C433.404724,48.397232 438.952240,49.803215 444.079315,54.417419 
	C450.263062,51.654804 455.976959,47.600586 462.171265,46.638199 
	C476.344604,44.436138 490.611267,45.370537 501.938965,55.663998 
	C509.161041,62.226704 510.684143,73.843269 502.807861,81.554733 
	C498.632874,85.642395 497.625702,89.410316 500.990631,94.478951 
	C502.440216,96.662498 502.725647,99.599480 503.656586,102.151634 
	C504.845184,105.410164 506.077545,108.656998 507.426758,111.851540 
	C509.005463,115.589378 507.551941,118.773071 504.908813,120.913879 
	C501.059448,124.031662 496.694427,126.536324 492.438690,129.120316 
	C489.702393,130.781769 486.767609,132.116364 483.550873,133.780365 
M261.054993,64.663116 
	C261.054993,64.663116 261.154205,64.661644 262.075317,64.357758 
	C260.686371,62.697140 259.297394,61.036526 257.405029,58.887947 
	C256.805115,58.317722 256.281769,57.624802 255.593903,57.195503 
	C243.607681,49.714863 230.751846,46.337143 216.596283,48.812950 
	C205.440704,50.764061 202.892136,49.150017 202.898865,65.336823 
	C202.901291,71.177162 201.793137,77.017967 201.048309,82.803253 
	C201.048309,82.803253 200.978149,82.940071 201.016953,82.407784 
	C200.958771,82.239670 200.900574,82.071548 200.685425,81.218414 
	C195.708511,68.173210 188.371933,57.313530 174.715683,51.828312 
	C166.417328,48.495171 154.610794,48.758148 146.488174,56.050995 
	C145.979706,56.666855 145.471222,57.282715 144.408737,58.123360 
	C143.995987,58.749649 143.583221,59.375942 142.855789,60.654301 
	C140.941299,65.522614 138.991302,70.377342 137.122284,75.263062 
	C135.249023,80.159897 135.236282,85.003197 137.190292,90.105827 
	C138.091995,93.083893 138.993713,96.061951 139.966492,99.784760 
	C140.693069,101.807175 141.419632,103.829582 141.925949,106.619507 
	C143.779907,115.147583 149.224625,121.388145 155.479050,126.863762 
	C167.564529,137.444336 185.832932,139.716553 197.110825,126.472099 
	C197.737442,125.736183 198.981201,125.525780 200.012741,125.879784 
	C199.554047,130.608276 201.395782,133.481491 206.370224,134.045197 
	C211.431351,134.618744 216.461960,135.726974 221.530746,135.908630 
	C230.238785,136.220734 230.246887,135.994888 231.732986,126.569679 
	C235.379288,136.672745 242.737045,137.593185 250.991074,137.123550 
	C256.134430,136.830933 261.319763,137.252563 266.485535,137.380844 
	C277.848145,137.662994 281.926819,134.320755 282.082581,124.590698 
	C282.087524,124.280869 282.285980,123.974129 282.482056,123.415771 
	C285.889679,122.302208 289.445282,121.140297 293.400574,120.569939 
	C294.277985,122.487411 295.115021,124.424591 296.039520,126.319084 
	C300.927521,136.335526 306.200745,139.389572 317.421967,137.847137 
	C320.125610,137.475510 322.578125,135.277161 324.683472,134.163605 
	C326.449280,135.139542 329.092712,137.884201 331.151306,137.499451 
	C337.524445,136.308304 343.736450,134.101898 349.892517,131.950562 
	C354.830078,130.225052 356.335266,126.102699 355.893616,121.249649 
	C355.641235,118.476990 355.102203,115.699852 354.379395,113.008766 
	C353.584564,110.049561 353.952362,108.518021 357.441284,107.749847 
	C359.394867,107.319725 362.145325,105.182945 362.390503,103.502106 
	C362.813599,100.601357 361.563568,97.456566 360.969391,94.157806 
	C366.622467,93.206512 372.571198,92.205467 378.341125,91.234505 
	C382.996368,99.282684 390.347534,91.984909 396.034821,94.603546 
	C395.541290,97.449760 394.747498,100.326134 394.595337,103.236069 
	C394.197968,110.834831 394.081451,118.448280 394.025696,126.680382 
	C394.402039,127.452309 394.778351,128.224228 395.011414,129.803696 
	C394.767731,133.573547 396.453125,135.340286 400.297333,135.044281 
	C409.509735,134.334930 418.722443,133.620544 427.942444,133.022232 
	C432.701111,132.713425 433.931702,131.476135 432.917999,126.834694 
	C432.118835,123.175507 430.879059,119.612541 429.934479,115.225243 
	C427.967560,108.450409 426.000641,101.675568 424.113251,94.058784 
	C428.761597,93.703896 433.404877,93.232056 438.059875,93.031479 
	C441.719971,92.873779 444.579193,91.911438 445.219055,88.107803 
	C446.392761,89.049110 447.661774,90.066879 449.008057,91.565170 
	C449.008057,91.565170 449.172577,92.022408 449.209961,92.685547 
	C449.868256,93.783150 450.526581,94.880745 451.019928,96.602409 
	C450.647247,97.368759 450.274536,98.135101 449.284760,99.179321 
	C447.291016,101.821686 445.241364,104.424011 443.314758,107.114456 
	C438.811646,113.402809 440.723877,123.532684 447.424042,127.371979 
	C460.008057,134.582779 473.193481,135.310410 486.341187,129.309570 
	C504.946564,120.817749 505.123871,104.785553 494.570557,88.524178 
	C496.925079,85.004341 499.156891,81.394394 501.660980,77.984375 
	C506.183563,71.825706 506.013153,64.456444 501.061340,58.500271 
	C501.061340,58.500271 501.212341,58.712360 500.660004,58.061497 
	C495.624817,55.402718 490.861572,51.778980 485.502716,50.268543 
	C470.248596,45.969006 455.896149,46.957127 444.915527,60.501240 
	C444.657684,60.819275 443.796448,60.648159 443.154327,60.135651 
	C443.041840,59.772728 442.929352,59.409805 442.801575,58.350048 
	C439.561523,52.196808 433.666138,51.169838 427.679626,51.067982 
	C413.204224,50.821686 398.722717,50.932068 383.880035,50.241753 
	C377.778992,46.233395 370.868958,47.072731 363.384277,46.530273 
	C356.299835,46.349674 349.172241,45.610897 342.143799,46.154423 
	C335.835541,46.642246 329.596375,48.457687 325.413818,54.264278 
	C325.413818,54.264278 325.137451,54.470608 324.542511,54.968452 
	C319.900421,61.601463 320.161133,69.497032 319.045807,76.991508 
	C318.116394,83.236298 317.787262,89.570419 317.083008,95.277023 
	C316.763458,94.828461 316.443939,94.379898 316.047760,93.154221 
	C314.001709,88.460106 311.955658,83.765984 310.138855,78.513840 
	C310.088226,78.319237 310.037567,78.124626 310.013031,77.294960 
	C309.644867,76.544075 309.276672,75.793198 308.860626,74.444336 
	C308.298981,73.909843 307.737335,73.375351 307.155457,72.152252 
	C306.138214,70.756630 305.121002,69.361008 303.983551,67.288528 
	C303.339203,66.169617 302.694855,65.050705 302.012207,63.992306 
	C302.012207,63.992306 302.079895,63.968880 301.915131,63.457520 
	C301.621735,63.266830 301.328369,63.076141 300.787506,62.262760 
	C298.793427,60.216560 296.799377,58.170361 294.282257,55.677670 
	C286.920807,49.205078 277.295288,51.025085 271.933685,58.862183 
	C270.422394,61.071281 269.155426,63.447529 267.186554,66.243256 
	C266.317261,66.361702 265.346069,66.782265 264.601379,66.531143 
	C263.334503,66.103920 262.210083,65.254082 261.000183,64.662819 
	C261.000183,64.662819 261.001007,64.579865 261.054993,64.663116 
z"/>
</svg>