<svg xmlns="http://www.w3.org/2000/svg" xmlns:xlink="http://www.w3.org/1999/xlink" data-name="Layer 1" viewBox="0 0 817.61 595.07"><defs><linearGradient id="a" x1="380.87" x2="382.9" y1="393.72" y2="538.49" gradientUnits="userSpaceOnUse"><stop offset=".01"/><stop offset=".97" stop-color="#3f3d56" stop-opacity="0"/></linearGradient><linearGradient id="c" x1="412.6" x2="384.26" y1="420.1" y2="-88.1" gradientUnits="userSpaceOnUse"><stop offset=".03" stop-color="#fff" stop-opacity="0"/><stop offset="1" stop-color="#fff"/></linearGradient><linearGradient id="e" x1="892.24" x2="317.43" y1="-446.43" y2="572.36" xlink:href="#a"/><linearGradient id="b" x1="564.32" x2="656.37" y1="435.83" y2="435.83" gradientUnits="userSpaceOnUse"><stop offset="0" stop-color="#183866"/><stop offset="1" stop-color="#1a7fc1"/></linearGradient><linearGradient id="f" x1="587.95" x2="613.07" y1="422.82" y2="422.82" xlink:href="#b"/><linearGradient id="g" x1="386.4" x2="384.96" y1="499.36" y2="547.01" xlink:href="#a"/><linearGradient id="h" x1="260.64" x2="-1.02" y1="231.56" y2="237.57" xlink:href="#c"/><linearGradient id="i" x1="323.54" x2="285.07" y1="130.98" y2="171.48" xlink:href="#c"/><linearGradient id="j" x1="196" x2="257.75" y1="204.56" y2="361.47" xlink:href="#c"/><linearGradient id="k" x1="455.64" x2="549" y1="106.36" y2="319.42" gradientUnits="userSpaceOnUse"><stop offset="0" stop-color="#68e1fd"/><stop offset="1" stop-color="#fff"/></linearGradient><linearGradient id="l" x1="402.14" x2="405.17" y1="90.31" y2="335.3" xlink:href="#c"/><linearGradient id="m" x1="403.92" x2="406.96" y1="256.49" y2="501.48" gradientUnits="userSpaceOnUse"><stop offset=".03" stop-color="#fff" stop-opacity="0"/><stop offset=".45" stop-color="#fff" stop-opacity=".45"/><stop offset="1" stop-color="#fff"/></linearGradient><linearGradient id="n" x1="403.65" x2="406.69" y1="256.49" y2="501.48" xlink:href="#c"/><linearGradient id="d" x1="630" x2="666.85" y1="364.18" y2="364.18" gradientUnits="userSpaceOnUse"><stop offset="0" stop-color="#ecc4d7"/><stop offset=".16" stop-color="#edcbd5"/><stop offset=".42" stop-color="#efd4d1"/><stop offset=".7" stop-color="#f2eac9"/></linearGradient><linearGradient id="o" x1="562.76" x2="636.33" y1="458.48" y2="445.79" xlink:href="#a"/><linearGradient id="p" x1="581.37" x2="589.42" y1="418.6" y2="418.6" xlink:href="#d"/></defs><rect width="102.53" height="8.71" x="561.12" y="586.36" fill="#1d2741" opacity=".18" rx="3.85"/>
<path fill="#68e1fd" d="M381.45 5.34c-31.33 9.69-59 28.31-85.92 47.05Q188.18 127.17 86.62 209.85c-23.17 18.85-46.47 38.42-62.45 63.67-28.49 45-29.9 103.28-14.09 154.13s47.08 95.42 80.89 136.55c7.31 8.89 15.09 17.92 25.49 22.83s22.58 5.17 34.2 4.82c66.31-2 131.16-19.15 197-27 102.2-12.23 205.55-2 308.44 1 39.23 1.13 81 .53 114.07-20.64s52-62.47 46.44-101.34c-4.83-33.87-26.06-63.27-34-96.55-10.38-43.47 2.74-89.34-3.22-133.64-8.59-64.55-57.46-118.02-114.59-149.2-46.84-25.59-100.09-39.71-152.35-49.29-43.27-7.92-87.33-23.36-131-9.85Z" opacity=".18"/>

</svg>