<svg version="1.1" id="Layer_1" xmlns="http://www.w3.org/2000/svg" xmlns:xlink="http://www.w3.org/1999/xlink" x="0px" y="0px"
	 width="100%" viewBox="0 0 600 180" enable-background="new 0 0 600 180" xml:space="preserve" 
	 >


<path fill="#F8DB0F" opacity="1.000000" stroke="none" 
	d="
M446.761810,46.682175 
	C452.076141,45.623817 457.021912,44.563644 462.023590,44.072826 
	C465.761475,43.706020 466.815887,46.362301 468.186737,49.636398 
	C472.244995,59.329010 466.984802,67.546074 465.000366,76.284401 
	C463.714874,81.945015 462.209198,87.555634 460.762085,93.349281 
	C463.542664,93.940956 466.110596,94.221626 468.485016,95.054123 
	C472.163208,96.343750 474.630280,98.465080 475.164032,102.990501 
	C475.840363,108.725563 477.626801,114.329704 479.093414,120.678131 
	C483.217438,120.994926 487.381653,123.668488 487.597748,128.839127 
	C487.694519,131.154190 484.579712,134.263916 482.164001,135.878357 
	C477.874786,138.744904 475.245422,134.985550 473.308685,132.998276 
	C465.421051,133.707397 458.187988,134.345749 450.957367,135.010559 
	C440.219238,135.997849 429.463287,136.835983 418.755341,138.084534 
	C414.473053,138.583847 410.341278,140.560211 406.065643,140.891708 
	C397.158722,141.582275 390.403076,137.721039 387.138763,129.258423 
	C385.311646,124.521629 383.103241,122.542297 378.341217,125.526314 
	C378.439423,135.736145 373.088104,139.250977 362.276520,139.993393 
	C360.784180,140.095871 359.266113,139.882019 357.781647,140.030991 
	C353.049347,140.505936 350.387817,138.914490 350.937958,133.680573 
	C351.011108,132.984497 350.450836,132.221832 349.920227,130.767166 
	C342.327484,138.179184 333.084717,139.135330 323.736786,137.854172 
	C314.311340,136.562378 307.192322,130.483582 301.441681,124.950119 
	C298.044189,125.765739 295.165070,127.427132 292.935669,126.795464 
	C287.885651,125.364609 285.467865,128.469971 282.358856,131.086670 
	C275.861420,136.555222 268.437622,140.028656 259.770752,139.941528 
	C257.213837,139.915848 254.609756,139.285965 252.124893,138.586334 
	C248.025574,137.432129 244.521011,134.381577 239.504776,136.674484 
	C238.000427,137.362122 234.786819,134.310333 232.872589,133.256058 
	C225.024719,133.846100 217.290436,134.340225 209.573608,135.029831 
	C199.828018,135.900757 190.093826,136.903259 180.360947,137.909454 
	C177.424728,138.212997 171.530060,132.352493 170.958420,128.714539 
	C170.156281,123.609512 169.044876,118.553452 168.216400,113.451988 
	C167.956741,111.853134 167.783707,110.047310 168.261612,108.557800 
	C169.689758,104.106667 169.325272,100.601051 165.671036,97.001549 
	C159.167969,90.595856 163.429214,79.625847 172.915710,76.921028 
	C174.782181,76.388855 176.908798,74.892250 177.824860,73.236916 
	C181.309631,66.939919 184.148865,60.283104 187.694275,54.024109 
	C188.563751,52.489151 191.125778,51.786781 193.029953,50.988632 
	C197.988464,48.910267 202.873367,46.388214 208.052856,45.182659 
	C212.969467,44.038288 218.235764,43.999912 223.319321,44.202545 
	C224.915924,44.266186 227.271393,46.406876 227.814453,48.074097 
	C229.987381,54.744953 230.478577,61.511227 227.446228,68.248711 
	C226.204117,71.008522 225.728241,74.113190 224.837021,77.299706 
	C228.988983,79.120972 230.638672,77.374977 232.063614,73.642700 
	C237.654373,58.999287 252.938034,45.080902 269.896210,46.020233 
	C279.416504,46.547565 286.610901,51.485588 292.713165,58.336678 
	C303.629211,42.804276 324.462738,41.629524 340.708588,55.929306 
	C347.805206,51.175232 351.497894,50.919746 354.015656,55.008633 
	C357.283783,60.316124 356.350525,63.447727 350.334442,67.395653 
	C351.469696,69.266167 352.602417,71.132523 353.841522,73.174110 
	C356.278748,68.098419 358.418182,63.147194 360.974579,58.421543 
	C366.397430,48.397083 376.301941,44.997993 385.772888,50.511597 
	C389.935364,52.934814 393.599243,56.699509 396.527344,60.580959 
	C398.364166,63.015820 399.903656,63.473289 402.393829,62.987598 
	C410.029053,61.498386 415.748962,65.476082 417.301514,73.053146 
	C420.623383,66.853363 423.972260,60.352180 427.613098,54.018883 
	C428.344849,52.746029 430.062683,51.732826 431.538391,51.251118 
	C436.445862,49.649181 441.450104,48.343872 446.761810,46.682175 
M401.981171,76.484482 
	C401.981171,76.484482 401.828064,76.021980 401.813019,75.355698 
	C401.151733,74.232727 400.490448,73.109756 399.888245,71.461052 
	C399.603149,71.270950 399.318085,71.080841 398.856110,70.277512 
	C397.939697,69.189613 397.023285,68.101715 395.955414,66.533119 
	C395.901581,66.373962 395.847778,66.214813 395.810699,65.368065 
	C392.876862,62.184761 389.942993,59.001453 386.738037,55.196503 
	C381.805206,51.050243 375.755066,50.051949 370.670074,53.185593 
	C363.812195,57.411793 360.314240,64.616379 358.326416,73.058388 
	C357.178772,77.004631 356.031097,80.950882 354.505157,84.920219 
	C354.505157,84.920219 354.126709,84.900803 354.088348,84.124374 
	C353.717926,82.888985 353.430298,81.621414 352.964417,80.423126 
	C347.361298,66.011040 338.664917,54.312504 322.873779,50.602173 
	C311.129730,47.842762 300.339630,51.568439 293.450836,63.055576 
	C291.630127,61.387119 289.809418,59.718658 287.791931,57.389629 
	C277.963318,47.731121 265.475037,46.061131 253.541168,53.024490 
	C251.417435,54.263672 249.743179,56.273159 247.943344,57.947216 
	C247.943344,57.947216 247.958206,57.864090 247.274490,57.360195 
	C246.675293,57.955467 246.076111,58.550739 245.299164,59.493137 
	C244.917007,59.817055 244.534836,60.140976 243.611618,60.909649 
	C242.756592,61.969006 241.901550,63.028362 240.535049,64.532402 
	C233.162796,74.379204 229.911484,85.577904 229.845413,97.648048 
	C225.526566,97.242455 221.428711,96.857613 216.876511,96.430107 
	C220.072357,84.362617 223.503403,73.096024 225.865143,61.609573 
	C226.738983,57.359596 225.310425,52.549717 224.406555,48.101948 
	C224.247299,47.318260 221.356155,46.399452 219.951187,46.677570 
	C213.540329,47.946644 207.148651,49.411160 200.876251,51.238537 
	C197.826782,52.126957 195.054214,53.965858 191.618912,55.762905 
	C190.694656,57.158745 189.770416,58.554585 188.933472,59.949902 
	C188.933472,59.949902 188.926849,59.862846 188.290512,59.594246 
	C187.856308,60.373692 187.422119,61.153133 186.398300,62.312698 
	C183.972580,67.976219 181.546875,73.639740 178.752991,79.817177 
	C177.454300,83.203850 176.155624,86.590515 174.192810,90.353867 
	C170.793655,102.602867 169.318436,114.850571 173.429016,127.301720 
	C174.798294,131.449310 178.826782,135.132874 182.713135,134.839783 
	C195.249176,133.894333 207.867111,133.538391 220.296539,131.820038 
	C231.855392,130.222046 232.563568,131.548523 235.467209,120.422516 
	C246.696396,140.537674 264.946472,140.377975 278.864716,130.324646 
	C286.021423,125.155258 291.122101,118.102097 294.291168,110.638878 
	C299.266602,116.347908 303.699463,122.546333 309.238007,127.511337 
	C316.347351,133.884537 325.196808,137.579086 334.772186,134.783417 
	C340.521454,133.104828 345.582642,129.069626 351.060516,126.580200 
	C351.232178,127.031410 351.403870,127.482620 351.153320,128.425003 
	C352.390076,130.968521 353.626831,133.512054 355.247559,136.845306 
	C360.367950,138.112823 366.327362,137.344711 371.944977,134.517960 
	C376.775604,132.087189 374.198883,127.057999 375.308228,123.381134 
	C378.790314,122.222527 382.151855,121.104027 385.489044,119.993629 
	C387.868988,124.445435 389.726105,128.907944 392.453064,132.753647 
	C395.425751,136.945801 400.176575,138.108139 405.219879,138.014664 
	C409.881165,137.928223 414.924194,138.883148 416.864166,133.565948 
	C419.248138,133.963562 421.318298,134.687820 423.342712,134.576874 
	C429.948395,134.214798 436.537811,133.553680 443.132599,132.997025 
	C451.047455,132.328949 458.990784,131.880920 466.863159,130.877396 
	C470.742981,130.382828 473.543091,128.353882 474.487305,123.751251 
	C475.986664,116.442596 474.168274,109.723099 472.347717,102.877373 
	C471.178772,98.481850 468.223114,96.838020 463.905914,96.901291 
	C461.717255,96.933357 459.524811,96.706444 456.838715,96.571785 
	C460.076111,84.340317 463.505585,73.074020 465.864990,61.587929 
	C466.737091,57.342350 465.302032,52.536617 464.395538,48.093204 
	C464.236633,47.314301 461.346039,46.407345 459.940033,46.685711 
	C453.532806,47.954262 447.144257,49.415592 440.875153,51.240902 
	C437.827393,52.128288 435.056488,53.966599 431.622528,55.762657 
	C430.696838,57.158871 429.771118,58.555084 428.934570,59.950611 
	C428.934570,59.950611 428.927856,59.861732 428.291260,59.594086 
	C427.857483,60.373390 427.423737,61.152695 426.399658,62.311527 
	C423.973480,67.975380 421.547333,73.639236 418.753082,79.817039 
	C417.462280,83.197754 416.171509,86.578461 414.210541,90.317230 
	C413.346985,93.650894 412.483459,96.984566 411.590485,100.431885 
	C411.008606,99.431313 410.556763,98.654350 410.014587,97.391975 
	C410.014587,97.391975 409.848755,96.926918 409.986542,96.481689 
	C409.986542,96.481689 409.838531,96.039764 409.883820,95.444763 
	C409.558014,94.949738 409.232208,94.454712 409.028473,93.237251 
	C408.292755,91.500931 407.557037,89.764603 406.946686,87.513107 
	C406.891541,87.345192 406.836426,87.177269 406.790771,86.445625 
	C406.451599,86.008713 406.112427,85.571793 405.872986,84.450584 
	C405.261475,83.533661 404.649963,82.616737 404.110046,81.035751 
	C403.424591,79.664040 402.739166,78.292328 402.021698,76.987312 
	C402.021698,76.987312 402.090210,76.959312 401.981171,76.484482 
z"/>
<path fill="#FCDC0F" opacity="1.000000" stroke="none" 
	d="
M158.863083,96.002960 
	C160.071899,97.596146 161.293076,99.150146 161.436432,100.797913 
	C161.488419,101.395248 158.890335,102.868599 157.637634,102.728081 
	C156.650513,102.617363 154.962906,100.375298 155.204544,99.558685 
	C155.614288,98.173958 157.299866,97.166748 158.863083,96.002960 
z"/>
<path fill="#F6DA0F" opacity="1.000000" stroke="none" 
	d="
M322.901306,104.987526 
	C322.528625,104.943161 322.155914,104.898788 321.503906,104.832680 
	C319.253143,103.143669 317.281738,101.476395 315.092377,99.581779 
	C315.286804,95.212769 317.036926,92.018585 321.375061,91.061104 
	C326.275024,89.979607 330.758179,92.339851 334.447815,97.688614 
	C334.771790,97.891373 334.881409,97.841064 334.558716,97.777435 
	C334.215607,98.140495 334.195190,98.567192 334.174805,98.993889 
	C332.757690,102.928963 329.712860,104.602562 325.135590,105.016121 
	C323.963226,104.991890 323.432251,104.989708 322.901306,104.987526 
M321.245300,94.283882 
	C317.761749,96.256752 317.305878,98.015144 321.297363,100.109680 
	C326.851074,103.024010 327.382690,103.003693 331.729767,96.475174 
	C328.177216,95.585480 325.094971,94.813568 321.245300,94.283882 
z"/>
</svg>