<svg version="1.1" id="Layer_1" xmlns="http://www.w3.org/2000/svg" xmlns:xlink="http://www.w3.org/1999/xlink" x="0px" y="0px"
	 width="100%" viewBox="0 0 509 339" enable-background="new 0 0 509 339" xml:space="preserve">
<path fill="#D9EFFA" opacity="1.000000" stroke="none" 
	d="
M510.000000,254.000000 
	C510.000000,282.647461 510.000000,311.294891 510.000000,339.945984 
	C340.333313,339.949646 170.666656,339.949646 1.000000,339.949646 
	C1.000000,320.911957 1.000000,301.924652 1.391549,282.414307 
	C12.047792,278.724915 22.105711,278.977905 31.784447,283.945526 
	C34.377117,285.276215 35.631702,284.590363 37.517612,282.378113 
	C50.755394,266.849792 67.991791,261.106537 87.869423,263.374146 
	C91.885841,263.832336 94.323959,263.255707 97.046646,260.521698 
	C117.868538,239.613022 155.030914,241.816605 173.651413,263.720917 
	C174.741257,265.002960 177.932037,265.686096 179.587189,265.092438 
	C186.278748,262.692383 193.023148,261.434204 200.118759,261.960327 
	C201.219376,262.041931 202.352386,261.686584 203.107513,261.583038 
	C208.577072,242.541885 220.103500,229.970642 239.504700,226.518982 
	C253.783691,223.978577 267.548767,226.526718 278.399597,237.121964 
	C282.322479,240.952454 286.161102,241.616379 290.989624,240.509659 
	C303.898071,237.551025 316.855957,238.369873 329.362183,241.912186 
	C343.276550,245.853333 355.515259,253.118851 365.099030,264.352753 
	C365.839447,265.220612 367.743744,265.608856 369.004730,265.442810 
	C390.361511,262.630615 407.938782,268.986816 421.079803,286.490051 
	C421.756714,287.391663 423.015045,288.283142 424.083893,288.393585 
	C430.130280,289.018188 436.211853,289.300415 442.260071,289.910645 
	C445.482849,290.235809 447.559601,289.697906 448.579315,286.074493 
	C449.602966,282.437073 451.047089,278.769257 453.048279,275.579926 
	C465.737122,255.357635 486.075165,247.744492 510.000000,254.000000 
z"/>
<path fill="#69C2EC" opacity="1.000000" stroke="none" 
	d="
M510.000000,82.000000 
	C510.000000,100.354225 510.000000,118.708458 509.562317,137.530090 
	C501.727753,136.939484 496.595856,140.882828 492.637360,146.258240 
	C490.435913,149.247726 488.902649,148.474030 486.046753,147.610626 
	C479.646820,145.675781 472.962250,143.238235 466.457550,143.411102 
	C454.860718,143.719345 445.287689,149.412415 437.919495,158.565186 
	C437.070251,159.620102 435.578644,160.947723 434.465790,160.876953 
	C424.644165,160.252243 416.222198,163.429199 409.534760,169.495178 
	C403.446472,165.495346 398.243164,160.246307 392.043243,158.464203 
	C384.179504,156.203842 381.929077,151.806564 378.807678,144.763153 
	C369.489777,123.737518 353.043640,118.094749 332.775665,121.798195 
	C329.311218,122.431244 327.378693,121.962120 325.033112,119.604691 
	C311.533325,106.036552 295.562378,102.687691 277.548859,108.722710 
	C273.961273,109.924644 270.521576,111.567917 266.635620,113.012573 
	C264.842377,114.352142 263.427155,115.686821 261.896240,117.232422 
	C261.579559,117.705566 261.323914,117.893517 260.637207,118.012161 
	C259.179016,119.349739 258.097260,120.682358 257.008362,122.007484 
	C257.001221,122.000000 257.019043,122.015137 256.699646,122.059631 
	C255.929932,122.745651 255.479599,123.387177 255.014633,124.014809 
	C255.000000,124.000916 255.029434,124.031219 254.649689,124.028671 
	C253.083984,125.166237 251.528458,126.107513 250.786514,127.486511 
	C249.071274,130.674515 247.562180,133.531784 243.068130,133.195480 
	C241.788361,133.099701 240.359955,134.989990 238.603699,135.979279 
	C228.537323,137.584396 221.858521,143.367859 216.313446,151.077698 
	C214.767990,153.226486 211.215408,156.393661 209.923950,155.858612 
	C202.255142,152.681290 191.838623,152.703445 190.163864,141.304123 
	C190.095016,140.835617 189.739807,140.405624 189.502792,139.965866 
	C177.736267,118.135010 152.799362,107.316078 129.172028,112.496864 
	C117.489990,115.058388 107.616920,120.908836 99.532242,129.819290 
	C98.383308,131.085571 96.056419,132.562988 94.752441,132.204590 
	C85.010521,129.526993 76.033836,130.462143 68.158813,136.892227 
	C53.974861,126.205460 39.027061,126.615410 25.798658,138.467224 
	C24.772726,139.386398 22.113340,139.243805 20.551929,138.671082 
	C14.056158,136.288467 7.581905,136.313950 1.000000,138.000000 
	C1.000000,116.979103 1.000000,95.958214 1.359816,74.433861 
	C3.508744,73.055153 5.432880,72.378708 7.064025,71.270874 
	C14.899196,65.949409 33.838295,66.423904 41.767723,74.220924 
	C45.600285,77.989479 48.536579,82.756599 55.748886,81.542427 
	C58.705872,81.044624 62.429588,85.101288 65.976265,87.187126 
	C66.066559,87.100739 66.529556,86.829132 66.745995,86.425362 
	C71.277687,77.971169 77.731865,73.869598 87.644547,76.565018 
	C88.764397,76.869522 90.981079,75.320602 91.843964,74.054916 
	C101.208679,60.318901 114.189919,56.472179 129.985413,59.352322 
	C131.752045,59.674450 134.383926,58.543667 135.737442,57.201885 
	C139.336700,53.633846 142.097275,49.186558 145.832550,45.795078 
	C158.271729,34.500793 173.005920,31.531588 188.931198,35.959827 
	C202.339554,39.688194 212.562454,47.949287 218.755905,60.638222 
	C220.197205,63.591125 221.844635,64.241959 225.047104,63.569908 
	C236.330490,61.202023 251.146225,68.516235 257.134521,77.592598 
	C259.710510,81.496918 262.519470,82.230820 266.756836,81.718567 
	C270.107361,81.313515 273.622131,81.702217 276.991974,82.213181 
	C279.365540,82.573082 281.618439,83.729103 283.803558,84.487442 
	C285.486694,81.027550 286.681122,77.709007 288.567505,74.846443 
	C296.084778,63.438980 307.276581,58.753826 320.344086,60.231041 
	C332.084625,61.558258 340.878601,68.179573 345.826965,79.377800 
	C346.608093,81.145477 348.316986,83.524200 349.872314,83.753677 
	C356.966034,84.800278 364.158020,85.180664 371.746948,85.837959 
	C371.814484,85.668610 372.204590,84.762672 372.540710,83.837135 
	C380.018646,63.245239 401.260834,51.862686 422.582672,56.902637 
	C430.220367,58.708004 436.961548,61.900536 442.386688,67.748871 
	C444.389130,69.907463 446.609436,70.718628 450.178864,70.460884 
	C456.809235,69.982094 463.783234,70.512253 470.226013,72.149643 
	C478.010864,74.128120 483.529755,79.942535 487.864929,87.199905 
	C494.724976,82.233696 502.265717,81.651833 510.000000,82.000000 
z"/>
<path fill="#43B2E7" opacity="1.000000" stroke="none" 
	d="
M510.000000,81.531342 
	C502.265717,81.651833 494.724976,82.233696 487.864929,87.199905 
	C483.529755,79.942535 478.010864,74.128120 470.226013,72.149643 
	C463.783234,70.512253 456.809235,69.982094 450.178864,70.460884 
	C446.609436,70.718628 444.389130,69.907463 442.386688,67.748871 
	C436.961548,61.900536 430.220367,58.708004 422.582672,56.902637 
	C401.260834,51.862686 380.018646,63.245239 372.540710,83.837135 
	C372.204590,84.762672 371.814484,85.668610 371.746948,85.837959 
	C364.158020,85.180664 356.966034,84.800278 349.872314,83.753677 
	C348.316986,83.524200 346.608093,81.145477 345.826965,79.377800 
	C340.878601,68.179573 332.084625,61.558258 320.344086,60.231041 
	C307.276581,58.753826 296.084778,63.438980 288.567505,74.846443 
	C286.681122,77.709007 285.486694,81.027550 283.803558,84.487442 
	C281.618439,83.729103 279.365540,82.573082 276.991974,82.213181 
	C273.622131,81.702217 270.107361,81.313515 266.756836,81.718567 
	C262.519470,82.230820 259.710510,81.496918 257.134521,77.592598 
	C251.146225,68.516235 236.330490,61.202023 225.047104,63.569908 
	C221.844635,64.241959 220.197205,63.591125 218.755905,60.638222 
	C212.562454,47.949287 202.339554,39.688194 188.931198,35.959827 
	C173.005920,31.531588 158.271729,34.500793 145.832550,45.795078 
	C142.097275,49.186558 139.336700,53.633846 135.737442,57.201885 
	C134.383926,58.543667 131.752045,59.674450 129.985413,59.352322 
	C114.189919,56.472179 101.208679,60.318901 91.843964,74.054916 
	C90.981079,75.320602 88.764397,76.869522 87.644547,76.565018 
	C77.731865,73.869598 71.277687,77.971169 66.745995,86.425362 
	C66.529556,86.829132 66.066559,87.100739 65.976265,87.187126 
	C62.429588,85.101288 58.705872,81.044624 55.748886,81.542427 
	C48.536579,82.756599 45.600285,77.989479 41.767723,74.220924 
	C33.838295,66.423904 14.899196,65.949409 7.064025,71.270874 
	C5.432880,72.378708 3.508744,73.055153 1.359816,73.965202 
	C1.000000,49.682728 1.000000,25.365454 1.000003,1.052977 
	C170.666672,1.057774 340.333344,1.057774 510.000000,1.057774 
	C510.000000,27.764593 510.000000,54.413639 510.000000,81.531342 
z"/>
<path fill="#B3E0F5" opacity="1.000000" stroke="none" 
	d="
M510.000000,253.531342 
	C486.075165,247.744492 465.737122,255.357635 453.048279,275.579926 
	C451.047089,278.769257 449.602966,282.437073 448.579315,286.074493 
	C447.559601,289.697906 445.482849,290.235809 442.260071,289.910645 
	C436.211853,289.300415 430.130280,289.018188 424.083893,288.393585 
	C423.015045,288.283142 421.756714,287.391663 421.079803,286.490051 
	C407.938782,268.986816 390.361511,262.630615 369.004730,265.442810 
	C367.743744,265.608856 365.839447,265.220612 365.099030,264.352753 
	C355.515259,253.118851 343.276550,245.853333 329.362183,241.912186 
	C316.855957,238.369873 303.898071,237.551025 290.989624,240.509659 
	C286.161102,241.616379 282.322479,240.952454 278.399597,237.121964 
	C267.548767,226.526718 253.783691,223.978577 239.504700,226.518982 
	C220.103500,229.970642 208.577072,242.541885 203.107513,261.583038 
	C202.352386,261.686584 201.219376,262.041931 200.118759,261.960327 
	C193.023148,261.434204 186.278748,262.692383 179.587189,265.092438 
	C177.932037,265.686096 174.741257,265.002960 173.651413,263.720917 
	C155.030914,241.816605 117.868538,239.613022 97.046646,260.521698 
	C94.323959,263.255707 91.885841,263.832336 87.869423,263.374146 
	C67.991791,261.106537 50.755394,266.849792 37.517612,282.378113 
	C35.631702,284.590363 34.377117,285.276215 31.784447,283.945526 
	C22.105711,278.977905 12.047792,278.724915 1.391549,281.945618 
	C1.000000,248.312439 1.000000,214.624878 1.229724,180.377670 
	C1.734056,179.619980 1.938332,179.365494 2.437671,178.992798 
	C4.817558,178.153748 6.832937,177.378723 8.846386,176.598709 
	C18.564734,172.833740 28.566477,172.196411 38.498558,175.085129 
	C53.576099,179.470367 63.829868,189.386047 68.789635,204.267563 
	C70.141647,208.324188 72.097656,209.478302 75.940025,209.012299 
	C81.973244,208.280579 87.700401,209.803574 92.470001,213.259720 
	C96.095215,215.886627 98.146439,214.812302 100.387733,211.989258 
	C102.654274,209.134415 104.538940,205.862885 107.208748,203.460556 
	C122.279900,189.899323 142.375778,184.996414 161.855194,196.063217 
	C162.872925,196.641418 165.592514,196.070068 166.251205,195.137680 
	C170.890366,188.570709 176.624069,183.709808 184.255127,180.803574 
	C201.991302,174.048920 222.941269,185.662796 226.958069,203.812744 
	C227.378540,205.712662 227.853073,207.600601 228.333450,209.624374 
	C235.447601,208.450592 241.950363,208.211227 247.382812,213.489624 
	C248.225388,214.308289 250.102524,214.328690 251.485275,214.278534 
	C257.279144,214.068344 263.066925,213.690811 269.827332,213.321579 
	C271.815613,210.890121 274.457031,206.793091 277.926697,203.594528 
	C285.527008,196.588013 294.969147,195.883911 304.604797,197.484146 
	C307.628815,197.986359 309.347809,197.543930 311.454407,195.254593 
	C314.577576,191.860535 318.073090,188.601944 321.955322,186.148239 
	C342.107788,173.411148 369.364868,175.443100 387.242004,192.678482 
	C388.353027,193.749649 390.016693,194.833191 391.458374,194.882446 
	C402.224091,195.250244 410.402863,200.213913 416.731934,208.617477 
	C429.868805,202.697220 443.080261,201.321533 456.086731,208.220322 
	C459.976501,210.283508 462.287720,210.238266 464.909882,206.723572 
	C468.645050,201.716995 473.676208,199.266373 480.099457,199.940979 
	C481.880249,200.128021 484.213623,200.395279 485.456726,199.484100 
	C492.982758,193.967636 501.574066,195.084625 510.000000,195.000000 
	C510.000000,214.354233 510.000000,233.708450 510.000000,253.531342 
z"/>
<path fill="#8FD1F1" opacity="1.000000" stroke="none" 
	d="
M510.000000,194.531342 
	C501.574066,195.084625 492.982758,193.967636 485.456726,199.484100 
	C484.213623,200.395279 481.880249,200.128021 480.099457,199.940979 
	C473.676208,199.266373 468.645050,201.716995 464.909882,206.723572 
	C462.287720,210.238266 459.976501,210.283508 456.086731,208.220322 
	C443.080261,201.321533 429.868805,202.697220 416.731934,208.617477 
	C410.402863,200.213913 402.224091,195.250244 391.458374,194.882446 
	C390.016693,194.833191 388.353027,193.749649 387.242004,192.678482 
	C369.364868,175.443100 342.107788,173.411148 321.955322,186.148239 
	C318.073090,188.601944 314.577576,191.860535 311.454407,195.254593 
	C309.347809,197.543930 307.628815,197.986359 304.604797,197.484146 
	C294.969147,195.883911 285.527008,196.588013 277.926697,203.594528 
	C274.457031,206.793091 271.815613,210.890121 269.827332,213.321579 
	C263.066925,213.690811 257.279144,214.068344 251.485275,214.278534 
	C250.102524,214.328690 248.225388,214.308289 247.382812,213.489624 
	C241.950363,208.211227 235.447601,208.450592 228.333450,209.624374 
	C227.853073,207.600601 227.378540,205.712662 226.958069,203.812744 
	C222.941269,185.662796 201.991302,174.048920 184.255127,180.803574 
	C176.624069,183.709808 170.890366,188.570709 166.251205,195.137680 
	C165.592514,196.070068 162.872925,196.641418 161.855194,196.063217 
	C142.375778,184.996414 122.279900,189.899323 107.208748,203.460556 
	C104.538940,205.862885 102.654274,209.134415 100.387733,211.989258 
	C98.146439,214.812302 96.095215,215.886627 92.470001,213.259720 
	C87.700401,209.803574 81.973244,208.280579 75.940025,209.012299 
	C72.097656,209.478302 70.141647,208.324188 68.789635,204.267563 
	C63.829868,189.386047 53.576099,179.470367 38.498558,175.085129 
	C28.566477,172.196411 18.564734,172.833740 8.846386,176.598709 
	C6.832937,177.378723 4.817558,178.153748 2.388148,178.691238 
	C1.648820,177.967606 1.324410,177.483795 1.000000,177.000000 
	C1.000000,176.250000 1.000000,175.500000 1.253698,174.159393 
	C1.338264,172.379196 1.169132,171.189606 1.000000,170.000000 
	C1.000000,159.645767 1.000000,149.291550 1.000000,138.468658 
	C7.581905,136.313950 14.056158,136.288467 20.551929,138.671082 
	C22.113340,139.243805 24.772726,139.386398 25.798658,138.467224 
	C39.027061,126.615410 53.974861,126.205460 68.158813,136.892227 
	C76.033836,130.462143 85.010521,129.526993 94.752441,132.204590 
	C96.056419,132.562988 98.383308,131.085571 99.532242,129.819290 
	C107.616920,120.908836 117.489990,115.058388 129.172028,112.496864 
	C152.799362,107.316078 177.736267,118.135010 189.502792,139.965866 
	C189.739807,140.405624 190.095016,140.835617 190.163864,141.304123 
	C191.838623,152.703445 202.255142,152.681290 209.923950,155.858612 
	C211.215408,156.393661 214.767990,153.226486 216.313446,151.077698 
	C221.858521,143.367859 228.537323,137.584396 239.060272,135.989746 
	C241.740356,135.991806 243.618881,136.258575 245.381042,135.919891 
	C247.145416,135.580811 249.529083,135.116425 250.346176,133.862808 
	C252.310822,130.848633 253.517166,127.340233 255.029419,124.031219 
	C255.029434,124.031219 255.000000,124.000916 255.326096,123.958870 
	C256.107819,123.282928 256.563416,122.649025 257.019043,122.015137 
	C257.019043,122.015137 257.001221,122.000000 257.291748,121.862961 
	C258.726074,120.486343 259.869873,119.246773 261.013641,118.007202 
	C261.323914,117.893517 261.579559,117.705566 262.193909,117.094505 
	C264.076080,115.499664 265.544861,114.253670 267.013672,113.007675 
	C270.521576,111.567917 273.961273,109.924644 277.548859,108.722710 
	C295.562378,102.687691 311.533325,106.036552 325.033112,119.604691 
	C327.378693,121.962120 329.311218,122.431244 332.775665,121.798195 
	C353.043640,118.094749 369.489777,123.737518 378.807678,144.763153 
	C381.929077,151.806564 384.179504,156.203842 392.043243,158.464203 
	C398.243164,160.246307 403.446472,165.495346 409.534760,169.495178 
	C416.222198,163.429199 424.644165,160.252243 434.465790,160.876953 
	C435.578644,160.947723 437.070251,159.620102 437.919495,158.565186 
	C445.287689,149.412415 454.860718,143.719345 466.457550,143.411102 
	C472.962250,143.238235 479.646820,145.675781 486.046753,147.610626 
	C488.902649,148.474030 490.435913,149.247726 492.637360,146.258240 
	C496.595856,140.882828 501.727753,136.939484 509.562317,137.998749 
	C510.000000,156.687561 510.000000,175.375122 510.000000,194.531342 
z"/>
<path fill="#77C0E1" opacity="1.000000" stroke="none" 
	d="
M1.000000,170.399994 
	C1.169132,171.189606 1.338264,172.379196 1.253698,173.784393 
	C1.000000,172.933334 1.000000,171.866653 1.000000,170.399994 
z"/>
<path fill="#77C0E1" opacity="1.000000" stroke="none" 
	d="
M1.000000,177.375000 
	C1.324410,177.483795 1.648820,177.967606 2.022753,178.752960 
	C1.938332,179.365494 1.734056,179.619980 1.229724,179.909012 
	C1.000000,179.250000 1.000000,178.500000 1.000000,177.375000 
z"/>
<path fill="#71C1E8" opacity="1.000000" stroke="none" 
	d="
M254.649689,124.028664 
	C253.517166,127.340233 252.310822,130.848633 250.346176,133.862808 
	C249.529083,135.116425 247.145416,135.580811 245.381042,135.919891 
	C243.618881,136.258575 241.740356,135.991806 239.456284,135.980011 
	C240.359955,134.989990 241.788361,133.099701 243.068130,133.195480 
	C247.562180,133.531784 249.071274,130.674515 250.786514,127.486511 
	C251.528458,126.107513 253.083984,125.166237 254.649689,124.028664 
z"/>
<path fill="#71C1E8" opacity="1.000000" stroke="none" 
	d="
M266.635620,113.012566 
	C265.544861,114.253670 264.076080,115.499664 262.309601,116.883575 
	C263.427155,115.686821 264.842377,114.352142 266.635620,113.012566 
z"/>
<path fill="#71C1E8" opacity="1.000000" stroke="none" 
	d="
M260.637207,118.012161 
	C259.869873,119.246773 258.726074,120.486343 257.298920,121.870438 
	C258.097260,120.682358 259.179016,119.349739 260.637207,118.012161 
z"/>
<path fill="#71C1E8" opacity="1.000000" stroke="none" 
	d="
M256.699646,122.059631 
	C256.563416,122.649025 256.107819,123.282928 255.340729,123.972763 
	C255.479599,123.387177 255.929932,122.745651 256.699646,122.059631 
z"/>
</svg>