<?xml version="1.0" standalone="no"?>
<!DOCTYPE svg PUBLIC "-//W3C//DTD SVG 20010904//EN"
 "http://www.w3.org/TR/2001/REC-SVG-20010904/DTD/svg10.dtd">
<svg version="1.0" xmlns="http://www.w3.org/2000/svg"
 width="75.000000pt" height="99.000000pt" viewBox="0 0 75.000000 99.000000"
 preserveAspectRatio="xMidYMid meet">
<metadata>
Created by potrace 1.10, written by Peter Selinger 2001-2011
</metadata>
<g transform="translate(0.000000,99.000000) scale(0.100000,-0.100000)"
fill="#000000" stroke="none">
<path d="M230 705 c-14 -8 -34 -18 -45 -24 -54 -25 -129 -142 -155 -241 -12
-46 -7 -149 11 -206 5 -17 25 -45 44 -64 31 -30 41 -33 109 -38 93 -6 113 -1
170 43 l46 35 33 -31 c41 -39 66 -49 128 -49 57 0 81 10 127 53 28 27 32 37
32 83 0 45 -3 54 -27 69 -14 10 -47 19 -72 20 -25 2 -50 4 -54 4 -16 2 -56
108 -68 181 -24 147 -62 194 -140 173 -22 -6 -42 -6 -45 -2 -8 14 -66 10 -94
-6z m202 -56 c9 -13 26 -66 38 -118 34 -162 78 -221 163 -221 72 0 75 -77 5
-120 -52 -31 -106 -26 -167 15 -28 19 -57 35 -64 35 -7 0 -36 -15 -62 -32 -40
-27 -61 -33 -115 -36 -119 -6 -164 46 -164 188 0 99 26 169 90 239 56 62 89
76 181 75 70 -1 79 -4 95 -25z"/>
<path d="M238 550 c-33 -25 -68 -108 -70 -164 -2 -35 3 -51 22 -71 30 -32 41
-31 81 2 43 36 59 79 59 156 0 91 -36 121 -92 77z m62 -70 c0 -54 -29 -121
-61 -144 -22 -15 -24 -15 -32 6 -13 35 11 122 45 167 37 47 48 40 48 -29z"/>
</g>
</svg>
