<?xml version="1.0" standalone="no"?>
<!DOCTYPE svg PUBLIC "-//W3C//DTD SVG 20010904//EN"
 "http://www.w3.org/TR/2001/REC-SVG-20010904/DTD/svg10.dtd">
<svg version="1.0" xmlns="http://www.w3.org/2000/svg"
 width="75.000000pt" height="99.000000pt" viewBox="0 0 75.000000 99.000000"
 preserveAspectRatio="xMidYMid meet">
<metadata>
Created by potrace 1.10, written by Peter Selinger 2001-2011
</metadata>
<g transform="translate(0.000000,99.000000) scale(0.100000,-0.100000)"
fill="#000000" stroke="none">
<path d="M213 698 c-114 -60 -193 -198 -193 -336 0 -84 13 -133 47 -172 38
-45 74 -60 147 -60 75 0 105 10 156 50 l37 29 23 -24 c33 -35 82 -55 133 -55
58 0 84 10 125 48 29 27 32 35 32 90 l0 60 -44 17 c-24 9 -53 14 -65 10 -44
-14 -93 77 -108 200 -7 59 -37 133 -60 150 -10 8 -52 13 -105 13 -68 0 -96 -5
-125 -20z m219 -48 c9 -11 22 -53 28 -92 27 -159 74 -235 150 -245 55 -7 70
-18 70 -50 0 -92 -125 -123 -219 -55 -24 18 -50 32 -56 32 -7 0 -39 -16 -71
-36 -55 -33 -64 -35 -126 -32 -75 4 -109 26 -134 85 -19 45 -18 163 3 215 38
99 118 187 179 200 10 2 51 3 89 1 56 -2 73 -6 87 -23z"/>
<path d="M232 545 c-34 -29 -58 -83 -67 -152 -6 -40 -3 -52 15 -75 26 -34 48
-35 85 -6 39 30 65 93 65 158 0 94 -39 124 -98 75z m47 -148 c-13 -40 -54 -81
-71 -71 -12 8 -2 118 14 149 6 11 22 33 37 48 l26 28 3 -58 c2 -32 -2 -75 -9
-96z"/>
</g>
</svg>
