<?xml version="1.0" standalone="no"?>
<!DOCTYPE svg PUBLIC "-//W3C//DTD SVG 20010904//EN"
 "http://www.w3.org/TR/2001/REC-SVG-20010904/DTD/svg10.dtd">
<svg version="1.0" xmlns="http://www.w3.org/2000/svg"
 width="53.000000pt" height="99.000000pt" viewBox="0 0 53.000000 99.000000"
 preserveAspectRatio="xMidYMid meet">
<metadata>
Created by potrace 1.10, written by Peter Selinger 2001-2011
</metadata>
<g transform="translate(0.000000,99.000000) scale(0.100000,-0.100000)"
fill="#000000" stroke="none">
<path d="M319 620 c-45 -13 -144 -87 -193 -142 -26 -29 -61 -82 -79 -118 -26
-53 -32 -75 -31 -126 3 -101 45 -153 144 -174 157 -33 303 33 346 156 19 55
18 91 -4 103 -23 12 -166 -1 -205 -19 -40 -19 -44 -6 -11 37 40 53 82 91 126
114 80 41 101 101 53 153 -20 21 -32 26 -72 25 -26 0 -60 -4 -74 -9z m117 -51
c23 -26 13 -43 -50 -85 -62 -41 -92 -70 -127 -121 -34 -49 -36 -64 -9 -88 19
-17 26 -18 79 -7 69 14 138 16 146 2 9 -14 -22 -81 -52 -112 -39 -41 -106 -63
-188 -63 -118 1 -185 53 -185 145 0 53 50 148 114 218 105 113 225 162 272
111z"/>
</g>
</svg>
