<?xml version="1.0" standalone="no"?>
<!DOCTYPE svg PUBLIC "-//W3C//DTD SVG 20010904//EN"
 "http://www.w3.org/TR/2001/REC-SVG-20010904/DTD/svg10.dtd">
<svg version="1.0" xmlns="http://www.w3.org/2000/svg"
 width="54.000000pt" height="99.000000pt" viewBox="0 0 54.000000 99.000000"
 preserveAspectRatio="xMidYMid meet">
<metadata>
Created by potrace 1.10, written by Peter Selinger 2001-2011
</metadata>
<g transform="translate(0.000000,99.000000) scale(0.100000,-0.100000)"
fill="#000000" stroke="none">
<path d="M329 620 c-40 -12 -140 -83 -179 -126 -112 -125 -153 -259 -107 -349
62 -123 335 -124 433 -2 47 60 69 152 41 176 -18 14 -138 5 -195 -16 -24 -8
-46 -13 -49 -10 -7 8 57 90 93 120 16 13 43 32 61 41 75 38 95 99 48 150 -20
21 -32 26 -72 25 -26 0 -60 -4 -74 -9z m116 -50 c23 -26 15 -44 -42 -82 -76
-53 -119 -95 -144 -143 l-24 -45 22 -22 c21 -21 26 -21 81 -10 79 16 141 16
148 -2 8 -20 -30 -89 -65 -119 -44 -36 -96 -52 -176 -51 -207 0 -243 158 -81
352 92 111 235 173 281 122z"/>
</g>
</svg>
