<?xml version="1.0" standalone="no"?>
<!DOCTYPE svg PUBLIC "-//W3C//DTD SVG 20010904//EN"
 "http://www.w3.org/TR/2001/REC-SVG-20010904/DTD/svg10.dtd">
<svg version="1.0" xmlns="http://www.w3.org/2000/svg"
 width="47.000000pt" height="99.000000pt" viewBox="0 0 47.000000 99.000000"
 preserveAspectRatio="xMidYMid meet">
<metadata>
Created by potrace 1.10, written by Peter Selinger 2001-2011
</metadata>
<g transform="translate(0.000000,99.000000) scale(0.100000,-0.100000)"
fill="#000000" stroke="none">
<path d="M254 967 c-48 -19 -128 -82 -159 -127 -34 -50 -55 -133 -55 -226 0
-51 -4 -75 -15 -84 -8 -7 -15 -29 -15 -49 0 -37 9 -51 57 -89 21 -15 24 -30
34 -167 12 -168 20 -197 55 -215 34 -19 38 -9 15 36 -14 28 -22 78 -30 178
-12 146 -24 185 -66 212 -28 18 -33 53 -11 87 8 13 16 61 18 118 6 114 28 168
90 224 41 38 130 85 160 85 47 0 95 -91 69 -130 -8 -12 -14 -11 -34 8 -30 29
-60 19 -116 -37 -29 -29 -42 -52 -50 -90 -17 -81 -14 -107 17 -141 22 -25 38
-32 91 -39 65 -8 91 -26 91 -62 0 -23 -18 -36 -63 -44 -22 -4 -50 -18 -65 -30
l-25 -22 17 -122 c18 -124 15 -168 -12 -209 -8 -12 -12 -25 -9 -28 13 -14 46
10 63 44 17 35 17 44 2 162 -9 69 -18 132 -20 140 -2 10 13 17 58 25 79 13 94
26 94 81 0 70 -30 97 -126 109 -90 11 -90 12 -79 104 6 50 12 61 58 106 l51
50 9 -37 c14 -57 49 -61 80 -9 34 58 13 166 -38 189 -32 15 -100 14 -141 -1z"/>
</g>
</svg>
