<?xml version="1.0" standalone="no"?>
<!DOCTYPE svg PUBLIC "-//W3C//DTD SVG 20010904//EN"
 "http://www.w3.org/TR/2001/REC-SVG-20010904/DTD/svg10.dtd">
<svg version="1.0" xmlns="http://www.w3.org/2000/svg"
 width="25.000000pt" height="99.000000pt" viewBox="0 0 25.000000 99.000000"
 preserveAspectRatio="xMidYMid meet">
<metadata>
Created by potrace 1.10, written by Peter Selinger 2001-2011
</metadata>
<g transform="translate(0.000000,99.000000) scale(0.100000,-0.100000)"
fill="#000000" stroke="none">
<path d="M62 963 c-32 -26 -39 -89 -46 -400 -8 -327 -5 -343 67 -343 58 0 73
18 87 105 17 107 11 618 -8 637 -19 19 -77 20 -100 1z m57 -32 c20 -13 23
-614 3 -649 -15 -26 -44 -29 -63 -5 -16 18 -16 52 -2 403 10 241 19 278 62
251z"/>
</g>
</svg>
