<?xml version="1.0" standalone="no"?>
<!DOCTYPE svg PUBLIC "-//W3C//DTD SVG 20010904//EN"
 "http://www.w3.org/TR/2001/REC-SVG-20010904/DTD/svg10.dtd">
<svg version="1.0" xmlns="http://www.w3.org/2000/svg"
 width="71.000000pt" height="99.000000pt" viewBox="0 0 71.000000 99.000000"
 preserveAspectRatio="xMidYMid meet">
<metadata>
Created by potrace 1.10, written by Peter Selinger 2001-2011
</metadata>
<g transform="translate(0.000000,99.000000) scale(0.100000,-0.100000)"
fill="#000000" stroke="none">
<path d="M185 626 c-69 -32 -150 -133 -170 -211 -11 -46 -6 -149 9 -193 14
-39 66 -102 85 -102 5 0 11 -5 13 -12 14 -41 246 -38 335 4 54 26 163 103 163
116 0 4 10 18 23 32 47 53 61 154 31 226 -20 49 -77 110 -128 136 -34 17 -50
19 -110 13 -81 -8 -113 -8 -176 0 -28 3 -56 0 -75 -9z m150 -39 c22 0 63 3 91
8 65 10 112 -5 160 -51 123 -120 66 -286 -131 -387 -50 -25 -75 -31 -147 -35
-48 -2 -103 -1 -122 2 -54 10 -116 78 -144 156 l-23 65 32 65 c42 87 73 126
128 162 38 24 52 28 81 22 19 -4 53 -7 75 -7z"/>
<path d="M275 528 c-69 -38 -115 -113 -115 -187 0 -44 4 -52 35 -80 27 -23 45
-31 75 -31 97 0 233 87 246 158 6 29 2 37 -38 75 -72 70 -150 95 -203 65z
m117 -49 c15 -10 31 -19 36 -19 5 0 21 -11 35 -24 22 -21 25 -29 18 -49 -19
-49 -136 -117 -201 -116 -19 0 -46 6 -60 13 -21 12 -24 20 -21 62 3 60 39 117
90 144 39 21 62 18 103 -11z"/>
</g>
</svg>
