<?xml version="1.0" standalone="no"?>
<!DOCTYPE svg PUBLIC "-//W3C//DTD SVG 20010904//EN"
 "http://www.w3.org/TR/2001/REC-SVG-20010904/DTD/svg10.dtd">
<svg version="1.0" xmlns="http://www.w3.org/2000/svg"
 width="42.000000pt" height="99.000000pt" viewBox="0 0 42.000000 99.000000"
 preserveAspectRatio="xMidYMid meet">
<metadata>
Created by potrace 1.10, written by Peter Selinger 2001-2011
</metadata>
<g 
fill="#000000" stroke="none">
<path d="M167 646 c-88 -43 -127 -97 -127 -174 0 -41 6 -57 34 -94 19 -25 43
-49 53 -52 29 -11 -4 -26 -59 -26 -38 0 -48 -4 -53 -21 -29 -90 69 -159 224
-159 81 0 153 25 175 62 18 29 -2 32 -50 8 -92 -46 -230 -36 -286 21 -32 31
-30 49 6 49 30 0 76 36 76 60 0 11 -13 34 -29 52 -60 69 -67 120 -25 176 32
41 114 82 166 82 58 0 91 -47 49 -70 -11 -5 -29 -10 -40 -10 -25 0 -77 -43
-84 -70 -5 -20 46 -75 95 -101 12 -7 43 -27 67 -46 48 -36 61 -40 61 -19 0 20
-55 70 -125 111 -33 20 -64 40 -69 45 -12 12 69 49 106 50 49 0 65 75 27 124
-18 23 -27 26 -82 26 -44 -1 -76 -7 -110 -24z"/>
</g>
</svg>
