<?xml version="1.0" standalone="no"?>
<!DOCTYPE svg PUBLIC "-//W3C//DTD SVG 20010904//EN"
 "http://www.w3.org/TR/2001/REC-SVG-20010904/DTD/svg10.dtd">
<svg version="1.0" xmlns="http://www.w3.org/2000/svg"
 width="45.000000pt" height="99.000000pt" viewBox="0 0 45.000000 99.000000"
 preserveAspectRatio="xMidYMid meet">
<metadata>
Created by potrace 1.10, written by Peter Selinger 2001-2011
</metadata>
<g 
fill="#000000" stroke="1">
<path d="M87 823 c-28 -31 -46 -93 -47 -164 0 -30 -6 -51 -15 -59 -18 -15 -12
-68 9 -85 7 -5 21 -57 33 -115 27 -139 55 -210 105 -265 127 -142 319 -12 237
161 -20 42 -58 44 -88 3 l-23 -31 -19 28 c-17 26 -49 142 -49 177 0 10 21 19
63 27 91 18 100 24 83 58 -16 32 -75 67 -127 76 l-36 6 -6 85 c-3 46 -11 94
-17 105 -16 31 -70 27 -103 -7z m77 -54 c3 -17 6 -53 6 -79 0 -56 24 -84 90
-103 47 -13 63 -33 33 -43 -58 -19 -76 -30 -90 -57 -14 -28 -14 -36 2 -96 23
-85 39 -117 71 -137 24 -16 27 -16 55 5 16 12 34 19 39 16 6 -3 10 -29 10 -56
0 -66 -30 -99 -91 -99 -36 0 -48 6 -84 43 -49 49 -77 117 -100 244 -9 48 -23
102 -32 120 -14 26 -15 39 -5 85 6 29 14 73 17 98 11 84 66 125 79 59z"/>
</g>
</svg>
